  0
SECTION
  2
HEADER
  9
$ANGBASE
  50
0.0
  9
$ANGDIR
  70
1
  9
$MEASUREMENT
  70
0
  0
ENDSEC
  0
SECTION
  2
TABLES
  0
TABLE
  2
LTYPE
  70
4
  0
LTYPE
  5
40F
  2
CONTINUOUS
  70
0
  3
Solid line
  72
65
  73
0
  40
0.0
  0
LTYPE
  5
410
  2
DASHDOT
 70
0
  3
Dash Dot ____ _ ____ _
 72
65
 73
4
 40
2.0
 49
1.25
 49
-0.25
 49
0.25
 49
-0.25
  0
LTYPE
  5
411
  2
DASHED
 70
0
  3
Dashed __ __ __ __ __
 72
65
 73
2
 40
0.75
 49
0.5
 49
-0.25
  0
LTYPE
  5
43B
  2
DOTTED
 70
0
  3
Dotted .  .  .  .
 72
65
 73
2
 40
0.2
 49
0.0
 49
-0.2
  0
ENDTAB
  0
TABLE
  2
STYLE
  70
4
  0
STYLE
  2
KICAD
  70
0
  40
0
  41
1
  42
1
  50
0
  71
0
  3
isocp.shx
  0
STYLE
  2
KICADB
  70
0
  40
0
  41
1
  42
1
  50
0
  71
0
  3
isocp.shx
  0
STYLE
  2
KICADI
  70
0
  40
0
  41
1
  42
1
  50
15
  71
0
  3
isocp.shx
  0
STYLE
  2
KICADBI
  70
0
  40
0
  41
1
  42
1
  50
15
  71
0
  3
isocp.shx
  0
ENDTAB
  0
TABLE
  2
LAYER
  70
1
  0
LAYER
  2
BLACK
  70
0
  62
7
  6
CONTINUOUS
  0
ENDTAB
  0
ENDSEC
  0
SECTION
  2
ENTITIES
0
LINE
8
BLACK
6
CONTINUOUS
10
-0.146513
20
-0.495557
11
-0.101519
21
-0.495557
0
LINE
8
BLACK
6
CONTINUOUS
10
-0.579584
20
-0.495557
11
-0.534589
21
-0.495557
0
LINE
8
BLACK
6
CONTINUOUS
10
-0.557087
20
-0.518054
11
-0.557087
21
-0.47306
0
LINE
8
BLACK
6
CONTINUOUS
10
-0.742829
20
-0.0374578
11
-0.742829
21
0.00753654
0
LINE
8
BLACK
6
CONTINUOUS
10
-0.742829
20
-0.470529
11
-0.742829
21
-0.425534
0
LINE
8
BLACK
6
CONTINUOUS
10
-0.720332
20
-0.448031
11
-0.765326
21
-0.448031
0
CIRCLE
8
BLACK
10
-3.77953
20
-3.09055
40
0.0472441
0
LINE
8
BLACK
6
CONTINUOUS
10
0.495669
20
-0.304528
11
0.59252
21
-0.304528
0
LINE
8
BLACK
6
CONTINUOUS
10
0.495669
20
-0.246654
11
0.495669
21
-0.304528
0
LINE
8
BLACK
6
CONTINUOUS
10
0.59252
20
-0.246654
11
0.495669
21
-0.246654
0
CIRCLE
8
BLACK
10
-3.24803
20
-3.12559
40
0.0472441
0
LINE
8
BLACK
6
CONTINUOUS
10
1.3878
20
-0.895669
11
1.37992
21
-0.895669
0
LINE
8
BLACK
6
CONTINUOUS
10
1.52756
20
-1.06102
11
1.4311
21
-1.06102
0
LINE
8
BLACK
6
CONTINUOUS
10
1.28543
20
-0.895669
11
1.28543
21
-0.927165
0
LINE
8
BLACK
6
CONTINUOUS
10
1.3878
20
-1.06102
11
1.37992
21
-1.06102
0
LINE
8
BLACK
6
CONTINUOUS
10
1.23819
20
-0.927165
11
1.23031
21
-0.927165
0
LINE
8
BLACK
6
CONTINUOUS
10
1.05906
20
-0.895669
11
1.05906
21
-1.09252
0
LINE
8
BLACK
6
CONTINUOUS
10
1.33858
20
-0.927165
11
1.33465
21
-0.927165
0
LINE
8
BLACK
6
CONTINUOUS
10
1.28543
20
-0.927165
11
1.27953
21
-0.927165
0
LINE
8
BLACK
6
CONTINUOUS
10
1.28937
20
-1.06102
11
1.27953
21
-1.06102
0
LINE
8
BLACK
6
CONTINUOUS
10
1.55906
20
-1.09252
11
1.4311
21
-1.09252
0
LINE
8
BLACK
6
CONTINUOUS
10
1.23819
20
-1.06102
11
1.23031
21
-1.06102
0
LINE
8
BLACK
6
CONTINUOUS
10
1.52756
20
-0.927165
11
1.52756
21
-1.06102
0
LINE
8
BLACK
6
CONTINUOUS
10
1.09055
20
-0.927165
11
1.09055
21
-1.06102
0
LINE
8
BLACK
6
CONTINUOUS
10
1.28937
20
-0.895669
11
1.27953
21
-0.895669
0
LINE
8
BLACK
6
CONTINUOUS
10
1.33465
20
-0.927165
11
1.33465
21
-0.895669
0
LINE
8
BLACK
6
CONTINUOUS
10
1.28937
20
-1.09252
11
1.27953
21
-1.09252
0
LINE
8
BLACK
6
CONTINUOUS
10
1.52756
20
-0.927165
11
1.4311
21
-0.927165
0
LINE
8
BLACK
6
CONTINUOUS
10
1.18898
20
-1.09252
11
1.05906
21
-1.09252
0
LINE
8
BLACK
6
CONTINUOUS
10
1.23819
20
-0.895669
11
1.23031
21
-0.895669
0
LINE
8
BLACK
6
CONTINUOUS
10
1.33858
20
-1.09252
11
1.33071
21
-1.09252
0
LINE
8
BLACK
6
CONTINUOUS
10
1.33858
20
-0.895669
11
1.32874
21
-0.895669
0
LINE
8
BLACK
6
CONTINUOUS
10
1.18898
20
-0.895669
11
1.05906
21
-0.895669
0
LINE
8
BLACK
6
CONTINUOUS
10
1.55906
20
-0.895669
11
1.4311
21
-0.895669
0
LINE
8
BLACK
6
CONTINUOUS
10
1.33858
20
-1.06102
11
1.33071
21
-1.06102
0
LINE
8
BLACK
6
CONTINUOUS
10
1.23819
20
-1.09252
11
1.23031
21
-1.09252
0
LINE
8
BLACK
6
CONTINUOUS
10
1.18898
20
-1.06102
11
1.09055
21
-1.06102
0
LINE
8
BLACK
6
CONTINUOUS
10
1.55906
20
-0.895669
11
1.55906
21
-1.09252
0
LINE
8
BLACK
6
CONTINUOUS
10
1.18898
20
-0.927165
11
1.09055
21
-0.927165
0
LINE
8
BLACK
6
CONTINUOUS
10
1.3878
20
-0.927165
11
1.37992
21
-0.927165
0
LINE
8
BLACK
6
CONTINUOUS
10
1.3878
20
-1.09252
11
1.37992
21
-1.09252
0
POLYLINE
8
BLACK
66
1
70
1
40
0.0111656
41
0.0111656
0
VERTEX
8
BLACK
10
1.45308
 20
-0.864173
42
1.0
0
VERTEX
8
BLACK
10
1.46424
 20
-0.864173
42
1.0
0
SEQEND
0
LINE
8
BLACK
6
CONTINUOUS
10
-0.0102362
20
-0.412795
11
-0.0102362
21
-0.470669
0
LINE
8
BLACK
6
CONTINUOUS
10
-0.0102362
20
-0.470669
11
0.0866142
21
-0.470669
0
LINE
8
BLACK
6
CONTINUOUS
10
0.0866142
20
-0.412795
11
-0.0102362
21
-0.412795
0
LINE
8
BLACK
6
CONTINUOUS
10
1.62165
20
-0.322441
11
1.62165
21
-0.819291
0
LINE
8
BLACK
6
CONTINUOUS
10
1.60984
20
-0.831102
11
1.60984
21
-0.73622
0
LINE
8
BLACK
6
CONTINUOUS
10
1.94134
20
-0.819291
11
1.94134
21
-0.322441
0
LINE
8
BLACK
6
CONTINUOUS
10
1.62165
20
-0.819291
11
1.94134
21
-0.819291
0
LINE
8
BLACK
6
CONTINUOUS
10
1.70472
20
-0.831102
11
1.60984
21
-0.831102
0
LINE
8
BLACK
6
CONTINUOUS
10
1.94134
20
-0.322441
11
1.62165
21
-0.322441
0
LINE
8
BLACK
6
CONTINUOUS
10
0.343701
20
0.603543
11
0.343701
21
0.498819
0
LINE
8
BLACK
6
CONTINUOUS
10
1.44606
20
0.603543
11
0.343701
21
0.603543
0
LINE
8
BLACK
6
CONTINUOUS
10
1.54843
20
0.551181
11
1.54843
21
0.498819
0
LINE
8
BLACK
6
CONTINUOUS
10
1.44606
20
0.498819
11
0.343701
21
0.498819
0
LINE
8
BLACK
6
CONTINUOUS
10
1.54843
20
0.498819
11
1.49606
21
0.498819
0
LINE
8
BLACK
6
CONTINUOUS
10
1.44606
20
0.603543
11
1.44606
21
0.498819
0
LINE
8
BLACK
6
CONTINUOUS
10
0.33878
20
-1.09055
11
0.33878
21
-0.993701
0
LINE
8
BLACK
6
CONTINUOUS
10
0.33878
20
-0.993701
11
0.280906
21
-0.993701
0
LINE
8
BLACK
6
CONTINUOUS
10
0.280906
20
-0.993701
11
0.280906
21
-1.09055
0
LINE
8
BLACK
6
CONTINUOUS
10
1.54173
20
1.15787
11
1.24173
21
1.15787
0
LINE
8
BLACK
6
CONTINUOUS
10
1.55354
20
0.826378
11
1.45866
21
0.826378
0
LINE
8
BLACK
6
CONTINUOUS
10
1.55354
20
0.92126
11
1.55354
21
0.826378
0
LINE
8
BLACK
6
CONTINUOUS
10
1.24173
20
1.15787
11
1.24173
21
0.838189
0
LINE
8
BLACK
6
CONTINUOUS
10
1.54173
20
0.838189
11
1.54173
21
1.15787
0
LINE
8
BLACK
6
CONTINUOUS
10
1.24173
20
0.838189
11
1.54173
21
0.838189
0
LINE
8
BLACK
6
CONTINUOUS
10
-0.835433
20
-1.15197
11
-0.835433
21
-0.915748
0
LINE
8
BLACK
6
CONTINUOUS
10
-0.787008
20
-0.747638
11
-1.24055
21
-0.747638
0
LINE
8
BLACK
6
CONTINUOUS
10
-0.814567
20
-0.915748
11
-0.835433
21
-0.915748
0
LINE
8
BLACK
6
CONTINUOUS
10
-1.19213
20
-1.15197
11
-1.19213
21
-0.915748
0
LINE
8
BLACK
6
CONTINUOUS
10
-0.787008
20
-0.835039
11
-0.814567
21
-0.835039
0
LINE
8
BLACK
6
CONTINUOUS
10
-1.21299
20
-0.835039
11
-1.24055
21
-0.835039
0
LINE
8
BLACK
6
CONTINUOUS
10
-0.814567
20
-0.915748
11
-0.814567
21
-0.835039
0
LINE
8
BLACK
6
CONTINUOUS
10
-0.835433
20
-1.15197
11
-1.19094
21
-1.15197
0
LINE
8
BLACK
6
CONTINUOUS
10
-1.19213
20
-0.915748
11
-1.21299
21
-0.915748
0
LINE
8
BLACK
6
CONTINUOUS
10
-1.21299
20
-0.915748
11
-1.21299
21
-0.835039
0
ARC
8
BLACK
10
-0.791339
20
-0.791339
40
0.0437008
50
-89.9999
51
81.0999
0
ARC
8
BLACK
10
-1.23622
20
-0.791339
40
0.0437008
50
-270
51
-90
0
LINE
8
BLACK
6
CONTINUOUS
10
0.444882
20
1.1622
11
-0.0519685
21
1.1622
0
LINE
8
BLACK
6
CONTINUOUS
10
-0.0519685
20
1.1622
11
-0.0519685
21
0.84252
0
LINE
8
BLACK
6
CONTINUOUS
10
0.444882
20
0.84252
11
0.444882
21
1.1622
0
LINE
8
BLACK
6
CONTINUOUS
10
-0.0519685
20
0.84252
11
0.444882
21
0.84252
0
LINE
8
BLACK
6
CONTINUOUS
10
0.456693
20
0.830709
11
0.361811
21
0.830709
0
LINE
8
BLACK
6
CONTINUOUS
10
0.456693
20
0.925591
11
0.456693
21
0.830709
0
CIRCLE
8
BLACK
10
-3.44213
20
-3.0815
40
0.0472441
0
LINE
8
BLACK
6
CONTINUOUS
10
-1.20315
20
0.80748
11
-1.20315
21
0.691339
0
LINE
8
BLACK
6
CONTINUOUS
10
-0.909624
20
0.472047
11
-1.20315
21
0.472047
0
LINE
8
BLACK
6
CONTINUOUS
10
-0.867717
20
0.513954
11
-0.909624
21
0.472047
0
LINE
8
BLACK
6
CONTINUOUS
10
-1.20315
20
0.472047
11
-1.20315
21
0.588189
0
LINE
8
BLACK
6
CONTINUOUS
10
-0.867717
20
0.765573
11
-0.867717
21
0.691339
0
LINE
8
BLACK
6
CONTINUOUS
10
-0.867717
20
0.765573
11
-0.909624
21
0.80748
0
LINE
8
BLACK
6
CONTINUOUS
10
-0.909624
20
0.80748
11
-1.20315
21
0.80748
0
LINE
8
BLACK
6
CONTINUOUS
10
-0.867717
20
0.513954
11
-0.867717
21
0.588189
0
LINE
8
BLACK
6
CONTINUOUS
10
-0.0122047
20
-0.539567
11
0.0846457
21
-0.539567
0
LINE
8
BLACK
6
CONTINUOUS
10
0.0846457
20
-0.481693
11
-0.0122047
21
-0.481693
0
LINE
8
BLACK
6
CONTINUOUS
10
-0.0122047
20
-0.481693
11
-0.0122047
21
-0.539567
0
LINE
8
BLACK
6
CONTINUOUS
10
0.626772
20
-1.08189
11
0.626772
21
-0.916535
0
LINE
8
BLACK
6
CONTINUOUS
10
0.988976
20
-0.916535
11
0.941732
21
-0.916535
0
LINE
8
BLACK
6
CONTINUOUS
10
0.988976
20
-1.08189
11
0.988976
21
-0.916535
0
LINE
8
BLACK
6
CONTINUOUS
10
0.953543
20
-1.0937
11
1.00079
21
-1.0937
0
LINE
8
BLACK
6
CONTINUOUS
10
0.626772
20
-0.916535
11
0.674016
21
-0.916535
0
LINE
8
BLACK
6
CONTINUOUS
10
1.00079
20
-1.0937
11
1.00079
21
-1.04646
0
LINE
8
BLACK
6
CONTINUOUS
10
0.674016
20
-1.08189
11
0.626772
21
-1.08189
0
LINE
8
BLACK
6
CONTINUOUS
10
0.941732
20
-1.08189
11
0.988976
21
-1.08189
0
LINE
8
BLACK
6
CONTINUOUS
10
0.253543
20
-0.764764
11
0.156693
21
-0.764764
0
LINE
8
BLACK
6
CONTINUOUS
10
0.156693
20
-0.764764
11
0.156693
21
-0.822638
0
LINE
8
BLACK
6
CONTINUOUS
10
0.156693
20
-0.822638
11
0.253543
21
-0.822638
0
LINE
8
BLACK
6
CONTINUOUS
10
0.667323
20
-0.304528
11
0.764173
21
-0.304528
0
LINE
8
BLACK
6
CONTINUOUS
10
0.764173
20
-0.246654
11
0.667323
21
-0.246654
0
LINE
8
BLACK
6
CONTINUOUS
10
0.764173
20
-0.304528
11
0.764173
21
-0.246654
0
LINE
8
BLACK
6
CONTINUOUS
10
1.83091
20
-0.173622
11
1.72854
21
-0.173622
0
LINE
8
BLACK
6
CONTINUOUS
10
1.83091
20
-0.278346
11
1.72854
21
-0.278346
0
LINE
8
BLACK
6
CONTINUOUS
10
1.88091
20
-0.173622
11
1.93327
21
-0.173622
0
LINE
8
BLACK
6
CONTINUOUS
10
1.83091
20
-0.173622
11
1.83091
21
-0.278346
0
LINE
8
BLACK
6
CONTINUOUS
10
1.72854
20
-0.173622
11
1.72854
21
-0.278346
0
LINE
8
BLACK
6
CONTINUOUS
10
1.93327
20
-0.173622
11
1.93327
21
-0.225984
0
LINE
8
BLACK
6
CONTINUOUS
10
-0.90315
20
1.15394
11
-1.49843
21
1.15394
0
LINE
8
BLACK
6
CONTINUOUS
10
-1.49843
20
1.15394
11
-1.49843
21
0.834252
0
LINE
8
BLACK
6
CONTINUOUS
10
-0.891339
20
0.917323
11
-0.891339
21
0.822441
0
LINE
8
BLACK
6
CONTINUOUS
10
-0.891339
20
0.822441
11
-0.98622
21
0.822441
0
LINE
8
BLACK
6
CONTINUOUS
10
-0.90315
20
0.834252
11
-0.90315
21
1.15394
0
LINE
8
BLACK
6
CONTINUOUS
10
-1.49843
20
0.834252
11
-0.90315
21
0.834252
0
LINE
8
BLACK
6
CONTINUOUS
10
0.0846457
20
-0.550591
11
-0.0122047
21
-0.550591
0
LINE
8
BLACK
6
CONTINUOUS
10
-0.0122047
20
-0.608465
11
0.0846457
21
-0.608465
0
LINE
8
BLACK
6
CONTINUOUS
10
-0.0122047
20
-0.550591
11
-0.0122047
21
-0.608465
0
LINE
8
BLACK
6
CONTINUOUS
10
-3.86969
20
-3.50352
11
-3.79488
21
-3.50352
0
LINE
8
BLACK
6
CONTINUOUS
10
-3.86969
20
-3.57833
11
-3.86969
21
-3.50352
0
LINE
8
BLACK
6
CONTINUOUS
10
-3.79488
20
-3.57833
11
-3.86969
21
-3.57833
0
LINE
8
BLACK
6
CONTINUOUS
10
-3.79488
20
-3.50352
11
-3.79488
21
-3.57833
0
LINE
8
BLACK
6
CONTINUOUS
10
0.135827
20
-0.326772
11
0.135827
21
-0.322835
0
LINE
8
BLACK
6
CONTINUOUS
10
-0.0374016
20
-0.326772
11
-0.0374016
21
-0.322835
0
LINE
8
BLACK
6
CONTINUOUS
10
0.135827
20
-0.255906
11
-0.0374016
21
-0.255906
0
LINE
8
BLACK
6
CONTINUOUS
10
-0.0374016
20
-0.393701
11
0.135827
21
-0.393701
0
LINE
8
BLACK
6
CONTINUOUS
10
0.59252
20
-0.177756
11
0.495669
21
-0.177756
0
LINE
8
BLACK
6
CONTINUOUS
10
0.495669
20
-0.177756
11
0.495669
21
-0.23563
0
LINE
8
BLACK
6
CONTINUOUS
10
0.495669
20
-0.23563
11
0.59252
21
-0.23563
0
LINE
8
BLACK
6
CONTINUOUS
10
-3.32677
20
-3.30274
11
-3.25197
21
-3.30274
0
LINE
8
BLACK
6
CONTINUOUS
10
-3.25197
20
-3.30274
11
-3.25197
21
-3.37754
0
LINE
8
BLACK
6
CONTINUOUS
10
-3.32677
20
-3.37754
11
-3.32677
21
-3.30274
0
LINE
8
BLACK
6
CONTINUOUS
10
-3.25197
20
-3.37754
11
-3.32677
21
-3.37754
0
LINE
8
BLACK
6
CONTINUOUS
10
1.94134
20
0.809449
11
1.62165
21
0.809449
0
LINE
8
BLACK
6
CONTINUOUS
10
1.62165
20
0.809449
11
1.62165
21
0.411024
0
LINE
8
BLACK
6
CONTINUOUS
10
1.94134
20
0.411024
11
1.94134
21
0.809449
0
LINE
8
BLACK
6
CONTINUOUS
10
1.62165
20
0.411024
11
1.94134
21
0.411024
0
LINE
8
BLACK
6
CONTINUOUS
10
1.70472
20
0.399213
11
1.60984
21
0.399213
0
LINE
8
BLACK
6
CONTINUOUS
10
1.60984
20
0.399213
11
1.60984
21
0.494094
0
LINE
8
BLACK
6
CONTINUOUS
10
1.44606
20
0.656299
11
0.343701
21
0.656299
0
LINE
8
BLACK
6
CONTINUOUS
10
1.54843
20
0.656299
11
1.49606
21
0.656299
0
LINE
8
BLACK
6
CONTINUOUS
10
0.343701
20
0.761024
11
0.343701
21
0.656299
0
LINE
8
BLACK
6
CONTINUOUS
10
1.44606
20
0.761024
11
0.343701
21
0.761024
0
LINE
8
BLACK
6
CONTINUOUS
10
1.44606
20
0.761024
11
1.44606
21
0.656299
0
LINE
8
BLACK
6
CONTINUOUS
10
1.54843
20
0.708661
11
1.54843
21
0.656299
0
LINE
8
BLACK
6
CONTINUOUS
10
-0.741437
20
-0.215856
11
-0.741437
21
-0.234538
0
LINE
8
BLACK
6
CONTINUOUS
10
-0.700295
20
-0.215856
11
-0.700295
21
-0.234538
0
LINE
8
BLACK
6
CONTINUOUS
10
-1.58504
20
0.305512
11
-1.58504
21
0.18937
0
LINE
8
BLACK
6
CONTINUOUS
10
-1.24961
20
0.263605
11
-1.29151
21
0.305512
0
LINE
8
BLACK
6
CONTINUOUS
10
-1.29151
20
-0.0299213
11
-1.58504
21
-0.0299213
0
LINE
8
BLACK
6
CONTINUOUS
10
-1.24961
20
0.0119857
11
-1.24961
21
0.0862205
0
LINE
8
BLACK
6
CONTINUOUS
10
-1.24961
20
0.263605
11
-1.24961
21
0.18937
0
LINE
8
BLACK
6
CONTINUOUS
10
-1.29151
20
0.305512
11
-1.58504
21
0.305512
0
LINE
8
BLACK
6
CONTINUOUS
10
-1.58504
20
-0.0299213
11
-1.58504
21
0.0862205
0
LINE
8
BLACK
6
CONTINUOUS
10
-1.24961
20
0.0119857
11
-1.29151
21
-0.0299213
0
LINE
8
BLACK
6
CONTINUOUS
10
-1.11713
20
0.423228
11
-1.11713
21
0.411417
0
LINE
8
BLACK
6
CONTINUOUS
10
-1.11713
20
0.305118
11
-1.11713
21
0.316929
0
LINE
8
BLACK
6
CONTINUOUS
10
-0.949803
20
0.305118
11
-1.11713
21
0.305118
0
LINE
8
BLACK
6
CONTINUOUS
10
-0.949803
20
0.423228
11
-1.11713
21
0.423228
0
ARC
8
BLACK
10
-0.901575
20
0.364173
40
0.0019685
50
-180
51
-0
0
ARC
8
BLACK
10
-0.901575
20
0.364173
40
0.0019685
50
-0
51
180
0
LINE
8
BLACK
6
CONTINUOUS
10
-1.85768
20
-0.557087
11
-1.85768
21
-0.533858
0
LINE
8
BLACK
6
CONTINUOUS
10
-1.94035
20
-0.135433
11
-1.85768
21
-0.135433
0
LINE
8
BLACK
6
CONTINUOUS
10
-1.94035
20
-0.533858
11
-1.94035
21
-0.135433
0
LINE
8
BLACK
6
CONTINUOUS
10
-1.85768
20
-0.135433
11
-1.85768
21
-0.112205
0
LINE
8
BLACK
6
CONTINUOUS
10
-1.77028
20
-0.135433
11
-1.57736
21
-0.135433
0
LINE
8
BLACK
6
CONTINUOUS
10
-1.94035
20
-0.533858
11
-1.85768
21
-0.533858
0
LINE
8
BLACK
6
CONTINUOUS
10
-1.57736
20
-0.533858
11
-1.57736
21
-0.135433
0
LINE
8
BLACK
6
CONTINUOUS
10
-1.77028
20
-0.557087
11
-1.77028
21
-0.533858
0
LINE
8
BLACK
6
CONTINUOUS
10
-1.77028
20
-0.135433
11
-1.77028
21
-0.112205
0
LINE
8
BLACK
6
CONTINUOUS
10
-1.77028
20
-0.533858
11
-1.57736
21
-0.533858
0
ARC
8
BLACK
10
-1.81398
20
-0.112205
40
0.0437008
50
-0
51
180
0
ARC
8
BLACK
10
-1.81398
20
-0.557087
40
0.0437008
50
-180
51
-0
0
LINE
8
BLACK
6
CONTINUOUS
10
-3.88976
20
-3.35827
11
-3.88976
21
-3.43307
0
LINE
8
BLACK
6
CONTINUOUS
10
-3.96457
20
-3.35827
11
-3.88976
21
-3.35827
0
LINE
8
BLACK
6
CONTINUOUS
10
-3.96457
20
-3.43307
11
-3.96457
21
-3.35827
0
LINE
8
BLACK
6
CONTINUOUS
10
-3.88976
20
-3.43307
11
-3.96457
21
-3.43307
0
LINE
8
BLACK
6
CONTINUOUS
10
0.200984
20
-0.993701
11
0.14311
21
-0.993701
0
LINE
8
BLACK
6
CONTINUOUS
10
0.200984
20
-1.09055
11
0.200984
21
-0.993701
0
LINE
8
BLACK
6
CONTINUOUS
10
0.14311
20
-0.993701
11
0.14311
21
-1.09055
0
LINE
8
BLACK
6
CONTINUOUS
10
-0.0952756
20
1.04311
11
-0.2
21
1.04311
0
LINE
8
BLACK
6
CONTINUOUS
10
-0.0952756
20
0.940748
11
-0.147638
21
0.940748
0
LINE
8
BLACK
6
CONTINUOUS
10
-0.0952756
20
1.04311
11
-0.0952756
21
1.14547
0
LINE
8
BLACK
6
CONTINUOUS
10
-0.2
20
1.04311
11
-0.2
21
1.14547
0
LINE
8
BLACK
6
CONTINUOUS
10
-0.0952756
20
1.14547
11
-0.2
21
1.14547
0
LINE
8
BLACK
6
CONTINUOUS
10
-0.0952756
20
0.99311
11
-0.0952756
21
0.940748
0
LINE
8
BLACK
6
CONTINUOUS
10
-3.29606
20
-3.57006
11
-3.37087
21
-3.57006
0
LINE
8
BLACK
6
CONTINUOUS
10
-3.37087
20
-3.57006
11
-3.37087
21
-3.49526
0
LINE
8
BLACK
6
CONTINUOUS
10
-3.29606
20
-3.49526
11
-3.29606
21
-3.57006
0
LINE
8
BLACK
6
CONTINUOUS
10
-3.37087
20
-3.49526
11
-3.29606
21
-3.49526
0
LINE
8
BLACK
6
CONTINUOUS
10
-0.415502
20
0.60689
11
-0.436073
21
0.60689
0
LINE
8
BLACK
6
CONTINUOUS
10
-0.415502
20
0.664764
11
-0.436073
21
0.664764
0
LINE
8
BLACK
6
CONTINUOUS
10
-0.613238
20
0.60689
11
-0.592667
21
0.60689
0
LINE
8
BLACK
6
CONTINUOUS
10
-0.613238
20
0.664764
11
-0.592667
21
0.664764
0
LINE
8
BLACK
6
CONTINUOUS
10
0.269882
20
-0.993701
11
0.212008
21
-0.993701
0
LINE
8
BLACK
6
CONTINUOUS
10
0.269882
20
-1.09055
11
0.269882
21
-0.993701
0
LINE
8
BLACK
6
CONTINUOUS
10
0.212008
20
-0.993701
11
0.212008
21
-1.09055
0
LINE
8
BLACK
6
CONTINUOUS
10
0.543307
20
-0.388976
11
0.543307
21
-0.385039
0
LINE
8
BLACK
6
CONTINUOUS
10
0.716535
20
-0.31811
11
0.543307
21
-0.31811
0
LINE
8
BLACK
6
CONTINUOUS
10
0.543307
20
-0.455906
11
0.716535
21
-0.455906
0
LINE
8
BLACK
6
CONTINUOUS
10
0.716535
20
-0.388976
11
0.716535
21
-0.385039
0
LINE
8
BLACK
6
CONTINUOUS
10
0.0569119
20
0.797638
11
-0.236614
21
0.797638
0
LINE
8
BLACK
6
CONTINUOUS
10
-0.236614
20
0.462205
11
-0.236614
21
0.578346
0
LINE
8
BLACK
6
CONTINUOUS
10
0.0988189
20
0.504112
11
0.0569119
21
0.462205
0
LINE
8
BLACK
6
CONTINUOUS
10
0.0988189
20
0.755731
11
0.0569119
21
0.797638
0
LINE
8
BLACK
6
CONTINUOUS
10
0.0569119
20
0.462205
11
-0.236614
21
0.462205
0
LINE
8
BLACK
6
CONTINUOUS
10
0.0988189
20
0.755731
11
0.0988189
21
0.681496
0
LINE
8
BLACK
6
CONTINUOUS
10
-0.236614
20
0.797638
11
-0.236614
21
0.681496
0
LINE
8
BLACK
6
CONTINUOUS
10
0.0988189
20
0.504112
11
0.0988189
21
0.578346
0
LINE
8
BLACK
6
CONTINUOUS
10
-0.740945
20
1.16024
11
-0.740945
21
0.840551
0
LINE
8
BLACK
6
CONTINUOUS
10
-0.232283
20
0.923622
11
-0.232283
21
0.82874
0
LINE
8
BLACK
6
CONTINUOUS
10
-0.244094
20
0.840551
11
-0.244094
21
1.16024
0
LINE
8
BLACK
6
CONTINUOUS
10
-0.740945
20
0.840551
11
-0.244094
21
0.840551
0
LINE
8
BLACK
6
CONTINUOUS
10
-0.244094
20
1.16024
11
-0.740945
21
1.16024
0
LINE
8
BLACK
6
CONTINUOUS
10
-0.232283
20
0.82874
11
-0.327165
21
0.82874
0
LINE
8
BLACK
6
CONTINUOUS
10
-0.981496
20
-0.187008
11
-0.981496
21
-0.197638
0
LINE
8
BLACK
6
CONTINUOUS
10
-1.04055
20
-0.187008
11
-0.981496
21
-0.187008
0
LINE
8
BLACK
6
CONTINUOUS
10
-0.981496
20
-0.458661
11
-0.981496
21
-0.448031
0
LINE
8
BLACK
6
CONTINUOUS
10
-1.04055
20
-0.458661
11
-0.981496
21
-0.458661
0
LINE
8
BLACK
6
CONTINUOUS
10
-0.981496
20
-0.197638
11
-0.938189
21
-0.197638
0
LINE
8
BLACK
6
CONTINUOUS
10
-0.981496
20
-0.448031
11
-0.870079
21
-0.448031
0
LINE
8
BLACK
6
CONTINUOUS
10
0.264646
20
-0.264646
11
0.404646
21
-0.264646
0
LINE
8
BLACK
6
CONTINUOUS
10
0.264646
20
-0.604646
11
0.264646
21
-0.264646
0
LINE
8
BLACK
6
CONTINUOUS
10
0.404646
20
-0.604646
11
0.264646
21
-0.604646
0
LINE
8
BLACK
6
CONTINUOUS
10
0.404646
20
-0.264646
11
0.404646
21
-0.604646
0
LINE
8
BLACK
6
CONTINUOUS
10
0.476316
20
-0.192975
11
0.477008
21
-0.194646
0
LINE
8
BLACK
6
CONTINUOUS
10
0.477008
20
-0.194646
11
0.477008
21
-0.434646
0
LINE
8
BLACK
6
CONTINUOUS
10
0.477008
20
-0.434646
11
0.476316
21
-0.436316
0
LINE
8
BLACK
6
CONTINUOUS
10
0.476316
20
-0.436316
11
0.474646
21
-0.437008
0
LINE
8
BLACK
6
CONTINUOUS
10
0.474646
20
-0.437008
11
0.384646
21
-0.437008
0
LINE
8
BLACK
6
CONTINUOUS
10
0.384646
20
-0.437008
11
0.382975
21
-0.436316
0
LINE
8
BLACK
6
CONTINUOUS
10
0.382975
20
-0.436316
11
0.382283
21
-0.434646
0
LINE
8
BLACK
6
CONTINUOUS
10
0.382283
20
-0.434646
11
0.382283
21
-0.287008
0
LINE
8
BLACK
6
CONTINUOUS
10
0.382283
20
-0.287008
11
0.287008
21
-0.287008
0
LINE
8
BLACK
6
CONTINUOUS
10
0.287008
20
-0.287008
11
0.287008
21
-0.434646
0
LINE
8
BLACK
6
CONTINUOUS
10
0.287008
20
-0.434646
11
0.286316
21
-0.436316
0
LINE
8
BLACK
6
CONTINUOUS
10
0.286316
20
-0.436316
11
0.284646
21
-0.437008
0
LINE
8
BLACK
6
CONTINUOUS
10
0.284646
20
-0.437008
11
0.194646
21
-0.437008
0
LINE
8
BLACK
6
CONTINUOUS
10
0.194646
20
-0.437008
11
0.192975
21
-0.436316
0
LINE
8
BLACK
6
CONTINUOUS
10
0.192975
20
-0.436316
11
0.192283
21
-0.434646
0
LINE
8
BLACK
6
CONTINUOUS
10
0.192283
20
-0.434646
11
0.192283
21
-0.194646
0
LINE
8
BLACK
6
CONTINUOUS
10
0.192283
20
-0.194646
11
0.192975
21
-0.192975
0
LINE
8
BLACK
6
CONTINUOUS
10
0.192975
20
-0.192975
11
0.194646
21
-0.192283
0
LINE
8
BLACK
6
CONTINUOUS
10
0.194646
20
-0.192283
11
0.474646
21
-0.192283
0
LINE
8
BLACK
6
CONTINUOUS
10
0.474646
20
-0.192283
11
0.476316
21
-0.192975
0
LINE
8
BLACK
6
CONTINUOUS
10
-0.501969
20
0.0551181
11
-0.529528
21
0.0551181
0
LINE
8
BLACK
6
CONTINUOUS
10
-0.507024
20
0.535433
11
-0.525024
21
0.535433
0
LINE
8
BLACK
6
CONTINUOUS
10
-0.320866
20
0.513276
11
-0.320866
21
0.535433
0
LINE
8
BLACK
6
CONTINUOUS
10
-0.438976
20
0.0551181
11
-0.320866
21
0.0551181
0
LINE
8
BLACK
6
CONTINUOUS
10
-0.596457
20
0.535433
11
-0.615024
21
0.535433
0
LINE
8
BLACK
6
CONTINUOUS
10
-0.683071
20
0.0551181
11
-0.801181
21
0.0551181
0
LINE
8
BLACK
6
CONTINUOUS
10
-0.801181
20
0.173276
11
-0.801181
21
0.147276
0
LINE
8
BLACK
6
CONTINUOUS
10
-0.320866
20
0.327276
11
-0.320866
21
0.439276
0
LINE
8
BLACK
6
CONTINUOUS
10
-0.320866
20
0.0832756
11
-0.320866
21
0.0551181
0
LINE
8
BLACK
6
CONTINUOUS
10
-0.320866
20
0.173276
11
-0.320866
21
0.147276
0
LINE
8
BLACK
6
CONTINUOUS
10
-0.801181
20
0.0832756
11
-0.801181
21
0.0551181
0
LINE
8
BLACK
6
CONTINUOUS
10
-0.320866
20
0.263276
11
-0.320866
21
0.237276
0
LINE
8
BLACK
6
CONTINUOUS
10
-0.687024
20
0.535433
11
-0.801181
21
0.535433
0
LINE
8
BLACK
6
CONTINUOUS
10
-0.801181
20
0.263276
11
-0.801181
21
0.237276
0
LINE
8
BLACK
6
CONTINUOUS
10
-0.435024
20
0.535433
11
-0.320866
21
0.535433
0
LINE
8
BLACK
6
CONTINUOUS
10
-0.801181
20
0.327276
11
-0.801181
21
0.439276
0
LINE
8
BLACK
6
CONTINUOUS
10
-0.801181
20
0.513276
11
-0.801181
21
0.535433
0
LINE
8
BLACK
6
CONTINUOUS
10
-0.59252
20
0.0551181
11
-0.61811
21
0.0551181
0
POLYLINE
8
BLACK
66
1
70
1
40
0.00984252
41
0.00984252
0
VERTEX
8
BLACK
10
-0.880906
 20
0.295276
42
1.0
0
VERTEX
8
BLACK
10
-0.871063
 20
0.295276
42
1.0
0
SEQEND
0
CIRCLE
8
BLACK
10
-3.6185
20
-3.07362
40
0.0472441
0
LINE
8
BLACK
6
CONTINUOUS
10
-3.50394
20
-3.34683
11
-3.57874
21
-3.34683
0
LINE
8
BLACK
6
CONTINUOUS
10
-3.57874
20
-3.34683
11
-3.57874
21
-3.27203
0
LINE
8
BLACK
6
CONTINUOUS
10
-3.57874
20
-3.27203
11
-3.50394
21
-3.27203
0
LINE
8
BLACK
6
CONTINUOUS
10
-3.50394
20
-3.27203
11
-3.50394
21
-3.34683
0
LINE
8
BLACK
6
CONTINUOUS
10
0.543307
20
-0.549213
11
0.543307
21
-0.55315
0
LINE
8
BLACK
6
CONTINUOUS
10
0.543307
20
-0.620079
11
0.716535
21
-0.620079
0
LINE
8
BLACK
6
CONTINUOUS
10
0.716535
20
-0.482283
11
0.543307
21
-0.482283
0
LINE
8
BLACK
6
CONTINUOUS
10
0.716535
20
-0.549213
11
0.716535
21
-0.55315
0
LINE
8
BLACK
6
CONTINUOUS
10
-0.0374016
20
-0.165354
11
-0.0374016
21
-0.169291
0
LINE
8
BLACK
6
CONTINUOUS
10
0.135827
20
-0.165354
11
0.135827
21
-0.169291
0
LINE
8
BLACK
6
CONTINUOUS
10
-0.0374016
20
-0.23622
11
0.135827
21
-0.23622
0
LINE
8
BLACK
6
CONTINUOUS
10
0.135827
20
-0.0984252
11
-0.0374016
21
-0.0984252
0
LINE
8
BLACK
6
CONTINUOUS
10
0.621654
20
0.838189
11
1.02008
21
0.838189
0
LINE
8
BLACK
6
CONTINUOUS
10
1.03189
20
0.826378
11
0.937008
21
0.826378
0
LINE
8
BLACK
6
CONTINUOUS
10
1.02008
20
1.15787
11
0.621654
21
1.15787
0
LINE
8
BLACK
6
CONTINUOUS
10
1.03189
20
0.92126
11
1.03189
21
0.826378
0
LINE
8
BLACK
6
CONTINUOUS
10
1.02008
20
0.838189
11
1.02008
21
1.15787
0
LINE
8
BLACK
6
CONTINUOUS
10
0.621654
20
1.15787
11
0.621654
21
0.838189
0
LINE
8
BLACK
6
CONTINUOUS
10
-1.62165
20
0.809449
11
-1.94134
21
0.809449
0
LINE
8
BLACK
6
CONTINUOUS
10
-1.60984
20
0.82126
11
-1.60984
21
0.726378
0
LINE
8
BLACK
6
CONTINUOUS
10
-1.94134
20
0.809449
11
-1.94134
21
0.214173
0
LINE
8
BLACK
6
CONTINUOUS
10
-1.94134
20
0.214173
11
-1.62165
21
0.214173
0
LINE
8
BLACK
6
CONTINUOUS
10
-1.62165
20
0.214173
11
-1.62165
21
0.809449
0
LINE
8
BLACK
6
CONTINUOUS
10
-1.70472
20
0.82126
11
-1.60984
21
0.82126
0
LINE
8
BLACK
6
CONTINUOUS
10
-1.15945
20
-0.0480315
11
-1.14882
21
-0.0480315
0
LINE
8
BLACK
6
CONTINUOUS
10
-1.14882
20
-0.0480315
11
-1.14882
21
-0.159449
0
LINE
8
BLACK
6
CONTINUOUS
10
-0.898425
20
-0.0480315
11
-0.898425
21
-0.0913386
0
LINE
8
BLACK
6
CONTINUOUS
10
-1.15945
20
0.0110236
11
-1.15945
21
-0.0480315
0
LINE
8
BLACK
6
CONTINUOUS
10
-0.887795
20
0.0110236
11
-0.887795
21
-0.0480315
0
LINE
8
BLACK
6
CONTINUOUS
10
-0.887795
20
-0.0480315
11
-0.898425
21
-0.0480315
0
LINE
8
BLACK
6
CONTINUOUS
10
1.94134
20
-0.130315
11
1.94134
21
0.366535
0
LINE
8
BLACK
6
CONTINUOUS
10
1.70472
20
-0.142126
11
1.60984
21
-0.142126
0
LINE
8
BLACK
6
CONTINUOUS
10
1.62165
20
-0.130315
11
1.94134
21
-0.130315
0
LINE
8
BLACK
6
CONTINUOUS
10
1.62165
20
0.366535
11
1.62165
21
-0.130315
0
LINE
8
BLACK
6
CONTINUOUS
10
1.60984
20
-0.142126
11
1.60984
21
-0.0472441
0
LINE
8
BLACK
6
CONTINUOUS
10
1.94134
20
0.366535
11
1.62165
21
0.366535
0
LINE
8
BLACK
6
CONTINUOUS
10
-0.179134
20
-0.624016
11
-0.104331
21
-0.624016
0
LINE
8
BLACK
6
CONTINUOUS
10
-0.104331
20
-0.0649606
11
-0.104331
21
-0.139764
0
LINE
8
BLACK
6
CONTINUOUS
10
-0.663386
20
-0.549213
11
-0.663386
21
-0.624016
0
LINE
8
BLACK
6
CONTINUOUS
10
-0.179134
20
-0.0649606
11
-0.104331
21
-0.0649606
0
LINE
8
BLACK
6
CONTINUOUS
10
-0.104331
20
-0.624016
11
-0.104331
21
-0.549213
0
LINE
8
BLACK
6
CONTINUOUS
10
-0.663386
20
-0.0649606
11
-0.663386
21
-0.139764
0
LINE
8
BLACK
6
CONTINUOUS
10
-0.588583
20
-0.0649606
11
-0.663386
21
-0.0649606
0
LINE
8
BLACK
6
CONTINUOUS
10
-0.663386
20
-0.139764
11
-0.683071
21
-0.139764
0
LINE
8
BLACK
6
CONTINUOUS
10
-0.663386
20
-0.624016
11
-0.588583
21
-0.624016
0
LINE
8
BLACK
6
CONTINUOUS
10
-0.194707
20
0.374409
11
-0.236614
21
0.332502
0
LINE
8
BLACK
6
CONTINUOUS
10
0.0569119
20
0.374409
11
0.0988189
21
0.332502
0
LINE
8
BLACK
6
CONTINUOUS
10
0.0569119
20
0.374409
11
-0.0173228
21
0.374409
0
LINE
8
BLACK
6
CONTINUOUS
10
-0.236614
20
0.0389764
11
-0.120472
21
0.0389764
0
LINE
8
BLACK
6
CONTINUOUS
10
-0.236614
20
0.332502
11
-0.236614
21
0.0389764
0
LINE
8
BLACK
6
CONTINUOUS
10
0.0988189
20
0.0389764
11
-0.0173228
21
0.0389764
0
LINE
8
BLACK
6
CONTINUOUS
10
-0.194707
20
0.374409
11
-0.120472
21
0.374409
0
LINE
8
BLACK
6
CONTINUOUS
10
0.0988189
20
0.332502
11
0.0988189
21
0.0389764
0
LINE
8
BLACK
6
CONTINUOUS
10
-3.5248
20
-3.55352
11
-3.5248
21
-3.47872
0
LINE
8
BLACK
6
CONTINUOUS
10
-3.45
20
-3.55352
11
-3.5248
21
-3.55352
0
LINE
8
BLACK
6
CONTINUOUS
10
-3.45
20
-3.47872
11
-3.45
21
-3.55352
0
LINE
8
BLACK
6
CONTINUOUS
10
-3.5248
20
-3.47872
11
-3.45
21
-3.47872
0
LINE
8
BLACK
6
CONTINUOUS
10
1.44606
20
-0.656299
11
1.44606
21
-0.761024
0
LINE
8
BLACK
6
CONTINUOUS
10
0.343701
20
-0.656299
11
0.343701
21
-0.761024
0
LINE
8
BLACK
6
CONTINUOUS
10
1.54843
20
-0.761024
11
1.49606
21
-0.761024
0
LINE
8
BLACK
6
CONTINUOUS
10
1.44606
20
-0.761024
11
0.343701
21
-0.761024
0
LINE
8
BLACK
6
CONTINUOUS
10
1.44606
20
-0.656299
11
0.343701
21
-0.656299
0
LINE
8
BLACK
6
CONTINUOUS
10
1.54843
20
-0.708661
11
1.54843
21
-0.761024
0
LINE
8
BLACK
6
CONTINUOUS
10
-0.668504
20
-1.15906
11
-0.668504
21
-0.819291
0
LINE
8
BLACK
6
CONTINUOUS
10
-0.612636
20
-1.15906
11
-0.612636
21
-0.819291
0
LINE
8
BLACK
6
CONTINUOUS
10
-0.65913
20
-1.15906
11
-0.65913
21
-0.819291
0
LINE
8
BLACK
6
CONTINUOUS
10
-0.301969
20
-0.819291
11
-0.301969
21
-0.80315
0
LINE
8
BLACK
6
CONTINUOUS
10
-0.58474
20
-1.15906
11
-0.58474
21
-0.819291
0
LINE
8
BLACK
6
CONTINUOUS
10
-0.66378
20
-1.15906
11
-0.66378
21
-0.819291
0
LINE
8
BLACK
6
CONTINUOUS
10
-0.645182
20
-1.15906
11
-0.645182
21
-0.819291
0
LINE
8
BLACK
6
CONTINUOUS
10
-0.430315
20
-0.819291
11
-0.430315
21
-0.80315
0
LINE
8
BLACK
6
CONTINUOUS
10
-0.668504
20
-1.15906
11
0.0362205
21
-1.15906
0
LINE
8
BLACK
6
CONTINUOUS
10
-0.668504
20
-0.761811
11
-0.668504
21
-0.71811
0
LINE
8
BLACK
6
CONTINUOUS
10
-0.466142
20
-1.15906
11
-0.466142
21
-0.819291
0
LINE
8
BLACK
6
CONTINUOUS
10
-0.530315
20
-0.819291
11
-0.530315
21
-0.80315
0
LINE
8
BLACK
6
CONTINUOUS
10
0.0362205
20
-1.15906
11
0.0362205
21
-0.819291
0
LINE
8
BLACK
6
CONTINUOUS
10
-0.101969
20
-0.819291
11
-0.101969
21
-0.80315
0
LINE
8
BLACK
6
CONTINUOUS
10
-0.621935
20
-1.15906
11
-0.621935
21
-0.819291
0
LINE
8
BLACK
6
CONTINUOUS
10
-0.626584
20
-1.15906
11
-0.626584
21
-0.819291
0
LINE
8
BLACK
6
CONTINUOUS
10
-0.603337
20
-1.15906
11
-0.603337
21
-0.819291
0
LINE
8
BLACK
6
CONTINUOUS
10
-0.201969
20
-0.819291
11
-0.201969
21
-0.80315
0
LINE
8
BLACK
6
CONTINUOUS
10
-0.630315
20
-0.819291
11
-0.630315
21
-0.805512
0
LINE
8
BLACK
6
CONTINUOUS
10
-0.575441
20
-1.15906
11
-0.575441
21
-0.819291
0
LINE
8
BLACK
6
CONTINUOUS
10
-0.601969
20
-0.819291
11
-0.601969
21
-0.805512
0
LINE
8
BLACK
6
CONTINUOUS
10
-0.030315
20
-0.819291
11
-0.030315
21
-0.80315
0
LINE
8
BLACK
6
CONTINUOUS
10
-0.635883
20
-1.15906
11
-0.635883
21
-0.819291
0
LINE
8
BLACK
6
CONTINUOUS
10
-0.330315
20
-0.819291
11
-0.330315
21
-0.80315
0
LINE
8
BLACK
6
CONTINUOUS
10
-0.617285
20
-1.15906
11
-0.617285
21
-0.819291
0
LINE
8
BLACK
6
CONTINUOUS
10
-0.58009
20
-1.15906
11
-0.58009
21
-0.819291
0
LINE
8
BLACK
6
CONTINUOUS
10
-0.589389
20
-1.15906
11
-0.589389
21
-0.819291
0
LINE
8
BLACK
6
CONTINUOUS
10
-0.501969
20
-0.819291
11
-0.501969
21
-0.80315
0
LINE
8
BLACK
6
CONTINUOUS
10
-0.649831
20
-1.15906
11
-0.649831
21
-0.819291
0
LINE
8
BLACK
6
CONTINUOUS
10
-0.266142
20
-1.15906
11
-0.266142
21
-0.819291
0
LINE
8
BLACK
6
CONTINUOUS
10
-0.570791
20
-1.15906
11
-0.570791
21
-0.819291
0
LINE
8
BLACK
6
CONTINUOUS
10
-0.607987
20
-1.15906
11
-0.607987
21
-0.819291
0
LINE
8
BLACK
6
CONTINUOUS
10
-0.668504
20
-0.71811
11
-0.616142
21
-0.71811
0
LINE
8
BLACK
6
CONTINUOUS
10
-0.0661417
20
-1.15906
11
-0.0661417
21
-0.819291
0
LINE
8
BLACK
6
CONTINUOUS
10
-0.668504
20
-0.819291
11
0.0362205
21
-0.819291
0
LINE
8
BLACK
6
CONTINUOUS
10
-0.631234
20
-1.15906
11
-0.631234
21
-0.819291
0
LINE
8
BLACK
6
CONTINUOUS
10
-0.598688
20
-1.15906
11
-0.598688
21
-0.819291
0
LINE
8
BLACK
6
CONTINUOUS
10
-0.0019685
20
-0.819291
11
-0.0019685
21
-0.80315
0
LINE
8
BLACK
6
CONTINUOUS
10
-0.566142
20
-1.15906
11
-0.566142
21
-0.819291
0
LINE
8
BLACK
6
CONTINUOUS
10
-0.166142
20
-1.15906
11
-0.166142
21
-0.819291
0
LINE
8
BLACK
6
CONTINUOUS
10
-0.366142
20
-1.15906
11
-0.366142
21
-0.819291
0
LINE
8
BLACK
6
CONTINUOUS
10
-0.594038
20
-1.15906
11
-0.594038
21
-0.819291
0
LINE
8
BLACK
6
CONTINUOUS
10
-0.401969
20
-0.819291
11
-0.401969
21
-0.80315
0
LINE
8
BLACK
6
CONTINUOUS
10
-0.230315
20
-0.819291
11
-0.230315
21
-0.80315
0
LINE
8
BLACK
6
CONTINUOUS
10
-0.130315
20
-0.819291
11
-0.130315
21
-0.80315
0
LINE
8
BLACK
6
CONTINUOUS
10
-0.654481
20
-1.15906
11
-0.654481
21
-0.819291
0
LINE
8
BLACK
6
CONTINUOUS
10
-0.640532
20
-1.15906
11
-0.640532
21
-0.819291
0
LINE
8
BLACK
6
CONTINUOUS
10
1.16024
20
0.147638
11
1.16024
21
-0.561024
0
LINE
8
BLACK
6
CONTINUOUS
10
1.59331
20
0.147638
11
1.16024
21
0.147638
0
LINE
8
BLACK
6
CONTINUOUS
10
1.16024
20
-0.561024
11
1.59331
21
-0.561024
0
LINE
8
BLACK
6
CONTINUOUS
10
1.59331
20
-0.561024
11
1.59331
21
0.147638
0
LINE
8
BLACK
6
CONTINUOUS
10
-3.78268
20
-3.24171
11
-3.70787
21
-3.24171
0
LINE
8
BLACK
6
CONTINUOUS
10
-3.78268
20
-3.31652
11
-3.78268
21
-3.24171
0
LINE
8
BLACK
6
CONTINUOUS
10
-3.70787
20
-3.31652
11
-3.78268
21
-3.31652
0
LINE
8
BLACK
6
CONTINUOUS
10
-3.70787
20
-3.24171
11
-3.70787
21
-3.31652
0
LINE
8
BLACK
6
CONTINUOUS
10
-1.29134
20
0.532677
11
-1.29134
21
0.473622
0
LINE
8
BLACK
6
CONTINUOUS
10
-1.30197
20
0.473622
11
-1.30197
21
0.430315
0
LINE
8
BLACK
6
CONTINUOUS
10
-1.56299
20
0.473622
11
-1.55236
21
0.473622
0
LINE
8
BLACK
6
CONTINUOUS
10
-1.29134
20
0.473622
11
-1.30197
21
0.473622
0
LINE
8
BLACK
6
CONTINUOUS
10
-1.55236
20
0.473622
11
-1.55236
21
0.362205
0
LINE
8
BLACK
6
CONTINUOUS
10
-1.56299
20
0.532677
11
-1.56299
21
0.473622
0
LINE
8
BLACK
6
CONTINUOUS
10
-1.54685
20
-1.06614
11
-1.54685
21
-0.666142
0
LINE
8
BLACK
6
CONTINUOUS
10
-1.54685
20
-1.06614
11
-1.49285
21
-1.06614
0
LINE
8
BLACK
6
CONTINUOUS
10
-1.34685
20
-0.666142
11
-1.34685
21
-1.06614
0
LINE
8
BLACK
6
CONTINUOUS
10
-1.40085
20
-1.06614
11
-1.34685
21
-1.06614
0
LINE
8
BLACK
6
CONTINUOUS
10
-1.54685
20
-1.06614
11
-1.54685
21
-0.666142
0
LINE
8
BLACK
6
CONTINUOUS
10
-1.40085
20
-0.666142
11
-1.34685
21
-0.666142
0
LINE
8
BLACK
6
CONTINUOUS
10
-1.54685
20
-0.666142
11
-1.49285
21
-0.666142
0
CIRCLE
8
BLACK
10
-3.11339
20
-3.14409
40
0.0472441
0
LINE
8
BLACK
6
CONTINUOUS
10
0.407677
20
-0.993701
11
0.349803
21
-0.993701
0
LINE
8
BLACK
6
CONTINUOUS
10
0.349803
20
-0.993701
11
0.349803
21
-1.09055
0
LINE
8
BLACK
6
CONTINUOUS
10
0.407677
20
-1.09055
11
0.407677
21
-0.993701
0
LINE
8
BLACK
6
CONTINUOUS
10
0.764173
20
-0.23563
11
0.764173
21
-0.177756
0
LINE
8
BLACK
6
CONTINUOUS
10
0.667323
20
-0.23563
11
0.764173
21
-0.23563
0
LINE
8
BLACK
6
CONTINUOUS
10
0.764173
20
-0.177756
11
0.667323
21
-0.177756
0
LINE
8
BLACK
6
CONTINUOUS
10
-3.72165
20
-3.46612
11
-3.64685
21
-3.46612
0
LINE
8
BLACK
6
CONTINUOUS
10
-3.64685
20
-3.46612
11
-3.64685
21
-3.54093
0
LINE
8
BLACK
6
CONTINUOUS
10
-3.64685
20
-3.54093
11
-3.72165
21
-3.54093
0
LINE
8
BLACK
6
CONTINUOUS
10
-3.72165
20
-3.54093
11
-3.72165
21
-3.46612
  0
ENDSEC
  0
EOF
