  0
SECTION
  2
HEADER
  9
$ANGBASE
  50
0.0
  9
$ANGDIR
  70
1
  9
$MEASUREMENT
  70
0
  0
ENDSEC
  0
SECTION
  2
TABLES
  0
TABLE
  2
LTYPE
  70
4
  0
LTYPE
  5
40F
  2
CONTINUOUS
  70
0
  3
Solid line
  72
65
  73
0
  40
0.0
  0
LTYPE
  5
410
  2
DASHDOT
 70
0
  3
Dash Dot ____ _ ____ _
 72
65
 73
4
 40
2.0
 49
1.25
 49
-0.25
 49
0.25
 49
-0.25
  0
LTYPE
  5
411
  2
DASHED
 70
0
  3
Dashed __ __ __ __ __
 72
65
 73
2
 40
0.75
 49
0.5
 49
-0.25
  0
LTYPE
  5
43B
  2
DOTTED
 70
0
  3
Dotted .  .  .  .
 72
65
 73
2
 40
0.2
 49
0.0
 49
-0.2
  0
ENDTAB
  0
TABLE
  2
STYLE
  70
4
  0
STYLE
  2
KICAD
  70
0
  40
0
  41
1
  42
1
  50
0
  71
0
  3
isocp.shx
  0
STYLE
  2
KICADB
  70
0
  40
0
  41
1
  42
1
  50
0
  71
0
  3
isocp.shx
  0
STYLE
  2
KICADI
  70
0
  40
0
  41
1
  42
1
  50
15
  71
0
  3
isocp.shx
  0
STYLE
  2
KICADBI
  70
0
  40
0
  41
1
  42
1
  50
15
  71
0
  3
isocp.shx
  0
ENDTAB
  0
TABLE
  2
LAYER
  70
1
  0
LAYER
  2
BLACK
  70
0
  62
7
  6
CONTINUOUS
  0
ENDTAB
  0
ENDSEC
  0
SECTION
  2
ENTITIES
0
LINE
8
BLACK
6
CONTINUOUS
10
-1.78823
20
-1.18435
11
-1.8047
21
-1.1823
0
LINE
8
BLACK
6
CONTINUOUS
10
-1.8047
20
-1.1823
11
-1.82094
21
-1.1789
0
LINE
8
BLACK
6
CONTINUOUS
10
-1.82094
20
-1.1789
11
-1.83685
21
-1.17416
0
LINE
8
BLACK
6
CONTINUOUS
10
-1.83685
20
-1.17416
11
-1.85231
21
-1.16813
0
LINE
8
BLACK
6
CONTINUOUS
10
-1.85231
20
-1.16813
11
-1.86722
21
-1.16084
0
LINE
8
BLACK
6
CONTINUOUS
10
-1.86722
20
-1.16084
11
-1.88147
21
-1.15234
0
LINE
8
BLACK
6
CONTINUOUS
10
-1.88147
20
-1.15234
11
-1.89498
21
-1.1427
0
LINE
8
BLACK
6
CONTINUOUS
10
-1.89498
20
-1.1427
11
-1.90764
21
-1.13198
0
LINE
8
BLACK
6
CONTINUOUS
10
-1.90764
20
-1.13198
11
-1.91938
21
-1.12024
0
LINE
8
BLACK
6
CONTINUOUS
10
-1.91938
20
-1.12024
11
-1.9301
21
-1.10758
0
LINE
8
BLACK
6
CONTINUOUS
10
-1.9301
20
-1.10758
11
-1.93975
21
-1.09407
0
LINE
8
BLACK
6
CONTINUOUS
10
-1.93975
20
-1.09407
11
-1.94824
21
-1.07982
0
LINE
8
BLACK
6
CONTINUOUS
10
-1.94824
20
-1.07982
11
-1.95553
21
-1.06491
0
LINE
8
BLACK
6
CONTINUOUS
10
-1.95553
20
-1.06491
11
-1.96156
21
-1.04945
0
LINE
8
BLACK
6
CONTINUOUS
10
-1.96156
20
-1.04945
11
-1.9663
21
-1.03354
0
LINE
8
BLACK
6
CONTINUOUS
10
-1.9663
20
-1.03354
11
-1.9697
21
-1.0173
0
LINE
8
BLACK
6
CONTINUOUS
10
-1.9697
20
-1.0173
11
-1.97176
21
-1.00083
0
LINE
8
BLACK
6
CONTINUOUS
10
-1.97176
20
-1.00083
11
-1.97244
21
-0.984252
0
LINE
8
BLACK
6
CONTINUOUS
10
-1.97244
20
-0.984252
11
-1.97244
21
0.984252
0
LINE
8
BLACK
6
CONTINUOUS
10
-1.97244
20
0.984252
11
-1.97176
21
1.00083
0
LINE
8
BLACK
6
CONTINUOUS
10
-1.97176
20
1.00083
11
-1.9697
21
1.0173
0
LINE
8
BLACK
6
CONTINUOUS
10
-1.9697
20
1.0173
11
-1.9663
21
1.03354
0
LINE
8
BLACK
6
CONTINUOUS
10
-1.9663
20
1.03354
11
-1.96156
21
1.04945
0
LINE
8
BLACK
6
CONTINUOUS
10
-1.96156
20
1.04945
11
-1.95553
21
1.06491
0
LINE
8
BLACK
6
CONTINUOUS
10
-1.95553
20
1.06491
11
-1.94824
21
1.07982
0
LINE
8
BLACK
6
CONTINUOUS
10
-1.94824
20
1.07982
11
-1.93975
21
1.09407
0
LINE
8
BLACK
6
CONTINUOUS
10
-1.93975
20
1.09407
11
-1.9301
21
1.10758
0
LINE
8
BLACK
6
CONTINUOUS
10
-1.9301
20
1.10758
11
-1.91938
21
1.12024
0
LINE
8
BLACK
6
CONTINUOUS
10
-1.91938
20
1.12024
11
-1.90764
21
1.13198
0
LINE
8
BLACK
6
CONTINUOUS
10
-1.90764
20
1.13198
11
-1.89498
21
1.1427
0
LINE
8
BLACK
6
CONTINUOUS
10
-1.89498
20
1.1427
11
-1.88147
21
1.15234
0
LINE
8
BLACK
6
CONTINUOUS
10
-1.88147
20
1.15234
11
-1.86722
21
1.16084
0
LINE
8
BLACK
6
CONTINUOUS
10
-1.86722
20
1.16084
11
-1.85231
21
1.16813
0
LINE
8
BLACK
6
CONTINUOUS
10
-1.85231
20
1.16813
11
-1.83685
21
1.17416
0
LINE
8
BLACK
6
CONTINUOUS
10
-1.83685
20
1.17416
11
-1.82094
21
1.1789
0
LINE
8
BLACK
6
CONTINUOUS
10
-1.82094
20
1.1789
11
-1.8047
21
1.1823
0
LINE
8
BLACK
6
CONTINUOUS
10
-1.8047
20
1.1823
11
-1.78823
21
1.18435
0
LINE
8
BLACK
6
CONTINUOUS
10
-1.78823
20
1.18435
11
-1.77165
21
1.18504
0
LINE
8
BLACK
6
CONTINUOUS
10
-1.77165
20
1.18504
11
1.77165
21
1.18504
0
LINE
8
BLACK
6
CONTINUOUS
10
1.77165
20
1.18504
11
1.78823
21
1.18435
0
LINE
8
BLACK
6
CONTINUOUS
10
1.78823
20
1.18435
11
1.8047
21
1.1823
0
LINE
8
BLACK
6
CONTINUOUS
10
1.8047
20
1.1823
11
1.82094
21
1.1789
0
LINE
8
BLACK
6
CONTINUOUS
10
1.82094
20
1.1789
11
1.83685
21
1.17416
0
LINE
8
BLACK
6
CONTINUOUS
10
1.83685
20
1.17416
11
1.85231
21
1.16813
0
LINE
8
BLACK
6
CONTINUOUS
10
1.85231
20
1.16813
11
1.86722
21
1.16084
0
LINE
8
BLACK
6
CONTINUOUS
10
1.86722
20
1.16084
11
1.88147
21
1.15234
0
LINE
8
BLACK
6
CONTINUOUS
10
1.88147
20
1.15234
11
1.89498
21
1.1427
0
LINE
8
BLACK
6
CONTINUOUS
10
1.89498
20
1.1427
11
1.90764
21
1.13198
0
LINE
8
BLACK
6
CONTINUOUS
10
1.90764
20
1.13198
11
1.91938
21
1.12024
0
LINE
8
BLACK
6
CONTINUOUS
10
1.91938
20
1.12024
11
1.9301
21
1.10758
0
LINE
8
BLACK
6
CONTINUOUS
10
1.9301
20
1.10758
11
1.93975
21
1.09407
0
LINE
8
BLACK
6
CONTINUOUS
10
1.93975
20
1.09407
11
1.94824
21
1.07982
0
LINE
8
BLACK
6
CONTINUOUS
10
1.94824
20
1.07982
11
1.95553
21
1.06491
0
LINE
8
BLACK
6
CONTINUOUS
10
1.95553
20
1.06491
11
1.96156
21
1.04945
0
LINE
8
BLACK
6
CONTINUOUS
10
1.96156
20
1.04945
11
1.9663
21
1.03354
0
LINE
8
BLACK
6
CONTINUOUS
10
1.9663
20
1.03354
11
1.9697
21
1.0173
0
LINE
8
BLACK
6
CONTINUOUS
10
1.9697
20
1.0173
11
1.97176
21
1.00083
0
LINE
8
BLACK
6
CONTINUOUS
10
1.97176
20
1.00083
11
1.97244
21
0.984252
0
LINE
8
BLACK
6
CONTINUOUS
10
1.97244
20
0.984252
11
1.97244
21
-0.984252
0
LINE
8
BLACK
6
CONTINUOUS
10
1.97244
20
-0.984252
11
1.97176
21
-1.00083
0
LINE
8
BLACK
6
CONTINUOUS
10
1.97176
20
-1.00083
11
1.9697
21
-1.0173
0
LINE
8
BLACK
6
CONTINUOUS
10
1.9697
20
-1.0173
11
1.9663
21
-1.03354
0
LINE
8
BLACK
6
CONTINUOUS
10
1.9663
20
-1.03354
11
1.96156
21
-1.04945
0
LINE
8
BLACK
6
CONTINUOUS
10
1.96156
20
-1.04945
11
1.95553
21
-1.06491
0
LINE
8
BLACK
6
CONTINUOUS
10
1.95553
20
-1.06491
11
1.94824
21
-1.07982
0
LINE
8
BLACK
6
CONTINUOUS
10
1.94824
20
-1.07982
11
1.93975
21
-1.09407
0
LINE
8
BLACK
6
CONTINUOUS
10
1.93975
20
-1.09407
11
1.9301
21
-1.10758
0
LINE
8
BLACK
6
CONTINUOUS
10
1.9301
20
-1.10758
11
1.91938
21
-1.12024
0
LINE
8
BLACK
6
CONTINUOUS
10
1.91938
20
-1.12024
11
1.90764
21
-1.13198
0
LINE
8
BLACK
6
CONTINUOUS
10
1.90764
20
-1.13198
11
1.89498
21
-1.1427
0
LINE
8
BLACK
6
CONTINUOUS
10
1.89498
20
-1.1427
11
1.88147
21
-1.15234
0
LINE
8
BLACK
6
CONTINUOUS
10
1.88147
20
-1.15234
11
1.86722
21
-1.16084
0
LINE
8
BLACK
6
CONTINUOUS
10
1.86722
20
-1.16084
11
1.85231
21
-1.16813
0
LINE
8
BLACK
6
CONTINUOUS
10
1.85231
20
-1.16813
11
1.83685
21
-1.17416
0
LINE
8
BLACK
6
CONTINUOUS
10
1.83685
20
-1.17416
11
1.82094
21
-1.1789
0
LINE
8
BLACK
6
CONTINUOUS
10
1.82094
20
-1.1789
11
1.8047
21
-1.1823
0
LINE
8
BLACK
6
CONTINUOUS
10
1.8047
20
-1.1823
11
1.78823
21
-1.18435
0
LINE
8
BLACK
6
CONTINUOUS
10
1.78823
20
-1.18435
11
1.77165
21
-1.18504
0
LINE
8
BLACK
6
CONTINUOUS
10
1.77165
20
-1.18504
11
-1.77165
21
-1.18504
0
LINE
8
BLACK
6
CONTINUOUS
10
-1.77165
20
-1.18504
11
-1.78823
21
-1.18435
0
LINE
8
BLACK
6
CONTINUOUS
10
-1.77215
20
1.17733
11
-1.78848
21
1.17661
0
LINE
8
BLACK
6
CONTINUOUS
10
-1.78848
20
1.17661
11
-1.80518
21
1.17442
0
LINE
8
BLACK
6
CONTINUOUS
10
-1.80518
20
1.17442
11
-1.82163
21
1.17077
0
LINE
8
BLACK
6
CONTINUOUS
10
-1.82163
20
1.17077
11
-1.8377
21
1.1657
0
LINE
8
BLACK
6
CONTINUOUS
10
-1.8377
20
1.1657
11
-1.85326
21
1.15926
0
LINE
8
BLACK
6
CONTINUOUS
10
-1.85326
20
1.15926
11
-1.8682
21
1.15148
0
LINE
8
BLACK
6
CONTINUOUS
10
-1.8682
20
1.15148
11
-1.88241
21
1.14243
0
LINE
8
BLACK
6
CONTINUOUS
10
-1.88241
20
1.14243
11
-1.89577
21
1.13217
0
LINE
8
BLACK
6
CONTINUOUS
10
-1.89577
20
1.13217
11
-1.90819
21
1.12079
0
LINE
8
BLACK
6
CONTINUOUS
10
-1.90819
20
1.12079
11
-1.91957
21
1.10837
0
LINE
8
BLACK
6
CONTINUOUS
10
-1.91957
20
1.10837
11
-1.92983
21
1.09501
0
LINE
8
BLACK
6
CONTINUOUS
10
-1.92983
20
1.09501
11
-1.93888
21
1.0808
0
LINE
8
BLACK
6
CONTINUOUS
10
-1.93888
20
1.0808
11
-1.94666
21
1.06586
0
LINE
8
BLACK
6
CONTINUOUS
10
-1.94666
20
1.06586
11
-1.95311
21
1.0503
0
LINE
8
BLACK
6
CONTINUOUS
10
-1.95311
20
1.0503
11
-1.95817
21
1.03423
0
LINE
8
BLACK
6
CONTINUOUS
10
-1.95817
20
1.03423
11
-1.96182
21
1.01778
0
LINE
8
BLACK
6
CONTINUOUS
10
-1.96182
20
1.01778
11
-1.96402
21
1.00108
0
LINE
8
BLACK
6
CONTINUOUS
10
-1.96402
20
1.00108
11
-1.96473
21
0.984751
0
LINE
8
BLACK
6
CONTINUOUS
10
-1.96473
20
0.984751
11
-1.96457
21
0.984252
0
LINE
8
BLACK
6
CONTINUOUS
10
-1.96457
20
0.984252
11
-1.96457
21
-0.984252
0
LINE
8
BLACK
6
CONTINUOUS
10
-1.96457
20
-0.984252
11
-1.96473
21
-0.984751
0
LINE
8
BLACK
6
CONTINUOUS
10
-1.96473
20
-0.984751
11
-1.96402
21
-1.00108
0
LINE
8
BLACK
6
CONTINUOUS
10
-1.96402
20
-1.00108
11
-1.96182
21
-1.01778
0
LINE
8
BLACK
6
CONTINUOUS
10
-1.96182
20
-1.01778
11
-1.95817
21
-1.03423
0
LINE
8
BLACK
6
CONTINUOUS
10
-1.95817
20
-1.03423
11
-1.95311
21
-1.0503
0
LINE
8
BLACK
6
CONTINUOUS
10
-1.95311
20
-1.0503
11
-1.94666
21
-1.06586
0
LINE
8
BLACK
6
CONTINUOUS
10
-1.94666
20
-1.06586
11
-1.93888
21
-1.0808
0
LINE
8
BLACK
6
CONTINUOUS
10
-1.93888
20
-1.0808
11
-1.92983
21
-1.09501
0
LINE
8
BLACK
6
CONTINUOUS
10
-1.92983
20
-1.09501
11
-1.91957
21
-1.10837
0
LINE
8
BLACK
6
CONTINUOUS
10
-1.91957
20
-1.10837
11
-1.90819
21
-1.12079
0
LINE
8
BLACK
6
CONTINUOUS
10
-1.90819
20
-1.12079
11
-1.89577
21
-1.13217
0
LINE
8
BLACK
6
CONTINUOUS
10
-1.89577
20
-1.13217
11
-1.88241
21
-1.14243
0
LINE
8
BLACK
6
CONTINUOUS
10
-1.88241
20
-1.14243
11
-1.8682
21
-1.15148
0
LINE
8
BLACK
6
CONTINUOUS
10
-1.8682
20
-1.15148
11
-1.85326
21
-1.15926
0
LINE
8
BLACK
6
CONTINUOUS
10
-1.85326
20
-1.15926
11
-1.8377
21
-1.1657
0
LINE
8
BLACK
6
CONTINUOUS
10
-1.8377
20
-1.1657
11
-1.82163
21
-1.17077
0
LINE
8
BLACK
6
CONTINUOUS
10
-1.82163
20
-1.17077
11
-1.80518
21
-1.17442
0
LINE
8
BLACK
6
CONTINUOUS
10
-1.80518
20
-1.17442
11
-1.78848
21
-1.17661
0
LINE
8
BLACK
6
CONTINUOUS
10
-1.78848
20
-1.17661
11
-1.77215
21
-1.17733
0
LINE
8
BLACK
6
CONTINUOUS
10
-1.77215
20
-1.17733
11
-1.77165
21
-1.17717
0
LINE
8
BLACK
6
CONTINUOUS
10
-1.77165
20
-1.17717
11
1.77165
21
-1.17717
0
LINE
8
BLACK
6
CONTINUOUS
10
1.77165
20
-1.17717
11
1.77215
21
-1.17733
0
LINE
8
BLACK
6
CONTINUOUS
10
1.77215
20
-1.17733
11
1.78848
21
-1.17661
0
LINE
8
BLACK
6
CONTINUOUS
10
1.78848
20
-1.17661
11
1.80518
21
-1.17442
0
LINE
8
BLACK
6
CONTINUOUS
10
1.80518
20
-1.17442
11
1.82163
21
-1.17077
0
LINE
8
BLACK
6
CONTINUOUS
10
1.82163
20
-1.17077
11
1.8377
21
-1.1657
0
LINE
8
BLACK
6
CONTINUOUS
10
1.8377
20
-1.1657
11
1.85326
21
-1.15926
0
LINE
8
BLACK
6
CONTINUOUS
10
1.85326
20
-1.15926
11
1.8682
21
-1.15148
0
LINE
8
BLACK
6
CONTINUOUS
10
1.8682
20
-1.15148
11
1.88241
21
-1.14243
0
LINE
8
BLACK
6
CONTINUOUS
10
1.88241
20
-1.14243
11
1.89577
21
-1.13217
0
LINE
8
BLACK
6
CONTINUOUS
10
1.89577
20
-1.13217
11
1.90819
21
-1.12079
0
LINE
8
BLACK
6
CONTINUOUS
10
1.90819
20
-1.12079
11
1.91957
21
-1.10837
0
LINE
8
BLACK
6
CONTINUOUS
10
1.91957
20
-1.10837
11
1.92983
21
-1.09501
0
LINE
8
BLACK
6
CONTINUOUS
10
1.92983
20
-1.09501
11
1.93888
21
-1.0808
0
LINE
8
BLACK
6
CONTINUOUS
10
1.93888
20
-1.0808
11
1.94666
21
-1.06586
0
LINE
8
BLACK
6
CONTINUOUS
10
1.94666
20
-1.06586
11
1.95311
21
-1.0503
0
LINE
8
BLACK
6
CONTINUOUS
10
1.95311
20
-1.0503
11
1.95817
21
-1.03423
0
LINE
8
BLACK
6
CONTINUOUS
10
1.95817
20
-1.03423
11
1.96182
21
-1.01778
0
LINE
8
BLACK
6
CONTINUOUS
10
1.96182
20
-1.01778
11
1.96402
21
-1.00108
0
LINE
8
BLACK
6
CONTINUOUS
10
1.96402
20
-1.00108
11
1.96473
21
-0.984751
0
LINE
8
BLACK
6
CONTINUOUS
10
1.96473
20
-0.984751
11
1.96457
21
-0.984252
0
LINE
8
BLACK
6
CONTINUOUS
10
1.96457
20
-0.984252
11
1.96457
21
0.984252
0
LINE
8
BLACK
6
CONTINUOUS
10
1.96457
20
0.984252
11
1.96473
21
0.984751
0
LINE
8
BLACK
6
CONTINUOUS
10
1.96473
20
0.984751
11
1.96402
21
1.00108
0
LINE
8
BLACK
6
CONTINUOUS
10
1.96402
20
1.00108
11
1.96182
21
1.01778
0
LINE
8
BLACK
6
CONTINUOUS
10
1.96182
20
1.01778
11
1.95817
21
1.03423
0
LINE
8
BLACK
6
CONTINUOUS
10
1.95817
20
1.03423
11
1.95311
21
1.0503
0
LINE
8
BLACK
6
CONTINUOUS
10
1.95311
20
1.0503
11
1.94666
21
1.06586
0
LINE
8
BLACK
6
CONTINUOUS
10
1.94666
20
1.06586
11
1.93888
21
1.0808
0
LINE
8
BLACK
6
CONTINUOUS
10
1.93888
20
1.0808
11
1.92983
21
1.09501
0
LINE
8
BLACK
6
CONTINUOUS
10
1.92983
20
1.09501
11
1.91957
21
1.10837
0
LINE
8
BLACK
6
CONTINUOUS
10
1.91957
20
1.10837
11
1.90819
21
1.12079
0
LINE
8
BLACK
6
CONTINUOUS
10
1.90819
20
1.12079
11
1.89577
21
1.13217
0
LINE
8
BLACK
6
CONTINUOUS
10
1.89577
20
1.13217
11
1.88241
21
1.14243
0
LINE
8
BLACK
6
CONTINUOUS
10
1.88241
20
1.14243
11
1.8682
21
1.15148
0
LINE
8
BLACK
6
CONTINUOUS
10
1.8682
20
1.15148
11
1.85326
21
1.15926
0
LINE
8
BLACK
6
CONTINUOUS
10
1.85326
20
1.15926
11
1.8377
21
1.1657
0
LINE
8
BLACK
6
CONTINUOUS
10
1.8377
20
1.1657
11
1.82163
21
1.17077
0
LINE
8
BLACK
6
CONTINUOUS
10
1.82163
20
1.17077
11
1.80518
21
1.17442
0
LINE
8
BLACK
6
CONTINUOUS
10
1.80518
20
1.17442
11
1.78848
21
1.17661
0
LINE
8
BLACK
6
CONTINUOUS
10
1.78848
20
1.17661
11
1.77215
21
1.17733
0
LINE
8
BLACK
6
CONTINUOUS
10
1.77215
20
1.17733
11
1.77165
21
1.17717
0
LINE
8
BLACK
6
CONTINUOUS
10
1.77165
20
1.17717
11
-1.77165
21
1.17717
0
LINE
8
BLACK
6
CONTINUOUS
10
-1.77165
20
1.17717
11
-1.77215
21
1.17733
0
LINE
8
BLACK
6
CONTINUOUS
10
-1.91029
20
-0.954784
11
-1.90645
21
-0.940454
0
LINE
8
BLACK
6
CONTINUOUS
10
-1.90645
20
-0.940454
11
-1.90113
21
-0.926604
0
LINE
8
BLACK
6
CONTINUOUS
10
-1.90113
20
-0.926604
11
-1.8944
21
-0.913386
0
LINE
8
BLACK
6
CONTINUOUS
10
-1.8944
20
-0.913386
11
-1.88632
21
-0.900944
0
LINE
8
BLACK
6
CONTINUOUS
10
-1.88632
20
-0.900944
11
-1.87698
21
-0.889415
0
LINE
8
BLACK
6
CONTINUOUS
10
-1.87698
20
-0.889415
11
-1.86649
21
-0.878924
0
LINE
8
BLACK
6
CONTINUOUS
10
-1.86649
20
-0.878924
11
-1.85496
21
-0.869588
0
LINE
8
BLACK
6
CONTINUOUS
10
-1.85496
20
-0.869588
11
-1.84252
21
-0.861508
0
LINE
8
BLACK
6
CONTINUOUS
10
-1.84252
20
-0.861508
11
-1.8293
21
-0.854773
0
LINE
8
BLACK
6
CONTINUOUS
10
-1.8293
20
-0.854773
11
-1.81545
21
-0.849457
0
LINE
8
BLACK
6
CONTINUOUS
10
-1.81545
20
-0.849457
11
-1.80112
21
-0.845617
0
LINE
8
BLACK
6
CONTINUOUS
10
-1.80112
20
-0.845617
11
-1.78647
21
-0.843296
0
LINE
8
BLACK
6
CONTINUOUS
10
-1.78647
20
-0.843296
11
-1.77165
21
-0.84252
0
LINE
8
BLACK
6
CONTINUOUS
10
-1.77165
20
-0.84252
11
-1.75684
21
-0.843296
0
LINE
8
BLACK
6
CONTINUOUS
10
-1.75684
20
-0.843296
11
-1.74219
21
-0.845617
0
LINE
8
BLACK
6
CONTINUOUS
10
-1.74219
20
-0.845617
11
-1.72786
21
-0.849457
0
LINE
8
BLACK
6
CONTINUOUS
10
-1.72786
20
-0.849457
11
-1.71401
21
-0.854773
0
LINE
8
BLACK
6
CONTINUOUS
10
-1.71401
20
-0.854773
11
-1.70079
21
-0.861508
0
LINE
8
BLACK
6
CONTINUOUS
10
-1.70079
20
-0.861508
11
-1.68835
21
-0.869588
0
LINE
8
BLACK
6
CONTINUOUS
10
-1.68835
20
-0.869588
11
-1.67682
21
-0.878924
0
LINE
8
BLACK
6
CONTINUOUS
10
-1.67682
20
-0.878924
11
-1.66633
21
-0.889415
0
LINE
8
BLACK
6
CONTINUOUS
10
-1.66633
20
-0.889415
11
-1.65699
21
-0.900944
0
LINE
8
BLACK
6
CONTINUOUS
10
-1.65699
20
-0.900944
11
-1.64891
21
-0.913386
0
LINE
8
BLACK
6
CONTINUOUS
10
-1.64891
20
-0.913386
11
-1.64217
21
-0.926604
0
LINE
8
BLACK
6
CONTINUOUS
10
-1.64217
20
-0.926604
11
-1.63686
21
-0.940454
0
LINE
8
BLACK
6
CONTINUOUS
10
-1.63686
20
-0.940454
11
-1.63302
21
-0.954784
0
LINE
8
BLACK
6
CONTINUOUS
10
-1.63302
20
-0.954784
11
-1.6307
21
-0.969437
0
LINE
8
BLACK
6
CONTINUOUS
10
-1.6307
20
-0.969437
11
-1.62992
21
-0.984252
0
LINE
8
BLACK
6
CONTINUOUS
10
-1.62992
20
-0.984252
11
-1.6307
21
-0.999067
0
LINE
8
BLACK
6
CONTINUOUS
10
-1.6307
20
-0.999067
11
-1.63302
21
-1.01372
0
LINE
8
BLACK
6
CONTINUOUS
10
-1.63302
20
-1.01372
11
-1.63686
21
-1.02805
0
LINE
8
BLACK
6
CONTINUOUS
10
-1.63686
20
-1.02805
11
-1.64217
21
-1.0419
0
LINE
8
BLACK
6
CONTINUOUS
10
-1.64217
20
-1.0419
11
-1.64891
21
-1.05512
0
LINE
8
BLACK
6
CONTINUOUS
10
-1.64891
20
-1.05512
11
-1.65699
21
-1.06756
0
LINE
8
BLACK
6
CONTINUOUS
10
-1.65699
20
-1.06756
11
-1.66633
21
-1.07909
0
LINE
8
BLACK
6
CONTINUOUS
10
-1.66633
20
-1.07909
11
-1.67682
21
-1.08958
0
LINE
8
BLACK
6
CONTINUOUS
10
-1.67682
20
-1.08958
11
-1.68835
21
-1.09892
0
LINE
8
BLACK
6
CONTINUOUS
10
-1.68835
20
-1.09892
11
-1.70079
21
-1.107
0
LINE
8
BLACK
6
CONTINUOUS
10
-1.70079
20
-1.107
11
-1.71401
21
-1.11373
0
LINE
8
BLACK
6
CONTINUOUS
10
-1.71401
20
-1.11373
11
-1.72786
21
-1.11905
0
LINE
8
BLACK
6
CONTINUOUS
10
-1.72786
20
-1.11905
11
-1.74219
21
-1.12289
0
LINE
8
BLACK
6
CONTINUOUS
10
-1.74219
20
-1.12289
11
-1.75684
21
-1.12521
0
LINE
8
BLACK
6
CONTINUOUS
10
-1.75684
20
-1.12521
11
-1.77165
21
-1.12598
0
LINE
8
BLACK
6
CONTINUOUS
10
-1.77165
20
-1.12598
11
-1.78647
21
-1.12521
0
LINE
8
BLACK
6
CONTINUOUS
10
-1.78647
20
-1.12521
11
-1.80112
21
-1.12289
0
LINE
8
BLACK
6
CONTINUOUS
10
-1.80112
20
-1.12289
11
-1.81545
21
-1.11905
0
LINE
8
BLACK
6
CONTINUOUS
10
-1.81545
20
-1.11905
11
-1.8293
21
-1.11373
0
LINE
8
BLACK
6
CONTINUOUS
10
-1.8293
20
-1.11373
11
-1.84252
21
-1.107
0
LINE
8
BLACK
6
CONTINUOUS
10
-1.84252
20
-1.107
11
-1.85496
21
-1.09892
0
LINE
8
BLACK
6
CONTINUOUS
10
-1.85496
20
-1.09892
11
-1.86649
21
-1.08958
0
LINE
8
BLACK
6
CONTINUOUS
10
-1.86649
20
-1.08958
11
-1.87698
21
-1.07909
0
LINE
8
BLACK
6
CONTINUOUS
10
-1.87698
20
-1.07909
11
-1.88632
21
-1.06756
0
LINE
8
BLACK
6
CONTINUOUS
10
-1.88632
20
-1.06756
11
-1.8944
21
-1.05512
0
LINE
8
BLACK
6
CONTINUOUS
10
-1.8944
20
-1.05512
11
-1.90113
21
-1.0419
0
LINE
8
BLACK
6
CONTINUOUS
10
-1.90113
20
-1.0419
11
-1.90645
21
-1.02805
0
LINE
8
BLACK
6
CONTINUOUS
10
-1.90645
20
-1.02805
11
-1.91029
21
-1.01372
0
LINE
8
BLACK
6
CONTINUOUS
10
-1.91029
20
-1.01372
11
-1.91261
21
-0.999067
0
LINE
8
BLACK
6
CONTINUOUS
10
-1.91261
20
-0.999067
11
-1.91339
21
-0.984252
0
LINE
8
BLACK
6
CONTINUOUS
10
-1.91339
20
-0.984252
11
-1.91336
21
-0.983784
0
LINE
8
BLACK
6
CONTINUOUS
10
-1.91336
20
-0.983784
11
-1.91261
21
-0.969437
0
LINE
8
BLACK
6
CONTINUOUS
10
-1.91261
20
-0.969437
11
-1.91029
21
-0.954784
0
LINE
8
BLACK
6
CONTINUOUS
10
-1.90268
20
-1.01258
11
-1.89885
21
-1.02657
0
LINE
8
BLACK
6
CONTINUOUS
10
-1.89885
20
-1.02657
11
-1.89354
21
-1.04006
0
LINE
8
BLACK
6
CONTINUOUS
10
-1.89354
20
-1.04006
11
-1.8868
21
-1.05289
0
LINE
8
BLACK
6
CONTINUOUS
10
-1.8868
20
-1.05289
11
-1.87871
21
-1.06493
0
LINE
8
BLACK
6
CONTINUOUS
10
-1.87871
20
-1.06493
11
-1.86938
21
-1.07602
0
LINE
8
BLACK
6
CONTINUOUS
10
-1.86938
20
-1.07602
11
-1.85889
21
-1.08604
0
LINE
8
BLACK
6
CONTINUOUS
10
-1.85889
20
-1.08604
11
-1.84739
21
-1.09486
0
LINE
8
BLACK
6
CONTINUOUS
10
-1.84739
20
-1.09486
11
-1.835
21
-1.1024
0
LINE
8
BLACK
6
CONTINUOUS
10
-1.835
20
-1.1024
11
-1.82187
21
-1.10855
0
LINE
8
BLACK
6
CONTINUOUS
10
-1.82187
20
-1.10855
11
-1.80815
21
-1.11324
0
LINE
8
BLACK
6
CONTINUOUS
10
-1.80815
20
-1.11324
11
-1.79401
21
-1.11643
0
LINE
8
BLACK
6
CONTINUOUS
10
-1.79401
20
-1.11643
11
-1.7796
21
-1.11807
0
LINE
8
BLACK
6
CONTINUOUS
10
-1.7796
20
-1.11807
11
-1.7651
21
-1.11815
0
LINE
8
BLACK
6
CONTINUOUS
10
-1.7651
20
-1.11815
11
-1.75068
21
-1.11666
0
LINE
8
BLACK
6
CONTINUOUS
10
-1.75068
20
-1.11666
11
-1.73651
21
-1.11362
0
LINE
8
BLACK
6
CONTINUOUS
10
-1.73651
20
-1.11362
11
-1.72274
21
-1.10906
0
LINE
8
BLACK
6
CONTINUOUS
10
-1.72274
20
-1.10906
11
-1.70955
21
-1.10305
0
LINE
8
BLACK
6
CONTINUOUS
10
-1.70955
20
-1.10305
11
-1.69708
21
-1.09565
0
LINE
8
BLACK
6
CONTINUOUS
10
-1.69708
20
-1.09565
11
-1.68548
21
-1.08694
0
LINE
8
BLACK
6
CONTINUOUS
10
-1.68548
20
-1.08694
11
-1.6749
21
-1.07704
0
LINE
8
BLACK
6
CONTINUOUS
10
-1.6749
20
-1.07704
11
-1.66544
21
-1.06604
0
LINE
8
BLACK
6
CONTINUOUS
10
-1.66544
20
-1.06604
11
-1.65723
21
-1.0541
0
LINE
8
BLACK
6
CONTINUOUS
10
-1.65723
20
-1.0541
11
-1.65036
21
-1.04133
0
LINE
8
BLACK
6
CONTINUOUS
10
-1.65036
20
-1.04133
11
-1.6449
21
-1.0279
0
LINE
8
BLACK
6
CONTINUOUS
10
-1.6449
20
-1.0279
11
-1.64093
21
-1.01395
0
LINE
8
BLACK
6
CONTINUOUS
10
-1.64093
20
-1.01395
11
-1.63849
21
-0.99966
0
LINE
8
BLACK
6
CONTINUOUS
10
-1.63849
20
-0.99966
11
-1.6376
21
-0.985188
0
LINE
8
BLACK
6
CONTINUOUS
10
-1.6376
20
-0.985188
11
-1.6376
21
-0.984252
0
LINE
8
BLACK
6
CONTINUOUS
10
-1.6376
20
-0.984252
11
-1.63838
21
-0.969774
0
LINE
8
BLACK
6
CONTINUOUS
10
-1.63838
20
-0.969774
11
-1.64073
21
-0.955466
0
LINE
8
BLACK
6
CONTINUOUS
10
-1.64073
20
-0.955466
11
-1.6446
21
-0.941494
0
LINE
8
BLACK
6
CONTINUOUS
10
-1.6446
20
-0.941494
11
-1.64996
21
-0.928022
0
LINE
8
BLACK
6
CONTINUOUS
10
-1.64996
20
-0.928022
11
-1.65675
21
-0.915209
0
LINE
8
BLACK
6
CONTINUOUS
10
-1.65675
20
-0.915209
11
-1.66487
21
-0.903203
0
LINE
8
BLACK
6
CONTINUOUS
10
-1.66487
20
-0.903203
11
-1.67425
21
-0.892145
0
LINE
8
BLACK
6
CONTINUOUS
10
-1.67425
20
-0.892145
11
-1.68477
21
-0.882164
0
LINE
8
BLACK
6
CONTINUOUS
10
-1.68477
20
-0.882164
11
-1.6963
21
-0.873378
0
LINE
8
BLACK
6
CONTINUOUS
10
-1.6963
20
-0.873378
11
-1.70872
21
-0.865889
0
LINE
8
BLACK
6
CONTINUOUS
10
-1.70872
20
-0.865889
11
-1.72187
21
-0.859784
0
LINE
8
BLACK
6
CONTINUOUS
10
-1.72187
20
-0.859784
11
-1.7356
21
-0.855135
0
LINE
8
BLACK
6
CONTINUOUS
10
-1.7356
20
-0.855135
11
-1.74976
21
-0.851997
0
LINE
8
BLACK
6
CONTINUOUS
10
-1.74976
20
-0.851997
11
-1.76417
21
-0.850406
0
LINE
8
BLACK
6
CONTINUOUS
10
-1.76417
20
-0.850406
11
-1.77867
21
-0.850381
0
LINE
8
BLACK
6
CONTINUOUS
10
-1.77867
20
-0.850381
11
-1.79309
21
-0.851922
0
LINE
8
BLACK
6
CONTINUOUS
10
-1.79309
20
-0.851922
11
-1.80725
21
-0.85501
0
LINE
8
BLACK
6
CONTINUOUS
10
-1.80725
20
-0.85501
11
-1.821
21
-0.859611
0
LINE
8
BLACK
6
CONTINUOUS
10
-1.821
20
-0.859611
11
-1.83417
21
-0.86567
0
LINE
8
BLACK
6
CONTINUOUS
10
-1.83417
20
-0.86567
11
-1.84662
21
-0.873115
0
LINE
8
BLACK
6
CONTINUOUS
10
-1.84662
20
-0.873115
11
-1.85818
21
-0.881861
0
LINE
8
BLACK
6
CONTINUOUS
10
-1.85818
20
-0.881861
11
-1.86873
21
-0.891805
0
LINE
8
BLACK
6
CONTINUOUS
10
-1.86873
20
-0.891805
11
-1.87815
21
-0.90283
0
LINE
8
BLACK
6
CONTINUOUS
10
-1.87815
20
-0.90283
11
-1.88632
21
-0.914808
0
LINE
8
BLACK
6
CONTINUOUS
10
-1.88632
20
-0.914808
11
-1.89315
21
-0.927598
0
LINE
8
BLACK
6
CONTINUOUS
10
-1.89315
20
-0.927598
11
-1.89856
21
-0.941051
0
LINE
8
BLACK
6
CONTINUOUS
10
-1.89856
20
-0.941051
11
-1.90248
21
-0.955009
0
LINE
8
BLACK
6
CONTINUOUS
10
-1.90248
20
-0.955009
11
-1.90487
21
-0.969309
0
LINE
8
BLACK
6
CONTINUOUS
10
-1.90487
20
-0.969309
11
-1.90571
21
-0.983784
0
LINE
8
BLACK
6
CONTINUOUS
10
-1.90571
20
-0.983784
11
-1.90497
21
-0.998265
0
LINE
8
BLACK
6
CONTINUOUS
10
-1.90497
20
-0.998265
11
-1.90268
21
-1.01258
0
LINE
8
BLACK
6
CONTINUOUS
10
-1.83757
20
-0.97263
11
-1.83512
21
-0.963015
0
LINE
8
BLACK
6
CONTINUOUS
10
-1.83512
20
-0.963015
11
-1.83129
21
-0.953867
0
LINE
8
BLACK
6
CONTINUOUS
10
-1.83129
20
-0.953867
11
-1.82614
21
-0.945386
0
LINE
8
BLACK
6
CONTINUOUS
10
-1.82614
20
-0.945386
11
-1.8198
21
-0.937759
0
LINE
8
BLACK
6
CONTINUOUS
10
-1.8198
20
-0.937759
11
-1.8124
21
-0.931154
0
LINE
8
BLACK
6
CONTINUOUS
10
-1.8124
20
-0.931154
11
-1.8041
21
-0.925714
0
LINE
8
BLACK
6
CONTINUOUS
10
-1.8041
20
-0.925714
11
-1.79509
21
-0.921561
0
LINE
8
BLACK
6
CONTINUOUS
10
-1.79509
20
-0.921561
11
-1.78557
21
-0.918785
0
LINE
8
BLACK
6
CONTINUOUS
10
-1.78557
20
-0.918785
11
-1.77574
21
-0.917448
0
LINE
8
BLACK
6
CONTINUOUS
10
-1.77574
20
-0.917448
11
-1.76582
21
-0.917578
0
LINE
8
BLACK
6
CONTINUOUS
10
-1.76582
20
-0.917578
11
-1.75603
21
-0.919172
0
LINE
8
BLACK
6
CONTINUOUS
10
-1.75603
20
-0.919172
11
-1.74658
21
-0.922196
0
LINE
8
BLACK
6
CONTINUOUS
10
-1.74658
20
-0.922196
11
-1.73768
21
-0.926584
0
LINE
8
BLACK
6
CONTINUOUS
10
-1.73768
20
-0.926584
11
-1.72953
21
-0.932238
0
LINE
8
BLACK
6
CONTINUOUS
10
-1.72953
20
-0.932238
11
-1.72231
21
-0.939035
0
LINE
8
BLACK
6
CONTINUOUS
10
-1.72231
20
-0.939035
11
-1.71617
21
-0.946826
0
LINE
8
BLACK
6
CONTINUOUS
10
-1.71617
20
-0.946826
11
-1.71124
21
-0.955438
0
LINE
8
BLACK
6
CONTINUOUS
10
-1.71124
20
-0.955438
11
-1.70765
21
-0.964684
0
LINE
8
BLACK
6
CONTINUOUS
10
-1.70765
20
-0.964684
11
-1.70546
21
-0.974359
0
LINE
8
BLACK
6
CONTINUOUS
10
-1.70546
20
-0.974359
11
-1.70472
21
-0.984252
0
LINE
8
BLACK
6
CONTINUOUS
10
-1.70472
20
-0.984252
11
-1.70482
21
-0.987755
0
LINE
8
BLACK
6
CONTINUOUS
10
-1.70482
20
-0.987755
11
-1.70607
21
-0.997595
0
LINE
8
BLACK
6
CONTINUOUS
10
-1.70607
20
-0.997595
11
-1.70876
21
-1.00714
0
LINE
8
BLACK
6
CONTINUOUS
10
-1.70876
20
-1.00714
11
-1.71284
21
-1.01619
0
LINE
8
BLACK
6
CONTINUOUS
10
-1.71284
20
-1.01619
11
-1.7182
21
-1.02453
0
LINE
8
BLACK
6
CONTINUOUS
10
-1.7182
20
-1.02453
11
-1.72474
21
-1.03199
0
LINE
8
BLACK
6
CONTINUOUS
10
-1.72474
20
-1.03199
11
-1.73231
21
-1.0384
0
LINE
8
BLACK
6
CONTINUOUS
10
-1.73231
20
-1.0384
11
-1.74075
21
-1.04362
0
LINE
8
BLACK
6
CONTINUOUS
10
-1.74075
20
-1.04362
11
-1.74986
21
-1.04753
0
LINE
8
BLACK
6
CONTINUOUS
10
-1.74986
20
-1.04753
11
-1.75946
21
-1.05006
0
LINE
8
BLACK
6
CONTINUOUS
10
-1.75946
20
-1.05006
11
-1.76932
21
-1.05114
0
LINE
8
BLACK
6
CONTINUOUS
10
-1.76932
20
-1.05114
11
-1.77923
21
-1.05075
0
LINE
8
BLACK
6
CONTINUOUS
10
-1.77923
20
-1.05075
11
-1.78898
21
-1.0489
0
LINE
8
BLACK
6
CONTINUOUS
10
-1.78898
20
-1.0489
11
-1.79834
21
-1.04563
0
LINE
8
BLACK
6
CONTINUOUS
10
-1.79834
20
-1.04563
11
-1.80712
21
-1.04101
0
LINE
8
BLACK
6
CONTINUOUS
10
-1.80712
20
-1.04101
11
-1.81512
21
-1.03515
0
LINE
8
BLACK
6
CONTINUOUS
10
-1.81512
20
-1.03515
11
-1.82217
21
-1.02816
0
LINE
8
BLACK
6
CONTINUOUS
10
-1.82217
20
-1.02816
11
-1.8281
21
-1.02021
0
LINE
8
BLACK
6
CONTINUOUS
10
-1.8281
20
-1.02021
11
-1.8328
21
-1.01147
0
LINE
8
BLACK
6
CONTINUOUS
10
-1.8328
20
-1.01147
11
-1.83615
21
-1.00214
0
LINE
8
BLACK
6
CONTINUOUS
10
-1.83615
20
-1.00214
11
-1.83808
21
-0.992409
0
LINE
8
BLACK
6
CONTINUOUS
10
-1.83808
20
-0.992409
11
-1.83855
21
-0.982804
0
LINE
8
BLACK
6
CONTINUOUS
10
-1.83855
20
-0.982804
11
-1.83856
21
-0.9825
0
LINE
8
BLACK
6
CONTINUOUS
10
-1.83856
20
-0.9825
11
-1.83757
21
-0.97263
0
LINE
8
BLACK
6
CONTINUOUS
10
-1.8282
20
-1.00197
11
-1.82455
21
-1.01097
0
LINE
8
BLACK
6
CONTINUOUS
10
-1.82455
20
-1.01097
11
-1.81947
21
-1.01925
0
LINE
8
BLACK
6
CONTINUOUS
10
-1.81947
20
-1.01925
11
-1.81311
21
-1.02659
0
LINE
8
BLACK
6
CONTINUOUS
10
-1.81311
20
-1.02659
11
-1.80564
21
-1.03279
0
LINE
8
BLACK
6
CONTINUOUS
10
-1.80564
20
-1.03279
11
-1.79726
21
-1.03769
0
LINE
8
BLACK
6
CONTINUOUS
10
-1.79726
20
-1.03769
11
-1.78819
21
-1.04116
0
LINE
8
BLACK
6
CONTINUOUS
10
-1.78819
20
-1.04116
11
-1.77867
21
-1.04309
0
LINE
8
BLACK
6
CONTINUOUS
10
-1.77867
20
-1.04309
11
-1.76897
21
-1.04345
0
LINE
8
BLACK
6
CONTINUOUS
10
-1.76897
20
-1.04345
11
-1.75933
21
-1.04221
0
LINE
8
BLACK
6
CONTINUOUS
10
-1.75933
20
-1.04221
11
-1.75003
21
-1.03942
0
LINE
8
BLACK
6
CONTINUOUS
10
-1.75003
20
-1.03942
11
-1.74131
21
-1.03515
0
LINE
8
BLACK
6
CONTINUOUS
10
-1.74131
20
-1.03515
11
-1.73341
21
-1.02951
0
LINE
8
BLACK
6
CONTINUOUS
10
-1.73341
20
-1.02951
11
-1.72653
21
-1.02266
0
LINE
8
BLACK
6
CONTINUOUS
10
-1.72653
20
-1.02266
11
-1.72086
21
-1.01477
0
LINE
8
BLACK
6
CONTINUOUS
10
-1.72086
20
-1.01477
11
-1.71656
21
-1.00607
0
LINE
8
BLACK
6
CONTINUOUS
10
-1.71656
20
-1.00607
11
-1.71373
21
-0.996775
0
LINE
8
BLACK
6
CONTINUOUS
10
-1.71373
20
-0.996775
11
-1.71247
21
-0.987147
0
LINE
8
BLACK
6
CONTINUOUS
10
-1.71247
20
-0.987147
11
-1.7124
21
-0.984252
0
LINE
8
BLACK
6
CONTINUOUS
10
-1.7124
20
-0.984252
11
-1.71319
21
-0.974574
0
LINE
8
BLACK
6
CONTINUOUS
10
-1.71319
20
-0.974574
11
-1.71556
21
-0.965155
0
LINE
8
BLACK
6
CONTINUOUS
10
-1.71556
20
-0.965155
11
-1.71943
21
-0.95625
0
LINE
8
BLACK
6
CONTINUOUS
10
-1.71943
20
-0.95625
11
-1.7247
21
-0.948096
0
LINE
8
BLACK
6
CONTINUOUS
10
-1.7247
20
-0.948096
11
-1.73124
21
-0.940914
0
LINE
8
BLACK
6
CONTINUOUS
10
-1.73124
20
-0.940914
11
-1.73886
21
-0.934895
0
LINE
8
BLACK
6
CONTINUOUS
10
-1.73886
20
-0.934895
11
-1.74736
21
-0.930202
0
LINE
8
BLACK
6
CONTINUOUS
10
-1.74736
20
-0.930202
11
-1.75652
21
-0.92696
0
LINE
8
BLACK
6
CONTINUOUS
10
-1.75652
20
-0.92696
11
-1.76608
21
-0.925257
0
LINE
8
BLACK
6
CONTINUOUS
10
-1.76608
20
-0.925257
11
-1.77579
21
-0.925139
0
LINE
8
BLACK
6
CONTINUOUS
10
-1.77579
20
-0.925139
11
-1.78539
21
-0.926608
0
LINE
8
BLACK
6
CONTINUOUS
10
-1.78539
20
-0.926608
11
-1.79462
21
-0.929625
0
LINE
8
BLACK
6
CONTINUOUS
10
-1.79462
20
-0.929625
11
-1.80323
21
-0.934109
0
LINE
8
BLACK
6
CONTINUOUS
10
-1.80323
20
-0.934109
11
-1.811
21
-0.939939
0
LINE
8
BLACK
6
CONTINUOUS
10
-1.811
20
-0.939939
11
-1.81771
21
-0.94696
0
LINE
8
BLACK
6
CONTINUOUS
10
-1.81771
20
-0.94696
11
-1.82318
21
-0.954982
0
LINE
8
BLACK
6
CONTINUOUS
10
-1.82318
20
-0.954982
11
-1.82727
21
-0.96379
0
LINE
8
BLACK
6
CONTINUOUS
10
-1.82727
20
-0.96379
11
-1.82986
21
-0.973148
0
LINE
8
BLACK
6
CONTINUOUS
10
-1.82986
20
-0.973148
11
-1.83089
21
-0.982804
0
LINE
8
BLACK
6
CONTINUOUS
10
-1.83089
20
-0.982804
11
-1.83033
21
-0.992499
0
LINE
8
BLACK
6
CONTINUOUS
10
-1.83033
20
-0.992499
11
-1.8282
21
-1.00197
0
LINE
8
BLACK
6
CONTINUOUS
10
1.63302
20
-0.954784
11
1.63686
21
-0.940454
0
LINE
8
BLACK
6
CONTINUOUS
10
1.63686
20
-0.940454
11
1.64217
21
-0.926604
0
LINE
8
BLACK
6
CONTINUOUS
10
1.64217
20
-0.926604
11
1.64891
21
-0.913386
0
LINE
8
BLACK
6
CONTINUOUS
10
1.64891
20
-0.913386
11
1.65699
21
-0.900944
0
LINE
8
BLACK
6
CONTINUOUS
10
1.65699
20
-0.900944
11
1.66633
21
-0.889415
0
LINE
8
BLACK
6
CONTINUOUS
10
1.66633
20
-0.889415
11
1.67682
21
-0.878924
0
LINE
8
BLACK
6
CONTINUOUS
10
1.67682
20
-0.878924
11
1.68835
21
-0.869588
0
LINE
8
BLACK
6
CONTINUOUS
10
1.68835
20
-0.869588
11
1.70079
21
-0.861508
0
LINE
8
BLACK
6
CONTINUOUS
10
1.70079
20
-0.861508
11
1.71401
21
-0.854773
0
LINE
8
BLACK
6
CONTINUOUS
10
1.71401
20
-0.854773
11
1.72786
21
-0.849457
0
LINE
8
BLACK
6
CONTINUOUS
10
1.72786
20
-0.849457
11
1.74219
21
-0.845617
0
LINE
8
BLACK
6
CONTINUOUS
10
1.74219
20
-0.845617
11
1.75684
21
-0.843296
0
LINE
8
BLACK
6
CONTINUOUS
10
1.75684
20
-0.843296
11
1.77165
21
-0.84252
0
LINE
8
BLACK
6
CONTINUOUS
10
1.77165
20
-0.84252
11
1.78647
21
-0.843296
0
LINE
8
BLACK
6
CONTINUOUS
10
1.78647
20
-0.843296
11
1.80112
21
-0.845617
0
LINE
8
BLACK
6
CONTINUOUS
10
1.80112
20
-0.845617
11
1.81545
21
-0.849457
0
LINE
8
BLACK
6
CONTINUOUS
10
1.81545
20
-0.849457
11
1.8293
21
-0.854773
0
LINE
8
BLACK
6
CONTINUOUS
10
1.8293
20
-0.854773
11
1.84252
21
-0.861508
0
LINE
8
BLACK
6
CONTINUOUS
10
1.84252
20
-0.861508
11
1.85496
21
-0.869588
0
LINE
8
BLACK
6
CONTINUOUS
10
1.85496
20
-0.869588
11
1.86649
21
-0.878924
0
LINE
8
BLACK
6
CONTINUOUS
10
1.86649
20
-0.878924
11
1.87698
21
-0.889415
0
LINE
8
BLACK
6
CONTINUOUS
10
1.87698
20
-0.889415
11
1.88632
21
-0.900944
0
LINE
8
BLACK
6
CONTINUOUS
10
1.88632
20
-0.900944
11
1.8944
21
-0.913386
0
LINE
8
BLACK
6
CONTINUOUS
10
1.8944
20
-0.913386
11
1.90113
21
-0.926604
0
LINE
8
BLACK
6
CONTINUOUS
10
1.90113
20
-0.926604
11
1.90645
21
-0.940454
0
LINE
8
BLACK
6
CONTINUOUS
10
1.90645
20
-0.940454
11
1.91029
21
-0.954784
0
LINE
8
BLACK
6
CONTINUOUS
10
1.91029
20
-0.954784
11
1.91261
21
-0.969437
0
LINE
8
BLACK
6
CONTINUOUS
10
1.91261
20
-0.969437
11
1.91339
21
-0.984252
0
LINE
8
BLACK
6
CONTINUOUS
10
1.91339
20
-0.984252
11
1.91261
21
-0.999067
0
LINE
8
BLACK
6
CONTINUOUS
10
1.91261
20
-0.999067
11
1.91029
21
-1.01372
0
LINE
8
BLACK
6
CONTINUOUS
10
1.91029
20
-1.01372
11
1.90645
21
-1.02805
0
LINE
8
BLACK
6
CONTINUOUS
10
1.90645
20
-1.02805
11
1.90113
21
-1.0419
0
LINE
8
BLACK
6
CONTINUOUS
10
1.90113
20
-1.0419
11
1.8944
21
-1.05512
0
LINE
8
BLACK
6
CONTINUOUS
10
1.8944
20
-1.05512
11
1.88632
21
-1.06756
0
LINE
8
BLACK
6
CONTINUOUS
10
1.88632
20
-1.06756
11
1.87698
21
-1.07909
0
LINE
8
BLACK
6
CONTINUOUS
10
1.87698
20
-1.07909
11
1.86649
21
-1.08958
0
LINE
8
BLACK
6
CONTINUOUS
10
1.86649
20
-1.08958
11
1.85496
21
-1.09892
0
LINE
8
BLACK
6
CONTINUOUS
10
1.85496
20
-1.09892
11
1.84252
21
-1.107
0
LINE
8
BLACK
6
CONTINUOUS
10
1.84252
20
-1.107
11
1.8293
21
-1.11373
0
LINE
8
BLACK
6
CONTINUOUS
10
1.8293
20
-1.11373
11
1.81545
21
-1.11905
0
LINE
8
BLACK
6
CONTINUOUS
10
1.81545
20
-1.11905
11
1.80112
21
-1.12289
0
LINE
8
BLACK
6
CONTINUOUS
10
1.80112
20
-1.12289
11
1.78647
21
-1.12521
0
LINE
8
BLACK
6
CONTINUOUS
10
1.78647
20
-1.12521
11
1.77165
21
-1.12598
0
LINE
8
BLACK
6
CONTINUOUS
10
1.77165
20
-1.12598
11
1.75684
21
-1.12521
0
LINE
8
BLACK
6
CONTINUOUS
10
1.75684
20
-1.12521
11
1.74219
21
-1.12289
0
LINE
8
BLACK
6
CONTINUOUS
10
1.74219
20
-1.12289
11
1.72786
21
-1.11905
0
LINE
8
BLACK
6
CONTINUOUS
10
1.72786
20
-1.11905
11
1.71401
21
-1.11373
0
LINE
8
BLACK
6
CONTINUOUS
10
1.71401
20
-1.11373
11
1.70079
21
-1.107
0
LINE
8
BLACK
6
CONTINUOUS
10
1.70079
20
-1.107
11
1.68835
21
-1.09892
0
LINE
8
BLACK
6
CONTINUOUS
10
1.68835
20
-1.09892
11
1.67682
21
-1.08958
0
LINE
8
BLACK
6
CONTINUOUS
10
1.67682
20
-1.08958
11
1.66633
21
-1.07909
0
LINE
8
BLACK
6
CONTINUOUS
10
1.66633
20
-1.07909
11
1.65699
21
-1.06756
0
LINE
8
BLACK
6
CONTINUOUS
10
1.65699
20
-1.06756
11
1.64891
21
-1.05512
0
LINE
8
BLACK
6
CONTINUOUS
10
1.64891
20
-1.05512
11
1.64217
21
-1.0419
0
LINE
8
BLACK
6
CONTINUOUS
10
1.64217
20
-1.0419
11
1.63686
21
-1.02805
0
LINE
8
BLACK
6
CONTINUOUS
10
1.63686
20
-1.02805
11
1.63302
21
-1.01372
0
LINE
8
BLACK
6
CONTINUOUS
10
1.63302
20
-1.01372
11
1.6307
21
-0.999067
0
LINE
8
BLACK
6
CONTINUOUS
10
1.6307
20
-0.999067
11
1.62992
21
-0.984252
0
LINE
8
BLACK
6
CONTINUOUS
10
1.62992
20
-0.984252
11
1.62995
21
-0.983784
0
LINE
8
BLACK
6
CONTINUOUS
10
1.62995
20
-0.983784
11
1.6307
21
-0.969437
0
LINE
8
BLACK
6
CONTINUOUS
10
1.6307
20
-0.969437
11
1.63302
21
-0.954784
0
LINE
8
BLACK
6
CONTINUOUS
10
1.64063
20
-1.01258
11
1.64445
21
-1.02657
0
LINE
8
BLACK
6
CONTINUOUS
10
1.64445
20
-1.02657
11
1.64977
21
-1.04006
0
LINE
8
BLACK
6
CONTINUOUS
10
1.64977
20
-1.04006
11
1.65651
21
-1.05289
0
LINE
8
BLACK
6
CONTINUOUS
10
1.65651
20
-1.05289
11
1.66459
21
-1.06493
0
LINE
8
BLACK
6
CONTINUOUS
10
1.66459
20
-1.06493
11
1.67393
21
-1.07602
0
LINE
8
BLACK
6
CONTINUOUS
10
1.67393
20
-1.07602
11
1.68441
21
-1.08604
0
LINE
8
BLACK
6
CONTINUOUS
10
1.68441
20
-1.08604
11
1.69592
21
-1.09486
0
LINE
8
BLACK
6
CONTINUOUS
10
1.69592
20
-1.09486
11
1.70831
21
-1.1024
0
LINE
8
BLACK
6
CONTINUOUS
10
1.70831
20
-1.1024
11
1.72144
21
-1.10855
0
LINE
8
BLACK
6
CONTINUOUS
10
1.72144
20
-1.10855
11
1.73515
21
-1.11324
0
LINE
8
BLACK
6
CONTINUOUS
10
1.73515
20
-1.11324
11
1.7493
21
-1.11643
0
LINE
8
BLACK
6
CONTINUOUS
10
1.7493
20
-1.11643
11
1.7637
21
-1.11807
0
LINE
8
BLACK
6
CONTINUOUS
10
1.7637
20
-1.11807
11
1.7782
21
-1.11815
0
LINE
8
BLACK
6
CONTINUOUS
10
1.7782
20
-1.11815
11
1.79262
21
-1.11666
0
LINE
8
BLACK
6
CONTINUOUS
10
1.79262
20
-1.11666
11
1.8068
21
-1.11362
0
LINE
8
BLACK
6
CONTINUOUS
10
1.8068
20
-1.11362
11
1.82057
21
-1.10906
0
LINE
8
BLACK
6
CONTINUOUS
10
1.82057
20
-1.10906
11
1.83376
21
-1.10305
0
LINE
8
BLACK
6
CONTINUOUS
10
1.83376
20
-1.10305
11
1.84623
21
-1.09565
0
LINE
8
BLACK
6
CONTINUOUS
10
1.84623
20
-1.09565
11
1.85782
21
-1.08694
0
LINE
8
BLACK
6
CONTINUOUS
10
1.85782
20
-1.08694
11
1.86841
21
-1.07704
0
LINE
8
BLACK
6
CONTINUOUS
10
1.86841
20
-1.07704
11
1.87786
21
-1.06604
0
LINE
8
BLACK
6
CONTINUOUS
10
1.87786
20
-1.06604
11
1.88608
21
-1.0541
0
LINE
8
BLACK
6
CONTINUOUS
10
1.88608
20
-1.0541
11
1.89295
21
-1.04133
0
LINE
8
BLACK
6
CONTINUOUS
10
1.89295
20
-1.04133
11
1.8984
21
-1.0279
0
LINE
8
BLACK
6
CONTINUOUS
10
1.8984
20
-1.0279
11
1.90238
21
-1.01395
0
LINE
8
BLACK
6
CONTINUOUS
10
1.90238
20
-1.01395
11
1.90482
21
-0.99966
0
LINE
8
BLACK
6
CONTINUOUS
10
1.90482
20
-0.99966
11
1.90571
21
-0.985188
0
LINE
8
BLACK
6
CONTINUOUS
10
1.90571
20
-0.985188
11
1.90571
21
-0.984252
0
LINE
8
BLACK
6
CONTINUOUS
10
1.90571
20
-0.984252
11
1.90492
21
-0.969774
0
LINE
8
BLACK
6
CONTINUOUS
10
1.90492
20
-0.969774
11
1.90258
21
-0.955466
0
LINE
8
BLACK
6
CONTINUOUS
10
1.90258
20
-0.955466
11
1.89871
21
-0.941494
0
LINE
8
BLACK
6
CONTINUOUS
10
1.89871
20
-0.941494
11
1.89335
21
-0.928022
0
LINE
8
BLACK
6
CONTINUOUS
10
1.89335
20
-0.928022
11
1.88656
21
-0.915209
0
LINE
8
BLACK
6
CONTINUOUS
10
1.88656
20
-0.915209
11
1.87843
21
-0.903203
0
LINE
8
BLACK
6
CONTINUOUS
10
1.87843
20
-0.903203
11
1.86905
21
-0.892145
0
LINE
8
BLACK
6
CONTINUOUS
10
1.86905
20
-0.892145
11
1.85854
21
-0.882164
0
LINE
8
BLACK
6
CONTINUOUS
10
1.85854
20
-0.882164
11
1.847
21
-0.873378
0
LINE
8
BLACK
6
CONTINUOUS
10
1.847
20
-0.873378
11
1.83459
21
-0.865889
0
LINE
8
BLACK
6
CONTINUOUS
10
1.83459
20
-0.865889
11
1.82144
21
-0.859784
0
LINE
8
BLACK
6
CONTINUOUS
10
1.82144
20
-0.859784
11
1.8077
21
-0.855135
0
LINE
8
BLACK
6
CONTINUOUS
10
1.8077
20
-0.855135
11
1.79355
21
-0.851997
0
LINE
8
BLACK
6
CONTINUOUS
10
1.79355
20
-0.851997
11
1.77914
21
-0.850406
0
LINE
8
BLACK
6
CONTINUOUS
10
1.77914
20
-0.850406
11
1.76464
21
-0.850381
0
LINE
8
BLACK
6
CONTINUOUS
10
1.76464
20
-0.850381
11
1.75022
21
-0.851922
0
LINE
8
BLACK
6
CONTINUOUS
10
1.75022
20
-0.851922
11
1.73605
21
-0.85501
0
LINE
8
BLACK
6
CONTINUOUS
10
1.73605
20
-0.85501
11
1.7223
21
-0.859611
0
LINE
8
BLACK
6
CONTINUOUS
10
1.7223
20
-0.859611
11
1.70913
21
-0.86567
0
LINE
8
BLACK
6
CONTINUOUS
10
1.70913
20
-0.86567
11
1.69669
21
-0.873115
0
LINE
8
BLACK
6
CONTINUOUS
10
1.69669
20
-0.873115
11
1.68513
21
-0.881861
0
LINE
8
BLACK
6
CONTINUOUS
10
1.68513
20
-0.881861
11
1.67457
21
-0.891805
0
LINE
8
BLACK
6
CONTINUOUS
10
1.67457
20
-0.891805
11
1.66516
21
-0.90283
0
LINE
8
BLACK
6
CONTINUOUS
10
1.66516
20
-0.90283
11
1.65699
21
-0.914808
0
LINE
8
BLACK
6
CONTINUOUS
10
1.65699
20
-0.914808
11
1.65016
21
-0.927598
0
LINE
8
BLACK
6
CONTINUOUS
10
1.65016
20
-0.927598
11
1.64475
21
-0.941051
0
LINE
8
BLACK
6
CONTINUOUS
10
1.64475
20
-0.941051
11
1.64083
21
-0.955009
0
LINE
8
BLACK
6
CONTINUOUS
10
1.64083
20
-0.955009
11
1.63843
21
-0.969309
0
LINE
8
BLACK
6
CONTINUOUS
10
1.63843
20
-0.969309
11
1.6376
21
-0.983784
0
LINE
8
BLACK
6
CONTINUOUS
10
1.6376
20
-0.983784
11
1.63833
21
-0.998265
0
LINE
8
BLACK
6
CONTINUOUS
10
1.63833
20
-0.998265
11
1.64063
21
-1.01258
0
LINE
8
BLACK
6
CONTINUOUS
10
1.70574
20
-0.97263
11
1.70818
21
-0.963015
0
LINE
8
BLACK
6
CONTINUOUS
10
1.70818
20
-0.963015
11
1.71202
21
-0.953867
0
LINE
8
BLACK
6
CONTINUOUS
10
1.71202
20
-0.953867
11
1.71717
21
-0.945386
0
LINE
8
BLACK
6
CONTINUOUS
10
1.71717
20
-0.945386
11
1.72351
21
-0.937759
0
LINE
8
BLACK
6
CONTINUOUS
10
1.72351
20
-0.937759
11
1.73091
21
-0.931154
0
LINE
8
BLACK
6
CONTINUOUS
10
1.73091
20
-0.931154
11
1.73921
21
-0.925714
0
LINE
8
BLACK
6
CONTINUOUS
10
1.73921
20
-0.925714
11
1.74821
21
-0.921561
0
LINE
8
BLACK
6
CONTINUOUS
10
1.74821
20
-0.921561
11
1.75774
21
-0.918785
0
LINE
8
BLACK
6
CONTINUOUS
10
1.75774
20
-0.918785
11
1.76757
21
-0.917448
0
LINE
8
BLACK
6
CONTINUOUS
10
1.76757
20
-0.917448
11
1.77749
21
-0.917578
0
LINE
8
BLACK
6
CONTINUOUS
10
1.77749
20
-0.917578
11
1.78728
21
-0.919172
0
LINE
8
BLACK
6
CONTINUOUS
10
1.78728
20
-0.919172
11
1.79673
21
-0.922196
0
LINE
8
BLACK
6
CONTINUOUS
10
1.79673
20
-0.922196
11
1.80562
21
-0.926584
0
LINE
8
BLACK
6
CONTINUOUS
10
1.80562
20
-0.926584
11
1.81377
21
-0.932238
0
LINE
8
BLACK
6
CONTINUOUS
10
1.81377
20
-0.932238
11
1.821
21
-0.939035
0
LINE
8
BLACK
6
CONTINUOUS
10
1.821
20
-0.939035
11
1.82714
21
-0.946826
0
LINE
8
BLACK
6
CONTINUOUS
10
1.82714
20
-0.946826
11
1.83206
21
-0.955438
0
LINE
8
BLACK
6
CONTINUOUS
10
1.83206
20
-0.955438
11
1.83566
21
-0.964684
0
LINE
8
BLACK
6
CONTINUOUS
10
1.83566
20
-0.964684
11
1.83785
21
-0.974359
0
LINE
8
BLACK
6
CONTINUOUS
10
1.83785
20
-0.974359
11
1.83858
21
-0.984252
0
LINE
8
BLACK
6
CONTINUOUS
10
1.83858
20
-0.984252
11
1.83849
21
-0.987755
0
LINE
8
BLACK
6
CONTINUOUS
10
1.83849
20
-0.987755
11
1.83724
21
-0.997595
0
LINE
8
BLACK
6
CONTINUOUS
10
1.83724
20
-0.997595
11
1.83455
21
-1.00714
0
LINE
8
BLACK
6
CONTINUOUS
10
1.83455
20
-1.00714
11
1.83047
21
-1.01619
0
LINE
8
BLACK
6
CONTINUOUS
10
1.83047
20
-1.01619
11
1.82511
21
-1.02453
0
LINE
8
BLACK
6
CONTINUOUS
10
1.82511
20
-1.02453
11
1.81856
21
-1.03199
0
LINE
8
BLACK
6
CONTINUOUS
10
1.81856
20
-1.03199
11
1.81099
21
-1.0384
0
LINE
8
BLACK
6
CONTINUOUS
10
1.81099
20
-1.0384
11
1.80256
21
-1.04362
0
LINE
8
BLACK
6
CONTINUOUS
10
1.80256
20
-1.04362
11
1.79344
21
-1.04753
0
LINE
8
BLACK
6
CONTINUOUS
10
1.79344
20
-1.04753
11
1.78385
21
-1.05006
0
LINE
8
BLACK
6
CONTINUOUS
10
1.78385
20
-1.05006
11
1.77399
21
-1.05114
0
LINE
8
BLACK
6
CONTINUOUS
10
1.77399
20
-1.05114
11
1.76408
21
-1.05075
0
LINE
8
BLACK
6
CONTINUOUS
10
1.76408
20
-1.05075
11
1.75433
21
-1.0489
0
LINE
8
BLACK
6
CONTINUOUS
10
1.75433
20
-1.0489
11
1.74497
21
-1.04563
0
LINE
8
BLACK
6
CONTINUOUS
10
1.74497
20
-1.04563
11
1.73619
21
-1.04101
0
LINE
8
BLACK
6
CONTINUOUS
10
1.73619
20
-1.04101
11
1.72819
21
-1.03515
0
LINE
8
BLACK
6
CONTINUOUS
10
1.72819
20
-1.03515
11
1.72114
21
-1.02816
0
LINE
8
BLACK
6
CONTINUOUS
10
1.72114
20
-1.02816
11
1.71521
21
-1.02021
0
LINE
8
BLACK
6
CONTINUOUS
10
1.71521
20
-1.02021
11
1.71051
21
-1.01147
0
LINE
8
BLACK
6
CONTINUOUS
10
1.71051
20
-1.01147
11
1.70716
21
-1.00214
0
LINE
8
BLACK
6
CONTINUOUS
10
1.70716
20
-1.00214
11
1.70522
21
-0.992409
0
LINE
8
BLACK
6
CONTINUOUS
10
1.70522
20
-0.992409
11
1.70476
21
-0.982804
0
LINE
8
BLACK
6
CONTINUOUS
10
1.70476
20
-0.982804
11
1.70475
21
-0.9825
0
LINE
8
BLACK
6
CONTINUOUS
10
1.70475
20
-0.9825
11
1.70574
21
-0.97263
0
LINE
8
BLACK
6
CONTINUOUS
10
1.71511
20
-1.00197
11
1.71876
21
-1.01097
0
LINE
8
BLACK
6
CONTINUOUS
10
1.71876
20
-1.01097
11
1.72384
21
-1.01925
0
LINE
8
BLACK
6
CONTINUOUS
10
1.72384
20
-1.01925
11
1.73019
21
-1.02659
0
LINE
8
BLACK
6
CONTINUOUS
10
1.73019
20
-1.02659
11
1.73766
21
-1.03279
0
LINE
8
BLACK
6
CONTINUOUS
10
1.73766
20
-1.03279
11
1.74605
21
-1.03769
0
LINE
8
BLACK
6
CONTINUOUS
10
1.74605
20
-1.03769
11
1.75512
21
-1.04116
0
LINE
8
BLACK
6
CONTINUOUS
10
1.75512
20
-1.04116
11
1.76464
21
-1.04309
0
LINE
8
BLACK
6
CONTINUOUS
10
1.76464
20
-1.04309
11
1.77434
21
-1.04345
0
LINE
8
BLACK
6
CONTINUOUS
10
1.77434
20
-1.04345
11
1.78397
21
-1.04221
0
LINE
8
BLACK
6
CONTINUOUS
10
1.78397
20
-1.04221
11
1.79328
21
-1.03942
0
LINE
8
BLACK
6
CONTINUOUS
10
1.79328
20
-1.03942
11
1.802
21
-1.03515
0
LINE
8
BLACK
6
CONTINUOUS
10
1.802
20
-1.03515
11
1.8099
21
-1.02951
0
LINE
8
BLACK
6
CONTINUOUS
10
1.8099
20
-1.02951
11
1.81678
21
-1.02266
0
LINE
8
BLACK
6
CONTINUOUS
10
1.81678
20
-1.02266
11
1.82245
21
-1.01477
0
LINE
8
BLACK
6
CONTINUOUS
10
1.82245
20
-1.01477
11
1.82675
21
-1.00607
0
LINE
8
BLACK
6
CONTINUOUS
10
1.82675
20
-1.00607
11
1.82957
21
-0.996775
0
LINE
8
BLACK
6
CONTINUOUS
10
1.82957
20
-0.996775
11
1.83084
21
-0.987147
0
LINE
8
BLACK
6
CONTINUOUS
10
1.83084
20
-0.987147
11
1.83091
21
-0.984252
0
LINE
8
BLACK
6
CONTINUOUS
10
1.83091
20
-0.984252
11
1.83012
21
-0.974574
0
LINE
8
BLACK
6
CONTINUOUS
10
1.83012
20
-0.974574
11
1.82775
21
-0.965155
0
LINE
8
BLACK
6
CONTINUOUS
10
1.82775
20
-0.965155
11
1.82388
21
-0.95625
0
LINE
8
BLACK
6
CONTINUOUS
10
1.82388
20
-0.95625
11
1.8186
21
-0.948096
0
LINE
8
BLACK
6
CONTINUOUS
10
1.8186
20
-0.948096
11
1.81207
21
-0.940914
0
LINE
8
BLACK
6
CONTINUOUS
10
1.81207
20
-0.940914
11
1.80445
21
-0.934895
0
LINE
8
BLACK
6
CONTINUOUS
10
1.80445
20
-0.934895
11
1.79594
21
-0.930202
0
LINE
8
BLACK
6
CONTINUOUS
10
1.79594
20
-0.930202
11
1.78679
21
-0.92696
0
LINE
8
BLACK
6
CONTINUOUS
10
1.78679
20
-0.92696
11
1.77723
21
-0.925257
0
LINE
8
BLACK
6
CONTINUOUS
10
1.77723
20
-0.925257
11
1.76752
21
-0.925139
0
LINE
8
BLACK
6
CONTINUOUS
10
1.76752
20
-0.925139
11
1.75792
21
-0.926608
0
LINE
8
BLACK
6
CONTINUOUS
10
1.75792
20
-0.926608
11
1.74869
21
-0.929625
0
LINE
8
BLACK
6
CONTINUOUS
10
1.74869
20
-0.929625
11
1.74008
21
-0.934109
0
LINE
8
BLACK
6
CONTINUOUS
10
1.74008
20
-0.934109
11
1.73231
21
-0.939939
0
LINE
8
BLACK
6
CONTINUOUS
10
1.73231
20
-0.939939
11
1.7256
21
-0.94696
0
LINE
8
BLACK
6
CONTINUOUS
10
1.7256
20
-0.94696
11
1.72013
21
-0.954982
0
LINE
8
BLACK
6
CONTINUOUS
10
1.72013
20
-0.954982
11
1.71604
21
-0.96379
0
LINE
8
BLACK
6
CONTINUOUS
10
1.71604
20
-0.96379
11
1.71345
21
-0.973148
0
LINE
8
BLACK
6
CONTINUOUS
10
1.71345
20
-0.973148
11
1.71241
21
-0.982804
0
LINE
8
BLACK
6
CONTINUOUS
10
1.71241
20
-0.982804
11
1.71297
21
-0.992499
0
LINE
8
BLACK
6
CONTINUOUS
10
1.71297
20
-0.992499
11
1.71511
21
-1.00197
0
LINE
8
BLACK
6
CONTINUOUS
10
1.63302
20
1.01372
11
1.63686
21
1.02805
0
LINE
8
BLACK
6
CONTINUOUS
10
1.63686
20
1.02805
11
1.64217
21
1.0419
0
LINE
8
BLACK
6
CONTINUOUS
10
1.64217
20
1.0419
11
1.64891
21
1.05512
0
LINE
8
BLACK
6
CONTINUOUS
10
1.64891
20
1.05512
11
1.65699
21
1.06756
0
LINE
8
BLACK
6
CONTINUOUS
10
1.65699
20
1.06756
11
1.66633
21
1.07909
0
LINE
8
BLACK
6
CONTINUOUS
10
1.66633
20
1.07909
11
1.67682
21
1.08958
0
LINE
8
BLACK
6
CONTINUOUS
10
1.67682
20
1.08958
11
1.68835
21
1.09892
0
LINE
8
BLACK
6
CONTINUOUS
10
1.68835
20
1.09892
11
1.70079
21
1.107
0
LINE
8
BLACK
6
CONTINUOUS
10
1.70079
20
1.107
11
1.71401
21
1.11373
0
LINE
8
BLACK
6
CONTINUOUS
10
1.71401
20
1.11373
11
1.72786
21
1.11905
0
LINE
8
BLACK
6
CONTINUOUS
10
1.72786
20
1.11905
11
1.74219
21
1.12289
0
LINE
8
BLACK
6
CONTINUOUS
10
1.74219
20
1.12289
11
1.75684
21
1.12521
0
LINE
8
BLACK
6
CONTINUOUS
10
1.75684
20
1.12521
11
1.77165
21
1.12598
0
LINE
8
BLACK
6
CONTINUOUS
10
1.77165
20
1.12598
11
1.78647
21
1.12521
0
LINE
8
BLACK
6
CONTINUOUS
10
1.78647
20
1.12521
11
1.80112
21
1.12289
0
LINE
8
BLACK
6
CONTINUOUS
10
1.80112
20
1.12289
11
1.81545
21
1.11905
0
LINE
8
BLACK
6
CONTINUOUS
10
1.81545
20
1.11905
11
1.8293
21
1.11373
0
LINE
8
BLACK
6
CONTINUOUS
10
1.8293
20
1.11373
11
1.84252
21
1.107
0
LINE
8
BLACK
6
CONTINUOUS
10
1.84252
20
1.107
11
1.85496
21
1.09892
0
LINE
8
BLACK
6
CONTINUOUS
10
1.85496
20
1.09892
11
1.86649
21
1.08958
0
LINE
8
BLACK
6
CONTINUOUS
10
1.86649
20
1.08958
11
1.87698
21
1.07909
0
LINE
8
BLACK
6
CONTINUOUS
10
1.87698
20
1.07909
11
1.88632
21
1.06756
0
LINE
8
BLACK
6
CONTINUOUS
10
1.88632
20
1.06756
11
1.8944
21
1.05512
0
LINE
8
BLACK
6
CONTINUOUS
10
1.8944
20
1.05512
11
1.90113
21
1.0419
0
LINE
8
BLACK
6
CONTINUOUS
10
1.90113
20
1.0419
11
1.90645
21
1.02805
0
LINE
8
BLACK
6
CONTINUOUS
10
1.90645
20
1.02805
11
1.91029
21
1.01372
0
LINE
8
BLACK
6
CONTINUOUS
10
1.91029
20
1.01372
11
1.91261
21
0.999067
0
LINE
8
BLACK
6
CONTINUOUS
10
1.91261
20
0.999067
11
1.91339
21
0.984252
0
LINE
8
BLACK
6
CONTINUOUS
10
1.91339
20
0.984252
11
1.91261
21
0.969437
0
LINE
8
BLACK
6
CONTINUOUS
10
1.91261
20
0.969437
11
1.91029
21
0.954784
0
LINE
8
BLACK
6
CONTINUOUS
10
1.91029
20
0.954784
11
1.90645
21
0.940454
0
LINE
8
BLACK
6
CONTINUOUS
10
1.90645
20
0.940454
11
1.90113
21
0.926604
0
LINE
8
BLACK
6
CONTINUOUS
10
1.90113
20
0.926604
11
1.8944
21
0.913386
0
LINE
8
BLACK
6
CONTINUOUS
10
1.8944
20
0.913386
11
1.88632
21
0.900944
0
LINE
8
BLACK
6
CONTINUOUS
10
1.88632
20
0.900944
11
1.87698
21
0.889415
0
LINE
8
BLACK
6
CONTINUOUS
10
1.87698
20
0.889415
11
1.86649
21
0.878924
0
LINE
8
BLACK
6
CONTINUOUS
10
1.86649
20
0.878924
11
1.85496
21
0.869588
0
LINE
8
BLACK
6
CONTINUOUS
10
1.85496
20
0.869588
11
1.84252
21
0.861508
0
LINE
8
BLACK
6
CONTINUOUS
10
1.84252
20
0.861508
11
1.8293
21
0.854773
0
LINE
8
BLACK
6
CONTINUOUS
10
1.8293
20
0.854773
11
1.81545
21
0.849457
0
LINE
8
BLACK
6
CONTINUOUS
10
1.81545
20
0.849457
11
1.80112
21
0.845617
0
LINE
8
BLACK
6
CONTINUOUS
10
1.80112
20
0.845617
11
1.78647
21
0.843296
0
LINE
8
BLACK
6
CONTINUOUS
10
1.78647
20
0.843296
11
1.77165
21
0.84252
0
LINE
8
BLACK
6
CONTINUOUS
10
1.77165
20
0.84252
11
1.75684
21
0.843296
0
LINE
8
BLACK
6
CONTINUOUS
10
1.75684
20
0.843296
11
1.74219
21
0.845617
0
LINE
8
BLACK
6
CONTINUOUS
10
1.74219
20
0.845617
11
1.72786
21
0.849457
0
LINE
8
BLACK
6
CONTINUOUS
10
1.72786
20
0.849457
11
1.71401
21
0.854773
0
LINE
8
BLACK
6
CONTINUOUS
10
1.71401
20
0.854773
11
1.70079
21
0.861508
0
LINE
8
BLACK
6
CONTINUOUS
10
1.70079
20
0.861508
11
1.68835
21
0.869588
0
LINE
8
BLACK
6
CONTINUOUS
10
1.68835
20
0.869588
11
1.67682
21
0.878924
0
LINE
8
BLACK
6
CONTINUOUS
10
1.67682
20
0.878924
11
1.66633
21
0.889415
0
LINE
8
BLACK
6
CONTINUOUS
10
1.66633
20
0.889415
11
1.65699
21
0.900944
0
LINE
8
BLACK
6
CONTINUOUS
10
1.65699
20
0.900944
11
1.64891
21
0.913386
0
LINE
8
BLACK
6
CONTINUOUS
10
1.64891
20
0.913386
11
1.64217
21
0.926604
0
LINE
8
BLACK
6
CONTINUOUS
10
1.64217
20
0.926604
11
1.63686
21
0.940454
0
LINE
8
BLACK
6
CONTINUOUS
10
1.63686
20
0.940454
11
1.63302
21
0.954784
0
LINE
8
BLACK
6
CONTINUOUS
10
1.63302
20
0.954784
11
1.6307
21
0.969437
0
LINE
8
BLACK
6
CONTINUOUS
10
1.6307
20
0.969437
11
1.62992
21
0.984252
0
LINE
8
BLACK
6
CONTINUOUS
10
1.62992
20
0.984252
11
1.62995
21
0.98472
0
LINE
8
BLACK
6
CONTINUOUS
10
1.62995
20
0.98472
11
1.6307
21
0.999067
0
LINE
8
BLACK
6
CONTINUOUS
10
1.6307
20
0.999067
11
1.63302
21
1.01372
0
LINE
8
BLACK
6
CONTINUOUS
10
1.64063
20
0.955923
11
1.64445
21
0.941938
0
LINE
8
BLACK
6
CONTINUOUS
10
1.64445
20
0.941938
11
1.64977
21
0.928447
0
LINE
8
BLACK
6
CONTINUOUS
10
1.64977
20
0.928447
11
1.65651
21
0.91561
0
LINE
8
BLACK
6
CONTINUOUS
10
1.65651
20
0.91561
11
1.66459
21
0.903576
0
LINE
8
BLACK
6
CONTINUOUS
10
1.66459
20
0.903576
11
1.67393
21
0.892485
0
LINE
8
BLACK
6
CONTINUOUS
10
1.67393
20
0.892485
11
1.68441
21
0.882468
0
LINE
8
BLACK
6
CONTINUOUS
10
1.68441
20
0.882468
11
1.69592
21
0.873641
0
LINE
8
BLACK
6
CONTINUOUS
10
1.69592
20
0.873641
11
1.70831
21
0.866109
0
LINE
8
BLACK
6
CONTINUOUS
10
1.70831
20
0.866109
11
1.72144
21
0.859958
0
LINE
8
BLACK
6
CONTINUOUS
10
1.72144
20
0.859958
11
1.73515
21
0.855262
0
LINE
8
BLACK
6
CONTINUOUS
10
1.73515
20
0.855262
11
1.7493
21
0.852074
0
LINE
8
BLACK
6
CONTINUOUS
10
1.7493
20
0.852074
11
1.7637
21
0.850433
0
LINE
8
BLACK
6
CONTINUOUS
10
1.7637
20
0.850433
11
1.7782
21
0.850357
0
LINE
8
BLACK
6
CONTINUOUS
10
1.7782
20
0.850357
11
1.79262
21
0.851848
0
LINE
8
BLACK
6
CONTINUOUS
10
1.79262
20
0.851848
11
1.8068
21
0.854887
0
LINE
8
BLACK
6
CONTINUOUS
10
1.8068
20
0.854887
11
1.82057
21
0.859439
0
LINE
8
BLACK
6
CONTINUOUS
10
1.82057
20
0.859439
11
1.83376
21
0.865452
0
LINE
8
BLACK
6
CONTINUOUS
10
1.83376
20
0.865452
11
1.84623
21
0.872854
0
LINE
8
BLACK
6
CONTINUOUS
10
1.84623
20
0.872854
11
1.85782
21
0.88156
0
LINE
8
BLACK
6
CONTINUOUS
10
1.85782
20
0.88156
11
1.86841
21
0.891467
0
LINE
8
BLACK
6
CONTINUOUS
10
1.86841
20
0.891467
11
1.87786
21
0.902459
0
LINE
8
BLACK
6
CONTINUOUS
10
1.87786
20
0.902459
11
1.88608
21
0.914408
0
LINE
8
BLACK
6
CONTINUOUS
10
1.88608
20
0.914408
11
1.89295
21
0.927174
0
LINE
8
BLACK
6
CONTINUOUS
10
1.89295
20
0.927174
11
1.8984
21
0.940608
0
LINE
8
BLACK
6
CONTINUOUS
10
1.8984
20
0.940608
11
1.90238
21
0.954552
0
LINE
8
BLACK
6
CONTINUOUS
10
1.90238
20
0.954552
11
1.90482
21
0.968844
0
LINE
8
BLACK
6
CONTINUOUS
10
1.90482
20
0.968844
11
1.90571
21
0.983316
0
LINE
8
BLACK
6
CONTINUOUS
10
1.90571
20
0.983316
11
1.90571
21
0.984252
0
LINE
8
BLACK
6
CONTINUOUS
10
1.90571
20
0.984252
11
1.90492
21
0.99873
0
LINE
8
BLACK
6
CONTINUOUS
10
1.90492
20
0.99873
11
1.90258
21
1.01304
0
LINE
8
BLACK
6
CONTINUOUS
10
1.90258
20
1.01304
11
1.89871
21
1.02701
0
LINE
8
BLACK
6
CONTINUOUS
10
1.89871
20
1.02701
11
1.89335
21
1.04048
0
LINE
8
BLACK
6
CONTINUOUS
10
1.89335
20
1.04048
11
1.88656
21
1.0533
0
LINE
8
BLACK
6
CONTINUOUS
10
1.88656
20
1.0533
11
1.87843
21
1.0653
0
LINE
8
BLACK
6
CONTINUOUS
10
1.87843
20
1.0653
11
1.86905
21
1.07636
0
LINE
8
BLACK
6
CONTINUOUS
10
1.86905
20
1.07636
11
1.85854
21
1.08634
0
LINE
8
BLACK
6
CONTINUOUS
10
1.85854
20
1.08634
11
1.847
21
1.09513
0
LINE
8
BLACK
6
CONTINUOUS
10
1.847
20
1.09513
11
1.83459
21
1.10262
0
LINE
8
BLACK
6
CONTINUOUS
10
1.83459
20
1.10262
11
1.82144
21
1.10872
0
LINE
8
BLACK
6
CONTINUOUS
10
1.82144
20
1.10872
11
1.8077
21
1.11337
0
LINE
8
BLACK
6
CONTINUOUS
10
1.8077
20
1.11337
11
1.79355
21
1.11651
0
LINE
8
BLACK
6
CONTINUOUS
10
1.79355
20
1.11651
11
1.77914
21
1.1181
0
LINE
8
BLACK
6
CONTINUOUS
10
1.77914
20
1.1181
11
1.76464
21
1.11812
0
LINE
8
BLACK
6
CONTINUOUS
10
1.76464
20
1.11812
11
1.75022
21
1.11658
0
LINE
8
BLACK
6
CONTINUOUS
10
1.75022
20
1.11658
11
1.73605
21
1.11349
0
LINE
8
BLACK
6
CONTINUOUS
10
1.73605
20
1.11349
11
1.7223
21
1.10889
0
LINE
8
BLACK
6
CONTINUOUS
10
1.7223
20
1.10889
11
1.70913
21
1.10283
0
LINE
8
BLACK
6
CONTINUOUS
10
1.70913
20
1.10283
11
1.69669
21
1.09539
0
LINE
8
BLACK
6
CONTINUOUS
10
1.69669
20
1.09539
11
1.68513
21
1.08664
0
LINE
8
BLACK
6
CONTINUOUS
10
1.68513
20
1.08664
11
1.67457
21
1.0767
0
LINE
8
BLACK
6
CONTINUOUS
10
1.67457
20
1.0767
11
1.66516
21
1.06567
0
LINE
8
BLACK
6
CONTINUOUS
10
1.66516
20
1.06567
11
1.65699
21
1.0537
0
LINE
8
BLACK
6
CONTINUOUS
10
1.65699
20
1.0537
11
1.65016
21
1.04091
0
LINE
8
BLACK
6
CONTINUOUS
10
1.65016
20
1.04091
11
1.64475
21
1.02745
0
LINE
8
BLACK
6
CONTINUOUS
10
1.64475
20
1.02745
11
1.64083
21
1.0135
0
LINE
8
BLACK
6
CONTINUOUS
10
1.64083
20
1.0135
11
1.63843
21
0.999195
0
LINE
8
BLACK
6
CONTINUOUS
10
1.63843
20
0.999195
11
1.6376
21
0.98472
0
LINE
8
BLACK
6
CONTINUOUS
10
1.6376
20
0.98472
11
1.63833
21
0.970239
0
LINE
8
BLACK
6
CONTINUOUS
10
1.63833
20
0.970239
11
1.64063
21
0.955923
0
LINE
8
BLACK
6
CONTINUOUS
10
1.70574
20
0.995874
11
1.70818
21
1.00549
0
LINE
8
BLACK
6
CONTINUOUS
10
1.70818
20
1.00549
11
1.71202
21
1.01464
0
LINE
8
BLACK
6
CONTINUOUS
10
1.71202
20
1.01464
11
1.71717
21
1.02312
0
LINE
8
BLACK
6
CONTINUOUS
10
1.71717
20
1.02312
11
1.72351
21
1.03074
0
LINE
8
BLACK
6
CONTINUOUS
10
1.72351
20
1.03074
11
1.73091
21
1.03735
0
LINE
8
BLACK
6
CONTINUOUS
10
1.73091
20
1.03735
11
1.73921
21
1.04279
0
LINE
8
BLACK
6
CONTINUOUS
10
1.73921
20
1.04279
11
1.74821
21
1.04694
0
LINE
8
BLACK
6
CONTINUOUS
10
1.74821
20
1.04694
11
1.75774
21
1.04972
0
LINE
8
BLACK
6
CONTINUOUS
10
1.75774
20
1.04972
11
1.76757
21
1.05106
0
LINE
8
BLACK
6
CONTINUOUS
10
1.76757
20
1.05106
11
1.77749
21
1.05093
0
LINE
8
BLACK
6
CONTINUOUS
10
1.77749
20
1.05093
11
1.78728
21
1.04933
0
LINE
8
BLACK
6
CONTINUOUS
10
1.78728
20
1.04933
11
1.79673
21
1.04631
0
LINE
8
BLACK
6
CONTINUOUS
10
1.79673
20
1.04631
11
1.80562
21
1.04192
0
LINE
8
BLACK
6
CONTINUOUS
10
1.80562
20
1.04192
11
1.81377
21
1.03627
0
LINE
8
BLACK
6
CONTINUOUS
10
1.81377
20
1.03627
11
1.821
21
1.02947
0
LINE
8
BLACK
6
CONTINUOUS
10
1.821
20
1.02947
11
1.82714
21
1.02168
0
LINE
8
BLACK
6
CONTINUOUS
10
1.82714
20
1.02168
11
1.83206
21
1.01307
0
LINE
8
BLACK
6
CONTINUOUS
10
1.83206
20
1.01307
11
1.83566
21
1.00382
0
LINE
8
BLACK
6
CONTINUOUS
10
1.83566
20
1.00382
11
1.83785
21
0.994145
0
LINE
8
BLACK
6
CONTINUOUS
10
1.83785
20
0.994145
11
1.83858
21
0.984252
0
LINE
8
BLACK
6
CONTINUOUS
10
1.83858
20
0.984252
11
1.83849
21
0.980749
0
LINE
8
BLACK
6
CONTINUOUS
10
1.83849
20
0.980749
11
1.83724
21
0.970908
0
LINE
8
BLACK
6
CONTINUOUS
10
1.83724
20
0.970908
11
1.83455
21
0.961361
0
LINE
8
BLACK
6
CONTINUOUS
10
1.83455
20
0.961361
11
1.83047
21
0.952316
0
LINE
8
BLACK
6
CONTINUOUS
10
1.83047
20
0.952316
11
1.82511
21
0.943973
0
LINE
8
BLACK
6
CONTINUOUS
10
1.82511
20
0.943973
11
1.81856
21
0.936515
0
LINE
8
BLACK
6
CONTINUOUS
10
1.81856
20
0.936515
11
1.81099
21
0.930105
0
LINE
8
BLACK
6
CONTINUOUS
10
1.81099
20
0.930105
11
1.80256
21
0.924885
0
LINE
8
BLACK
6
CONTINUOUS
10
1.80256
20
0.924885
11
1.79344
21
0.920969
0
LINE
8
BLACK
6
CONTINUOUS
10
1.79344
20
0.920969
11
1.78385
21
0.918444
0
LINE
8
BLACK
6
CONTINUOUS
10
1.78385
20
0.918444
11
1.77399
21
0.917364
0
LINE
8
BLACK
6
CONTINUOUS
10
1.77399
20
0.917364
11
1.76408
21
0.917753
0
LINE
8
BLACK
6
CONTINUOUS
10
1.76408
20
0.917753
11
1.75433
21
0.919603
0
LINE
8
BLACK
6
CONTINUOUS
10
1.75433
20
0.919603
11
1.74497
21
0.922874
0
LINE
8
BLACK
6
CONTINUOUS
10
1.74497
20
0.922874
11
1.73619
21
0.927493
0
LINE
8
BLACK
6
CONTINUOUS
10
1.73619
20
0.927493
11
1.72819
21
0.933359
0
LINE
8
BLACK
6
CONTINUOUS
10
1.72819
20
0.933359
11
1.72114
21
0.940343
0
LINE
8
BLACK
6
CONTINUOUS
10
1.72114
20
0.940343
11
1.71521
21
0.948291
0
LINE
8
BLACK
6
CONTINUOUS
10
1.71521
20
0.948291
11
1.71051
21
0.957029
0
LINE
8
BLACK
6
CONTINUOUS
10
1.71051
20
0.957029
11
1.70716
21
0.966366
0
LINE
8
BLACK
6
CONTINUOUS
10
1.70716
20
0.966366
11
1.70522
21
0.976095
0
LINE
8
BLACK
6
CONTINUOUS
10
1.70522
20
0.976095
11
1.70476
21
0.9857
0
LINE
8
BLACK
6
CONTINUOUS
10
1.70476
20
0.9857
11
1.70475
21
0.986004
0
LINE
8
BLACK
6
CONTINUOUS
10
1.70475
20
0.986004
11
1.70574
21
0.995874
0
LINE
8
BLACK
6
CONTINUOUS
10
1.71511
20
0.966532
11
1.71876
21
0.957534
0
LINE
8
BLACK
6
CONTINUOUS
10
1.71876
20
0.957534
11
1.72384
21
0.949254
0
LINE
8
BLACK
6
CONTINUOUS
10
1.72384
20
0.949254
11
1.73019
21
0.941914
0
LINE
8
BLACK
6
CONTINUOUS
10
1.73019
20
0.941914
11
1.73766
21
0.935711
0
LINE
8
BLACK
6
CONTINUOUS
10
1.73766
20
0.935711
11
1.74605
21
0.930812
0
LINE
8
BLACK
6
CONTINUOUS
10
1.74605
20
0.930812
11
1.75512
21
0.927347
0
LINE
8
BLACK
6
CONTINUOUS
10
1.75512
20
0.927347
11
1.76464
21
0.925411
0
LINE
8
BLACK
6
CONTINUOUS
10
1.76464
20
0.925411
11
1.77434
21
0.925055
0
LINE
8
BLACK
6
CONTINUOUS
10
1.77434
20
0.925055
11
1.78397
21
0.926289
0
LINE
8
BLACK
6
CONTINUOUS
10
1.78397
20
0.926289
11
1.79328
21
0.92908
0
LINE
8
BLACK
6
CONTINUOUS
10
1.79328
20
0.92908
11
1.802
21
0.933352
0
LINE
8
BLACK
6
CONTINUOUS
10
1.802
20
0.933352
11
1.8099
21
0.938991
0
LINE
8
BLACK
6
CONTINUOUS
10
1.8099
20
0.938991
11
1.81678
21
0.945846
0
LINE
8
BLACK
6
CONTINUOUS
10
1.81678
20
0.945846
11
1.82245
21
0.953732
0
LINE
8
BLACK
6
CONTINUOUS
10
1.82245
20
0.953732
11
1.82675
21
0.962438
0
LINE
8
BLACK
6
CONTINUOUS
10
1.82675
20
0.962438
11
1.82957
21
0.971729
0
LINE
8
BLACK
6
CONTINUOUS
10
1.82957
20
0.971729
11
1.83084
21
0.981357
0
LINE
8
BLACK
6
CONTINUOUS
10
1.83084
20
0.981357
11
1.83091
21
0.984252
0
LINE
8
BLACK
6
CONTINUOUS
10
1.83091
20
0.984252
11
1.83012
21
0.99393
0
LINE
8
BLACK
6
CONTINUOUS
10
1.83012
20
0.99393
11
1.82775
21
1.00335
0
LINE
8
BLACK
6
CONTINUOUS
10
1.82775
20
1.00335
11
1.82388
21
1.01225
0
LINE
8
BLACK
6
CONTINUOUS
10
1.82388
20
1.01225
11
1.8186
21
1.02041
0
LINE
8
BLACK
6
CONTINUOUS
10
1.8186
20
1.02041
11
1.81207
21
1.02759
0
LINE
8
BLACK
6
CONTINUOUS
10
1.81207
20
1.02759
11
1.80445
21
1.03361
0
LINE
8
BLACK
6
CONTINUOUS
10
1.80445
20
1.03361
11
1.79594
21
1.0383
0
LINE
8
BLACK
6
CONTINUOUS
10
1.79594
20
1.0383
11
1.78679
21
1.04154
0
LINE
8
BLACK
6
CONTINUOUS
10
1.78679
20
1.04154
11
1.77723
21
1.04325
0
LINE
8
BLACK
6
CONTINUOUS
10
1.77723
20
1.04325
11
1.76752
21
1.04337
0
LINE
8
BLACK
6
CONTINUOUS
10
1.76752
20
1.04337
11
1.75792
21
1.0419
0
LINE
8
BLACK
6
CONTINUOUS
10
1.75792
20
1.0419
11
1.74869
21
1.03888
0
LINE
8
BLACK
6
CONTINUOUS
10
1.74869
20
1.03888
11
1.74008
21
1.0344
0
LINE
8
BLACK
6
CONTINUOUS
10
1.74008
20
1.0344
11
1.73231
21
1.02856
0
LINE
8
BLACK
6
CONTINUOUS
10
1.73231
20
1.02856
11
1.7256
21
1.02154
0
LINE
8
BLACK
6
CONTINUOUS
10
1.7256
20
1.02154
11
1.72013
21
1.01352
0
LINE
8
BLACK
6
CONTINUOUS
10
1.72013
20
1.01352
11
1.71604
21
1.00471
0
LINE
8
BLACK
6
CONTINUOUS
10
1.71604
20
1.00471
11
1.71345
21
0.995356
0
LINE
8
BLACK
6
CONTINUOUS
10
1.71345
20
0.995356
11
1.71241
21
0.9857
0
LINE
8
BLACK
6
CONTINUOUS
10
1.71241
20
0.9857
11
1.71297
21
0.976005
0
LINE
8
BLACK
6
CONTINUOUS
10
1.71297
20
0.976005
11
1.71511
21
0.966532
0
LINE
8
BLACK
6
CONTINUOUS
10
-1.91029
20
1.01372
11
-1.90645
21
1.02805
0
LINE
8
BLACK
6
CONTINUOUS
10
-1.90645
20
1.02805
11
-1.90113
21
1.0419
0
LINE
8
BLACK
6
CONTINUOUS
10
-1.90113
20
1.0419
11
-1.8944
21
1.05512
0
LINE
8
BLACK
6
CONTINUOUS
10
-1.8944
20
1.05512
11
-1.88632
21
1.06756
0
LINE
8
BLACK
6
CONTINUOUS
10
-1.88632
20
1.06756
11
-1.87698
21
1.07909
0
LINE
8
BLACK
6
CONTINUOUS
10
-1.87698
20
1.07909
11
-1.86649
21
1.08958
0
LINE
8
BLACK
6
CONTINUOUS
10
-1.86649
20
1.08958
11
-1.85496
21
1.09892
0
LINE
8
BLACK
6
CONTINUOUS
10
-1.85496
20
1.09892
11
-1.84252
21
1.107
0
LINE
8
BLACK
6
CONTINUOUS
10
-1.84252
20
1.107
11
-1.8293
21
1.11373
0
LINE
8
BLACK
6
CONTINUOUS
10
-1.8293
20
1.11373
11
-1.81545
21
1.11905
0
LINE
8
BLACK
6
CONTINUOUS
10
-1.81545
20
1.11905
11
-1.80112
21
1.12289
0
LINE
8
BLACK
6
CONTINUOUS
10
-1.80112
20
1.12289
11
-1.78647
21
1.12521
0
LINE
8
BLACK
6
CONTINUOUS
10
-1.78647
20
1.12521
11
-1.77165
21
1.12598
0
LINE
8
BLACK
6
CONTINUOUS
10
-1.77165
20
1.12598
11
-1.75684
21
1.12521
0
LINE
8
BLACK
6
CONTINUOUS
10
-1.75684
20
1.12521
11
-1.74219
21
1.12289
0
LINE
8
BLACK
6
CONTINUOUS
10
-1.74219
20
1.12289
11
-1.72786
21
1.11905
0
LINE
8
BLACK
6
CONTINUOUS
10
-1.72786
20
1.11905
11
-1.71401
21
1.11373
0
LINE
8
BLACK
6
CONTINUOUS
10
-1.71401
20
1.11373
11
-1.70079
21
1.107
0
LINE
8
BLACK
6
CONTINUOUS
10
-1.70079
20
1.107
11
-1.68835
21
1.09892
0
LINE
8
BLACK
6
CONTINUOUS
10
-1.68835
20
1.09892
11
-1.67682
21
1.08958
0
LINE
8
BLACK
6
CONTINUOUS
10
-1.67682
20
1.08958
11
-1.66633
21
1.07909
0
LINE
8
BLACK
6
CONTINUOUS
10
-1.66633
20
1.07909
11
-1.65699
21
1.06756
0
LINE
8
BLACK
6
CONTINUOUS
10
-1.65699
20
1.06756
11
-1.64891
21
1.05512
0
LINE
8
BLACK
6
CONTINUOUS
10
-1.64891
20
1.05512
11
-1.64217
21
1.0419
0
LINE
8
BLACK
6
CONTINUOUS
10
-1.64217
20
1.0419
11
-1.63686
21
1.02805
0
LINE
8
BLACK
6
CONTINUOUS
10
-1.63686
20
1.02805
11
-1.63302
21
1.01372
0
LINE
8
BLACK
6
CONTINUOUS
10
-1.63302
20
1.01372
11
-1.6307
21
0.999067
0
LINE
8
BLACK
6
CONTINUOUS
10
-1.6307
20
0.999067
11
-1.62992
21
0.984252
0
LINE
8
BLACK
6
CONTINUOUS
10
-1.62992
20
0.984252
11
-1.6307
21
0.969437
0
LINE
8
BLACK
6
CONTINUOUS
10
-1.6307
20
0.969437
11
-1.63302
21
0.954784
0
LINE
8
BLACK
6
CONTINUOUS
10
-1.63302
20
0.954784
11
-1.63686
21
0.940454
0
LINE
8
BLACK
6
CONTINUOUS
10
-1.63686
20
0.940454
11
-1.64217
21
0.926604
0
LINE
8
BLACK
6
CONTINUOUS
10
-1.64217
20
0.926604
11
-1.64891
21
0.913386
0
LINE
8
BLACK
6
CONTINUOUS
10
-1.64891
20
0.913386
11
-1.65699
21
0.900944
0
LINE
8
BLACK
6
CONTINUOUS
10
-1.65699
20
0.900944
11
-1.66633
21
0.889415
0
LINE
8
BLACK
6
CONTINUOUS
10
-1.66633
20
0.889415
11
-1.67682
21
0.878924
0
LINE
8
BLACK
6
CONTINUOUS
10
-1.67682
20
0.878924
11
-1.68835
21
0.869588
0
LINE
8
BLACK
6
CONTINUOUS
10
-1.68835
20
0.869588
11
-1.70079
21
0.861508
0
LINE
8
BLACK
6
CONTINUOUS
10
-1.70079
20
0.861508
11
-1.71401
21
0.854773
0
LINE
8
BLACK
6
CONTINUOUS
10
-1.71401
20
0.854773
11
-1.72786
21
0.849457
0
LINE
8
BLACK
6
CONTINUOUS
10
-1.72786
20
0.849457
11
-1.74219
21
0.845617
0
LINE
8
BLACK
6
CONTINUOUS
10
-1.74219
20
0.845617
11
-1.75684
21
0.843296
0
LINE
8
BLACK
6
CONTINUOUS
10
-1.75684
20
0.843296
11
-1.77165
21
0.84252
0
LINE
8
BLACK
6
CONTINUOUS
10
-1.77165
20
0.84252
11
-1.78647
21
0.843296
0
LINE
8
BLACK
6
CONTINUOUS
10
-1.78647
20
0.843296
11
-1.80112
21
0.845617
0
LINE
8
BLACK
6
CONTINUOUS
10
-1.80112
20
0.845617
11
-1.81545
21
0.849457
0
LINE
8
BLACK
6
CONTINUOUS
10
-1.81545
20
0.849457
11
-1.8293
21
0.854773
0
LINE
8
BLACK
6
CONTINUOUS
10
-1.8293
20
0.854773
11
-1.84252
21
0.861508
0
LINE
8
BLACK
6
CONTINUOUS
10
-1.84252
20
0.861508
11
-1.85496
21
0.869588
0
LINE
8
BLACK
6
CONTINUOUS
10
-1.85496
20
0.869588
11
-1.86649
21
0.878924
0
LINE
8
BLACK
6
CONTINUOUS
10
-1.86649
20
0.878924
11
-1.87698
21
0.889415
0
LINE
8
BLACK
6
CONTINUOUS
10
-1.87698
20
0.889415
11
-1.88632
21
0.900944
0
LINE
8
BLACK
6
CONTINUOUS
10
-1.88632
20
0.900944
11
-1.8944
21
0.913386
0
LINE
8
BLACK
6
CONTINUOUS
10
-1.8944
20
0.913386
11
-1.90113
21
0.926604
0
LINE
8
BLACK
6
CONTINUOUS
10
-1.90113
20
0.926604
11
-1.90645
21
0.940454
0
LINE
8
BLACK
6
CONTINUOUS
10
-1.90645
20
0.940454
11
-1.91029
21
0.954784
0
LINE
8
BLACK
6
CONTINUOUS
10
-1.91029
20
0.954784
11
-1.91261
21
0.969437
0
LINE
8
BLACK
6
CONTINUOUS
10
-1.91261
20
0.969437
11
-1.91339
21
0.984252
0
LINE
8
BLACK
6
CONTINUOUS
10
-1.91339
20
0.984252
11
-1.91336
21
0.98472
0
LINE
8
BLACK
6
CONTINUOUS
10
-1.91336
20
0.98472
11
-1.91261
21
0.999067
0
LINE
8
BLACK
6
CONTINUOUS
10
-1.91261
20
0.999067
11
-1.91029
21
1.01372
0
LINE
8
BLACK
6
CONTINUOUS
10
-1.90268
20
0.955923
11
-1.89885
21
0.941938
0
LINE
8
BLACK
6
CONTINUOUS
10
-1.89885
20
0.941938
11
-1.89354
21
0.928447
0
LINE
8
BLACK
6
CONTINUOUS
10
-1.89354
20
0.928447
11
-1.8868
21
0.91561
0
LINE
8
BLACK
6
CONTINUOUS
10
-1.8868
20
0.91561
11
-1.87871
21
0.903576
0
LINE
8
BLACK
6
CONTINUOUS
10
-1.87871
20
0.903576
11
-1.86938
21
0.892485
0
LINE
8
BLACK
6
CONTINUOUS
10
-1.86938
20
0.892485
11
-1.85889
21
0.882468
0
LINE
8
BLACK
6
CONTINUOUS
10
-1.85889
20
0.882468
11
-1.84739
21
0.873641
0
LINE
8
BLACK
6
CONTINUOUS
10
-1.84739
20
0.873641
11
-1.835
21
0.866109
0
LINE
8
BLACK
6
CONTINUOUS
10
-1.835
20
0.866109
11
-1.82187
21
0.859958
0
LINE
8
BLACK
6
CONTINUOUS
10
-1.82187
20
0.859958
11
-1.80815
21
0.855262
0
LINE
8
BLACK
6
CONTINUOUS
10
-1.80815
20
0.855262
11
-1.79401
21
0.852074
0
LINE
8
BLACK
6
CONTINUOUS
10
-1.79401
20
0.852074
11
-1.7796
21
0.850433
0
LINE
8
BLACK
6
CONTINUOUS
10
-1.7796
20
0.850433
11
-1.7651
21
0.850357
0
LINE
8
BLACK
6
CONTINUOUS
10
-1.7651
20
0.850357
11
-1.75068
21
0.851848
0
LINE
8
BLACK
6
CONTINUOUS
10
-1.75068
20
0.851848
11
-1.73651
21
0.854887
0
LINE
8
BLACK
6
CONTINUOUS
10
-1.73651
20
0.854887
11
-1.72274
21
0.859439
0
LINE
8
BLACK
6
CONTINUOUS
10
-1.72274
20
0.859439
11
-1.70955
21
0.865452
0
LINE
8
BLACK
6
CONTINUOUS
10
-1.70955
20
0.865452
11
-1.69708
21
0.872854
0
LINE
8
BLACK
6
CONTINUOUS
10
-1.69708
20
0.872854
11
-1.68548
21
0.88156
0
LINE
8
BLACK
6
CONTINUOUS
10
-1.68548
20
0.88156
11
-1.6749
21
0.891467
0
LINE
8
BLACK
6
CONTINUOUS
10
-1.6749
20
0.891467
11
-1.66544
21
0.902459
0
LINE
8
BLACK
6
CONTINUOUS
10
-1.66544
20
0.902459
11
-1.65723
21
0.914408
0
LINE
8
BLACK
6
CONTINUOUS
10
-1.65723
20
0.914408
11
-1.65036
21
0.927174
0
LINE
8
BLACK
6
CONTINUOUS
10
-1.65036
20
0.927174
11
-1.6449
21
0.940608
0
LINE
8
BLACK
6
CONTINUOUS
10
-1.6449
20
0.940608
11
-1.64093
21
0.954552
0
LINE
8
BLACK
6
CONTINUOUS
10
-1.64093
20
0.954552
11
-1.63849
21
0.968844
0
LINE
8
BLACK
6
CONTINUOUS
10
-1.63849
20
0.968844
11
-1.6376
21
0.983316
0
LINE
8
BLACK
6
CONTINUOUS
10
-1.6376
20
0.983316
11
-1.6376
21
0.984252
0
LINE
8
BLACK
6
CONTINUOUS
10
-1.6376
20
0.984252
11
-1.63838
21
0.99873
0
LINE
8
BLACK
6
CONTINUOUS
10
-1.63838
20
0.99873
11
-1.64073
21
1.01304
0
LINE
8
BLACK
6
CONTINUOUS
10
-1.64073
20
1.01304
11
-1.6446
21
1.02701
0
LINE
8
BLACK
6
CONTINUOUS
10
-1.6446
20
1.02701
11
-1.64996
21
1.04048
0
LINE
8
BLACK
6
CONTINUOUS
10
-1.64996
20
1.04048
11
-1.65675
21
1.0533
0
LINE
8
BLACK
6
CONTINUOUS
10
-1.65675
20
1.0533
11
-1.66487
21
1.0653
0
LINE
8
BLACK
6
CONTINUOUS
10
-1.66487
20
1.0653
11
-1.67425
21
1.07636
0
LINE
8
BLACK
6
CONTINUOUS
10
-1.67425
20
1.07636
11
-1.68477
21
1.08634
0
LINE
8
BLACK
6
CONTINUOUS
10
-1.68477
20
1.08634
11
-1.6963
21
1.09513
0
LINE
8
BLACK
6
CONTINUOUS
10
-1.6963
20
1.09513
11
-1.70872
21
1.10262
0
LINE
8
BLACK
6
CONTINUOUS
10
-1.70872
20
1.10262
11
-1.72187
21
1.10872
0
LINE
8
BLACK
6
CONTINUOUS
10
-1.72187
20
1.10872
11
-1.7356
21
1.11337
0
LINE
8
BLACK
6
CONTINUOUS
10
-1.7356
20
1.11337
11
-1.74976
21
1.11651
0
LINE
8
BLACK
6
CONTINUOUS
10
-1.74976
20
1.11651
11
-1.76417
21
1.1181
0
LINE
8
BLACK
6
CONTINUOUS
10
-1.76417
20
1.1181
11
-1.77867
21
1.11812
0
LINE
8
BLACK
6
CONTINUOUS
10
-1.77867
20
1.11812
11
-1.79309
21
1.11658
0
LINE
8
BLACK
6
CONTINUOUS
10
-1.79309
20
1.11658
11
-1.80725
21
1.11349
0
LINE
8
BLACK
6
CONTINUOUS
10
-1.80725
20
1.11349
11
-1.821
21
1.10889
0
LINE
8
BLACK
6
CONTINUOUS
10
-1.821
20
1.10889
11
-1.83417
21
1.10283
0
LINE
8
BLACK
6
CONTINUOUS
10
-1.83417
20
1.10283
11
-1.84662
21
1.09539
0
LINE
8
BLACK
6
CONTINUOUS
10
-1.84662
20
1.09539
11
-1.85818
21
1.08664
0
LINE
8
BLACK
6
CONTINUOUS
10
-1.85818
20
1.08664
11
-1.86873
21
1.0767
0
LINE
8
BLACK
6
CONTINUOUS
10
-1.86873
20
1.0767
11
-1.87815
21
1.06567
0
LINE
8
BLACK
6
CONTINUOUS
10
-1.87815
20
1.06567
11
-1.88632
21
1.0537
0
LINE
8
BLACK
6
CONTINUOUS
10
-1.88632
20
1.0537
11
-1.89315
21
1.04091
0
LINE
8
BLACK
6
CONTINUOUS
10
-1.89315
20
1.04091
11
-1.89856
21
1.02745
0
LINE
8
BLACK
6
CONTINUOUS
10
-1.89856
20
1.02745
11
-1.90248
21
1.0135
0
LINE
8
BLACK
6
CONTINUOUS
10
-1.90248
20
1.0135
11
-1.90487
21
0.999195
0
LINE
8
BLACK
6
CONTINUOUS
10
-1.90487
20
0.999195
11
-1.90571
21
0.98472
0
LINE
8
BLACK
6
CONTINUOUS
10
-1.90571
20
0.98472
11
-1.90497
21
0.970239
0
LINE
8
BLACK
6
CONTINUOUS
10
-1.90497
20
0.970239
11
-1.90268
21
0.955923
0
LINE
8
BLACK
6
CONTINUOUS
10
-1.83757
20
0.995874
11
-1.83512
21
1.00549
0
LINE
8
BLACK
6
CONTINUOUS
10
-1.83512
20
1.00549
11
-1.83129
21
1.01464
0
LINE
8
BLACK
6
CONTINUOUS
10
-1.83129
20
1.01464
11
-1.82614
21
1.02312
0
LINE
8
BLACK
6
CONTINUOUS
10
-1.82614
20
1.02312
11
-1.8198
21
1.03074
0
LINE
8
BLACK
6
CONTINUOUS
10
-1.8198
20
1.03074
11
-1.8124
21
1.03735
0
LINE
8
BLACK
6
CONTINUOUS
10
-1.8124
20
1.03735
11
-1.8041
21
1.04279
0
LINE
8
BLACK
6
CONTINUOUS
10
-1.8041
20
1.04279
11
-1.79509
21
1.04694
0
LINE
8
BLACK
6
CONTINUOUS
10
-1.79509
20
1.04694
11
-1.78557
21
1.04972
0
LINE
8
BLACK
6
CONTINUOUS
10
-1.78557
20
1.04972
11
-1.77574
21
1.05106
0
LINE
8
BLACK
6
CONTINUOUS
10
-1.77574
20
1.05106
11
-1.76582
21
1.05093
0
LINE
8
BLACK
6
CONTINUOUS
10
-1.76582
20
1.05093
11
-1.75603
21
1.04933
0
LINE
8
BLACK
6
CONTINUOUS
10
-1.75603
20
1.04933
11
-1.74658
21
1.04631
0
LINE
8
BLACK
6
CONTINUOUS
10
-1.74658
20
1.04631
11
-1.73768
21
1.04192
0
LINE
8
BLACK
6
CONTINUOUS
10
-1.73768
20
1.04192
11
-1.72953
21
1.03627
0
LINE
8
BLACK
6
CONTINUOUS
10
-1.72953
20
1.03627
11
-1.72231
21
1.02947
0
LINE
8
BLACK
6
CONTINUOUS
10
-1.72231
20
1.02947
11
-1.71617
21
1.02168
0
LINE
8
BLACK
6
CONTINUOUS
10
-1.71617
20
1.02168
11
-1.71124
21
1.01307
0
LINE
8
BLACK
6
CONTINUOUS
10
-1.71124
20
1.01307
11
-1.70765
21
1.00382
0
LINE
8
BLACK
6
CONTINUOUS
10
-1.70765
20
1.00382
11
-1.70546
21
0.994145
0
LINE
8
BLACK
6
CONTINUOUS
10
-1.70546
20
0.994145
11
-1.70472
21
0.984252
0
LINE
8
BLACK
6
CONTINUOUS
10
-1.70472
20
0.984252
11
-1.70482
21
0.980749
0
LINE
8
BLACK
6
CONTINUOUS
10
-1.70482
20
0.980749
11
-1.70607
21
0.970908
0
LINE
8
BLACK
6
CONTINUOUS
10
-1.70607
20
0.970908
11
-1.70876
21
0.961361
0
LINE
8
BLACK
6
CONTINUOUS
10
-1.70876
20
0.961361
11
-1.71284
21
0.952316
0
LINE
8
BLACK
6
CONTINUOUS
10
-1.71284
20
0.952316
11
-1.7182
21
0.943973
0
LINE
8
BLACK
6
CONTINUOUS
10
-1.7182
20
0.943973
11
-1.72474
21
0.936515
0
LINE
8
BLACK
6
CONTINUOUS
10
-1.72474
20
0.936515
11
-1.73231
21
0.930105
0
LINE
8
BLACK
6
CONTINUOUS
10
-1.73231
20
0.930105
11
-1.74075
21
0.924885
0
LINE
8
BLACK
6
CONTINUOUS
10
-1.74075
20
0.924885
11
-1.74986
21
0.920969
0
LINE
8
BLACK
6
CONTINUOUS
10
-1.74986
20
0.920969
11
-1.75946
21
0.918444
0
LINE
8
BLACK
6
CONTINUOUS
10
-1.75946
20
0.918444
11
-1.76932
21
0.917364
0
LINE
8
BLACK
6
CONTINUOUS
10
-1.76932
20
0.917364
11
-1.77923
21
0.917753
0
LINE
8
BLACK
6
CONTINUOUS
10
-1.77923
20
0.917753
11
-1.78898
21
0.919603
0
LINE
8
BLACK
6
CONTINUOUS
10
-1.78898
20
0.919603
11
-1.79834
21
0.922874
0
LINE
8
BLACK
6
CONTINUOUS
10
-1.79834
20
0.922874
11
-1.80712
21
0.927493
0
LINE
8
BLACK
6
CONTINUOUS
10
-1.80712
20
0.927493
11
-1.81512
21
0.933359
0
LINE
8
BLACK
6
CONTINUOUS
10
-1.81512
20
0.933359
11
-1.82217
21
0.940343
0
LINE
8
BLACK
6
CONTINUOUS
10
-1.82217
20
0.940343
11
-1.8281
21
0.948291
0
LINE
8
BLACK
6
CONTINUOUS
10
-1.8281
20
0.948291
11
-1.8328
21
0.957029
0
LINE
8
BLACK
6
CONTINUOUS
10
-1.8328
20
0.957029
11
-1.83615
21
0.966366
0
LINE
8
BLACK
6
CONTINUOUS
10
-1.83615
20
0.966366
11
-1.83808
21
0.976095
0
LINE
8
BLACK
6
CONTINUOUS
10
-1.83808
20
0.976095
11
-1.83855
21
0.9857
0
LINE
8
BLACK
6
CONTINUOUS
10
-1.83855
20
0.9857
11
-1.83856
21
0.986004
0
LINE
8
BLACK
6
CONTINUOUS
10
-1.83856
20
0.986004
11
-1.83757
21
0.995874
0
LINE
8
BLACK
6
CONTINUOUS
10
-1.8282
20
0.966532
11
-1.82455
21
0.957534
0
LINE
8
BLACK
6
CONTINUOUS
10
-1.82455
20
0.957534
11
-1.81947
21
0.949254
0
LINE
8
BLACK
6
CONTINUOUS
10
-1.81947
20
0.949254
11
-1.81311
21
0.941914
0
LINE
8
BLACK
6
CONTINUOUS
10
-1.81311
20
0.941914
11
-1.80564
21
0.935711
0
LINE
8
BLACK
6
CONTINUOUS
10
-1.80564
20
0.935711
11
-1.79726
21
0.930812
0
LINE
8
BLACK
6
CONTINUOUS
10
-1.79726
20
0.930812
11
-1.78819
21
0.927347
0
LINE
8
BLACK
6
CONTINUOUS
10
-1.78819
20
0.927347
11
-1.77867
21
0.925411
0
LINE
8
BLACK
6
CONTINUOUS
10
-1.77867
20
0.925411
11
-1.76897
21
0.925055
0
LINE
8
BLACK
6
CONTINUOUS
10
-1.76897
20
0.925055
11
-1.75933
21
0.926289
0
LINE
8
BLACK
6
CONTINUOUS
10
-1.75933
20
0.926289
11
-1.75003
21
0.92908
0
LINE
8
BLACK
6
CONTINUOUS
10
-1.75003
20
0.92908
11
-1.74131
21
0.933352
0
LINE
8
BLACK
6
CONTINUOUS
10
-1.74131
20
0.933352
11
-1.73341
21
0.938991
0
LINE
8
BLACK
6
CONTINUOUS
10
-1.73341
20
0.938991
11
-1.72653
21
0.945846
0
LINE
8
BLACK
6
CONTINUOUS
10
-1.72653
20
0.945846
11
-1.72086
21
0.953732
0
LINE
8
BLACK
6
CONTINUOUS
10
-1.72086
20
0.953732
11
-1.71656
21
0.962438
0
LINE
8
BLACK
6
CONTINUOUS
10
-1.71656
20
0.962438
11
-1.71373
21
0.971729
0
LINE
8
BLACK
6
CONTINUOUS
10
-1.71373
20
0.971729
11
-1.71247
21
0.981357
0
LINE
8
BLACK
6
CONTINUOUS
10
-1.71247
20
0.981357
11
-1.7124
21
0.984252
0
LINE
8
BLACK
6
CONTINUOUS
10
-1.7124
20
0.984252
11
-1.71319
21
0.99393
0
LINE
8
BLACK
6
CONTINUOUS
10
-1.71319
20
0.99393
11
-1.71556
21
1.00335
0
LINE
8
BLACK
6
CONTINUOUS
10
-1.71556
20
1.00335
11
-1.71943
21
1.01225
0
LINE
8
BLACK
6
CONTINUOUS
10
-1.71943
20
1.01225
11
-1.7247
21
1.02041
0
LINE
8
BLACK
6
CONTINUOUS
10
-1.7247
20
1.02041
11
-1.73124
21
1.02759
0
LINE
8
BLACK
6
CONTINUOUS
10
-1.73124
20
1.02759
11
-1.73886
21
1.03361
0
LINE
8
BLACK
6
CONTINUOUS
10
-1.73886
20
1.03361
11
-1.74736
21
1.0383
0
LINE
8
BLACK
6
CONTINUOUS
10
-1.74736
20
1.0383
11
-1.75652
21
1.04154
0
LINE
8
BLACK
6
CONTINUOUS
10
-1.75652
20
1.04154
11
-1.76608
21
1.04325
0
LINE
8
BLACK
6
CONTINUOUS
10
-1.76608
20
1.04325
11
-1.77579
21
1.04337
0
LINE
8
BLACK
6
CONTINUOUS
10
-1.77579
20
1.04337
11
-1.78539
21
1.0419
0
LINE
8
BLACK
6
CONTINUOUS
10
-1.78539
20
1.0419
11
-1.79462
21
1.03888
0
LINE
8
BLACK
6
CONTINUOUS
10
-1.79462
20
1.03888
11
-1.80323
21
1.0344
0
LINE
8
BLACK
6
CONTINUOUS
10
-1.80323
20
1.0344
11
-1.811
21
1.02856
0
LINE
8
BLACK
6
CONTINUOUS
10
-1.811
20
1.02856
11
-1.81771
21
1.02154
0
LINE
8
BLACK
6
CONTINUOUS
10
-1.81771
20
1.02154
11
-1.82318
21
1.01352
0
LINE
8
BLACK
6
CONTINUOUS
10
-1.82318
20
1.01352
11
-1.82727
21
1.00471
0
LINE
8
BLACK
6
CONTINUOUS
10
-1.82727
20
1.00471
11
-1.82986
21
0.995356
0
LINE
8
BLACK
6
CONTINUOUS
10
-1.82986
20
0.995356
11
-1.83089
21
0.9857
0
LINE
8
BLACK
6
CONTINUOUS
10
-1.83089
20
0.9857
11
-1.83033
21
0.976005
0
LINE
8
BLACK
6
CONTINUOUS
10
-1.83033
20
0.976005
11
-1.8282
21
0.966532
  0
ENDSEC
  0
EOF
