%TF.GenerationSoftware,KiCad,Pcbnew,(6.0.11)*%
%TF.CreationDate,2024-02-10T16:41:49+09:00*%
%TF.ProjectId,SmallPW,536d616c-6c50-4572-9e6b-696361645f70,rev?*%
%TF.SameCoordinates,Original*%
%TF.FileFunction,Legend,Top*%
%TF.FilePolarity,Positive*%
%FSLAX46Y46*%
G04 Gerber Fmt 4.6, Leading zero omitted, Abs format (unit mm)*
G04 Created by KiCad (PCBNEW (6.0.11)) date 2024-02-10 16:41:49*
%MOMM*%
%LPD*%
G01*
G04 APERTURE LIST*
G04 Aperture macros list*
%AMRoundRect*
0 Rectangle with rounded corners*
0 $1 Rounding radius*
0 $2 $3 $4 $5 $6 $7 $8 $9 X,Y pos of 4 corners*
0 Add a 4 corners polygon primitive as box body*
4,1,4,$2,$3,$4,$5,$6,$7,$8,$9,$2,$3,0*
0 Add four circle primitives for the rounded corners*
1,1,$1+$1,$2,$3*
1,1,$1+$1,$4,$5*
1,1,$1+$1,$6,$7*
1,1,$1+$1,$8,$9*
0 Add four rect primitives between the rounded corners*
20,1,$1+$1,$2,$3,$4,$5,0*
20,1,$1+$1,$4,$5,$6,$7,0*
20,1,$1+$1,$6,$7,$8,$9,0*
20,1,$1+$1,$8,$9,$2,$3,0*%
G04 Aperture macros list end*
%ADD10C,0.150000*%
%ADD11C,0.270000*%
%ADD12C,0.320000*%
%ADD13C,0.160000*%
%ADD14C,0.170000*%
%ADD15C,0.130000*%
%ADD16C,0.120000*%
%ADD17C,1.060000*%
%ADD18RoundRect,0.250001X-0.799999X1.999999X-0.799999X-1.999999X0.799999X-1.999999X0.799999X1.999999X0*%
%ADD19C,1.524000*%
%ADD20R,3.800000X3.800000*%
%ADD21C,3.800000*%
%ADD22R,1.200000X2.200000*%
%ADD23R,5.800000X6.400000*%
%ADD24C,4.000000*%
%ADD25R,2.200000X1.200000*%
%ADD26R,6.400000X5.800000*%
%ADD27O,4.000000X1.524000*%
%ADD28C,2.780000*%
G04 APERTURE END LIST*
D10*
X96525622Y-58142857D02*
X96466693Y-58195238D01*
X96303002Y-58247619D01*
X96198241Y-58247619D01*
X96047645Y-58195238D01*
X95955979Y-58090476D01*
X95916693Y-57985714D01*
X95890502Y-57776190D01*
X95910145Y-57619047D01*
X95988717Y-57409523D01*
X96054193Y-57304761D01*
X96172050Y-57200000D01*
X96335741Y-57147619D01*
X96440502Y-57147619D01*
X96591098Y-57200000D01*
X96636931Y-57252380D01*
X97141098Y-58247619D02*
X97042883Y-58195238D01*
X96997050Y-58142857D01*
X96957764Y-58038095D01*
X96997050Y-57723809D01*
X97062526Y-57619047D01*
X97121455Y-57566666D01*
X97232764Y-57514285D01*
X97389907Y-57514285D01*
X97488122Y-57566666D01*
X97533955Y-57619047D01*
X97573241Y-57723809D01*
X97533955Y-58038095D01*
X97468479Y-58142857D01*
X97409550Y-58195238D01*
X97298241Y-58247619D01*
X97141098Y-58247619D01*
X98070860Y-57514285D02*
X97979193Y-58247619D01*
X98057764Y-57619047D02*
X98116693Y-57566666D01*
X98228002Y-57514285D01*
X98385145Y-57514285D01*
X98483360Y-57566666D01*
X98522645Y-57671428D01*
X98450622Y-58247619D01*
X99066098Y-57514285D02*
X98974431Y-58247619D01*
X99053002Y-57619047D02*
X99111931Y-57566666D01*
X99223241Y-57514285D01*
X99380383Y-57514285D01*
X99478598Y-57566666D01*
X99517883Y-57671428D01*
X99445860Y-58247619D01*
X100742288Y-57514285D02*
X101161336Y-57514285D01*
X100945264Y-57147619D02*
X100827407Y-58090476D01*
X100866693Y-58195238D01*
X100964907Y-58247619D01*
X101069669Y-58247619D01*
X101593479Y-58247619D02*
X101495264Y-58195238D01*
X101449431Y-58142857D01*
X101410145Y-58038095D01*
X101449431Y-57723809D01*
X101514907Y-57619047D01*
X101573836Y-57566666D01*
X101685145Y-57514285D01*
X101842288Y-57514285D01*
X101940502Y-57566666D01*
X101986336Y-57619047D01*
X102025622Y-57723809D01*
X101986336Y-58038095D01*
X101920860Y-58142857D01*
X101861931Y-58195238D01*
X101750622Y-58247619D01*
X101593479Y-58247619D01*
X154180952Y-63752380D02*
X154180952Y-64466666D01*
X154133333Y-64609523D01*
X154038095Y-64704761D01*
X153895238Y-64752380D01*
X153800000Y-64752380D01*
X155133333Y-64752380D02*
X154657142Y-64752380D01*
X154657142Y-63752380D01*
X156038095Y-64657142D02*
X155990476Y-64704761D01*
X155847619Y-64752380D01*
X155752380Y-64752380D01*
X155609523Y-64704761D01*
X155514285Y-64609523D01*
X155466666Y-64514285D01*
X155419047Y-64323809D01*
X155419047Y-64180952D01*
X155466666Y-63990476D01*
X155514285Y-63895238D01*
X155609523Y-63800000D01*
X155752380Y-63752380D01*
X155847619Y-63752380D01*
X155990476Y-63800000D01*
X156038095Y-63847619D01*
X156752380Y-63752380D02*
X156752380Y-64466666D01*
X156704761Y-64609523D01*
X156609523Y-64704761D01*
X156466666Y-64752380D01*
X156371428Y-64752380D01*
X157704761Y-64752380D02*
X157228571Y-64752380D01*
X157228571Y-63752380D01*
X158609523Y-64657142D02*
X158561904Y-64704761D01*
X158419047Y-64752380D01*
X158323809Y-64752380D01*
X158180952Y-64704761D01*
X158085714Y-64609523D01*
X158038095Y-64514285D01*
X157990476Y-64323809D01*
X157990476Y-64180952D01*
X158038095Y-63990476D01*
X158085714Y-63895238D01*
X158180952Y-63800000D01*
X158323809Y-63752380D01*
X158419047Y-63752380D01*
X158561904Y-63800000D01*
X158609523Y-63847619D01*
X159323809Y-63752380D02*
X159323809Y-64466666D01*
X159276190Y-64609523D01*
X159180952Y-64704761D01*
X159038095Y-64752380D01*
X158942857Y-64752380D01*
X160276190Y-64752380D02*
X159800000Y-64752380D01*
X159800000Y-63752380D01*
X161180952Y-64657142D02*
X161133333Y-64704761D01*
X160990476Y-64752380D01*
X160895238Y-64752380D01*
X160752380Y-64704761D01*
X160657142Y-64609523D01*
X160609523Y-64514285D01*
X160561904Y-64323809D01*
X160561904Y-64180952D01*
X160609523Y-63990476D01*
X160657142Y-63895238D01*
X160752380Y-63800000D01*
X160895238Y-63752380D01*
X160990476Y-63752380D01*
X161133333Y-63800000D01*
X161180952Y-63847619D01*
X161895238Y-63752380D02*
X161895238Y-64466666D01*
X161847619Y-64609523D01*
X161752380Y-64704761D01*
X161609523Y-64752380D01*
X161514285Y-64752380D01*
X162847619Y-64752380D02*
X162371428Y-64752380D01*
X162371428Y-63752380D01*
X163752380Y-64657142D02*
X163704761Y-64704761D01*
X163561904Y-64752380D01*
X163466666Y-64752380D01*
X163323809Y-64704761D01*
X163228571Y-64609523D01*
X163180952Y-64514285D01*
X163133333Y-64323809D01*
X163133333Y-64180952D01*
X163180952Y-63990476D01*
X163228571Y-63895238D01*
X163323809Y-63800000D01*
X163466666Y-63752380D01*
X163561904Y-63752380D01*
X163704761Y-63800000D01*
X163752380Y-63847619D01*
D11*
X97215416Y-60857142D02*
X97489226Y-60952380D01*
X97572559Y-61047619D01*
X97643988Y-61238095D01*
X97608273Y-61523809D01*
X97489226Y-61714285D01*
X97382083Y-61809523D01*
X97179702Y-61904761D01*
X96417797Y-61904761D01*
X96667797Y-59904761D01*
X97334464Y-59904761D01*
X97513035Y-60000000D01*
X97596369Y-60095238D01*
X97667797Y-60285714D01*
X97643988Y-60476190D01*
X97524940Y-60666666D01*
X97417797Y-60761904D01*
X97215416Y-60857142D01*
X96548750Y-60857142D01*
X98393988Y-61333333D02*
X99346369Y-61333333D01*
X98132083Y-61904761D02*
X99048750Y-59904761D01*
X99465416Y-61904761D01*
X100096369Y-59904761D02*
X101239226Y-59904761D01*
X100417797Y-61904761D02*
X100667797Y-59904761D01*
D12*
X108635714Y-79014285D02*
X110464285Y-79014285D01*
X108407142Y-81071428D02*
X110921428Y-81071428D01*
X107721428Y-82671428D02*
X111378571Y-82671428D01*
X108407142Y-79928571D02*
X108407142Y-81071428D01*
X108407142Y-79928571D02*
X110921428Y-79928571D01*
X110921428Y-81071428D01*
X106807142Y-77414285D02*
X106807142Y-80842857D01*
X107721428Y-81757142D01*
X110007142Y-78100000D02*
X111378571Y-79471428D01*
X111378571Y-78100000D02*
X110464285Y-78557142D01*
X108178571Y-78100000D02*
X108635714Y-78557142D01*
X107492857Y-79700000D01*
X110692857Y-77414285D02*
X110007142Y-78100000D01*
X108864285Y-81528571D02*
X108864285Y-82214285D01*
X109778571Y-77185714D02*
X110235714Y-78557142D01*
X110464285Y-81300000D02*
X110007142Y-82214285D01*
X107492857Y-78328571D02*
X107035714Y-79242857D01*
X106578571Y-80842857D02*
X105892857Y-82671428D01*
X107950000Y-77642857D02*
X109321428Y-77414285D01*
X108635714Y-78785714D01*
X106121428Y-78557142D02*
X105664285Y-79700000D01*
X106807142Y-79700000D02*
X106350000Y-81985714D01*
D13*
X123800678Y-58178571D02*
X123736392Y-58235714D01*
X123557821Y-58292857D01*
X123443535Y-58292857D01*
X123279250Y-58235714D01*
X123179250Y-58121428D01*
X123136392Y-58007142D01*
X123107821Y-57778571D01*
X123129250Y-57607142D01*
X123214964Y-57378571D01*
X123286392Y-57264285D01*
X123414964Y-57150000D01*
X123593535Y-57092857D01*
X123707821Y-57092857D01*
X123872107Y-57150000D01*
X123922107Y-57207142D01*
X124472107Y-58292857D02*
X124364964Y-58235714D01*
X124314964Y-58178571D01*
X124272107Y-58064285D01*
X124314964Y-57721428D01*
X124386392Y-57607142D01*
X124450678Y-57550000D01*
X124572107Y-57492857D01*
X124743535Y-57492857D01*
X124850678Y-57550000D01*
X124900678Y-57607142D01*
X124943535Y-57721428D01*
X124900678Y-58064285D01*
X124829250Y-58178571D01*
X124764964Y-58235714D01*
X124643535Y-58292857D01*
X124472107Y-58292857D01*
X125486392Y-57492857D02*
X125386392Y-58292857D01*
X125472107Y-57607142D02*
X125536392Y-57550000D01*
X125657821Y-57492857D01*
X125829250Y-57492857D01*
X125936392Y-57550000D01*
X125979250Y-57664285D01*
X125900678Y-58292857D01*
X126572107Y-57492857D02*
X126472107Y-58292857D01*
X126557821Y-57607142D02*
X126622107Y-57550000D01*
X126743535Y-57492857D01*
X126914964Y-57492857D01*
X127022107Y-57550000D01*
X127064964Y-57664285D01*
X126986392Y-58292857D01*
X128400678Y-57492857D02*
X128857821Y-57492857D01*
X128622107Y-57092857D02*
X128493535Y-58121428D01*
X128536392Y-58235714D01*
X128643535Y-58292857D01*
X128757821Y-58292857D01*
X129329250Y-58292857D02*
X129222107Y-58235714D01*
X129172107Y-58178571D01*
X129129250Y-58064285D01*
X129172107Y-57721428D01*
X129243535Y-57607142D01*
X129307821Y-57550000D01*
X129429250Y-57492857D01*
X129600678Y-57492857D01*
X129707821Y-57550000D01*
X129757821Y-57607142D01*
X129800678Y-57721428D01*
X129757821Y-58064285D01*
X129686392Y-58178571D01*
X129622107Y-58235714D01*
X129500678Y-58292857D01*
X129329250Y-58292857D01*
D11*
X132251130Y-57357142D02*
X132524940Y-57452380D01*
X132608273Y-57547619D01*
X132679702Y-57738095D01*
X132643988Y-58023809D01*
X132524940Y-58214285D01*
X132417797Y-58309523D01*
X132215416Y-58404761D01*
X131453511Y-58404761D01*
X131703511Y-56404761D01*
X132370178Y-56404761D01*
X132548750Y-56500000D01*
X132632083Y-56595238D01*
X132703511Y-56785714D01*
X132679702Y-56976190D01*
X132560654Y-57166666D01*
X132453511Y-57261904D01*
X132251130Y-57357142D01*
X131584464Y-57357142D01*
X133739226Y-58404761D02*
X133560654Y-58309523D01*
X133477321Y-58214285D01*
X133405892Y-58023809D01*
X133477321Y-57452380D01*
X133596369Y-57261904D01*
X133703511Y-57166666D01*
X133905892Y-57071428D01*
X134191607Y-57071428D01*
X134370178Y-57166666D01*
X134453511Y-57261904D01*
X134524940Y-57452380D01*
X134453511Y-58023809D01*
X134334464Y-58214285D01*
X134227321Y-58309523D01*
X134024940Y-58404761D01*
X133739226Y-58404761D01*
X136120178Y-58404761D02*
X136251130Y-57357142D01*
X136179702Y-57166666D01*
X136001130Y-57071428D01*
X135620178Y-57071428D01*
X135417797Y-57166666D01*
X136132083Y-58309523D02*
X135929702Y-58404761D01*
X135453511Y-58404761D01*
X135274940Y-58309523D01*
X135203511Y-58119047D01*
X135227321Y-57928571D01*
X135346369Y-57738095D01*
X135548750Y-57642857D01*
X136024940Y-57642857D01*
X136227321Y-57547619D01*
X137072559Y-58404761D02*
X137239226Y-57071428D01*
X137191607Y-57452380D02*
X137310654Y-57261904D01*
X137417797Y-57166666D01*
X137620178Y-57071428D01*
X137810654Y-57071428D01*
X139167797Y-58404761D02*
X139417797Y-56404761D01*
X139179702Y-58309523D02*
X138977321Y-58404761D01*
X138596369Y-58404761D01*
X138417797Y-58309523D01*
X138334464Y-58214285D01*
X138263035Y-58023809D01*
X138334464Y-57452380D01*
X138453511Y-57261904D01*
X138560654Y-57166666D01*
X138763035Y-57071428D01*
X139143988Y-57071428D01*
X139322559Y-57166666D01*
D14*
X103770000Y-83733333D02*
X104570000Y-83733333D01*
X104170000Y-85133333D02*
X104170000Y-83733333D01*
X105236666Y-85133333D02*
X105103333Y-85066666D01*
X105036666Y-85000000D01*
X104970000Y-84866666D01*
X104970000Y-84466666D01*
X105036666Y-84333333D01*
X105103333Y-84266666D01*
X105236666Y-84200000D01*
X105436666Y-84200000D01*
X105570000Y-84266666D01*
X105636666Y-84333333D01*
X105703333Y-84466666D01*
X105703333Y-84866666D01*
X105636666Y-85000000D01*
X105570000Y-85066666D01*
X105436666Y-85133333D01*
X105236666Y-85133333D01*
X106303333Y-85133333D02*
X106303333Y-84200000D01*
X106303333Y-84333333D02*
X106370000Y-84266666D01*
X106503333Y-84200000D01*
X106703333Y-84200000D01*
X106836666Y-84266666D01*
X106903333Y-84400000D01*
X106903333Y-85133333D01*
X106903333Y-84400000D02*
X106970000Y-84266666D01*
X107103333Y-84200000D01*
X107303333Y-84200000D01*
X107436666Y-84266666D01*
X107503333Y-84400000D01*
X107503333Y-85133333D01*
X108370000Y-85133333D02*
X108236666Y-85066666D01*
X108170000Y-85000000D01*
X108103333Y-84866666D01*
X108103333Y-84466666D01*
X108170000Y-84333333D01*
X108236666Y-84266666D01*
X108370000Y-84200000D01*
X108570000Y-84200000D01*
X108703333Y-84266666D01*
X108770000Y-84333333D01*
X108836666Y-84466666D01*
X108836666Y-84866666D01*
X108770000Y-85000000D01*
X108703333Y-85066666D01*
X108570000Y-85133333D01*
X108370000Y-85133333D01*
X109370000Y-85066666D02*
X109503333Y-85133333D01*
X109770000Y-85133333D01*
X109903333Y-85066666D01*
X109970000Y-84933333D01*
X109970000Y-84866666D01*
X109903333Y-84733333D01*
X109770000Y-84666666D01*
X109570000Y-84666666D01*
X109436666Y-84600000D01*
X109370000Y-84466666D01*
X109370000Y-84400000D01*
X109436666Y-84266666D01*
X109570000Y-84200000D01*
X109770000Y-84200000D01*
X109903333Y-84266666D01*
X110570000Y-85133333D02*
X110570000Y-83733333D01*
X111170000Y-85133333D02*
X111170000Y-84400000D01*
X111103333Y-84266666D01*
X110970000Y-84200000D01*
X110770000Y-84200000D01*
X110636666Y-84266666D01*
X110570000Y-84333333D01*
X111836666Y-85133333D02*
X111836666Y-84200000D01*
X111836666Y-83733333D02*
X111770000Y-83800000D01*
X111836666Y-83866666D01*
X111903333Y-83800000D01*
X111836666Y-83733333D01*
X111836666Y-83866666D01*
X112503333Y-85133333D02*
X112503333Y-83733333D01*
X112503333Y-84266666D02*
X112636666Y-84200000D01*
X112903333Y-84200000D01*
X113036666Y-84266666D01*
X113103333Y-84333333D01*
X113170000Y-84466666D01*
X113170000Y-84866666D01*
X113103333Y-85000000D01*
X113036666Y-85066666D01*
X112903333Y-85133333D01*
X112636666Y-85133333D01*
X112503333Y-85066666D01*
X113770000Y-85133333D02*
X113770000Y-84200000D01*
X113770000Y-83733333D02*
X113703333Y-83800000D01*
X113770000Y-83866666D01*
X113836666Y-83800000D01*
X113770000Y-83733333D01*
X113770000Y-83866666D01*
D15*
X149666666Y-81897380D02*
X149666666Y-80897380D01*
X149904761Y-80897380D01*
X150047619Y-80945000D01*
X150142857Y-81040238D01*
X150190476Y-81135476D01*
X150238095Y-81325952D01*
X150238095Y-81468809D01*
X150190476Y-81659285D01*
X150142857Y-81754523D01*
X150047619Y-81849761D01*
X149904761Y-81897380D01*
X149666666Y-81897380D01*
X151047619Y-81849761D02*
X150952380Y-81897380D01*
X150761904Y-81897380D01*
X150666666Y-81849761D01*
X150619047Y-81754523D01*
X150619047Y-81373571D01*
X150666666Y-81278333D01*
X150761904Y-81230714D01*
X150952380Y-81230714D01*
X151047619Y-81278333D01*
X151095238Y-81373571D01*
X151095238Y-81468809D01*
X150619047Y-81564047D01*
X151476190Y-81849761D02*
X151571428Y-81897380D01*
X151761904Y-81897380D01*
X151857142Y-81849761D01*
X151904761Y-81754523D01*
X151904761Y-81706904D01*
X151857142Y-81611666D01*
X151761904Y-81564047D01*
X151619047Y-81564047D01*
X151523809Y-81516428D01*
X151476190Y-81421190D01*
X151476190Y-81373571D01*
X151523809Y-81278333D01*
X151619047Y-81230714D01*
X151761904Y-81230714D01*
X151857142Y-81278333D01*
X152333333Y-81897380D02*
X152333333Y-81230714D01*
X152333333Y-80897380D02*
X152285714Y-80945000D01*
X152333333Y-80992619D01*
X152380952Y-80945000D01*
X152333333Y-80897380D01*
X152333333Y-80992619D01*
X153238095Y-81230714D02*
X153238095Y-82040238D01*
X153190476Y-82135476D01*
X153142857Y-82183095D01*
X153047619Y-82230714D01*
X152904761Y-82230714D01*
X152809523Y-82183095D01*
X153238095Y-81849761D02*
X153142857Y-81897380D01*
X152952380Y-81897380D01*
X152857142Y-81849761D01*
X152809523Y-81802142D01*
X152761904Y-81706904D01*
X152761904Y-81421190D01*
X152809523Y-81325952D01*
X152857142Y-81278333D01*
X152952380Y-81230714D01*
X153142857Y-81230714D01*
X153238095Y-81278333D01*
X153714285Y-81230714D02*
X153714285Y-81897380D01*
X153714285Y-81325952D02*
X153761904Y-81278333D01*
X153857142Y-81230714D01*
X154000000Y-81230714D01*
X154095238Y-81278333D01*
X154142857Y-81373571D01*
X154142857Y-81897380D01*
X155000000Y-81849761D02*
X154904761Y-81897380D01*
X154714285Y-81897380D01*
X154619047Y-81849761D01*
X154571428Y-81754523D01*
X154571428Y-81373571D01*
X154619047Y-81278333D01*
X154714285Y-81230714D01*
X154904761Y-81230714D01*
X155000000Y-81278333D01*
X155047619Y-81373571D01*
X155047619Y-81468809D01*
X154571428Y-81564047D01*
X155904761Y-81897380D02*
X155904761Y-80897380D01*
X155904761Y-81849761D02*
X155809523Y-81897380D01*
X155619047Y-81897380D01*
X155523809Y-81849761D01*
X155476190Y-81802142D01*
X155428571Y-81706904D01*
X155428571Y-81421190D01*
X155476190Y-81325952D01*
X155523809Y-81278333D01*
X155619047Y-81230714D01*
X155809523Y-81230714D01*
X155904761Y-81278333D01*
X157142857Y-81897380D02*
X157142857Y-80897380D01*
X157142857Y-81278333D02*
X157238095Y-81230714D01*
X157428571Y-81230714D01*
X157523809Y-81278333D01*
X157571428Y-81325952D01*
X157619047Y-81421190D01*
X157619047Y-81706904D01*
X157571428Y-81802142D01*
X157523809Y-81849761D01*
X157428571Y-81897380D01*
X157238095Y-81897380D01*
X157142857Y-81849761D01*
X157952380Y-81230714D02*
X158190476Y-81897380D01*
X158428571Y-81230714D02*
X158190476Y-81897380D01*
X158095238Y-82135476D01*
X158047619Y-82183095D01*
X157952380Y-82230714D01*
X148309523Y-83031190D02*
X148261904Y-82983571D01*
X148166666Y-82935952D01*
X148071428Y-82935952D01*
X147976190Y-82983571D01*
X147928571Y-83031190D01*
X147880952Y-83126428D01*
X147880952Y-83221666D01*
X147928571Y-83316904D01*
X147976190Y-83364523D01*
X148071428Y-83412142D01*
X148166666Y-83412142D01*
X148261904Y-83364523D01*
X148309523Y-83316904D01*
X148309523Y-82935952D02*
X148309523Y-83316904D01*
X148357142Y-83364523D01*
X148404761Y-83364523D01*
X148500000Y-83316904D01*
X148547619Y-83221666D01*
X148547619Y-82983571D01*
X148452380Y-82840714D01*
X148309523Y-82745476D01*
X148119047Y-82697857D01*
X147928571Y-82745476D01*
X147785714Y-82840714D01*
X147690476Y-82983571D01*
X147642857Y-83174047D01*
X147690476Y-83364523D01*
X147785714Y-83507380D01*
X147928571Y-83602619D01*
X148119047Y-83650238D01*
X148309523Y-83602619D01*
X148452380Y-83507380D01*
X149404761Y-83459761D02*
X149309523Y-83507380D01*
X149119047Y-83507380D01*
X149023809Y-83459761D01*
X148976190Y-83412142D01*
X148928571Y-83316904D01*
X148928571Y-83031190D01*
X148976190Y-82935952D01*
X149023809Y-82888333D01*
X149119047Y-82840714D01*
X149309523Y-82840714D01*
X149404761Y-82888333D01*
X150261904Y-83507380D02*
X150261904Y-82983571D01*
X150214285Y-82888333D01*
X150119047Y-82840714D01*
X149928571Y-82840714D01*
X149833333Y-82888333D01*
X150261904Y-83459761D02*
X150166666Y-83507380D01*
X149928571Y-83507380D01*
X149833333Y-83459761D01*
X149785714Y-83364523D01*
X149785714Y-83269285D01*
X149833333Y-83174047D01*
X149928571Y-83126428D01*
X150166666Y-83126428D01*
X150261904Y-83078809D01*
X150595238Y-82840714D02*
X150976190Y-82840714D01*
X150738095Y-82507380D02*
X150738095Y-83364523D01*
X150785714Y-83459761D01*
X150880952Y-83507380D01*
X150976190Y-83507380D01*
X151071428Y-83602619D02*
X151833333Y-83602619D01*
X152071428Y-82840714D02*
X152071428Y-83507380D01*
X152071428Y-82935952D02*
X152119047Y-82888333D01*
X152214285Y-82840714D01*
X152357142Y-82840714D01*
X152452380Y-82888333D01*
X152500000Y-82983571D01*
X152500000Y-83507380D01*
X153357142Y-83459761D02*
X153261904Y-83507380D01*
X153071428Y-83507380D01*
X152976190Y-83459761D01*
X152928571Y-83364523D01*
X152928571Y-82983571D01*
X152976190Y-82888333D01*
X153071428Y-82840714D01*
X153261904Y-82840714D01*
X153357142Y-82888333D01*
X153404761Y-82983571D01*
X153404761Y-83078809D01*
X152928571Y-83174047D01*
X153833333Y-83507380D02*
X153833333Y-82507380D01*
X153928571Y-83126428D02*
X154214285Y-83507380D01*
X154214285Y-82840714D02*
X153833333Y-83221666D01*
X154785714Y-83507380D02*
X154690476Y-83459761D01*
X154642857Y-83412142D01*
X154595238Y-83316904D01*
X154595238Y-83031190D01*
X154642857Y-82935952D01*
X154690476Y-82888333D01*
X154785714Y-82840714D01*
X154928571Y-82840714D01*
X155023809Y-82888333D01*
X155071428Y-82935952D01*
X155119047Y-83031190D01*
X155119047Y-83316904D01*
X155071428Y-83412142D01*
X155023809Y-83459761D01*
X154928571Y-83507380D01*
X154785714Y-83507380D01*
X155547619Y-82840714D02*
X155547619Y-83507380D01*
X155547619Y-82935952D02*
X155595238Y-82888333D01*
X155690476Y-82840714D01*
X155833333Y-82840714D01*
X155928571Y-82888333D01*
X155976190Y-82983571D01*
X155976190Y-83507380D01*
X156833333Y-83459761D02*
X156738095Y-83507380D01*
X156547619Y-83507380D01*
X156452380Y-83459761D01*
X156404761Y-83364523D01*
X156404761Y-82983571D01*
X156452380Y-82888333D01*
X156547619Y-82840714D01*
X156738095Y-82840714D01*
X156833333Y-82888333D01*
X156880952Y-82983571D01*
X156880952Y-83078809D01*
X156404761Y-83174047D01*
X157309523Y-83507380D02*
X157309523Y-82507380D01*
X157404761Y-83126428D02*
X157690476Y-83507380D01*
X157690476Y-82840714D02*
X157309523Y-83221666D01*
X158261904Y-83507380D02*
X158166666Y-83459761D01*
X158119047Y-83412142D01*
X158071428Y-83316904D01*
X158071428Y-83031190D01*
X158119047Y-82935952D01*
X158166666Y-82888333D01*
X158261904Y-82840714D01*
X158404761Y-82840714D01*
X158500000Y-82888333D01*
X158547619Y-82935952D01*
X158595238Y-83031190D01*
X158595238Y-83316904D01*
X158547619Y-83412142D01*
X158500000Y-83459761D01*
X158404761Y-83507380D01*
X158261904Y-83507380D01*
X159023809Y-82840714D02*
X159023809Y-83507380D01*
X159023809Y-82935952D02*
X159071428Y-82888333D01*
X159166666Y-82840714D01*
X159309523Y-82840714D01*
X159404761Y-82888333D01*
X159452380Y-82983571D01*
X159452380Y-83507380D01*
X160309523Y-83459761D02*
X160214285Y-83507380D01*
X160023809Y-83507380D01*
X159928571Y-83459761D01*
X159880952Y-83364523D01*
X159880952Y-82983571D01*
X159928571Y-82888333D01*
X160023809Y-82840714D01*
X160214285Y-82840714D01*
X160309523Y-82888333D01*
X160357142Y-82983571D01*
X160357142Y-83078809D01*
X159880952Y-83174047D01*
D10*
%TO.C,J1*%
X102857142Y-73571428D02*
X102857142Y-72428571D01*
X103428571Y-73000000D02*
X102285714Y-73000000D01*
X102857142Y-69071428D02*
X102857142Y-67928571D01*
%TO.C,J5*%
X145428571Y-51607142D02*
X146571428Y-51607142D01*
X146000000Y-52178571D02*
X146000000Y-51035714D01*
X158428571Y-51607142D02*
X159571428Y-51607142D01*
%TO.C,J4*%
X144428571Y-52607142D02*
X145571428Y-52607142D01*
X131428571Y-52607142D02*
X132571428Y-52607142D01*
X132000000Y-53178571D02*
X132000000Y-52035714D01*
%TO.C,J2*%
X103428571Y-52607142D02*
X104571428Y-52607142D01*
X104000000Y-53178571D02*
X104000000Y-52035714D01*
X116428571Y-52607142D02*
X117571428Y-52607142D01*
%TO.C,J3*%
X117428571Y-51607142D02*
X118571428Y-51607142D01*
X118000000Y-52178571D02*
X118000000Y-51035714D01*
X130428571Y-51607142D02*
X131571428Y-51607142D01*
D16*
%TO.C,C2*%
X139565000Y-69260000D02*
X142515000Y-69260000D01*
X139565000Y-61804437D02*
X139565000Y-69260000D01*
X140629437Y-60740000D02*
X142515000Y-60740000D01*
X147020563Y-60740000D02*
X148085000Y-61804437D01*
X147020563Y-60740000D02*
X145135000Y-60740000D01*
X140629437Y-60740000D02*
X139565000Y-61804437D01*
X148085000Y-61804437D02*
X148085000Y-69260000D01*
X148085000Y-69260000D02*
X145135000Y-69260000D01*
%TO.C,MES1*%
X119500000Y-72300000D02*
X119500000Y-76300000D01*
X143500000Y-72300000D02*
X119500000Y-72300000D01*
X143500000Y-80300000D02*
X146500000Y-80300000D01*
X143500000Y-76300000D02*
X143500000Y-72300000D01*
X119500000Y-76300000D02*
X116500000Y-76300000D01*
X116500000Y-76300000D02*
X116500000Y-80300000D01*
X146500000Y-76300000D02*
X143500000Y-76300000D01*
X146500000Y-80300000D02*
X146500000Y-76300000D01*
X116500000Y-80300000D02*
X119500000Y-80300000D01*
X136500000Y-86300000D02*
X141500000Y-86300000D01*
X119500000Y-84300000D02*
X136500000Y-84300000D01*
X141500000Y-86300000D02*
X141500000Y-84300000D01*
X119500000Y-80300000D02*
X119500000Y-84300000D01*
X143500000Y-84300000D02*
X143500000Y-80300000D01*
X136500000Y-84300000D02*
X136500000Y-86300000D01*
X141500000Y-84300000D02*
X143500000Y-84300000D01*
%TO.C,J1*%
X101210000Y-75710000D02*
X95790000Y-75710000D01*
X99910000Y-65290000D02*
X97090000Y-65290000D01*
X97090000Y-65290000D02*
X95790000Y-66990000D01*
X95790000Y-66990000D02*
X95790000Y-75710000D01*
X101210000Y-66990000D02*
X101210000Y-75710000D01*
X99910000Y-65290000D02*
X101210000Y-66990000D01*
%TO.C,Q1*%
X122105000Y-68020000D02*
X122105000Y-69120000D01*
X122375000Y-66520000D02*
X122375000Y-68020000D01*
X115475000Y-68020000D02*
X115745000Y-68020000D01*
X122375000Y-68020000D02*
X122105000Y-68020000D01*
X115475000Y-66520000D02*
X115475000Y-68020000D01*
X115745000Y-68020000D02*
X115745000Y-70850000D01*
%TO.C,J5*%
X156010000Y-49290000D02*
X147290000Y-49290000D01*
X147290000Y-54710000D02*
X147290000Y-49290000D01*
X157710000Y-50590000D02*
X156010000Y-49290000D01*
X157710000Y-53410000D02*
X157710000Y-50590000D01*
X157710000Y-53410000D02*
X156010000Y-54710000D01*
X156010000Y-54710000D02*
X147290000Y-54710000D01*
%TO.C,Q3*%
X130030000Y-67750000D02*
X128530000Y-67750000D01*
X128530000Y-61120000D02*
X125700000Y-61120000D01*
X128530000Y-67480000D02*
X127430000Y-67480000D01*
X130030000Y-60850000D02*
X128530000Y-60850000D01*
X128530000Y-60850000D02*
X128530000Y-61120000D01*
X128530000Y-67750000D02*
X128530000Y-67480000D01*
%TO.C,J4*%
X133290000Y-54710000D02*
X133290000Y-49290000D01*
X143710000Y-53410000D02*
X142010000Y-54710000D01*
X143710000Y-53410000D02*
X143710000Y-50590000D01*
X143710000Y-50590000D02*
X142010000Y-49290000D01*
X142010000Y-54710000D02*
X133290000Y-54710000D01*
X142010000Y-49290000D02*
X133290000Y-49290000D01*
%TO.C,SW1*%
X151500000Y-56500000D02*
X166500000Y-56500000D01*
X166500000Y-56500000D02*
X166500000Y-77500000D01*
X166500000Y-77500000D02*
X151500000Y-77500000D01*
X151500000Y-77500000D02*
X151500000Y-56500000D01*
D17*
X159530000Y-61000000D02*
G75*
G03*
X159530000Y-61000000I-530000J0D01*
G01*
D16*
%TO.C,J2*%
X115710000Y-53410000D02*
X115710000Y-50590000D01*
X114010000Y-54710000D02*
X105290000Y-54710000D01*
X105290000Y-54710000D02*
X105290000Y-49290000D01*
X115710000Y-50590000D02*
X114010000Y-49290000D01*
X115710000Y-53410000D02*
X114010000Y-54710000D01*
X114010000Y-49290000D02*
X105290000Y-49290000D01*
%TO.C,F1*%
X111970000Y-59360000D02*
X105030000Y-59360000D01*
X105030000Y-75560000D02*
X111970000Y-75560000D01*
X108500000Y-68210000D02*
X108500000Y-66710000D01*
X111970000Y-75560000D02*
X111970000Y-59360000D01*
X110500000Y-65860000D02*
X110500000Y-69060000D01*
X106500000Y-69060000D02*
X106500000Y-65860000D01*
X105030000Y-59360000D02*
X105030000Y-75560000D01*
%TO.C,J3*%
X128010000Y-54710000D02*
X119290000Y-54710000D01*
X129710000Y-53410000D02*
X128010000Y-54710000D01*
X129710000Y-50590000D02*
X128010000Y-49290000D01*
X128010000Y-49290000D02*
X119290000Y-49290000D01*
X119290000Y-54710000D02*
X119290000Y-49290000D01*
X129710000Y-53410000D02*
X129710000Y-50590000D01*
%TD*%
%LPC*%
D18*
%TO.C,C2*%
X143825000Y-61400000D03*
X143825000Y-68600000D03*
%TD*%
D19*
%TO.C,MES1*%
X140500000Y-85300000D03*
X138500000Y-85285000D03*
%TD*%
D20*
%TO.C,J1*%
X98500000Y-68000000D03*
D21*
X98500000Y-73000000D03*
%TD*%
D22*
%TO.C,Q1*%
X116645000Y-69750000D03*
D23*
X118925000Y-63450000D03*
D22*
X118925000Y-69750000D03*
X121205000Y-69750000D03*
%TD*%
D20*
%TO.C,J5*%
X155000000Y-52000000D03*
D24*
X150000000Y-52000000D03*
%TD*%
D25*
%TO.C,Q3*%
X126800000Y-62020000D03*
X126800000Y-64300000D03*
D26*
X133100000Y-64300000D03*
D25*
X126800000Y-66580000D03*
%TD*%
D20*
%TO.C,J4*%
X141000000Y-52000000D03*
D24*
X136000000Y-52000000D03*
%TD*%
D27*
%TO.C,SW1*%
X159000000Y-73000000D03*
X159000000Y-67000000D03*
%TD*%
D20*
%TO.C,J2*%
X113000000Y-52000000D03*
D24*
X108000000Y-52000000D03*
%TD*%
D28*
%TO.C,F1*%
X106800000Y-72420000D03*
X110200000Y-72420000D03*
X106800000Y-62500000D03*
X110200000Y-62500000D03*
%TD*%
D20*
%TO.C,J3*%
X127000000Y-52000000D03*
D24*
X122000000Y-52000000D03*
%TD*%
M02*
