%TF.GenerationSoftware,KiCad,Pcbnew,(6.0.11)*%
%TF.CreationDate,2024-02-10T16:41:49+09:00*%
%TF.ProjectId,SmallPW,536d616c-6c50-4572-9e6b-696361645f70,rev?*%
%TF.SameCoordinates,Original*%
%TF.FileFunction,Profile,NP*%
%FSLAX46Y46*%
G04 Gerber Fmt 4.6, Leading zero omitted, Abs format (unit mm)*
G04 Created by KiCad (PCBNEW (6.0.11)) date 2024-02-10 16:41:49*
%MOMM*%
%LPD*%
G01*
G04 APERTURE LIST*
%TA.AperFunction,Profile*%
%ADD10C,0.200000*%
%TD*%
%TA.AperFunction,Profile*%
%ADD11C,0.120000*%
%TD*%
G04 APERTURE END LIST*
D10*
X166200000Y-52300000D02*
G75*
G03*
X166200000Y-52300000I-1700000J0D01*
G01*
X166500000Y-87300000D02*
G75*
G03*
X169500000Y-84300000I0J3000000D01*
G01*
X96500000Y-87300000D02*
X166500000Y-87300000D01*
X96500000Y-47300000D02*
G75*
G03*
X93500000Y-50300000I0J-3000000D01*
G01*
X169500000Y-84300000D02*
X169500000Y-50300000D01*
X166200000Y-82300000D02*
G75*
G03*
X166200000Y-82300000I-1700000J0D01*
G01*
X166500000Y-47300000D02*
X96500000Y-47300000D01*
X100200000Y-82300000D02*
G75*
G03*
X100200000Y-82300000I-1700000J0D01*
G01*
X100200000Y-52300000D02*
G75*
G03*
X100200000Y-52300000I-1700000J0D01*
G01*
X169500000Y-50300000D02*
G75*
G03*
X166500000Y-47300000I-3000000J0D01*
G01*
X93500000Y-84300000D02*
G75*
G03*
X96500000Y-87300000I3000000J0D01*
G01*
X93500000Y-50300000D02*
X93500000Y-84300000D01*
D11*
%TO.C,MES1*%
X120000000Y-76300000D02*
X120000000Y-80300000D01*
X120000000Y-83800000D02*
X143000000Y-83800000D01*
X143000000Y-76300000D02*
X143000000Y-72800000D01*
X143000000Y-83800000D02*
X143000000Y-80300000D01*
X143000000Y-72800000D02*
X120000000Y-72800000D01*
X120000000Y-72800000D02*
X120000000Y-76300000D01*
X143000000Y-80300000D02*
X143000000Y-76300000D01*
X120000000Y-80300000D02*
X120000000Y-83800000D01*
X145650000Y-78300000D02*
G75*
G03*
X145650000Y-78300000I-1150000J0D01*
G01*
X119650000Y-78300000D02*
G75*
G03*
X119650000Y-78300000I-1150000J0D01*
G01*
%TD*%
M02*
