M48
; DRILL file {KiCad (6.0.11)} date Thu Feb  8 00:56:39 2024
; FORMAT={-:-/ absolute / inch / decimal}
; #@! TF.CreationDate,2024-02-08T00:56:39+09:00
; #@! TF.GenerationSoftware,Kicad,Pcbnew,(6.0.11)
; #@! TF.FileFunction,Plated,1,2,PTH
FMAT,2
INCH
; #@! TA.AperFunction,Plated,PTH,ViaDrill
T1C0.0118
; #@! TA.AperFunction,Plated,PTH,ViaDrill
T2C0.0157
; #@! TA.AperFunction,Plated,PTH,ComponentDrill
T3C0.0300
; #@! TA.AperFunction,Plated,PTH,ComponentDrill
T4C0.0701
; #@! TA.AperFunction,Plated,PTH,ComponentDrill
T5C0.1063
%
G90
G05
T1
X5.0945Y-2.5404
X5.0945Y-2.5719
X6.0433Y-2.6087
X6.1681Y-2.687
T2
X3.7205Y-2.6693
X3.7303Y-2.7461
X3.7303Y-3.1791
X3.7598Y-1.9409
X3.7598Y-2.0591
X3.7598Y-2.1772
X3.7598Y-2.2953
X3.7598Y-2.4134
X3.7598Y-2.5315
X3.7598Y-2.8051
X3.7598Y-2.8445
X3.7598Y-2.8839
X3.7598Y-2.9232
X3.7598Y-2.9626
X3.7598Y-3.002
X3.7598Y-3.0413
X3.7598Y-3.0807
X3.7598Y-3.1201
X3.7598Y-3.2402
X3.7598Y-3.3583
X3.7795Y-3.189
X3.7992Y-2.8051
X3.7992Y-2.9626
X3.7992Y-3.002
X3.7992Y-3.0413
X3.7992Y-3.0807
X3.7992Y-3.1201
X3.8386Y-3.002
X3.8386Y-3.0413
X3.8386Y-3.0807
X3.8386Y-3.1201
X3.878Y-1.9409
X3.878Y-2.1772
X3.878Y-2.2953
X3.878Y-2.4134
X3.878Y-2.5295
X3.878Y-3.002
X3.878Y-3.0413
X3.878Y-3.0807
X3.878Y-3.1201
X3.878Y-3.3583
X3.9173Y-3.002
X3.9173Y-3.0413
X3.9173Y-3.0807
X3.9173Y-3.1201
X3.9567Y-2.8051
X3.9567Y-2.9626
X3.9567Y-3.002
X3.9567Y-3.0413
X3.9567Y-3.0807
X3.9567Y-3.1201
X3.9764Y-3.189
X3.9961Y-1.9409
X3.9961Y-2.0591
X3.9961Y-2.1772
X3.9961Y-2.2953
X3.9961Y-2.4134
X3.9961Y-2.5315
X3.9961Y-2.6496
X3.9961Y-2.7362
X3.9961Y-2.8051
X3.9961Y-2.8445
X3.9961Y-2.8839
X3.9961Y-2.9232
X3.9961Y-2.9626
X3.9961Y-3.002
X3.9961Y-3.0413
X3.9961Y-3.0807
X3.9961Y-3.1201
X3.9961Y-3.2402
X3.9961Y-3.3583
X4.0354Y-2.8051
X4.0354Y-2.8445
X4.0354Y-2.8839
X4.0354Y-2.9232
X4.0354Y-2.9626
X4.0354Y-3.002
X4.0354Y-3.0413
X4.0354Y-3.0807
X4.0354Y-3.1201
X4.0551Y-1.9016
X4.0551Y-2.0
X4.0551Y-2.1181
X4.0551Y-2.2362
X4.0551Y-3.189
X4.0748Y-2.4134
X4.0748Y-2.5315
X4.0748Y-2.6496
X4.0748Y-2.7362
X4.0748Y-2.8051
X4.0748Y-2.8445
X4.0748Y-2.8839
X4.0748Y-2.9232
X4.0748Y-2.9626
X4.0748Y-3.002
X4.0748Y-3.0413
X4.0748Y-3.0807
X4.0748Y-3.1201
X4.1142Y-2.8051
X4.1142Y-2.8445
X4.1142Y-2.8839
X4.1142Y-2.9232
X4.1142Y-2.9626
X4.1142Y-3.002
X4.1142Y-3.0413
X4.1142Y-3.0807
X4.1142Y-3.1201
X4.1142Y-3.2402
X4.1142Y-3.3583
X4.1535Y-2.315
X4.1535Y-2.9232
X4.1535Y-2.9626
X4.1535Y-3.002
X4.1535Y-3.0413
X4.1535Y-3.0807
X4.1535Y-3.1201
X4.1732Y-2.7165
X4.1732Y-3.189
X4.1929Y-2.9626
X4.1929Y-3.002
X4.1929Y-3.0413
X4.1929Y-3.0807
X4.1929Y-3.1201
X4.2323Y-2.9626
X4.2323Y-3.002
X4.2323Y-3.0413
X4.2323Y-3.0807
X4.2323Y-3.1201
X4.2323Y-3.2402
X4.2323Y-3.3583
X4.2717Y-2.8051
X4.2717Y-2.9232
X4.2717Y-2.9626
X4.2717Y-3.002
X4.2717Y-3.0413
X4.2717Y-3.0807
X4.2717Y-3.1201
X4.2815Y-2.7165
X4.2913Y-3.189
X4.311Y-2.9626
X4.311Y-3.002
X4.311Y-3.0413
X4.311Y-3.0807
X4.311Y-3.1201
X4.3504Y-2.9626
X4.3504Y-3.002
X4.3504Y-3.0413
X4.3504Y-3.0807
X4.3504Y-3.1201
X4.3504Y-3.2402
X4.3504Y-3.3583
X4.3799Y-2.7165
X4.3898Y-2.9232
X4.3898Y-2.9626
X4.3898Y-3.002
X4.3898Y-3.0413
X4.3898Y-3.0807
X4.3898Y-3.1201
X4.4094Y-3.189
X4.4587Y-2.7953
X4.4587Y-2.8858
X4.4587Y-3.002
X4.4587Y-3.122
X4.4685Y-3.2402
X4.4685Y-3.3583
X4.4882Y-2.7087
X4.5866Y-2.7087
X4.5866Y-2.7677
X4.5866Y-2.8858
X4.5866Y-3.0039
X4.5866Y-3.122
X4.5866Y-3.2402
X4.5866Y-3.3583
X4.685Y-2.8661
X4.685Y-3.0039
X4.685Y-3.1614
X4.685Y-3.2402
X4.7047Y-3.3583
X4.7736Y-2.7087
X4.7736Y-2.748
X4.7736Y-2.7874
X4.813Y-2.7087
X4.813Y-2.748
X4.813Y-2.7874
X4.8228Y-3.3583
X4.8524Y-2.6693
X4.8524Y-2.7087
X4.8524Y-2.748
X4.8524Y-2.7874
X4.8917Y-2.6299
X4.8917Y-2.6693
X4.8917Y-2.7087
X4.8917Y-2.748
X4.8917Y-2.7874
X4.9311Y-2.6299
X4.9311Y-2.6693
X4.9311Y-2.7087
X4.9311Y-2.748
X4.9311Y-2.7874
X4.9409Y-3.3583
X4.9508Y-2.6004
X4.9705Y-2.6299
X4.9705Y-2.6693
X4.9705Y-2.7087
X4.9705Y-2.748
X4.9705Y-2.7874
X4.9902Y-2.6004
X5.0098Y-2.6299
X5.0098Y-2.6693
X5.0098Y-2.7087
X5.0098Y-2.748
X5.0098Y-2.7874
X5.0295Y-2.6004
X5.0492Y-2.6299
X5.0492Y-2.6693
X5.0492Y-2.7087
X5.0492Y-2.748
X5.0492Y-2.7874
X5.0591Y-3.3583
X5.1181Y-2.7087
X5.1181Y-2.8268
X5.1772Y-2.7677
X5.1772Y-3.3583
X5.2362Y-2.7087
X5.2362Y-2.8268
X5.2953Y-2.7677
X5.2953Y-3.3583
X5.3543Y-2.7087
X5.3543Y-2.8268
X5.374Y-3.3386
X5.374Y-3.3976
X5.4134Y-2.7677
X5.4724Y-2.7087
X5.4724Y-2.8268
X5.5315Y-2.7677
X5.5906Y-2.7087
X5.5906Y-2.8268
X5.6299Y-3.3386
X5.6496Y-2.6496
X5.6496Y-2.7677
X5.6624Y-2.4754
X5.6693Y-3.0039
X5.6693Y-3.1614
X5.689Y-3.2992
X5.7087Y-2.7087
X5.7087Y-2.8268
X5.7087Y-2.9449
X5.7087Y-3.2008
X5.748Y-3.3976
X5.7677Y-2.6496
X5.7677Y-2.7677
X5.7677Y-2.8858
X5.7677Y-3.0039
X5.7677Y-3.1417
X5.7677Y-3.2205
X5.8465Y-2.4921
X5.8858Y-2.6496
X5.8858Y-2.7677
X5.8858Y-2.8858
X5.8858Y-3.0039
X5.8858Y-3.122
X5.8858Y-3.2402
X5.8858Y-3.3583
X5.9252Y-2.4134
X5.9843Y-2.6102
X6.0039Y-2.7677
X6.0039Y-2.8858
X6.0039Y-3.0039
X6.0039Y-3.122
X6.0039Y-3.2402
X6.0039Y-3.3583
X6.0236Y-2.2953
X6.0236Y-2.4134
X6.0236Y-2.4921
X6.0236Y-2.7087
X6.0433Y-1.9016
X6.0433Y-2.1772
X6.0827Y-2.7874
X6.122Y-1.9409
X6.122Y-2.1772
X6.122Y-2.2953
X6.122Y-2.4134
X6.122Y-2.5315
X6.122Y-3.0039
X6.122Y-3.122
X6.122Y-3.2402
X6.122Y-3.3583
X6.1614Y-2.5906
X6.1614Y-2.9252
X6.2402Y-1.9409
X6.2402Y-2.0591
X6.2402Y-2.1772
X6.2402Y-2.2953
X6.2402Y-2.4134
X6.2402Y-2.5315
X6.2402Y-3.0039
X6.2402Y-3.122
X6.2402Y-3.2402
X6.2402Y-3.3583
X6.3583Y-1.9409
X6.3583Y-2.0591
X6.3583Y-2.1772
X6.3583Y-2.2953
X6.3583Y-2.4134
X6.3583Y-2.5315
X6.3583Y-2.689
X6.3583Y-2.7677
X6.3583Y-2.9252
X6.3583Y-3.0039
X6.3583Y-3.122
X6.3583Y-3.2402
X6.3583Y-3.3583
X6.4764Y-1.9409
X6.4764Y-2.1772
X6.4764Y-2.2953
X6.4764Y-2.4134
X6.4764Y-2.5315
X6.4764Y-2.6496
X6.4764Y-2.7677
X6.4764Y-2.8858
X6.4764Y-3.0039
X6.4764Y-3.122
X6.4764Y-3.3583
X6.5945Y-1.9409
X6.5945Y-2.0591
X6.5945Y-2.1772
X6.5945Y-2.2953
X6.5945Y-2.4134
X6.5945Y-2.5315
X6.5945Y-2.6496
X6.5945Y-2.7677
X6.5945Y-2.8858
X6.5945Y-3.0039
X6.5945Y-3.122
X6.5945Y-3.2402
X6.5945Y-3.3583
T3
X5.4528Y-3.3577
X5.5315Y-3.3583
T4
X4.2047Y-2.4606
X4.2047Y-2.8512
X4.3386Y-2.4606
X4.3386Y-2.8512
T5
X3.878Y-2.6772
X3.878Y-2.874
X4.252Y-2.0472
X4.4488Y-2.0472
X4.8031Y-2.0472
X5.0Y-2.0472
X5.3543Y-2.0472
X5.5512Y-2.0472
X5.9055Y-2.0472
X6.1024Y-2.0472
T3
G00X6.3078Y-2.6378
M15
G01X6.2119Y-2.6378
M16
G05
G00X6.2119Y-2.874
M15
G01X6.3078Y-2.874
M16
G05
T0
M30
