%TF.GenerationSoftware,KiCad,Pcbnew,7.0.1*%
%TF.CreationDate,2024-02-10T23:36:13+09:00*%
%TF.ProjectId,connect,636f6e6e-6563-4742-9e6b-696361645f70,rev?*%
%TF.SameCoordinates,Original*%
%TF.FileFunction,Legend,Bot*%
%TF.FilePolarity,Positive*%
%FSLAX46Y46*%
G04 Gerber Fmt 4.6, Leading zero omitted, Abs format (unit mm)*
G04 Created by KiCad (PCBNEW 7.0.1) date 2024-02-10 23:36:13*
%MOMM*%
%LPD*%
G01*
G04 APERTURE LIST*
G04 Aperture macros list*
%AMRoundRect*
0 Rectangle with rounded corners*
0 $1 Rounding radius*
0 $2 $3 $4 $5 $6 $7 $8 $9 X,Y pos of 4 corners*
0 Add a 4 corners polygon primitive as box body*
4,1,4,$2,$3,$4,$5,$6,$7,$8,$9,$2,$3,0*
0 Add four circle primitives for the rounded corners*
1,1,$1+$1,$2,$3*
1,1,$1+$1,$4,$5*
1,1,$1+$1,$6,$7*
1,1,$1+$1,$8,$9*
0 Add four rect primitives between the rounded corners*
20,1,$1+$1,$2,$3,$4,$5,0*
20,1,$1+$1,$4,$5,$6,$7,0*
20,1,$1+$1,$6,$7,$8,$9,0*
20,1,$1+$1,$8,$9,$2,$3,0*%
G04 Aperture macros list end*
%ADD10C,0.150000*%
%ADD11C,0.120000*%
%ADD12RoundRect,0.205882X0.494118X0.494118X-0.494118X0.494118X-0.494118X-0.494118X0.494118X-0.494118X0*%
%ADD13O,1.400000X1.400000*%
%ADD14RoundRect,0.250000X0.350000X0.350000X-0.350000X0.350000X-0.350000X-0.350000X0.350000X-0.350000X0*%
%ADD15O,1.200000X1.200000*%
%ADD16RoundRect,0.250000X0.350000X0.400000X-0.350000X0.400000X-0.350000X-0.400000X0.350000X-0.400000X0*%
G04 APERTURE END LIST*
D10*
%TO.C,J2*%
X5833333Y-1762619D02*
X5833333Y-2476904D01*
X5833333Y-2476904D02*
X5880952Y-2619761D01*
X5880952Y-2619761D02*
X5976190Y-2715000D01*
X5976190Y-2715000D02*
X6119047Y-2762619D01*
X6119047Y-2762619D02*
X6214285Y-2762619D01*
X5404761Y-1857857D02*
X5357142Y-1810238D01*
X5357142Y-1810238D02*
X5261904Y-1762619D01*
X5261904Y-1762619D02*
X5023809Y-1762619D01*
X5023809Y-1762619D02*
X4928571Y-1810238D01*
X4928571Y-1810238D02*
X4880952Y-1857857D01*
X4880952Y-1857857D02*
X4833333Y-1953095D01*
X4833333Y-1953095D02*
X4833333Y-2048333D01*
X4833333Y-2048333D02*
X4880952Y-2191190D01*
X4880952Y-2191190D02*
X5452380Y-2762619D01*
X5452380Y-2762619D02*
X4833333Y-2762619D01*
%TO.C,J4*%
X6833333Y3137380D02*
X6833333Y2423095D01*
X6833333Y2423095D02*
X6880952Y2280238D01*
X6880952Y2280238D02*
X6976190Y2185000D01*
X6976190Y2185000D02*
X7119047Y2137380D01*
X7119047Y2137380D02*
X7214285Y2137380D01*
X5928571Y2804047D02*
X5928571Y2137380D01*
X6166666Y3185000D02*
X6404761Y2470714D01*
X6404761Y2470714D02*
X5785714Y2470714D01*
D11*
%TO.C,J2*%
X4360000Y210000D02*
X4360000Y-1040000D01*
X4060000Y-4810000D02*
X-4060000Y-4810000D01*
X4060000Y-2700000D02*
X3450000Y-2700000D01*
X4060000Y-1400000D02*
X3450000Y-1400000D01*
X4060000Y-90000D02*
X4060000Y-4810000D01*
X3450000Y-4200000D02*
X-3450000Y-4200000D01*
X3450000Y-700000D02*
X3450000Y-4200000D01*
X3110000Y210000D02*
X4360000Y210000D01*
X2600000Y110000D02*
X2600000Y-90000D01*
X2300000Y-90000D02*
X2300000Y110000D01*
X2300000Y10000D02*
X2600000Y10000D01*
X2300000Y110000D02*
X2600000Y110000D01*
X1500000Y-700000D02*
X3450000Y-700000D01*
X1500000Y-90000D02*
X1500000Y-700000D01*
X1100000Y-4200000D02*
X1100000Y-3700000D01*
X1100000Y-3700000D02*
X900000Y-3700000D01*
X1000000Y-4200000D02*
X1000000Y-3700000D01*
X900000Y-3700000D02*
X900000Y-4200000D01*
X-900000Y-4200000D02*
X-900000Y-3700000D01*
X-900000Y-3700000D02*
X-1100000Y-3700000D01*
X-1000000Y-4200000D02*
X-1000000Y-3700000D01*
X-1100000Y-3700000D02*
X-1100000Y-4200000D01*
X-1500000Y-700000D02*
X-1500000Y-90000D01*
X-3450000Y-4200000D02*
X-3450000Y-700000D01*
X-3450000Y-700000D02*
X-1500000Y-700000D01*
X-4060000Y-4810000D02*
X-4060000Y-90000D01*
X-4060000Y-2700000D02*
X-3450000Y-2700000D01*
X-4060000Y-1400000D02*
X-3450000Y-1400000D01*
X-4060000Y-90000D02*
X4060000Y-90000D01*
%TO.C,J4*%
X5360000Y-210000D02*
X2950000Y-210000D01*
X5360000Y2200000D02*
X5360000Y-210000D01*
X5060000Y90000D02*
X-4060000Y90000D01*
X5060000Y5210000D02*
X5060000Y90000D01*
X-4060000Y90000D02*
X-5060000Y1090000D01*
X-5060000Y1090000D02*
X-5060000Y5210000D01*
X-5060000Y5210000D02*
X5060000Y5210000D01*
%TD*%
%LPC*%
D12*
%TO.C,SERVO*%
X2500000Y5800000D03*
D13*
X0Y5800000D03*
X-2500000Y5800000D03*
%TD*%
D14*
%TO.C,LED*%
X2000000Y-5300000D03*
D15*
X0Y-5300000D03*
X-2000000Y-5300000D03*
%TD*%
D16*
%TO.C,J2*%
X2000000Y-1900000D03*
D15*
X0Y-1900000D03*
X-2000000Y-1900000D03*
%TD*%
D12*
%TO.C,J4*%
X2500000Y2000000D03*
D13*
X0Y2000000D03*
X-2500000Y2000000D03*
%TD*%
M02*
