%TF.GenerationSoftware,KiCad,Pcbnew,7.0.1*%
%TF.CreationDate,2024-02-10T23:36:13+09:00*%
%TF.ProjectId,connect,636f6e6e-6563-4742-9e6b-696361645f70,rev?*%
%TF.SameCoordinates,Original*%
%TF.FileFunction,Copper,L1,Top*%
%TF.FilePolarity,Positive*%
%FSLAX46Y46*%
G04 Gerber Fmt 4.6, Leading zero omitted, Abs format (unit mm)*
G04 Created by KiCad (PCBNEW 7.0.1) date 2024-02-10 23:36:13*
%MOMM*%
%LPD*%
G01*
G04 APERTURE LIST*
G04 Aperture macros list*
%AMRoundRect*
0 Rectangle with rounded corners*
0 $1 Rounding radius*
0 $2 $3 $4 $5 $6 $7 $8 $9 X,Y pos of 4 corners*
0 Add a 4 corners polygon primitive as box body*
4,1,4,$2,$3,$4,$5,$6,$7,$8,$9,$2,$3,0*
0 Add four circle primitives for the rounded corners*
1,1,$1+$1,$2,$3*
1,1,$1+$1,$4,$5*
1,1,$1+$1,$6,$7*
1,1,$1+$1,$8,$9*
0 Add four rect primitives between the rounded corners*
20,1,$1+$1,$2,$3,$4,$5,0*
20,1,$1+$1,$4,$5,$6,$7,0*
20,1,$1+$1,$6,$7,$8,$9,0*
20,1,$1+$1,$8,$9,$2,$3,0*%
G04 Aperture macros list end*
%TA.AperFunction,ComponentPad*%
%ADD10RoundRect,0.205882X0.494118X0.494118X-0.494118X0.494118X-0.494118X-0.494118X0.494118X-0.494118X0*%
%TD*%
%TA.AperFunction,ComponentPad*%
%ADD11O,1.400000X1.400000*%
%TD*%
%TA.AperFunction,ComponentPad*%
%ADD12RoundRect,0.250000X0.350000X0.350000X-0.350000X0.350000X-0.350000X-0.350000X0.350000X-0.350000X0*%
%TD*%
%TA.AperFunction,ComponentPad*%
%ADD13O,1.200000X1.200000*%
%TD*%
%TA.AperFunction,ComponentPad*%
%ADD14RoundRect,0.250000X0.350000X0.400000X-0.350000X0.400000X-0.350000X-0.400000X0.350000X-0.400000X0*%
%TD*%
%TA.AperFunction,ViaPad*%
%ADD15C,0.800000*%
%TD*%
%TA.AperFunction,Conductor*%
%ADD16C,1.000000*%
%TD*%
G04 APERTURE END LIST*
D10*
%TO.P,SERVO,1,Pin_1*%
%TO.N,GND*%
X2500000Y5800000D03*
D11*
%TO.P,SERVO,2,Pin_2*%
%TO.N,Net-(J3-Pin_2)*%
X0Y5800000D03*
%TO.P,SERVO,3,Pin_3*%
%TO.N,Net-(J3-Pin_3)*%
X-2500000Y5800000D03*
%TD*%
D12*
%TO.P,LED,1,Pin_1*%
%TO.N,GND*%
X2000000Y-5300000D03*
D13*
%TO.P,LED,2,Pin_2*%
%TO.N,Net-(J1-Pin_2)*%
X0Y-5300000D03*
%TO.P,LED,3,Pin_3*%
%TO.N,Net-(J1-Pin_3)*%
X-2000000Y-5300000D03*
%TD*%
D14*
%TO.P,J2,1,Pin_1*%
%TO.N,GND*%
X2000000Y-1900000D03*
D13*
%TO.P,J2,2,Pin_2*%
%TO.N,Net-(J1-Pin_2)*%
X0Y-1900000D03*
%TO.P,J2,3,Pin_3*%
%TO.N,Net-(J1-Pin_3)*%
X-2000000Y-1900000D03*
%TD*%
D10*
%TO.P,J4,1,Pin_1*%
%TO.N,GND*%
X2500000Y2000000D03*
D11*
%TO.P,J4,2,Pin_2*%
%TO.N,Net-(J3-Pin_2)*%
X0Y2000000D03*
%TO.P,J4,3,Pin_3*%
%TO.N,Net-(J3-Pin_3)*%
X-2500000Y2000000D03*
%TD*%
D15*
%TO.N,GND*%
X11000000Y-7500000D03*
X-11000000Y-7500000D03*
X-11000000Y7500000D03*
X1500000Y-3600000D03*
X-7500000Y11000000D03*
X1500000Y3900000D03*
X7500000Y11000000D03*
X7500000Y-11000000D03*
X11000000Y7500000D03*
X-7500000Y-11000000D03*
%TD*%
D16*
%TO.N,Net-(J1-Pin_2)*%
X0Y-5800000D02*
X0Y-2000000D01*
%TO.N,Net-(J1-Pin_3)*%
X-2000000Y-5800000D02*
X-2000000Y-2000000D01*
%TO.N,Net-(J3-Pin_2)*%
X0Y2000000D02*
X0Y6000000D01*
%TO.N,Net-(J3-Pin_3)*%
X-2500000Y2000000D02*
X-2500000Y6000000D01*
%TD*%
%TA.AperFunction,Conductor*%
%TO.N,GND*%
G36*
X375976Y13994363D02*
G01*
X1113656Y13955046D01*
X1120236Y13954520D01*
X1854820Y13875993D01*
X1861364Y13875116D01*
X2590686Y13757611D01*
X2597173Y13756388D01*
X3319227Y13600231D01*
X3325641Y13598664D01*
X4038357Y13404298D01*
X4044678Y13402392D01*
X4746032Y13170372D01*
X4752242Y13168133D01*
X5440271Y12899108D01*
X5446353Y12896541D01*
X6119077Y12591284D01*
X6125014Y12588397D01*
X6780532Y12247772D01*
X6786308Y12244573D01*
X7422791Y11869529D01*
X7428387Y11866027D01*
X8043991Y11457650D01*
X8049394Y11453855D01*
X8642385Y11013298D01*
X8647577Y11009222D01*
X8784370Y10895810D01*
X8820582Y10845842D01*
X8828223Y10784605D01*
X8805399Y10727268D01*
X8757765Y10688033D01*
X8697119Y10676618D01*
X8485281Y10690503D01*
X8197442Y10671637D01*
X8197437Y10671636D01*
X8197435Y10671636D01*
X8056956Y10643692D01*
X7914528Y10615362D01*
X7801742Y10577076D01*
X7641378Y10522640D01*
X7540686Y10472984D01*
X7382670Y10395059D01*
X7142827Y10234801D01*
X6925954Y10044608D01*
X6804307Y9905896D01*
X6735760Y9827734D01*
X6575502Y9587891D01*
X6447921Y9329183D01*
X6355199Y9056031D01*
X6298925Y8773126D01*
X6298925Y8773120D01*
X6280059Y8485281D01*
X6289002Y8348845D01*
X6298925Y8197435D01*
X6355199Y7914530D01*
X6447921Y7641378D01*
X6575502Y7382670D01*
X6735760Y7142827D01*
X6925954Y6925954D01*
X7142827Y6735760D01*
X7382670Y6575502D01*
X7641378Y6447921D01*
X7914530Y6355199D01*
X8197435Y6298925D01*
X8485281Y6280059D01*
X8773126Y6298925D01*
X9056031Y6355199D01*
X9329183Y6447921D01*
X9587891Y6575502D01*
X9827734Y6735760D01*
X9962396Y6853856D01*
X10044608Y6925954D01*
X10234801Y7142827D01*
X10395059Y7382670D01*
X10522640Y7641379D01*
X10615362Y7914528D01*
X10671637Y8197442D01*
X10690503Y8485281D01*
X10676640Y8696786D01*
X10688335Y8758030D01*
X10728359Y8805840D01*
X10786592Y8828127D01*
X10848309Y8819255D01*
X10897906Y8781468D01*
X11235512Y8351456D01*
X11239450Y8346156D01*
X11664087Y7741614D01*
X11667736Y7736113D01*
X12059571Y7109871D01*
X12062923Y7104183D01*
X12420884Y6457952D01*
X12423928Y6452094D01*
X12746988Y5787733D01*
X12749716Y5781721D01*
X13036956Y5101109D01*
X13039360Y5094961D01*
X13289975Y4400013D01*
X13292048Y4393745D01*
X13505314Y3686467D01*
X13507051Y3680097D01*
X13682373Y2962465D01*
X13683769Y2956013D01*
X13820651Y2230051D01*
X13821701Y2223533D01*
X13919751Y1491333D01*
X13920453Y1484768D01*
X13979395Y748368D01*
X13979746Y741776D01*
X13999412Y3301D01*
X13999412Y-3301D01*
X13979746Y-741776D01*
X13979395Y-748368D01*
X13920453Y-1484768D01*
X13919751Y-1491333D01*
X13821701Y-2223533D01*
X13820651Y-2230051D01*
X13683769Y-2956013D01*
X13682373Y-2962465D01*
X13507051Y-3680097D01*
X13505314Y-3686467D01*
X13292048Y-4393745D01*
X13289975Y-4400013D01*
X13039360Y-5094961D01*
X13036956Y-5101109D01*
X12749716Y-5781721D01*
X12746988Y-5787733D01*
X12423928Y-6452094D01*
X12420884Y-6457952D01*
X12062923Y-7104183D01*
X12059571Y-7109871D01*
X11667736Y-7736113D01*
X11664087Y-7741614D01*
X11239450Y-8346156D01*
X11235512Y-8351456D01*
X10897906Y-8781468D01*
X10848309Y-8819255D01*
X10786592Y-8828127D01*
X10728359Y-8805840D01*
X10688335Y-8758030D01*
X10676640Y-8696785D01*
X10690503Y-8485281D01*
X10671637Y-8197442D01*
X10615362Y-7914528D01*
X10522640Y-7641379D01*
X10395059Y-7382670D01*
X10234801Y-7142827D01*
X10044608Y-6925954D01*
X9827735Y-6735761D01*
X9787467Y-6708855D01*
X9587891Y-6575502D01*
X9329183Y-6447921D01*
X9056031Y-6355199D01*
X8773126Y-6298925D01*
X8485281Y-6280059D01*
X8197435Y-6298925D01*
X7914530Y-6355199D01*
X7641378Y-6447921D01*
X7382670Y-6575502D01*
X7142827Y-6735760D01*
X6925954Y-6925954D01*
X6735760Y-7142827D01*
X6575502Y-7382670D01*
X6447921Y-7641378D01*
X6355199Y-7914530D01*
X6298925Y-8197435D01*
X6288830Y-8351456D01*
X6280059Y-8485281D01*
X6282754Y-8526400D01*
X6298925Y-8773126D01*
X6355199Y-9056031D01*
X6447921Y-9329183D01*
X6575502Y-9587891D01*
X6575503Y-9587892D01*
X6735761Y-9827735D01*
X6925954Y-10044608D01*
X7142827Y-10234801D01*
X7382670Y-10395059D01*
X7641378Y-10522640D01*
X7732428Y-10553547D01*
X7914528Y-10615362D01*
X8056956Y-10643692D01*
X8197435Y-10671636D01*
X8197437Y-10671636D01*
X8197442Y-10671637D01*
X8485281Y-10690503D01*
X8697119Y-10676618D01*
X8757765Y-10688033D01*
X8805399Y-10727268D01*
X8828223Y-10784605D01*
X8820582Y-10845842D01*
X8784370Y-10895810D01*
X8685329Y-10977922D01*
X8647577Y-11009222D01*
X8642385Y-11013298D01*
X8049394Y-11453855D01*
X8043991Y-11457650D01*
X7428387Y-11866027D01*
X7422791Y-11869529D01*
X6786308Y-12244573D01*
X6780532Y-12247772D01*
X6125014Y-12588397D01*
X6119077Y-12591284D01*
X5446353Y-12896541D01*
X5440271Y-12899108D01*
X4752242Y-13168133D01*
X4746032Y-13170372D01*
X4044678Y-13402392D01*
X4038357Y-13404298D01*
X3325641Y-13598664D01*
X3319227Y-13600231D01*
X2597173Y-13756388D01*
X2590686Y-13757611D01*
X1861364Y-13875116D01*
X1854820Y-13875993D01*
X1120236Y-13954520D01*
X1113656Y-13955046D01*
X375976Y-13994363D01*
X369376Y-13994539D01*
X-369376Y-13994539D01*
X-375976Y-13994363D01*
X-1113656Y-13955046D01*
X-1120236Y-13954520D01*
X-1854820Y-13875993D01*
X-1861364Y-13875116D01*
X-2590686Y-13757611D01*
X-2597173Y-13756388D01*
X-3319227Y-13600231D01*
X-3325641Y-13598664D01*
X-4038357Y-13404298D01*
X-4044678Y-13402392D01*
X-4746032Y-13170372D01*
X-4752242Y-13168133D01*
X-5440271Y-12899108D01*
X-5446353Y-12896541D01*
X-6119077Y-12591284D01*
X-6125014Y-12588397D01*
X-6780532Y-12247772D01*
X-6786308Y-12244573D01*
X-7422791Y-11869529D01*
X-7428387Y-11866027D01*
X-8043991Y-11457650D01*
X-8049394Y-11453855D01*
X-8642385Y-11013298D01*
X-8647577Y-11009222D01*
X-8685329Y-10977922D01*
X-8784370Y-10895810D01*
X-8820582Y-10845842D01*
X-8828223Y-10784605D01*
X-8805399Y-10727268D01*
X-8757765Y-10688033D01*
X-8697119Y-10676618D01*
X-8485281Y-10690503D01*
X-8197442Y-10671637D01*
X-8197437Y-10671636D01*
X-8197435Y-10671636D01*
X-8056956Y-10643692D01*
X-7914528Y-10615362D01*
X-7732428Y-10553547D01*
X-7641378Y-10522640D01*
X-7382670Y-10395059D01*
X-7142827Y-10234801D01*
X-6925954Y-10044608D01*
X-6735761Y-9827735D01*
X-6575503Y-9587892D01*
X-6575502Y-9587891D01*
X-6447921Y-9329183D01*
X-6355199Y-9056031D01*
X-6298925Y-8773126D01*
X-6282754Y-8526400D01*
X-6280059Y-8485281D01*
X-6288830Y-8351456D01*
X-6298925Y-8197435D01*
X-6355199Y-7914530D01*
X-6447921Y-7641378D01*
X-6575502Y-7382670D01*
X-6735760Y-7142827D01*
X-6925954Y-6925954D01*
X-7142827Y-6735760D01*
X-7382670Y-6575502D01*
X-7641378Y-6447921D01*
X-7914530Y-6355199D01*
X-8197435Y-6298925D01*
X-8485281Y-6280059D01*
X-8773126Y-6298925D01*
X-9056031Y-6355199D01*
X-9329183Y-6447921D01*
X-9587891Y-6575502D01*
X-9787468Y-6708855D01*
X-9827735Y-6735761D01*
X-10044608Y-6925954D01*
X-10234801Y-7142827D01*
X-10395059Y-7382670D01*
X-10522640Y-7641379D01*
X-10615362Y-7914528D01*
X-10671637Y-8197442D01*
X-10690503Y-8485281D01*
X-10676640Y-8696785D01*
X-10688335Y-8758030D01*
X-10728359Y-8805840D01*
X-10786592Y-8828127D01*
X-10848309Y-8819255D01*
X-10897906Y-8781468D01*
X-11235512Y-8351456D01*
X-11239450Y-8346156D01*
X-11664087Y-7741614D01*
X-11667736Y-7736113D01*
X-12059571Y-7109871D01*
X-12062923Y-7104183D01*
X-12420884Y-6457952D01*
X-12423928Y-6452094D01*
X-12746988Y-5787733D01*
X-12749716Y-5781721D01*
X-12953018Y-5300000D01*
X-3105215Y-5300000D01*
X-3086397Y-5503083D01*
X-3030582Y-5699250D01*
X-3013500Y-5733555D01*
X-3000500Y-5788827D01*
X-3000500Y-5850742D01*
X-2985074Y-6002438D01*
X-2924159Y-6196588D01*
X-2825409Y-6374502D01*
X-2692866Y-6528895D01*
X-2531958Y-6653448D01*
X-2349271Y-6743060D01*
X-2152285Y-6794063D01*
X-1949064Y-6804369D01*
X-1949063Y-6804368D01*
X-1949062Y-6804369D01*
X-1747928Y-6773556D01*
X-1557113Y-6702886D01*
X-1384431Y-6595254D01*
X-1363652Y-6575502D01*
X-1236947Y-6455059D01*
X-1120705Y-6288049D01*
X-1112558Y-6269065D01*
X-1069445Y-6216191D01*
X-1004888Y-6194125D01*
X-938430Y-6209547D01*
X-890190Y-6257787D01*
X-825409Y-6374502D01*
X-692866Y-6528895D01*
X-531958Y-6653448D01*
X-349271Y-6743060D01*
X-152285Y-6794063D01*
X50936Y-6804369D01*
X50936Y-6804368D01*
X50937Y-6804369D01*
X252071Y-6773556D01*
X334413Y-6743060D01*
X442887Y-6702886D01*
X615571Y-6595252D01*
X763053Y-6455059D01*
X879295Y-6288049D01*
X911629Y-6212700D01*
X947828Y-6165007D01*
X1002158Y-6139835D01*
X1061950Y-6143057D01*
X1113260Y-6173922D01*
X1181654Y-6242316D01*
X1330877Y-6334357D01*
X1497303Y-6389506D01*
X1600021Y-6400000D01*
X1750000Y-6400000D01*
X1750000Y-5550000D01*
X2250000Y-5550000D01*
X2250000Y-6399999D01*
X2399979Y-6399999D01*
X2502695Y-6389506D01*
X2669122Y-6334357D01*
X2818345Y-6242316D01*
X2942316Y-6118345D01*
X3034357Y-5969122D01*
X3089506Y-5802696D01*
X3100000Y-5699979D01*
X3100000Y-5550000D01*
X2250000Y-5550000D01*
X1750000Y-5550000D01*
X1750000Y-4200001D01*
X1600021Y-4200001D01*
X1497304Y-4210493D01*
X1330877Y-4265642D01*
X1189596Y-4352785D01*
X1127204Y-4371217D01*
X1064068Y-4355523D01*
X1017566Y-4310025D01*
X1000500Y-4247246D01*
X1000500Y-4200000D01*
X2250000Y-4200000D01*
X2250000Y-5050000D01*
X3099999Y-5050000D01*
X3099999Y-4900021D01*
X3089506Y-4797304D01*
X3034357Y-4630877D01*
X2942316Y-4481654D01*
X2818345Y-4357683D01*
X2669122Y-4265642D01*
X2502696Y-4210493D01*
X2399979Y-4200000D01*
X2250000Y-4200000D01*
X1000500Y-4200000D01*
X1000500Y-3002754D01*
X1017566Y-2939975D01*
X1064068Y-2894477D01*
X1127204Y-2878783D01*
X1189596Y-2897215D01*
X1330877Y-2984357D01*
X1497303Y-3039506D01*
X1600021Y-3050000D01*
X1750000Y-3050000D01*
X1750000Y-2150000D01*
X2250000Y-2150000D01*
X2250000Y-3049999D01*
X2399979Y-3049999D01*
X2502695Y-3039506D01*
X2669122Y-2984357D01*
X2818345Y-2892316D01*
X2942316Y-2768345D01*
X3034357Y-2619122D01*
X3089506Y-2452696D01*
X3100000Y-2349979D01*
X3100000Y-2150000D01*
X2250000Y-2150000D01*
X1750000Y-2150000D01*
X1750000Y-750001D01*
X1600021Y-750001D01*
X1497304Y-760493D01*
X1330877Y-815642D01*
X1181654Y-907683D01*
X1057682Y-1031655D01*
X1000638Y-1124138D01*
X962928Y-1162845D01*
X912336Y-1181837D01*
X858471Y-1177507D01*
X811562Y-1150678D01*
X666041Y-1018018D01*
X492638Y-910652D01*
X302457Y-836976D01*
X235629Y-824484D01*
X101976Y-799500D01*
X-101976Y-799500D01*
X-235629Y-824484D01*
X-302457Y-836976D01*
X-492638Y-910652D01*
X-666041Y-1018018D01*
X-816763Y-1155419D01*
X-901046Y-1267028D01*
X-944729Y-1303301D01*
X-1000000Y-1316301D01*
X-1055271Y-1303301D01*
X-1098954Y-1267028D01*
X-1183236Y-1155419D01*
X-1333958Y-1018018D01*
X-1507361Y-910652D01*
X-1697542Y-836976D01*
X-1797783Y-818238D01*
X-1898024Y-799500D01*
X-2101976Y-799500D01*
X-2235629Y-824484D01*
X-2302457Y-836976D01*
X-2492638Y-910652D01*
X-2666041Y-1018018D01*
X-2816763Y-1155419D01*
X-2939675Y-1318181D01*
X-3000000Y-1439332D01*
X-3030582Y-1500750D01*
X-3086397Y-1696917D01*
X-3105215Y-1900000D01*
X-3086397Y-2103083D01*
X-3030582Y-2299250D01*
X-3013500Y-2333555D01*
X-3000500Y-2388827D01*
X-3000500Y-4811173D01*
X-3013500Y-4866445D01*
X-3030582Y-4900751D01*
X-3086397Y-5096916D01*
X-3087992Y-5114138D01*
X-3105215Y-5300000D01*
X-12953018Y-5300000D01*
X-13036956Y-5101109D01*
X-13039360Y-5094961D01*
X-13289975Y-4400013D01*
X-13292048Y-4393745D01*
X-13505314Y-3686467D01*
X-13507051Y-3680097D01*
X-13682373Y-2962465D01*
X-13683769Y-2956013D01*
X-13820651Y-2230051D01*
X-13821701Y-2223533D01*
X-13919751Y-1491333D01*
X-13920453Y-1484768D01*
X-13979264Y-750000D01*
X2250000Y-750000D01*
X2250000Y-1650000D01*
X3099999Y-1650000D01*
X3099999Y-1450021D01*
X3089506Y-1347304D01*
X3034357Y-1180877D01*
X2942316Y-1031654D01*
X2818345Y-907683D01*
X2669122Y-815642D01*
X2502696Y-760493D01*
X2399979Y-750000D01*
X2250000Y-750000D01*
X-13979264Y-750000D01*
X-13979395Y-748368D01*
X-13979746Y-741776D01*
X-13999412Y-3301D01*
X-13999412Y3301D01*
X-13979746Y741776D01*
X-13979395Y748368D01*
X-13920453Y1484768D01*
X-13919751Y1491333D01*
X-13851635Y2000000D01*
X-3705643Y2000000D01*
X-3685115Y1778464D01*
X-3685114Y1778462D01*
X-3624230Y1564473D01*
X-3525058Y1365311D01*
X-3390980Y1187762D01*
X-3226562Y1037875D01*
X-3037404Y920754D01*
X-3037401Y920753D01*
X-2829940Y840382D01*
X-2611243Y799500D01*
X-2388759Y799500D01*
X-2388757Y799500D01*
X-2170060Y840382D01*
X-2125979Y857459D01*
X-1962595Y920754D01*
X-1773437Y1037875D01*
X-1609019Y1187762D01*
X-1474941Y1365311D01*
X-1375770Y1564472D01*
X-1369266Y1587333D01*
X-1336867Y1641886D01*
X-1281724Y1673271D01*
X-1218276Y1673271D01*
X-1163133Y1641886D01*
X-1130734Y1587333D01*
X-1124229Y1564472D01*
X-1025058Y1365311D01*
X-890980Y1187762D01*
X-726562Y1037875D01*
X-537404Y920754D01*
X-537401Y920753D01*
X-329940Y840382D01*
X-111243Y799500D01*
X111241Y799500D01*
X111243Y799500D01*
X329940Y840382D01*
X537401Y920753D01*
X537404Y920754D01*
X726562Y1037875D01*
X890980Y1187762D01*
X1025060Y1365313D01*
X1069069Y1453696D01*
X1110977Y1501392D01*
X1170999Y1522093D01*
X1233399Y1510371D01*
X1281818Y1469300D01*
X1303560Y1409647D01*
X1306462Y1377709D01*
X1357460Y1214052D01*
X1446143Y1067352D01*
X1567352Y946143D01*
X1714053Y857459D01*
X1877707Y806463D01*
X1948832Y800000D01*
X2250000Y800000D01*
X2250000Y1750000D01*
X2750000Y1750000D01*
X2750000Y800001D01*
X3051171Y800001D01*
X3122290Y806462D01*
X3285947Y857460D01*
X3432647Y946143D01*
X3553856Y1067352D01*
X3642540Y1214053D01*
X3693536Y1377707D01*
X3700000Y1448832D01*
X3700000Y1750000D01*
X2750000Y1750000D01*
X2250000Y1750000D01*
X2250000Y3199999D01*
X1948829Y3199999D01*
X1877709Y3193537D01*
X1714052Y3142539D01*
X1567352Y3053856D01*
X1446143Y2932647D01*
X1357459Y2785946D01*
X1306463Y2622292D01*
X1303560Y2590349D01*
X1281817Y2530697D01*
X1233398Y2489627D01*
X1170998Y2477905D01*
X1110976Y2498606D01*
X1069070Y2546299D01*
X1025058Y2634689D01*
X1025054Y2634694D01*
X1022557Y2639709D01*
X1006928Y2669364D01*
X1000500Y2708769D01*
X1000500Y3200000D01*
X2750000Y3200000D01*
X2750000Y2250000D01*
X3699999Y2250000D01*
X3699999Y2551171D01*
X3693537Y2622290D01*
X3642539Y2785947D01*
X3553856Y2932647D01*
X3432647Y3053856D01*
X3285946Y3142540D01*
X3122292Y3193536D01*
X3051168Y3200000D01*
X2750000Y3200000D01*
X1000500Y3200000D01*
X1000500Y5091231D01*
X1006928Y5130636D01*
X1022549Y5160273D01*
X1025058Y5165311D01*
X1069070Y5253700D01*
X1110977Y5301394D01*
X1170999Y5322094D01*
X1233400Y5310372D01*
X1281818Y5269300D01*
X1303560Y5209647D01*
X1306462Y5177710D01*
X1357460Y5014052D01*
X1446143Y4867352D01*
X1567352Y4746143D01*
X1714053Y4657459D01*
X1877707Y4606463D01*
X1948832Y4600000D01*
X2250000Y4600000D01*
X2250000Y5550000D01*
X2750000Y5550000D01*
X2750000Y4600001D01*
X3051171Y4600001D01*
X3122290Y4606462D01*
X3285947Y4657460D01*
X3432647Y4746143D01*
X3553856Y4867352D01*
X3642540Y5014053D01*
X3693536Y5177707D01*
X3700000Y5248832D01*
X3700000Y5550000D01*
X2750000Y5550000D01*
X2250000Y5550000D01*
X2250000Y6999999D01*
X1948829Y6999999D01*
X1877709Y6993537D01*
X1714052Y6942539D01*
X1567352Y6853856D01*
X1446143Y6732647D01*
X1357459Y6585946D01*
X1306463Y6422292D01*
X1303560Y6390350D01*
X1281817Y6330698D01*
X1233398Y6289627D01*
X1170998Y6277906D01*
X1110976Y6298607D01*
X1069070Y6346299D01*
X1025058Y6434689D01*
X890981Y6612236D01*
X726562Y6762124D01*
X537401Y6879247D01*
X329940Y6959618D01*
X173591Y6988844D01*
X165330Y6990685D01*
X152285Y6994063D01*
X151542Y6994100D01*
X135027Y6996053D01*
X113917Y7000000D01*
X2750000Y7000000D01*
X2750000Y6050000D01*
X3699999Y6050000D01*
X3699999Y6351171D01*
X3693537Y6422290D01*
X3642539Y6585947D01*
X3553856Y6732647D01*
X3432647Y6853856D01*
X3285946Y6942540D01*
X3122292Y6993536D01*
X3051168Y7000000D01*
X2750000Y7000000D01*
X113917Y7000000D01*
X111243Y7000500D01*
X28501Y7000500D01*
X22221Y7000658D01*
X-8212Y7002202D01*
X-50935Y7004369D01*
X-50935Y7004368D01*
X-50936Y7004369D01*
X-66857Y7001929D01*
X-85635Y7000500D01*
X-111243Y7000500D01*
X-329940Y6959618D01*
X-537401Y6879247D01*
X-726562Y6762124D01*
X-890981Y6612236D01*
X-1025058Y6434689D01*
X-1092661Y6298925D01*
X-1124230Y6235526D01*
X-1130734Y6212667D01*
X-1163133Y6158113D01*
X-1218275Y6126728D01*
X-1281725Y6126728D01*
X-1336867Y6158113D01*
X-1369266Y6212667D01*
X-1375769Y6235526D01*
X-1474941Y6434688D01*
X-1609019Y6612237D01*
X-1773437Y6762124D01*
X-1962595Y6879245D01*
X-1962597Y6879245D01*
X-1962599Y6879247D01*
X-2170060Y6959618D01*
X-2326379Y6988839D01*
X-2334664Y6990683D01*
X-2347715Y6994063D01*
X-2348457Y6994100D01*
X-2364958Y6996050D01*
X-2388757Y7000500D01*
X-2388761Y7000500D01*
X-2471499Y7000500D01*
X-2477778Y7000658D01*
X-2508212Y7002202D01*
X-2550935Y7004369D01*
X-2550935Y7004368D01*
X-2550936Y7004369D01*
X-2566857Y7001929D01*
X-2585635Y7000500D01*
X-2611243Y7000500D01*
X-2829940Y6959618D01*
X-3037401Y6879247D01*
X-3226562Y6762124D01*
X-3390981Y6612236D01*
X-3525058Y6434689D01*
X-3624229Y6235528D01*
X-3685115Y6021536D01*
X-3705643Y5800000D01*
X-3685115Y5578464D01*
X-3685114Y5578462D01*
X-3624230Y5364474D01*
X-3624229Y5364472D01*
X-3525058Y5165311D01*
X-3525055Y5165307D01*
X-3522549Y5160274D01*
X-3506928Y5130636D01*
X-3500500Y5091231D01*
X-3500500Y2708769D01*
X-3506928Y2669364D01*
X-3522549Y2639725D01*
X-3525054Y2634694D01*
X-3525058Y2634689D01*
X-3624229Y2435528D01*
X-3685115Y2221536D01*
X-3705643Y2000000D01*
X-13851635Y2000000D01*
X-13821701Y2223533D01*
X-13820651Y2230051D01*
X-13683769Y2956013D01*
X-13682373Y2962465D01*
X-13507051Y3680097D01*
X-13505314Y3686467D01*
X-13292048Y4393745D01*
X-13289975Y4400013D01*
X-13039360Y5094961D01*
X-13036956Y5101109D01*
X-12749716Y5781721D01*
X-12746988Y5787733D01*
X-12423928Y6452094D01*
X-12420884Y6457952D01*
X-12062923Y7104183D01*
X-12059571Y7109871D01*
X-11667736Y7736113D01*
X-11664087Y7741614D01*
X-11239450Y8346156D01*
X-11235512Y8351456D01*
X-10897906Y8781468D01*
X-10848309Y8819255D01*
X-10786592Y8828127D01*
X-10728359Y8805840D01*
X-10688335Y8758030D01*
X-10676640Y8696786D01*
X-10690503Y8485281D01*
X-10671637Y8197442D01*
X-10615362Y7914528D01*
X-10522640Y7641379D01*
X-10395059Y7382670D01*
X-10234801Y7142827D01*
X-10044608Y6925954D01*
X-9962396Y6853856D01*
X-9827734Y6735760D01*
X-9587891Y6575502D01*
X-9329183Y6447921D01*
X-9056031Y6355199D01*
X-8773126Y6298925D01*
X-8485281Y6280059D01*
X-8197435Y6298925D01*
X-7914530Y6355199D01*
X-7641378Y6447921D01*
X-7382670Y6575502D01*
X-7142827Y6735760D01*
X-6925954Y6925954D01*
X-6735760Y7142827D01*
X-6575502Y7382670D01*
X-6447921Y7641378D01*
X-6355199Y7914530D01*
X-6298925Y8197435D01*
X-6289002Y8348845D01*
X-6280059Y8485281D01*
X-6298925Y8773120D01*
X-6298925Y8773126D01*
X-6355199Y9056031D01*
X-6447921Y9329183D01*
X-6575502Y9587891D01*
X-6735760Y9827734D01*
X-6804307Y9905896D01*
X-6925954Y10044608D01*
X-7142827Y10234801D01*
X-7382670Y10395059D01*
X-7540686Y10472984D01*
X-7641378Y10522640D01*
X-7801742Y10577076D01*
X-7914528Y10615362D01*
X-8056956Y10643692D01*
X-8197435Y10671636D01*
X-8197437Y10671636D01*
X-8197442Y10671637D01*
X-8485281Y10690503D01*
X-8697119Y10676618D01*
X-8757765Y10688033D01*
X-8805399Y10727268D01*
X-8828223Y10784605D01*
X-8820582Y10845842D01*
X-8784370Y10895810D01*
X-8647577Y11009222D01*
X-8642385Y11013298D01*
X-8049394Y11453855D01*
X-8043991Y11457650D01*
X-7428387Y11866027D01*
X-7422791Y11869529D01*
X-6786308Y12244573D01*
X-6780532Y12247772D01*
X-6125014Y12588397D01*
X-6119077Y12591284D01*
X-5446353Y12896541D01*
X-5440271Y12899108D01*
X-4752242Y13168133D01*
X-4746032Y13170372D01*
X-4044678Y13402392D01*
X-4038357Y13404298D01*
X-3325641Y13598664D01*
X-3319227Y13600231D01*
X-2597173Y13756388D01*
X-2590686Y13757611D01*
X-1861364Y13875116D01*
X-1854820Y13875993D01*
X-1120236Y13954520D01*
X-1113656Y13955046D01*
X-375976Y13994363D01*
X-369376Y13994539D01*
X369376Y13994539D01*
X375976Y13994363D01*
G37*
%TD.AperFunction*%
%TD*%
M02*
