M48
; DRILL file {KiCad 7.0.1} date Sat Feb 10 23:36:13 2024
; FORMAT={-:-/ absolute / inch / decimal}
; #@! TF.CreationDate,2024-02-10T23:36:13+09:00
; #@! TF.GenerationSoftware,Kicad,Pcbnew,7.0.1
; #@! TF.FileFunction,Plated,1,2,PTH
FMAT,2
INCH
; #@! TA.AperFunction,Plated,PTH,ViaDrill
T1C0.0157
; #@! TA.AperFunction,Plated,PTH,ComponentDrill
T2C0.0295
; #@! TA.AperFunction,Plated,PTH,ComponentDrill
T3C0.0335
%
G90
G05
T1
X-0.4331Y0.2953
X-0.4331Y-0.2953
X-0.2953Y0.4331
X-0.2953Y-0.4331
X0.0591Y0.1535
X0.0591Y-0.1417
X0.2953Y0.4331
X0.2953Y-0.4331
X0.4331Y0.2953
X0.4331Y-0.2953
T2
X-0.0787Y-0.0748
X-0.0787Y-0.2087
X0.0Y-0.0748
X0.0Y-0.2087
X0.0787Y-0.0748
X0.0787Y-0.2087
T3
X-0.0984Y0.2283
X-0.0984Y0.0787
X0.0Y0.2283
X0.0Y0.0787
X0.0984Y0.2283
X0.0984Y0.0787
T0
M30
