%TF.GenerationSoftware,KiCad,Pcbnew,(6.0.11)*%
%TF.CreationDate,2024-02-10T16:44:09+09:00*%
%TF.ProjectId,IR,49522e6b-6963-4616-945f-706362585858,rev?*%
%TF.SameCoordinates,Original*%
%TF.FileFunction,Soldermask,Top*%
%TF.FilePolarity,Negative*%
%FSLAX46Y46*%
G04 Gerber Fmt 4.6, Leading zero omitted, Abs format (unit mm)*
G04 Created by KiCad (PCBNEW (6.0.11)) date 2024-02-10 16:44:09*
%MOMM*%
%LPD*%
G01*
G04 APERTURE LIST*
G04 Aperture macros list*
%AMRoundRect*
0 Rectangle with rounded corners*
0 $1 Rounding radius*
0 $2 $3 $4 $5 $6 $7 $8 $9 X,Y pos of 4 corners*
0 Add a 4 corners polygon primitive as box body*
4,1,4,$2,$3,$4,$5,$6,$7,$8,$9,$2,$3,0*
0 Add four circle primitives for the rounded corners*
1,1,$1+$1,$2,$3*
1,1,$1+$1,$4,$5*
1,1,$1+$1,$6,$7*
1,1,$1+$1,$8,$9*
0 Add four rect primitives between the rounded corners*
20,1,$1+$1,$2,$3,$4,$5,0*
20,1,$1+$1,$4,$5,$6,$7,0*
20,1,$1+$1,$6,$7,$8,$9,0*
20,1,$1+$1,$8,$9,$2,$3,0*%
%AMRotRect*
0 Rectangle, with rotation*
0 The origin of the aperture is its center*
0 $1 length*
0 $2 width*
0 $3 Rotation angle, in degrees counterclockwise*
0 Add horizontal line*
21,1,$1,$2,0,0,$3*%
G04 Aperture macros list end*
%ADD10RoundRect,0.400000X0.176777X0.742462X-0.742462X-0.176777X-0.176777X-0.742462X0.742462X0.176777X0*%
%ADD11RoundRect,0.300000X-0.141421X0.565685X-0.565685X0.141421X0.141421X-0.565685X0.565685X-0.141421X0*%
%ADD12R,0.700000X1.000000*%
%ADD13RotRect,1.800000X1.800000X33.750000*%
%ADD14C,1.800000*%
%ADD15RotRect,1.800000X1.800000X213.750000*%
%ADD16RoundRect,0.381000X-0.381000X0.381000X-0.381000X-0.381000X0.381000X-0.381000X0.381000X0.381000X0*%
%ADD17C,1.524000*%
%ADD18RotRect,1.800000X1.800000X191.250000*%
%ADD19R,3.250000X0.740000*%
%ADD20RotRect,1.800000X1.800000X101.250000*%
%ADD21RoundRect,0.250001X-0.799999X1.999999X-0.799999X-1.999999X0.799999X-1.999999X0.799999X1.999999X0*%
%ADD22RotRect,1.800000X1.800000X11.300000*%
%ADD23R,1.600000X1.600000*%
%ADD24O,1.600000X1.600000*%
%ADD25RotRect,1.800000X1.800000X123.750000*%
%ADD26RoundRect,0.237500X-0.287500X-0.237500X0.287500X-0.237500X0.287500X0.237500X-0.287500X0.237500X0*%
%ADD27RoundRect,0.400000X-0.176777X-0.742462X0.742462X0.176777X0.176777X0.742462X-0.742462X-0.176777X0*%
%ADD28RoundRect,0.300000X0.141421X-0.565685X0.565685X-0.141421X-0.141421X0.565685X-0.565685X0.141421X0*%
%ADD29R,1.600000X1.400000*%
%ADD30RotRect,1.800000X1.800000X326.250000*%
%ADD31RoundRect,0.400000X0.650000X0.400000X-0.650000X0.400000X-0.650000X-0.400000X0.650000X-0.400000X0*%
%ADD32RoundRect,0.300000X0.300000X0.500000X-0.300000X0.500000X-0.300000X-0.500000X0.300000X-0.500000X0*%
%ADD33RotRect,1.800000X1.800000X348.750000*%
%ADD34RotRect,1.800000X1.800000X146.250000*%
%ADD35RoundRect,0.237500X0.287500X0.237500X-0.287500X0.237500X-0.287500X-0.237500X0.287500X-0.237500X0*%
%ADD36RotRect,1.800000X1.800000X168.750000*%
%ADD37RotRect,1.800000X1.800000X56.250000*%
%ADD38RoundRect,0.400000X0.742462X-0.176777X-0.176777X0.742462X-0.742462X0.176777X0.176777X-0.742462X0*%
%ADD39RoundRect,0.300000X0.565685X0.141421X0.141421X0.565685X-0.565685X-0.141421X-0.141421X-0.565685X0*%
%ADD40RoundRect,0.400000X0.447448X0.618296X-0.753595X0.120808X-0.447448X-0.618296X0.753595X-0.120808X0*%
%ADD41RoundRect,0.300000X0.085822X0.576745X-0.468506X0.347135X-0.085822X-0.576745X0.468506X-0.347135X0*%
%ADD42RoundRect,0.400000X-0.742462X0.176777X0.176777X-0.742462X0.742462X-0.176777X-0.176777X0.742462X0*%
%ADD43RoundRect,0.300000X-0.565685X-0.141421X-0.141421X-0.565685X0.565685X0.141421X0.141421X0.565685X0*%
%ADD44RotRect,1.800000X1.800000X78.750000*%
%ADD45RoundRect,0.400000X-0.120808X0.753595X-0.618296X-0.447448X0.120808X-0.753595X0.618296X0.447448X0*%
%ADD46RoundRect,0.300000X-0.347135X0.468506X-0.576745X-0.085822X0.347135X-0.468506X0.576745X0.085822X0*%
%ADD47RotRect,1.800000X1.800000X236.250000*%
%ADD48R,1.500000X1.500000*%
%ADD49RoundRect,0.400000X0.400000X-0.650000X0.400000X0.650000X-0.400000X0.650000X-0.400000X-0.650000X0*%
%ADD50RoundRect,0.300000X0.500000X-0.300000X0.500000X0.300000X-0.500000X0.300000X-0.500000X-0.300000X0*%
%ADD51RotRect,1.800000X1.800000X281.250000*%
%ADD52RoundRect,0.400000X-0.447448X-0.618296X0.753595X-0.120808X0.447448X0.618296X-0.753595X0.120808X0*%
%ADD53RoundRect,0.300000X-0.085822X-0.576745X0.468506X-0.347135X0.085822X0.576745X-0.468506X0.347135X0*%
%ADD54RotRect,1.800000X1.800000X258.750000*%
%ADD55RoundRect,0.400000X-0.753595X-0.120808X0.447448X-0.618296X0.753595X0.120808X-0.447448X0.618296X0*%
%ADD56RoundRect,0.300000X-0.468506X-0.347135X0.085822X-0.576745X0.468506X0.347135X-0.085822X0.576745X0*%
%ADD57RoundRect,0.400000X-0.400000X0.650000X-0.400000X-0.650000X0.400000X-0.650000X0.400000X0.650000X0*%
%ADD58RoundRect,0.300000X-0.500000X0.300000X-0.500000X-0.300000X0.500000X-0.300000X0.500000X0.300000X0*%
%ADD59RoundRect,0.400000X0.120808X-0.753595X0.618296X0.447448X-0.120808X0.753595X-0.618296X-0.447448X0*%
%ADD60RoundRect,0.300000X0.347135X-0.468506X0.576745X0.085822X-0.347135X0.468506X-0.576745X-0.085822X0*%
%ADD61RoundRect,0.400000X-0.618296X0.447448X-0.120808X-0.753595X0.618296X-0.447448X0.120808X0.753595X0*%
%ADD62RoundRect,0.300000X-0.576745X0.085822X-0.347135X-0.468506X0.576745X-0.085822X0.347135X0.468506X0*%
%ADD63RoundRect,0.400000X-0.650000X-0.400000X0.650000X-0.400000X0.650000X0.400000X-0.650000X0.400000X0*%
%ADD64RoundRect,0.300000X-0.300000X-0.500000X0.300000X-0.500000X0.300000X0.500000X-0.300000X0.500000X0*%
%ADD65RoundRect,0.381000X-0.381000X-0.381000X0.381000X-0.381000X0.381000X0.381000X-0.381000X0.381000X0*%
%ADD66RotRect,1.800000X1.800000X303.750000*%
%ADD67RoundRect,0.400000X0.753595X0.120808X-0.447448X0.618296X-0.753595X-0.120808X0.447448X-0.618296X0*%
%ADD68RoundRect,0.300000X0.468506X0.347135X-0.085822X0.576745X-0.468506X-0.347135X0.085822X-0.576745X0*%
%ADD69R,1.700000X1.700000*%
%ADD70O,1.700000X1.700000*%
%ADD71RoundRect,0.400000X0.618296X-0.447448X0.120808X0.753595X-0.618296X0.447448X-0.120808X-0.753595X0*%
%ADD72RoundRect,0.300000X0.576745X-0.085822X0.347135X0.468506X-0.576745X0.085822X-0.347135X-0.468506X0*%
%ADD73C,2.000000*%
%ADD74RoundRect,0.250000X0.675000X-0.600000X0.675000X0.600000X-0.675000X0.600000X-0.675000X-0.600000X0*%
%ADD75O,1.850000X1.700000*%
%ADD76RoundRect,0.250000X-0.675000X0.600000X-0.675000X-0.600000X0.675000X-0.600000X0.675000X0.600000X0*%
G04 APERTURE END LIST*
D10*
%TO.C,U12*%
X107856369Y-46655723D03*
D11*
X106357303Y-48154789D03*
D10*
X104858237Y-49653855D03*
%TD*%
D12*
%TO.C,Q13*%
X121660000Y-136939999D03*
X123560000Y-136939999D03*
X122610000Y-134539999D03*
%TD*%
D13*
%TO.C,D13*%
X159447981Y-114445752D03*
D14*
X161559914Y-113034604D03*
%TD*%
D15*
%TO.C,D21*%
X115492026Y-44089183D03*
D14*
X113380093Y-45500331D03*
%TD*%
D16*
%TO.C,SW2*%
X149110000Y-163669999D03*
D17*
X146570000Y-163669999D03*
X144030000Y-163669999D03*
%TD*%
D18*
%TO.C,D20*%
X130627159Y-38356325D03*
D14*
X128135964Y-38851854D03*
%TD*%
D19*
%TO.C,J2*%
X155305000Y-144159999D03*
X160055000Y-144159999D03*
X155305000Y-145429999D03*
X160055000Y-145429999D03*
X155305000Y-146699999D03*
X160055000Y-146699999D03*
X155305000Y-147969999D03*
X160055000Y-147969999D03*
X155305000Y-149239999D03*
X160055000Y-149239999D03*
%TD*%
D20*
%TO.C,D16*%
X178381128Y-72424600D03*
D14*
X177885599Y-69933405D03*
%TD*%
D21*
%TO.C,C28*%
X140760000Y-134639999D03*
X140760000Y-141839999D03*
%TD*%
D22*
%TO.C,D12*%
X144310896Y-120180090D03*
D14*
X146801657Y-119682387D03*
%TD*%
D23*
%TO.C,SW1*%
X132235000Y-156684999D03*
D24*
X132235000Y-159224999D03*
X132235000Y-161764999D03*
X132235000Y-164304999D03*
X132235000Y-166844999D03*
X139855000Y-166844999D03*
X139855000Y-164304999D03*
X139855000Y-161764999D03*
X139855000Y-159224999D03*
X139855000Y-156684999D03*
%TD*%
D12*
%TO.C,Q15*%
X128790000Y-136929999D03*
X130690000Y-136929999D03*
X129740000Y-134529999D03*
%TD*%
D25*
%TO.C,D17*%
X172648310Y-57289473D03*
D14*
X171237162Y-55177540D03*
%TD*%
D26*
%TO.C,D5*%
X136945000Y-153359999D03*
X138695000Y-153359999D03*
%TD*%
D27*
%TO.C,U3*%
X167083638Y-111879212D03*
D28*
X168582704Y-110380146D03*
D27*
X170081770Y-108881080D03*
%TD*%
D29*
%TO.C,SW4*%
X142570000Y-157919999D03*
X150570000Y-157919999D03*
X142570000Y-153419999D03*
X150570000Y-153419999D03*
%TD*%
D30*
%TO.C,D26*%
X113380098Y-113034604D03*
D14*
X115492031Y-114445752D03*
%TD*%
D31*
%TO.C,U10*%
X139590006Y-35267449D03*
D32*
X137470006Y-35267449D03*
D31*
X135350006Y-35267449D03*
%TD*%
D33*
%TO.C,D27*%
X128135964Y-119683040D03*
D14*
X130627159Y-120178569D03*
%TD*%
D34*
%TO.C,D18*%
X161559914Y-45500293D03*
D14*
X159447981Y-44089145D03*
%TD*%
D12*
%TO.C,Q16*%
X132340000Y-136929999D03*
X134240000Y-136929999D03*
X133290000Y-134529999D03*
%TD*%
D35*
%TO.C,D3*%
X135195000Y-153359999D03*
X133445000Y-153359999D03*
%TD*%
D36*
%TO.C,D19*%
X146804048Y-38851854D03*
D14*
X144312853Y-38356325D03*
%TD*%
D35*
%TO.C,D8*%
X157590000Y-136769999D03*
X155840000Y-136769999D03*
%TD*%
D37*
%TO.C,D14*%
X171237162Y-103357356D03*
D14*
X172648310Y-101245423D03*
%TD*%
D38*
%TO.C,U8*%
X170081769Y-49653817D03*
D39*
X168582703Y-48154751D03*
D38*
X167083637Y-46655685D03*
%TD*%
D40*
%TO.C,U11*%
X122590560Y-37805462D03*
D41*
X120631935Y-38616751D03*
D40*
X118673310Y-39428040D03*
%TD*%
D42*
%TO.C,U16*%
X104858242Y-108881080D03*
D43*
X106357308Y-110380146D03*
D42*
X107856374Y-111879212D03*
%TD*%
D35*
%TO.C,D6*%
X135195000Y-151609999D03*
X133445000Y-151609999D03*
%TD*%
D21*
%TO.C,C27*%
X149690000Y-134559999D03*
X149690000Y-141759999D03*
%TD*%
D44*
%TO.C,D15*%
X177885599Y-88601491D03*
D14*
X178381128Y-86110296D03*
%TD*%
D45*
%TO.C,U13*%
X97630590Y-60470791D03*
D46*
X96819301Y-62429416D03*
D45*
X96008012Y-64388041D03*
%TD*%
D47*
%TO.C,D22*%
X103702845Y-55177580D03*
D14*
X102291697Y-57289513D03*
%TD*%
D48*
%TO.C,H3*%
X155930000Y-154979999D03*
%TD*%
D49*
%TO.C,U6*%
X181470005Y-81387449D03*
D50*
X181470005Y-79267449D03*
D49*
X181470005Y-77147449D03*
%TD*%
D51*
%TO.C,D24*%
X96558879Y-86110335D03*
D14*
X97054408Y-88601530D03*
%TD*%
D52*
%TO.C,U2*%
X152349452Y-120729436D03*
D53*
X154308077Y-119918147D03*
D52*
X156266702Y-119106858D03*
%TD*%
D54*
%TO.C,D23*%
X97054408Y-69933445D03*
D14*
X96558879Y-72424640D03*
%TD*%
D55*
%TO.C,U17*%
X118673310Y-119106858D03*
D56*
X120631935Y-119918147D03*
D55*
X122590560Y-120729436D03*
%TD*%
D57*
%TO.C,U14*%
X93470001Y-77147486D03*
D58*
X93470001Y-79267486D03*
D57*
X93470001Y-81387486D03*
%TD*%
D12*
%TO.C,Q14*%
X125220000Y-136929999D03*
X127120000Y-136929999D03*
X126170000Y-134529999D03*
%TD*%
D59*
%TO.C,U4*%
X177309416Y-98064144D03*
D60*
X178120705Y-96105519D03*
D59*
X178931994Y-94146894D03*
%TD*%
D61*
%TO.C,U15*%
X96008019Y-94146894D03*
D62*
X96819308Y-96105519D03*
D61*
X97630597Y-98064144D03*
%TD*%
D63*
%TO.C,U1*%
X135350006Y-123267448D03*
D64*
X137470006Y-123267448D03*
D63*
X139590006Y-123267448D03*
%TD*%
D35*
%TO.C,D11*%
X157615000Y-138429999D03*
X155865000Y-138429999D03*
%TD*%
D65*
%TO.C,SW3*%
X127930000Y-158779999D03*
D17*
X124730000Y-161279999D03*
X127930000Y-163779999D03*
%TD*%
D26*
%TO.C,D4*%
X136945000Y-151609999D03*
X138695000Y-151609999D03*
%TD*%
D66*
%TO.C,D25*%
X102291702Y-101245423D03*
D14*
X103702850Y-103357356D03*
%TD*%
D67*
%TO.C,U9*%
X156266702Y-39428040D03*
D68*
X154308077Y-38616751D03*
D67*
X152349452Y-37805462D03*
%TD*%
D69*
%TO.C,JP1*%
X118745000Y-154309999D03*
D70*
X118745000Y-151769999D03*
%TD*%
D71*
%TO.C,U7*%
X178931994Y-64388003D03*
D72*
X178120705Y-62429378D03*
D71*
X177309416Y-60470753D03*
%TD*%
D73*
%TO.C,TP1*%
X137430000Y-40819999D03*
%TD*%
D74*
%TO.C,J4*%
X115470000Y-154029999D03*
D75*
X115470000Y-151529999D03*
X115470000Y-149029999D03*
X115470000Y-146529999D03*
%TD*%
D73*
%TO.C,TP3*%
X156820000Y-160619999D03*
%TD*%
D74*
%TO.C,J3*%
X115470000Y-138779999D03*
D75*
X115470000Y-136279999D03*
X115470000Y-133779999D03*
X115470000Y-131279999D03*
%TD*%
D76*
%TO.C,J1*%
X159620000Y-132359999D03*
D75*
X159620000Y-134859999D03*
%TD*%
D73*
%TO.C,TP2*%
X143200000Y-160419999D03*
%TD*%
M02*
