%TF.GenerationSoftware,KiCad,Pcbnew,(6.0.11)*%
%TF.CreationDate,2024-02-10T16:44:09+09:00*%
%TF.ProjectId,IR,49522e6b-6963-4616-945f-706362585858,rev?*%
%TF.SameCoordinates,Original*%
%TF.FileFunction,Paste,Top*%
%TF.FilePolarity,Positive*%
%FSLAX46Y46*%
G04 Gerber Fmt 4.6, Leading zero omitted, Abs format (unit mm)*
G04 Created by KiCad (PCBNEW (6.0.11)) date 2024-02-10 16:44:09*
%MOMM*%
%LPD*%
G01*
G04 APERTURE LIST*
G04 Aperture macros list*
%AMRoundRect*
0 Rectangle with rounded corners*
0 $1 Rounding radius*
0 $2 $3 $4 $5 $6 $7 $8 $9 X,Y pos of 4 corners*
0 Add a 4 corners polygon primitive as box body*
4,1,4,$2,$3,$4,$5,$6,$7,$8,$9,$2,$3,0*
0 Add four circle primitives for the rounded corners*
1,1,$1+$1,$2,$3*
1,1,$1+$1,$4,$5*
1,1,$1+$1,$6,$7*
1,1,$1+$1,$8,$9*
0 Add four rect primitives between the rounded corners*
20,1,$1+$1,$2,$3,$4,$5,0*
20,1,$1+$1,$4,$5,$6,$7,0*
20,1,$1+$1,$6,$7,$8,$9,0*
20,1,$1+$1,$8,$9,$2,$3,0*%
G04 Aperture macros list end*
%ADD10R,0.700000X1.000000*%
%ADD11R,3.250000X0.740000*%
%ADD12RoundRect,0.250001X-0.799999X1.999999X-0.799999X-1.999999X0.799999X-1.999999X0.799999X1.999999X0*%
%ADD13RoundRect,0.237500X-0.287500X-0.237500X0.287500X-0.237500X0.287500X0.237500X-0.287500X0.237500X0*%
%ADD14R,1.600000X1.400000*%
%ADD15RoundRect,0.237500X0.287500X0.237500X-0.287500X0.237500X-0.287500X-0.237500X0.287500X-0.237500X0*%
G04 APERTURE END LIST*
D10*
%TO.C,Q13*%
X121660000Y-136939999D03*
X123560000Y-136939999D03*
X122610000Y-134539999D03*
%TD*%
D11*
%TO.C,J2*%
X155305000Y-144159999D03*
X160055000Y-144159999D03*
X155305000Y-145429999D03*
X160055000Y-145429999D03*
X155305000Y-146699999D03*
X160055000Y-146699999D03*
X155305000Y-147969999D03*
X160055000Y-147969999D03*
X155305000Y-149239999D03*
X160055000Y-149239999D03*
%TD*%
D12*
%TO.C,C28*%
X140760000Y-134639999D03*
X140760000Y-141839999D03*
%TD*%
D10*
%TO.C,Q15*%
X128790000Y-136929999D03*
X130690000Y-136929999D03*
X129740000Y-134529999D03*
%TD*%
D13*
%TO.C,D5*%
X136945000Y-153359999D03*
X138695000Y-153359999D03*
%TD*%
D14*
%TO.C,SW4*%
X142570000Y-157919999D03*
X150570000Y-157919999D03*
X142570000Y-153419999D03*
X150570000Y-153419999D03*
%TD*%
D10*
%TO.C,Q16*%
X132340000Y-136929999D03*
X134240000Y-136929999D03*
X133290000Y-134529999D03*
%TD*%
D15*
%TO.C,D3*%
X135195000Y-153359999D03*
X133445000Y-153359999D03*
%TD*%
%TO.C,D8*%
X157590000Y-136769999D03*
X155840000Y-136769999D03*
%TD*%
%TO.C,D6*%
X135195000Y-151609999D03*
X133445000Y-151609999D03*
%TD*%
D12*
%TO.C,C27*%
X149690000Y-134559999D03*
X149690000Y-141759999D03*
%TD*%
D10*
%TO.C,Q14*%
X125220000Y-136929999D03*
X127120000Y-136929999D03*
X126170000Y-134529999D03*
%TD*%
D15*
%TO.C,D11*%
X157615000Y-138429999D03*
X155865000Y-138429999D03*
%TD*%
D13*
%TO.C,D4*%
X136945000Y-151609999D03*
X138695000Y-151609999D03*
%TD*%
M02*
