M48
; DRILL file {KiCad (6.0.11)} date Sat Feb 10 16:44:09 2024
; FORMAT={-:-/ absolute / inch / decimal}
; #@! TF.CreationDate,2024-02-10T16:44:09+09:00
; #@! TF.GenerationSoftware,Kicad,Pcbnew,(6.0.11)
; #@! TF.FileFunction,Plated,1,2,PTH
FMAT,2
INCH
; #@! TA.AperFunction,Plated,PTH,ViaDrill
T1C0.0118
; #@! TA.AperFunction,Plated,PTH,ViaDrill
T2C0.0157
; #@! TA.AperFunction,Plated,PTH,ViaDrill
T3C0.0236
; #@! TA.AperFunction,Plated,PTH,ComponentDrill
T4C0.0256
; #@! TA.AperFunction,Plated,PTH,ComponentDrill
T5C0.0315
; #@! TA.AperFunction,Plated,PTH,ComponentDrill
T6C0.0335
; #@! TA.AperFunction,Plated,PTH,ComponentDrill
T7C0.0354
; #@! TA.AperFunction,Plated,PTH,ComponentDrill
T8C0.0394
; #@! TA.AperFunction,Plated,PTH,ViaDrill
T9C0.0630
%
G90
G05
T1
X3.5861Y-3.1451
X3.5867Y-3.1208
X3.7141Y-3.78
X3.7223Y-2.4308
X3.7251Y-3.8076
X3.7317Y-2.4069
X4.1073Y-1.8426
X4.1251Y-1.8241
X4.1298Y-4.4054
X4.1476Y-4.4227
X4.7142Y-4.9343
X4.7142Y-4.9764
X4.7161Y-5.0193
X4.7206Y-1.4267
X4.7436Y-1.4178
X4.7783Y-4.9087
X4.7795Y-4.9516
X4.7807Y-4.9969
X4.8205Y-5.3681
X4.8449Y-5.7055
X4.8778Y-4.9492
X4.8927Y-5.1656
X4.8933Y-5.116
X4.9269Y-5.0417
X4.9276Y-4.9469
X4.9276Y-5.0024
X4.9358Y-5.0719
X4.9461Y-5.2012
X4.9575Y-5.3665
X4.972Y-5.1874
X4.9906Y-6.1382
X5.0057Y-5.7057
X5.0126Y-5.1398
X5.076Y-5.4413
X5.0811Y-5.2287
X5.0942Y-6.611
X5.0984Y-5.3673
X5.1091Y-6.1382
X5.1126Y-5.198
X5.1185Y-5.0681
X5.1701Y-5.1295
X5.2051Y-5.2331
X5.2207Y-5.6368
X5.2319Y-5.7703
X5.2358Y-5.3661
X5.2449Y-6.0205
X5.2476Y-5.9689
X5.2622Y-6.1862
X5.2799Y-5.1248
X5.2812Y-5.1582
X5.2872Y-5.6368
X5.289Y-5.0634
X5.338Y-5.6368
X5.3825Y-5.8411
X5.3901Y-5.0435
X5.392Y-1.2945
X5.3925Y-5.1166
X5.4188Y-1.2949
X5.4257Y-5.1166
X5.4444Y-5.9231
X5.4465Y-5.861
X5.4626Y-5.6398
X5.4661Y-5.9689
X5.4754Y-5.1425
X5.4783Y-6.0378
X5.4925Y-5.0181
X5.5055Y-5.9677
X5.5118Y-5.8669
X5.5126Y-5.6535
X5.5246Y-5.1145
X5.528Y-5.7035
X5.5286Y-5.0644
X5.5429Y-5.6508
X5.5642Y-5.6736
X5.5677Y-5.7205
X5.5781Y-5.4128
X5.5781Y-5.4443
X5.5781Y-5.4764
X5.5933Y-6.149
X5.6005Y-6.6348
X5.6027Y-5.5321
X5.6027Y-5.636
X5.6098Y-5.3539
X5.6166Y-5.0669
X5.6342Y-5.636
X5.6398Y-5.0457
X5.6595Y-5.758
X5.6748Y-5.636
X5.7031Y-6.149
X5.711Y-5.6362
X5.7331Y-6.0998
X5.753Y-6.1495
X5.7664Y-6.0998
X5.7979Y-6.0998
X5.8764Y-5.8134
X5.8776Y-5.7823
X5.8854Y-5.9878
X5.9823Y-5.9913
X5.9913Y-6.2008
X5.9961Y-5.7941
X6.0197Y-5.7697
X6.0307Y-5.8657
X6.0378Y-5.9421
X6.0764Y-6.0272
X6.1058Y-1.4317
X6.1144Y-5.8723
X6.1287Y-4.9937
X6.1301Y-1.4427
X6.1622Y-5.4118
X6.163Y-5.4685
X6.1776Y-4.9457
X6.2256Y-5.8305
X6.6816Y-1.8128
X6.6932Y-4.4096
X6.7008Y-1.83
X6.7113Y-4.3903
X7.0618Y-2.3429
X7.0699Y-2.365
X7.0885Y-3.8314
X7.098Y-3.8057
X7.2327Y-3.1197
X7.2327Y-3.0937
T2
X3.6426Y-3.3368
X3.6808Y-2.6438
X3.6876Y-2.9561
X3.6931Y-2.9143
X3.7186Y-3.308
X3.737Y-2.9091
X3.7545Y-3.59
X3.7547Y-2.6488
X3.7563Y-3.6413
X3.7909Y-3.5606
X3.7932Y-3.0462
X3.8539Y-3.9925
X3.8742Y-3.7112
X3.9051Y-2.3319
X3.9261Y-3.9438
X3.9346Y-2.2944
X3.9526Y-2.441
X3.9685Y-2.2744
X4.021Y-2.0332
X4.0393Y-4.1898
X4.0728Y-2.0618
X4.1028Y-4.2227
X4.1063Y-4.1551
X4.1871Y-4.2272
X4.2913Y-4.5031
X4.311Y-1.8114
X4.3276Y-1.9346
X4.3443Y-1.7566
X4.3504Y-4.4607
X4.387Y-1.7862
X4.4583Y-4.9693
X4.4594Y-5.0882
X4.4646Y-5.8476
X4.4654Y-5.2748
X4.4807Y-5.2217
X4.4811Y-4.7732
X4.5146Y-6.4315
X4.5146Y-6.5689
X4.5205Y-6.2846
X4.5362Y-4.6874
X4.5402Y-5.6886
X4.5508Y-4.6421
X4.5582Y-1.5926
X4.5681Y-4.9752
X4.5697Y-5.1004
X4.5768Y-1.6311
X4.5772Y-4.8654
X4.5811Y-4.6087
X4.6142Y-5.1961
X4.6315Y-5.5799
X4.6346Y-5.4354
X4.635Y-4.7374
X4.6449Y-5.3106
X4.6764Y-6.1508
X4.6764Y-6.2921
X4.6807Y-5.8744
X4.6874Y-6.5783
X4.6878Y-5.7283
X4.7361Y-6.0037
X4.7461Y-5.3272
X4.7472Y-6.0839
X4.7496Y-5.1106
X4.7823Y-5.7866
X4.7839Y-5.8535
X4.7843Y-5.9039
X4.7988Y-5.5933
X4.8039Y-5.4516
X4.8197Y-6.3012
X4.8232Y-5.8862
X4.8457Y-6.4445
X4.8567Y-6.5933
X4.8591Y-5.9102
X4.8673Y-1.6035
X4.8843Y-5.3488
X4.8875Y-5.6051
X4.8917Y-5.9209
X4.8949Y-1.4445
X4.9035Y-6.1665
X4.9087Y-5.3213
X4.9209Y-5.5539
X4.928Y-5.9421
X4.9409Y-5.4587
X4.9476Y-1.472
X4.9486Y-6.1094
X4.952Y-6.2937
X4.9605Y-4.6406
X4.9795Y-1.5237
X4.9811Y-5.8705
X4.9876Y-4.6699
X5.0016Y-6.6244
X5.0076Y-4.7766
X5.0169Y-5.3421
X5.0232Y-6.0417
X5.0262Y-4.9775
X5.0307Y-5.7654
X5.0354Y-6.3201
X5.0453Y-6.372
X5.0516Y-6.5106
X5.0732Y-5.7028
X5.0799Y-5.9614
X5.0902Y-5.5614
X5.0913Y-6.5035
X5.111Y-4.9472
X5.1185Y-5.6701
X5.1327Y-5.9886
X5.1413Y-6.222
X5.1492Y-6.4189
X5.1512Y-6.5118
X5.152Y-6.3189
X5.1622Y-5.3457
X5.1665Y-6.0453
X5.1689Y-5.9469
X5.1709Y-5.9984
X5.1933Y-1.3499
X5.2142Y-1.411
X5.2378Y-5.6818
X5.2417Y-5.8618
X5.2476Y-4.7114
X5.276Y-6.3646
X5.2772Y-6.4669
X5.2807Y-6.5618
X5.2811Y-6.2673
X5.2846Y-5.3449
X5.322Y-5.2657
X5.3252Y-6.2673
X5.3256Y-6.085
X5.3413Y-5.8102
X5.3445Y-6.3638
X5.3469Y-5.4303
X5.3496Y-5.3142
X5.3563Y-5.9673
X5.3594Y-6.4587
X5.363Y-6.5665
X5.3941Y-5.763
X5.3957Y-5.8075
X5.4073Y-4.9451
X5.4157Y-6.3594
X5.4291Y-5.739
X5.4307Y-5.3909
X5.4311Y-6.4626
X5.4339Y-6.5685
X5.435Y-6.1681
X5.4382Y-5.5071
X5.439Y-5.4516
X5.4398Y-5.6949
X5.448Y-5.8102
X5.4697Y-5.7543
X5.4858Y-5.5047
X5.4878Y-5.4496
X5.4929Y-1.522
X5.5008Y-5.7972
X5.5242Y-1.4436
X5.535Y-5.5091
X5.552Y-4.8031
X5.5646Y-4.9358
X5.5732Y-5.8322
X5.6102Y-4.9322
X5.613Y-6.2343
X5.6228Y-1.4409
X5.6272Y-5.2276
X5.6324Y-1.3738
X5.6583Y-5.1839
X5.6776Y-5.9795
X5.6795Y-5.8028
X5.6795Y-5.8567
X5.6819Y-6.5661
X5.6823Y-5.9421
X5.7232Y-5.8205
X5.7232Y-5.9602
X5.7264Y-6.5161
X5.7634Y-5.8559
X5.7665Y-5.787
X5.7736Y-5.9453
X5.7748Y-5.9795
X5.7883Y-4.7703
X5.8197Y-6.3795
X5.8315Y-5.1028
X5.8315Y-5.1343
X5.8315Y-5.1657
X5.8315Y-5.1972
X5.8315Y-5.2287
X5.861Y-6.1925
X5.863Y-5.1028
X5.863Y-5.1343
X5.863Y-5.1657
X5.863Y-5.1972
X5.863Y-5.2287
X5.8752Y-5.5937
X5.8796Y-1.4191
X5.8909Y-6.1512
X5.8945Y-5.1028
X5.8945Y-5.1343
X5.8945Y-5.1657
X5.8945Y-5.1972
X5.8945Y-5.2287
X5.8949Y-1.4913
X5.8988Y-6.1091
X5.9035Y-5.5031
X5.9059Y-6.5138
X5.9071Y-5.4217
X5.926Y-5.1028
X5.926Y-5.1343
X5.926Y-5.2287
X5.928Y-6.2173
X5.9291Y-6.1465
X5.9315Y-5.7185
X5.9319Y-6.0366
X5.9445Y-6.1063
X5.9469Y-6.4114
X5.9575Y-5.1028
X5.9575Y-5.1343
X5.9575Y-5.1657
X5.9575Y-5.1972
X5.9575Y-5.2287
X5.9689Y-5.4075
X5.9693Y-5.3496
X5.9862Y-5.585
X5.987Y-5.5035
X5.9945Y-6.061
X6.0091Y-6.5673
X6.0102Y-5.6807
X6.0244Y-5.4193
X6.0685Y-5.0323
X6.0783Y-6.4921
X6.0819Y-6.3677
X6.0917Y-5.6154
X6.0949Y-5.5122
X6.0992Y-5.0713
X6.1122Y-6.1689
X6.1193Y-6.2528
X6.1234Y-1.6894
X6.1579Y-5.2252
X6.1705Y-5.1197
X6.174Y-5.5173
X6.1929Y-4.598
X6.1945Y-6.022
X6.2051Y-6.5657
X6.2118Y-5.7378
X6.2122Y-5.4154
X6.2138Y-5.6264
X6.2271Y-1.5665
X6.2281Y-4.9022
X6.237Y-6.0827
X6.2406Y-5.9319
X6.2434Y-4.6405
X6.2484Y-5.0295
X6.2528Y-1.6724
X6.2677Y-5.1146
X6.2764Y-1.5972
X6.2913Y-6.3331
X6.2953Y-5.928
X6.2965Y-5.4209
X6.2969Y-4.7079
X6.2992Y-6.4724
X6.3016Y-5.513
X6.3063Y-5.7256
X6.3067Y-6.1689
X6.3091Y-5.6201
X6.3114Y-4.9366
X6.3142Y-4.8622
X6.3283Y-5.1244
X6.3571Y-4.9256
X6.3594Y-5.026
X6.363Y-4.815
X6.4652Y-4.4514
X6.4736Y-1.8024
X6.4965Y-4.4787
X6.5067Y-1.731
X6.5539Y-4.4927
X6.6649Y-2.0862
X6.7461Y-2.0882
X6.7707Y-2.0088
X6.7792Y-2.0504
X6.8048Y-4.2392
X6.8721Y-3.9381
X6.9115Y-2.2898
X6.9123Y-3.9898
X6.9315Y-2.6083
X6.9591Y-4.0134
X6.9618Y-2.2642
X6.9783Y-3.9614
X7.0366Y-2.685
X7.0512Y-3.6102
X7.0659Y-3.3199
X7.0884Y-2.6014
X7.1008Y-2.6614
X7.1223Y-2.9229
X7.1251Y-3.3371
X7.1333Y-3.6026
X7.172Y-3.3418
X7.1843Y-3.2906
X7.1846Y-2.9374
T3
X4.8264Y-4.9079
X4.8272Y-4.9945
X5.2099Y-4.8679
X5.2102Y-4.9075
X5.2484Y-4.8405
X5.2497Y-4.7623
X5.2894Y-4.7614
X5.3409Y-4.7114
X5.6642Y-5.3213
X5.6943Y-5.3514
X5.7065Y-5.262
X5.7065Y-5.3049
X5.7423Y-5.2022
X5.7528Y-5.1618
X5.8244Y-5.513
X5.8244Y-5.5535
X5.8244Y-5.9008
X5.9815Y-4.8752
X6.0106Y-4.8461
X6.0445Y-4.8205
X6.0809Y-4.8053
T4
X4.9106Y-6.3496
X5.0366Y-6.2512
X5.0366Y-6.448
X5.6705Y-6.4437
X5.7705Y-6.4437
X5.8705Y-6.4437
T5
X5.2061Y-6.1687
X5.2061Y-6.2687
X5.2061Y-6.3687
X5.2061Y-6.4687
X5.2061Y-6.5687
X5.5061Y-6.1687
X5.5061Y-6.2687
X5.5061Y-6.3687
X5.5061Y-6.4687
X5.5061Y-6.5687
T6
X4.5461Y-5.1685
X4.5461Y-5.2669
X4.5461Y-5.3654
X4.5461Y-5.4638
X4.5461Y-5.7689
X4.5461Y-5.8673
X4.5461Y-5.9657
X4.5461Y-6.0642
X6.2843Y-5.211
X6.2843Y-5.3094
T7
X3.8015Y-2.8514
X3.8015Y-3.3902
X3.821Y-2.7533
X3.821Y-3.4882
X4.0272Y-2.2555
X4.0272Y-3.986
X4.0828Y-2.1723
X4.0828Y-4.0692
X4.4638Y-1.7914
X4.4638Y-4.4502
X4.5469Y-1.7358
X4.5469Y-4.5057
X5.0447Y-1.5296
X5.0447Y-4.7119
X5.1428Y-1.5101
X5.1428Y-4.7314
X5.6815Y-4.7315
X5.6816Y-1.5101
X5.7796Y-4.7119
X5.7797Y-1.5296
X6.2775Y-1.7358
X6.2775Y-4.5057
X6.3606Y-1.7914
X6.3606Y-4.4502
X6.7416Y-2.1723
X6.7416Y-4.0692
X6.7972Y-2.2555
X6.7972Y-3.986
X7.0034Y-2.7533
X7.0034Y-3.4882
X7.0229Y-2.8514
X7.0229Y-3.3902
T8
X4.675Y-5.9752
X4.675Y-6.0752
X5.4106Y-1.6071
X5.6378Y-6.3157
X6.174Y-6.3236
T9
X4.6496Y-4.9858
X4.6533Y-4.8979
T4
G00X3.6799Y-3.0176
M15
G01X3.6799Y-3.057
M16
G05
G00X3.6799Y-3.1158
M15
G01X3.6799Y-3.1257
M16
G05
G00X3.6799Y-3.1845
M15
G01X3.6799Y-3.2239
M16
G05
G00X3.7874Y-2.5168
M15
G01X3.7723Y-2.5531
M16
G05
G00X3.7723Y-3.6884
M15
G01X3.7874Y-3.7248
M16
G05
G00X3.8137Y-2.4533
M15
G01X3.8099Y-2.4624
M16
G05
G00X3.8099Y-3.7791
M15
G01X3.8137Y-3.7882
M16
G05
G00X3.8513Y-2.3626
M15
G01X3.8362Y-2.3989
M16
G05
G00X3.8362Y-3.8426
M15
G01X3.8513Y-3.879
M16
G05
G00X4.1422Y-1.941
M15
G01X4.1144Y-1.9688
M16
G05
G00X4.1144Y-4.2727
M15
G01X4.1422Y-4.3006
M16
G05
G00X4.1908Y-1.8924
M15
G01X4.1838Y-1.8993
M16
G05
G00X4.1838Y-4.3422
M15
G01X4.1908Y-4.3492
M16
G05
G00X4.2602Y-1.8229
M15
G01X4.2324Y-1.8508
M16
G05
G00X4.2324Y-4.3908
M15
G01X4.2602Y-4.4186
M16
G05
G00X4.6904Y-1.5448
M15
G01X4.654Y-1.5598
M16
G05
G00X4.654Y-4.6817
M15
G01X4.6904Y-4.6968
M16
G05
G00X4.7538Y-1.5185
M15
G01X4.7447Y-1.5222
M16
G05
G00X4.7447Y-4.7193
M15
G01X4.7538Y-4.7231
M16
G05
G00X4.8446Y-1.4809
M15
G01X4.8082Y-1.4959
M16
G05
G00X4.8082Y-4.7456
M15
G01X4.8446Y-4.7607
M16
G05
G00X5.3484Y-1.3885
M15
G01X5.3091Y-1.3885
M16
G05
G00X5.3091Y-4.853
M15
G01X5.3484Y-4.853
M16
G05
G00X5.4171Y-1.3885
M15
G01X5.4073Y-1.3885
M16
G05
G00X5.4073Y-4.853
M15
G01X5.4171Y-4.853
M16
G05
G00X5.5154Y-1.3885
M15
G01X5.476Y-1.3885
M16
G05
G00X5.476Y-4.853
M15
G01X5.5154Y-4.853
M16
G05
G00X6.0162Y-1.4959
M15
G01X5.9798Y-1.4809
M16
G05
G00X5.9798Y-4.7607
M15
G01X6.0162Y-4.7456
M16
G05
G00X6.0797Y-1.5222
M15
G01X6.0706Y-1.5185
M16
G05
G00X6.0706Y-4.7231
M15
G01X6.0797Y-4.7193
M16
G05
G00X6.1704Y-1.5598
M15
G01X6.134Y-1.5448
M16
G05
G00X6.134Y-4.6968
M15
G01X6.1704Y-4.6817
M16
G05
G00X6.592Y-1.8508
M15
G01X6.5642Y-1.8229
M16
G05
G00X6.5642Y-4.4186
M15
G01X6.592Y-4.3908
M16
G05
G00X6.6406Y-1.8993
M15
G01X6.6336Y-1.8924
M16
G05
G00X6.6336Y-4.3492
M15
G01X6.6406Y-4.3422
M16
G05
G00X6.7101Y-1.9688
M15
G01X6.6822Y-1.941
M16
G05
G00X6.6822Y-4.3006
M15
G01X6.7101Y-4.2727
M16
G05
G00X6.9882Y-2.3989
M15
G01X6.9732Y-2.3626
M16
G05
G00X6.9732Y-3.879
M15
G01X6.9882Y-3.8426
M16
G05
G00X7.0145Y-2.4624
M15
G01X7.0107Y-2.4533
M16
G05
G00X7.0107Y-3.7882
M15
G01X7.0145Y-3.7791
M16
G05
G00X7.0521Y-2.5531
M15
G01X7.037Y-2.5168
M16
G05
G00X7.037Y-3.7248
M15
G01X7.0521Y-3.6884
M16
G05
G00X7.1445Y-3.057
M15
G01X7.1445Y-3.0176
M16
G05
G00X7.1445Y-3.1257
M15
G01X7.1445Y-3.1158
M16
G05
G00X7.1445Y-3.2239
M15
G01X7.1445Y-3.1845
M16
G05
T0
M30
