%TF.GenerationSoftware,KiCad,Pcbnew,(6.0.11)*%
%TF.CreationDate,2024-02-10T16:44:09+09:00*%
%TF.ProjectId,IR,49522e6b-6963-4616-945f-706362585858,rev?*%
%TF.SameCoordinates,Original*%
%TF.FileFunction,Legend,Bot*%
%TF.FilePolarity,Positive*%
%FSLAX46Y46*%
G04 Gerber Fmt 4.6, Leading zero omitted, Abs format (unit mm)*
G04 Created by KiCad (PCBNEW (6.0.11)) date 2024-02-10 16:44:09*
%MOMM*%
%LPD*%
G01*
G04 APERTURE LIST*
G04 Aperture macros list*
%AMRoundRect*
0 Rectangle with rounded corners*
0 $1 Rounding radius*
0 $2 $3 $4 $5 $6 $7 $8 $9 X,Y pos of 4 corners*
0 Add a 4 corners polygon primitive as box body*
4,1,4,$2,$3,$4,$5,$6,$7,$8,$9,$2,$3,0*
0 Add four circle primitives for the rounded corners*
1,1,$1+$1,$2,$3*
1,1,$1+$1,$4,$5*
1,1,$1+$1,$6,$7*
1,1,$1+$1,$8,$9*
0 Add four rect primitives between the rounded corners*
20,1,$1+$1,$2,$3,$4,$5,0*
20,1,$1+$1,$4,$5,$6,$7,0*
20,1,$1+$1,$6,$7,$8,$9,0*
20,1,$1+$1,$8,$9,$2,$3,0*%
%AMRotRect*
0 Rectangle, with rotation*
0 The origin of the aperture is its center*
0 $1 length*
0 $2 width*
0 $3 Rotation angle, in degrees counterclockwise*
0 Add horizontal line*
21,1,$1,$2,0,0,$3*%
G04 Aperture macros list end*
%ADD10C,0.120000*%
%ADD11RoundRect,0.400000X0.176777X0.742462X-0.742462X-0.176777X-0.176777X-0.742462X0.742462X0.176777X0*%
%ADD12RoundRect,0.300000X-0.141421X0.565685X-0.565685X0.141421X0.141421X-0.565685X0.565685X-0.141421X0*%
%ADD13RotRect,1.800000X1.800000X33.750000*%
%ADD14C,1.800000*%
%ADD15RotRect,1.800000X1.800000X213.750000*%
%ADD16RoundRect,0.381000X-0.381000X0.381000X-0.381000X-0.381000X0.381000X-0.381000X0.381000X0.381000X0*%
%ADD17C,1.524000*%
%ADD18RotRect,1.800000X1.800000X191.250000*%
%ADD19RotRect,1.800000X1.800000X101.250000*%
%ADD20RotRect,1.800000X1.800000X11.300000*%
%ADD21R,1.600000X1.600000*%
%ADD22O,1.600000X1.600000*%
%ADD23RotRect,1.800000X1.800000X123.750000*%
%ADD24RoundRect,0.400000X-0.176777X-0.742462X0.742462X0.176777X0.176777X0.742462X-0.742462X-0.176777X0*%
%ADD25RoundRect,0.300000X0.141421X-0.565685X0.565685X-0.141421X-0.141421X0.565685X-0.565685X0.141421X0*%
%ADD26RotRect,1.800000X1.800000X326.250000*%
%ADD27RoundRect,0.400000X0.650000X0.400000X-0.650000X0.400000X-0.650000X-0.400000X0.650000X-0.400000X0*%
%ADD28RoundRect,0.300000X0.300000X0.500000X-0.300000X0.500000X-0.300000X-0.500000X0.300000X-0.500000X0*%
%ADD29RotRect,1.800000X1.800000X348.750000*%
%ADD30RotRect,1.800000X1.800000X146.250000*%
%ADD31RotRect,1.800000X1.800000X168.750000*%
%ADD32RotRect,1.800000X1.800000X56.250000*%
%ADD33RoundRect,0.400000X0.742462X-0.176777X-0.176777X0.742462X-0.742462X0.176777X0.176777X-0.742462X0*%
%ADD34RoundRect,0.300000X0.565685X0.141421X0.141421X0.565685X-0.565685X-0.141421X-0.141421X-0.565685X0*%
%ADD35RoundRect,0.400000X0.447448X0.618296X-0.753595X0.120808X-0.447448X-0.618296X0.753595X-0.120808X0*%
%ADD36RoundRect,0.300000X0.085822X0.576745X-0.468506X0.347135X-0.085822X-0.576745X0.468506X-0.347135X0*%
%ADD37RoundRect,0.400000X-0.742462X0.176777X0.176777X-0.742462X0.742462X-0.176777X-0.176777X0.742462X0*%
%ADD38RoundRect,0.300000X-0.565685X-0.141421X-0.141421X-0.565685X0.565685X0.141421X0.141421X0.565685X0*%
%ADD39RotRect,1.800000X1.800000X78.750000*%
%ADD40RoundRect,0.400000X-0.120808X0.753595X-0.618296X-0.447448X0.120808X-0.753595X0.618296X0.447448X0*%
%ADD41RoundRect,0.300000X-0.347135X0.468506X-0.576745X-0.085822X0.347135X-0.468506X0.576745X0.085822X0*%
%ADD42RotRect,1.800000X1.800000X236.250000*%
%ADD43RoundRect,0.400000X0.400000X-0.650000X0.400000X0.650000X-0.400000X0.650000X-0.400000X-0.650000X0*%
%ADD44RoundRect,0.300000X0.500000X-0.300000X0.500000X0.300000X-0.500000X0.300000X-0.500000X-0.300000X0*%
%ADD45RotRect,1.800000X1.800000X281.250000*%
%ADD46RoundRect,0.400000X-0.447448X-0.618296X0.753595X-0.120808X0.447448X0.618296X-0.753595X0.120808X0*%
%ADD47RoundRect,0.300000X-0.085822X-0.576745X0.468506X-0.347135X0.085822X0.576745X-0.468506X0.347135X0*%
%ADD48RotRect,1.800000X1.800000X258.750000*%
%ADD49RoundRect,0.400000X-0.753595X-0.120808X0.447448X-0.618296X0.753595X0.120808X-0.447448X0.618296X0*%
%ADD50RoundRect,0.300000X-0.468506X-0.347135X0.085822X-0.576745X0.468506X0.347135X-0.085822X0.576745X0*%
%ADD51RoundRect,0.400000X-0.400000X0.650000X-0.400000X-0.650000X0.400000X-0.650000X0.400000X0.650000X0*%
%ADD52RoundRect,0.300000X-0.500000X0.300000X-0.500000X-0.300000X0.500000X-0.300000X0.500000X0.300000X0*%
%ADD53RoundRect,0.400000X0.120808X-0.753595X0.618296X0.447448X-0.120808X0.753595X-0.618296X-0.447448X0*%
%ADD54RoundRect,0.300000X0.347135X-0.468506X0.576745X0.085822X-0.347135X0.468506X-0.576745X-0.085822X0*%
%ADD55RoundRect,0.400000X-0.618296X0.447448X-0.120808X-0.753595X0.618296X-0.447448X0.120808X0.753595X0*%
%ADD56RoundRect,0.300000X-0.576745X0.085822X-0.347135X-0.468506X0.576745X-0.085822X0.347135X0.468506X0*%
%ADD57RoundRect,0.400000X-0.650000X-0.400000X0.650000X-0.400000X0.650000X0.400000X-0.650000X0.400000X0*%
%ADD58RoundRect,0.300000X-0.300000X-0.500000X0.300000X-0.500000X0.300000X0.500000X-0.300000X0.500000X0*%
%ADD59RoundRect,0.381000X-0.381000X-0.381000X0.381000X-0.381000X0.381000X0.381000X-0.381000X0.381000X0*%
%ADD60RotRect,1.800000X1.800000X303.750000*%
%ADD61RoundRect,0.400000X0.753595X0.120808X-0.447448X0.618296X-0.753595X-0.120808X0.447448X-0.618296X0*%
%ADD62RoundRect,0.300000X0.468506X0.347135X-0.085822X0.576745X-0.468506X-0.347135X0.085822X-0.576745X0*%
%ADD63R,1.700000X1.700000*%
%ADD64O,1.700000X1.700000*%
%ADD65RoundRect,0.400000X0.618296X-0.447448X0.120808X0.753595X-0.618296X0.447448X-0.120808X-0.753595X0*%
%ADD66RoundRect,0.300000X0.576745X-0.085822X0.347135X0.468506X-0.576745X0.085822X-0.347135X-0.468506X0*%
%ADD67RoundRect,0.140000X0.219203X0.021213X0.021213X0.219203X-0.219203X-0.021213X-0.021213X-0.219203X0*%
%ADD68RoundRect,0.140000X-0.064287X-0.210635X0.194399X-0.103484X0.064287X0.210635X-0.194399X0.103484X0*%
%ADD69RoundRect,0.200000X-0.319076X-0.117540X0.013512X-0.339768X0.319076X0.117540X-0.013512X0.339768X0*%
%ADD70RoundRect,0.140000X0.140000X0.170000X-0.140000X0.170000X-0.140000X-0.170000X0.140000X-0.170000X0*%
%ADD71RoundRect,0.200000X-0.117540X0.319076X-0.339768X-0.013512X0.117540X-0.319076X0.339768X0.013512X0*%
%ADD72RoundRect,0.200000X0.319076X0.117540X-0.013512X0.339768X-0.319076X-0.117540X0.013512X-0.339768X0*%
%ADD73RoundRect,0.140000X-0.210635X0.064287X-0.103484X-0.194399X0.210635X-0.064287X0.103484X0.194399X0*%
%ADD74RoundRect,0.135000X-0.135000X-0.185000X0.135000X-0.185000X0.135000X0.185000X-0.135000X0.185000X0*%
%ADD75RoundRect,0.140000X-0.170000X0.140000X-0.170000X-0.140000X0.170000X-0.140000X0.170000X0.140000X0*%
%ADD76RoundRect,0.200000X-0.339768X0.013512X-0.117540X-0.319076X0.339768X-0.013512X0.117540X0.319076X0*%
%ADD77RoundRect,0.140000X0.194399X0.103484X-0.064287X0.210635X-0.194399X-0.103484X0.064287X-0.210635X0*%
%ADD78RoundRect,0.200000X0.339768X-0.013512X0.117540X0.319076X-0.339768X0.013512X-0.117540X-0.319076X0*%
%ADD79RoundRect,0.200000X0.249807X0.230698X-0.142507X0.308734X-0.249807X-0.230698X0.142507X-0.308734X0*%
%ADD80C,2.000000*%
%ADD81RoundRect,0.200000X0.013512X0.339768X-0.319076X0.117540X-0.013512X-0.339768X0.319076X-0.117540X0*%
%ADD82RoundRect,0.200000X-0.142507X-0.308734X0.249807X-0.230698X0.142507X0.308734X-0.249807X0.230698X0*%
%ADD83RoundRect,0.200000X0.230698X-0.249807X0.308734X0.142507X-0.230698X0.249807X-0.308734X-0.142507X0*%
%ADD84RoundRect,0.250000X0.675000X-0.600000X0.675000X0.600000X-0.675000X0.600000X-0.675000X-0.600000X0*%
%ADD85O,1.850000X1.700000*%
%ADD86RoundRect,0.200000X-0.230698X0.249807X-0.308734X-0.142507X0.230698X-0.249807X0.308734X0.142507X0*%
%ADD87RoundRect,0.200000X0.117540X-0.319076X0.339768X0.013512X-0.117540X0.319076X-0.339768X-0.013512X0*%
%ADD88RoundRect,0.140000X-0.194399X-0.103484X0.064287X-0.210635X0.194399X0.103484X-0.064287X0.210635X0*%
%ADD89RoundRect,0.135000X0.185000X-0.135000X0.185000X0.135000X-0.185000X0.135000X-0.185000X-0.135000X0*%
%ADD90RoundRect,0.135000X0.135000X0.185000X-0.135000X0.185000X-0.135000X-0.185000X0.135000X-0.185000X0*%
%ADD91RoundRect,0.140000X0.103484X-0.194399X0.210635X0.064287X-0.103484X0.194399X-0.210635X-0.064287X0*%
%ADD92R,1.000000X0.700000*%
%ADD93RoundRect,0.200000X0.142507X0.308734X-0.249807X0.230698X-0.142507X-0.308734X0.249807X-0.230698X0*%
%ADD94RoundRect,0.140000X0.064287X0.210635X-0.194399X0.103484X-0.064287X-0.210635X0.194399X-0.103484X0*%
%ADD95R,1.000000X1.000000*%
%ADD96RoundRect,0.200000X-0.308734X0.142507X-0.230698X-0.249807X0.308734X-0.142507X0.230698X0.249807X0*%
%ADD97RoundRect,0.140000X0.210635X-0.064287X0.103484X0.194399X-0.210635X0.064287X-0.103484X-0.194399X0*%
%ADD98RoundRect,0.140000X0.170000X-0.140000X0.170000X0.140000X-0.170000X0.140000X-0.170000X-0.140000X0*%
%ADD99RoundRect,0.140000X-0.021213X0.219203X-0.219203X0.021213X0.021213X-0.219203X0.219203X-0.021213X0*%
%ADD100RoundRect,0.200000X0.308734X-0.142507X0.230698X0.249807X-0.308734X0.142507X-0.230698X-0.249807X0*%
%ADD101RoundRect,0.200000X-0.275000X0.200000X-0.275000X-0.200000X0.275000X-0.200000X0.275000X0.200000X0*%
%ADD102RoundRect,0.135000X-0.185000X0.135000X-0.185000X-0.135000X0.185000X-0.135000X0.185000X0.135000X0*%
%ADD103RoundRect,0.200000X-0.013512X-0.339768X0.319076X-0.117540X0.013512X0.339768X-0.319076X0.117540X0*%
%ADD104RoundRect,0.150000X-0.150000X0.675000X-0.150000X-0.675000X0.150000X-0.675000X0.150000X0.675000X0*%
%ADD105R,1.800000X2.100000*%
%ADD106RoundRect,0.250000X-0.675000X0.600000X-0.675000X-0.600000X0.675000X-0.600000X0.675000X0.600000X0*%
%ADD107RoundRect,0.100000X0.637500X0.100000X-0.637500X0.100000X-0.637500X-0.100000X0.637500X-0.100000X0*%
%ADD108RoundRect,0.140000X-0.219203X-0.021213X-0.021213X-0.219203X0.219203X0.021213X0.021213X0.219203X0*%
%ADD109RoundRect,0.140000X-0.140000X-0.170000X0.140000X-0.170000X0.140000X0.170000X-0.140000X0.170000X0*%
%ADD110RoundRect,0.150000X-0.150000X0.587500X-0.150000X-0.587500X0.150000X-0.587500X0.150000X0.587500X0*%
%ADD111RoundRect,0.200000X-0.249807X-0.230698X0.142507X-0.308734X0.249807X0.230698X-0.142507X0.308734X0*%
%ADD112RoundRect,0.140000X-0.103484X0.194399X-0.210635X-0.064287X0.103484X-0.194399X0.210635X0.064287X0*%
%ADD113RoundRect,0.125000X-0.625000X-0.125000X0.625000X-0.125000X0.625000X0.125000X-0.625000X0.125000X0*%
%ADD114RoundRect,0.125000X-0.125000X-0.625000X0.125000X-0.625000X0.125000X0.625000X-0.125000X0.625000X0*%
%ADD115R,1.200000X2.200000*%
%ADD116R,5.800000X6.400000*%
%ADD117RoundRect,0.140000X0.021213X-0.219203X0.219203X-0.021213X-0.021213X0.219203X-0.219203X0.021213X0*%
%ADD118RoundRect,0.150000X0.587500X0.150000X-0.587500X0.150000X-0.587500X-0.150000X0.587500X-0.150000X0*%
G04 APERTURE END LIST*
D10*
%TO.C,C21*%
X108650810Y-109591692D02*
X108498307Y-109439189D01*
X108141693Y-110100809D02*
X107989190Y-109948306D01*
%TO.C,C16*%
X120332606Y-40338669D02*
X120531861Y-40256135D01*
X120608139Y-41003863D02*
X120807394Y-40921329D01*
%TO.C,R57*%
X163723013Y-42093743D02*
X164117558Y-42357370D01*
X163142442Y-42962628D02*
X163536987Y-43226255D01*
%TO.C,C25*%
X140587836Y-147849999D02*
X140372164Y-147849999D01*
X140587836Y-148569999D02*
X140372164Y-148569999D01*
%TO.C,R41*%
X173697371Y-105102441D02*
X173433744Y-105496986D01*
X174566256Y-105683012D02*
X174302629Y-106077557D01*
%TO.C,R89*%
X111673148Y-115530660D02*
X111278603Y-115267033D01*
X111092577Y-116399545D02*
X110698032Y-116135918D01*
%TO.C,C10*%
X176431330Y-62142605D02*
X176513864Y-62341860D01*
X175766136Y-62418138D02*
X175848670Y-62617393D01*
%TO.C,R104*%
X120436359Y-132259999D02*
X120743641Y-132259999D01*
X120436359Y-131499999D02*
X120743641Y-131499999D01*
%TO.C,R12*%
X134176360Y-152979999D02*
X134483642Y-152979999D01*
X134176360Y-153739999D02*
X134483642Y-153739999D01*
%TO.C,C31*%
X120600000Y-128388163D02*
X120600000Y-128603835D01*
X121320000Y-128388163D02*
X121320000Y-128603835D01*
%TO.C,R60*%
X174822629Y-55812441D02*
X175086256Y-56206986D01*
X173953744Y-56393012D02*
X174217371Y-56787557D01*
%TO.C,C22*%
X122021861Y-118903863D02*
X121822606Y-118821329D01*
X122297394Y-118238669D02*
X122098139Y-118156135D01*
%TO.C,R68*%
X172547737Y-54306925D02*
X172284110Y-53912380D01*
X173416622Y-53726354D02*
X173152995Y-53331809D01*
%TO.C,R70*%
X144716799Y-35774153D02*
X144251401Y-35681580D01*
X144512929Y-36799074D02*
X144047531Y-36706501D01*
%TO.C,TP1*%
X138630000Y-40819999D02*
G75*
G03*
X138630000Y-40819999I-1200000J0D01*
G01*
%TO.C,R40*%
X161717558Y-117912628D02*
X161323013Y-118176255D01*
X161136987Y-117043743D02*
X160742442Y-117307370D01*
%TO.C,C29*%
X120935000Y-153752163D02*
X120935000Y-153967835D01*
X121655000Y-153752163D02*
X121655000Y-153967835D01*
%TO.C,R8*%
X154646359Y-130229999D02*
X154953641Y-130229999D01*
X154646359Y-129469999D02*
X154953641Y-129469999D01*
%TO.C,R45*%
X172457371Y-104262441D02*
X172193744Y-104656986D01*
X173326256Y-104843012D02*
X173062629Y-105237557D01*
%TO.C,R47*%
X147299236Y-124288746D02*
X147764634Y-124196173D01*
X147095366Y-123263825D02*
X147560764Y-123171252D01*
%TO.C,R78*%
X94501253Y-69450763D02*
X94593826Y-68985365D01*
X95526174Y-69654633D02*
X95618747Y-69189235D01*
%TO.C,R61*%
X162899009Y-43341263D02*
X163293554Y-43604890D01*
X162318438Y-44210148D02*
X162712983Y-44473775D01*
%TO.C,J4*%
X113260000Y-156889999D02*
X113260000Y-154479999D01*
X118680000Y-156589999D02*
X113560000Y-156589999D01*
X114560000Y-143969999D02*
X118680000Y-143969999D01*
X118680000Y-143969999D02*
X118680000Y-156589999D01*
X113560000Y-144969999D02*
X114560000Y-143969999D01*
X113560000Y-156589999D02*
X113560000Y-144969999D01*
X115670000Y-156889999D02*
X113260000Y-156889999D01*
%TO.C,R42*%
X181858747Y-89369235D02*
X181766174Y-89834633D01*
X180833826Y-89165365D02*
X180741253Y-89630763D01*
%TO.C,R101*%
X114012442Y-116542628D02*
X114406987Y-116806255D01*
X114593013Y-115673743D02*
X114987558Y-115937370D01*
%TO.C,R73*%
X101129339Y-53473148D02*
X101392966Y-53078603D01*
X100260454Y-52892577D02*
X100524081Y-52498032D01*
%TO.C,C12*%
X152576068Y-40215017D02*
X152775323Y-40297551D01*
X152851601Y-39549823D02*
X153050856Y-39632357D01*
%TO.C,R38*%
X121680000Y-151903640D02*
X121680000Y-151596358D01*
X120920000Y-151903640D02*
X120920000Y-151596358D01*
%TO.C,R10*%
X127393641Y-156269999D02*
X127086359Y-156269999D01*
X127393641Y-157029999D02*
X127086359Y-157029999D01*
%TO.C,C18*%
X98671330Y-64327393D02*
X98753864Y-64128138D01*
X98006136Y-64051860D02*
X98088670Y-63852605D01*
%TO.C,R109*%
X133126360Y-137319998D02*
X133433642Y-137319998D01*
X133126360Y-136559998D02*
X133433642Y-136559998D01*
%TO.C,R56*%
X176066907Y-54992863D02*
X176330534Y-55387408D01*
X175198022Y-55573434D02*
X175461649Y-55967979D01*
%TO.C,R35*%
X122200000Y-145338640D02*
X122200000Y-145031358D01*
X121440000Y-145338640D02*
X121440000Y-145031358D01*
%TO.C,R105*%
X120426359Y-133259999D02*
X120733641Y-133259999D01*
X120426359Y-132499999D02*
X120733641Y-132499999D01*
%TO.C,Q3*%
X150665000Y-129889999D02*
X150665000Y-130799999D01*
X152815000Y-133109999D02*
X150665000Y-133109999D01*
X153240000Y-129889999D02*
X150665000Y-129889999D01*
X150665000Y-132199999D02*
X150665000Y-133109999D01*
%TO.C,R66*%
X145024634Y-34293825D02*
X144559236Y-34201252D01*
X144820764Y-35318746D02*
X144355366Y-35226173D01*
%TO.C,R65*%
X161061025Y-41557910D02*
X160666480Y-41294283D01*
X161641596Y-40689025D02*
X161247051Y-40425398D01*
%TO.C,R17*%
X144376359Y-128539999D02*
X144683641Y-128539999D01*
X144376359Y-127779999D02*
X144683641Y-127779999D01*
%TO.C,R79*%
X127544634Y-35903469D02*
X127079236Y-35996042D01*
X127340764Y-34878548D02*
X126875366Y-34971121D01*
%TO.C,C4*%
X154677394Y-118271329D02*
X154478139Y-118353863D01*
X154401861Y-117606135D02*
X154202606Y-117688669D01*
%TO.C,TP3*%
X158020000Y-160619999D02*
G75*
G03*
X158020000Y-160619999I-1200000J0D01*
G01*
%TO.C,D1*%
X149870000Y-129554999D02*
X153020000Y-129554999D01*
X149870000Y-127854999D02*
X153020000Y-127854999D01*
X149870000Y-129554999D02*
X149870000Y-127854999D01*
%TO.C,R9*%
X129916359Y-167239999D02*
X130223641Y-167239999D01*
X129916359Y-166479999D02*
X130223641Y-166479999D01*
%TO.C,R44*%
X160887558Y-116652628D02*
X160493013Y-116916255D01*
X160306987Y-115783743D02*
X159912442Y-116047370D01*
%TO.C,R95*%
X94106174Y-89115365D02*
X94198747Y-89580763D01*
X93081253Y-89319235D02*
X93173826Y-89784633D01*
%TO.C,C20*%
X99193864Y-96321860D02*
X99111330Y-96122605D01*
X98528670Y-96597393D02*
X98446136Y-96398138D01*
%TO.C,C1*%
X154710000Y-131457835D02*
X154710000Y-131242163D01*
X153990000Y-131457835D02*
X153990000Y-131242163D01*
%TO.C,C5*%
X168390810Y-108718306D02*
X168238307Y-108870809D01*
X167881693Y-108209189D02*
X167729190Y-108361692D01*
%TO.C,R87*%
X93613477Y-86638406D02*
X93520904Y-86173008D01*
X92588556Y-86842276D02*
X92495983Y-86376878D01*
%TO.C,R34*%
X126097500Y-144447741D02*
X126097500Y-144922257D01*
X127142500Y-144447741D02*
X127142500Y-144922257D01*
%TO.C,R54*%
X179861699Y-86394091D02*
X179954272Y-85928693D01*
X180886620Y-86597961D02*
X180979193Y-86132563D01*
%TO.C,R106*%
X122436359Y-136569999D02*
X122743641Y-136569999D01*
X122436359Y-137329999D02*
X122743641Y-137329999D01*
%TO.C,R82*%
X92518555Y-71617718D02*
X92425982Y-72083116D01*
X93543476Y-71821588D02*
X93450903Y-72286986D01*
%TO.C,R74*%
X94036174Y-69344633D02*
X94128747Y-68879235D01*
X93011253Y-69140763D02*
X93103826Y-68675365D01*
%TO.C,R46*%
X180378747Y-89069235D02*
X180286174Y-89534633D01*
X179353826Y-88865365D02*
X179261253Y-89330763D01*
%TO.C,R15*%
X134166359Y-151989999D02*
X134473641Y-151989999D01*
X134166359Y-151229999D02*
X134473641Y-151229999D01*
%TO.C,D2*%
X149490000Y-127829999D02*
X146340000Y-127829999D01*
X149490000Y-129529999D02*
X146340000Y-129529999D01*
X149490000Y-127829999D02*
X149490000Y-129529999D01*
%TO.C,R11*%
X150800001Y-134176355D02*
X150800001Y-134483637D01*
X151560001Y-134176355D02*
X151560001Y-134483637D01*
%TO.C,R100*%
X102392629Y-104132441D02*
X102656256Y-104526986D01*
X101523744Y-104713012D02*
X101787371Y-105107557D01*
%TO.C,Q1*%
X152350000Y-136749999D02*
X154925000Y-136749999D01*
X154925000Y-134439999D02*
X154925000Y-133529999D01*
X154925000Y-136749999D02*
X154925000Y-135839999D01*
X152775000Y-133529999D02*
X154925000Y-133529999D01*
%TO.C,R1*%
X154656359Y-132399999D02*
X154963641Y-132399999D01*
X154656359Y-133159999D02*
X154963641Y-133159999D01*
%TO.C,C8*%
X144637836Y-128810000D02*
X144422164Y-128810000D01*
X144637836Y-129530000D02*
X144422164Y-129530000D01*
%TO.C,R13*%
X137973641Y-151989999D02*
X137666359Y-151989999D01*
X137973641Y-151229999D02*
X137666359Y-151229999D01*
%TO.C,C30*%
X133930000Y-128492163D02*
X133930000Y-128707835D01*
X133210000Y-128492163D02*
X133210000Y-128707835D01*
%TO.C,R52*%
X162971135Y-115246255D02*
X163365680Y-114982628D01*
X162390564Y-114377370D02*
X162785109Y-114113743D01*
%TO.C,R3*%
X129916359Y-158859999D02*
X130223641Y-158859999D01*
X129916359Y-159619999D02*
X130223641Y-159619999D01*
%TO.C,R2*%
X129891359Y-156309999D02*
X130198641Y-156309999D01*
X129891359Y-157069999D02*
X130198641Y-157069999D01*
%TO.C,U22*%
X132990000Y-146949999D02*
X132990000Y-148899999D01*
X138110000Y-146949999D02*
X138110000Y-148899999D01*
X138110000Y-146949999D02*
X138110000Y-144999999D01*
X132990000Y-146949999D02*
X132990000Y-143499999D01*
%TO.C,R69*%
X160218573Y-42807064D02*
X159824028Y-42543437D01*
X160799144Y-41938179D02*
X160404599Y-41674552D01*
%TO.C,C26*%
X140647836Y-150149999D02*
X140432164Y-150149999D01*
X140647836Y-149429999D02*
X140432164Y-149429999D01*
%TO.C,C9*%
X180060000Y-78292163D02*
X180060000Y-78507835D01*
X179340000Y-78292163D02*
X179340000Y-78507835D01*
%TO.C,R76*%
X114628024Y-42774945D02*
X115022569Y-42511318D01*
X114047453Y-41906060D02*
X114441998Y-41642433D01*
%TO.C,R93*%
X112493148Y-114270658D02*
X112098603Y-114007031D01*
X111912577Y-115139543D02*
X111518032Y-114875916D01*
%TO.C,J3*%
X113260000Y-141639999D02*
X113260000Y-139229999D01*
X113560000Y-129719999D02*
X114560000Y-128719999D01*
X118680000Y-141339999D02*
X113560000Y-141339999D01*
X115670000Y-141639999D02*
X113260000Y-141639999D01*
X113560000Y-141339999D02*
X113560000Y-129719999D01*
X118680000Y-128719999D02*
X118680000Y-141339999D01*
X114560000Y-128719999D02*
X118680000Y-128719999D01*
%TO.C,R6*%
X148318641Y-165969999D02*
X148011359Y-165969999D01*
X148318641Y-165209999D02*
X148011359Y-165209999D01*
%TO.C,Y1*%
X128090000Y-145089999D02*
X132590000Y-145089999D01*
X132590000Y-145089999D02*
X132590000Y-150489999D01*
%TO.C,J1*%
X161830000Y-129499999D02*
X161830000Y-131909999D01*
X161530000Y-129799999D02*
X161530000Y-136419999D01*
X160530000Y-137419999D02*
X156410000Y-137419999D01*
X156410000Y-129799999D02*
X161530000Y-129799999D01*
X159420000Y-129499999D02*
X161830000Y-129499999D01*
X156410000Y-137419999D02*
X156410000Y-129799999D01*
X161530000Y-136419999D02*
X160530000Y-137419999D01*
%TO.C,U19*%
X125460000Y-132980999D02*
X123260000Y-132980999D01*
X125460000Y-132980999D02*
X127660000Y-132980999D01*
X125460000Y-127510999D02*
X123260000Y-127510999D01*
X125460000Y-127510999D02*
X129060000Y-127510999D01*
%TO.C,C11*%
X166409190Y-49028306D02*
X166561693Y-49180809D01*
X166918307Y-48519189D02*
X167070810Y-48671692D01*
%TO.C,R81*%
X99726256Y-55573012D02*
X99462629Y-55967557D01*
X98857371Y-54992441D02*
X98593744Y-55386986D01*
%TO.C,R59*%
X179871253Y-72139235D02*
X179963826Y-72604633D01*
X180896174Y-71935365D02*
X180988747Y-72400763D01*
%TO.C,R48*%
X163803013Y-116506255D02*
X164197558Y-116242628D01*
X163222442Y-115637370D02*
X163616987Y-115373743D01*
%TO.C,R86*%
X94008554Y-71927721D02*
X93915981Y-72393119D01*
X95033475Y-72131591D02*
X94940902Y-72596989D01*
%TO.C,C15*%
X136572164Y-37449999D02*
X136787836Y-37449999D01*
X136572164Y-36729999D02*
X136787836Y-36729999D01*
%TO.C,R14*%
X137963641Y-152979999D02*
X137656359Y-152979999D01*
X137963641Y-153739999D02*
X137656359Y-153739999D01*
%TO.C,R7*%
X129896359Y-163949999D02*
X130203641Y-163949999D01*
X129896359Y-164709999D02*
X130203641Y-164709999D01*
%TO.C,R84*%
X112528157Y-44178028D02*
X112133612Y-44441655D01*
X111947586Y-43309143D02*
X111553041Y-43572770D01*
%TO.C,C7*%
X149820000Y-134222163D02*
X149820000Y-134437835D01*
X150540000Y-134222163D02*
X150540000Y-134437835D01*
%TO.C,R67*%
X179375350Y-69657026D02*
X179282777Y-69191628D01*
X180400271Y-69453156D02*
X180307698Y-68987758D01*
%TO.C,R97*%
X113773013Y-116933743D02*
X114167558Y-117197370D01*
X113192442Y-117802628D02*
X113586987Y-118066255D01*
%TO.C,U18*%
X138440000Y-132994999D02*
X136240000Y-132994999D01*
X138440000Y-127524999D02*
X136240000Y-127524999D01*
X138440000Y-132994999D02*
X140640000Y-132994999D01*
X138440000Y-127524999D02*
X142040000Y-127524999D01*
%TO.C,R96*%
X101162629Y-104952441D02*
X101426256Y-105346986D01*
X100293744Y-105533012D02*
X100557371Y-105927557D01*
%TO.C,R85*%
X100107371Y-55822441D02*
X99843744Y-56216986D01*
X100976256Y-56403012D02*
X100712629Y-56797557D01*
%TO.C,R32*%
X140353641Y-133399999D02*
X140046359Y-133399999D01*
X140353641Y-134159999D02*
X140046359Y-134159999D01*
%TO.C,Q12*%
X122560000Y-144234999D02*
X122560000Y-144884999D01*
X125680000Y-144234999D02*
X125680000Y-143584999D01*
X122560000Y-144234999D02*
X122560000Y-142559999D01*
X125680000Y-144234999D02*
X125680000Y-144884999D01*
%TO.C,R75*%
X130125366Y-35843825D02*
X130590764Y-35751252D01*
X130329236Y-36868746D02*
X130794634Y-36776173D01*
%TO.C,C19*%
X94950000Y-80147835D02*
X94950000Y-79932163D01*
X95670000Y-80147835D02*
X95670000Y-79932163D01*
%TO.C,R90*%
X127046052Y-124228204D02*
X126580654Y-124135631D01*
X127249922Y-123203283D02*
X126784524Y-123110710D01*
%TO.C,R98*%
X129523010Y-124720901D02*
X129988408Y-124813474D01*
X129726880Y-123695980D02*
X130192278Y-123788553D01*
%TO.C,C6*%
X176538670Y-94382605D02*
X176456136Y-94581860D01*
X177203864Y-94658138D02*
X177121330Y-94857393D01*
%TO.C,U20*%
X143100000Y-145769999D02*
X143100000Y-146069999D01*
X150320000Y-145769999D02*
X150320000Y-146069999D01*
X150320000Y-152989999D02*
X150320000Y-152689999D01*
X143400000Y-145769999D02*
X143100000Y-145769999D01*
X150020000Y-152989999D02*
X150320000Y-152989999D01*
X150020000Y-145769999D02*
X150320000Y-145769999D01*
X143100000Y-152989999D02*
X143100000Y-152689999D01*
X143400000Y-152989999D02*
X143100000Y-152989999D01*
X143100000Y-152689999D02*
X141785000Y-152689999D01*
%TO.C,R4*%
X154995000Y-131478640D02*
X154995000Y-131171358D01*
X155755000Y-131478640D02*
X155755000Y-131171358D01*
%TO.C,R37*%
X123623641Y-154740000D02*
X123316359Y-154740000D01*
X123623641Y-153980000D02*
X123316359Y-153980000D01*
%TO.C,R58*%
X147286218Y-35825223D02*
X147751616Y-35917796D01*
X147490088Y-34800302D02*
X147955486Y-34892875D01*
%TO.C,R94*%
X127542278Y-121708553D02*
X127076880Y-121615980D01*
X127338408Y-122733474D02*
X126873010Y-122640901D01*
%TO.C,C3*%
X138517836Y-121139999D02*
X138302164Y-121139999D01*
X138517836Y-121859999D02*
X138302164Y-121859999D01*
%TO.C,C23*%
X131827836Y-144559999D02*
X131612164Y-144559999D01*
X131827836Y-143839999D02*
X131612164Y-143839999D01*
%TO.C,R31*%
X154853641Y-139099999D02*
X154546359Y-139099999D01*
X154853641Y-138339999D02*
X154546359Y-138339999D01*
%TO.C,R77*%
X101510457Y-53722578D02*
X101774084Y-53328033D01*
X102379342Y-54303149D02*
X102642969Y-53908604D01*
%TO.C,R88*%
X99759546Y-102852577D02*
X99495919Y-102458032D01*
X98890661Y-103433148D02*
X98627034Y-103038603D01*
%TO.C,U5*%
X142670000Y-132839999D02*
X142940000Y-132839999D01*
X149570000Y-132839999D02*
X149300000Y-132839999D01*
X142670000Y-134339999D02*
X142670000Y-132839999D01*
X149570000Y-134339999D02*
X149570000Y-132839999D01*
X149300000Y-132839999D02*
X149300000Y-131739999D01*
X142940000Y-132839999D02*
X142940000Y-130009999D01*
%TO.C,R80*%
X111693147Y-42919337D02*
X111298602Y-43182964D01*
X111112576Y-42050452D02*
X110718031Y-42314079D01*
%TO.C,R99*%
X95591442Y-88787722D02*
X95684015Y-89253120D01*
X94566521Y-88991592D02*
X94659094Y-89456990D01*
%TO.C,R62*%
X146995366Y-37296173D02*
X147460764Y-37388746D01*
X147199236Y-36271252D02*
X147664634Y-36363825D01*
%TO.C,R51*%
X146835366Y-121803825D02*
X147300764Y-121711252D01*
X147039236Y-122828746D02*
X147504634Y-122736173D01*
%TO.C,R71*%
X130031351Y-35410774D02*
X130496749Y-35318201D01*
X129827481Y-34385853D02*
X130292879Y-34293280D01*
%TO.C,R92*%
X100120660Y-102613146D02*
X99857033Y-102218601D01*
X100989545Y-102032575D02*
X100725918Y-101638030D01*
%TO.C,R50*%
X181331253Y-86690763D02*
X181423826Y-86225365D01*
X182356174Y-86894633D02*
X182448747Y-86429235D01*
%TO.C,R91*%
X95098747Y-86310763D02*
X95006174Y-85845365D01*
X94073826Y-86514633D02*
X93981253Y-86049235D01*
%TO.C,C17*%
X106709190Y-50071692D02*
X106861693Y-49919189D01*
X107218307Y-50580809D02*
X107370810Y-50428306D01*
%TO.C,R43*%
X144544634Y-123306173D02*
X144079236Y-123398746D01*
X144340764Y-122281252D02*
X143875366Y-122373825D01*
%TO.C,R103*%
X120446359Y-130499999D02*
X120753641Y-130499999D01*
X120446359Y-131259999D02*
X120753641Y-131259999D01*
%TO.C,R55*%
X182365224Y-71636217D02*
X182457797Y-72101615D01*
X181340303Y-71840087D02*
X181432876Y-72305485D01*
%TO.C,R72*%
X113212442Y-40647370D02*
X113606987Y-40383743D01*
X113793013Y-41516255D02*
X114187558Y-41252628D01*
%TO.C,R28*%
X154853641Y-137929999D02*
X154546359Y-137929999D01*
X154853641Y-137169999D02*
X154546359Y-137169999D01*
%TO.C,R36*%
X125898640Y-153954998D02*
X125591358Y-153954998D01*
X125898640Y-154714998D02*
X125591358Y-154714998D01*
%TO.C,R83*%
X127852038Y-37371443D02*
X127386640Y-37464016D01*
X127648168Y-36346522D02*
X127182770Y-36439095D01*
%TO.C,R39*%
X144834634Y-124766173D02*
X144369236Y-124858746D01*
X144630764Y-123741252D02*
X144165366Y-123833825D01*
%TO.C,R63*%
X180843826Y-69364633D02*
X180751253Y-68899235D01*
X181868747Y-69160763D02*
X181776174Y-68695365D01*
%TO.C,R64*%
X174667911Y-52901024D02*
X174404284Y-52506479D01*
X173799026Y-53481595D02*
X173535399Y-53087050D01*
%TO.C,R53*%
X174712629Y-102767557D02*
X174976256Y-102373012D01*
X173843744Y-102186986D02*
X174107371Y-101792441D01*
%TO.C,R108*%
X129576360Y-137319998D02*
X129883642Y-137319998D01*
X129576360Y-136559998D02*
X129883642Y-136559998D01*
%TO.C,R102*%
X130019236Y-122201252D02*
X130484634Y-122293825D01*
X129815366Y-123226173D02*
X130280764Y-123318746D01*
%TO.C,R49*%
X175972629Y-103587557D02*
X176236256Y-103193012D01*
X175103744Y-103006986D02*
X175367371Y-102612441D01*
%TO.C,TP2*%
X144400000Y-160419999D02*
G75*
G03*
X144400000Y-160419999I-1200000J0D01*
G01*
%TO.C,R33*%
X130440000Y-131673640D02*
X130440000Y-131366358D01*
X131200000Y-131673640D02*
X131200000Y-131366358D01*
%TO.C,Q2*%
X157970000Y-129169999D02*
X157320000Y-129169999D01*
X157970000Y-129169999D02*
X158620000Y-129169999D01*
X157970000Y-126049999D02*
X159645000Y-126049999D01*
X157970000Y-126049999D02*
X157320000Y-126049999D01*
%TO.C,U21*%
X127179999Y-150059999D02*
X127179999Y-152009999D01*
X127179999Y-150059999D02*
X127179999Y-148109999D01*
X122059999Y-150059999D02*
X122059999Y-146609999D01*
X122059999Y-150059999D02*
X122059999Y-152009999D01*
%TO.C,R5*%
X129896359Y-161319999D02*
X130203641Y-161319999D01*
X129896359Y-162079999D02*
X130203641Y-162079999D01*
%TO.C,R107*%
X125996359Y-137319999D02*
X126303641Y-137319999D01*
X125996359Y-136559999D02*
X126303641Y-136559999D01*
%TD*%
%LPC*%
D11*
%TO.C,U12*%
X107856369Y-46655723D03*
D12*
X106357303Y-48154789D03*
D11*
X104858237Y-49653855D03*
%TD*%
D13*
%TO.C,D13*%
X159447981Y-114445752D03*
D14*
X161559914Y-113034604D03*
%TD*%
D15*
%TO.C,D21*%
X115492026Y-44089183D03*
D14*
X113380093Y-45500331D03*
%TD*%
D16*
%TO.C,SW2*%
X149110000Y-163669999D03*
D17*
X146570000Y-163669999D03*
X144030000Y-163669999D03*
%TD*%
D18*
%TO.C,D20*%
X130627159Y-38356325D03*
D14*
X128135964Y-38851854D03*
%TD*%
D19*
%TO.C,D16*%
X178381128Y-72424600D03*
D14*
X177885599Y-69933405D03*
%TD*%
D20*
%TO.C,D12*%
X144310896Y-120180090D03*
D14*
X146801657Y-119682387D03*
%TD*%
D21*
%TO.C,SW1*%
X132235000Y-156684999D03*
D22*
X132235000Y-159224999D03*
X132235000Y-161764999D03*
X132235000Y-164304999D03*
X132235000Y-166844999D03*
X139855000Y-166844999D03*
X139855000Y-164304999D03*
X139855000Y-161764999D03*
X139855000Y-159224999D03*
X139855000Y-156684999D03*
%TD*%
D23*
%TO.C,D17*%
X172648310Y-57289473D03*
D14*
X171237162Y-55177540D03*
%TD*%
D24*
%TO.C,U3*%
X167083638Y-111879212D03*
D25*
X168582704Y-110380146D03*
D24*
X170081770Y-108881080D03*
%TD*%
D26*
%TO.C,D26*%
X113380098Y-113034604D03*
D14*
X115492031Y-114445752D03*
%TD*%
D27*
%TO.C,U10*%
X139590006Y-35267449D03*
D28*
X137470006Y-35267449D03*
D27*
X135350006Y-35267449D03*
%TD*%
D29*
%TO.C,D27*%
X128135964Y-119683040D03*
D14*
X130627159Y-120178569D03*
%TD*%
D30*
%TO.C,D18*%
X161559914Y-45500293D03*
D14*
X159447981Y-44089145D03*
%TD*%
D31*
%TO.C,D19*%
X146804048Y-38851854D03*
D14*
X144312853Y-38356325D03*
%TD*%
D32*
%TO.C,D14*%
X171237162Y-103357356D03*
D14*
X172648310Y-101245423D03*
%TD*%
D33*
%TO.C,U8*%
X170081769Y-49653817D03*
D34*
X168582703Y-48154751D03*
D33*
X167083637Y-46655685D03*
%TD*%
D35*
%TO.C,U11*%
X122590560Y-37805462D03*
D36*
X120631935Y-38616751D03*
D35*
X118673310Y-39428040D03*
%TD*%
D37*
%TO.C,U16*%
X104858242Y-108881080D03*
D38*
X106357308Y-110380146D03*
D37*
X107856374Y-111879212D03*
%TD*%
D39*
%TO.C,D15*%
X177885599Y-88601491D03*
D14*
X178381128Y-86110296D03*
%TD*%
D40*
%TO.C,U13*%
X97630590Y-60470791D03*
D41*
X96819301Y-62429416D03*
D40*
X96008012Y-64388041D03*
%TD*%
D42*
%TO.C,D22*%
X103702845Y-55177580D03*
D14*
X102291697Y-57289513D03*
%TD*%
D43*
%TO.C,U6*%
X181470005Y-81387449D03*
D44*
X181470005Y-79267449D03*
D43*
X181470005Y-77147449D03*
%TD*%
D45*
%TO.C,D24*%
X96558879Y-86110335D03*
D14*
X97054408Y-88601530D03*
%TD*%
D46*
%TO.C,U2*%
X152349452Y-120729436D03*
D47*
X154308077Y-119918147D03*
D46*
X156266702Y-119106858D03*
%TD*%
D48*
%TO.C,D23*%
X97054408Y-69933445D03*
D14*
X96558879Y-72424640D03*
%TD*%
D49*
%TO.C,U17*%
X118673310Y-119106858D03*
D50*
X120631935Y-119918147D03*
D49*
X122590560Y-120729436D03*
%TD*%
D51*
%TO.C,U14*%
X93470001Y-77147486D03*
D52*
X93470001Y-79267486D03*
D51*
X93470001Y-81387486D03*
%TD*%
D53*
%TO.C,U4*%
X177309416Y-98064144D03*
D54*
X178120705Y-96105519D03*
D53*
X178931994Y-94146894D03*
%TD*%
D55*
%TO.C,U15*%
X96008019Y-94146894D03*
D56*
X96819308Y-96105519D03*
D55*
X97630597Y-98064144D03*
%TD*%
D57*
%TO.C,U1*%
X135350006Y-123267448D03*
D58*
X137470006Y-123267448D03*
D57*
X139590006Y-123267448D03*
%TD*%
D59*
%TO.C,SW3*%
X127930000Y-158779999D03*
D17*
X124730000Y-161279999D03*
X127930000Y-163779999D03*
%TD*%
D60*
%TO.C,D25*%
X102291702Y-101245423D03*
D14*
X103702850Y-103357356D03*
%TD*%
D61*
%TO.C,U9*%
X156266702Y-39428040D03*
D62*
X154308077Y-38616751D03*
D61*
X152349452Y-37805462D03*
%TD*%
D63*
%TO.C,JP1*%
X118745000Y-154309999D03*
D64*
X118745000Y-151769999D03*
%TD*%
D65*
%TO.C,U7*%
X178931994Y-64388003D03*
D66*
X178120705Y-62429378D03*
D65*
X177309416Y-60470753D03*
%TD*%
D67*
%TO.C,C21*%
X108659411Y-110109410D03*
X107980589Y-109430588D03*
%TD*%
D68*
%TO.C,C16*%
X120126538Y-40813687D03*
X121013462Y-40446311D03*
%TD*%
D69*
%TO.C,R57*%
X162944038Y-42201654D03*
X164315962Y-43118344D03*
%TD*%
D70*
%TO.C,C25*%
X140960000Y-148209999D03*
X140000000Y-148209999D03*
%TD*%
D71*
%TO.C,R41*%
X174458345Y-104904037D03*
X173541655Y-106275961D03*
%TD*%
D72*
%TO.C,R89*%
X111871552Y-116291634D03*
X110499628Y-115374944D03*
%TD*%
D73*
%TO.C,C10*%
X175956312Y-61936537D03*
X176323688Y-62823461D03*
%TD*%
D74*
%TO.C,R104*%
X120080000Y-131879999D03*
X121100000Y-131879999D03*
%TD*%
%TO.C,R12*%
X133820001Y-153359999D03*
X134840001Y-153359999D03*
%TD*%
D75*
%TO.C,C31*%
X120960000Y-128015999D03*
X120960000Y-128975999D03*
%TD*%
D76*
%TO.C,R60*%
X174061655Y-55614037D03*
X174978345Y-56985961D03*
%TD*%
D77*
%TO.C,C22*%
X122503462Y-118713687D03*
X121616538Y-118346311D03*
%TD*%
D78*
%TO.C,R68*%
X173308711Y-54505329D03*
X172392021Y-53133405D03*
%TD*%
D79*
%TO.C,R70*%
X145191313Y-36401277D03*
X143573017Y-36079377D03*
%TD*%
D80*
%TO.C,TP1*%
X137430000Y-40819999D03*
%TD*%
D81*
%TO.C,R40*%
X161915962Y-117151654D03*
X160544038Y-118068344D03*
%TD*%
D75*
%TO.C,C29*%
X121295000Y-153379999D03*
X121295000Y-154339999D03*
%TD*%
D74*
%TO.C,R8*%
X154290000Y-129849999D03*
X155310000Y-129849999D03*
%TD*%
D71*
%TO.C,R45*%
X173218345Y-104064037D03*
X172301655Y-105435961D03*
%TD*%
D82*
%TO.C,R47*%
X146620852Y-123890949D03*
X148239148Y-123569049D03*
%TD*%
D83*
%TO.C,R78*%
X94899050Y-70129147D03*
X95220950Y-68510851D03*
%TD*%
D69*
%TO.C,R61*%
X162120034Y-43449174D03*
X163491958Y-44365864D03*
%TD*%
D84*
%TO.C,J4*%
X115470000Y-154029999D03*
D85*
X115470000Y-151529999D03*
X115470000Y-149029999D03*
X115470000Y-146529999D03*
%TD*%
D86*
%TO.C,R42*%
X181460950Y-88690851D03*
X181139050Y-90309147D03*
%TD*%
D69*
%TO.C,R101*%
X113814038Y-115781654D03*
X115185962Y-116698344D03*
%TD*%
D87*
%TO.C,R73*%
X100368365Y-53671552D03*
X101285055Y-52299628D03*
%TD*%
D88*
%TO.C,C12*%
X152370000Y-39739999D03*
X153256924Y-40107375D03*
%TD*%
D89*
%TO.C,R38*%
X121300000Y-152259999D03*
X121300000Y-151239999D03*
%TD*%
D90*
%TO.C,R10*%
X127750000Y-156649999D03*
X126730000Y-156649999D03*
%TD*%
D91*
%TO.C,C18*%
X98196312Y-64533461D03*
X98563688Y-63646537D03*
%TD*%
D74*
%TO.C,R109*%
X132770001Y-136939998D03*
X133790001Y-136939998D03*
%TD*%
D76*
%TO.C,R56*%
X175305933Y-54794459D03*
X176222623Y-56166383D03*
%TD*%
D89*
%TO.C,R35*%
X121820000Y-145694999D03*
X121820000Y-144674999D03*
%TD*%
D74*
%TO.C,R105*%
X120070000Y-132879999D03*
X121090000Y-132879999D03*
%TD*%
D92*
%TO.C,Q3*%
X152940000Y-130549999D03*
X152940000Y-132449999D03*
X150540000Y-131499999D03*
%TD*%
D79*
%TO.C,R66*%
X145499148Y-34920949D03*
X143880852Y-34599049D03*
%TD*%
D72*
%TO.C,R65*%
X161840000Y-41449999D03*
X160468076Y-40533309D03*
%TD*%
D74*
%TO.C,R17*%
X144020000Y-128159999D03*
X145040000Y-128159999D03*
%TD*%
D93*
%TO.C,R79*%
X128019148Y-35276345D03*
X126400852Y-35598245D03*
%TD*%
D94*
%TO.C,C4*%
X154883462Y-117796311D03*
X153996538Y-118163687D03*
%TD*%
D80*
%TO.C,TP3*%
X156820000Y-160619999D03*
%TD*%
D95*
%TO.C,D1*%
X150520000Y-128704999D03*
X153020000Y-128704999D03*
%TD*%
D74*
%TO.C,R9*%
X129560000Y-166859999D03*
X130580000Y-166859999D03*
%TD*%
D81*
%TO.C,R44*%
X161085962Y-115891654D03*
X159714038Y-116808344D03*
%TD*%
D96*
%TO.C,R95*%
X93479050Y-88640851D03*
X93800950Y-90259147D03*
%TD*%
D97*
%TO.C,C20*%
X99003688Y-96803461D03*
X98636312Y-95916537D03*
%TD*%
D98*
%TO.C,C1*%
X154350000Y-131829999D03*
X154350000Y-130869999D03*
%TD*%
D99*
%TO.C,C5*%
X168399411Y-108200588D03*
X167720589Y-108879410D03*
%TD*%
D100*
%TO.C,R87*%
X93215680Y-87316790D03*
X92893780Y-85698494D03*
%TD*%
D101*
%TO.C,R34*%
X126620000Y-143859999D03*
X126620000Y-145509999D03*
%TD*%
D83*
%TO.C,R54*%
X180259496Y-87072475D03*
X180581396Y-85454179D03*
%TD*%
D74*
%TO.C,R106*%
X122080000Y-136949999D03*
X123100000Y-136949999D03*
%TD*%
D86*
%TO.C,R82*%
X93145679Y-71143204D03*
X92823779Y-72761500D03*
%TD*%
D83*
%TO.C,R74*%
X93409050Y-69819147D03*
X93730950Y-68200851D03*
%TD*%
D86*
%TO.C,R46*%
X179980950Y-88390851D03*
X179659050Y-90009147D03*
%TD*%
D74*
%TO.C,R15*%
X133810000Y-151609999D03*
X134830000Y-151609999D03*
%TD*%
D95*
%TO.C,D2*%
X148840000Y-128679999D03*
X146340000Y-128679999D03*
%TD*%
D102*
%TO.C,R11*%
X151180001Y-133819996D03*
X151180001Y-134839996D03*
%TD*%
D76*
%TO.C,R100*%
X101631655Y-103934037D03*
X102548345Y-105305961D03*
%TD*%
D92*
%TO.C,Q1*%
X152650000Y-136089999D03*
X152650000Y-134189999D03*
X155050000Y-135139999D03*
%TD*%
D74*
%TO.C,R1*%
X154300000Y-132779999D03*
X155320000Y-132779999D03*
%TD*%
D70*
%TO.C,C8*%
X145010000Y-129170000D03*
X144050000Y-129170000D03*
%TD*%
D90*
%TO.C,R13*%
X138330000Y-151609999D03*
X137310000Y-151609999D03*
%TD*%
D75*
%TO.C,C30*%
X133570000Y-128119999D03*
X133570000Y-129079999D03*
%TD*%
D103*
%TO.C,R52*%
X162192160Y-115138344D03*
X163564084Y-114221654D03*
%TD*%
D74*
%TO.C,R3*%
X129560000Y-159239999D03*
X130580000Y-159239999D03*
%TD*%
%TO.C,R2*%
X129535000Y-156689999D03*
X130555000Y-156689999D03*
%TD*%
D104*
%TO.C,U22*%
X133645000Y-144324999D03*
X134915000Y-144324999D03*
X136185000Y-144324999D03*
X137455000Y-144324999D03*
X137455000Y-149574999D03*
X136185000Y-149574999D03*
X134915000Y-149574999D03*
X133645000Y-149574999D03*
%TD*%
D72*
%TO.C,R69*%
X160997548Y-42699153D03*
X159625624Y-41782463D03*
%TD*%
D70*
%TO.C,C26*%
X141020000Y-149789999D03*
X140060000Y-149789999D03*
%TD*%
D75*
%TO.C,C9*%
X179700000Y-77919999D03*
X179700000Y-78879999D03*
%TD*%
D103*
%TO.C,R76*%
X113849049Y-42667034D03*
X115220973Y-41750344D03*
%TD*%
D72*
%TO.C,R93*%
X112691552Y-115031632D03*
X111319628Y-114114942D03*
%TD*%
D84*
%TO.C,J3*%
X115470000Y-138779999D03*
D85*
X115470000Y-136279999D03*
X115470000Y-133779999D03*
X115470000Y-131279999D03*
%TD*%
D90*
%TO.C,R6*%
X148675000Y-165589999D03*
X147655000Y-165589999D03*
%TD*%
D105*
%TO.C,Y1*%
X131490000Y-146339999D03*
X131490000Y-149239999D03*
X129190000Y-149239999D03*
X129190000Y-146339999D03*
%TD*%
D106*
%TO.C,J1*%
X159620000Y-132359999D03*
D85*
X159620000Y-134859999D03*
%TD*%
D107*
%TO.C,U19*%
X128322500Y-127970999D03*
X128322500Y-128620999D03*
X128322500Y-129270999D03*
X128322500Y-129920999D03*
X128322500Y-130570999D03*
X128322500Y-131220999D03*
X128322500Y-131870999D03*
X128322500Y-132520999D03*
X122597500Y-132520999D03*
X122597500Y-131870999D03*
X122597500Y-131220999D03*
X122597500Y-130570999D03*
X122597500Y-129920999D03*
X122597500Y-129270999D03*
X122597500Y-128620999D03*
X122597500Y-127970999D03*
%TD*%
D108*
%TO.C,C11*%
X166400589Y-48510588D03*
X167079411Y-49189410D03*
%TD*%
D71*
%TO.C,R81*%
X99618345Y-54794037D03*
X98701655Y-56165961D03*
%TD*%
D96*
%TO.C,R59*%
X180269050Y-71460851D03*
X180590950Y-73079147D03*
%TD*%
D103*
%TO.C,R48*%
X163024038Y-116398344D03*
X164395962Y-115481654D03*
%TD*%
D86*
%TO.C,R86*%
X94635678Y-71453207D03*
X94313778Y-73071503D03*
%TD*%
D109*
%TO.C,C15*%
X136200000Y-37089999D03*
X137160000Y-37089999D03*
%TD*%
D90*
%TO.C,R14*%
X138320000Y-153359999D03*
X137300000Y-153359999D03*
%TD*%
D74*
%TO.C,R7*%
X129540000Y-164329999D03*
X130560000Y-164329999D03*
%TD*%
D81*
%TO.C,R84*%
X112726561Y-43417054D03*
X111354637Y-44333744D03*
%TD*%
D75*
%TO.C,C7*%
X150180000Y-133849999D03*
X150180000Y-134809999D03*
%TD*%
D100*
%TO.C,R67*%
X180002474Y-70131540D03*
X179680574Y-68513244D03*
%TD*%
D69*
%TO.C,R97*%
X112994038Y-117041654D03*
X114365962Y-117958344D03*
%TD*%
D107*
%TO.C,U18*%
X141302500Y-127984999D03*
X141302500Y-128634999D03*
X141302500Y-129284999D03*
X141302500Y-129934999D03*
X141302500Y-130584999D03*
X141302500Y-131234999D03*
X141302500Y-131884999D03*
X141302500Y-132534999D03*
X135577500Y-132534999D03*
X135577500Y-131884999D03*
X135577500Y-131234999D03*
X135577500Y-130584999D03*
X135577500Y-129934999D03*
X135577500Y-129284999D03*
X135577500Y-128634999D03*
X135577500Y-127984999D03*
%TD*%
D76*
%TO.C,R96*%
X100401655Y-104754037D03*
X101318345Y-106125961D03*
%TD*%
D71*
%TO.C,R85*%
X100868345Y-55624037D03*
X99951655Y-56995961D03*
%TD*%
D90*
%TO.C,R32*%
X140710000Y-133779999D03*
X139690000Y-133779999D03*
%TD*%
D110*
%TO.C,Q12*%
X123170000Y-143297499D03*
X125070000Y-143297499D03*
X124120000Y-145172499D03*
%TD*%
D82*
%TO.C,R75*%
X129650852Y-36470949D03*
X131269148Y-36149049D03*
%TD*%
D98*
%TO.C,C19*%
X95310000Y-80519999D03*
X95310000Y-79559999D03*
%TD*%
D79*
%TO.C,R90*%
X127724436Y-123830407D03*
X126106140Y-123508507D03*
%TD*%
D111*
%TO.C,R98*%
X129048496Y-124093777D03*
X130666792Y-124415677D03*
%TD*%
D112*
%TO.C,C6*%
X177013688Y-94176537D03*
X176646312Y-95063461D03*
%TD*%
D113*
%TO.C,U20*%
X142535000Y-152179999D03*
X142535000Y-151379999D03*
X142535000Y-150579999D03*
X142535000Y-149779999D03*
X142535000Y-148979999D03*
X142535000Y-148179999D03*
X142535000Y-147379999D03*
X142535000Y-146579999D03*
D114*
X143910000Y-145204999D03*
X144710000Y-145204999D03*
X145510000Y-145204999D03*
X146310000Y-145204999D03*
X147110000Y-145204999D03*
X147910000Y-145204999D03*
X148710000Y-145204999D03*
X149510000Y-145204999D03*
D113*
X150885000Y-146579999D03*
X150885000Y-147379999D03*
X150885000Y-148179999D03*
X150885000Y-148979999D03*
X150885000Y-149779999D03*
X150885000Y-150579999D03*
X150885000Y-151379999D03*
X150885000Y-152179999D03*
D114*
X149510000Y-153554999D03*
X148710000Y-153554999D03*
X147910000Y-153554999D03*
X147110000Y-153554999D03*
X146310000Y-153554999D03*
X145510000Y-153554999D03*
X144710000Y-153554999D03*
X143910000Y-153554999D03*
%TD*%
D89*
%TO.C,R4*%
X155375000Y-131834999D03*
X155375000Y-130814999D03*
%TD*%
D90*
%TO.C,R37*%
X123980000Y-154360000D03*
X122960000Y-154360000D03*
%TD*%
D111*
%TO.C,R58*%
X146811704Y-35198099D03*
X148430000Y-35519999D03*
%TD*%
D79*
%TO.C,R94*%
X128016792Y-122335677D03*
X126398496Y-122013777D03*
%TD*%
D70*
%TO.C,C3*%
X138890000Y-121499999D03*
X137930000Y-121499999D03*
%TD*%
%TO.C,C23*%
X132200000Y-144199999D03*
X131240000Y-144199999D03*
%TD*%
D90*
%TO.C,R31*%
X155210000Y-138719999D03*
X154190000Y-138719999D03*
%TD*%
D87*
%TO.C,R77*%
X101618368Y-54501553D03*
X102535058Y-53129629D03*
%TD*%
D78*
%TO.C,R88*%
X99651635Y-103631552D03*
X98734945Y-102259628D03*
%TD*%
D115*
%TO.C,U5*%
X143840000Y-131109999D03*
X146120000Y-131109999D03*
D116*
X146120000Y-137409999D03*
D115*
X148400000Y-131109999D03*
%TD*%
D81*
%TO.C,R80*%
X111891551Y-42158363D03*
X110519627Y-43075053D03*
%TD*%
D96*
%TO.C,R99*%
X94964318Y-88313208D03*
X95286218Y-89931504D03*
%TD*%
D111*
%TO.C,R62*%
X146520852Y-36669049D03*
X148139148Y-36990949D03*
%TD*%
D82*
%TO.C,R51*%
X146360852Y-122430949D03*
X147979148Y-122109049D03*
%TD*%
%TO.C,R71*%
X129352967Y-35012977D03*
X130971263Y-34691077D03*
%TD*%
D78*
%TO.C,R92*%
X100881634Y-102811550D03*
X99964944Y-101439626D03*
%TD*%
D83*
%TO.C,R50*%
X181729050Y-87369147D03*
X182050950Y-85750851D03*
%TD*%
D100*
%TO.C,R91*%
X94700950Y-86989147D03*
X94379050Y-85370851D03*
%TD*%
D117*
%TO.C,C17*%
X106700589Y-50589410D03*
X107379411Y-49910588D03*
%TD*%
D93*
%TO.C,R43*%
X145019148Y-122679049D03*
X143400852Y-123000949D03*
%TD*%
D74*
%TO.C,R103*%
X120090000Y-130879999D03*
X121110000Y-130879999D03*
%TD*%
D96*
%TO.C,R55*%
X181738100Y-71161703D03*
X182060000Y-72779999D03*
%TD*%
D103*
%TO.C,R72*%
X113014038Y-41408344D03*
X114385962Y-40491654D03*
%TD*%
D90*
%TO.C,R28*%
X155210000Y-137549999D03*
X154190000Y-137549999D03*
%TD*%
%TO.C,R36*%
X126254999Y-154334998D03*
X125234999Y-154334998D03*
%TD*%
D93*
%TO.C,R83*%
X128326552Y-36744319D03*
X126708256Y-37066219D03*
%TD*%
%TO.C,R39*%
X145309148Y-124139049D03*
X143690852Y-124460949D03*
%TD*%
D100*
%TO.C,R63*%
X181470950Y-69839147D03*
X181149050Y-68220851D03*
%TD*%
D78*
%TO.C,R64*%
X174560000Y-53679999D03*
X173643310Y-52308075D03*
%TD*%
D87*
%TO.C,R53*%
X173951655Y-102965961D03*
X174868345Y-101594037D03*
%TD*%
D74*
%TO.C,R108*%
X129220001Y-136939998D03*
X130240001Y-136939998D03*
%TD*%
D111*
%TO.C,R102*%
X129340852Y-122599049D03*
X130959148Y-122920949D03*
%TD*%
D87*
%TO.C,R49*%
X175211655Y-103785961D03*
X176128345Y-102414037D03*
%TD*%
D80*
%TO.C,TP2*%
X143200000Y-160419999D03*
%TD*%
D89*
%TO.C,R33*%
X130820000Y-132029999D03*
X130820000Y-131009999D03*
%TD*%
D118*
%TO.C,Q2*%
X158907500Y-126659999D03*
X158907500Y-128559999D03*
X157032500Y-127609999D03*
%TD*%
D104*
%TO.C,U21*%
X122714999Y-147434999D03*
X123984999Y-147434999D03*
X125254999Y-147434999D03*
X126524999Y-147434999D03*
X126524999Y-152684999D03*
X125254999Y-152684999D03*
X123984999Y-152684999D03*
X122714999Y-152684999D03*
%TD*%
D74*
%TO.C,R5*%
X129540000Y-161699999D03*
X130560000Y-161699999D03*
%TD*%
%TO.C,R107*%
X125640000Y-136939999D03*
X126660000Y-136939999D03*
%TD*%
M02*
