%TF.GenerationSoftware,KiCad,Pcbnew,(6.0.11)*%
%TF.CreationDate,2024-02-10T16:44:09+09:00*%
%TF.ProjectId,IR,49522e6b-6963-4616-945f-706362585858,rev?*%
%TF.SameCoordinates,Original*%
%TF.FileFunction,Legend,Top*%
%TF.FilePolarity,Positive*%
%FSLAX46Y46*%
G04 Gerber Fmt 4.6, Leading zero omitted, Abs format (unit mm)*
G04 Created by KiCad (PCBNEW (6.0.11)) date 2024-02-10 16:44:09*
%MOMM*%
%LPD*%
G01*
G04 APERTURE LIST*
G04 Aperture macros list*
%AMRoundRect*
0 Rectangle with rounded corners*
0 $1 Rounding radius*
0 $2 $3 $4 $5 $6 $7 $8 $9 X,Y pos of 4 corners*
0 Add a 4 corners polygon primitive as box body*
4,1,4,$2,$3,$4,$5,$6,$7,$8,$9,$2,$3,0*
0 Add four circle primitives for the rounded corners*
1,1,$1+$1,$2,$3*
1,1,$1+$1,$4,$5*
1,1,$1+$1,$6,$7*
1,1,$1+$1,$8,$9*
0 Add four rect primitives between the rounded corners*
20,1,$1+$1,$2,$3,$4,$5,0*
20,1,$1+$1,$4,$5,$6,$7,0*
20,1,$1+$1,$6,$7,$8,$9,0*
20,1,$1+$1,$8,$9,$2,$3,0*%
%AMRotRect*
0 Rectangle, with rotation*
0 The origin of the aperture is its center*
0 $1 length*
0 $2 width*
0 $3 Rotation angle, in degrees counterclockwise*
0 Add horizontal line*
21,1,$1,$2,0,0,$3*%
G04 Aperture macros list end*
%ADD10C,0.150000*%
%ADD11C,0.120000*%
%ADD12C,0.130000*%
%ADD13C,0.200000*%
%ADD14C,0.230000*%
%ADD15C,0.380000*%
%ADD16C,0.283607*%
%ADD17RoundRect,0.400000X0.176777X0.742462X-0.742462X-0.176777X-0.176777X-0.742462X0.742462X0.176777X0*%
%ADD18RoundRect,0.300000X-0.141421X0.565685X-0.565685X0.141421X0.141421X-0.565685X0.565685X-0.141421X0*%
%ADD19R,0.700000X1.000000*%
%ADD20RotRect,1.800000X1.800000X33.750000*%
%ADD21C,1.800000*%
%ADD22RotRect,1.800000X1.800000X213.750000*%
%ADD23RoundRect,0.381000X-0.381000X0.381000X-0.381000X-0.381000X0.381000X-0.381000X0.381000X0.381000X0*%
%ADD24C,1.524000*%
%ADD25RotRect,1.800000X1.800000X191.250000*%
%ADD26R,3.250000X0.740000*%
%ADD27RotRect,1.800000X1.800000X101.250000*%
%ADD28RoundRect,0.250001X-0.799999X1.999999X-0.799999X-1.999999X0.799999X-1.999999X0.799999X1.999999X0*%
%ADD29RotRect,1.800000X1.800000X11.300000*%
%ADD30R,1.600000X1.600000*%
%ADD31O,1.600000X1.600000*%
%ADD32RotRect,1.800000X1.800000X123.750000*%
%ADD33RoundRect,0.237500X-0.287500X-0.237500X0.287500X-0.237500X0.287500X0.237500X-0.287500X0.237500X0*%
%ADD34RoundRect,0.400000X-0.176777X-0.742462X0.742462X0.176777X0.176777X0.742462X-0.742462X-0.176777X0*%
%ADD35RoundRect,0.300000X0.141421X-0.565685X0.565685X-0.141421X-0.141421X0.565685X-0.565685X0.141421X0*%
%ADD36R,1.600000X1.400000*%
%ADD37RotRect,1.800000X1.800000X326.250000*%
%ADD38RoundRect,0.400000X0.650000X0.400000X-0.650000X0.400000X-0.650000X-0.400000X0.650000X-0.400000X0*%
%ADD39RoundRect,0.300000X0.300000X0.500000X-0.300000X0.500000X-0.300000X-0.500000X0.300000X-0.500000X0*%
%ADD40RotRect,1.800000X1.800000X348.750000*%
%ADD41RotRect,1.800000X1.800000X146.250000*%
%ADD42RoundRect,0.237500X0.287500X0.237500X-0.287500X0.237500X-0.287500X-0.237500X0.287500X-0.237500X0*%
%ADD43RotRect,1.800000X1.800000X168.750000*%
%ADD44RotRect,1.800000X1.800000X56.250000*%
%ADD45RoundRect,0.400000X0.742462X-0.176777X-0.176777X0.742462X-0.742462X0.176777X0.176777X-0.742462X0*%
%ADD46RoundRect,0.300000X0.565685X0.141421X0.141421X0.565685X-0.565685X-0.141421X-0.141421X-0.565685X0*%
%ADD47RoundRect,0.400000X0.447448X0.618296X-0.753595X0.120808X-0.447448X-0.618296X0.753595X-0.120808X0*%
%ADD48RoundRect,0.300000X0.085822X0.576745X-0.468506X0.347135X-0.085822X-0.576745X0.468506X-0.347135X0*%
%ADD49RoundRect,0.400000X-0.742462X0.176777X0.176777X-0.742462X0.742462X-0.176777X-0.176777X0.742462X0*%
%ADD50RoundRect,0.300000X-0.565685X-0.141421X-0.141421X-0.565685X0.565685X0.141421X0.141421X0.565685X0*%
%ADD51RotRect,1.800000X1.800000X78.750000*%
%ADD52RoundRect,0.400000X-0.120808X0.753595X-0.618296X-0.447448X0.120808X-0.753595X0.618296X0.447448X0*%
%ADD53RoundRect,0.300000X-0.347135X0.468506X-0.576745X-0.085822X0.347135X-0.468506X0.576745X0.085822X0*%
%ADD54RotRect,1.800000X1.800000X236.250000*%
%ADD55R,1.500000X1.500000*%
%ADD56RoundRect,0.400000X0.400000X-0.650000X0.400000X0.650000X-0.400000X0.650000X-0.400000X-0.650000X0*%
%ADD57RoundRect,0.300000X0.500000X-0.300000X0.500000X0.300000X-0.500000X0.300000X-0.500000X-0.300000X0*%
%ADD58RotRect,1.800000X1.800000X281.250000*%
%ADD59RoundRect,0.400000X-0.447448X-0.618296X0.753595X-0.120808X0.447448X0.618296X-0.753595X0.120808X0*%
%ADD60RoundRect,0.300000X-0.085822X-0.576745X0.468506X-0.347135X0.085822X0.576745X-0.468506X0.347135X0*%
%ADD61RotRect,1.800000X1.800000X258.750000*%
%ADD62RoundRect,0.400000X-0.753595X-0.120808X0.447448X-0.618296X0.753595X0.120808X-0.447448X0.618296X0*%
%ADD63RoundRect,0.300000X-0.468506X-0.347135X0.085822X-0.576745X0.468506X0.347135X-0.085822X0.576745X0*%
%ADD64RoundRect,0.400000X-0.400000X0.650000X-0.400000X-0.650000X0.400000X-0.650000X0.400000X0.650000X0*%
%ADD65RoundRect,0.300000X-0.500000X0.300000X-0.500000X-0.300000X0.500000X-0.300000X0.500000X0.300000X0*%
%ADD66RoundRect,0.400000X0.120808X-0.753595X0.618296X0.447448X-0.120808X0.753595X-0.618296X-0.447448X0*%
%ADD67RoundRect,0.300000X0.347135X-0.468506X0.576745X0.085822X-0.347135X0.468506X-0.576745X-0.085822X0*%
%ADD68RoundRect,0.400000X-0.618296X0.447448X-0.120808X-0.753595X0.618296X-0.447448X0.120808X0.753595X0*%
%ADD69RoundRect,0.300000X-0.576745X0.085822X-0.347135X-0.468506X0.576745X-0.085822X0.347135X0.468506X0*%
%ADD70RoundRect,0.400000X-0.650000X-0.400000X0.650000X-0.400000X0.650000X0.400000X-0.650000X0.400000X0*%
%ADD71RoundRect,0.300000X-0.300000X-0.500000X0.300000X-0.500000X0.300000X0.500000X-0.300000X0.500000X0*%
%ADD72RoundRect,0.381000X-0.381000X-0.381000X0.381000X-0.381000X0.381000X0.381000X-0.381000X0.381000X0*%
%ADD73RotRect,1.800000X1.800000X303.750000*%
%ADD74RoundRect,0.400000X0.753595X0.120808X-0.447448X0.618296X-0.753595X-0.120808X0.447448X-0.618296X0*%
%ADD75RoundRect,0.300000X0.468506X0.347135X-0.085822X0.576745X-0.468506X-0.347135X0.085822X-0.576745X0*%
%ADD76R,1.700000X1.700000*%
%ADD77O,1.700000X1.700000*%
%ADD78RoundRect,0.400000X0.618296X-0.447448X0.120808X0.753595X-0.618296X0.447448X-0.120808X-0.753595X0*%
%ADD79RoundRect,0.300000X0.576745X-0.085822X0.347135X0.468506X-0.576745X0.085822X-0.347135X-0.468506X0*%
%ADD80C,2.000000*%
%ADD81RoundRect,0.250000X0.675000X-0.600000X0.675000X0.600000X-0.675000X0.600000X-0.675000X-0.600000X0*%
%ADD82O,1.850000X1.700000*%
%ADD83RoundRect,0.250000X-0.675000X0.600000X-0.675000X-0.600000X0.675000X-0.600000X0.675000X0.600000X0*%
G04 APERTURE END LIST*
D10*
X145780000Y-144350000D02*
X146880000Y-144350000D01*
X147680000Y-145850000D02*
X146880000Y-145850000D01*
X146880000Y-145850000D02*
X146880000Y-145050000D01*
X146880000Y-145050000D02*
X147680000Y-145050000D01*
X147680000Y-145050000D02*
X147680000Y-145850000D01*
X136730000Y-127600000D02*
X136730000Y-132700000D01*
X143680000Y-144350000D02*
X143680000Y-151750000D01*
X143680000Y-149750000D02*
X142880000Y-149750000D01*
X142880000Y-149750000D02*
X142880000Y-148950000D01*
X142880000Y-148950000D02*
X143680000Y-148950000D01*
X143680000Y-148950000D02*
X143680000Y-149750000D01*
X147680000Y-151050000D02*
X146880000Y-151050000D01*
X146880000Y-151050000D02*
X146880000Y-150250000D01*
X146880000Y-150250000D02*
X147680000Y-150250000D01*
X147680000Y-150250000D02*
X147680000Y-151050000D01*
X143680000Y-145850000D02*
X142880000Y-145850000D01*
X142880000Y-145850000D02*
X142880000Y-145050000D01*
X142880000Y-145050000D02*
X143680000Y-145050000D01*
X143680000Y-145050000D02*
X143680000Y-145850000D01*
X143680000Y-147150000D02*
X142880000Y-147150000D01*
X142880000Y-147150000D02*
X142880000Y-146350000D01*
X142880000Y-146350000D02*
X143680000Y-146350000D01*
X143680000Y-146350000D02*
X143680000Y-147150000D01*
X143680000Y-144350000D02*
X144780000Y-144350000D01*
X147680000Y-147150000D02*
X146880000Y-147150000D01*
X146880000Y-147150000D02*
X146880000Y-146350000D01*
X146880000Y-146350000D02*
X147680000Y-146350000D01*
X147680000Y-146350000D02*
X147680000Y-147150000D01*
X146880000Y-144350000D02*
X146880000Y-151750000D01*
X128530000Y-127600000D02*
X128530000Y-132700000D01*
X119280000Y-127600000D02*
X119280000Y-132700000D01*
X143680000Y-151050000D02*
X142880000Y-151050000D01*
X142880000Y-151050000D02*
X142880000Y-150250000D01*
X142880000Y-150250000D02*
X143680000Y-150250000D01*
X143680000Y-150250000D02*
X143680000Y-151050000D01*
X147680000Y-149750000D02*
X146880000Y-149750000D01*
X146880000Y-149750000D02*
X146880000Y-148950000D01*
X146880000Y-148950000D02*
X147680000Y-148950000D01*
X147680000Y-148950000D02*
X147680000Y-149750000D01*
X147680000Y-148450000D02*
X146880000Y-148450000D01*
X146880000Y-148450000D02*
X146880000Y-147650000D01*
X146880000Y-147650000D02*
X147680000Y-147650000D01*
X147680000Y-147650000D02*
X147680000Y-148450000D01*
X127480000Y-127600000D02*
X127480000Y-132700000D01*
X143680000Y-148450000D02*
X142880000Y-148450000D01*
X142880000Y-148450000D02*
X142880000Y-147650000D01*
X142880000Y-147650000D02*
X143680000Y-147650000D01*
X143680000Y-147650000D02*
X143680000Y-148450000D01*
X143680000Y-151750000D02*
X146880000Y-151750000D01*
X144780000Y-144350000D02*
G75*
G03*
X145780000Y-144350000I500000J0D01*
G01*
D11*
X148341904Y-147152380D02*
X148341904Y-146152380D01*
X148722857Y-146152380D01*
X148818095Y-146200000D01*
X148865714Y-146247619D01*
X148913333Y-146342857D01*
X148913333Y-146485714D01*
X148865714Y-146580952D01*
X148818095Y-146628571D01*
X148722857Y-146676190D01*
X148341904Y-146676190D01*
X149675238Y-146628571D02*
X149818095Y-146676190D01*
X149865714Y-146723809D01*
X149913333Y-146819047D01*
X149913333Y-146961904D01*
X149865714Y-147057142D01*
X149818095Y-147104761D01*
X149722857Y-147152380D01*
X149341904Y-147152380D01*
X149341904Y-146152380D01*
X149675238Y-146152380D01*
X149770476Y-146200000D01*
X149818095Y-146247619D01*
X149865714Y-146342857D01*
X149865714Y-146438095D01*
X149818095Y-146533333D01*
X149770476Y-146580952D01*
X149675238Y-146628571D01*
X149341904Y-146628571D01*
X150770476Y-146485714D02*
X150770476Y-147152380D01*
X150532380Y-146104761D02*
X150294285Y-146819047D01*
X150913333Y-146819047D01*
X129341904Y-152202380D02*
X129341904Y-151202380D01*
X129722857Y-151202380D01*
X129818095Y-151250000D01*
X129865714Y-151297619D01*
X129913333Y-151392857D01*
X129913333Y-151535714D01*
X129865714Y-151630952D01*
X129818095Y-151678571D01*
X129722857Y-151726190D01*
X129341904Y-151726190D01*
X130675238Y-151678571D02*
X130818095Y-151726190D01*
X130865714Y-151773809D01*
X130913333Y-151869047D01*
X130913333Y-152011904D01*
X130865714Y-152107142D01*
X130818095Y-152154761D01*
X130722857Y-152202380D01*
X130341904Y-152202380D01*
X130341904Y-151202380D01*
X130675238Y-151202380D01*
X130770476Y-151250000D01*
X130818095Y-151297619D01*
X130865714Y-151392857D01*
X130865714Y-151488095D01*
X130818095Y-151583333D01*
X130770476Y-151630952D01*
X130675238Y-151678571D01*
X130341904Y-151678571D01*
X131389523Y-152202380D02*
X131580000Y-152202380D01*
X131675238Y-152154761D01*
X131722857Y-152107142D01*
X131818095Y-151964285D01*
X131865714Y-151773809D01*
X131865714Y-151392857D01*
X131818095Y-151297619D01*
X131770476Y-151250000D01*
X131675238Y-151202380D01*
X131484761Y-151202380D01*
X131389523Y-151250000D01*
X131341904Y-151297619D01*
X131294285Y-151392857D01*
X131294285Y-151630952D01*
X131341904Y-151726190D01*
X131389523Y-151773809D01*
X131484761Y-151821428D01*
X131675238Y-151821428D01*
X131770476Y-151773809D01*
X131818095Y-151726190D01*
X131865714Y-151630952D01*
X129799047Y-129802380D02*
X130370476Y-129802380D01*
X130084761Y-130802380D02*
X130084761Y-129802380D01*
X130608571Y-129802380D02*
X131275238Y-130802380D01*
X131275238Y-129802380D02*
X130608571Y-130802380D01*
X131608571Y-129897619D02*
X131656190Y-129850000D01*
X131751428Y-129802380D01*
X131989523Y-129802380D01*
X132084761Y-129850000D01*
X132132380Y-129897619D01*
X132180000Y-129992857D01*
X132180000Y-130088095D01*
X132132380Y-130230952D01*
X131560952Y-130802380D01*
X132180000Y-130802380D01*
X132608571Y-130707142D02*
X132656190Y-130754761D01*
X132608571Y-130802380D01*
X132560952Y-130754761D01*
X132608571Y-130707142D01*
X132608571Y-130802380D01*
X132608571Y-130183333D02*
X132656190Y-130230952D01*
X132608571Y-130278571D01*
X132560952Y-130230952D01*
X132608571Y-130183333D01*
X132608571Y-130278571D01*
X133084761Y-130802380D02*
X133084761Y-129802380D01*
X133465714Y-129802380D01*
X133560952Y-129850000D01*
X133608571Y-129897619D01*
X133656190Y-129992857D01*
X133656190Y-130135714D01*
X133608571Y-130230952D01*
X133560952Y-130278571D01*
X133465714Y-130326190D01*
X133084761Y-130326190D01*
X134037142Y-130516666D02*
X134513333Y-130516666D01*
X133941904Y-130802380D02*
X134275238Y-129802380D01*
X134608571Y-130802380D01*
X134894285Y-129897619D02*
X134941904Y-129850000D01*
X135037142Y-129802380D01*
X135275238Y-129802380D01*
X135370476Y-129850000D01*
X135418095Y-129897619D01*
X135465714Y-129992857D01*
X135465714Y-130088095D01*
X135418095Y-130230952D01*
X134846666Y-130802380D01*
X135465714Y-130802380D01*
X148337142Y-149952380D02*
X148337142Y-148952380D01*
X148718095Y-148952380D01*
X148813333Y-149000000D01*
X148860952Y-149047619D01*
X148908571Y-149142857D01*
X148908571Y-149285714D01*
X148860952Y-149380952D01*
X148813333Y-149428571D01*
X148718095Y-149476190D01*
X148337142Y-149476190D01*
X149289523Y-149666666D02*
X149765714Y-149666666D01*
X149194285Y-149952380D02*
X149527619Y-148952380D01*
X149860952Y-149952380D01*
X150718095Y-149952380D02*
X150146666Y-149952380D01*
X150432380Y-149952380D02*
X150432380Y-148952380D01*
X150337142Y-149095238D01*
X150241904Y-149190476D01*
X150146666Y-149238095D01*
X151099047Y-149047619D02*
X151146666Y-149000000D01*
X151241904Y-148952380D01*
X151480000Y-148952380D01*
X151575238Y-149000000D01*
X151622857Y-149047619D01*
X151670476Y-149142857D01*
X151670476Y-149238095D01*
X151622857Y-149380952D01*
X151051428Y-149952380D01*
X151670476Y-149952380D01*
D10*
X135732380Y-166869047D02*
X136446666Y-166869047D01*
X136589523Y-166916666D01*
X136684761Y-167011904D01*
X136732380Y-167154761D01*
X136732380Y-167250000D01*
X136732380Y-165916666D02*
X136732380Y-166392857D01*
X135732380Y-166392857D01*
X136637142Y-165011904D02*
X136684761Y-165059523D01*
X136732380Y-165202380D01*
X136732380Y-165297619D01*
X136684761Y-165440476D01*
X136589523Y-165535714D01*
X136494285Y-165583333D01*
X136303809Y-165630952D01*
X136160952Y-165630952D01*
X135970476Y-165583333D01*
X135875238Y-165535714D01*
X135780000Y-165440476D01*
X135732380Y-165297619D01*
X135732380Y-165202380D01*
X135780000Y-165059523D01*
X135827619Y-165011904D01*
X135732380Y-164297619D02*
X136446666Y-164297619D01*
X136589523Y-164345238D01*
X136684761Y-164440476D01*
X136732380Y-164583333D01*
X136732380Y-164678571D01*
X136732380Y-163345238D02*
X136732380Y-163821428D01*
X135732380Y-163821428D01*
X136637142Y-162440476D02*
X136684761Y-162488095D01*
X136732380Y-162630952D01*
X136732380Y-162726190D01*
X136684761Y-162869047D01*
X136589523Y-162964285D01*
X136494285Y-163011904D01*
X136303809Y-163059523D01*
X136160952Y-163059523D01*
X135970476Y-163011904D01*
X135875238Y-162964285D01*
X135780000Y-162869047D01*
X135732380Y-162726190D01*
X135732380Y-162630952D01*
X135780000Y-162488095D01*
X135827619Y-162440476D01*
X135732380Y-161726190D02*
X136446666Y-161726190D01*
X136589523Y-161773809D01*
X136684761Y-161869047D01*
X136732380Y-162011904D01*
X136732380Y-162107142D01*
X136732380Y-160773809D02*
X136732380Y-161250000D01*
X135732380Y-161250000D01*
X136637142Y-159869047D02*
X136684761Y-159916666D01*
X136732380Y-160059523D01*
X136732380Y-160154761D01*
X136684761Y-160297619D01*
X136589523Y-160392857D01*
X136494285Y-160440476D01*
X136303809Y-160488095D01*
X136160952Y-160488095D01*
X135970476Y-160440476D01*
X135875238Y-160392857D01*
X135780000Y-160297619D01*
X135732380Y-160154761D01*
X135732380Y-160059523D01*
X135780000Y-159916666D01*
X135827619Y-159869047D01*
X135732380Y-159154761D02*
X136446666Y-159154761D01*
X136589523Y-159202380D01*
X136684761Y-159297619D01*
X136732380Y-159440476D01*
X136732380Y-159535714D01*
X136732380Y-158202380D02*
X136732380Y-158678571D01*
X135732380Y-158678571D01*
X136637142Y-157297619D02*
X136684761Y-157345238D01*
X136732380Y-157488095D01*
X136732380Y-157583333D01*
X136684761Y-157726190D01*
X136589523Y-157821428D01*
X136494285Y-157869047D01*
X136303809Y-157916666D01*
X136160952Y-157916666D01*
X135970476Y-157869047D01*
X135875238Y-157821428D01*
X135780000Y-157726190D01*
X135732380Y-157583333D01*
X135732380Y-157488095D01*
X135780000Y-157345238D01*
X135827619Y-157297619D01*
D12*
X120880000Y-129335714D02*
X120641904Y-129335714D01*
X120641904Y-127907142D01*
X120880000Y-127907142D01*
X121213333Y-128954761D02*
X121356190Y-129002380D01*
X121594285Y-129002380D01*
X121689523Y-128954761D01*
X121737142Y-128907142D01*
X121784761Y-128811904D01*
X121784761Y-128716666D01*
X121737142Y-128621428D01*
X121689523Y-128573809D01*
X121594285Y-128526190D01*
X121403809Y-128478571D01*
X121308571Y-128430952D01*
X121260952Y-128383333D01*
X121213333Y-128288095D01*
X121213333Y-128192857D01*
X121260952Y-128097619D01*
X121308571Y-128050000D01*
X121403809Y-128002380D01*
X121641904Y-128002380D01*
X121784761Y-128050000D01*
X122070476Y-128002380D02*
X122641904Y-128002380D01*
X122356190Y-129002380D02*
X122356190Y-128002380D01*
X123451428Y-129002380D02*
X122975238Y-129002380D01*
X122975238Y-128002380D01*
X123784761Y-129002380D02*
X123784761Y-128335714D01*
X123784761Y-128002380D02*
X123737142Y-128050000D01*
X123784761Y-128097619D01*
X123832380Y-128050000D01*
X123784761Y-128002380D01*
X123784761Y-128097619D01*
X124260952Y-128335714D02*
X124260952Y-129002380D01*
X124260952Y-128430952D02*
X124308571Y-128383333D01*
X124403809Y-128335714D01*
X124546666Y-128335714D01*
X124641904Y-128383333D01*
X124689523Y-128478571D01*
X124689523Y-129002380D01*
X125165714Y-129002380D02*
X125165714Y-128002380D01*
X125260952Y-128621428D02*
X125546666Y-129002380D01*
X125546666Y-128335714D02*
X125165714Y-128716666D01*
X125880000Y-129335714D02*
X126118095Y-129335714D01*
X126118095Y-127907142D01*
X125880000Y-127907142D01*
D11*
X125841904Y-152202380D02*
X125841904Y-151202380D01*
X126222857Y-151202380D01*
X126318095Y-151250000D01*
X126365714Y-151297619D01*
X126413333Y-151392857D01*
X126413333Y-151535714D01*
X126365714Y-151630952D01*
X126318095Y-151678571D01*
X126222857Y-151726190D01*
X125841904Y-151726190D01*
X127175238Y-151678571D02*
X127318095Y-151726190D01*
X127365714Y-151773809D01*
X127413333Y-151869047D01*
X127413333Y-152011904D01*
X127365714Y-152107142D01*
X127318095Y-152154761D01*
X127222857Y-152202380D01*
X126841904Y-152202380D01*
X126841904Y-151202380D01*
X127175238Y-151202380D01*
X127270476Y-151250000D01*
X127318095Y-151297619D01*
X127365714Y-151392857D01*
X127365714Y-151488095D01*
X127318095Y-151583333D01*
X127270476Y-151630952D01*
X127175238Y-151678571D01*
X126841904Y-151678571D01*
X127746666Y-151202380D02*
X128413333Y-151202380D01*
X127984761Y-152202380D01*
D12*
X148396666Y-128797380D02*
X148396666Y-127797380D01*
X148634761Y-127797380D01*
X148777619Y-127845000D01*
X148872857Y-127940238D01*
X148920476Y-128035476D01*
X148968095Y-128225952D01*
X148968095Y-128368809D01*
X148920476Y-128559285D01*
X148872857Y-128654523D01*
X148777619Y-128749761D01*
X148634761Y-128797380D01*
X148396666Y-128797380D01*
X149777619Y-128749761D02*
X149682380Y-128797380D01*
X149491904Y-128797380D01*
X149396666Y-128749761D01*
X149349047Y-128654523D01*
X149349047Y-128273571D01*
X149396666Y-128178333D01*
X149491904Y-128130714D01*
X149682380Y-128130714D01*
X149777619Y-128178333D01*
X149825238Y-128273571D01*
X149825238Y-128368809D01*
X149349047Y-128464047D01*
X150206190Y-128749761D02*
X150301428Y-128797380D01*
X150491904Y-128797380D01*
X150587142Y-128749761D01*
X150634761Y-128654523D01*
X150634761Y-128606904D01*
X150587142Y-128511666D01*
X150491904Y-128464047D01*
X150349047Y-128464047D01*
X150253809Y-128416428D01*
X150206190Y-128321190D01*
X150206190Y-128273571D01*
X150253809Y-128178333D01*
X150349047Y-128130714D01*
X150491904Y-128130714D01*
X150587142Y-128178333D01*
X151063333Y-128797380D02*
X151063333Y-128130714D01*
X151063333Y-127797380D02*
X151015714Y-127845000D01*
X151063333Y-127892619D01*
X151110952Y-127845000D01*
X151063333Y-127797380D01*
X151063333Y-127892619D01*
X151968095Y-128130714D02*
X151968095Y-128940238D01*
X151920476Y-129035476D01*
X151872857Y-129083095D01*
X151777619Y-129130714D01*
X151634761Y-129130714D01*
X151539523Y-129083095D01*
X151968095Y-128749761D02*
X151872857Y-128797380D01*
X151682380Y-128797380D01*
X151587142Y-128749761D01*
X151539523Y-128702142D01*
X151491904Y-128606904D01*
X151491904Y-128321190D01*
X151539523Y-128225952D01*
X151587142Y-128178333D01*
X151682380Y-128130714D01*
X151872857Y-128130714D01*
X151968095Y-128178333D01*
X152444285Y-128130714D02*
X152444285Y-128797380D01*
X152444285Y-128225952D02*
X152491904Y-128178333D01*
X152587142Y-128130714D01*
X152730000Y-128130714D01*
X152825238Y-128178333D01*
X152872857Y-128273571D01*
X152872857Y-128797380D01*
X153730000Y-128749761D02*
X153634761Y-128797380D01*
X153444285Y-128797380D01*
X153349047Y-128749761D01*
X153301428Y-128654523D01*
X153301428Y-128273571D01*
X153349047Y-128178333D01*
X153444285Y-128130714D01*
X153634761Y-128130714D01*
X153730000Y-128178333D01*
X153777619Y-128273571D01*
X153777619Y-128368809D01*
X153301428Y-128464047D01*
X154634761Y-128797380D02*
X154634761Y-127797380D01*
X154634761Y-128749761D02*
X154539523Y-128797380D01*
X154349047Y-128797380D01*
X154253809Y-128749761D01*
X154206190Y-128702142D01*
X154158571Y-128606904D01*
X154158571Y-128321190D01*
X154206190Y-128225952D01*
X154253809Y-128178333D01*
X154349047Y-128130714D01*
X154539523Y-128130714D01*
X154634761Y-128178333D01*
X155872857Y-128797380D02*
X155872857Y-127797380D01*
X155872857Y-128178333D02*
X155968095Y-128130714D01*
X156158571Y-128130714D01*
X156253809Y-128178333D01*
X156301428Y-128225952D01*
X156349047Y-128321190D01*
X156349047Y-128606904D01*
X156301428Y-128702142D01*
X156253809Y-128749761D01*
X156158571Y-128797380D01*
X155968095Y-128797380D01*
X155872857Y-128749761D01*
X156682380Y-128130714D02*
X156920476Y-128797380D01*
X157158571Y-128130714D02*
X156920476Y-128797380D01*
X156825238Y-129035476D01*
X156777619Y-129083095D01*
X156682380Y-129130714D01*
X147039523Y-129931190D02*
X146991904Y-129883571D01*
X146896666Y-129835952D01*
X146801428Y-129835952D01*
X146706190Y-129883571D01*
X146658571Y-129931190D01*
X146610952Y-130026428D01*
X146610952Y-130121666D01*
X146658571Y-130216904D01*
X146706190Y-130264523D01*
X146801428Y-130312142D01*
X146896666Y-130312142D01*
X146991904Y-130264523D01*
X147039523Y-130216904D01*
X147039523Y-129835952D02*
X147039523Y-130216904D01*
X147087142Y-130264523D01*
X147134761Y-130264523D01*
X147230000Y-130216904D01*
X147277619Y-130121666D01*
X147277619Y-129883571D01*
X147182380Y-129740714D01*
X147039523Y-129645476D01*
X146849047Y-129597857D01*
X146658571Y-129645476D01*
X146515714Y-129740714D01*
X146420476Y-129883571D01*
X146372857Y-130074047D01*
X146420476Y-130264523D01*
X146515714Y-130407380D01*
X146658571Y-130502619D01*
X146849047Y-130550238D01*
X147039523Y-130502619D01*
X147182380Y-130407380D01*
X148134761Y-130359761D02*
X148039523Y-130407380D01*
X147849047Y-130407380D01*
X147753809Y-130359761D01*
X147706190Y-130312142D01*
X147658571Y-130216904D01*
X147658571Y-129931190D01*
X147706190Y-129835952D01*
X147753809Y-129788333D01*
X147849047Y-129740714D01*
X148039523Y-129740714D01*
X148134761Y-129788333D01*
X148991904Y-130407380D02*
X148991904Y-129883571D01*
X148944285Y-129788333D01*
X148849047Y-129740714D01*
X148658571Y-129740714D01*
X148563333Y-129788333D01*
X148991904Y-130359761D02*
X148896666Y-130407380D01*
X148658571Y-130407380D01*
X148563333Y-130359761D01*
X148515714Y-130264523D01*
X148515714Y-130169285D01*
X148563333Y-130074047D01*
X148658571Y-130026428D01*
X148896666Y-130026428D01*
X148991904Y-129978809D01*
X149325238Y-129740714D02*
X149706190Y-129740714D01*
X149468095Y-129407380D02*
X149468095Y-130264523D01*
X149515714Y-130359761D01*
X149610952Y-130407380D01*
X149706190Y-130407380D01*
X149801428Y-130502619D02*
X150563333Y-130502619D01*
X150801428Y-129740714D02*
X150801428Y-130407380D01*
X150801428Y-129835952D02*
X150849047Y-129788333D01*
X150944285Y-129740714D01*
X151087142Y-129740714D01*
X151182380Y-129788333D01*
X151230000Y-129883571D01*
X151230000Y-130407380D01*
X152087142Y-130359761D02*
X151991904Y-130407380D01*
X151801428Y-130407380D01*
X151706190Y-130359761D01*
X151658571Y-130264523D01*
X151658571Y-129883571D01*
X151706190Y-129788333D01*
X151801428Y-129740714D01*
X151991904Y-129740714D01*
X152087142Y-129788333D01*
X152134761Y-129883571D01*
X152134761Y-129978809D01*
X151658571Y-130074047D01*
X152563333Y-130407380D02*
X152563333Y-129407380D01*
X152658571Y-130026428D02*
X152944285Y-130407380D01*
X152944285Y-129740714D02*
X152563333Y-130121666D01*
X153515714Y-130407380D02*
X153420476Y-130359761D01*
X153372857Y-130312142D01*
X153325238Y-130216904D01*
X153325238Y-129931190D01*
X153372857Y-129835952D01*
X153420476Y-129788333D01*
X153515714Y-129740714D01*
X153658571Y-129740714D01*
X153753809Y-129788333D01*
X153801428Y-129835952D01*
X153849047Y-129931190D01*
X153849047Y-130216904D01*
X153801428Y-130312142D01*
X153753809Y-130359761D01*
X153658571Y-130407380D01*
X153515714Y-130407380D01*
X154277619Y-129740714D02*
X154277619Y-130407380D01*
X154277619Y-129835952D02*
X154325238Y-129788333D01*
X154420476Y-129740714D01*
X154563333Y-129740714D01*
X154658571Y-129788333D01*
X154706190Y-129883571D01*
X154706190Y-130407380D01*
X155563333Y-130359761D02*
X155468095Y-130407380D01*
X155277619Y-130407380D01*
X155182380Y-130359761D01*
X155134761Y-130264523D01*
X155134761Y-129883571D01*
X155182380Y-129788333D01*
X155277619Y-129740714D01*
X155468095Y-129740714D01*
X155563333Y-129788333D01*
X155610952Y-129883571D01*
X155610952Y-129978809D01*
X155134761Y-130074047D01*
X156039523Y-130407380D02*
X156039523Y-129407380D01*
X156134761Y-130026428D02*
X156420476Y-130407380D01*
X156420476Y-129740714D02*
X156039523Y-130121666D01*
X156991904Y-130407380D02*
X156896666Y-130359761D01*
X156849047Y-130312142D01*
X156801428Y-130216904D01*
X156801428Y-129931190D01*
X156849047Y-129835952D01*
X156896666Y-129788333D01*
X156991904Y-129740714D01*
X157134761Y-129740714D01*
X157230000Y-129788333D01*
X157277619Y-129835952D01*
X157325238Y-129931190D01*
X157325238Y-130216904D01*
X157277619Y-130312142D01*
X157230000Y-130359761D01*
X157134761Y-130407380D01*
X156991904Y-130407380D01*
X157753809Y-129740714D02*
X157753809Y-130407380D01*
X157753809Y-129835952D02*
X157801428Y-129788333D01*
X157896666Y-129740714D01*
X158039523Y-129740714D01*
X158134761Y-129788333D01*
X158182380Y-129883571D01*
X158182380Y-130407380D01*
X159039523Y-130359761D02*
X158944285Y-130407380D01*
X158753809Y-130407380D01*
X158658571Y-130359761D01*
X158610952Y-130264523D01*
X158610952Y-129883571D01*
X158658571Y-129788333D01*
X158753809Y-129740714D01*
X158944285Y-129740714D01*
X159039523Y-129788333D01*
X159087142Y-129883571D01*
X159087142Y-129978809D01*
X158610952Y-130074047D01*
D11*
X129868095Y-132252380D02*
X129534761Y-131776190D01*
X129296666Y-132252380D02*
X129296666Y-131252380D01*
X129677619Y-131252380D01*
X129772857Y-131300000D01*
X129820476Y-131347619D01*
X129868095Y-131442857D01*
X129868095Y-131585714D01*
X129820476Y-131680952D01*
X129772857Y-131728571D01*
X129677619Y-131776190D01*
X129296666Y-131776190D01*
X130201428Y-131252380D02*
X130868095Y-132252380D01*
X130868095Y-131252380D02*
X130201428Y-132252380D01*
X131201428Y-131347619D02*
X131249047Y-131300000D01*
X131344285Y-131252380D01*
X131582380Y-131252380D01*
X131677619Y-131300000D01*
X131725238Y-131347619D01*
X131772857Y-131442857D01*
X131772857Y-131538095D01*
X131725238Y-131680952D01*
X131153809Y-132252380D01*
X131772857Y-132252380D01*
X132201428Y-132157142D02*
X132249047Y-132204761D01*
X132201428Y-132252380D01*
X132153809Y-132204761D01*
X132201428Y-132157142D01*
X132201428Y-132252380D01*
X132201428Y-131633333D02*
X132249047Y-131680952D01*
X132201428Y-131728571D01*
X132153809Y-131680952D01*
X132201428Y-131633333D01*
X132201428Y-131728571D01*
X132677619Y-132252380D02*
X132677619Y-131252380D01*
X133058571Y-131252380D01*
X133153809Y-131300000D01*
X133201428Y-131347619D01*
X133249047Y-131442857D01*
X133249047Y-131585714D01*
X133201428Y-131680952D01*
X133153809Y-131728571D01*
X133058571Y-131776190D01*
X132677619Y-131776190D01*
X133630000Y-131966666D02*
X134106190Y-131966666D01*
X133534761Y-132252380D02*
X133868095Y-131252380D01*
X134201428Y-132252380D01*
X135058571Y-132252380D02*
X134487142Y-132252380D01*
X134772857Y-132252380D02*
X134772857Y-131252380D01*
X134677619Y-131395238D01*
X134582380Y-131490476D01*
X134487142Y-131538095D01*
X135963333Y-131252380D02*
X135487142Y-131252380D01*
X135439523Y-131728571D01*
X135487142Y-131680952D01*
X135582380Y-131633333D01*
X135820476Y-131633333D01*
X135915714Y-131680952D01*
X135963333Y-131728571D01*
X136010952Y-131823809D01*
X136010952Y-132061904D01*
X135963333Y-132157142D01*
X135915714Y-132204761D01*
X135820476Y-132252380D01*
X135582380Y-132252380D01*
X135487142Y-132204761D01*
X135439523Y-132157142D01*
X148341904Y-148552380D02*
X148341904Y-147552380D01*
X148722857Y-147552380D01*
X148818095Y-147600000D01*
X148865714Y-147647619D01*
X148913333Y-147742857D01*
X148913333Y-147885714D01*
X148865714Y-147980952D01*
X148818095Y-148028571D01*
X148722857Y-148076190D01*
X148341904Y-148076190D01*
X149675238Y-148028571D02*
X149818095Y-148076190D01*
X149865714Y-148123809D01*
X149913333Y-148219047D01*
X149913333Y-148361904D01*
X149865714Y-148457142D01*
X149818095Y-148504761D01*
X149722857Y-148552380D01*
X149341904Y-148552380D01*
X149341904Y-147552380D01*
X149675238Y-147552380D01*
X149770476Y-147600000D01*
X149818095Y-147647619D01*
X149865714Y-147742857D01*
X149865714Y-147838095D01*
X149818095Y-147933333D01*
X149770476Y-147980952D01*
X149675238Y-148028571D01*
X149341904Y-148028571D01*
X150246666Y-147552380D02*
X150865714Y-147552380D01*
X150532380Y-147933333D01*
X150675238Y-147933333D01*
X150770476Y-147980952D01*
X150818095Y-148028571D01*
X150865714Y-148123809D01*
X150865714Y-148361904D01*
X150818095Y-148457142D01*
X150770476Y-148504761D01*
X150675238Y-148552380D01*
X150389523Y-148552380D01*
X150294285Y-148504761D01*
X150246666Y-148457142D01*
X155346666Y-132602380D02*
X155680000Y-133602380D01*
X156013333Y-132602380D01*
X156346666Y-133602380D02*
X156346666Y-132602380D01*
X156584761Y-132602380D01*
X156727619Y-132650000D01*
X156822857Y-132745238D01*
X156870476Y-132840476D01*
X156918095Y-133030952D01*
X156918095Y-133173809D01*
X156870476Y-133364285D01*
X156822857Y-133459523D01*
X156727619Y-133554761D01*
X156584761Y-133602380D01*
X156346666Y-133602380D01*
X157346666Y-133602380D02*
X157346666Y-132602380D01*
X157584761Y-132602380D01*
X157727619Y-132650000D01*
X157822857Y-132745238D01*
X157870476Y-132840476D01*
X157918095Y-133030952D01*
X157918095Y-133173809D01*
X157870476Y-133364285D01*
X157822857Y-133459523D01*
X157727619Y-133554761D01*
X157584761Y-133602380D01*
X157346666Y-133602380D01*
X125841904Y-153902380D02*
X125841904Y-152902380D01*
X126222857Y-152902380D01*
X126318095Y-152950000D01*
X126365714Y-152997619D01*
X126413333Y-153092857D01*
X126413333Y-153235714D01*
X126365714Y-153330952D01*
X126318095Y-153378571D01*
X126222857Y-153426190D01*
X125841904Y-153426190D01*
X127175238Y-153378571D02*
X127318095Y-153426190D01*
X127365714Y-153473809D01*
X127413333Y-153569047D01*
X127413333Y-153711904D01*
X127365714Y-153807142D01*
X127318095Y-153854761D01*
X127222857Y-153902380D01*
X126841904Y-153902380D01*
X126841904Y-152902380D01*
X127175238Y-152902380D01*
X127270476Y-152950000D01*
X127318095Y-152997619D01*
X127365714Y-153092857D01*
X127365714Y-153188095D01*
X127318095Y-153283333D01*
X127270476Y-153330952D01*
X127175238Y-153378571D01*
X126841904Y-153378571D01*
X128270476Y-152902380D02*
X128080000Y-152902380D01*
X127984761Y-152950000D01*
X127937142Y-152997619D01*
X127841904Y-153140476D01*
X127794285Y-153330952D01*
X127794285Y-153711904D01*
X127841904Y-153807142D01*
X127889523Y-153854761D01*
X127984761Y-153902380D01*
X128175238Y-153902380D01*
X128270476Y-153854761D01*
X128318095Y-153807142D01*
X128365714Y-153711904D01*
X128365714Y-153473809D01*
X128318095Y-153378571D01*
X128270476Y-153330952D01*
X128175238Y-153283333D01*
X127984761Y-153283333D01*
X127889523Y-153330952D01*
X127841904Y-153378571D01*
X127794285Y-153473809D01*
D13*
X152915714Y-158528571D02*
X152915714Y-157028571D01*
X153772857Y-158528571D01*
X153772857Y-157028571D01*
X155344285Y-158528571D02*
X154844285Y-157814285D01*
X154487142Y-158528571D02*
X154487142Y-157028571D01*
X155058571Y-157028571D01*
X155201428Y-157100000D01*
X155272857Y-157171428D01*
X155344285Y-157314285D01*
X155344285Y-157528571D01*
X155272857Y-157671428D01*
X155201428Y-157742857D01*
X155058571Y-157814285D01*
X154487142Y-157814285D01*
X155915714Y-158457142D02*
X156130000Y-158528571D01*
X156487142Y-158528571D01*
X156630000Y-158457142D01*
X156701428Y-158385714D01*
X156772857Y-158242857D01*
X156772857Y-158100000D01*
X156701428Y-157957142D01*
X156630000Y-157885714D01*
X156487142Y-157814285D01*
X156201428Y-157742857D01*
X156058571Y-157671428D01*
X155987142Y-157600000D01*
X155915714Y-157457142D01*
X155915714Y-157314285D01*
X155987142Y-157171428D01*
X156058571Y-157100000D01*
X156201428Y-157028571D01*
X156558571Y-157028571D01*
X156772857Y-157100000D01*
X157201428Y-157028571D02*
X158058571Y-157028571D01*
X157630000Y-158528571D02*
X157630000Y-157028571D01*
D12*
X130082380Y-129335714D02*
X129844285Y-129335714D01*
X129844285Y-127907142D01*
X130082380Y-127907142D01*
X131034761Y-129002380D02*
X130701428Y-128526190D01*
X130463333Y-129002380D02*
X130463333Y-128002380D01*
X130844285Y-128002380D01*
X130939523Y-128050000D01*
X130987142Y-128097619D01*
X131034761Y-128192857D01*
X131034761Y-128335714D01*
X130987142Y-128430952D01*
X130939523Y-128478571D01*
X130844285Y-128526190D01*
X130463333Y-128526190D01*
X131415714Y-128954761D02*
X131558571Y-129002380D01*
X131796666Y-129002380D01*
X131891904Y-128954761D01*
X131939523Y-128907142D01*
X131987142Y-128811904D01*
X131987142Y-128716666D01*
X131939523Y-128621428D01*
X131891904Y-128573809D01*
X131796666Y-128526190D01*
X131606190Y-128478571D01*
X131510952Y-128430952D01*
X131463333Y-128383333D01*
X131415714Y-128288095D01*
X131415714Y-128192857D01*
X131463333Y-128097619D01*
X131510952Y-128050000D01*
X131606190Y-128002380D01*
X131844285Y-128002380D01*
X131987142Y-128050000D01*
X132844285Y-128335714D02*
X132844285Y-129002380D01*
X132606190Y-127954761D02*
X132368095Y-128669047D01*
X132987142Y-128669047D01*
X133510952Y-128430952D02*
X133415714Y-128383333D01*
X133368095Y-128335714D01*
X133320476Y-128240476D01*
X133320476Y-128192857D01*
X133368095Y-128097619D01*
X133415714Y-128050000D01*
X133510952Y-128002380D01*
X133701428Y-128002380D01*
X133796666Y-128050000D01*
X133844285Y-128097619D01*
X133891904Y-128192857D01*
X133891904Y-128240476D01*
X133844285Y-128335714D01*
X133796666Y-128383333D01*
X133701428Y-128430952D01*
X133510952Y-128430952D01*
X133415714Y-128478571D01*
X133368095Y-128526190D01*
X133320476Y-128621428D01*
X133320476Y-128811904D01*
X133368095Y-128907142D01*
X133415714Y-128954761D01*
X133510952Y-129002380D01*
X133701428Y-129002380D01*
X133796666Y-128954761D01*
X133844285Y-128907142D01*
X133891904Y-128811904D01*
X133891904Y-128621428D01*
X133844285Y-128526190D01*
X133796666Y-128478571D01*
X133701428Y-128430952D01*
X134796666Y-128002380D02*
X134320476Y-128002380D01*
X134272857Y-128478571D01*
X134320476Y-128430952D01*
X134415714Y-128383333D01*
X134653809Y-128383333D01*
X134749047Y-128430952D01*
X134796666Y-128478571D01*
X134844285Y-128573809D01*
X134844285Y-128811904D01*
X134796666Y-128907142D01*
X134749047Y-128954761D01*
X134653809Y-129002380D01*
X134415714Y-129002380D01*
X134320476Y-128954761D01*
X134272857Y-128907142D01*
X135177619Y-129335714D02*
X135415714Y-129335714D01*
X135415714Y-127907142D01*
X135177619Y-127907142D01*
D11*
X148337142Y-151352380D02*
X148337142Y-150352380D01*
X148718095Y-150352380D01*
X148813333Y-150400000D01*
X148860952Y-150447619D01*
X148908571Y-150542857D01*
X148908571Y-150685714D01*
X148860952Y-150780952D01*
X148813333Y-150828571D01*
X148718095Y-150876190D01*
X148337142Y-150876190D01*
X149289523Y-151066666D02*
X149765714Y-151066666D01*
X149194285Y-151352380D02*
X149527619Y-150352380D01*
X149860952Y-151352380D01*
X150718095Y-151352380D02*
X150146666Y-151352380D01*
X150432380Y-151352380D02*
X150432380Y-150352380D01*
X150337142Y-150495238D01*
X150241904Y-150590476D01*
X150146666Y-150638095D01*
X151670476Y-151352380D02*
X151099047Y-151352380D01*
X151384761Y-151352380D02*
X151384761Y-150352380D01*
X151289523Y-150495238D01*
X151194285Y-150590476D01*
X151099047Y-150638095D01*
X142941904Y-167102380D02*
X142941904Y-166102380D01*
X143322857Y-166102380D01*
X143418095Y-166150000D01*
X143465714Y-166197619D01*
X143513333Y-166292857D01*
X143513333Y-166435714D01*
X143465714Y-166530952D01*
X143418095Y-166578571D01*
X143322857Y-166626190D01*
X142941904Y-166626190D01*
X144513333Y-167007142D02*
X144465714Y-167054761D01*
X144322857Y-167102380D01*
X144227619Y-167102380D01*
X144084761Y-167054761D01*
X143989523Y-166959523D01*
X143941904Y-166864285D01*
X143894285Y-166673809D01*
X143894285Y-166530952D01*
X143941904Y-166340476D01*
X143989523Y-166245238D01*
X144084761Y-166150000D01*
X144227619Y-166102380D01*
X144322857Y-166102380D01*
X144465714Y-166150000D01*
X144513333Y-166197619D01*
X145370476Y-166102380D02*
X145180000Y-166102380D01*
X145084761Y-166150000D01*
X145037142Y-166197619D01*
X144941904Y-166340476D01*
X144894285Y-166530952D01*
X144894285Y-166911904D01*
X144941904Y-167007142D01*
X144989523Y-167054761D01*
X145084761Y-167102380D01*
X145275238Y-167102380D01*
X145370476Y-167054761D01*
X145418095Y-167007142D01*
X145465714Y-166911904D01*
X145465714Y-166673809D01*
X145418095Y-166578571D01*
X145370476Y-166530952D01*
X145275238Y-166483333D01*
X145084761Y-166483333D01*
X144989523Y-166530952D01*
X144941904Y-166578571D01*
X144894285Y-166673809D01*
D12*
X159118095Y-160550000D02*
X159022857Y-160502380D01*
X158880000Y-160502380D01*
X158737142Y-160550000D01*
X158641904Y-160645238D01*
X158594285Y-160740476D01*
X158546666Y-160930952D01*
X158546666Y-161073809D01*
X158594285Y-161264285D01*
X158641904Y-161359523D01*
X158737142Y-161454761D01*
X158880000Y-161502380D01*
X158975238Y-161502380D01*
X159118095Y-161454761D01*
X159165714Y-161407142D01*
X159165714Y-161073809D01*
X158975238Y-161073809D01*
X159594285Y-161502380D02*
X159594285Y-160502380D01*
X160165714Y-161502380D01*
X160165714Y-160502380D01*
X160641904Y-161502380D02*
X160641904Y-160502380D01*
X160880000Y-160502380D01*
X161022857Y-160550000D01*
X161118095Y-160645238D01*
X161165714Y-160740476D01*
X161213333Y-160930952D01*
X161213333Y-161073809D01*
X161165714Y-161264285D01*
X161118095Y-161359523D01*
X161022857Y-161454761D01*
X160880000Y-161502380D01*
X160641904Y-161502380D01*
D11*
X120618095Y-132302380D02*
X120284761Y-131826190D01*
X120046666Y-132302380D02*
X120046666Y-131302380D01*
X120427619Y-131302380D01*
X120522857Y-131350000D01*
X120570476Y-131397619D01*
X120618095Y-131492857D01*
X120618095Y-131635714D01*
X120570476Y-131730952D01*
X120522857Y-131778571D01*
X120427619Y-131826190D01*
X120046666Y-131826190D01*
X120951428Y-131302380D02*
X121618095Y-132302380D01*
X121618095Y-131302380D02*
X120951428Y-132302380D01*
X122522857Y-132302380D02*
X121951428Y-132302380D01*
X122237142Y-132302380D02*
X122237142Y-131302380D01*
X122141904Y-131445238D01*
X122046666Y-131540476D01*
X121951428Y-131588095D01*
X122951428Y-132207142D02*
X122999047Y-132254761D01*
X122951428Y-132302380D01*
X122903809Y-132254761D01*
X122951428Y-132207142D01*
X122951428Y-132302380D01*
X122951428Y-131683333D02*
X122999047Y-131730952D01*
X122951428Y-131778571D01*
X122903809Y-131730952D01*
X122951428Y-131683333D01*
X122951428Y-131778571D01*
X123427619Y-132302380D02*
X123427619Y-131302380D01*
X123808571Y-131302380D01*
X123903809Y-131350000D01*
X123951428Y-131397619D01*
X123999047Y-131492857D01*
X123999047Y-131635714D01*
X123951428Y-131730952D01*
X123903809Y-131778571D01*
X123808571Y-131826190D01*
X123427619Y-131826190D01*
X124380000Y-132016666D02*
X124856190Y-132016666D01*
X124284761Y-132302380D02*
X124618095Y-131302380D01*
X124951428Y-132302380D01*
X125808571Y-132302380D02*
X125237142Y-132302380D01*
X125522857Y-132302380D02*
X125522857Y-131302380D01*
X125427619Y-131445238D01*
X125332380Y-131540476D01*
X125237142Y-131588095D01*
X126427619Y-131302380D02*
X126522857Y-131302380D01*
X126618095Y-131350000D01*
X126665714Y-131397619D01*
X126713333Y-131492857D01*
X126760952Y-131683333D01*
X126760952Y-131921428D01*
X126713333Y-132111904D01*
X126665714Y-132207142D01*
X126618095Y-132254761D01*
X126522857Y-132302380D01*
X126427619Y-132302380D01*
X126332380Y-132254761D01*
X126284761Y-132207142D01*
X126237142Y-132111904D01*
X126189523Y-131921428D01*
X126189523Y-131683333D01*
X126237142Y-131492857D01*
X126284761Y-131397619D01*
X126332380Y-131350000D01*
X126427619Y-131302380D01*
X129341904Y-153902380D02*
X129341904Y-152902380D01*
X129722857Y-152902380D01*
X129818095Y-152950000D01*
X129865714Y-152997619D01*
X129913333Y-153092857D01*
X129913333Y-153235714D01*
X129865714Y-153330952D01*
X129818095Y-153378571D01*
X129722857Y-153426190D01*
X129341904Y-153426190D01*
X130675238Y-153378571D02*
X130818095Y-153426190D01*
X130865714Y-153473809D01*
X130913333Y-153569047D01*
X130913333Y-153711904D01*
X130865714Y-153807142D01*
X130818095Y-153854761D01*
X130722857Y-153902380D01*
X130341904Y-153902380D01*
X130341904Y-152902380D01*
X130675238Y-152902380D01*
X130770476Y-152950000D01*
X130818095Y-152997619D01*
X130865714Y-153092857D01*
X130865714Y-153188095D01*
X130818095Y-153283333D01*
X130770476Y-153330952D01*
X130675238Y-153378571D01*
X130341904Y-153378571D01*
X131484761Y-153330952D02*
X131389523Y-153283333D01*
X131341904Y-153235714D01*
X131294285Y-153140476D01*
X131294285Y-153092857D01*
X131341904Y-152997619D01*
X131389523Y-152950000D01*
X131484761Y-152902380D01*
X131675238Y-152902380D01*
X131770476Y-152950000D01*
X131818095Y-152997619D01*
X131865714Y-153092857D01*
X131865714Y-153140476D01*
X131818095Y-153235714D01*
X131770476Y-153283333D01*
X131675238Y-153330952D01*
X131484761Y-153330952D01*
X131389523Y-153378571D01*
X131341904Y-153426190D01*
X131294285Y-153521428D01*
X131294285Y-153711904D01*
X131341904Y-153807142D01*
X131389523Y-153854761D01*
X131484761Y-153902380D01*
X131675238Y-153902380D01*
X131770476Y-153854761D01*
X131818095Y-153807142D01*
X131865714Y-153711904D01*
X131865714Y-153521428D01*
X131818095Y-153426190D01*
X131770476Y-153378571D01*
X131675238Y-153330952D01*
D14*
X121194285Y-147054761D02*
X122337142Y-147054761D01*
X121765714Y-149054761D02*
X121765714Y-147054761D01*
X123289523Y-149054761D02*
X123099047Y-148959523D01*
X123003809Y-148864285D01*
X122908571Y-148673809D01*
X122908571Y-148102380D01*
X123003809Y-147911904D01*
X123099047Y-147816666D01*
X123289523Y-147721428D01*
X123575238Y-147721428D01*
X123765714Y-147816666D01*
X123860952Y-147911904D01*
X123956190Y-148102380D01*
X123956190Y-148673809D01*
X123860952Y-148864285D01*
X123765714Y-148959523D01*
X123575238Y-149054761D01*
X123289523Y-149054761D01*
X124813333Y-149054761D02*
X124813333Y-147721428D01*
X124813333Y-147911904D02*
X124908571Y-147816666D01*
X125099047Y-147721428D01*
X125384761Y-147721428D01*
X125575238Y-147816666D01*
X125670476Y-148007142D01*
X125670476Y-149054761D01*
X125670476Y-148007142D02*
X125765714Y-147816666D01*
X125956190Y-147721428D01*
X126241904Y-147721428D01*
X126432380Y-147816666D01*
X126527619Y-148007142D01*
X126527619Y-149054761D01*
X127765714Y-149054761D02*
X127575238Y-148959523D01*
X127480000Y-148864285D01*
X127384761Y-148673809D01*
X127384761Y-148102380D01*
X127480000Y-147911904D01*
X127575238Y-147816666D01*
X127765714Y-147721428D01*
X128051428Y-147721428D01*
X128241904Y-147816666D01*
X128337142Y-147911904D01*
X128432380Y-148102380D01*
X128432380Y-148673809D01*
X128337142Y-148864285D01*
X128241904Y-148959523D01*
X128051428Y-149054761D01*
X127765714Y-149054761D01*
X129194285Y-148959523D02*
X129384761Y-149054761D01*
X129765714Y-149054761D01*
X129956190Y-148959523D01*
X130051428Y-148769047D01*
X130051428Y-148673809D01*
X129956190Y-148483333D01*
X129765714Y-148388095D01*
X129480000Y-148388095D01*
X129289523Y-148292857D01*
X129194285Y-148102380D01*
X129194285Y-148007142D01*
X129289523Y-147816666D01*
X129480000Y-147721428D01*
X129765714Y-147721428D01*
X129956190Y-147816666D01*
X130908571Y-149054761D02*
X130908571Y-147054761D01*
X131765714Y-149054761D02*
X131765714Y-148007142D01*
X131670476Y-147816666D01*
X131480000Y-147721428D01*
X131194285Y-147721428D01*
X131003809Y-147816666D01*
X130908571Y-147911904D01*
X132718095Y-149054761D02*
X132718095Y-147721428D01*
X132718095Y-147054761D02*
X132622857Y-147150000D01*
X132718095Y-147245238D01*
X132813333Y-147150000D01*
X132718095Y-147054761D01*
X132718095Y-147245238D01*
X133670476Y-149054761D02*
X133670476Y-147054761D01*
X133670476Y-147816666D02*
X133860952Y-147721428D01*
X134241904Y-147721428D01*
X134432380Y-147816666D01*
X134527619Y-147911904D01*
X134622857Y-148102380D01*
X134622857Y-148673809D01*
X134527619Y-148864285D01*
X134432380Y-148959523D01*
X134241904Y-149054761D01*
X133860952Y-149054761D01*
X133670476Y-148959523D01*
X135480000Y-149054761D02*
X135480000Y-147721428D01*
X135480000Y-147054761D02*
X135384761Y-147150000D01*
X135480000Y-147245238D01*
X135575238Y-147150000D01*
X135480000Y-147054761D01*
X135480000Y-147245238D01*
D11*
X155203809Y-134302380D02*
X155822857Y-134302380D01*
X155489523Y-134683333D01*
X155632380Y-134683333D01*
X155727619Y-134730952D01*
X155775238Y-134778571D01*
X155822857Y-134873809D01*
X155822857Y-135111904D01*
X155775238Y-135207142D01*
X155727619Y-135254761D01*
X155632380Y-135302380D01*
X155346666Y-135302380D01*
X155251428Y-135254761D01*
X155203809Y-135207142D01*
X156251428Y-135207142D02*
X156299047Y-135254761D01*
X156251428Y-135302380D01*
X156203809Y-135254761D01*
X156251428Y-135207142D01*
X156251428Y-135302380D01*
X156632380Y-134302380D02*
X157251428Y-134302380D01*
X156918095Y-134683333D01*
X157060952Y-134683333D01*
X157156190Y-134730952D01*
X157203809Y-134778571D01*
X157251428Y-134873809D01*
X157251428Y-135111904D01*
X157203809Y-135207142D01*
X157156190Y-135254761D01*
X157060952Y-135302380D01*
X156775238Y-135302380D01*
X156680000Y-135254761D01*
X156632380Y-135207142D01*
X157537142Y-134302380D02*
X157870476Y-135302380D01*
X158203809Y-134302380D01*
D15*
X128249047Y-141447619D02*
X130344285Y-141447619D01*
X127987142Y-143804761D02*
X130868095Y-143804761D01*
X127201428Y-145638095D02*
X131391904Y-145638095D01*
X127987142Y-142495238D02*
X127987142Y-143804761D01*
X127987142Y-142495238D02*
X130868095Y-142495238D01*
X130868095Y-143804761D01*
X126153809Y-139614285D02*
X126153809Y-143542857D01*
X127201428Y-144590476D01*
X129820476Y-140400000D02*
X131391904Y-141971428D01*
X131391904Y-140400000D02*
X130344285Y-140923809D01*
X127725238Y-140400000D02*
X128249047Y-140923809D01*
X126939523Y-142233333D01*
X130606190Y-139614285D02*
X129820476Y-140400000D01*
X128510952Y-144328571D02*
X128510952Y-145114285D01*
X129558571Y-139352380D02*
X130082380Y-140923809D01*
X130344285Y-144066666D02*
X129820476Y-145114285D01*
X126939523Y-140661904D02*
X126415714Y-141709523D01*
X125891904Y-143542857D02*
X125106190Y-145638095D01*
X127463333Y-139876190D02*
X129034761Y-139614285D01*
X128249047Y-141185714D01*
X125368095Y-140923809D02*
X124844285Y-142233333D01*
X126153809Y-142233333D02*
X125630000Y-144852380D01*
D13*
X122815714Y-167928571D02*
X122815714Y-166428571D01*
X123387142Y-166428571D01*
X123530000Y-166500000D01*
X123601428Y-166571428D01*
X123672857Y-166714285D01*
X123672857Y-166928571D01*
X123601428Y-167071428D01*
X123530000Y-167142857D01*
X123387142Y-167214285D01*
X122815714Y-167214285D01*
X124601428Y-166428571D02*
X124887142Y-166428571D01*
X125030000Y-166500000D01*
X125172857Y-166642857D01*
X125244285Y-166928571D01*
X125244285Y-167428571D01*
X125172857Y-167714285D01*
X125030000Y-167857142D01*
X124887142Y-167928571D01*
X124601428Y-167928571D01*
X124458571Y-167857142D01*
X124315714Y-167714285D01*
X124244285Y-167428571D01*
X124244285Y-166928571D01*
X124315714Y-166642857D01*
X124458571Y-166500000D01*
X124601428Y-166428571D01*
X125744285Y-166428571D02*
X126101428Y-167928571D01*
X126387142Y-166857142D01*
X126672857Y-167928571D01*
X127030000Y-166428571D01*
X127601428Y-167142857D02*
X128101428Y-167142857D01*
X128315714Y-167928571D02*
X127601428Y-167928571D01*
X127601428Y-166428571D01*
X128315714Y-166428571D01*
X129815714Y-167928571D02*
X129315714Y-167214285D01*
X128958571Y-167928571D02*
X128958571Y-166428571D01*
X129530000Y-166428571D01*
X129672857Y-166500000D01*
X129744285Y-166571428D01*
X129815714Y-166714285D01*
X129815714Y-166928571D01*
X129744285Y-167071428D01*
X129672857Y-167142857D01*
X129530000Y-167214285D01*
X128958571Y-167214285D01*
D11*
X148341904Y-145752380D02*
X148341904Y-144752380D01*
X148722857Y-144752380D01*
X148818095Y-144800000D01*
X148865714Y-144847619D01*
X148913333Y-144942857D01*
X148913333Y-145085714D01*
X148865714Y-145180952D01*
X148818095Y-145228571D01*
X148722857Y-145276190D01*
X148341904Y-145276190D01*
X149675238Y-145228571D02*
X149818095Y-145276190D01*
X149865714Y-145323809D01*
X149913333Y-145419047D01*
X149913333Y-145561904D01*
X149865714Y-145657142D01*
X149818095Y-145704761D01*
X149722857Y-145752380D01*
X149341904Y-145752380D01*
X149341904Y-144752380D01*
X149675238Y-144752380D01*
X149770476Y-144800000D01*
X149818095Y-144847619D01*
X149865714Y-144942857D01*
X149865714Y-145038095D01*
X149818095Y-145133333D01*
X149770476Y-145180952D01*
X149675238Y-145228571D01*
X149341904Y-145228571D01*
X150818095Y-144752380D02*
X150341904Y-144752380D01*
X150294285Y-145228571D01*
X150341904Y-145180952D01*
X150437142Y-145133333D01*
X150675238Y-145133333D01*
X150770476Y-145180952D01*
X150818095Y-145228571D01*
X150865714Y-145323809D01*
X150865714Y-145561904D01*
X150818095Y-145657142D01*
X150770476Y-145704761D01*
X150675238Y-145752380D01*
X150437142Y-145752380D01*
X150341904Y-145704761D01*
X150294285Y-145657142D01*
X120549047Y-129802380D02*
X121120476Y-129802380D01*
X120834761Y-130802380D02*
X120834761Y-129802380D01*
X121358571Y-129802380D02*
X122025238Y-130802380D01*
X122025238Y-129802380D02*
X121358571Y-130802380D01*
X122930000Y-130802380D02*
X122358571Y-130802380D01*
X122644285Y-130802380D02*
X122644285Y-129802380D01*
X122549047Y-129945238D01*
X122453809Y-130040476D01*
X122358571Y-130088095D01*
X123358571Y-130707142D02*
X123406190Y-130754761D01*
X123358571Y-130802380D01*
X123310952Y-130754761D01*
X123358571Y-130707142D01*
X123358571Y-130802380D01*
X123358571Y-130183333D02*
X123406190Y-130230952D01*
X123358571Y-130278571D01*
X123310952Y-130230952D01*
X123358571Y-130183333D01*
X123358571Y-130278571D01*
X123834761Y-130802380D02*
X123834761Y-129802380D01*
X124215714Y-129802380D01*
X124310952Y-129850000D01*
X124358571Y-129897619D01*
X124406190Y-129992857D01*
X124406190Y-130135714D01*
X124358571Y-130230952D01*
X124310952Y-130278571D01*
X124215714Y-130326190D01*
X123834761Y-130326190D01*
X124787142Y-130516666D02*
X125263333Y-130516666D01*
X124691904Y-130802380D02*
X125025238Y-129802380D01*
X125358571Y-130802380D01*
X125739523Y-130802380D02*
X125930000Y-130802380D01*
X126025238Y-130754761D01*
X126072857Y-130707142D01*
X126168095Y-130564285D01*
X126215714Y-130373809D01*
X126215714Y-129992857D01*
X126168095Y-129897619D01*
X126120476Y-129850000D01*
X126025238Y-129802380D01*
X125834761Y-129802380D01*
X125739523Y-129850000D01*
X125691904Y-129897619D01*
X125644285Y-129992857D01*
X125644285Y-130230952D01*
X125691904Y-130326190D01*
X125739523Y-130373809D01*
X125834761Y-130421428D01*
X126025238Y-130421428D01*
X126120476Y-130373809D01*
X126168095Y-130326190D01*
X126215714Y-130230952D01*
%TO.C,U12*%
X105586557Y-51060998D02*
X107425034Y-49222520D01*
X103698582Y-49173023D02*
X103458165Y-48932606D01*
X105339069Y-50813510D02*
X105586557Y-51060998D01*
X103458165Y-48932606D02*
X107057339Y-45333433D01*
X106780280Y-45608037D02*
G75*
G03*
X103811719Y-48579053I-1412925J-1556804D01*
G01*
%TO.C,Q13*%
X124220000Y-136814999D02*
X124220000Y-134664999D01*
X121000000Y-134664999D02*
X121910000Y-134664999D01*
X121000000Y-137239999D02*
X121000000Y-134664999D01*
X123310000Y-134664999D02*
X124220000Y-134664999D01*
%TO.C,D13*%
X159879095Y-115612946D02*
X162023596Y-118822419D01*
X159879095Y-115612946D02*
X162473280Y-113879567D01*
X163428107Y-114588585D02*
X163095519Y-114810813D01*
X160120221Y-115451831D02*
X160047997Y-115343740D01*
X162805868Y-113657339D02*
X163428107Y-114588585D01*
X162473280Y-113879567D02*
X164617781Y-117089040D01*
X162159930Y-113932591D02*
X162159930Y-113932591D01*
X163095519Y-114810813D02*
X162473280Y-113879567D01*
X162232154Y-114040682D02*
X162159930Y-113932591D01*
X160047997Y-115343740D02*
X160047997Y-115343740D01*
X160120221Y-115451831D02*
X160120221Y-115451831D01*
X160047997Y-115343740D02*
X160120221Y-115451831D01*
X162473280Y-113879567D02*
X162805868Y-113657339D01*
X162159930Y-113932591D02*
X162232154Y-114040682D01*
X162232154Y-114040682D02*
X162232154Y-114040682D01*
X162023597Y-118822418D02*
G75*
G03*
X164617781Y-117089040I1297092J866689D01*
G01*
%TO.C,D21*%
X111844488Y-43724122D02*
X112466727Y-44655368D01*
X112134139Y-44877596D02*
X111511900Y-43946350D01*
X114819786Y-43083104D02*
X114819786Y-43083104D01*
X112780077Y-44602344D02*
X112780077Y-44602344D01*
X114892010Y-43191195D02*
X114819786Y-43083104D01*
X111511900Y-43946350D02*
X111844488Y-43724122D01*
X114819786Y-43083104D02*
X114892010Y-43191195D01*
X115060912Y-42921989D02*
X112916411Y-39712516D01*
X112466727Y-44655368D02*
X112134139Y-44877596D01*
X114892010Y-43191195D02*
X114892010Y-43191195D01*
X112707853Y-44494253D02*
X112707853Y-44494253D01*
X112707853Y-44494253D02*
X112780077Y-44602344D01*
X112466727Y-44655368D02*
X110322226Y-41445895D01*
X115060912Y-42921989D02*
X112466727Y-44655368D01*
X112780077Y-44602344D02*
X112707853Y-44494253D01*
X112916410Y-39712517D02*
G75*
G03*
X110322226Y-41445895I-1297092J-866689D01*
G01*
%TO.C,SW2*%
X150888000Y-165447999D02*
X142252000Y-165447999D01*
X150888000Y-161891999D02*
X150888000Y-165447999D01*
X142252000Y-165447999D02*
X142252000Y-161891999D01*
X142252000Y-161891999D02*
X150888000Y-161891999D01*
G36*
X152666000Y-167225999D02*
G01*
X146570000Y-167225999D01*
X146570000Y-164939999D01*
X150380000Y-164939999D01*
X150380000Y-162399999D01*
X146570000Y-162399999D01*
X146570000Y-160113999D01*
X152666000Y-160113999D01*
X152666000Y-167225999D01*
G37*
X152666000Y-167225999D02*
X146570000Y-167225999D01*
X146570000Y-164939999D01*
X150380000Y-164939999D01*
X150380000Y-162399999D01*
X146570000Y-162399999D01*
X146570000Y-160113999D01*
X152666000Y-160113999D01*
X152666000Y-167225999D01*
%TO.C,D20*%
X127396976Y-36623201D02*
X127615477Y-37721680D01*
X127899905Y-37665104D02*
X127899905Y-37665104D01*
X127899905Y-37665104D02*
X127925267Y-37792606D01*
X127004662Y-36701237D02*
X127396976Y-36623201D01*
X127925267Y-37792606D02*
X127899905Y-37665104D01*
X127615477Y-37721680D02*
X127223163Y-37799716D01*
X130391099Y-37169575D02*
X130416461Y-37297077D01*
X130416461Y-37297077D02*
X130416461Y-37297077D01*
X130416461Y-37297077D02*
X130391099Y-37169575D01*
X130391099Y-37169575D02*
X130391099Y-37169575D01*
X127223163Y-37799716D02*
X127004662Y-36701237D01*
X130675527Y-37112999D02*
X129922479Y-33327167D01*
X127615477Y-37721680D02*
X126862428Y-33935849D01*
X127925267Y-37792606D02*
X127925267Y-37792606D01*
X130675527Y-37112999D02*
X127615477Y-37721680D01*
X129922478Y-33327167D02*
G75*
G03*
X126862428Y-33935849I-1530025J-304341D01*
G01*
%TO.C,J2*%
X155180000Y-153049999D02*
X160180000Y-153049999D01*
X160180000Y-149749999D02*
X160180000Y-153049999D01*
X155180000Y-145949999D02*
X155180000Y-146199999D01*
X159380000Y-145949999D02*
X159380000Y-146149999D01*
X160180000Y-148499999D02*
X160180000Y-148699999D01*
X155180000Y-140349999D02*
X155180000Y-143599999D01*
X155180000Y-147199999D02*
X155180000Y-147449999D01*
X155180000Y-148499999D02*
X155180000Y-148699999D01*
X155980000Y-148499999D02*
X155980000Y-148699999D01*
X155980000Y-141149999D02*
X159380000Y-141149999D01*
X155980000Y-144699999D02*
X155980000Y-144899999D01*
X160180000Y-147199999D02*
X160180000Y-147449999D01*
X155180000Y-147299999D02*
X155980000Y-147299999D01*
X160180000Y-140349999D02*
X160180000Y-143599999D01*
X155180000Y-140349999D02*
X160180000Y-140349999D01*
X155980000Y-145949999D02*
X155980000Y-146049999D01*
X155980000Y-146049999D02*
X155180000Y-146049999D01*
X155980000Y-149749999D02*
X155980000Y-152249999D01*
X159380000Y-147199999D02*
X159380000Y-147449999D01*
X155180000Y-144699999D02*
X155180000Y-144899999D01*
X155180000Y-149749999D02*
X155180000Y-153049999D01*
X159380000Y-149749999D02*
X159380000Y-152249999D01*
X155980000Y-141149999D02*
X155980000Y-143599999D01*
X155980000Y-147299999D02*
X155980000Y-147449999D01*
X155980000Y-152249999D02*
X159380000Y-152249999D01*
X160180000Y-144699999D02*
X160180000Y-144899999D01*
X159380000Y-141149999D02*
X159380000Y-143599999D01*
X160180000Y-145949999D02*
X160180000Y-146149999D01*
X159380000Y-144699999D02*
X159380000Y-144899999D01*
X159380000Y-148499999D02*
X159380000Y-148699999D01*
D16*
X154521803Y-142899999D02*
G75*
G03*
X154521803Y-142899999I-141803J0D01*
G01*
D11*
%TO.C,D16*%
X178944847Y-69722708D02*
X179072349Y-69697346D01*
X179440376Y-72213902D02*
X179567878Y-72188540D01*
X178937737Y-69020604D02*
X180036216Y-68802103D01*
X179624454Y-72472968D02*
X179015773Y-69412918D01*
X179624454Y-72472968D02*
X183410286Y-71719920D01*
X179015773Y-69412918D02*
X178937737Y-69020604D01*
X179567878Y-72188540D02*
X179440376Y-72213902D01*
X178944847Y-69722708D02*
X178944847Y-69722708D01*
X179072349Y-69697346D02*
X178944847Y-69722708D01*
X179440376Y-72213902D02*
X179440376Y-72213902D01*
X179072349Y-69697346D02*
X179072349Y-69697346D01*
X180036216Y-68802103D02*
X180114252Y-69194417D01*
X179567878Y-72188540D02*
X179567878Y-72188540D01*
X179015773Y-69412918D02*
X182801604Y-68659869D01*
X180114252Y-69194417D02*
X179015773Y-69412918D01*
X183410286Y-71719919D02*
G75*
G03*
X182801604Y-68659869I-304341J1530025D01*
G01*
%TO.C,C28*%
X136500000Y-142499999D02*
X139450000Y-142499999D01*
X145020000Y-135044436D02*
X145020000Y-142499999D01*
X143955563Y-133979999D02*
X142070000Y-133979999D01*
X137564437Y-133979999D02*
X139450000Y-133979999D01*
X143955563Y-133979999D02*
X145020000Y-135044436D01*
X145020000Y-142499999D02*
X142070000Y-142499999D01*
X137564437Y-133979999D02*
X136500000Y-135044436D01*
X136500000Y-135044436D02*
X136500000Y-142499999D01*
%TO.C,D12*%
X147038752Y-120868931D02*
X147013279Y-120741451D01*
X147323130Y-120812107D02*
X147715376Y-120733728D01*
X147038752Y-120868931D02*
X147038752Y-120868931D01*
X144547991Y-121366634D02*
X144547991Y-121366634D01*
X147013279Y-120741451D02*
X147038752Y-120868931D01*
X147542590Y-121910395D02*
X147323130Y-120812107D01*
X144263613Y-121423458D02*
X147323130Y-120812107D01*
X147013279Y-120741451D02*
X147013279Y-120741451D01*
X147715376Y-120733728D02*
X147934836Y-121832016D01*
X147323130Y-120812107D02*
X148079483Y-124597279D01*
X147934836Y-121832016D02*
X147542590Y-121910395D01*
X144522518Y-121239154D02*
X144522518Y-121239154D01*
X144522518Y-121239154D02*
X144547991Y-121366634D01*
X144263613Y-121423458D02*
X145019965Y-125208631D01*
X144547991Y-121366634D02*
X144522518Y-121239154D01*
X145019965Y-125208631D02*
G75*
G03*
X148079483Y-124597279I1529759J305676D01*
G01*
%TO.C,SW1*%
X138695000Y-168174999D02*
X138695000Y-155354999D01*
X133395000Y-168174999D02*
X138695000Y-168174999D01*
X133395000Y-155354999D02*
X133395000Y-168174999D01*
X135045000Y-155354999D02*
X133395000Y-155354999D01*
X138695000Y-155354999D02*
X137045000Y-155354999D01*
X135045000Y-155354999D02*
G75*
G03*
X137045000Y-155354999I1000000J0D01*
G01*
%TO.C,Q15*%
X128130000Y-137229999D02*
X128130000Y-134654999D01*
X130440000Y-134654999D02*
X131350000Y-134654999D01*
X131350000Y-136804999D02*
X131350000Y-134654999D01*
X128130000Y-134654999D02*
X129040000Y-134654999D01*
%TO.C,D17*%
X172135149Y-54577524D02*
X172135149Y-54577524D01*
X173815504Y-56858359D02*
X172082125Y-54264174D01*
X171859897Y-53931586D02*
X172791143Y-53309347D01*
X173013371Y-53641935D02*
X172082125Y-54264174D01*
X172135149Y-54577524D02*
X172243240Y-54505300D01*
X173654389Y-56617233D02*
X173654389Y-56617233D01*
X173546298Y-56689457D02*
X173654389Y-56617233D01*
X172791143Y-53309347D02*
X173013371Y-53641935D01*
X172082125Y-54264174D02*
X175291598Y-52119673D01*
X172082125Y-54264174D02*
X171859897Y-53931586D01*
X173654389Y-56617233D02*
X173546298Y-56689457D01*
X172243240Y-54505300D02*
X172135149Y-54577524D01*
X173815504Y-56858359D02*
X177024977Y-54713858D01*
X172243240Y-54505300D02*
X172243240Y-54505300D01*
X173546298Y-56689457D02*
X173546298Y-56689457D01*
X177024976Y-54713857D02*
G75*
G03*
X175291598Y-52119673I-866689J1297092D01*
G01*
%TO.C,D5*%
X138620000Y-152624999D02*
X136160000Y-152624999D01*
X136160000Y-154094999D02*
X138620000Y-154094999D01*
X136160000Y-152624999D02*
X136160000Y-154094999D01*
%TO.C,U3*%
X171481842Y-109602329D02*
X167882668Y-113201502D01*
X171241425Y-109361912D02*
X171481842Y-109602329D01*
X169353450Y-107473937D02*
X167514973Y-109312415D01*
X169600938Y-107721425D02*
X169353450Y-107473937D01*
X168159727Y-112926898D02*
G75*
G03*
X171128288Y-109955882I1412925J1556804D01*
G01*
%TO.C,SW4*%
X143670000Y-158919999D02*
X149470000Y-158919999D01*
X149670000Y-156969999D02*
X149670000Y-154369999D01*
X143470000Y-156969999D02*
X143470000Y-154369999D01*
X143570000Y-152419999D02*
X149570000Y-152419999D01*
X151670000Y-157969999D02*
X151670000Y-158969999D01*
X151670000Y-158969999D02*
X150670000Y-158969999D01*
%TO.C,D26*%
X114819791Y-115451831D02*
X114892015Y-115343740D01*
X114819791Y-115451831D02*
X114819791Y-115451831D01*
X112780082Y-113932591D02*
X112707858Y-114040682D01*
X115393505Y-115835174D02*
X114771266Y-116766420D01*
X112466732Y-113879567D02*
X115060917Y-115612946D01*
X115060917Y-115612946D02*
X115393505Y-115835174D01*
X114892015Y-115343740D02*
X114819791Y-115451831D01*
X114438678Y-116544192D02*
X115060917Y-115612946D01*
X114771266Y-116766420D02*
X114438678Y-116544192D01*
X112780082Y-113932591D02*
X112780082Y-113932591D01*
X112466732Y-113879567D02*
X110322231Y-117089040D01*
X112707858Y-114040682D02*
X112780082Y-113932591D01*
X114892015Y-115343740D02*
X114892015Y-115343740D01*
X112707858Y-114040682D02*
X112707858Y-114040682D01*
X115060917Y-115612946D02*
X112916416Y-118822419D01*
X110322229Y-117089039D02*
G75*
G03*
X112916416Y-118822419I1297094J-866690D01*
G01*
%TO.C,U10*%
X134870006Y-34107449D02*
X134870006Y-33767449D01*
X134870006Y-33767449D02*
X139960006Y-33767449D01*
X134870006Y-36427449D02*
X134870006Y-36777449D01*
X134870006Y-36777449D02*
X137470006Y-36777449D01*
X139569923Y-33765713D02*
G75*
G03*
X135370006Y-33767449I-2099917J-101738D01*
G01*
%TO.C,D27*%
X130416461Y-121237817D02*
X130391099Y-121365319D01*
X130675527Y-121421895D02*
X129922479Y-125207727D01*
X127615477Y-120813214D02*
X126862428Y-124599045D01*
X130675527Y-121421895D02*
X131067841Y-121499932D01*
X127899905Y-120869790D02*
X127925267Y-120742288D01*
X127925267Y-120742288D02*
X127899905Y-120869790D01*
X127899905Y-120869790D02*
X127899905Y-120869790D01*
X130391099Y-121365319D02*
X130416461Y-121237817D01*
X130457026Y-122520375D02*
X130675527Y-121421895D01*
X130849340Y-122598411D02*
X130457026Y-122520375D01*
X131067841Y-121499932D02*
X130849340Y-122598411D01*
X127615477Y-120813214D02*
X130675527Y-121421895D01*
X127925267Y-120742288D02*
X127925267Y-120742288D01*
X130391099Y-121365319D02*
X130391099Y-121365319D01*
X130416461Y-121237817D02*
X130416461Y-121237817D01*
X126862427Y-124599045D02*
G75*
G03*
X129922479Y-125207727I1530026J-304341D01*
G01*
%TO.C,D18*%
X160120221Y-43083066D02*
X160047997Y-43191157D01*
X162473280Y-44655330D02*
X164617781Y-41445857D01*
X160120221Y-43083066D02*
X160120221Y-43083066D01*
X162232154Y-44494215D02*
X162159930Y-44602306D01*
X160047997Y-43191157D02*
X160047997Y-43191157D01*
X159546507Y-42699723D02*
X160168746Y-41768477D01*
X162159930Y-44602306D02*
X162232154Y-44494215D01*
X160168746Y-41768477D02*
X160501334Y-41990705D01*
X162232154Y-44494215D02*
X162232154Y-44494215D01*
X160501334Y-41990705D02*
X159879095Y-42921951D01*
X159879095Y-42921951D02*
X159546507Y-42699723D01*
X162473280Y-44655330D02*
X159879095Y-42921951D01*
X159879095Y-42921951D02*
X162023596Y-39712478D01*
X160047997Y-43191157D02*
X160120221Y-43083066D01*
X162159930Y-44602306D02*
X162159930Y-44602306D01*
X164617783Y-41445858D02*
G75*
G03*
X162023596Y-39712478I-1297094J866690D01*
G01*
%TO.C,Q16*%
X134900000Y-136804999D02*
X134900000Y-134654999D01*
X131680000Y-134654999D02*
X132590000Y-134654999D01*
X131680000Y-137229999D02*
X131680000Y-134654999D01*
X133990000Y-134654999D02*
X134900000Y-134654999D01*
%TO.C,D3*%
X135980000Y-152624999D02*
X133520000Y-152624999D01*
X133520000Y-154094999D02*
X135980000Y-154094999D01*
X135980000Y-154094999D02*
X135980000Y-152624999D01*
%TO.C,D19*%
X144264485Y-37112999D02*
X143872171Y-37034962D01*
X147040107Y-37665104D02*
X147040107Y-37665104D01*
X144548913Y-37169575D02*
X144548913Y-37169575D01*
X144090672Y-35936483D02*
X144482986Y-36014519D01*
X143872171Y-37034962D02*
X144090672Y-35936483D01*
X147324535Y-37721680D02*
X148077584Y-33935849D01*
X144523551Y-37297077D02*
X144523551Y-37297077D01*
X144523551Y-37297077D02*
X144548913Y-37169575D01*
X144482986Y-36014519D02*
X144264485Y-37112999D01*
X147014745Y-37792606D02*
X147040107Y-37665104D01*
X147040107Y-37665104D02*
X147014745Y-37792606D01*
X144548913Y-37169575D02*
X144523551Y-37297077D01*
X144264485Y-37112999D02*
X145017533Y-33327167D01*
X147014745Y-37792606D02*
X147014745Y-37792606D01*
X147324535Y-37721680D02*
X144264485Y-37112999D01*
X148077585Y-33935849D02*
G75*
G03*
X145017533Y-33327167I-1530026J304341D01*
G01*
%TO.C,D8*%
X155915000Y-137504999D02*
X158375000Y-137504999D01*
X158375000Y-136034999D02*
X155915000Y-136034999D01*
X158375000Y-137504999D02*
X158375000Y-136034999D01*
%TO.C,D14*%
X174968978Y-101966188D02*
X174746750Y-102298776D01*
X173654389Y-101917663D02*
X173654389Y-101917663D01*
X172082125Y-104270722D02*
X173815504Y-101676537D01*
X172243240Y-104029596D02*
X172243240Y-104029596D01*
X172243240Y-104029596D02*
X172135149Y-103957372D01*
X173546298Y-101845439D02*
X173546298Y-101845439D01*
X173546298Y-101845439D02*
X173654389Y-101917663D01*
X172135149Y-103957372D02*
X172135149Y-103957372D01*
X172082125Y-104270722D02*
X175291598Y-106415223D01*
X172135149Y-103957372D02*
X172243240Y-104029596D01*
X173815504Y-101676537D02*
X177024977Y-103821038D01*
X173815504Y-101676537D02*
X174037732Y-101343949D01*
X174746750Y-102298776D02*
X173815504Y-101676537D01*
X174037732Y-101343949D02*
X174968978Y-101966188D01*
X173654389Y-101917663D02*
X173546298Y-101845439D01*
X175291597Y-106415225D02*
G75*
G03*
X177024977Y-103821038I866690J1297094D01*
G01*
%TO.C,U8*%
X167804886Y-45255613D02*
X171404059Y-48854787D01*
X165923982Y-47136517D02*
X165676494Y-47384005D01*
X167564469Y-45496030D02*
X167804886Y-45255613D01*
X165676494Y-47384005D02*
X167514972Y-49222482D01*
X171129455Y-48577728D02*
G75*
G03*
X168158439Y-45609167I-1556804J1412925D01*
G01*
%TO.C,U11*%
X118673761Y-40683428D02*
X118807700Y-41006786D01*
X118807700Y-41006786D02*
X121209787Y-40011809D01*
X117655823Y-38225909D02*
X122358370Y-36278050D01*
X117785935Y-38540028D02*
X117655823Y-38225909D01*
X121997315Y-36425725D02*
G75*
G03*
X118117763Y-38034567I-1901136J-897597D01*
G01*
%TO.C,U16*%
X107135125Y-113279284D02*
X103535952Y-109680110D01*
X109263517Y-111150892D02*
X107425039Y-109312415D01*
X109016029Y-111398380D02*
X109263517Y-111150892D01*
X107375542Y-113038867D02*
X107135125Y-113279284D01*
X103810556Y-109957169D02*
G75*
G03*
X106781572Y-112925730I1556804J-1412925D01*
G01*
%TO.C,D6*%
X133520000Y-152344999D02*
X135980000Y-152344999D01*
X135980000Y-152344999D02*
X135980000Y-150874999D01*
X135980000Y-150874999D02*
X133520000Y-150874999D01*
%TO.C,C27*%
X146494437Y-133899999D02*
X145430000Y-134964436D01*
X152885563Y-133899999D02*
X151000000Y-133899999D01*
X146494437Y-133899999D02*
X148380000Y-133899999D01*
X152885563Y-133899999D02*
X153950000Y-134964436D01*
X153950000Y-134964436D02*
X153950000Y-142419999D01*
X145430000Y-142419999D02*
X148380000Y-142419999D01*
X145430000Y-134964436D02*
X145430000Y-142419999D01*
X153950000Y-142419999D02*
X151000000Y-142419999D01*
%TO.C,D15*%
X179015773Y-89121978D02*
X182801604Y-89875027D01*
X180800970Y-85888115D02*
X180722934Y-86280429D01*
X179567878Y-86346356D02*
X179440376Y-86320994D01*
X179567878Y-86346356D02*
X179567878Y-86346356D01*
X179702491Y-85669614D02*
X180800970Y-85888115D01*
X179015773Y-89121978D02*
X179624454Y-86061928D01*
X180722934Y-86280429D02*
X179624454Y-86061928D01*
X178944847Y-88812188D02*
X178944847Y-88812188D01*
X179440376Y-86320994D02*
X179440376Y-86320994D01*
X179072349Y-88837550D02*
X178944847Y-88812188D01*
X179624454Y-86061928D02*
X183410286Y-86814976D01*
X179072349Y-88837550D02*
X179072349Y-88837550D01*
X178944847Y-88812188D02*
X179072349Y-88837550D01*
X179440376Y-86320994D02*
X179567878Y-86346356D01*
X179624454Y-86061928D02*
X179702491Y-85669614D01*
X182801604Y-89875028D02*
G75*
G03*
X183410286Y-86814976I304341J1530026D01*
G01*
%TO.C,U13*%
X97219382Y-65409355D02*
X98214359Y-63007268D01*
X94438505Y-64257478D02*
X96386363Y-59554931D01*
X96896024Y-65275416D02*
X97219382Y-65409355D01*
X94752624Y-64387590D02*
X94438505Y-64257478D01*
X96235481Y-59914656D02*
G75*
G03*
X94629846Y-63795538I-709609J-1979004D01*
G01*
%TO.C,D22*%
X102696767Y-54505340D02*
X102696767Y-54505340D01*
X101124503Y-56858399D02*
X97915030Y-54713898D01*
X101285618Y-56617273D02*
X101285618Y-56617273D01*
X102857882Y-54264214D02*
X99648409Y-52119713D01*
X102696767Y-54505340D02*
X102804858Y-54577564D01*
X101393709Y-56689497D02*
X101393709Y-56689497D01*
X99971029Y-56568748D02*
X100193257Y-56236160D01*
X101124503Y-56858399D02*
X100902275Y-57190987D01*
X100193257Y-56236160D02*
X101124503Y-56858399D01*
X102804858Y-54577564D02*
X102804858Y-54577564D01*
X102804858Y-54577564D02*
X102696767Y-54505340D01*
X100902275Y-57190987D02*
X99971029Y-56568748D01*
X101393709Y-56689497D02*
X101285618Y-56617273D01*
X102857882Y-54264214D02*
X101124503Y-56858399D01*
X101285618Y-56617273D02*
X101393709Y-56689497D01*
X99648410Y-52119711D02*
G75*
G03*
X97915030Y-54713898I-866690J-1297094D01*
G01*
%TO.C,H3*%
X154980000Y-155929999D02*
X154980000Y-154029999D01*
X154980000Y-154029999D02*
X156880000Y-154029999D01*
X156880000Y-154029999D02*
X156880000Y-155929999D01*
X156880000Y-155929999D02*
X154980000Y-155929999D01*
%TO.C,U6*%
X182630005Y-76667449D02*
X182970005Y-76667449D01*
X182970005Y-76667449D02*
X182970005Y-81757449D01*
X179960005Y-76667449D02*
X179960005Y-79267449D01*
X180310005Y-76667449D02*
X179960005Y-76667449D01*
X182971741Y-81367366D02*
G75*
G03*
X182970005Y-77167449I-101738J2099917D01*
G01*
%TO.C,D24*%
X94825755Y-89340518D02*
X95924234Y-89122017D01*
X94903791Y-89732832D02*
X94825755Y-89340518D01*
X95867658Y-88837589D02*
X95867658Y-88837589D01*
X95995160Y-88812227D02*
X95995160Y-88812227D01*
X95315553Y-86061967D02*
X95924234Y-89122017D01*
X95924234Y-89122017D02*
X92138403Y-89875066D01*
X95315553Y-86061967D02*
X91529721Y-86815015D01*
X95867658Y-88837589D02*
X95995160Y-88812227D01*
X95499631Y-86321033D02*
X95499631Y-86321033D01*
X95372129Y-86346395D02*
X95499631Y-86321033D01*
X96002270Y-89514331D02*
X94903791Y-89732832D01*
X95924234Y-89122017D02*
X96002270Y-89514331D01*
X95499631Y-86321033D02*
X95372129Y-86346395D01*
X95995160Y-88812227D02*
X95867658Y-88837589D01*
X95372129Y-86346395D02*
X95372129Y-86346395D01*
X91529721Y-86815016D02*
G75*
G03*
X92138403Y-89875066I304341J-1530025D01*
G01*
%TO.C,U2*%
X157154077Y-119994870D02*
X157284189Y-120308989D01*
X156132312Y-117528112D02*
X153730225Y-118523089D01*
X157284189Y-120308989D02*
X152581642Y-122256848D01*
X156266251Y-117851470D02*
X156132312Y-117528112D01*
X152942697Y-122109173D02*
G75*
G03*
X156822249Y-120500331I1901136J897597D01*
G01*
%TO.C,D23*%
X95867658Y-69697386D02*
X95867658Y-69697386D01*
X94139037Y-72646821D02*
X94217073Y-72254507D01*
X95995160Y-69722748D02*
X95867658Y-69697386D01*
X95315553Y-72473008D02*
X95237516Y-72865322D01*
X95867658Y-69697386D02*
X95995160Y-69722748D01*
X94217073Y-72254507D02*
X95315553Y-72473008D01*
X95372129Y-72188580D02*
X95499631Y-72213942D01*
X95995160Y-69722748D02*
X95995160Y-69722748D01*
X95924234Y-69412958D02*
X95315553Y-72473008D01*
X95237516Y-72865322D02*
X94139037Y-72646821D01*
X95499631Y-72213942D02*
X95499631Y-72213942D01*
X95315553Y-72473008D02*
X91529721Y-71719960D01*
X95372129Y-72188580D02*
X95372129Y-72188580D01*
X95499631Y-72213942D02*
X95372129Y-72188580D01*
X95924234Y-69412958D02*
X92138403Y-68659909D01*
X92138403Y-68659908D02*
G75*
G03*
X91529721Y-71719960I-304341J-1530026D01*
G01*
%TO.C,U17*%
X122590109Y-121984824D02*
X122459997Y-122298943D01*
X123477935Y-119841424D02*
X123611874Y-119518066D01*
X122459997Y-122298943D02*
X117757450Y-120351085D01*
X123611874Y-119518066D02*
X121209787Y-118523089D01*
X118117175Y-120501967D02*
G75*
G03*
X121998057Y-122107602I1979004J-709609D01*
G01*
%TO.C,U14*%
X94980001Y-81867486D02*
X94980001Y-79267486D01*
X94630001Y-81867486D02*
X94980001Y-81867486D01*
X92310001Y-81867486D02*
X91970001Y-81867486D01*
X91970001Y-81867486D02*
X91970001Y-76777486D01*
X91968265Y-77167569D02*
G75*
G03*
X91970001Y-81367486I101738J-2099917D01*
G01*
%TO.C,Q14*%
X127780000Y-136804999D02*
X127780000Y-134654999D01*
X124560000Y-137229999D02*
X124560000Y-134654999D01*
X126870000Y-134654999D02*
X127780000Y-134654999D01*
X124560000Y-134654999D02*
X125470000Y-134654999D01*
%TO.C,U4*%
X177720624Y-93125580D02*
X176725647Y-95527667D01*
X180501501Y-94277457D02*
X178553643Y-98980004D01*
X180187382Y-94147345D02*
X180501501Y-94277457D01*
X178043982Y-93259519D02*
X177720624Y-93125580D01*
X178704525Y-98620279D02*
G75*
G03*
X180310160Y-94739397I709609J1979004D01*
G01*
%TO.C,U15*%
X96428466Y-99081631D02*
X94480607Y-94379084D01*
X98885985Y-98063693D02*
X99209343Y-97929754D01*
X99209343Y-97929754D02*
X98214366Y-95527667D01*
X96742585Y-98951519D02*
X96428466Y-99081631D01*
X94628282Y-94740139D02*
G75*
G03*
X96237124Y-98619691I897597J-1901136D01*
G01*
%TO.C,U1*%
X140070006Y-124767448D02*
X134980006Y-124767448D01*
X140070006Y-122107448D02*
X140070006Y-121757448D01*
X140070006Y-121757448D02*
X137470006Y-121757448D01*
X140070006Y-124427448D02*
X140070006Y-124767448D01*
X135370089Y-124769184D02*
G75*
G03*
X139570006Y-124767448I2099917J101738D01*
G01*
%TO.C,D11*%
X155940000Y-139164999D02*
X158400000Y-139164999D01*
X158400000Y-139164999D02*
X158400000Y-137694999D01*
X158400000Y-137694999D02*
X155940000Y-137694999D01*
%TO.C,SW3*%
X124552000Y-165597999D02*
X124552000Y-162295999D01*
X128108000Y-165597999D02*
X124552000Y-165597999D01*
X128108000Y-165597999D02*
X128108000Y-164785199D01*
X128108000Y-160517999D02*
X128108000Y-162753199D01*
X124552000Y-156961999D02*
X128108000Y-156961999D01*
G36*
X129886000Y-161279999D02*
G01*
X127600000Y-161279999D01*
X127600000Y-159806799D01*
X128666800Y-159806799D01*
X128920800Y-159552799D01*
X128920800Y-158028799D01*
X128666800Y-157774799D01*
X127600000Y-157774799D01*
X127600000Y-157469999D01*
X125060000Y-157469999D01*
X125060000Y-160263999D01*
X124399600Y-160263999D01*
X123840800Y-160721199D01*
X123688400Y-161279999D01*
X122774000Y-161279999D01*
X122774000Y-155183999D01*
X129886000Y-155183999D01*
X129886000Y-161279999D01*
G37*
X129886000Y-161279999D02*
X127600000Y-161279999D01*
X127600000Y-159806799D01*
X128666800Y-159806799D01*
X128920800Y-159552799D01*
X128920800Y-158028799D01*
X128666800Y-157774799D01*
X127600000Y-157774799D01*
X127600000Y-157469999D01*
X125060000Y-157469999D01*
X125060000Y-160263999D01*
X124399600Y-160263999D01*
X123840800Y-160721199D01*
X123688400Y-161279999D01*
X122774000Y-161279999D01*
X122774000Y-155183999D01*
X129886000Y-155183999D01*
X129886000Y-161279999D01*
%TO.C,D4*%
X136160000Y-152344999D02*
X138620000Y-152344999D01*
X138620000Y-150874999D02*
X136160000Y-150874999D01*
X136160000Y-150874999D02*
X136160000Y-152344999D01*
%TO.C,D25*%
X102696772Y-104029596D02*
X102696772Y-104029596D01*
X101393714Y-101845439D02*
X101285623Y-101917663D01*
X103080115Y-104603310D02*
X102148869Y-105225549D01*
X102804863Y-103957372D02*
X102804863Y-103957372D01*
X102857887Y-104270722D02*
X99648414Y-106415223D01*
X102857887Y-104270722D02*
X103080115Y-104603310D01*
X101393714Y-101845439D02*
X101393714Y-101845439D01*
X101926641Y-104892961D02*
X102857887Y-104270722D01*
X101285623Y-101917663D02*
X101393714Y-101845439D01*
X101285623Y-101917663D02*
X101285623Y-101917663D01*
X101124508Y-101676537D02*
X97915035Y-103821038D01*
X102696772Y-104029596D02*
X102804863Y-103957372D01*
X102148869Y-105225549D02*
X101926641Y-104892961D01*
X101124508Y-101676537D02*
X102857887Y-104270722D01*
X102804863Y-103957372D02*
X102696772Y-104029596D01*
X97915036Y-103821039D02*
G75*
G03*
X99648414Y-106415223I866689J-1297092D01*
G01*
%TO.C,U9*%
X151462077Y-38693474D02*
X151328138Y-39016832D01*
X152480015Y-36235955D02*
X157182562Y-38183813D01*
X152349903Y-36550074D02*
X152480015Y-36235955D01*
X151328138Y-39016832D02*
X153730225Y-40011809D01*
X156822837Y-38032931D02*
G75*
G03*
X152941955Y-36427296I-1979004J709609D01*
G01*
%TO.C,JP1*%
X120075000Y-155639999D02*
X118745000Y-155639999D01*
X120075000Y-150439999D02*
X117415000Y-150439999D01*
X120075000Y-153039999D02*
X117415000Y-153039999D01*
X120075000Y-153039999D02*
X120075000Y-150439999D01*
X120075000Y-154309999D02*
X120075000Y-155639999D01*
X117415000Y-153039999D02*
X117415000Y-150439999D01*
%TO.C,U7*%
X175730670Y-60605143D02*
X176725647Y-63007230D01*
X176054028Y-60471204D02*
X175730670Y-60605143D01*
X178197428Y-59583378D02*
X178511547Y-59453266D01*
X178511547Y-59453266D02*
X180459406Y-64155813D01*
X180311731Y-63794758D02*
G75*
G03*
X178702889Y-59915206I-897597J1901136D01*
G01*
%TD*%
%LPC*%
D17*
%TO.C,U12*%
X107856369Y-46655723D03*
D18*
X106357303Y-48154789D03*
D17*
X104858237Y-49653855D03*
%TD*%
D19*
%TO.C,Q13*%
X121660000Y-136939999D03*
X123560000Y-136939999D03*
X122610000Y-134539999D03*
%TD*%
D20*
%TO.C,D13*%
X159447981Y-114445752D03*
D21*
X161559914Y-113034604D03*
%TD*%
D22*
%TO.C,D21*%
X115492026Y-44089183D03*
D21*
X113380093Y-45500331D03*
%TD*%
D23*
%TO.C,SW2*%
X149110000Y-163669999D03*
D24*
X146570000Y-163669999D03*
X144030000Y-163669999D03*
%TD*%
D25*
%TO.C,D20*%
X130627159Y-38356325D03*
D21*
X128135964Y-38851854D03*
%TD*%
D26*
%TO.C,J2*%
X155305000Y-144159999D03*
X160055000Y-144159999D03*
X155305000Y-145429999D03*
X160055000Y-145429999D03*
X155305000Y-146699999D03*
X160055000Y-146699999D03*
X155305000Y-147969999D03*
X160055000Y-147969999D03*
X155305000Y-149239999D03*
X160055000Y-149239999D03*
%TD*%
D27*
%TO.C,D16*%
X178381128Y-72424600D03*
D21*
X177885599Y-69933405D03*
%TD*%
D28*
%TO.C,C28*%
X140760000Y-134639999D03*
X140760000Y-141839999D03*
%TD*%
D29*
%TO.C,D12*%
X144310896Y-120180090D03*
D21*
X146801657Y-119682387D03*
%TD*%
D30*
%TO.C,SW1*%
X132235000Y-156684999D03*
D31*
X132235000Y-159224999D03*
X132235000Y-161764999D03*
X132235000Y-164304999D03*
X132235000Y-166844999D03*
X139855000Y-166844999D03*
X139855000Y-164304999D03*
X139855000Y-161764999D03*
X139855000Y-159224999D03*
X139855000Y-156684999D03*
%TD*%
D19*
%TO.C,Q15*%
X128790000Y-136929999D03*
X130690000Y-136929999D03*
X129740000Y-134529999D03*
%TD*%
D32*
%TO.C,D17*%
X172648310Y-57289473D03*
D21*
X171237162Y-55177540D03*
%TD*%
D33*
%TO.C,D5*%
X136945000Y-153359999D03*
X138695000Y-153359999D03*
%TD*%
D34*
%TO.C,U3*%
X167083638Y-111879212D03*
D35*
X168582704Y-110380146D03*
D34*
X170081770Y-108881080D03*
%TD*%
D36*
%TO.C,SW4*%
X142570000Y-157919999D03*
X150570000Y-157919999D03*
X142570000Y-153419999D03*
X150570000Y-153419999D03*
%TD*%
D37*
%TO.C,D26*%
X113380098Y-113034604D03*
D21*
X115492031Y-114445752D03*
%TD*%
D38*
%TO.C,U10*%
X139590006Y-35267449D03*
D39*
X137470006Y-35267449D03*
D38*
X135350006Y-35267449D03*
%TD*%
D40*
%TO.C,D27*%
X128135964Y-119683040D03*
D21*
X130627159Y-120178569D03*
%TD*%
D41*
%TO.C,D18*%
X161559914Y-45500293D03*
D21*
X159447981Y-44089145D03*
%TD*%
D19*
%TO.C,Q16*%
X132340000Y-136929999D03*
X134240000Y-136929999D03*
X133290000Y-134529999D03*
%TD*%
D42*
%TO.C,D3*%
X135195000Y-153359999D03*
X133445000Y-153359999D03*
%TD*%
D43*
%TO.C,D19*%
X146804048Y-38851854D03*
D21*
X144312853Y-38356325D03*
%TD*%
D42*
%TO.C,D8*%
X157590000Y-136769999D03*
X155840000Y-136769999D03*
%TD*%
D44*
%TO.C,D14*%
X171237162Y-103357356D03*
D21*
X172648310Y-101245423D03*
%TD*%
D45*
%TO.C,U8*%
X170081769Y-49653817D03*
D46*
X168582703Y-48154751D03*
D45*
X167083637Y-46655685D03*
%TD*%
D47*
%TO.C,U11*%
X122590560Y-37805462D03*
D48*
X120631935Y-38616751D03*
D47*
X118673310Y-39428040D03*
%TD*%
D49*
%TO.C,U16*%
X104858242Y-108881080D03*
D50*
X106357308Y-110380146D03*
D49*
X107856374Y-111879212D03*
%TD*%
D42*
%TO.C,D6*%
X135195000Y-151609999D03*
X133445000Y-151609999D03*
%TD*%
D28*
%TO.C,C27*%
X149690000Y-134559999D03*
X149690000Y-141759999D03*
%TD*%
D51*
%TO.C,D15*%
X177885599Y-88601491D03*
D21*
X178381128Y-86110296D03*
%TD*%
D52*
%TO.C,U13*%
X97630590Y-60470791D03*
D53*
X96819301Y-62429416D03*
D52*
X96008012Y-64388041D03*
%TD*%
D54*
%TO.C,D22*%
X103702845Y-55177580D03*
D21*
X102291697Y-57289513D03*
%TD*%
D55*
%TO.C,H3*%
X155930000Y-154979999D03*
%TD*%
D56*
%TO.C,U6*%
X181470005Y-81387449D03*
D57*
X181470005Y-79267449D03*
D56*
X181470005Y-77147449D03*
%TD*%
D58*
%TO.C,D24*%
X96558879Y-86110335D03*
D21*
X97054408Y-88601530D03*
%TD*%
D59*
%TO.C,U2*%
X152349452Y-120729436D03*
D60*
X154308077Y-119918147D03*
D59*
X156266702Y-119106858D03*
%TD*%
D61*
%TO.C,D23*%
X97054408Y-69933445D03*
D21*
X96558879Y-72424640D03*
%TD*%
D62*
%TO.C,U17*%
X118673310Y-119106858D03*
D63*
X120631935Y-119918147D03*
D62*
X122590560Y-120729436D03*
%TD*%
D64*
%TO.C,U14*%
X93470001Y-77147486D03*
D65*
X93470001Y-79267486D03*
D64*
X93470001Y-81387486D03*
%TD*%
D19*
%TO.C,Q14*%
X125220000Y-136929999D03*
X127120000Y-136929999D03*
X126170000Y-134529999D03*
%TD*%
D66*
%TO.C,U4*%
X177309416Y-98064144D03*
D67*
X178120705Y-96105519D03*
D66*
X178931994Y-94146894D03*
%TD*%
D68*
%TO.C,U15*%
X96008019Y-94146894D03*
D69*
X96819308Y-96105519D03*
D68*
X97630597Y-98064144D03*
%TD*%
D70*
%TO.C,U1*%
X135350006Y-123267448D03*
D71*
X137470006Y-123267448D03*
D70*
X139590006Y-123267448D03*
%TD*%
D42*
%TO.C,D11*%
X157615000Y-138429999D03*
X155865000Y-138429999D03*
%TD*%
D72*
%TO.C,SW3*%
X127930000Y-158779999D03*
D24*
X124730000Y-161279999D03*
X127930000Y-163779999D03*
%TD*%
D33*
%TO.C,D4*%
X136945000Y-151609999D03*
X138695000Y-151609999D03*
%TD*%
D73*
%TO.C,D25*%
X102291702Y-101245423D03*
D21*
X103702850Y-103357356D03*
%TD*%
D74*
%TO.C,U9*%
X156266702Y-39428040D03*
D75*
X154308077Y-38616751D03*
D74*
X152349452Y-37805462D03*
%TD*%
D76*
%TO.C,JP1*%
X118745000Y-154309999D03*
D77*
X118745000Y-151769999D03*
%TD*%
D78*
%TO.C,U7*%
X178931994Y-64388003D03*
D79*
X178120705Y-62429378D03*
D78*
X177309416Y-60470753D03*
%TD*%
D80*
%TO.C,TP1*%
X137430000Y-40819999D03*
%TD*%
D81*
%TO.C,J4*%
X115470000Y-154029999D03*
D82*
X115470000Y-151529999D03*
X115470000Y-149029999D03*
X115470000Y-146529999D03*
%TD*%
D80*
%TO.C,TP3*%
X156820000Y-160619999D03*
%TD*%
D81*
%TO.C,J3*%
X115470000Y-138779999D03*
D82*
X115470000Y-136279999D03*
X115470000Y-133779999D03*
X115470000Y-131279999D03*
%TD*%
D83*
%TO.C,J1*%
X159620000Y-132359999D03*
D82*
X159620000Y-134859999D03*
%TD*%
D80*
%TO.C,TP2*%
X143200000Y-160419999D03*
%TD*%
M02*
