0
SECTION
2
HEADER
9
$INSUNITS
70
4
9
$ACADVER
1
AC1014
9
$HANDSEED
5
FFFF
0
ENDSEC
0
SECTION
2
TABLES
0
TABLE
2
VPORT
5
8
100
AcDbSymbolTable
0
ENDTAB
0
TABLE
2
LTYPE
5
5
100
AcDbSymbolTable
0
LTYPE
5
14
100
AcDbSymbolTableRecord
100
AcDbLinetypeTableRecord
2
BYBLOCK
70
0
0
LTYPE
5
15
100
AcDbSymbolTableRecord
100
AcDbLinetypeTableRecord
2
BYLAYER
70
0
0
ENDTAB
0
TABLE
2
LAYER
5
2
100
AcDbSymbolTable
70
2
0
LAYER
5
50
100
AcDbSymbolTableRecord
100
AcDbLayerTableRecord
2
0
70
0
6
CONTINUOUS
0
ENDTAB
0
TABLE
2
STYLE
5
3
100
AcDbSymbolTable
70
1
0
STYLE
5
11
100
AcDbSymbolTableRecord
100
AcDbTextStyleTableRecord
2
STANDARD
70
0
0
ENDTAB
0
TABLE
2
VIEW
5
6
100
AcDbSymbolTable
70
0
0
ENDTAB
0
TABLE
2
UCS
5
7
100
AcDbSymbolTable
70
0
0
ENDTAB
0
TABLE
2
APPID
5
9
100
AcDbSymbolTable
70
2
0
APPID
5
12
100
AcDbSymbolTableRecord
100
AcDbRegAppTableRecord
2
ACAD
70
0
0
ENDTAB
0
TABLE
2
DIMSTYLE
5
A
100
AcDbSymbolTable
70
1
0
ENDTAB
0
TABLE
2
BLOCK_RECORD
5
1
100
AcDbSymbolTable
70
1
0
BLOCK_RECORD
5
1F
100
AcDbSymbolTableRecord
100
AcDbBlockTableRecord
2
*MODEL_SPACE
0
BLOCK_RECORD
5
1B
100
AcDbSymbolTableRecord
100
AcDbBlockTableRecord
2
*PAPER_SPACE
0
ENDTAB
0
ENDSEC
0
SECTION
2
BLOCKS
0
BLOCK
5
20
100
AcDbEntity
100
AcDbBlockBegin
2
*MODEL_SPACE
0
ENDBLK
5
21
100
AcDbEntity
100
AcDbBlockEnd
0
BLOCK
5
1C
100
AcDbEntity
100
AcDbBlockBegin
2
*PAPER_SPACE
0
ENDBLK
5
1D
100
AcDbEntity
100
AcDbBlockEnd
0
ENDSEC
0
SECTION
2
ENTITIES
0
LWPOLYLINE
5
100
100
AcDbEntity
8
0
100
AcDbPolyline
90
8
70
1
43
0.0
10
-171.50000000000145
20
15.249999999999996
42
0.41421356237308943
10
-168.50000000000142
20
12.249999999999977
10
-64.500000000001421
20
12.249999999999998
42
0.41421356237309659
10
-61.500000000001421
20
15.250000000000004
10
-61.500000000001421
20
69.25
42
0.41421356237309681
10
-64.500000000001435
20
72.25
10
-168.50000000000148
20
72.25
42
0.41421356237309764
10
-171.50000000000151
20
69.249999999999986
0
CIRCLE
5
101
100
AcDbEntity
8
0
100
AcDbCircle
10
-66.50000000000145
20
22.25
30
0
40
1.6000000000000016
210
1.1102230246251568e-16
220
1.7988403537567366e-61
230
1
0
CIRCLE
5
102
100
AcDbEntity
8
0
100
AcDbCircle
10
-131.50000000000148
20
22.25
30
0
40
1.6000000000000016
210
1.1102230246251568e-16
220
1.7988403537567366e-61
230
1
0
CIRCLE
5
103
100
AcDbEntity
8
0
100
AcDbCircle
10
-66.50000000000145
20
52.75
30
0
40
1.6000000000000016
210
1.1102230246251568e-16
220
1.7988403537567366e-61
230
1
0
CIRCLE
5
104
100
AcDbEntity
8
0
100
AcDbCircle
10
-131.50000000000148
20
52.75
30
0
40
1.6000000000000016
210
1.1102230246251568e-16
220
1.7988403537567366e-61
230
1
0
CIRCLE
5
105
100
AcDbEntity
8
0
100
AcDbCircle
10
-66.500000000001421
20
22.25
30
0
40
1.6000000000000016
210
1.1102230246251568e-16
220
4.3790577010150718e-47
230
1
0
LWPOLYLINE
5
106
100
AcDbEntity
8
0
100
AcDbPolyline
90
8
70
1
43
0.0
10
-61.5000000000014
20
69.25
42
0.41421356237309936
10
-64.500000000001407
20
72.25
10
-168.50000000000142
20
72.25
42
0.41421356237310114
10
-171.50000000000151
20
69.249999999999986
10
-171.50000000000145
20
15.249999999999996
42
0.41421356237308943
10
-168.50000000000142
20
12.249999999999977
10
-64.500000000001421
20
12.249999999999998
42
0.41421356237309825
10
-61.500000000001407
20
15.250000000000004
0
LINE
5
107
100
AcDbEntity
8
0
100
AcDbLine
10
-168.50000000000142
20
72.25
30
8.8817841970012523e-15
11
-173.50000000000142
21
72.25
31
8.8817841970012523e-15
0
LINE
5
108
100
AcDbEntity
8
0
100
AcDbLine
10
-61.5000000000014
20
69.25
30
8.8817841970012523e-15
11
-61.5000000000014
21
74.25
31
8.0593967713529885e-15
0
LINE
5
109
100
AcDbEntity
8
0
100
AcDbLine
10
-64.500000000001407
20
72.25
30
8.8817841970012539e-15
11
-59.500000000001407
21
72.25
31
8.8817841970012539e-15
0
LINE
5
110
100
AcDbEntity
8
0
100
AcDbLine
10
-171.50000000000151
20
69.249999999999986
30
2.697841949839131e-14
11
-171.50000000000151
21
74.249999999999986
31
2.697841949839131e-14
0
LINE
5
111
100
AcDbEntity
8
0
100
AcDbLine
10
-61.5000000000014
20
72.25
30
8.8817841970012539e-15
11
-122.2820000000014
21
72.25
31
8.8817841970012539e-15
0
CIRCLE
5
112
100
AcDbEntity
8
0
100
AcDbCircle
10
-131.50000000000145
20
22.25
30
1.7763568394002505e-14
40
1.6000000000000016
210
1.1102230246251568e-16
220
4.3790577010150718e-47
230
1
0
CIRCLE
5
113
100
AcDbEntity
8
0
100
AcDbCircle
10
-66.500000000001421
20
52.75
30
0
40
1.6000000000000016
210
1.1102230246251568e-16
220
4.3790577010150718e-47
230
1
0
LINE
5
114
100
AcDbEntity
8
0
100
AcDbLine
10
-152.16600000000153
20
72.25
30
8.8817841970012523e-15
11
-123.8820000000014
21
72.25
31
8.8817841970012555e-15
0
CIRCLE
5
115
100
AcDbEntity
8
0
100
AcDbCircle
10
-131.50000000000145
20
52.75
30
1.7763568394002505e-14
40
1.6000000000000016
210
1.1102230246251568e-16
220
4.3790577010150718e-47
230
1
0
LINE
5
116
100
AcDbEntity
8
0
100
AcDbLine
10
-171.50000000000151
20
72.25
30
2.697841949839131e-14
11
-150.56600000000151
21
72.25
31
2.697841949839131e-14
0
LWPOLYLINE
5
117
100
AcDbEntity
8
0
100
AcDbPolyline
90
4
70
1
43
0.0
10
-150.56600000000151
20
72.25
10
-122.2820000000014
20
72.25
10
-122.2820000000014
20
62.25
10
-150.56600000000151
20
62.25
0
LWPOLYLINE
5
118
100
AcDbEntity
8
0
100
AcDbPolyline
90
4
70
1
43
0.0
10
-130.75166852264681
20
49.999999999999993
42
0.76424309914375377
10
-130.75166852264701
20
55.500000000000057
10
-127.00000000000051
20
55.500000000000121
10
-127.00000000000051
20
50
0
LWPOLYLINE
5
119
100
AcDbEntity
8
0
100
AcDbPolyline
90
4
70
1
43
0.0
10
-132.24833147735615
20
55.500000000000057
42
0.76424309914373212
10
-132.24833147735634
20
50
10
-136.00000000000151
20
50
10
-136.00000000000151
20
55.500000000000007
0
LWPOLYLINE
5
120
100
AcDbEntity
8
0
100
AcDbPolyline
90
6
70
1
43
0.0
10
-130.75166852264701
20
55.500000000000071
10
-127.00000000000053
20
55.500000000000121
10
-127.00000000000111
20
57.500000000000128
10
-136.00000000000119
20
57.5
10
-136.00000000000679
20
55.500000000000007
0
LWPOLYLINE
5
121
100
AcDbEntity
8
0
100
AcDbPolyline
90
6
70
1
43
0.0
10
-132.24833147735634
20
50.000000000000007
10
-136.00000000000151
20
50
10
-136.00000000000654
20
48
10
-127.00000000000048
20
48.000000000000007
10
-127.00000000000091
20
50
0
LWPOLYLINE
5
122
100
AcDbEntity
8
0
100
AcDbPolyline
90
6
70
1
43
0.0
10
-130.75166852264672
20
25
10
-127.00000000000051
20
25
10
-127.00000000000088
20
27
10
-136.0000000000004
20
27
10
-136.00000000000657
20
25
0
LWPOLYLINE
5
123
100
AcDbEntity
8
0
100
AcDbPolyline
90
4
70
1
43
0.0
10
-130.75166852264604
20
19.500000000000192
42
0.76424309914360666
10
-130.75166852264672
20
25.000000000000007
10
-127.00000000000048
20
25
10
-127.00000000000051
20
19.500000000000114
0
LWPOLYLINE
5
124
100
AcDbEntity
8
0
100
AcDbPolyline
90
4
70
1
43
0.0
10
-132.24833147735634
20
25.000000000000004
42
0.76424309914368505
10
-132.24833147735654
20
19.500000000000057
10
-136.00000000000151
20
19.5
10
-136.00000000000151
20
25
0
LWPOLYLINE
5
125
100
AcDbEntity
8
0
100
AcDbPolyline
90
6
70
1
43
0.0
10
-132.24833147735652
20
19.50000000000005
10
-136.00000000000151
20
19.5
10
-136.00000000000634
20
17.500000000000004
10
-127.00000000000048
20
17.5
10
-127.00000000000068
20
19.500000000000114
0
LWPOLYLINE
5
126
100
AcDbEntity
8
0
100
AcDbPolyline
90
6
70
1
43
0.0
10
-65.751668522646753
20
55.500000000000007
10
-62.000000000000526
20
55.500000000000007
10
-62.000000000000462
20
57.500000000000007
10
-71.000000000000526
20
57.5
10
-71.000000000000483
20
55.500000000000007
0
LWPOLYLINE
5
127
100
AcDbEntity
8
0
100
AcDbPolyline
90
4
70
1
43
0.0
10
-67.24833147735626
20
55.500000000000007
42
0.76424309914313826
10
-67.248331477360338
20
50.000000000001108
10
-71.00000000000054
20
50.000000000000007
10
-71.00000000000054
20
55.500000000000007
0
LWPOLYLINE
5
128
100
AcDbEntity
8
0
100
AcDbPolyline
90
4
70
1
43
0.0
10
-65.75166852265076
20
49.99999999999892
42
0.76424309914429933
10
-65.751668522646753
20
55.5
10
-62.000000000000526
20
55.500000000000007
10
-62.000000000000526
20
50.000000000000007
0
LWPOLYLINE
5
129
100
AcDbEntity
8
0
100
AcDbPolyline
90
6
70
1
43
0.0
10
-67.248331477360338
20
50.000000000001108
10
-71.00000000000054
20
50.000000000000007
10
-71.000000000000483
20
48.000000000000007
10
-62.000000000000519
20
48.000000000000007
10
-62.000000000000483
20
50.000000000000007
0
LWPOLYLINE
5
130
100
AcDbEntity
8
0
100
AcDbPolyline
90
4
70
1
43
0.0
10
-67.248331477356274
20
25
42
0.76424309914318223
10
-67.248331477360011
20
19.500000000001013
10
-71.000000000000526
20
19.499999999999996
10
-71.000000000000526
20
25
0
LWPOLYLINE
5
131
100
AcDbEntity
8
0
100
AcDbPolyline
90
4
70
1
43
0.0
10
-65.751668522650803
20
19.499999999998899
42
0.76424309914430344
10
-65.751668522646753
20
25
10
-62.000000000000519
20
25
10
-62.000000000000526
20
19.499999999999996
0
LWPOLYLINE
5
132
100
AcDbEntity
8
0
100
AcDbPolyline
90
6
70
1
43
0.0
10
-65.751668522646753
20
25
10
-62.000000000000526
20
25
10
-62.000000000000462
20
27
10
-71.000000000000526
20
27
10
-71.000000000000483
20
25
0
LWPOLYLINE
5
133
100
AcDbEntity
8
0
100
AcDbPolyline
90
6
70
1
43
0.0
10
-67.248331477360011
20
19.50000000000102
10
-71.00000000000054
20
19.499999999999996
10
-71.000000000000483
20
17.499999999999996
10
-62.000000000000497
20
17.5
10
-62.000000000000483
20
19.499999999999996
0
ENDSEC
0
SECTION
2
OBJECTS
0
DICTIONARY
5
C
100
AcDbDictionary
3
ACAD_GROUP
350
D
3
ACAD_MLINESTYLE
350
17
0
DICTIONARY
5
D
100
AcDbDictionary
0
DICTIONARY
5
1A
330
C
100
AcDbDictionary
0
DICTIONARY
5
17
100
AcDbDictionary
0
ENDSEC
0
EOF
