%TF.GenerationSoftware,KiCad,Pcbnew,(6.0.11)*%
%TF.CreationDate,2024-02-29T08:21:51+09:00*%
%TF.ProjectId,LargePW,4c617267-6550-4572-9e6b-696361645f70,rev?*%
%TF.SameCoordinates,Original*%
%TF.FileFunction,Profile,NP*%
%FSLAX46Y46*%
G04 Gerber Fmt 4.6, Leading zero omitted, Abs format (unit mm)*
G04 Created by KiCad (PCBNEW (6.0.11)) date 2024-02-29 08:21:51*
%MOMM*%
%LPD*%
G01*
G04 APERTURE LIST*
%TA.AperFunction,Profile*%
%ADD10C,0.200000*%
%TD*%
%TA.AperFunction,Profile*%
%ADD11C,0.150000*%
%TD*%
%TA.AperFunction,Profile*%
%ADD12C,0.120000*%
%TD*%
G04 APERTURE END LIST*
D10*
X92206788Y-54928310D02*
G75*
G03*
X92206788Y-54928310I-1600000J0D01*
G01*
X171606790Y-52928310D02*
G75*
G03*
X168606787Y-49928310I-2999990J10D01*
G01*
D11*
X114000000Y-57250000D02*
G75*
G03*
X114000000Y-57250000I-3000000J0D01*
G01*
D10*
X88606787Y-149928310D02*
X168606787Y-149928310D01*
X171606787Y-146928310D02*
X171606787Y-52928310D01*
X92206787Y-144928310D02*
G75*
G03*
X92206787Y-144928310I-1600000J0D01*
G01*
X168206787Y-54928310D02*
G75*
G03*
X168206787Y-54928310I-1600000J0D01*
G01*
X168606787Y-49928310D02*
X88606787Y-49928310D01*
X85606790Y-146928310D02*
G75*
G03*
X88606787Y-149928310I3000010J10D01*
G01*
X168206787Y-144928309D02*
G75*
G03*
X168206787Y-144928309I-1600000J0D01*
G01*
X168606787Y-149928287D02*
G75*
G03*
X171606787Y-146928310I13J2999987D01*
G01*
X85606787Y-52928310D02*
X85606788Y-146928310D01*
X88606787Y-49928287D02*
G75*
G03*
X85606787Y-52928310I13J-3000013D01*
G01*
D11*
X125000000Y-57250000D02*
G75*
G03*
X125000000Y-57250000I-3000000J0D01*
G01*
D12*
%TO.C,MES1*%
X116500000Y-111550000D02*
X93500000Y-111550000D01*
X116500000Y-122550000D02*
X116500000Y-119050000D01*
X116500000Y-119050000D02*
X116500000Y-115050000D01*
X93500000Y-119050000D02*
X93500000Y-122550000D01*
X93500000Y-115050000D02*
X93500000Y-119050000D01*
X93500000Y-111550000D02*
X93500000Y-115050000D01*
X116500000Y-115050000D02*
X116500000Y-111550000D01*
X93500000Y-122550000D02*
X116500000Y-122550000D01*
X119150000Y-117050000D02*
G75*
G03*
X119150000Y-117050000I-1150000J0D01*
G01*
X93150000Y-117050000D02*
G75*
G03*
X93150000Y-117050000I-1150000J0D01*
G01*
%TD*%
M02*
