%TF.GenerationSoftware,KiCad,Pcbnew,(6.0.11)*%
%TF.CreationDate,2024-02-29T08:21:51+09:00*%
%TF.ProjectId,LargePW,4c617267-6550-4572-9e6b-696361645f70,rev?*%
%TF.SameCoordinates,Original*%
%TF.FileFunction,Legend,Top*%
%TF.FilePolarity,Positive*%
%FSLAX46Y46*%
G04 Gerber Fmt 4.6, Leading zero omitted, Abs format (unit mm)*
G04 Created by KiCad (PCBNEW (6.0.11)) date 2024-02-29 08:21:51*
%MOMM*%
%LPD*%
G01*
G04 APERTURE LIST*
G04 Aperture macros list*
%AMRoundRect*
0 Rectangle with rounded corners*
0 $1 Rounding radius*
0 $2 $3 $4 $5 $6 $7 $8 $9 X,Y pos of 4 corners*
0 Add a 4 corners polygon primitive as box body*
4,1,4,$2,$3,$4,$5,$6,$7,$8,$9,$2,$3,0*
0 Add four circle primitives for the rounded corners*
1,1,$1+$1,$2,$3*
1,1,$1+$1,$4,$5*
1,1,$1+$1,$6,$7*
1,1,$1+$1,$8,$9*
0 Add four rect primitives between the rounded corners*
20,1,$1+$1,$2,$3,$4,$5,0*
20,1,$1+$1,$4,$5,$6,$7,0*
20,1,$1+$1,$6,$7,$8,$9,0*
20,1,$1+$1,$8,$9,$2,$3,0*%
G04 Aperture macros list end*
%ADD10C,0.470000*%
%ADD11C,0.130000*%
%ADD12C,0.270000*%
%ADD13C,0.150000*%
%ADD14C,0.120000*%
%ADD15C,1.060000*%
%ADD16O,9.000000X3.500000*%
%ADD17O,3.500000X9.000000*%
%ADD18R,3.800000X3.800000*%
%ADD19C,4.000000*%
%ADD20RoundRect,0.237500X0.250000X0.237500X-0.250000X0.237500X-0.250000X-0.237500X0.250000X-0.237500X0*%
%ADD21RoundRect,0.250000X-0.675000X0.600000X-0.675000X-0.600000X0.675000X-0.600000X0.675000X0.600000X0*%
%ADD22O,1.850000X1.700000*%
%ADD23C,2.780000*%
%ADD24R,2.200000X1.200000*%
%ADD25R,6.400000X5.800000*%
%ADD26O,4.000000X1.524000*%
%ADD27C,5.000000*%
%ADD28R,1.200000X2.200000*%
%ADD29R,5.800000X6.400000*%
%ADD30C,1.524000*%
%ADD31R,4.000000X4.000000*%
G04 APERTURE END LIST*
D10*
X135283333Y-116583333D02*
X137950000Y-116583333D01*
X134950000Y-119583333D02*
X138616666Y-119583333D01*
X133950000Y-121916666D02*
X139283333Y-121916666D01*
X134950000Y-117916666D02*
X134950000Y-119583333D01*
X134950000Y-117916666D02*
X138616666Y-117916666D01*
X138616666Y-119583333D01*
X132616666Y-114250000D02*
X132616666Y-119250000D01*
X133950000Y-120583333D01*
X137283333Y-115250000D02*
X139283333Y-117250000D01*
X139283333Y-115250000D02*
X137950000Y-115916666D01*
X134616666Y-115250000D02*
X135283333Y-115916666D01*
X133616666Y-117583333D01*
X138283333Y-114250000D02*
X137283333Y-115250000D01*
X135616666Y-120250000D02*
X135616666Y-121250000D01*
X136950000Y-113916666D02*
X137616666Y-115916666D01*
X137950000Y-119916666D02*
X137283333Y-121250000D01*
X133616666Y-115583333D02*
X132950000Y-116916666D01*
X132283333Y-119250000D02*
X131283333Y-121916666D01*
X134283333Y-114583333D02*
X136283333Y-114250000D01*
X135283333Y-116250000D01*
X131616666Y-115916666D02*
X130950000Y-117583333D01*
X132616666Y-117583333D02*
X131950000Y-120916666D01*
D11*
X131666666Y-127897380D02*
X131666666Y-126897380D01*
X131904761Y-126897380D01*
X132047619Y-126945000D01*
X132142857Y-127040238D01*
X132190476Y-127135476D01*
X132238095Y-127325952D01*
X132238095Y-127468809D01*
X132190476Y-127659285D01*
X132142857Y-127754523D01*
X132047619Y-127849761D01*
X131904761Y-127897380D01*
X131666666Y-127897380D01*
X133047619Y-127849761D02*
X132952380Y-127897380D01*
X132761904Y-127897380D01*
X132666666Y-127849761D01*
X132619047Y-127754523D01*
X132619047Y-127373571D01*
X132666666Y-127278333D01*
X132761904Y-127230714D01*
X132952380Y-127230714D01*
X133047619Y-127278333D01*
X133095238Y-127373571D01*
X133095238Y-127468809D01*
X132619047Y-127564047D01*
X133476190Y-127849761D02*
X133571428Y-127897380D01*
X133761904Y-127897380D01*
X133857142Y-127849761D01*
X133904761Y-127754523D01*
X133904761Y-127706904D01*
X133857142Y-127611666D01*
X133761904Y-127564047D01*
X133619047Y-127564047D01*
X133523809Y-127516428D01*
X133476190Y-127421190D01*
X133476190Y-127373571D01*
X133523809Y-127278333D01*
X133619047Y-127230714D01*
X133761904Y-127230714D01*
X133857142Y-127278333D01*
X134333333Y-127897380D02*
X134333333Y-127230714D01*
X134333333Y-126897380D02*
X134285714Y-126945000D01*
X134333333Y-126992619D01*
X134380952Y-126945000D01*
X134333333Y-126897380D01*
X134333333Y-126992619D01*
X135238095Y-127230714D02*
X135238095Y-128040238D01*
X135190476Y-128135476D01*
X135142857Y-128183095D01*
X135047619Y-128230714D01*
X134904761Y-128230714D01*
X134809523Y-128183095D01*
X135238095Y-127849761D02*
X135142857Y-127897380D01*
X134952380Y-127897380D01*
X134857142Y-127849761D01*
X134809523Y-127802142D01*
X134761904Y-127706904D01*
X134761904Y-127421190D01*
X134809523Y-127325952D01*
X134857142Y-127278333D01*
X134952380Y-127230714D01*
X135142857Y-127230714D01*
X135238095Y-127278333D01*
X135714285Y-127230714D02*
X135714285Y-127897380D01*
X135714285Y-127325952D02*
X135761904Y-127278333D01*
X135857142Y-127230714D01*
X136000000Y-127230714D01*
X136095238Y-127278333D01*
X136142857Y-127373571D01*
X136142857Y-127897380D01*
X137000000Y-127849761D02*
X136904761Y-127897380D01*
X136714285Y-127897380D01*
X136619047Y-127849761D01*
X136571428Y-127754523D01*
X136571428Y-127373571D01*
X136619047Y-127278333D01*
X136714285Y-127230714D01*
X136904761Y-127230714D01*
X137000000Y-127278333D01*
X137047619Y-127373571D01*
X137047619Y-127468809D01*
X136571428Y-127564047D01*
X137904761Y-127897380D02*
X137904761Y-126897380D01*
X137904761Y-127849761D02*
X137809523Y-127897380D01*
X137619047Y-127897380D01*
X137523809Y-127849761D01*
X137476190Y-127802142D01*
X137428571Y-127706904D01*
X137428571Y-127421190D01*
X137476190Y-127325952D01*
X137523809Y-127278333D01*
X137619047Y-127230714D01*
X137809523Y-127230714D01*
X137904761Y-127278333D01*
X139142857Y-127897380D02*
X139142857Y-126897380D01*
X139142857Y-127278333D02*
X139238095Y-127230714D01*
X139428571Y-127230714D01*
X139523809Y-127278333D01*
X139571428Y-127325952D01*
X139619047Y-127421190D01*
X139619047Y-127706904D01*
X139571428Y-127802142D01*
X139523809Y-127849761D01*
X139428571Y-127897380D01*
X139238095Y-127897380D01*
X139142857Y-127849761D01*
X139952380Y-127230714D02*
X140190476Y-127897380D01*
X140428571Y-127230714D02*
X140190476Y-127897380D01*
X140095238Y-128135476D01*
X140047619Y-128183095D01*
X139952380Y-128230714D01*
X130309523Y-129031190D02*
X130261904Y-128983571D01*
X130166666Y-128935952D01*
X130071428Y-128935952D01*
X129976190Y-128983571D01*
X129928571Y-129031190D01*
X129880952Y-129126428D01*
X129880952Y-129221666D01*
X129928571Y-129316904D01*
X129976190Y-129364523D01*
X130071428Y-129412142D01*
X130166666Y-129412142D01*
X130261904Y-129364523D01*
X130309523Y-129316904D01*
X130309523Y-128935952D02*
X130309523Y-129316904D01*
X130357142Y-129364523D01*
X130404761Y-129364523D01*
X130500000Y-129316904D01*
X130547619Y-129221666D01*
X130547619Y-128983571D01*
X130452380Y-128840714D01*
X130309523Y-128745476D01*
X130119047Y-128697857D01*
X129928571Y-128745476D01*
X129785714Y-128840714D01*
X129690476Y-128983571D01*
X129642857Y-129174047D01*
X129690476Y-129364523D01*
X129785714Y-129507380D01*
X129928571Y-129602619D01*
X130119047Y-129650238D01*
X130309523Y-129602619D01*
X130452380Y-129507380D01*
X131404761Y-129459761D02*
X131309523Y-129507380D01*
X131119047Y-129507380D01*
X131023809Y-129459761D01*
X130976190Y-129412142D01*
X130928571Y-129316904D01*
X130928571Y-129031190D01*
X130976190Y-128935952D01*
X131023809Y-128888333D01*
X131119047Y-128840714D01*
X131309523Y-128840714D01*
X131404761Y-128888333D01*
X132261904Y-129507380D02*
X132261904Y-128983571D01*
X132214285Y-128888333D01*
X132119047Y-128840714D01*
X131928571Y-128840714D01*
X131833333Y-128888333D01*
X132261904Y-129459761D02*
X132166666Y-129507380D01*
X131928571Y-129507380D01*
X131833333Y-129459761D01*
X131785714Y-129364523D01*
X131785714Y-129269285D01*
X131833333Y-129174047D01*
X131928571Y-129126428D01*
X132166666Y-129126428D01*
X132261904Y-129078809D01*
X132595238Y-128840714D02*
X132976190Y-128840714D01*
X132738095Y-128507380D02*
X132738095Y-129364523D01*
X132785714Y-129459761D01*
X132880952Y-129507380D01*
X132976190Y-129507380D01*
X133071428Y-129602619D02*
X133833333Y-129602619D01*
X134071428Y-128840714D02*
X134071428Y-129507380D01*
X134071428Y-128935952D02*
X134119047Y-128888333D01*
X134214285Y-128840714D01*
X134357142Y-128840714D01*
X134452380Y-128888333D01*
X134500000Y-128983571D01*
X134500000Y-129507380D01*
X135357142Y-129459761D02*
X135261904Y-129507380D01*
X135071428Y-129507380D01*
X134976190Y-129459761D01*
X134928571Y-129364523D01*
X134928571Y-128983571D01*
X134976190Y-128888333D01*
X135071428Y-128840714D01*
X135261904Y-128840714D01*
X135357142Y-128888333D01*
X135404761Y-128983571D01*
X135404761Y-129078809D01*
X134928571Y-129174047D01*
X135833333Y-129507380D02*
X135833333Y-128507380D01*
X135928571Y-129126428D02*
X136214285Y-129507380D01*
X136214285Y-128840714D02*
X135833333Y-129221666D01*
X136785714Y-129507380D02*
X136690476Y-129459761D01*
X136642857Y-129412142D01*
X136595238Y-129316904D01*
X136595238Y-129031190D01*
X136642857Y-128935952D01*
X136690476Y-128888333D01*
X136785714Y-128840714D01*
X136928571Y-128840714D01*
X137023809Y-128888333D01*
X137071428Y-128935952D01*
X137119047Y-129031190D01*
X137119047Y-129316904D01*
X137071428Y-129412142D01*
X137023809Y-129459761D01*
X136928571Y-129507380D01*
X136785714Y-129507380D01*
X137547619Y-128840714D02*
X137547619Y-129507380D01*
X137547619Y-128935952D02*
X137595238Y-128888333D01*
X137690476Y-128840714D01*
X137833333Y-128840714D01*
X137928571Y-128888333D01*
X137976190Y-128983571D01*
X137976190Y-129507380D01*
X138833333Y-129459761D02*
X138738095Y-129507380D01*
X138547619Y-129507380D01*
X138452380Y-129459761D01*
X138404761Y-129364523D01*
X138404761Y-128983571D01*
X138452380Y-128888333D01*
X138547619Y-128840714D01*
X138738095Y-128840714D01*
X138833333Y-128888333D01*
X138880952Y-128983571D01*
X138880952Y-129078809D01*
X138404761Y-129174047D01*
X139309523Y-129507380D02*
X139309523Y-128507380D01*
X139404761Y-129126428D02*
X139690476Y-129507380D01*
X139690476Y-128840714D02*
X139309523Y-129221666D01*
X140261904Y-129507380D02*
X140166666Y-129459761D01*
X140119047Y-129412142D01*
X140071428Y-129316904D01*
X140071428Y-129031190D01*
X140119047Y-128935952D01*
X140166666Y-128888333D01*
X140261904Y-128840714D01*
X140404761Y-128840714D01*
X140500000Y-128888333D01*
X140547619Y-128935952D01*
X140595238Y-129031190D01*
X140595238Y-129316904D01*
X140547619Y-129412142D01*
X140500000Y-129459761D01*
X140404761Y-129507380D01*
X140261904Y-129507380D01*
X141023809Y-128840714D02*
X141023809Y-129507380D01*
X141023809Y-128935952D02*
X141071428Y-128888333D01*
X141166666Y-128840714D01*
X141309523Y-128840714D01*
X141404761Y-128888333D01*
X141452380Y-128983571D01*
X141452380Y-129507380D01*
X142309523Y-129459761D02*
X142214285Y-129507380D01*
X142023809Y-129507380D01*
X141928571Y-129459761D01*
X141880952Y-129364523D01*
X141880952Y-128983571D01*
X141928571Y-128888333D01*
X142023809Y-128840714D01*
X142214285Y-128840714D01*
X142309523Y-128888333D01*
X142357142Y-128983571D01*
X142357142Y-129078809D01*
X141880952Y-129174047D01*
D12*
X126342857Y-123330952D02*
X127771428Y-123330952D01*
X127057142Y-125830952D02*
X127057142Y-123330952D01*
X128961904Y-125830952D02*
X128723809Y-125711904D01*
X128604761Y-125592857D01*
X128485714Y-125354761D01*
X128485714Y-124640476D01*
X128604761Y-124402380D01*
X128723809Y-124283333D01*
X128961904Y-124164285D01*
X129319047Y-124164285D01*
X129557142Y-124283333D01*
X129676190Y-124402380D01*
X129795238Y-124640476D01*
X129795238Y-125354761D01*
X129676190Y-125592857D01*
X129557142Y-125711904D01*
X129319047Y-125830952D01*
X128961904Y-125830952D01*
X130866666Y-125830952D02*
X130866666Y-124164285D01*
X130866666Y-124402380D02*
X130985714Y-124283333D01*
X131223809Y-124164285D01*
X131580952Y-124164285D01*
X131819047Y-124283333D01*
X131938095Y-124521428D01*
X131938095Y-125830952D01*
X131938095Y-124521428D02*
X132057142Y-124283333D01*
X132295238Y-124164285D01*
X132652380Y-124164285D01*
X132890476Y-124283333D01*
X133009523Y-124521428D01*
X133009523Y-125830952D01*
X134557142Y-125830952D02*
X134319047Y-125711904D01*
X134200000Y-125592857D01*
X134080952Y-125354761D01*
X134080952Y-124640476D01*
X134200000Y-124402380D01*
X134319047Y-124283333D01*
X134557142Y-124164285D01*
X134914285Y-124164285D01*
X135152380Y-124283333D01*
X135271428Y-124402380D01*
X135390476Y-124640476D01*
X135390476Y-125354761D01*
X135271428Y-125592857D01*
X135152380Y-125711904D01*
X134914285Y-125830952D01*
X134557142Y-125830952D01*
X136342857Y-125711904D02*
X136580952Y-125830952D01*
X137057142Y-125830952D01*
X137295238Y-125711904D01*
X137414285Y-125473809D01*
X137414285Y-125354761D01*
X137295238Y-125116666D01*
X137057142Y-124997619D01*
X136700000Y-124997619D01*
X136461904Y-124878571D01*
X136342857Y-124640476D01*
X136342857Y-124521428D01*
X136461904Y-124283333D01*
X136700000Y-124164285D01*
X137057142Y-124164285D01*
X137295238Y-124283333D01*
X138485714Y-125830952D02*
X138485714Y-123330952D01*
X139557142Y-125830952D02*
X139557142Y-124521428D01*
X139438095Y-124283333D01*
X139200000Y-124164285D01*
X138842857Y-124164285D01*
X138604761Y-124283333D01*
X138485714Y-124402380D01*
X140747619Y-125830952D02*
X140747619Y-124164285D01*
X140747619Y-123330952D02*
X140628571Y-123450000D01*
X140747619Y-123569047D01*
X140866666Y-123450000D01*
X140747619Y-123330952D01*
X140747619Y-123569047D01*
X141938095Y-125830952D02*
X141938095Y-123330952D01*
X141938095Y-124283333D02*
X142176190Y-124164285D01*
X142652380Y-124164285D01*
X142890476Y-124283333D01*
X143009523Y-124402380D01*
X143128571Y-124640476D01*
X143128571Y-125354761D01*
X143009523Y-125592857D01*
X142890476Y-125711904D01*
X142652380Y-125830952D01*
X142176190Y-125830952D01*
X141938095Y-125711904D01*
X144200000Y-125830952D02*
X144200000Y-124164285D01*
X144200000Y-123330952D02*
X144080952Y-123450000D01*
X144200000Y-123569047D01*
X144319047Y-123450000D01*
X144200000Y-123330952D01*
X144200000Y-123569047D01*
D13*
X100380952Y-133202380D02*
X100380952Y-133916666D01*
X100333333Y-134059523D01*
X100238095Y-134154761D01*
X100095238Y-134202380D01*
X100000000Y-134202380D01*
X101333333Y-134202380D02*
X100857142Y-134202380D01*
X100857142Y-133202380D01*
X102238095Y-134107142D02*
X102190476Y-134154761D01*
X102047619Y-134202380D01*
X101952380Y-134202380D01*
X101809523Y-134154761D01*
X101714285Y-134059523D01*
X101666666Y-133964285D01*
X101619047Y-133773809D01*
X101619047Y-133630952D01*
X101666666Y-133440476D01*
X101714285Y-133345238D01*
X101809523Y-133250000D01*
X101952380Y-133202380D01*
X102047619Y-133202380D01*
X102190476Y-133250000D01*
X102238095Y-133297619D01*
X102952380Y-133202380D02*
X102952380Y-133916666D01*
X102904761Y-134059523D01*
X102809523Y-134154761D01*
X102666666Y-134202380D01*
X102571428Y-134202380D01*
X103904761Y-134202380D02*
X103428571Y-134202380D01*
X103428571Y-133202380D01*
X104809523Y-134107142D02*
X104761904Y-134154761D01*
X104619047Y-134202380D01*
X104523809Y-134202380D01*
X104380952Y-134154761D01*
X104285714Y-134059523D01*
X104238095Y-133964285D01*
X104190476Y-133773809D01*
X104190476Y-133630952D01*
X104238095Y-133440476D01*
X104285714Y-133345238D01*
X104380952Y-133250000D01*
X104523809Y-133202380D01*
X104619047Y-133202380D01*
X104761904Y-133250000D01*
X104809523Y-133297619D01*
X105523809Y-133202380D02*
X105523809Y-133916666D01*
X105476190Y-134059523D01*
X105380952Y-134154761D01*
X105238095Y-134202380D01*
X105142857Y-134202380D01*
X106476190Y-134202380D02*
X106000000Y-134202380D01*
X106000000Y-133202380D01*
X107380952Y-134107142D02*
X107333333Y-134154761D01*
X107190476Y-134202380D01*
X107095238Y-134202380D01*
X106952380Y-134154761D01*
X106857142Y-134059523D01*
X106809523Y-133964285D01*
X106761904Y-133773809D01*
X106761904Y-133630952D01*
X106809523Y-133440476D01*
X106857142Y-133345238D01*
X106952380Y-133250000D01*
X107095238Y-133202380D01*
X107190476Y-133202380D01*
X107333333Y-133250000D01*
X107380952Y-133297619D01*
X108095238Y-133202380D02*
X108095238Y-133916666D01*
X108047619Y-134059523D01*
X107952380Y-134154761D01*
X107809523Y-134202380D01*
X107714285Y-134202380D01*
X109047619Y-134202380D02*
X108571428Y-134202380D01*
X108571428Y-133202380D01*
X109952380Y-134107142D02*
X109904761Y-134154761D01*
X109761904Y-134202380D01*
X109666666Y-134202380D01*
X109523809Y-134154761D01*
X109428571Y-134059523D01*
X109380952Y-133964285D01*
X109333333Y-133773809D01*
X109333333Y-133630952D01*
X109380952Y-133440476D01*
X109428571Y-133345238D01*
X109523809Y-133250000D01*
X109666666Y-133202380D01*
X109761904Y-133202380D01*
X109904761Y-133250000D01*
X109952380Y-133297619D01*
%TO.C,J2*%
X117928571Y-134357141D02*
X119071428Y-134357141D01*
X118500000Y-134928570D02*
X118500000Y-133785713D01*
X130928571Y-134357141D02*
X132071428Y-134357141D01*
%TO.C,J12*%
X154107142Y-104571428D02*
X154107142Y-103428571D01*
X154107142Y-117571428D02*
X154107142Y-116428571D01*
X154678571Y-117000000D02*
X153535714Y-117000000D01*
%TO.C,J3*%
X117928571Y-143857142D02*
X119071428Y-143857142D01*
X118500000Y-144428571D02*
X118500000Y-143285714D01*
X130928571Y-143857142D02*
X132071428Y-143857142D01*
%TO.C,J6*%
X154107142Y-91321428D02*
X154107142Y-90178571D01*
X154107142Y-104321428D02*
X154107142Y-103178571D01*
X154678571Y-103750000D02*
X153535714Y-103750000D01*
%TO.C,J9*%
X145607142Y-144321428D02*
X145607142Y-143178571D01*
X146178571Y-143750000D02*
X145035714Y-143750000D01*
X158178571Y-143857142D02*
X159321428Y-143857142D01*
%TO.C,J7*%
X163607142Y-91321428D02*
X163607142Y-90178571D01*
X163607142Y-104321428D02*
X163607142Y-103178571D01*
X164178571Y-103750000D02*
X163035714Y-103750000D01*
%TO.C,J4*%
X144678571Y-134357142D02*
X145821428Y-134357142D01*
X131428571Y-134357142D02*
X132571428Y-134357142D01*
X132000000Y-134928571D02*
X132000000Y-133785714D01*
%TO.C,J10*%
X153428571Y-130107142D02*
X154571428Y-130107142D01*
X154000000Y-130678571D02*
X154000000Y-129535714D01*
X154107142Y-117821428D02*
X154107142Y-116678571D01*
%TO.C,J11*%
X162928571Y-130107142D02*
X164071428Y-130107142D01*
X163500000Y-130678571D02*
X163500000Y-129535714D01*
X163607142Y-117821428D02*
X163607142Y-116678571D01*
%TO.C,J5*%
X144428571Y-143857142D02*
X145571428Y-143857142D01*
X131428571Y-143857143D02*
X132571428Y-143857143D01*
X132000000Y-144428572D02*
X132000000Y-143285715D01*
%TO.C,J13*%
X163607142Y-117571428D02*
X163607142Y-116428571D01*
X164178571Y-117000000D02*
X163035714Y-117000000D01*
X163607142Y-104571428D02*
X163607142Y-103428571D01*
%TO.C,J8*%
X158178571Y-134357142D02*
X159321428Y-134357142D01*
X145607142Y-134821428D02*
X145607142Y-133678571D01*
X146178571Y-134250000D02*
X145035714Y-134250000D01*
D14*
%TO.C,K1*%
X88250000Y-78750000D02*
X118250000Y-78750000D01*
X118250000Y-78750000D02*
X118250000Y-108750000D01*
X118250000Y-108750000D02*
X88250000Y-108750000D01*
X88250000Y-108750000D02*
X88250000Y-78750000D01*
%TO.C,J2*%
X128510000Y-131539999D02*
X119790000Y-131539999D01*
X119790000Y-136959999D02*
X119790000Y-131539999D01*
X130210000Y-135659999D02*
X130210000Y-132839999D01*
X128510000Y-136959999D02*
X119790000Y-136959999D01*
X130210000Y-132839999D02*
X128510000Y-131539999D01*
X130210000Y-135659999D02*
X128510000Y-136959999D01*
%TO.C,J12*%
X151290000Y-106990000D02*
X151290000Y-115710000D01*
X156710000Y-106990000D02*
X156710000Y-115710000D01*
X155410000Y-105290000D02*
X152590000Y-105290000D01*
X156710000Y-115710000D02*
X151290000Y-115710000D01*
X152590000Y-105290000D02*
X151290000Y-106990000D01*
X155410000Y-105290000D02*
X156710000Y-106990000D01*
%TO.C,J3*%
X128510000Y-146460000D02*
X119790000Y-146460000D01*
X119790000Y-146460000D02*
X119790000Y-141040000D01*
X130210000Y-142340000D02*
X128510000Y-141040000D01*
X130210000Y-145160000D02*
X128510000Y-146460000D01*
X128510000Y-141040000D02*
X119790000Y-141040000D01*
X130210000Y-145160000D02*
X130210000Y-142340000D01*
%TO.C,J6*%
X156710000Y-102460000D02*
X151290000Y-102460000D01*
X152590000Y-92040000D02*
X151290000Y-93740000D01*
X155410000Y-92040000D02*
X156710000Y-93740000D01*
X151290000Y-93740000D02*
X151290000Y-102460000D01*
X156710000Y-93740000D02*
X156710000Y-102460000D01*
X155410000Y-92040000D02*
X152590000Y-92040000D01*
%TO.C,R7*%
X132842224Y-86227500D02*
X132332776Y-86227500D01*
X132842224Y-87272500D02*
X132332776Y-87272500D01*
%TO.C,J1*%
X91810000Y-135160000D02*
X91810000Y-127540000D01*
X87690000Y-135160000D02*
X91810000Y-135160000D01*
X86690000Y-134160000D02*
X87690000Y-135160000D01*
X86690000Y-127540000D02*
X86690000Y-134160000D01*
X86390000Y-127240000D02*
X86390000Y-129650000D01*
X88800000Y-127240000D02*
X86390000Y-127240000D01*
X91810000Y-127540000D02*
X86690000Y-127540000D01*
%TO.C,J9*%
X155510000Y-146460000D02*
X146790000Y-146460000D01*
X157210000Y-145160000D02*
X157210000Y-142340000D01*
X157210000Y-142340000D02*
X155510000Y-141040000D01*
X146790000Y-146460000D02*
X146790000Y-141040000D01*
X155510000Y-141040000D02*
X146790000Y-141040000D01*
X157210000Y-145160000D02*
X155510000Y-146460000D01*
%TO.C,J7*%
X164910000Y-92040000D02*
X162090000Y-92040000D01*
X166210000Y-102460000D02*
X160790000Y-102460000D01*
X160790000Y-93740000D02*
X160790000Y-102460000D01*
X162090000Y-92040000D02*
X160790000Y-93740000D01*
X164910000Y-92040000D02*
X166210000Y-93740000D01*
X166210000Y-93740000D02*
X166210000Y-102460000D01*
%TO.C,J4*%
X143710000Y-135660000D02*
X142010000Y-136960000D01*
X133290000Y-136960000D02*
X133290000Y-131540000D01*
X143710000Y-135660000D02*
X143710000Y-132840000D01*
X142010000Y-136960000D02*
X133290000Y-136960000D01*
X142010000Y-131540000D02*
X133290000Y-131540000D01*
X143710000Y-132840000D02*
X142010000Y-131540000D01*
%TO.C,F1*%
X99890000Y-74550000D02*
X96690000Y-74550000D01*
X96690000Y-70550000D02*
X99890000Y-70550000D01*
X106390000Y-76020000D02*
X106390000Y-69080000D01*
X90190000Y-69080000D02*
X90190000Y-76020000D01*
X99040000Y-72550000D02*
X97540000Y-72550000D01*
X106390000Y-69080000D02*
X90190000Y-69080000D01*
X90190000Y-76020000D02*
X106390000Y-76020000D01*
%TO.C,J10*%
X156710000Y-120240000D02*
X156710000Y-128960000D01*
X156710000Y-128960000D02*
X151290000Y-128960000D01*
X151290000Y-120240000D02*
X151290000Y-128960000D01*
X155410000Y-118540000D02*
X156710000Y-120240000D01*
X155410000Y-118540000D02*
X152590000Y-118540000D01*
X152590000Y-118540000D02*
X151290000Y-120240000D01*
%TO.C,J11*%
X166210000Y-120240000D02*
X166210000Y-128960000D01*
X164910000Y-118540000D02*
X166210000Y-120240000D01*
X160790000Y-120240000D02*
X160790000Y-128960000D01*
X164910000Y-118540000D02*
X162090000Y-118540000D01*
X166210000Y-128960000D02*
X160790000Y-128960000D01*
X162090000Y-118540000D02*
X160790000Y-120240000D01*
%TO.C,J5*%
X143710000Y-142340001D02*
X142010000Y-141040001D01*
X142010000Y-141040001D02*
X133290000Y-141040001D01*
X133290000Y-146460001D02*
X133290000Y-141040001D01*
X143710000Y-145160001D02*
X143710000Y-142340001D01*
X143710000Y-145160001D02*
X142010000Y-146460001D01*
X142010000Y-146460001D02*
X133290000Y-146460001D01*
%TO.C,Q1*%
X128220000Y-101970000D02*
X129320000Y-101970000D01*
X126720000Y-108600000D02*
X128220000Y-108600000D01*
X128220000Y-108600000D02*
X128220000Y-108330000D01*
X128220000Y-108330000D02*
X131050000Y-108330000D01*
X128220000Y-101700000D02*
X128220000Y-101970000D01*
X126720000Y-101700000D02*
X128220000Y-101700000D01*
%TO.C,J13*%
X160790000Y-106990000D02*
X160790000Y-115710000D01*
X162090000Y-105290000D02*
X160790000Y-106990000D01*
X164910000Y-105290000D02*
X166210000Y-106990000D01*
X166210000Y-106990000D02*
X166210000Y-115710000D01*
X166210000Y-115710000D02*
X160790000Y-115710000D01*
X164910000Y-105290000D02*
X162090000Y-105290000D01*
%TO.C,SW1*%
X97500000Y-126428349D02*
X112500000Y-126428349D01*
X112500000Y-126428349D02*
X112500000Y-147428349D01*
X112500000Y-147428349D02*
X97500000Y-147428349D01*
X97500000Y-147428349D02*
X97500000Y-126428349D01*
D15*
X105530000Y-130928349D02*
G75*
G03*
X105530000Y-130928349I-530000J0D01*
G01*
D14*
%TO.C,H1*%
X124250000Y-72250000D02*
G75*
G03*
X124250000Y-72250000I-2250000J0D01*
G01*
%TO.C,Q4*%
X133570000Y-104180000D02*
X133570000Y-103080000D01*
X133300000Y-104180000D02*
X133570000Y-104180000D01*
X140200000Y-104180000D02*
X139930000Y-104180000D01*
X139930000Y-104180000D02*
X139930000Y-101350000D01*
X133300000Y-105680000D02*
X133300000Y-104180000D01*
X140200000Y-105680000D02*
X140200000Y-104180000D01*
%TO.C,J8*%
X146790000Y-136960000D02*
X146790000Y-131540000D01*
X157210000Y-135660000D02*
X155510000Y-136960000D01*
X155510000Y-136960000D02*
X146790000Y-136960000D01*
X157210000Y-132840000D02*
X155510000Y-131540000D01*
X155510000Y-131540000D02*
X146790000Y-131540000D01*
X157210000Y-135660000D02*
X157210000Y-132840000D01*
%TO.C,MES1*%
X90000000Y-115050000D02*
X90000000Y-119050000D01*
X93000000Y-123050000D02*
X110000000Y-123050000D01*
X120000000Y-119050000D02*
X120000000Y-115050000D01*
X93000000Y-115050000D02*
X90000000Y-115050000D01*
X115000000Y-125050000D02*
X115000000Y-123050000D01*
X117000000Y-119050000D02*
X120000000Y-119050000D01*
X110000000Y-125050000D02*
X115000000Y-125050000D01*
X115000000Y-123050000D02*
X117000000Y-123050000D01*
X117000000Y-111050000D02*
X93000000Y-111050000D01*
X120000000Y-115050000D02*
X117000000Y-115050000D01*
X117000000Y-123050000D02*
X117000000Y-119050000D01*
X117000000Y-115050000D02*
X117000000Y-111050000D01*
X93000000Y-111050000D02*
X93000000Y-115050000D01*
X110000000Y-123050000D02*
X110000000Y-125050000D01*
X93000000Y-119050000D02*
X93000000Y-123050000D01*
X90000000Y-119050000D02*
X93000000Y-119050000D01*
%TO.C,H2*%
X113250000Y-72250000D02*
G75*
G03*
X113250000Y-72250000I-2250000J0D01*
G01*
%TO.C,Q2*%
X130180000Y-96620000D02*
X130180000Y-97720000D01*
X123820000Y-96620000D02*
X123820000Y-99450000D01*
X123550000Y-96620000D02*
X123820000Y-96620000D01*
X130450000Y-95120000D02*
X130450000Y-96620000D01*
X123550000Y-95120000D02*
X123550000Y-96620000D01*
X130450000Y-96620000D02*
X130180000Y-96620000D01*
%TO.C,Q3*%
X135530000Y-98850000D02*
X135530000Y-98580000D01*
X137030000Y-91950000D02*
X135530000Y-91950000D01*
X137030000Y-98850000D02*
X135530000Y-98850000D01*
X135530000Y-92220000D02*
X132700000Y-92220000D01*
X135530000Y-91950000D02*
X135530000Y-92220000D01*
X135530000Y-98580000D02*
X134430000Y-98580000D01*
%TO.C,C2*%
X134713000Y-63099000D02*
X164287000Y-63099000D01*
X133458000Y-65418000D02*
X147260000Y-65418000D01*
X135970000Y-61379000D02*
X163030000Y-61379000D01*
X133235000Y-65938000D02*
X147260000Y-65938000D01*
X138434000Y-58939000D02*
X160566000Y-58939000D01*
X132755000Y-67258000D02*
X147260000Y-67258000D01*
X132901000Y-66818000D02*
X147260000Y-66818000D01*
X132742000Y-67298000D02*
X147260000Y-67298000D01*
X151740000Y-66178000D02*
X165861000Y-66178000D01*
X133643000Y-65018000D02*
X165357000Y-65018000D01*
X133902000Y-64498000D02*
X165098000Y-64498000D01*
X134611000Y-63259000D02*
X164389000Y-63259000D01*
X134072000Y-64179000D02*
X164928000Y-64179000D01*
X133154000Y-66138000D02*
X147260000Y-66138000D01*
X151740000Y-67458000D02*
X166308000Y-67458000D01*
X132068000Y-70338000D02*
X166932000Y-70338000D01*
X131933000Y-71939000D02*
X167067000Y-71939000D01*
X132888000Y-66858000D02*
X147260000Y-66858000D01*
X132150000Y-69778000D02*
X147260000Y-69778000D01*
X151740000Y-66458000D02*
X165969000Y-66458000D01*
X136904000Y-60339000D02*
X162096000Y-60339000D01*
X134923000Y-62779000D02*
X164077000Y-62779000D01*
X143980000Y-55899000D02*
X155020000Y-55899000D01*
X151740000Y-68978000D02*
X166700000Y-68978000D01*
X133285000Y-65818000D02*
X147260000Y-65818000D01*
X131934000Y-71898000D02*
X167066000Y-71898000D01*
X135005000Y-62659000D02*
X163995000Y-62659000D01*
X151740000Y-67978000D02*
X166459000Y-67978000D01*
X133512000Y-65298000D02*
X165488000Y-65298000D01*
X151740000Y-69378000D02*
X166780000Y-69378000D01*
X135617000Y-61819000D02*
X163383000Y-61819000D01*
X151740000Y-66498000D02*
X165984000Y-66498000D01*
X135586000Y-61859000D02*
X163414000Y-61859000D01*
X132806000Y-67098000D02*
X147260000Y-67098000D01*
X137559000Y-59699000D02*
X161441000Y-59699000D01*
X139000000Y-58499000D02*
X160000000Y-58499000D01*
X151740000Y-66858000D02*
X166112000Y-66858000D01*
X131940000Y-71778000D02*
X167060000Y-71778000D01*
X132267000Y-69138000D02*
X147260000Y-69138000D01*
X151740000Y-68858000D02*
X166675000Y-68858000D01*
X151740000Y-69098000D02*
X166725000Y-69098000D01*
X133370000Y-65618000D02*
X147260000Y-65618000D01*
X134463000Y-63499000D02*
X164537000Y-63499000D01*
X131922000Y-72339000D02*
X167078000Y-72339000D01*
X147665000Y-55099000D02*
X151335000Y-55099000D01*
X133387000Y-65578000D02*
X147260000Y-65578000D01*
X136312000Y-60979000D02*
X162688000Y-60979000D01*
X151740000Y-68378000D02*
X166563000Y-68378000D01*
X146764000Y-55219000D02*
X152236000Y-55219000D01*
X142425000Y-56499000D02*
X156575000Y-56499000D01*
X133219000Y-65978000D02*
X147260000Y-65978000D01*
X133092000Y-66298000D02*
X147260000Y-66298000D01*
X151740000Y-67418000D02*
X166296000Y-67418000D01*
X151740000Y-68778000D02*
X166657000Y-68778000D01*
X135201000Y-62379000D02*
X163799000Y-62379000D01*
X132520000Y-68058000D02*
X147260000Y-68058000D01*
X133840000Y-64618000D02*
X165160000Y-64618000D01*
X151740000Y-67218000D02*
X166233000Y-67218000D01*
X136637000Y-60619000D02*
X162363000Y-60619000D01*
X132078000Y-70258000D02*
X166922000Y-70258000D01*
X133567000Y-65178000D02*
X165433000Y-65178000D01*
X132930000Y-66738000D02*
X147260000Y-66738000D01*
X151740000Y-66778000D02*
X166085000Y-66778000D01*
X151740000Y-66538000D02*
X165998000Y-66538000D01*
X132198000Y-69498000D02*
X147260000Y-69498000D01*
X134687000Y-63139000D02*
X164313000Y-63139000D01*
X140040000Y-57779000D02*
X158960000Y-57779000D01*
X139978000Y-57819000D02*
X159022000Y-57819000D01*
X132704000Y-67418000D02*
X147260000Y-67418000D01*
X145900000Y-55379000D02*
X153100000Y-55379000D01*
X135172000Y-62419000D02*
X163828000Y-62419000D01*
X138635000Y-58779000D02*
X160365000Y-58779000D01*
X132944000Y-66698000D02*
X147260000Y-66698000D01*
X138685000Y-58739000D02*
X160315000Y-58739000D01*
X132427000Y-68418000D02*
X147260000Y-68418000D01*
X131936000Y-71858000D02*
X167064000Y-71858000D01*
X141822000Y-56779000D02*
X157178000Y-56779000D01*
X134817000Y-62939000D02*
X164183000Y-62939000D01*
X135904000Y-61459000D02*
X163096000Y-61459000D01*
X143411000Y-56099000D02*
X155589000Y-56099000D01*
X131966000Y-71338000D02*
X167034000Y-71338000D01*
X131985000Y-71098000D02*
X167015000Y-71098000D01*
X133530000Y-65258000D02*
X165470000Y-65258000D01*
X135435000Y-62059000D02*
X163565000Y-62059000D01*
X136173000Y-61139000D02*
X162827000Y-61139000D01*
X132191000Y-69538000D02*
X147260000Y-69538000D01*
X137959000Y-59339000D02*
X161041000Y-59339000D01*
X151740000Y-69258000D02*
X166757000Y-69258000D01*
X134977000Y-62699000D02*
X164023000Y-62699000D01*
X131928000Y-72059000D02*
X167072000Y-72059000D01*
X133549000Y-65218000D02*
X165451000Y-65218000D01*
X132767000Y-67218000D02*
X147260000Y-67218000D01*
X131923000Y-72259000D02*
X167077000Y-72259000D01*
X133186000Y-66058000D02*
X147260000Y-66058000D01*
X151740000Y-67738000D02*
X166391000Y-67738000D01*
X151740000Y-68178000D02*
X166512000Y-68178000D01*
X136788000Y-60459000D02*
X162212000Y-60459000D01*
X134206000Y-63939000D02*
X164794000Y-63939000D01*
X151740000Y-65858000D02*
X165732000Y-65858000D01*
X151740000Y-69698000D02*
X166837000Y-69698000D01*
X140560000Y-57459000D02*
X158440000Y-57459000D01*
X133318000Y-65738000D02*
X147260000Y-65738000D01*
X151740000Y-68458000D02*
X166582000Y-68458000D01*
X142800000Y-56339000D02*
X156200000Y-56339000D01*
X139053000Y-58459000D02*
X159947000Y-58459000D01*
X135060000Y-62579000D02*
X163940000Y-62579000D01*
X140230000Y-57659000D02*
X158770000Y-57659000D01*
X151740000Y-67578000D02*
X166344000Y-67578000D01*
X133016000Y-66498000D02*
X147260000Y-66498000D01*
X132283000Y-69058000D02*
X147260000Y-69058000D01*
X134274000Y-63819000D02*
X164726000Y-63819000D01*
X151740000Y-67658000D02*
X166368000Y-67658000D01*
X134512000Y-63419000D02*
X164488000Y-63419000D01*
X151740000Y-69618000D02*
X166823000Y-69618000D01*
X132057000Y-70418000D02*
X166943000Y-70418000D01*
X144487000Y-55739000D02*
X154513000Y-55739000D01*
X131920000Y-72499000D02*
X167080000Y-72499000D01*
X151740000Y-66138000D02*
X165846000Y-66138000D01*
X139735000Y-57979000D02*
X159265000Y-57979000D01*
X131969000Y-71298000D02*
X167031000Y-71298000D01*
X140166000Y-57699000D02*
X158834000Y-57699000D01*
X151740000Y-69658000D02*
X166830000Y-69658000D01*
X142610000Y-56419000D02*
X156390000Y-56419000D01*
X132213000Y-69418000D02*
X147260000Y-69418000D01*
X132259000Y-69178000D02*
X147260000Y-69178000D01*
X138288000Y-59059000D02*
X160712000Y-59059000D01*
X134183000Y-63979000D02*
X164817000Y-63979000D01*
X151740000Y-67498000D02*
X166320000Y-67498000D01*
X132101000Y-70098000D02*
X166899000Y-70098000D01*
X142897000Y-56299000D02*
X156103000Y-56299000D01*
X132291000Y-69018000D02*
X147260000Y-69018000D01*
X136347000Y-60939000D02*
X162653000Y-60939000D01*
X132499000Y-68138000D02*
X147260000Y-68138000D01*
X131950000Y-71578000D02*
X167050000Y-71578000D01*
X151740000Y-65978000D02*
X165781000Y-65978000D01*
X137101000Y-60139000D02*
X161899000Y-60139000D01*
X135229000Y-62339000D02*
X163771000Y-62339000D01*
X135743000Y-61659000D02*
X163257000Y-61659000D01*
X133760000Y-64778000D02*
X165240000Y-64778000D01*
X132008000Y-70858000D02*
X166992000Y-70858000D01*
X135032000Y-62619000D02*
X163968000Y-62619000D01*
X136003000Y-61339000D02*
X162997000Y-61339000D01*
X139500000Y-58139000D02*
X159500000Y-58139000D01*
X135495000Y-61979000D02*
X163505000Y-61979000D01*
X132137000Y-69858000D02*
X147260000Y-69858000D01*
X135872000Y-61499000D02*
X163128000Y-61499000D01*
X151740000Y-66378000D02*
X165939000Y-66378000D01*
X132251000Y-69218000D02*
X147260000Y-69218000D01*
X151740000Y-68618000D02*
X166620000Y-68618000D01*
X134008000Y-64299000D02*
X164992000Y-64299000D01*
X132038000Y-70578000D02*
X166962000Y-70578000D01*
X132095000Y-70138000D02*
X166905000Y-70138000D01*
X132915000Y-66778000D02*
X147260000Y-66778000D01*
X141988000Y-56699000D02*
X157012000Y-56699000D01*
X137646000Y-59619000D02*
X161354000Y-59619000D01*
X148087000Y-55059000D02*
X150913000Y-55059000D01*
X151740000Y-65898000D02*
X165749000Y-65898000D01*
X133202000Y-66018000D02*
X147260000Y-66018000D01*
X141197000Y-57099000D02*
X157803000Y-57099000D01*
X132820000Y-67058000D02*
X147260000Y-67058000D01*
X137264000Y-59979000D02*
X161736000Y-59979000D01*
X151740000Y-69218000D02*
X166749000Y-69218000D01*
X134488000Y-63459000D02*
X164512000Y-63459000D01*
X136675000Y-60579000D02*
X162325000Y-60579000D01*
X136750000Y-60499000D02*
X162250000Y-60499000D01*
X133139000Y-66178000D02*
X147260000Y-66178000D01*
X132575000Y-67858000D02*
X147260000Y-67858000D01*
X132447000Y-68338000D02*
X147260000Y-68338000D01*
X138145000Y-59179000D02*
X160855000Y-59179000D01*
X135807000Y-61579000D02*
X163193000Y-61579000D01*
X139558000Y-58099000D02*
X159442000Y-58099000D01*
X131963000Y-71378000D02*
X167037000Y-71378000D01*
X131953000Y-71538000D02*
X167047000Y-71538000D01*
X131920000Y-72579000D02*
X167080000Y-72579000D01*
X133923000Y-64458000D02*
X165077000Y-64458000D01*
X132243000Y-69258000D02*
X147260000Y-69258000D01*
X132729000Y-67338000D02*
X147260000Y-67338000D01*
X133301000Y-65778000D02*
X147260000Y-65778000D01*
X151740000Y-66658000D02*
X166042000Y-66658000D01*
X138193000Y-59139000D02*
X160807000Y-59139000D01*
X151740000Y-65938000D02*
X165765000Y-65938000D01*
X131922000Y-72299000D02*
X167078000Y-72299000D01*
X133268000Y-65858000D02*
X147260000Y-65858000D01*
X137182000Y-60059000D02*
X161818000Y-60059000D01*
X132235000Y-69298000D02*
X147260000Y-69298000D01*
X131978000Y-71178000D02*
X167022000Y-71178000D01*
X132043000Y-70538000D02*
X166957000Y-70538000D01*
X132586000Y-67818000D02*
X147260000Y-67818000D01*
X151740000Y-68498000D02*
X166592000Y-68498000D01*
X142247000Y-56579000D02*
X156753000Y-56579000D01*
X151740000Y-66618000D02*
X166027000Y-66618000D01*
X133123000Y-66218000D02*
X147260000Y-66218000D01*
X132004000Y-70898000D02*
X166996000Y-70898000D01*
X145211000Y-55539000D02*
X153789000Y-55539000D01*
X144355000Y-55779000D02*
X154645000Y-55779000D01*
X132205000Y-69458000D02*
X147260000Y-69458000D01*
X132563000Y-67898000D02*
X147260000Y-67898000D01*
X133586000Y-65138000D02*
X165414000Y-65138000D01*
X142159000Y-56619000D02*
X156841000Y-56619000D01*
X137305000Y-59939000D02*
X161695000Y-59939000D01*
X132780000Y-67178000D02*
X147260000Y-67178000D01*
X136527000Y-60739000D02*
X162473000Y-60739000D01*
X131960000Y-71418000D02*
X167040000Y-71418000D01*
X140627000Y-57419000D02*
X158373000Y-57419000D01*
X134636000Y-63219000D02*
X164364000Y-63219000D01*
X132597000Y-67778000D02*
X147260000Y-67778000D01*
X151740000Y-68738000D02*
X166648000Y-68738000D01*
X135711000Y-61699000D02*
X163289000Y-61699000D01*
X133944000Y-64419000D02*
X165056000Y-64419000D01*
X151740000Y-69858000D02*
X166863000Y-69858000D01*
X131944000Y-71698000D02*
X167056000Y-71698000D01*
X132541000Y-67978000D02*
X147260000Y-67978000D01*
X151740000Y-66978000D02*
X166153000Y-66978000D01*
X137868000Y-59419000D02*
X161132000Y-59419000D01*
X132112000Y-70018000D02*
X166888000Y-70018000D01*
X151740000Y-68138000D02*
X166501000Y-68138000D01*
X151740000Y-67338000D02*
X166271000Y-67338000D01*
X136383000Y-60899000D02*
X162617000Y-60899000D01*
X131955000Y-71498000D02*
X167045000Y-71498000D01*
X131920000Y-72619000D02*
X167080000Y-72619000D01*
X133965000Y-64379000D02*
X165035000Y-64379000D01*
X139625000Y-91473002D02*
X139625000Y-87973002D01*
X151740000Y-66018000D02*
X165798000Y-66018000D01*
X132717000Y-67378000D02*
X147260000Y-67378000D01*
X142996000Y-56259000D02*
X156004000Y-56259000D01*
X134738000Y-63059000D02*
X164262000Y-63059000D01*
X136943000Y-60299000D02*
X162057000Y-60299000D01*
X151740000Y-68898000D02*
X166683000Y-68898000D01*
X133031000Y-66458000D02*
X147260000Y-66458000D01*
X132033000Y-70618000D02*
X166967000Y-70618000D01*
X138005000Y-59299000D02*
X160995000Y-59299000D01*
X151740000Y-67098000D02*
X166194000Y-67098000D01*
X137516000Y-59739000D02*
X161484000Y-59739000D01*
X135465000Y-62019000D02*
X163535000Y-62019000D01*
X133422000Y-65498000D02*
X147260000Y-65498000D01*
X131920000Y-72539000D02*
X167080000Y-72539000D01*
X151740000Y-66938000D02*
X166140000Y-66938000D01*
X133624000Y-65058000D02*
X165376000Y-65058000D01*
X142704000Y-56379000D02*
X156296000Y-56379000D01*
X132620000Y-67698000D02*
X147260000Y-67698000D01*
X132352000Y-68738000D02*
X147260000Y-68738000D01*
X151740000Y-67138000D02*
X166207000Y-67138000D01*
X133780000Y-64738000D02*
X165220000Y-64738000D01*
X132408000Y-68498000D02*
X147260000Y-68498000D01*
X136104000Y-61219000D02*
X162896000Y-61219000D01*
X132973000Y-66618000D02*
X147260000Y-66618000D01*
X137389000Y-59859000D02*
X161611000Y-59859000D01*
X145372000Y-55499000D02*
X153628000Y-55499000D01*
X139217000Y-58339000D02*
X159783000Y-58339000D01*
X137913000Y-59379000D02*
X161087000Y-59379000D01*
X133605000Y-65098000D02*
X165395000Y-65098000D01*
X131930000Y-72019000D02*
X167070000Y-72019000D01*
X141272000Y-57059000D02*
X157728000Y-57059000D01*
X151740000Y-66818000D02*
X166099000Y-66818000D01*
X132847000Y-66978000D02*
X147260000Y-66978000D01*
X151740000Y-69138000D02*
X166733000Y-69138000D01*
X131938000Y-71818000D02*
X167062000Y-71818000D01*
X151740000Y-65578000D02*
X165613000Y-65578000D01*
X151740000Y-66738000D02*
X166070000Y-66738000D01*
X132163000Y-69698000D02*
X147260000Y-69698000D01*
X151740000Y-68098000D02*
X166491000Y-68098000D01*
X139273000Y-58299000D02*
X159727000Y-58299000D01*
X151740000Y-68018000D02*
X166469000Y-68018000D01*
X133800000Y-64698000D02*
X165200000Y-64698000D01*
X146302000Y-55299000D02*
X152698000Y-55299000D01*
X136277000Y-61019000D02*
X162723000Y-61019000D01*
X132029000Y-70658000D02*
X166971000Y-70658000D01*
X133662000Y-64978000D02*
X165338000Y-64978000D01*
X135649000Y-61779000D02*
X163351000Y-61779000D01*
X132170000Y-69658000D02*
X147260000Y-69658000D01*
X132125000Y-69938000D02*
X166875000Y-69938000D01*
X143861000Y-55939000D02*
X155139000Y-55939000D01*
X135556000Y-61899000D02*
X163444000Y-61899000D01*
X151740000Y-67058000D02*
X166180000Y-67058000D01*
X132418000Y-68458000D02*
X147260000Y-68458000D01*
X133440000Y-65458000D02*
X147260000Y-65458000D01*
X137141000Y-60099000D02*
X161859000Y-60099000D01*
X144102000Y-55859000D02*
X154898000Y-55859000D01*
X143520000Y-56059000D02*
X155480000Y-56059000D01*
X132177000Y-69618000D02*
X147260000Y-69618000D01*
X134094000Y-64139000D02*
X164906000Y-64139000D01*
X137602000Y-59659000D02*
X161398000Y-59659000D01*
X131996000Y-70978000D02*
X167004000Y-70978000D01*
X151740000Y-67938000D02*
X166448000Y-67938000D01*
X133820000Y-64658000D02*
X165180000Y-64658000D01*
X134896000Y-62819000D02*
X164104000Y-62819000D01*
X140103000Y-57739000D02*
X158897000Y-57739000D01*
X151740000Y-69578000D02*
X166816000Y-69578000D01*
X131921000Y-72419000D02*
X167079000Y-72419000D01*
X133046000Y-66418000D02*
X147260000Y-66418000D01*
X134251000Y-63859000D02*
X164749000Y-63859000D01*
X140295000Y-57619000D02*
X158705000Y-57619000D01*
X132668000Y-67538000D02*
X147260000Y-67538000D01*
X132361000Y-68698000D02*
X147260000Y-68698000D01*
X151740000Y-67618000D02*
X166356000Y-67618000D01*
X134161000Y-64019000D02*
X164839000Y-64019000D01*
X132457000Y-68298000D02*
X147260000Y-68298000D01*
X135680000Y-61739000D02*
X163320000Y-61739000D01*
X132048000Y-70498000D02*
X166952000Y-70498000D01*
X131972000Y-71258000D02*
X167028000Y-71258000D01*
X134415000Y-63579000D02*
X164585000Y-63579000D01*
X151740000Y-68938000D02*
X166692000Y-68938000D01*
X151740000Y-65538000D02*
X165595000Y-65538000D01*
X136826000Y-60419000D02*
X162174000Y-60419000D01*
X133861000Y-64578000D02*
X165139000Y-64578000D01*
X151740000Y-69418000D02*
X166787000Y-69418000D01*
X137223000Y-60019000D02*
X161777000Y-60019000D01*
X132275000Y-69098000D02*
X147260000Y-69098000D01*
X131989000Y-71058000D02*
X167011000Y-71058000D01*
X132343000Y-68778000D02*
X147260000Y-68778000D01*
X139385000Y-58219000D02*
X159615000Y-58219000D01*
X137473000Y-59779000D02*
X161527000Y-59779000D01*
X139616000Y-58059000D02*
X159384000Y-58059000D01*
X143305000Y-56139000D02*
X155695000Y-56139000D01*
X151740000Y-66578000D02*
X166013000Y-66578000D01*
X134297000Y-63779000D02*
X164703000Y-63779000D01*
X151740000Y-68658000D02*
X166630000Y-68658000D01*
X131927000Y-72099000D02*
X167073000Y-72099000D01*
X136037000Y-61299000D02*
X162963000Y-61299000D01*
X151740000Y-65658000D02*
X165648000Y-65658000D01*
X151740000Y-68578000D02*
X166611000Y-68578000D01*
X132488000Y-68178000D02*
X147260000Y-68178000D01*
X142073000Y-56659000D02*
X156927000Y-56659000D01*
X135345000Y-62179000D02*
X163655000Y-62179000D01*
X131924000Y-72219000D02*
X167076000Y-72219000D01*
X144762000Y-55659000D02*
X154238000Y-55659000D01*
X135775000Y-61619000D02*
X163225000Y-61619000D01*
X140765000Y-57339000D02*
X158235000Y-57339000D01*
X134537000Y-63379000D02*
X164463000Y-63379000D01*
X133986000Y-64339000D02*
X165014000Y-64339000D01*
X131925000Y-72179000D02*
X167075000Y-72179000D01*
X131926000Y-72139000D02*
X167074000Y-72139000D01*
X132380000Y-68618000D02*
X147260000Y-68618000D01*
X134391000Y-63619000D02*
X164609000Y-63619000D01*
X134368000Y-63659000D02*
X164632000Y-63659000D01*
X143097000Y-56219000D02*
X155903000Y-56219000D01*
X134321000Y-63739000D02*
X164679000Y-63739000D01*
X134439000Y-63539000D02*
X164561000Y-63539000D01*
X136138000Y-61179000D02*
X162862000Y-61179000D01*
X136070000Y-61259000D02*
X162930000Y-61259000D01*
X151740000Y-66258000D02*
X165893000Y-66258000D01*
X132073000Y-70298000D02*
X166927000Y-70298000D01*
X151740000Y-67298000D02*
X166258000Y-67298000D01*
X151740000Y-68418000D02*
X166573000Y-68418000D01*
X137778000Y-59499000D02*
X161222000Y-59499000D01*
X131958000Y-71458000D02*
X167042000Y-71458000D01*
X137875000Y-89723002D02*
X141375000Y-89723002D01*
X151740000Y-66698000D02*
X166056000Y-66698000D01*
X132632000Y-67658000D02*
X147260000Y-67658000D01*
X136242000Y-61059000D02*
X162758000Y-61059000D01*
X132016000Y-70778000D02*
X166984000Y-70778000D01*
X136207000Y-61099000D02*
X162793000Y-61099000D01*
X137061000Y-60179000D02*
X161939000Y-60179000D01*
X151740000Y-67258000D02*
X166245000Y-67258000D01*
X151740000Y-65418000D02*
X165542000Y-65418000D01*
X143200000Y-56179000D02*
X155800000Y-56179000D01*
X135839000Y-61539000D02*
X163161000Y-61539000D01*
X135088000Y-62539000D02*
X163912000Y-62539000D01*
X133476000Y-65378000D02*
X165524000Y-65378000D01*
X140906000Y-57259000D02*
X158094000Y-57259000D01*
X131920000Y-72459000D02*
X167080000Y-72459000D01*
X146524000Y-55259000D02*
X152476000Y-55259000D01*
X135375000Y-62139000D02*
X163625000Y-62139000D01*
X137431000Y-59819000D02*
X161569000Y-59819000D01*
X151740000Y-68818000D02*
X166666000Y-68818000D01*
X139329000Y-58259000D02*
X159671000Y-58259000D01*
X151740000Y-66298000D02*
X165908000Y-66298000D01*
X133077000Y-66338000D02*
X147260000Y-66338000D01*
X134790000Y-62979000D02*
X164210000Y-62979000D01*
X143745000Y-55979000D02*
X155255000Y-55979000D01*
X132692000Y-67458000D02*
X147260000Y-67458000D01*
X132370000Y-68658000D02*
X147260000Y-68658000D01*
X133720000Y-64858000D02*
X165280000Y-64858000D01*
X132052000Y-70458000D02*
X166948000Y-70458000D01*
X135258000Y-62299000D02*
X163742000Y-62299000D01*
X132227000Y-69338000D02*
X147260000Y-69338000D01*
X151740000Y-66898000D02*
X166126000Y-66898000D01*
X151740000Y-69178000D02*
X166741000Y-69178000D01*
X136712000Y-60539000D02*
X162288000Y-60539000D01*
X132609000Y-67738000D02*
X147260000Y-67738000D01*
X151740000Y-67178000D02*
X166220000Y-67178000D01*
X133335000Y-65698000D02*
X147260000Y-65698000D01*
X151740000Y-68058000D02*
X166480000Y-68058000D01*
X131948000Y-71618000D02*
X167052000Y-71618000D01*
X137021000Y-60219000D02*
X161979000Y-60219000D01*
X151740000Y-69498000D02*
X166802000Y-69498000D01*
X132874000Y-66898000D02*
X147260000Y-66898000D01*
X133061000Y-66378000D02*
X147260000Y-66378000D01*
X135116000Y-62499000D02*
X163884000Y-62499000D01*
X136865000Y-60379000D02*
X162135000Y-60379000D01*
X141123000Y-57139000D02*
X157877000Y-57139000D01*
X136600000Y-60659000D02*
X162400000Y-60659000D01*
X151740000Y-66338000D02*
X165923000Y-66338000D01*
X148700000Y-55019000D02*
X150300000Y-55019000D01*
X140835000Y-57299000D02*
X158165000Y-57299000D01*
X135405000Y-62099000D02*
X163595000Y-62099000D01*
X132024000Y-70698000D02*
X166976000Y-70698000D01*
X132958000Y-66658000D02*
X147260000Y-66658000D01*
X132131000Y-69898000D02*
X166869000Y-69898000D01*
X139795000Y-57939000D02*
X159205000Y-57939000D01*
X132084000Y-70218000D02*
X166916000Y-70218000D01*
X134843000Y-62899000D02*
X164157000Y-62899000D01*
X132143000Y-69818000D02*
X147260000Y-69818000D01*
X144907000Y-55619000D02*
X154093000Y-55619000D01*
X138737000Y-58699000D02*
X160263000Y-58699000D01*
X151740000Y-66418000D02*
X165954000Y-66418000D01*
X132089000Y-70178000D02*
X166911000Y-70178000D01*
X138841000Y-58619000D02*
X160159000Y-58619000D01*
X139855000Y-57899000D02*
X159145000Y-57899000D01*
X138893000Y-58579000D02*
X160107000Y-58579000D01*
X132644000Y-67618000D02*
X147260000Y-67618000D01*
X151740000Y-67018000D02*
X166167000Y-67018000D01*
X151740000Y-69538000D02*
X166809000Y-69538000D01*
X151740000Y-65458000D02*
X165560000Y-65458000D01*
X147027000Y-55179000D02*
X151973000Y-55179000D01*
X134344000Y-63699000D02*
X164656000Y-63699000D01*
X133107000Y-66258000D02*
X147260000Y-66258000D01*
X132531000Y-68018000D02*
X147260000Y-68018000D01*
X136490000Y-60779000D02*
X162510000Y-60779000D01*
X132478000Y-68218000D02*
X147260000Y-68218000D01*
X151740000Y-65818000D02*
X165715000Y-65818000D01*
X143632000Y-56019000D02*
X155368000Y-56019000D01*
X136982000Y-60259000D02*
X162018000Y-60259000D01*
X132833000Y-67018000D02*
X147260000Y-67018000D01*
X139916000Y-57859000D02*
X159084000Y-57859000D01*
X140426000Y-57539000D02*
X158574000Y-57539000D01*
X132680000Y-67498000D02*
X147260000Y-67498000D01*
X133251000Y-65898000D02*
X147260000Y-65898000D01*
X151740000Y-68298000D02*
X166543000Y-68298000D01*
X151740000Y-68698000D02*
X166639000Y-68698000D01*
X134229000Y-63899000D02*
X164771000Y-63899000D01*
X151740000Y-69058000D02*
X166717000Y-69058000D01*
X151740000Y-69298000D02*
X166765000Y-69298000D01*
X133352000Y-65658000D02*
X147260000Y-65658000D01*
X137347000Y-59899000D02*
X161653000Y-59899000D01*
X151740000Y-65738000D02*
X165682000Y-65738000D01*
X151740000Y-65778000D02*
X165699000Y-65778000D01*
X135525000Y-61939000D02*
X163475000Y-61939000D01*
X141424000Y-56979000D02*
X157576000Y-56979000D01*
X151740000Y-69778000D02*
X166850000Y-69778000D01*
X133701000Y-64898000D02*
X165299000Y-64898000D01*
X141741000Y-56819000D02*
X157259000Y-56819000D01*
X138584000Y-58819000D02*
X160416000Y-58819000D01*
X131975000Y-71218000D02*
X167025000Y-71218000D01*
X139675000Y-58019000D02*
X159325000Y-58019000D01*
X135937000Y-61419000D02*
X163063000Y-61419000D01*
X133405000Y-65538000D02*
X147260000Y-65538000D01*
X140360000Y-57579000D02*
X158640000Y-57579000D01*
X137689000Y-59579000D02*
X161311000Y-59579000D01*
X132106000Y-70058000D02*
X166894000Y-70058000D01*
X131941000Y-71738000D02*
X167059000Y-71738000D01*
X145715000Y-55419000D02*
X153285000Y-55419000D01*
X141348000Y-57019000D02*
X157652000Y-57019000D01*
X140978000Y-57219000D02*
X158022000Y-57219000D01*
X138484000Y-58899000D02*
X160516000Y-58899000D01*
X151740000Y-67378000D02*
X166283000Y-67378000D01*
X151740000Y-65498000D02*
X165578000Y-65498000D01*
X138051000Y-59259000D02*
X160949000Y-59259000D01*
X139162000Y-58379000D02*
X159838000Y-58379000D01*
X133494000Y-65338000D02*
X165506000Y-65338000D01*
X151740000Y-67818000D02*
X166414000Y-67818000D01*
X134870000Y-62859000D02*
X164130000Y-62859000D01*
X132860000Y-66938000D02*
X147260000Y-66938000D01*
X132062000Y-70378000D02*
X166938000Y-70378000D01*
X136454000Y-60819000D02*
X162546000Y-60819000D01*
X132437000Y-68378000D02*
X147260000Y-68378000D01*
X135316000Y-62219000D02*
X163684000Y-62219000D01*
X151740000Y-69818000D02*
X166857000Y-69818000D01*
X134139000Y-64059000D02*
X164861000Y-64059000D01*
X131992000Y-71018000D02*
X167008000Y-71018000D01*
X132656000Y-67578000D02*
X147260000Y-67578000D01*
X139108000Y-58419000D02*
X159892000Y-58419000D01*
X151740000Y-69458000D02*
X166795000Y-69458000D01*
X139442000Y-58179000D02*
X159558000Y-58179000D01*
X132793000Y-67138000D02*
X147260000Y-67138000D01*
X131982000Y-71138000D02*
X167018000Y-71138000D01*
X142517000Y-56459000D02*
X156483000Y-56459000D01*
X135287000Y-62259000D02*
X163713000Y-62259000D01*
X131946000Y-71658000D02*
X167054000Y-71658000D01*
X151740000Y-68218000D02*
X166522000Y-68218000D01*
X133681000Y-64938000D02*
X165319000Y-64938000D01*
X135144000Y-62459000D02*
X163856000Y-62459000D01*
X134950000Y-62739000D02*
X164050000Y-62739000D01*
X151740000Y-68338000D02*
X166553000Y-68338000D01*
X138337000Y-59019000D02*
X160663000Y-59019000D01*
X134029000Y-64259000D02*
X164971000Y-64259000D01*
X133881000Y-64538000D02*
X165119000Y-64538000D01*
X141905000Y-56739000D02*
X157095000Y-56739000D01*
X133170000Y-66098000D02*
X147260000Y-66098000D01*
X132987000Y-66578000D02*
X147260000Y-66578000D01*
X151740000Y-65618000D02*
X165630000Y-65618000D01*
X134561000Y-63339000D02*
X164439000Y-63339000D01*
X134662000Y-63179000D02*
X164338000Y-63179000D01*
X151740000Y-67698000D02*
X166380000Y-67698000D01*
X151740000Y-69338000D02*
X166773000Y-69338000D01*
X136418000Y-60859000D02*
X162582000Y-60859000D01*
X132220000Y-69378000D02*
X147260000Y-69378000D01*
X144622000Y-55699000D02*
X154378000Y-55699000D01*
X132118000Y-69978000D02*
X166882000Y-69978000D01*
X138240000Y-59099000D02*
X160760000Y-59099000D01*
X141580000Y-56899000D02*
X157420000Y-56899000D01*
X151740000Y-67898000D02*
X166437000Y-67898000D01*
X138946000Y-58539000D02*
X160054000Y-58539000D01*
X137823000Y-59459000D02*
X161177000Y-59459000D01*
X141502000Y-56939000D02*
X157498000Y-56939000D01*
X138385000Y-58979000D02*
X160615000Y-58979000D01*
X132389000Y-68578000D02*
X147260000Y-68578000D01*
X151740000Y-69738000D02*
X166844000Y-69738000D01*
X132308000Y-68938000D02*
X147260000Y-68938000D01*
X132398000Y-68538000D02*
X147260000Y-68538000D01*
X136563000Y-60699000D02*
X162437000Y-60699000D01*
X132156000Y-69738000D02*
X147260000Y-69738000D01*
X137734000Y-59539000D02*
X161266000Y-59539000D01*
X132020000Y-70738000D02*
X166980000Y-70738000D01*
X147323000Y-55139000D02*
X151677000Y-55139000D01*
X131921000Y-72379000D02*
X167079000Y-72379000D01*
X138789000Y-58659000D02*
X160211000Y-58659000D01*
X142335000Y-56539000D02*
X156665000Y-56539000D01*
X132184000Y-69578000D02*
X147260000Y-69578000D01*
X146095000Y-55339000D02*
X152905000Y-55339000D01*
X145540000Y-55459000D02*
X153460000Y-55459000D01*
X140492000Y-57499000D02*
X158508000Y-57499000D01*
X140696000Y-57379000D02*
X158304000Y-57379000D01*
X134051000Y-64219000D02*
X164949000Y-64219000D01*
X141660000Y-56859000D02*
X157340000Y-56859000D01*
X151740000Y-68258000D02*
X166533000Y-68258000D01*
X138534000Y-58859000D02*
X160466000Y-58859000D01*
X133002000Y-66538000D02*
X147260000Y-66538000D01*
X131931000Y-71979000D02*
X167069000Y-71979000D01*
X132552000Y-67938000D02*
X147260000Y-67938000D01*
X151740000Y-69018000D02*
X166709000Y-69018000D01*
X151740000Y-66218000D02*
X165877000Y-66218000D01*
X151740000Y-67858000D02*
X166425000Y-67858000D01*
X141050000Y-57179000D02*
X157950000Y-57179000D01*
X132509000Y-68098000D02*
X147260000Y-68098000D01*
X144227000Y-55819000D02*
X154773000Y-55819000D01*
X132300000Y-68978000D02*
X147260000Y-68978000D01*
X151740000Y-65698000D02*
X165665000Y-65698000D01*
X132317000Y-68898000D02*
X147260000Y-68898000D01*
X132012000Y-70818000D02*
X166988000Y-70818000D01*
X132467000Y-68258000D02*
X147260000Y-68258000D01*
X151740000Y-67538000D02*
X166332000Y-67538000D01*
X145056000Y-55579000D02*
X153944000Y-55579000D01*
X132325000Y-68858000D02*
X147260000Y-68858000D01*
X133740000Y-64818000D02*
X165260000Y-64818000D01*
X151740000Y-68538000D02*
X166602000Y-68538000D01*
X132334000Y-68818000D02*
X147260000Y-68818000D01*
X151740000Y-67778000D02*
X166403000Y-67778000D01*
X151740000Y-66058000D02*
X165814000Y-66058000D01*
X134586000Y-63299000D02*
X164414000Y-63299000D01*
X132000000Y-70938000D02*
X167000000Y-70938000D01*
X134764000Y-63019000D02*
X164236000Y-63019000D01*
X151740000Y-66098000D02*
X165830000Y-66098000D01*
X138098000Y-59219000D02*
X160902000Y-59219000D01*
X134116000Y-64099000D02*
X164884000Y-64099000D01*
X167120000Y-72619000D02*
G75*
G03*
X167120000Y-72619000I-17620000J0D01*
G01*
%TD*%
%LPC*%
D16*
%TO.C,K1*%
X96250000Y-93750000D03*
X105750000Y-102150000D03*
X105750000Y-85350000D03*
D17*
X114150000Y-93750000D03*
X106150000Y-93750000D03*
%TD*%
D18*
%TO.C,J2*%
X127500000Y-134249999D03*
D19*
X122500000Y-134249999D03*
%TD*%
D18*
%TO.C,J12*%
X154000000Y-108000000D03*
D19*
X154000000Y-113000000D03*
%TD*%
D18*
%TO.C,J3*%
X127500000Y-143750000D03*
D19*
X122500000Y-143750000D03*
%TD*%
D18*
%TO.C,J6*%
X154000000Y-94750000D03*
D19*
X154000000Y-99750000D03*
%TD*%
D20*
%TO.C,R7*%
X133500000Y-86750000D03*
X131675000Y-86750000D03*
%TD*%
D21*
%TO.C,J1*%
X88600000Y-130100000D03*
D22*
X88600000Y-132600000D03*
%TD*%
D18*
%TO.C,J9*%
X154500000Y-143750000D03*
D19*
X149500000Y-143750000D03*
%TD*%
D18*
%TO.C,J7*%
X163500000Y-94750000D03*
D19*
X163500000Y-99750000D03*
%TD*%
D18*
%TO.C,J4*%
X141000000Y-134250000D03*
D19*
X136000000Y-134250000D03*
%TD*%
D23*
%TO.C,F1*%
X103250000Y-70850000D03*
X103250000Y-74250000D03*
X93330000Y-74250000D03*
X93330000Y-70850000D03*
%TD*%
D18*
%TO.C,J10*%
X154000000Y-121250000D03*
D19*
X154000000Y-126250000D03*
%TD*%
D18*
%TO.C,J11*%
X163500000Y-121250000D03*
D19*
X163500000Y-126250000D03*
%TD*%
D18*
%TO.C,J5*%
X141000000Y-143750001D03*
D19*
X136000000Y-143750001D03*
%TD*%
D24*
%TO.C,Q1*%
X129950000Y-107430000D03*
D25*
X123650000Y-105150000D03*
D24*
X129950000Y-102870000D03*
%TD*%
D18*
%TO.C,J13*%
X163500000Y-108000000D03*
D19*
X163500000Y-113000000D03*
%TD*%
D26*
%TO.C,SW1*%
X105000000Y-142928349D03*
X105000000Y-136928349D03*
%TD*%
D27*
%TO.C,H1*%
X122000000Y-72250000D03*
%TD*%
D28*
%TO.C,Q4*%
X139030000Y-102450000D03*
D29*
X136750000Y-108750000D03*
D28*
X134470000Y-102450000D03*
%TD*%
D18*
%TO.C,J8*%
X154500000Y-134250000D03*
D19*
X149500000Y-134250000D03*
%TD*%
D30*
%TO.C,MES1*%
X114000000Y-124050000D03*
X112000000Y-124035000D03*
%TD*%
D27*
%TO.C,H2*%
X111000000Y-72250000D03*
%TD*%
D28*
%TO.C,Q2*%
X124720000Y-98350000D03*
D29*
X127000000Y-92050000D03*
D28*
X129280000Y-98350000D03*
%TD*%
D24*
%TO.C,Q3*%
X133800000Y-93120000D03*
D25*
X140100000Y-95400000D03*
D24*
X133800000Y-97680000D03*
%TD*%
D31*
%TO.C,C2*%
X149500000Y-77619000D03*
D19*
X149500000Y-67619000D03*
%TD*%
M02*
