M48
; DRILL file {KiCad (6.0.11)} date Thu Feb 29 08:21:51 2024
; FORMAT={-:-/ absolute / inch / decimal}
; #@! TF.CreationDate,2024-02-29T08:21:51+09:00
; #@! TF.GenerationSoftware,Kicad,Pcbnew,(6.0.11)
; #@! TF.FileFunction,Plated,1,2,PTH
FMAT,2
INCH
; #@! TA.AperFunction,Plated,PTH,ViaDrill
T1C0.0118
; #@! TA.AperFunction,Plated,PTH,ViaDrill
T2C0.0236
; #@! TA.AperFunction,Plated,PTH,ComponentDrill
T3C0.0300
; #@! TA.AperFunction,Plated,PTH,ComponentDrill
T4C0.0335
; #@! TA.AperFunction,Plated,PTH,ComponentDrill
T5C0.0591
; #@! TA.AperFunction,Plated,PTH,ComponentDrill
T6C0.0701
; #@! TA.AperFunction,Plated,PTH,ComponentDrill
T7C0.0787
; #@! TA.AperFunction,Plated,PTH,ComponentDrill
T8C0.0984
; #@! TA.AperFunction,Plated,PTH,ComponentDrill
T9C0.1063
%
G90
G05
T1
X3.4055Y-2.5689
X3.4055Y-3.8484
X3.4154Y-2.4213
X3.4154Y-4.0157
X3.4154Y-4.1831
X3.4154Y-4.3701
X3.4154Y-4.5472
X3.4154Y-4.7146
X3.4154Y-4.8819
X3.4154Y-5.0787
X3.4252Y-5.2756
X3.435Y-2.1555
X3.435Y-5.4134
X3.4449Y-2.0669
X3.4449Y-2.2736
X3.4449Y-5.5413
X3.4449Y-5.6791
X3.4646Y-2.628
X3.4646Y-2.687
X3.4646Y-2.7461
X3.4646Y-2.8051
X3.4646Y-2.8642
X3.4646Y-2.9232
X3.4646Y-2.9823
X3.4646Y-3.0413
X3.4646Y-3.1004
X3.4646Y-3.1594
X3.4646Y-3.2185
X3.4646Y-3.2776
X3.4646Y-3.3366
X3.4646Y-3.3957
X3.4646Y-3.4547
X3.4646Y-3.5138
X3.4646Y-3.5728
X3.4646Y-3.6319
X3.4646Y-3.6909
X3.4646Y-3.75
X3.4646Y-3.8091
X3.4646Y-5.8071
X3.5236Y-2.628
X3.5236Y-2.687
X3.5236Y-2.7461
X3.5236Y-2.8051
X3.5236Y-2.8642
X3.5236Y-2.9232
X3.5236Y-2.9823
X3.5236Y-3.0413
X3.5236Y-3.1004
X3.5236Y-3.1594
X3.5236Y-3.2185
X3.5236Y-3.2776
X3.5236Y-3.3366
X3.5236Y-3.3957
X3.5236Y-3.4547
X3.5236Y-3.5138
X3.5236Y-3.5728
X3.5236Y-3.6319
X3.5236Y-3.6909
X3.5236Y-3.75
X3.5236Y-3.8091
X3.5236Y-4.1929
X3.5335Y-3.8681
X3.5335Y-4.0157
X3.5433Y-5.2953
X3.5433Y-5.3937
X3.5531Y-5.2559
X3.563Y-4.3307
X3.5728Y-2.0374
X3.5728Y-2.2736
X3.5728Y-4.5374
X3.5728Y-4.6752
X3.5728Y-5.0197
X3.5827Y-2.5591
X3.5827Y-2.628
X3.5827Y-2.687
X3.5827Y-2.7461
X3.5827Y-2.8051
X3.5827Y-2.8642
X3.5827Y-2.9232
X3.5827Y-2.9823
X3.5827Y-3.0413
X3.5827Y-3.1004
X3.5827Y-3.1594
X3.5827Y-3.2185
X3.5827Y-3.2776
X3.5827Y-3.3366
X3.5827Y-3.3957
X3.5827Y-3.4547
X3.5827Y-3.5138
X3.5827Y-3.5728
X3.5827Y-3.6319
X3.5827Y-3.6909
X3.5827Y-3.75
X3.5827Y-3.8091
X3.5827Y-4.4783
X3.5827Y-4.8524
X3.5827Y-5.5807
X3.5925Y-5.8268
X3.6319Y-3.937
X3.6319Y-4.0748
X3.6417Y-2.628
X3.6417Y-2.687
X3.6417Y-3.0413
X3.6417Y-3.1004
X3.6417Y-3.1594
X3.6417Y-3.2185
X3.6417Y-3.2776
X3.6417Y-3.3366
X3.6417Y-3.3957
X3.6417Y-3.4547
X3.6417Y-3.5138
X3.6417Y-3.5728
X3.6417Y-3.8091
X3.6417Y-4.4291
X3.6417Y-4.5276
X3.6417Y-4.685
X3.6516Y-4.8524
X3.6614Y-5.2756
X3.6614Y-5.4823
X3.6713Y-2.4016
X3.6909Y-2.1457
X3.6909Y-3.8583
X3.6909Y-5.6791
X3.7008Y-2.628
X3.7008Y-2.687
X3.7008Y-3.0413
X3.7008Y-3.1004
X3.7008Y-3.1594
X3.7008Y-3.2185
X3.7008Y-3.2776
X3.7008Y-3.3366
X3.7008Y-3.3957
X3.7008Y-3.4547
X3.7008Y-3.5138
X3.7008Y-3.5728
X3.7008Y-3.8091
X3.7008Y-4.3504
X3.7008Y-4.9902
X3.7008Y-5.1378
X3.7106Y-4.1732
X3.7402Y-3.9665
X3.7402Y-5.4035
X3.7402Y-5.8563
X3.75Y-2.0276
X3.7598Y-2.628
X3.7598Y-2.687
X3.7598Y-2.7461
X3.7598Y-2.8051
X3.7598Y-2.8642
X3.7598Y-2.9232
X3.7598Y-2.9823
X3.7598Y-3.0413
X3.7598Y-3.1004
X3.7598Y-3.1594
X3.7598Y-3.2185
X3.7598Y-3.2776
X3.7598Y-3.3366
X3.7598Y-3.3957
X3.7598Y-3.4547
X3.7598Y-3.5138
X3.7598Y-3.5728
X3.7598Y-3.8091
X3.7795Y-5.4921
X3.7795Y-5.6102
X3.7894Y-2.5689
X3.7992Y-2.2343
X3.8091Y-5.2559
X3.8189Y-2.628
X3.8189Y-2.687
X3.8189Y-2.7461
X3.8189Y-2.8051
X3.8189Y-2.8642
X3.8189Y-2.9232
X3.8189Y-2.9823
X3.8189Y-3.0413
X3.8189Y-3.1004
X3.8189Y-3.1594
X3.8189Y-3.2185
X3.8189Y-3.2776
X3.8189Y-3.3366
X3.8189Y-3.3957
X3.8189Y-3.4547
X3.8189Y-3.5138
X3.8189Y-3.5728
X3.8189Y-3.8091
X3.8386Y-4.0453
X3.8386Y-4.8622
X3.8386Y-4.9902
X3.8386Y-5.128
X3.8484Y-5.4528
X3.8583Y-3.8583
X3.8583Y-5.6004
X3.8681Y-4.2028
X3.8681Y-5.3248
X3.8681Y-5.7579
X3.878Y-2.628
X3.878Y-2.687
X3.878Y-2.7461
X3.878Y-2.8051
X3.878Y-2.8642
X3.878Y-2.9232
X3.878Y-2.9823
X3.878Y-3.0413
X3.878Y-3.1004
X3.878Y-3.1594
X3.878Y-3.2185
X3.878Y-3.2776
X3.878Y-3.3366
X3.878Y-3.3957
X3.878Y-3.4547
X3.878Y-3.5138
X3.878Y-3.5728
X3.878Y-3.8091
X3.8976Y-4.3504
X3.9075Y-2.4213
X3.9173Y-2.0079
X3.9173Y-5.2657
X3.9272Y-2.2933
X3.9272Y-5.3839
X3.937Y-2.628
X3.937Y-2.687
X3.937Y-2.7461
X3.937Y-2.8051
X3.937Y-2.8642
X3.937Y-2.9232
X3.937Y-2.9823
X3.937Y-3.0413
X3.937Y-3.1004
X3.937Y-3.1594
X3.937Y-3.2185
X3.937Y-3.2776
X3.937Y-3.3366
X3.937Y-3.3957
X3.937Y-3.4547
X3.937Y-3.5138
X3.937Y-3.5728
X3.937Y-3.7894
X3.9469Y-5.8563
X3.9567Y-2.5689
X3.9567Y-3.9469
X3.9567Y-5.4823
X3.9567Y-5.6693
X3.9665Y-4.0846
X3.9862Y-5.1673
X4.0059Y-3.1299
X4.0059Y-3.2677
X4.0157Y-2.628
X4.0157Y-2.687
X4.0157Y-2.8642
X4.0157Y-2.9823
X4.0157Y-3.0413
X4.0157Y-4.8622
X4.0157Y-5.0
X4.0157Y-5.4331
X4.0256Y-5.3642
X4.0354Y-5.6791
X4.0551Y-3.002
X4.065Y-3.8287
X4.065Y-4.2224
X4.0748Y-2.628
X4.0748Y-2.687
X4.0748Y-3.0413
X4.0748Y-5.7677
X4.0945Y-2.1358
X4.0945Y-3.002
X4.0945Y-3.5138
X4.1043Y-2.4016
X4.1339Y-2.628
X4.1339Y-2.687
X4.1339Y-2.7461
X4.1339Y-2.8642
X4.1339Y-2.9823
X4.1339Y-3.0413
X4.1339Y-5.0492
X4.1339Y-5.1772
X4.1437Y-3.4744
X4.1437Y-4.3406
X4.1437Y-5.315
X4.1535Y-2.8051
X4.1535Y-2.9232
X4.1535Y-4.124
X4.1535Y-5.8563
X4.1634Y-3.1299
X4.1634Y-3.248
X4.1732Y-2.5689
X4.1732Y-3.9075
X4.1929Y-2.628
X4.1929Y-2.687
X4.1929Y-2.7461
X4.1929Y-2.8051
X4.1929Y-2.8642
X4.1929Y-2.9232
X4.1929Y-2.9823
X4.1929Y-3.0413
X4.1929Y-4.8622
X4.2028Y-2.2736
X4.2224Y-4.2224
X4.2224Y-5.2461
X4.2224Y-5.3346
X4.2224Y-5.6791
X4.2323Y-1.998
X4.2323Y-2.8051
X4.252Y-2.628
X4.252Y-2.687
X4.252Y-2.7461
X4.252Y-2.8642
X4.252Y-2.9232
X4.252Y-2.9823
X4.252Y-3.0413
X4.252Y-5.6004
X4.252Y-5.7776
X4.2618Y-5.0
X4.2638Y-5.4005
X4.2913Y-2.9429
X4.3012Y-5.4731
X4.311Y-2.628
X4.311Y-2.687
X4.311Y-2.7264
X4.311Y-2.9823
X4.311Y-3.0413
X4.311Y-3.5827
X4.311Y-3.7598
X4.3209Y-3.2579
X4.3307Y-3.4547
X4.3307Y-4.1142
X4.3406Y-3.1398
X4.3406Y-3.937
X4.3406Y-4.3504
X4.3406Y-4.872
X4.3406Y-5.1181
X4.3406Y-5.8563
X4.3504Y-2.0768
X4.3602Y-5.4731
X4.3701Y-2.628
X4.3701Y-2.687
X4.3701Y-2.9823
X4.3701Y-3.0413
X4.3701Y-3.3268
X4.3799Y-2.4213
X4.3799Y-2.5591
X4.3898Y-4.9606
X4.3996Y-5.6004
X4.4094Y-3.3957
X4.4094Y-3.4744
X4.4094Y-3.5531
X4.4094Y-3.6319
X4.4094Y-3.7106
X4.4094Y-3.7894
X4.4094Y-3.8681
X4.4094Y-3.9469
X4.4094Y-4.0256
X4.4094Y-4.1043
X4.4094Y-4.1831
X4.4094Y-4.2618
X4.4094Y-4.3209
X4.4094Y-5.4134
X4.4193Y-5.2461
X4.4193Y-5.502
X4.4291Y-2.628
X4.4291Y-2.687
X4.4291Y-2.7264
X4.4291Y-2.9823
X4.4291Y-3.0413
X4.4291Y-5.7382
X4.4488Y-2.9429
X4.4488Y-3.435
X4.4488Y-3.9075
X4.4488Y-3.9862
X4.4488Y-4.065
X4.4488Y-4.1437
X4.4488Y-4.2224
X4.4488Y-4.3012
X4.4488Y-5.0197
X4.4783Y-5.187
X4.4783Y-5.3248
X4.4882Y-2.628
X4.4882Y-2.687
X4.4882Y-2.7461
X4.4882Y-2.8051
X4.4882Y-2.8642
X4.4882Y-2.9232
X4.4882Y-2.9823
X4.4882Y-3.0413
X4.4882Y-3.3957
X4.4882Y-3.4744
X4.4882Y-3.9469
X4.4882Y-4.0256
X4.4882Y-4.1043
X4.4882Y-4.1831
X4.4882Y-4.2618
X4.4882Y-4.3209
X4.498Y-3.1398
X4.5177Y-3.3268
X4.5276Y-3.435
X4.5276Y-3.9075
X4.5276Y-3.9862
X4.5276Y-4.065
X4.5276Y-4.1437
X4.5276Y-4.2224
X4.5276Y-4.3012
X4.5374Y-4.9311
X4.5374Y-5.8563
X4.5472Y-2.2441
X4.5472Y-5.1083
X4.5472Y-5.2559
X4.5472Y-5.3937
X4.5472Y-5.5413
X4.5472Y-5.689
X4.5669Y-2.5984
X4.5669Y-3.3957
X4.5669Y-3.4744
X4.5669Y-3.8681
X4.5669Y-3.9469
X4.5669Y-4.0256
X4.5669Y-4.1043
X4.5669Y-4.1831
X4.5669Y-4.2618
X4.5669Y-4.3209
X4.5768Y-2.0079
X4.5768Y-2.8445
X4.5866Y-2.4311
X4.6063Y-3.1988
X4.6063Y-3.435
X4.6063Y-3.5138
X4.6063Y-3.5925
X4.6063Y-3.6713
X4.6063Y-3.75
X4.6063Y-3.8287
X4.6063Y-3.9075
X4.6063Y-3.9862
X4.6063Y-4.065
X4.6063Y-4.1437
X4.6063Y-4.2224
X4.6063Y-4.3012
X4.6161Y-2.2441
X4.6161Y-5.8661
X4.626Y-3.002
X4.626Y-4.3799
X4.626Y-4.5276
X4.626Y-4.6949
X4.626Y-4.8425
X4.6457Y-3.3957
X4.6457Y-3.4744
X4.6457Y-3.5531
X4.6457Y-3.6319
X4.6457Y-3.7106
X4.6457Y-3.7894
X4.6457Y-3.8681
X4.6457Y-3.9469
X4.6457Y-4.0256
X4.6457Y-4.1043
X4.6457Y-4.1831
X4.6457Y-4.2618
X4.6457Y-4.3209
X4.6752Y-2.6969
X4.685Y-3.435
X4.685Y-3.5138
X4.685Y-3.5925
X4.685Y-3.6713
X4.685Y-3.75
X4.685Y-3.8287
X4.685Y-3.9075
X4.685Y-3.9862
X4.685Y-4.065
X4.685Y-4.1437
X4.685Y-4.2224
X4.685Y-4.3012
X4.7047Y-2.4902
X4.7244Y-3.3268
X4.7244Y-3.3957
X4.7244Y-3.4744
X4.7244Y-3.5531
X4.7244Y-3.6319
X4.7244Y-3.7106
X4.7244Y-3.7894
X4.7244Y-3.8681
X4.7244Y-3.9469
X4.7244Y-4.0256
X4.7244Y-4.1043
X4.7244Y-4.1831
X4.7244Y-4.2618
X4.7244Y-4.3209
X4.7244Y-4.6161
X4.7343Y-4.7244
X4.7441Y-3.1102
X4.7638Y-2.0669
X4.7638Y-3.435
X4.7638Y-3.5138
X4.7638Y-3.5925
X4.7638Y-3.6713
X4.7638Y-3.75
X4.7638Y-3.8287
X4.7638Y-3.9075
X4.7638Y-3.9862
X4.7638Y-4.065
X4.7638Y-4.1437
X4.7638Y-4.2224
X4.7638Y-4.3012
X4.7638Y-4.3799
X4.7736Y-4.5276
X4.8031Y-3.3957
X4.8031Y-3.4744
X4.8031Y-3.5531
X4.8031Y-3.6319
X4.8031Y-3.7106
X4.8031Y-3.7894
X4.8031Y-3.8681
X4.8031Y-3.9469
X4.8031Y-4.0256
X4.8031Y-4.1043
X4.8031Y-4.1831
X4.8031Y-4.2618
X4.8031Y-4.3209
X4.813Y-2.4311
X4.813Y-2.6083
X4.8228Y-3.2087
X4.8327Y-4.6358
X4.8425Y-3.435
X4.8425Y-3.5138
X4.8425Y-3.5925
X4.8425Y-3.6713
X4.8425Y-3.75
X4.8425Y-3.8287
X4.8425Y-3.9075
X4.8425Y-3.9862
X4.8425Y-4.065
X4.8425Y-4.1437
X4.8425Y-4.2224
X4.8425Y-4.3012
X4.8622Y-3.0315
X4.872Y-5.8661
X4.8819Y-3.3957
X4.8819Y-3.4744
X4.8819Y-3.5531
X4.8819Y-3.6319
X4.8819Y-3.7106
X4.8819Y-3.7894
X4.8819Y-3.9469
X4.8819Y-4.0256
X4.8819Y-4.1043
X4.8819Y-4.1831
X4.8819Y-4.2618
X4.8819Y-4.3209
X4.9213Y-3.435
X4.9213Y-3.5138
X4.9213Y-3.5925
X4.9213Y-3.6713
X4.9213Y-3.75
X4.9213Y-3.9862
X4.9213Y-4.065
X4.9213Y-4.1437
X4.9213Y-4.2224
X4.9213Y-4.3012
X4.9409Y-4.3799
X4.9409Y-4.5276
X4.9606Y-3.3169
X4.9606Y-3.3957
X4.9606Y-3.4744
X4.9606Y-3.5531
X4.9606Y-3.6319
X4.9606Y-3.7106
X4.9606Y-3.7894
X4.9606Y-3.9469
X4.9606Y-4.0256
X4.9606Y-4.1043
X4.9606Y-4.1831
X4.9606Y-4.2618
X4.9606Y-4.3209
X4.9705Y-2.0079
X4.9705Y-2.6772
X4.9803Y-2.2244
X4.9803Y-3.1102
X5.0Y-2.8937
X5.0Y-3.435
X5.0Y-3.5138
X5.0Y-3.5925
X5.0Y-3.6713
X5.0Y-3.75
X5.0Y-3.8878
X5.0Y-3.9862
X5.0Y-4.065
X5.0Y-4.2224
X5.0Y-4.3012
X5.0197Y-2.5295
X5.0197Y-4.124
X5.0295Y-2.372
X5.0394Y-3.3957
X5.0394Y-3.4744
X5.0394Y-3.5531
X5.0394Y-3.6319
X5.0394Y-3.7106
X5.0394Y-4.1831
X5.0394Y-4.2618
X5.0394Y-4.3209
X5.0591Y-3.8189
X5.0591Y-3.8484
X5.0591Y-3.878
X5.0591Y-3.9075
X5.0591Y-3.937
X5.0591Y-3.9665
X5.0591Y-3.9961
X5.0591Y-4.0256
X5.0591Y-4.0551
X5.0591Y-4.0846
X5.0664Y-5.8638
X5.0689Y-3.248
X5.0787Y-3.435
X5.0787Y-3.5138
X5.0787Y-3.5925
X5.0787Y-3.6713
X5.0787Y-3.7303
X5.0787Y-4.1437
X5.0787Y-4.3012
X5.0886Y-3.8189
X5.0886Y-3.8484
X5.0886Y-3.878
X5.0886Y-3.9075
X5.0886Y-3.937
X5.0886Y-3.9665
X5.0886Y-3.9961
X5.0886Y-4.0256
X5.0886Y-4.0551
X5.0886Y-4.0846
X5.0886Y-4.3799
X5.1181Y-3.0217
X5.1181Y-3.3957
X5.1181Y-3.4744
X5.1181Y-3.5531
X5.1181Y-3.6319
X5.1181Y-3.7106
X5.1181Y-3.8189
X5.1181Y-3.8484
X5.1181Y-3.878
X5.1181Y-3.9075
X5.1181Y-3.937
X5.1181Y-3.9665
X5.1181Y-3.9961
X5.1181Y-4.0256
X5.1181Y-4.0551
X5.1181Y-4.0846
X5.1181Y-4.1634
X5.1181Y-4.3209
X5.1476Y-2.2047
X5.1476Y-2.7756
X5.1476Y-3.8189
X5.1476Y-3.8484
X5.1476Y-3.878
X5.1476Y-3.9075
X5.1476Y-3.937
X5.1476Y-3.9665
X5.1476Y-3.9961
X5.1476Y-4.0256
X5.1476Y-4.0551
X5.1476Y-4.0846
X5.1575Y-2.0374
X5.1575Y-2.5689
X5.1673Y-4.1339
X5.1673Y-4.2224
X5.1673Y-4.311
X5.1772Y-3.1594
X5.1772Y-3.3661
X5.1772Y-3.4547
X5.1772Y-3.5433
X5.1772Y-3.6417
X5.1772Y-3.8189
X5.1772Y-3.8484
X5.1772Y-3.878
X5.1772Y-3.9075
X5.1772Y-3.937
X5.1772Y-3.9665
X5.1772Y-3.9961
X5.1772Y-4.0256
X5.1772Y-4.0551
X5.1772Y-4.0846
X5.187Y-2.9232
X5.1878Y-3.7465
X5.2067Y-2.4311
X5.2067Y-3.8189
X5.2067Y-3.8484
X5.2067Y-3.878
X5.2067Y-3.9075
X5.2067Y-3.937
X5.2067Y-3.9665
X5.2067Y-3.9961
X5.2067Y-4.0256
X5.2067Y-4.0551
X5.2067Y-4.0846
X5.2362Y-3.8189
X5.2362Y-3.8484
X5.2362Y-3.878
X5.2362Y-3.9075
X5.2362Y-3.937
X5.2362Y-3.9665
X5.2362Y-3.9961
X5.2362Y-4.0256
X5.2362Y-4.0551
X5.2362Y-4.0846
X5.2612Y-5.8638
X5.2657Y-3.8189
X5.2657Y-3.8484
X5.2657Y-3.878
X5.2657Y-3.9075
X5.2657Y-3.937
X5.2657Y-3.9665
X5.2657Y-3.9961
X5.2657Y-4.0256
X5.2657Y-4.0551
X5.2657Y-4.0846
X5.2953Y-3.8189
X5.2953Y-3.8484
X5.2953Y-3.878
X5.2953Y-3.9075
X5.2953Y-3.937
X5.2953Y-3.9665
X5.2953Y-3.9961
X5.2953Y-4.0256
X5.2953Y-4.0551
X5.2953Y-4.0846
X5.315Y-2.0079
X5.315Y-2.2244
X5.3248Y-3.8189
X5.3248Y-3.8484
X5.3248Y-3.878
X5.3248Y-3.9075
X5.3248Y-3.937
X5.3248Y-3.9665
X5.3248Y-3.9961
X5.3248Y-4.0256
X5.3248Y-4.0551
X5.3248Y-4.0846
X5.374Y-2.6378
X5.374Y-2.7854
X5.4035Y-2.313
X5.4134Y-2.4902
X5.4429Y-2.1161
X5.4713Y-5.8638
X5.6004Y-2.4114
X5.6004Y-2.6673
X5.6299Y-2.0079
X5.6988Y-2.2146
X5.702Y-5.8638
X5.7087Y-2.7953
X5.7382Y-2.4902
X5.8563Y-2.1555
X5.876Y-2.3819
X5.8957Y-2.0177
X5.9249Y-5.8638
X6.0433Y-2.4114
X6.063Y-2.185
X6.063Y-2.815
X6.0827Y-2.5984
X6.1516Y-2.0177
X6.1607Y-5.8638
X6.1909Y-2.2047
X6.2106Y-2.4311
X6.2992Y-2.5984
X6.3091Y-2.7953
X6.3189Y-2.2146
X6.3708Y-5.8638
X6.378Y-2.6378
X6.4272Y-2.0177
X6.4469Y-2.1358
X6.4862Y-2.4705
X6.5453Y-2.6673
X6.5551Y-2.2835
X6.565Y-2.0571
X6.5964Y-5.8638
X6.6043Y-2.7756
X6.6535Y-2.0571
X6.6732Y-2.2343
X6.6831Y-5.8465
X6.6929Y-2.4114
X6.6929Y-2.6083
X6.7126Y-2.7756
X6.7126Y-2.9429
X6.7126Y-3.2677
X6.7126Y-3.5236
X6.7126Y-3.7402
X6.7126Y-4.0256
X6.7126Y-4.311
X6.7126Y-4.5276
X6.7126Y-4.7539
X6.7126Y-4.9902
X6.7126Y-5.2264
X6.7126Y-5.5217
X6.7126Y-5.7677
T2
X3.5819Y-5.199
T3
X4.4094Y-4.8833
X4.4882Y-4.8839
T4
X3.4882Y-5.122
X3.4882Y-5.2205
T6
X3.6744Y-2.7894
X3.6744Y-2.9232
X4.065Y-2.7894
X4.065Y-2.9232
T7
X5.8858Y-2.6622
X5.8858Y-3.0559
T8
X4.3701Y-2.8445
X4.8031Y-2.8445
T9
X4.8228Y-5.2854
X4.8228Y-5.6594
X5.0197Y-5.2854
X5.0197Y-5.6594
X5.3543Y-5.2854
X5.3543Y-5.6594
X5.5512Y-5.2854
X5.5512Y-5.6594
X5.8858Y-5.2854
X5.8858Y-5.6594
X6.063Y-3.7303
X6.063Y-3.9272
X6.063Y-4.252
X6.063Y-4.4488
X6.063Y-4.7736
X6.063Y-4.9705
X6.0827Y-5.2854
X6.0827Y-5.6594
X6.437Y-3.7303
X6.437Y-3.9272
X6.437Y-4.252
X6.437Y-4.4488
X6.437Y-4.7736
X6.437Y-4.9705
T3
G00X4.1819Y-5.3909
M15
G01X4.0859Y-5.3909
M16
G05
G00X4.0859Y-5.6271
M15
G01X4.1819Y-5.6271
M16
G05
T5
G00X3.8976Y-3.6909
M15
G01X3.6811Y-3.6909
M16
G05
G00X4.2717Y-3.3602
M15
G01X4.0551Y-3.3602
M16
G05
G00X4.2717Y-4.0217
M15
G01X4.0551Y-4.0217
M16
G05
G00X4.1791Y-3.5827
M15
G01X4.1791Y-3.7992
M16
G05
G00X4.4941Y-3.5827
M15
G01X4.4941Y-3.7992
M16
G05
T0
M30
