%TF.GenerationSoftware,KiCad,Pcbnew,(6.0.11)*%
%TF.CreationDate,2024-02-29T08:21:51+09:00*%
%TF.ProjectId,LargePW,4c617267-6550-4572-9e6b-696361645f70,rev?*%
%TF.SameCoordinates,Original*%
%TF.FileFunction,Copper,L1,Top*%
%TF.FilePolarity,Positive*%
%FSLAX46Y46*%
G04 Gerber Fmt 4.6, Leading zero omitted, Abs format (unit mm)*
G04 Created by KiCad (PCBNEW (6.0.11)) date 2024-02-29 08:21:51*
%MOMM*%
%LPD*%
G01*
G04 APERTURE LIST*
G04 Aperture macros list*
%AMRoundRect*
0 Rectangle with rounded corners*
0 $1 Rounding radius*
0 $2 $3 $4 $5 $6 $7 $8 $9 X,Y pos of 4 corners*
0 Add a 4 corners polygon primitive as box body*
4,1,4,$2,$3,$4,$5,$6,$7,$8,$9,$2,$3,0*
0 Add four circle primitives for the rounded corners*
1,1,$1+$1,$2,$3*
1,1,$1+$1,$4,$5*
1,1,$1+$1,$6,$7*
1,1,$1+$1,$8,$9*
0 Add four rect primitives between the rounded corners*
20,1,$1+$1,$2,$3,$4,$5,0*
20,1,$1+$1,$4,$5,$6,$7,0*
20,1,$1+$1,$6,$7,$8,$9,0*
20,1,$1+$1,$8,$9,$2,$3,0*%
G04 Aperture macros list end*
%TA.AperFunction,ComponentPad*%
%ADD10O,9.000000X3.500000*%
%TD*%
%TA.AperFunction,ComponentPad*%
%ADD11O,3.500000X9.000000*%
%TD*%
%TA.AperFunction,ComponentPad*%
%ADD12R,3.800000X3.800000*%
%TD*%
%TA.AperFunction,ComponentPad*%
%ADD13C,4.000000*%
%TD*%
%TA.AperFunction,SMDPad,CuDef*%
%ADD14RoundRect,0.237500X0.250000X0.237500X-0.250000X0.237500X-0.250000X-0.237500X0.250000X-0.237500X0*%
%TD*%
%TA.AperFunction,ComponentPad*%
%ADD15RoundRect,0.250000X-0.675000X0.600000X-0.675000X-0.600000X0.675000X-0.600000X0.675000X0.600000X0*%
%TD*%
%TA.AperFunction,ComponentPad*%
%ADD16O,1.850000X1.700000*%
%TD*%
%TA.AperFunction,ComponentPad*%
%ADD17C,2.780000*%
%TD*%
%TA.AperFunction,SMDPad,CuDef*%
%ADD18R,2.200000X1.200000*%
%TD*%
%TA.AperFunction,SMDPad,CuDef*%
%ADD19R,6.400000X5.800000*%
%TD*%
%TA.AperFunction,ComponentPad*%
%ADD20O,4.000000X1.524000*%
%TD*%
%TA.AperFunction,ComponentPad*%
%ADD21C,5.000000*%
%TD*%
%TA.AperFunction,SMDPad,CuDef*%
%ADD22R,1.200000X2.200000*%
%TD*%
%TA.AperFunction,SMDPad,CuDef*%
%ADD23R,5.800000X6.400000*%
%TD*%
%TA.AperFunction,ComponentPad*%
%ADD24C,1.524000*%
%TD*%
%TA.AperFunction,ComponentPad*%
%ADD25R,4.000000X4.000000*%
%TD*%
%TA.AperFunction,ViaPad*%
%ADD26C,0.600000*%
%TD*%
%TA.AperFunction,ViaPad*%
%ADD27C,1.000000*%
%TD*%
%TA.AperFunction,Conductor*%
%ADD28C,0.250000*%
%TD*%
%TA.AperFunction,Conductor*%
%ADD29C,1.000000*%
%TD*%
G04 APERTURE END LIST*
D10*
%TO.P,K1,30*%
%TO.N,/RelayIN*%
X96250000Y-93750000D03*
%TO.P,K1,85*%
%TO.N,ESS*%
X105750000Y-102150000D03*
%TO.P,K1,86*%
%TO.N,RelaySW*%
X105750000Y-85350000D03*
D11*
%TO.P,K1,87*%
%TO.N,/RelayOUT*%
X114150000Y-93750000D03*
%TO.P,K1,87a*%
%TO.N,unconnected-(K1-Pad87a)*%
X106150000Y-93750000D03*
%TD*%
D12*
%TO.P,J2,1,Pin_1*%
%TO.N,GND*%
X127500000Y-134249999D03*
D13*
%TO.P,J2,2,Pin_2*%
%TO.N,VDD*%
X122500000Y-134249999D03*
%TD*%
D12*
%TO.P,J12,1,Pin_1*%
%TO.N,GND*%
X154000000Y-108000000D03*
D13*
%TO.P,J12,2,Pin_2*%
%TO.N,VDD*%
X154000000Y-113000000D03*
%TD*%
D12*
%TO.P,J3,1,Pin_1*%
%TO.N,GND*%
X127500000Y-143750000D03*
D13*
%TO.P,J3,2,Pin_2*%
%TO.N,VDD*%
X122500000Y-143750000D03*
%TD*%
D12*
%TO.P,J6,1,Pin_1*%
%TO.N,GND*%
X154000000Y-94750000D03*
D13*
%TO.P,J6,2,Pin_2*%
%TO.N,VDD*%
X154000000Y-99750000D03*
%TD*%
D14*
%TO.P,R7,1*%
%TO.N,VDD*%
X133500000Y-86750000D03*
%TO.P,R7,2*%
%TO.N,GND*%
X131675000Y-86750000D03*
%TD*%
D15*
%TO.P,J1,1,Pin_1*%
%TO.N,/RelayIN*%
X88600000Y-130100000D03*
D16*
%TO.P,J1,2,Pin_2*%
%TO.N,ESS*%
X88600000Y-132600000D03*
%TD*%
D12*
%TO.P,J9,1,Pin_1*%
%TO.N,GND*%
X154500000Y-143750000D03*
D13*
%TO.P,J9,2,Pin_2*%
%TO.N,VDD*%
X149500000Y-143750000D03*
%TD*%
D12*
%TO.P,J7,1,Pin_1*%
%TO.N,GND*%
X163500000Y-94750000D03*
D13*
%TO.P,J7,2,Pin_2*%
%TO.N,VDD*%
X163500000Y-99750000D03*
%TD*%
D12*
%TO.P,J4,1,Pin_1*%
%TO.N,GND*%
X141000000Y-134250000D03*
D13*
%TO.P,J4,2,Pin_2*%
%TO.N,VDD*%
X136000000Y-134250000D03*
%TD*%
D17*
%TO.P,F1,1*%
%TO.N,+12V*%
X103250000Y-70850000D03*
X103250000Y-74250000D03*
%TO.P,F1,2*%
%TO.N,/RelayIN*%
X93330000Y-74250000D03*
X93330000Y-70850000D03*
%TD*%
D12*
%TO.P,J10,1,Pin_1*%
%TO.N,GND*%
X154000000Y-121250000D03*
D13*
%TO.P,J10,2,Pin_2*%
%TO.N,VDD*%
X154000000Y-126250000D03*
%TD*%
D12*
%TO.P,J11,1,Pin_1*%
%TO.N,GND*%
X163500000Y-121250000D03*
D13*
%TO.P,J11,2,Pin_2*%
%TO.N,VDD*%
X163500000Y-126250000D03*
%TD*%
D12*
%TO.P,J5,1,Pin_1*%
%TO.N,GND*%
X141000000Y-143750001D03*
D13*
%TO.P,J5,2,Pin_2*%
%TO.N,VDD*%
X136000000Y-143750001D03*
%TD*%
D18*
%TO.P,Q1,1,G*%
%TO.N,GND*%
X129950000Y-107430000D03*
D19*
%TO.P,Q1,2,D*%
%TO.N,/RelayOUT*%
X123650000Y-105150000D03*
D18*
%TO.P,Q1,3,S*%
%TO.N,/S-S*%
X129950000Y-102870000D03*
%TD*%
D12*
%TO.P,J13,1,Pin_1*%
%TO.N,GND*%
X163500000Y-108000000D03*
D13*
%TO.P,J13,2,Pin_2*%
%TO.N,VDD*%
X163500000Y-113000000D03*
%TD*%
D20*
%TO.P,SW1,1,A*%
%TO.N,Net-(Q5-Pad1)*%
X105000000Y-142928349D03*
%TO.P,SW1,2,B*%
%TO.N,/RelayIN*%
X105000000Y-136928349D03*
%TD*%
D21*
%TO.P,H1,1,1*%
%TO.N,GND*%
X122000000Y-72250000D03*
%TD*%
D22*
%TO.P,Q4,1,G*%
%TO.N,Net-(Q4-Pad1)*%
X139030000Y-102450000D03*
D23*
%TO.P,Q4,2,D*%
%TO.N,VDD*%
X136750000Y-108750000D03*
D22*
%TO.P,Q4,3,S*%
%TO.N,/S-S*%
X134470000Y-102450000D03*
%TD*%
D12*
%TO.P,J8,1,Pin_1*%
%TO.N,GND*%
X154500000Y-134250000D03*
D13*
%TO.P,J8,2,Pin_2*%
%TO.N,VDD*%
X149500000Y-134250000D03*
%TD*%
D24*
%TO.P,MES1,1,-*%
%TO.N,GND*%
X114000000Y-124050000D03*
%TO.P,MES1,2,+*%
%TO.N,VDD*%
X112000000Y-124035000D03*
%TD*%
D21*
%TO.P,H2,1,1*%
%TO.N,+12V*%
X111000000Y-72250000D03*
%TD*%
D22*
%TO.P,Q2,1,G*%
%TO.N,GND*%
X124720000Y-98350000D03*
D23*
%TO.P,Q2,2,D*%
%TO.N,/RelayOUT*%
X127000000Y-92050000D03*
D22*
%TO.P,Q2,3,S*%
%TO.N,/S-S*%
X129280000Y-98350000D03*
%TD*%
D18*
%TO.P,Q3,1,G*%
%TO.N,Net-(Q3-Pad1)*%
X133800000Y-93120000D03*
D19*
%TO.P,Q3,2,D*%
%TO.N,VDD*%
X140100000Y-95400000D03*
D18*
%TO.P,Q3,3,S*%
%TO.N,/S-S*%
X133800000Y-97680000D03*
%TD*%
D25*
%TO.P,C2,1*%
%TO.N,VDD*%
X149500000Y-77619000D03*
D13*
%TO.P,C2,2*%
%TO.N,GND*%
X149500000Y-67619000D03*
%TD*%
D26*
%TO.N,/S-S*%
X133750000Y-99250000D03*
X129250000Y-97000000D03*
X128500000Y-99250000D03*
X128500000Y-103000000D03*
X129250000Y-103750000D03*
X130750000Y-99250000D03*
X135250000Y-97750000D03*
X132250000Y-102250000D03*
X128500000Y-100000000D03*
X134500000Y-97750000D03*
X133750000Y-100750000D03*
X133750000Y-103000000D03*
X130750000Y-97750000D03*
X130000000Y-103000000D03*
X131500000Y-103750000D03*
X135250000Y-99250000D03*
X128500000Y-100750000D03*
X130000000Y-98500000D03*
X132250000Y-98500000D03*
X135250000Y-100000000D03*
X128500000Y-101500000D03*
X131500000Y-100000000D03*
X134500000Y-103000000D03*
X133000000Y-102250000D03*
X134500000Y-98500000D03*
X130000000Y-101500000D03*
X135250000Y-97000000D03*
X130000000Y-100000000D03*
X131500000Y-103000000D03*
X129250000Y-97750000D03*
X133750000Y-101500000D03*
X130750000Y-100750000D03*
X133750000Y-97750000D03*
X131500000Y-101500000D03*
X129250000Y-101500000D03*
X133000000Y-100750000D03*
X130750000Y-103000000D03*
X133000000Y-99250000D03*
X134500000Y-100750000D03*
X130750000Y-102250000D03*
X128500000Y-103750000D03*
X128500000Y-98500000D03*
X134500000Y-103750000D03*
X131500000Y-98500000D03*
X130750000Y-98500000D03*
X133000000Y-100000000D03*
X134500000Y-99250000D03*
X129250000Y-100000000D03*
X128500000Y-97000000D03*
X129250000Y-103000000D03*
X131500000Y-102250000D03*
X130000000Y-97750000D03*
X133000000Y-98500000D03*
X129250000Y-98500000D03*
X133000000Y-101500000D03*
X135250000Y-103750000D03*
X130000000Y-99250000D03*
X135250000Y-102250000D03*
X129250000Y-100750000D03*
X135250000Y-103000000D03*
X132250000Y-100750000D03*
X130000000Y-103750000D03*
X130000000Y-97000000D03*
X131500000Y-99250000D03*
X108300000Y-137172500D03*
X133750000Y-103750000D03*
X135250000Y-100750000D03*
X133000000Y-103000000D03*
X130750000Y-100000000D03*
X132250000Y-103750000D03*
X133750000Y-102250000D03*
X134500000Y-101500000D03*
X134500000Y-102250000D03*
X131500000Y-100750000D03*
X133000000Y-97750000D03*
X134500000Y-97000000D03*
X132250000Y-101500000D03*
X128500000Y-102250000D03*
X130000000Y-102250000D03*
X130750000Y-101500000D03*
X129250000Y-99250000D03*
X132250000Y-97750000D03*
X135250000Y-98500000D03*
X132250000Y-100000000D03*
X130750000Y-103750000D03*
X130750000Y-97000000D03*
X128500000Y-97750000D03*
X132250000Y-99250000D03*
X135250000Y-101500000D03*
X131500000Y-97750000D03*
X132250000Y-97000000D03*
X129250000Y-102250000D03*
X132250000Y-103000000D03*
X134500000Y-100000000D03*
X133000000Y-103750000D03*
X133750000Y-97000000D03*
X133000000Y-97000000D03*
X130000000Y-100750000D03*
X133750000Y-98500000D03*
X131500000Y-97000000D03*
X133750000Y-100000000D03*
%TO.N,GND*%
X170500000Y-95000000D03*
X122250000Y-61750000D03*
X91000000Y-123250000D03*
X131500000Y-87750000D03*
X148750000Y-54750000D03*
X98000000Y-98000000D03*
X169750000Y-148500000D03*
X170500000Y-126750000D03*
X136500000Y-70750000D03*
X117500000Y-111250000D03*
X153500000Y-61250000D03*
X127750000Y-60250000D03*
X110250000Y-123750000D03*
X117500000Y-115000000D03*
X122500000Y-81500000D03*
X87500000Y-52500000D03*
X154000000Y-71500000D03*
X115500000Y-140750000D03*
X111250000Y-65000000D03*
X102000000Y-138000000D03*
X94000000Y-130500000D03*
X131250000Y-105000000D03*
X96750000Y-133500000D03*
X144750000Y-56250000D03*
X117250000Y-57000000D03*
X117500000Y-76250000D03*
X170500000Y-120750000D03*
X121000000Y-111250000D03*
X145000000Y-71000000D03*
X114750000Y-84500000D03*
X98000000Y-142250000D03*
X102500000Y-144250000D03*
X103250000Y-107250000D03*
X111000000Y-84500000D03*
X105250000Y-88250000D03*
X130750000Y-56000000D03*
X164750000Y-62750000D03*
X111500000Y-126000000D03*
X115500000Y-129750000D03*
X130000000Y-76750000D03*
X117000000Y-81250000D03*
X90250000Y-133500000D03*
X170000000Y-66250000D03*
X92750000Y-123250000D03*
X94000000Y-126750000D03*
X115500000Y-144500000D03*
X117250000Y-149000000D03*
X86750000Y-111000000D03*
X145750000Y-63250000D03*
X160500000Y-56250000D03*
X93000000Y-139250000D03*
X101750000Y-79500000D03*
X98250000Y-135250000D03*
X110500000Y-52750000D03*
X110250000Y-130000000D03*
X90000000Y-137000000D03*
X128750000Y-82500000D03*
X127000000Y-73500000D03*
X93000000Y-134000000D03*
X102000000Y-123500000D03*
X149750000Y-51250000D03*
X92500000Y-119000000D03*
X131000000Y-65250000D03*
X104000000Y-54250000D03*
X169000000Y-52250000D03*
X91000000Y-141750000D03*
X131750000Y-74250000D03*
X92250000Y-103500000D03*
X126250000Y-68000000D03*
X102250000Y-136250000D03*
X105000000Y-128250000D03*
X156250000Y-51250000D03*
X131250000Y-107250000D03*
X86750000Y-106250000D03*
X105750000Y-82500000D03*
X160250000Y-71000000D03*
X107500000Y-50750000D03*
X106000000Y-99250000D03*
X87500000Y-140750000D03*
X170500000Y-132750000D03*
X109500000Y-91000000D03*
X86750000Y-129000000D03*
X92500000Y-115000000D03*
X100500000Y-139250000D03*
X135000000Y-56500000D03*
X170500000Y-140250000D03*
X90750000Y-127500000D03*
X102000000Y-127000000D03*
X97500000Y-130250000D03*
X127500000Y-64250000D03*
X108000000Y-146750000D03*
X131250000Y-109500000D03*
X123750000Y-149000000D03*
X105500000Y-148750000D03*
X170500000Y-83000000D03*
X103500000Y-146500000D03*
X90500000Y-110000000D03*
X94000000Y-110500000D03*
X106000000Y-65250000D03*
X89500000Y-106500000D03*
X96000000Y-142500000D03*
X121000000Y-52500000D03*
X104250000Y-61000000D03*
X89750000Y-98250000D03*
X137500000Y-63250000D03*
X87250000Y-137500000D03*
X106750000Y-57750000D03*
X122250000Y-66250000D03*
X142250000Y-67750000D03*
X117500000Y-123000000D03*
X167547745Y-148939817D03*
X93750000Y-144250000D03*
X166750000Y-52250000D03*
X120250000Y-120000000D03*
X97500000Y-123500000D03*
X120000000Y-84500000D03*
X149250000Y-60500000D03*
X92500000Y-112500000D03*
X125500000Y-111250000D03*
X97500000Y-102750000D03*
X131500000Y-85500000D03*
X106500000Y-123500000D03*
X110250000Y-110500000D03*
X112250000Y-139750000D03*
X90750000Y-57750000D03*
X112250000Y-133250000D03*
X91000000Y-65000000D03*
X86750000Y-115500000D03*
X100250000Y-148750000D03*
X113750000Y-135250000D03*
X131500000Y-90000000D03*
X105750000Y-79500000D03*
X98250000Y-146250000D03*
X163250000Y-51250000D03*
X133634266Y-148939817D03*
X90750000Y-118750000D03*
X150493366Y-148939817D03*
X163750000Y-54250000D03*
X117500000Y-119250000D03*
X86500000Y-97750000D03*
X93750000Y-54500000D03*
X135000000Y-51000000D03*
X126500000Y-56500000D03*
X96250000Y-65250000D03*
X110250000Y-100000000D03*
X126000000Y-84250000D03*
X137250000Y-58750000D03*
X143000000Y-51000000D03*
X90000000Y-134500000D03*
X110250000Y-79750000D03*
X97500000Y-126750000D03*
X130750000Y-70500000D03*
X108250000Y-127000000D03*
X166250000Y-67750000D03*
X86500000Y-65250000D03*
X90750000Y-51750000D03*
X114250000Y-79750000D03*
X87000000Y-134000000D03*
X157750000Y-61750000D03*
X108000000Y-142250000D03*
X131000000Y-51750000D03*
X92250000Y-100000000D03*
X115500000Y-137000000D03*
X99500000Y-51000000D03*
X142250000Y-61250000D03*
X113000000Y-127500000D03*
X113750000Y-131750000D03*
X131770000Y-95160000D03*
X96000000Y-139500000D03*
X170500000Y-74750000D03*
X116000000Y-66000000D03*
X107250000Y-135500000D03*
X95250000Y-51500000D03*
X107250000Y-144250000D03*
X115250000Y-125250000D03*
X144830270Y-148939817D03*
X161819557Y-148939817D03*
X96500000Y-56750000D03*
X94250000Y-106000000D03*
X170500000Y-115000000D03*
X132250000Y-61750000D03*
X128687194Y-148939817D03*
X100500000Y-100250000D03*
X160000000Y-66000000D03*
X122750000Y-117750000D03*
X86750000Y-102000000D03*
X100750000Y-103750000D03*
X116250000Y-51000000D03*
X115500000Y-133500000D03*
X110000000Y-104500000D03*
X116250000Y-72250000D03*
X109750000Y-82750000D03*
X99500000Y-133750000D03*
X120500000Y-79000000D03*
X99750000Y-58250000D03*
X154000000Y-55500000D03*
X170500000Y-146500000D03*
X95000000Y-100750000D03*
X86750000Y-119750000D03*
X105250000Y-135000000D03*
X95000000Y-137250000D03*
X107250000Y-133250000D03*
X105250000Y-110250000D03*
X99000000Y-110500000D03*
X87500000Y-57750000D03*
X99750000Y-136750000D03*
X126250000Y-51000000D03*
X111750000Y-142250000D03*
X170500000Y-109500000D03*
X89750000Y-102000000D03*
X170000000Y-61250000D03*
X170500000Y-70500000D03*
X131500000Y-92500000D03*
X88000000Y-147500000D03*
X126500000Y-79000000D03*
X119500000Y-63250000D03*
X120000000Y-117250000D03*
X110250000Y-148750000D03*
X100500000Y-65250000D03*
X90750000Y-115250000D03*
X157250000Y-56000000D03*
X93250000Y-61000000D03*
X156481926Y-148939817D03*
X107250000Y-107250000D03*
X138250000Y-53750000D03*
X166500000Y-58000000D03*
X121250000Y-115000000D03*
X136500000Y-67000000D03*
X112000000Y-137500000D03*
X110000000Y-87750000D03*
X131500000Y-80250000D03*
X125500000Y-115000000D03*
X154500000Y-66000000D03*
X93750000Y-98000000D03*
X87500000Y-144250000D03*
X105000000Y-131500000D03*
X105500000Y-104750000D03*
X170500000Y-89500000D03*
X123500000Y-77000000D03*
X115500000Y-57000000D03*
X112500000Y-145750000D03*
X111250000Y-61500000D03*
X101250000Y-131250000D03*
X169500000Y-56750000D03*
X129250000Y-111250000D03*
X98250000Y-106750000D03*
X116500000Y-61750000D03*
X167750000Y-70500000D03*
X99250000Y-61500000D03*
X95000000Y-148750000D03*
X118750000Y-68500000D03*
X138971896Y-148939817D03*
X100500000Y-144000000D03*
X115250000Y-148750000D03*
X86750000Y-61500000D03*
X97750000Y-138500000D03*
X109500000Y-95500000D03*
X101750000Y-83000000D03*
X91000000Y-113750000D03*
X104000000Y-89250000D03*
X87250000Y-54750000D03*
X103250000Y-97250000D03*
X86750000Y-124000000D03*
X162000000Y-67000000D03*
X170500000Y-102250000D03*
X91250000Y-148000000D03*
%TO.N,+12V*%
X108000000Y-68250000D03*
X106500000Y-77250000D03*
X112500000Y-77250000D03*
X103500000Y-77250000D03*
X105000000Y-66750000D03*
X108000000Y-69750000D03*
X102000000Y-77250000D03*
X112500000Y-68250000D03*
X114000000Y-77250000D03*
X105000000Y-69750000D03*
X113000000Y-74750000D03*
X106500000Y-69750000D03*
X105000000Y-68250000D03*
X111000000Y-75750000D03*
X103500000Y-66750000D03*
X111000000Y-77250000D03*
X104000000Y-76250000D03*
X107500000Y-71250000D03*
X114000000Y-68250000D03*
X108000000Y-74250000D03*
X103500000Y-68250000D03*
X108000000Y-66750000D03*
X109500000Y-77250000D03*
X111000000Y-68250000D03*
X106500000Y-71250000D03*
X109500000Y-69250000D03*
X106500000Y-75750000D03*
X114000000Y-66750000D03*
X112500000Y-75750000D03*
X105000000Y-75750000D03*
X105500000Y-74250000D03*
X103000000Y-76250000D03*
X114000000Y-75750000D03*
X108000000Y-75750000D03*
X112500000Y-69250000D03*
X102000000Y-75750000D03*
X114000000Y-72750000D03*
X111000000Y-66750000D03*
X109500000Y-75750000D03*
X108000000Y-72750000D03*
X102000000Y-72750000D03*
X114000000Y-69750000D03*
X112500000Y-66750000D03*
X106500000Y-68250000D03*
X114000000Y-71250000D03*
X106500000Y-72750000D03*
X106500000Y-66750000D03*
X109000000Y-74750000D03*
X108000000Y-77250000D03*
X114000000Y-74250000D03*
X109500000Y-66750000D03*
X105500000Y-71250000D03*
X109500000Y-68250000D03*
X106500000Y-74250000D03*
X102000000Y-68250000D03*
X102000000Y-66750000D03*
X105000000Y-77250000D03*
X105000000Y-72750000D03*
%TO.N,/RelayIN*%
X98500000Y-89250000D03*
X98500000Y-74250000D03*
X94000000Y-66750000D03*
X88000000Y-71250000D03*
X97000000Y-87750000D03*
X97000000Y-80250000D03*
X98500000Y-66750000D03*
X88000000Y-68250000D03*
X95500000Y-68250000D03*
X92500000Y-81750000D03*
X95500000Y-86250000D03*
X95500000Y-80250000D03*
X92500000Y-96750000D03*
X88000000Y-83250000D03*
X95500000Y-96750000D03*
X97000000Y-86250000D03*
X89500000Y-66750000D03*
X89500000Y-87750000D03*
X97000000Y-89250000D03*
X98500000Y-72750000D03*
X100000000Y-87750000D03*
X94000000Y-89250000D03*
X89500000Y-72750000D03*
X97000000Y-96750000D03*
X100000000Y-86250000D03*
X91000000Y-87750000D03*
X97000000Y-77250000D03*
X98500000Y-83250000D03*
X100000000Y-69750000D03*
X88000000Y-66750000D03*
X91000000Y-71250000D03*
X89500000Y-81750000D03*
X94000000Y-68250000D03*
X89500000Y-84750000D03*
X92500000Y-68250000D03*
X94000000Y-78750000D03*
X92500000Y-87750000D03*
X88000000Y-74250000D03*
X88000000Y-86250000D03*
X91000000Y-81750000D03*
X97000000Y-66750000D03*
X94000000Y-86250000D03*
X88000000Y-78750000D03*
X88000000Y-77250000D03*
X91000000Y-90750000D03*
X97000000Y-78750000D03*
X100000000Y-66750000D03*
X95500000Y-90750000D03*
X91000000Y-66750000D03*
X94000000Y-87750000D03*
X98500000Y-69750000D03*
X89500000Y-90750000D03*
X100000000Y-72750000D03*
X95500000Y-66750000D03*
X97000000Y-71250000D03*
X89500000Y-77250000D03*
X97000000Y-74250000D03*
X94000000Y-80250000D03*
X89500000Y-89250000D03*
X97000000Y-90750000D03*
X98500000Y-78750000D03*
X92500000Y-89250000D03*
X91000000Y-78750000D03*
X92500000Y-84750000D03*
X88000000Y-90750000D03*
X98500000Y-75750000D03*
X89500000Y-86250000D03*
X91000000Y-86250000D03*
X100000000Y-71250000D03*
X91000000Y-84750000D03*
X92500000Y-80250000D03*
X91000000Y-68250000D03*
X88000000Y-92250000D03*
X100000000Y-74250000D03*
X98500000Y-90750000D03*
X88000000Y-93750000D03*
X100000000Y-68250000D03*
X95500000Y-89250000D03*
X89500000Y-74250000D03*
X95500000Y-81750000D03*
X89500000Y-71250000D03*
X95500000Y-74250000D03*
X95500000Y-72750000D03*
X94000000Y-83250000D03*
X97000000Y-84750000D03*
X100000000Y-80250000D03*
X94000000Y-77250000D03*
X91000000Y-69750000D03*
X88000000Y-89250000D03*
X88000000Y-72750000D03*
X98500000Y-87750000D03*
X97000000Y-81750000D03*
X91000000Y-96750000D03*
X91000000Y-89250000D03*
X91000000Y-93750000D03*
X92500000Y-78750000D03*
X91000000Y-80250000D03*
X89500000Y-69750000D03*
X89500000Y-68250000D03*
X100000000Y-75750000D03*
X100000000Y-84750000D03*
X92500000Y-86250000D03*
X89500000Y-95250000D03*
X94000000Y-90750000D03*
X92500000Y-83250000D03*
X100000000Y-77250000D03*
X88000000Y-87750000D03*
X95500000Y-69750000D03*
X95500000Y-83250000D03*
X94000000Y-81750000D03*
X100000000Y-78750000D03*
X91000000Y-74250000D03*
X97000000Y-72750000D03*
X100000000Y-90750000D03*
X89500000Y-80250000D03*
X97000000Y-68250000D03*
X91000000Y-72750000D03*
X92500000Y-90750000D03*
X89500000Y-78750000D03*
X98500000Y-77250000D03*
X88000000Y-84750000D03*
X89500000Y-83250000D03*
X89500000Y-75750000D03*
X91000000Y-75750000D03*
X98500000Y-81750000D03*
X91000000Y-83250000D03*
X95500000Y-84750000D03*
X92500000Y-66750000D03*
X98500000Y-84750000D03*
X91000000Y-92250000D03*
X100000000Y-81750000D03*
X97000000Y-75750000D03*
X88000000Y-69750000D03*
X89500000Y-96750000D03*
D27*
X90979626Y-132055385D03*
D26*
X98500000Y-96750000D03*
X89500000Y-93750000D03*
X91000000Y-95250000D03*
X88000000Y-95250000D03*
X95500000Y-77250000D03*
X94000000Y-96750000D03*
X88000000Y-75750000D03*
X89500000Y-92250000D03*
X100000000Y-83250000D03*
X95500000Y-78750000D03*
X95500000Y-75750000D03*
X88000000Y-96750000D03*
X98500000Y-80250000D03*
X91000000Y-77250000D03*
X94000000Y-84750000D03*
X88000000Y-80250000D03*
X97000000Y-83250000D03*
X88000000Y-81750000D03*
X97000000Y-69750000D03*
X100000000Y-89250000D03*
X100000000Y-96250000D03*
X92500000Y-77250000D03*
X95500000Y-71250000D03*
X95500000Y-87750000D03*
X98500000Y-68250000D03*
X98500000Y-71250000D03*
X98500000Y-86250000D03*
%TO.N,/RelayOUT*%
X117000000Y-109250000D03*
X117000000Y-107250000D03*
X118000000Y-100250000D03*
X115000000Y-109250000D03*
X126000000Y-109750000D03*
X125000000Y-95250000D03*
X118000000Y-92250000D03*
X123000000Y-105250000D03*
X130000000Y-92250000D03*
X126000000Y-102250000D03*
X121000000Y-105250000D03*
X115000000Y-103250000D03*
X118000000Y-86250000D03*
X116000000Y-98250000D03*
X116000000Y-106250000D03*
X127000000Y-91250000D03*
X124000000Y-88250000D03*
X120000000Y-104250000D03*
X118000000Y-90250000D03*
X127000000Y-93250000D03*
X116000000Y-100250000D03*
X130000000Y-94250000D03*
X126000000Y-104250000D03*
X122000000Y-90250000D03*
X117000000Y-91250000D03*
X113000000Y-101250000D03*
X119000000Y-89250000D03*
X121000000Y-103250000D03*
X119000000Y-99250000D03*
X129000000Y-91250000D03*
X126000000Y-90250000D03*
X114000000Y-104250000D03*
X120000000Y-106250000D03*
X122000000Y-106250000D03*
X116000000Y-102250000D03*
X124000000Y-104250000D03*
X119000000Y-87250000D03*
X116000000Y-86250000D03*
X127000000Y-89250000D03*
X120000000Y-90250000D03*
X127000000Y-103250000D03*
X120000000Y-100250000D03*
X123000000Y-99250000D03*
X121000000Y-107250000D03*
X112000000Y-94250000D03*
X118000000Y-94250000D03*
X113000000Y-107250000D03*
X125000000Y-87250000D03*
X129000000Y-87250000D03*
X127000000Y-109250000D03*
X118000000Y-106250000D03*
X128000000Y-108250000D03*
X117000000Y-103250000D03*
X112000000Y-88250000D03*
X124000000Y-106250000D03*
X124000000Y-90250000D03*
X125000000Y-89250000D03*
X119000000Y-97250000D03*
X127000000Y-98750000D03*
X119000000Y-101250000D03*
X125000000Y-91250000D03*
X117000000Y-97250000D03*
X129000000Y-109250000D03*
X121000000Y-89250000D03*
X121000000Y-97250000D03*
X112000000Y-90250000D03*
X113000000Y-105250000D03*
X124000000Y-102250000D03*
X117000000Y-101250000D03*
X117000000Y-105250000D03*
X121000000Y-99250000D03*
X116000000Y-88250000D03*
X121000000Y-95250000D03*
X123000000Y-93250000D03*
X118000000Y-102250000D03*
X127500000Y-104750000D03*
X128000000Y-88250000D03*
X119000000Y-91250000D03*
X114000000Y-100250000D03*
X116000000Y-109750000D03*
X112000000Y-100250000D03*
X124000000Y-100250000D03*
X123000000Y-89250000D03*
X125000000Y-93250000D03*
X118000000Y-104250000D03*
X121000000Y-91250000D03*
X124000000Y-86250000D03*
X122000000Y-104250000D03*
X123000000Y-91250000D03*
X122000000Y-109750000D03*
X116000000Y-104250000D03*
X112000000Y-86250000D03*
X115000000Y-99250000D03*
X112000000Y-102250000D03*
X130000000Y-109750000D03*
X120000000Y-102250000D03*
X113000000Y-99250000D03*
X113000000Y-109250000D03*
X128000000Y-92250000D03*
X112000000Y-106250000D03*
X119000000Y-93250000D03*
X127000000Y-87250000D03*
X121000000Y-109250000D03*
X123000000Y-95250000D03*
X115000000Y-87250000D03*
X127000000Y-107250000D03*
X129000000Y-89250000D03*
X122000000Y-94250000D03*
X126000000Y-100250000D03*
X125000000Y-105250000D03*
X128000000Y-109750000D03*
X123000000Y-101250000D03*
X120000000Y-92250000D03*
X129000000Y-105250000D03*
X114000000Y-108250000D03*
X120000000Y-98250000D03*
X114000000Y-102250000D03*
X123000000Y-103250000D03*
X112000000Y-92250000D03*
X124000000Y-108250000D03*
X125000000Y-101250000D03*
X115000000Y-101250000D03*
X126000000Y-94250000D03*
X127000000Y-95250000D03*
X120000000Y-94250000D03*
X122000000Y-100250000D03*
X123000000Y-97250000D03*
X126000000Y-96250000D03*
X130000000Y-90250000D03*
X118000000Y-88250000D03*
X122000000Y-86250000D03*
X124000000Y-109750000D03*
X117000000Y-89250000D03*
X116000000Y-108250000D03*
X127000000Y-101250000D03*
X118000000Y-96250000D03*
X121000000Y-101250000D03*
X114000000Y-109750000D03*
X119000000Y-105250000D03*
X121000000Y-87250000D03*
X128000000Y-106250000D03*
X118000000Y-98250000D03*
X122000000Y-96250000D03*
X117000000Y-99250000D03*
X119000000Y-109250000D03*
X120000000Y-108250000D03*
X115000000Y-107250000D03*
X120000000Y-96250000D03*
X118000000Y-108250000D03*
X130000000Y-86250000D03*
X114000000Y-106250000D03*
X126000000Y-108250000D03*
X128000000Y-86250000D03*
X120000000Y-88250000D03*
X128000000Y-90250000D03*
X129000000Y-93250000D03*
X119000000Y-107250000D03*
X126000000Y-92250000D03*
X122000000Y-92250000D03*
X120000000Y-86250000D03*
X126000000Y-86250000D03*
X122000000Y-98250000D03*
X122000000Y-88250000D03*
X114000000Y-88250000D03*
X126000000Y-106250000D03*
X124000000Y-96250000D03*
X124000000Y-94250000D03*
X123000000Y-109250000D03*
X125000000Y-103250000D03*
X124000000Y-92250000D03*
X112000000Y-108250000D03*
X112000000Y-104250000D03*
X126000000Y-88250000D03*
X113000000Y-103250000D03*
X125000000Y-107250000D03*
X125000000Y-109250000D03*
X117000000Y-93250000D03*
X123000000Y-107250000D03*
X112000000Y-96250000D03*
X114000000Y-86250000D03*
X117000000Y-95250000D03*
X112000000Y-98250000D03*
X129000000Y-94750000D03*
X119000000Y-103250000D03*
X119000000Y-95250000D03*
X128000000Y-94250000D03*
X122000000Y-108250000D03*
X112000000Y-109750000D03*
X113000000Y-87250000D03*
X121000000Y-93250000D03*
X117000000Y-87250000D03*
X120000000Y-109750000D03*
X118000000Y-109750000D03*
X130000000Y-88250000D03*
X115000000Y-105250000D03*
X123000000Y-87250000D03*
X130000000Y-105750000D03*
X122000000Y-102250000D03*
%TO.N,Net-(Q3-Pad1)*%
X109250000Y-139015849D03*
%TO.N,Net-(Q4-Pad1)*%
X110750000Y-139015849D03*
%TD*%
D28*
%TO.N,/S-S*%
X108300000Y-133880000D02*
X108300000Y-137172500D01*
X132310000Y-105093604D02*
X132310000Y-109870000D01*
X134470000Y-102450000D02*
X134470000Y-102933604D01*
X134470000Y-102933604D02*
X132310000Y-105093604D01*
X132310000Y-109870000D02*
X108300000Y-133880000D01*
%TO.N,GND*%
X90750000Y-115250000D02*
X90750000Y-115750000D01*
X107500000Y-136250000D02*
X107500000Y-141750000D01*
X90750000Y-115750000D02*
X90500000Y-116000000D01*
X107250000Y-135500000D02*
X107250000Y-136000000D01*
X107500000Y-141750000D02*
X108000000Y-142250000D01*
X90500000Y-116000000D02*
X90500000Y-118000000D01*
X107250000Y-136000000D02*
X107500000Y-136250000D01*
X110575000Y-100325000D02*
X110575000Y-103925000D01*
X131110000Y-95820000D02*
X131770000Y-95160000D01*
X90750000Y-118250000D02*
X90500000Y-118000000D01*
X110000000Y-87750000D02*
X110000000Y-87000000D01*
X128240000Y-95820000D02*
X131110000Y-95820000D01*
X110000000Y-87000000D02*
X110750000Y-86250000D01*
X129750000Y-111250000D02*
X131250000Y-109750000D01*
X110750000Y-86250000D02*
X110750000Y-84750000D01*
X110575000Y-103925000D02*
X110000000Y-104500000D01*
X125710000Y-98350000D02*
X128240000Y-95820000D01*
X110250000Y-100000000D02*
X110575000Y-100325000D01*
X131250000Y-109750000D02*
X131250000Y-109500000D01*
X110750000Y-84750000D02*
X111000000Y-84500000D01*
X129250000Y-111250000D02*
X129750000Y-111250000D01*
X90750000Y-118750000D02*
X90750000Y-118250000D01*
X124720000Y-98350000D02*
X125710000Y-98350000D01*
D29*
%TO.N,ESS*%
X90225000Y-129106497D02*
X89350000Y-128231497D01*
X90225000Y-131093503D02*
X90225000Y-129106497D01*
X89975000Y-131343503D02*
X90225000Y-131093503D01*
X100310000Y-102150000D02*
X105750000Y-102150000D01*
X89350000Y-128231497D02*
X89350000Y-113110000D01*
X88775000Y-132600000D02*
X89975000Y-131400000D01*
X88600000Y-132600000D02*
X88775000Y-132600000D01*
X89350000Y-113110000D02*
X100310000Y-102150000D01*
X89975000Y-131400000D02*
X89975000Y-131343503D01*
%TO.N,/RelayIN*%
X90979626Y-132055385D02*
X100127036Y-132055385D01*
X91500000Y-93750000D02*
X96250000Y-93750000D01*
X88600000Y-130100000D02*
X88150000Y-129650000D01*
X88150000Y-97100000D02*
X91500000Y-93750000D01*
X100127036Y-132055385D02*
X105000000Y-136928349D01*
X88150000Y-129650000D02*
X88150000Y-97100000D01*
D28*
%TO.N,Net-(Q3-Pad1)*%
X132760000Y-105280000D02*
X132760000Y-110056396D01*
X109890000Y-138375849D02*
X109250000Y-139015849D01*
X133800000Y-93140000D02*
X136470000Y-95810000D01*
X135195000Y-104775000D02*
X133265000Y-104775000D01*
X133265000Y-104775000D02*
X132760000Y-105280000D01*
X133800000Y-93120000D02*
X133800000Y-93140000D01*
X136470000Y-103500000D02*
X135195000Y-104775000D01*
X109890000Y-132926396D02*
X109890000Y-138375849D01*
X136470000Y-95810000D02*
X136470000Y-103500000D01*
X132760000Y-110056396D02*
X109890000Y-132926396D01*
%TO.N,Net-(Q4-Pad1)*%
X133210000Y-110242792D02*
X110750000Y-132702792D01*
X133210000Y-105540000D02*
X133210000Y-110242792D01*
X133525000Y-105225000D02*
X133210000Y-105540000D01*
X110750000Y-132702792D02*
X110750000Y-139015849D01*
X138220000Y-102450000D02*
X135445000Y-105225000D01*
X139030000Y-102450000D02*
X138220000Y-102450000D01*
X135445000Y-105225000D02*
X133525000Y-105225000D01*
%TD*%
%TA.AperFunction,Conductor*%
%TO.N,/S-S*%
G36*
X135265931Y-96270002D02*
G01*
X135286905Y-96286905D01*
X135713095Y-96713095D01*
X135747121Y-96775407D01*
X135750000Y-96802190D01*
X135750000Y-103271905D01*
X135729998Y-103340026D01*
X135713095Y-103361000D01*
X134969500Y-104104595D01*
X134907188Y-104138621D01*
X134880405Y-104141500D01*
X133343767Y-104141500D01*
X133332584Y-104140973D01*
X133325091Y-104139298D01*
X133317165Y-104139547D01*
X133317164Y-104139547D01*
X133257001Y-104141438D01*
X133253043Y-104141500D01*
X133225144Y-104141500D01*
X133221154Y-104142004D01*
X133209320Y-104142936D01*
X133165111Y-104144326D01*
X133157500Y-104146537D01*
X133149667Y-104147778D01*
X133149526Y-104146886D01*
X133127647Y-104150000D01*
X128502190Y-104150000D01*
X128434069Y-104129998D01*
X128413095Y-104113095D01*
X127986905Y-103686905D01*
X127952879Y-103624593D01*
X127950000Y-103597810D01*
X127950000Y-97058094D01*
X127970002Y-96989973D01*
X127986905Y-96968999D01*
X128465499Y-96490405D01*
X128527811Y-96456379D01*
X128554594Y-96453500D01*
X131031233Y-96453500D01*
X131042416Y-96454027D01*
X131049909Y-96455702D01*
X131057835Y-96455453D01*
X131057836Y-96455453D01*
X131117986Y-96453562D01*
X131121945Y-96453500D01*
X131149856Y-96453500D01*
X131153791Y-96453003D01*
X131153856Y-96452995D01*
X131165693Y-96452062D01*
X131197951Y-96451048D01*
X131201970Y-96450922D01*
X131209889Y-96450673D01*
X131229343Y-96445021D01*
X131248700Y-96441013D01*
X131260930Y-96439468D01*
X131260931Y-96439468D01*
X131268797Y-96438474D01*
X131276168Y-96435555D01*
X131276170Y-96435555D01*
X131309912Y-96422196D01*
X131321142Y-96418351D01*
X131355983Y-96408229D01*
X131355984Y-96408229D01*
X131363593Y-96406018D01*
X131370412Y-96401985D01*
X131370417Y-96401983D01*
X131381028Y-96395707D01*
X131398776Y-96387012D01*
X131417617Y-96379552D01*
X131453387Y-96353564D01*
X131463307Y-96347048D01*
X131494535Y-96328580D01*
X131494538Y-96328578D01*
X131501362Y-96324542D01*
X131515683Y-96310221D01*
X131530717Y-96297380D01*
X131540693Y-96290132D01*
X131547107Y-96285472D01*
X131549019Y-96283161D01*
X131610412Y-96252099D01*
X131633316Y-96250000D01*
X135197810Y-96250000D01*
X135265931Y-96270002D01*
G37*
%TD.AperFunction*%
%TD*%
%TA.AperFunction,Conductor*%
%TO.N,+12V*%
G36*
X114265931Y-66270002D02*
G01*
X114286905Y-66286905D01*
X114713095Y-66713095D01*
X114747121Y-66775407D01*
X114750000Y-66802190D01*
X114750000Y-77947810D01*
X114729998Y-78015931D01*
X114713095Y-78036905D01*
X114286905Y-78463095D01*
X114224593Y-78497121D01*
X114197810Y-78500000D01*
X101802190Y-78500000D01*
X101734069Y-78479998D01*
X101713095Y-78463095D01*
X101286905Y-78036905D01*
X101252879Y-77974593D01*
X101250000Y-77947810D01*
X101250000Y-66802190D01*
X101270002Y-66734069D01*
X101286905Y-66713095D01*
X101713095Y-66286905D01*
X101775407Y-66252879D01*
X101802190Y-66250000D01*
X114197810Y-66250000D01*
X114265931Y-66270002D01*
G37*
%TD.AperFunction*%
%TD*%
%TA.AperFunction,Conductor*%
%TO.N,/RelayOUT*%
G36*
X130015931Y-85520002D02*
G01*
X130036905Y-85536905D01*
X130463095Y-85963095D01*
X130497121Y-86025407D01*
X130500000Y-86052190D01*
X130500000Y-95060500D01*
X130479998Y-95128621D01*
X130426342Y-95175114D01*
X130374000Y-95186500D01*
X128318767Y-95186500D01*
X128307584Y-95185973D01*
X128300091Y-95184298D01*
X128292165Y-95184547D01*
X128292164Y-95184547D01*
X128232014Y-95186438D01*
X128228055Y-95186500D01*
X128200144Y-95186500D01*
X128196210Y-95186997D01*
X128196209Y-95186997D01*
X128196144Y-95187005D01*
X128184307Y-95187938D01*
X128152490Y-95188938D01*
X128148029Y-95189078D01*
X128140110Y-95189327D01*
X128122454Y-95194456D01*
X128120658Y-95194978D01*
X128101306Y-95198986D01*
X128094235Y-95199880D01*
X128081203Y-95201526D01*
X128073834Y-95204443D01*
X128073832Y-95204444D01*
X128040097Y-95217800D01*
X128028869Y-95221645D01*
X127986407Y-95233982D01*
X127979585Y-95238016D01*
X127979579Y-95238019D01*
X127968968Y-95244294D01*
X127951218Y-95252990D01*
X127939756Y-95257528D01*
X127939751Y-95257531D01*
X127932383Y-95260448D01*
X127925968Y-95265109D01*
X127896625Y-95286427D01*
X127886707Y-95292943D01*
X127868019Y-95303995D01*
X127848637Y-95315458D01*
X127834313Y-95329782D01*
X127819281Y-95342621D01*
X127802893Y-95354528D01*
X127774712Y-95388593D01*
X127766722Y-95397373D01*
X126015386Y-97148709D01*
X125953074Y-97182735D01*
X125882259Y-97177670D01*
X125825423Y-97135123D01*
X125808309Y-97103843D01*
X125773768Y-97011705D01*
X125773767Y-97011703D01*
X125770615Y-97003295D01*
X125683261Y-96886739D01*
X125566705Y-96799385D01*
X125430316Y-96748255D01*
X125368134Y-96741500D01*
X124071866Y-96741500D01*
X124009684Y-96748255D01*
X123873295Y-96799385D01*
X123756739Y-96886739D01*
X123669385Y-97003295D01*
X123618255Y-97139684D01*
X123611500Y-97201866D01*
X123611500Y-99498134D01*
X123618255Y-99560316D01*
X123669385Y-99696705D01*
X123756739Y-99813261D01*
X123873295Y-99900615D01*
X124009684Y-99951745D01*
X124071866Y-99958500D01*
X125368134Y-99958500D01*
X125430316Y-99951745D01*
X125566705Y-99900615D01*
X125683261Y-99813261D01*
X125770615Y-99696705D01*
X125821745Y-99560316D01*
X125828500Y-99498134D01*
X125828500Y-99070058D01*
X125848502Y-99001937D01*
X125908155Y-98952891D01*
X125909950Y-98952181D01*
X125921142Y-98948351D01*
X125955983Y-98938229D01*
X125955984Y-98938229D01*
X125963593Y-98936018D01*
X125970412Y-98931985D01*
X125970417Y-98931983D01*
X125981028Y-98925707D01*
X125998776Y-98917012D01*
X126017617Y-98909552D01*
X126053387Y-98883564D01*
X126063307Y-98877048D01*
X126094535Y-98858580D01*
X126094538Y-98858578D01*
X126101362Y-98854542D01*
X126115683Y-98840221D01*
X126130717Y-98827380D01*
X126140694Y-98820131D01*
X126147107Y-98815472D01*
X126175298Y-98781395D01*
X126183288Y-98772616D01*
X127221405Y-97734499D01*
X127283717Y-97700473D01*
X127354532Y-97705538D01*
X127411368Y-97748085D01*
X127436179Y-97814605D01*
X127436500Y-97823594D01*
X127436500Y-103597810D01*
X127439441Y-103652692D01*
X127442320Y-103679475D01*
X127442588Y-103681132D01*
X127442590Y-103681143D01*
X127450125Y-103727640D01*
X127450126Y-103727645D01*
X127451116Y-103733752D01*
X127502194Y-103870693D01*
X127504347Y-103874636D01*
X127504348Y-103874638D01*
X127515535Y-103895125D01*
X127536220Y-103933005D01*
X127538915Y-103936605D01*
X127621109Y-104046402D01*
X127621113Y-104046406D01*
X127623806Y-104050004D01*
X128049996Y-104476194D01*
X128090877Y-104512917D01*
X128111851Y-104529820D01*
X128113224Y-104530810D01*
X128151430Y-104558362D01*
X128151435Y-104558365D01*
X128156451Y-104561982D01*
X128289400Y-104622698D01*
X128313154Y-104629673D01*
X128353198Y-104641431D01*
X128353202Y-104641432D01*
X128357521Y-104642700D01*
X128361970Y-104643340D01*
X128361976Y-104643341D01*
X128497743Y-104662861D01*
X128497748Y-104662861D01*
X128502190Y-104663500D01*
X130335012Y-104663500D01*
X130403133Y-104683502D01*
X130449626Y-104737158D01*
X130459708Y-104807280D01*
X130459197Y-104808685D01*
X130458640Y-104813090D01*
X130458639Y-104813098D01*
X130447290Y-104902940D01*
X130436463Y-104988640D01*
X130454163Y-105169160D01*
X130456387Y-105175845D01*
X130493558Y-105287585D01*
X130500000Y-105327357D01*
X130500000Y-106195500D01*
X130479998Y-106263621D01*
X130426342Y-106310114D01*
X130374000Y-106321500D01*
X128801866Y-106321500D01*
X128739684Y-106328255D01*
X128603295Y-106379385D01*
X128486739Y-106466739D01*
X128399385Y-106583295D01*
X128348255Y-106719684D01*
X128341500Y-106781866D01*
X128341500Y-108078134D01*
X128348255Y-108140316D01*
X128399385Y-108276705D01*
X128486739Y-108393261D01*
X128603295Y-108480615D01*
X128739684Y-108531745D01*
X128801866Y-108538500D01*
X130374000Y-108538500D01*
X130442121Y-108558502D01*
X130488614Y-108612158D01*
X130500000Y-108664500D01*
X130500000Y-109174363D01*
X130492401Y-109217458D01*
X130468189Y-109283981D01*
X130459197Y-109308685D01*
X130436463Y-109488640D01*
X130437151Y-109495653D01*
X130446634Y-109592375D01*
X130433374Y-109662122D01*
X130410330Y-109693765D01*
X129891000Y-110213095D01*
X129828688Y-110247121D01*
X129801905Y-110250000D01*
X111552190Y-110250000D01*
X111484069Y-110229998D01*
X111463095Y-110213095D01*
X111036905Y-109786905D01*
X111002879Y-109724593D01*
X111000000Y-109697810D01*
X111000000Y-104448095D01*
X111020002Y-104379974D01*
X111036905Y-104359000D01*
X111051135Y-104344770D01*
X111053615Y-104341573D01*
X111061320Y-104332551D01*
X111086159Y-104306100D01*
X111091586Y-104300321D01*
X111095405Y-104293375D01*
X111095407Y-104293372D01*
X111101348Y-104282566D01*
X111112199Y-104266047D01*
X111119758Y-104256301D01*
X111124614Y-104250041D01*
X111127759Y-104242772D01*
X111127762Y-104242768D01*
X111142174Y-104209463D01*
X111147391Y-104198813D01*
X111168695Y-104160060D01*
X111173733Y-104140437D01*
X111180137Y-104121734D01*
X111185033Y-104110420D01*
X111185033Y-104110419D01*
X111188181Y-104103145D01*
X111189420Y-104095322D01*
X111189423Y-104095312D01*
X111195099Y-104059476D01*
X111197505Y-104047856D01*
X111206528Y-104012711D01*
X111206528Y-104012710D01*
X111208500Y-104005030D01*
X111208500Y-103984776D01*
X111210051Y-103965065D01*
X111211980Y-103952886D01*
X111213220Y-103945057D01*
X111209059Y-103901038D01*
X111208500Y-103889181D01*
X111208500Y-100403763D01*
X111209027Y-100392579D01*
X111210701Y-100385091D01*
X111208562Y-100317032D01*
X111208500Y-100313075D01*
X111208500Y-100285144D01*
X111207994Y-100281138D01*
X111207061Y-100269292D01*
X111205922Y-100233037D01*
X111205673Y-100225110D01*
X111200022Y-100205658D01*
X111196014Y-100186306D01*
X111194468Y-100174068D01*
X111194467Y-100174066D01*
X111193474Y-100166203D01*
X111177194Y-100125086D01*
X111173359Y-100113885D01*
X111161018Y-100071406D01*
X111156985Y-100064587D01*
X111156983Y-100064582D01*
X111150707Y-100053971D01*
X111142010Y-100036221D01*
X111134552Y-100017383D01*
X111108571Y-99981623D01*
X111102053Y-99971701D01*
X111083580Y-99940463D01*
X111083575Y-99940457D01*
X111079542Y-99933637D01*
X111074104Y-99928199D01*
X111048486Y-99865115D01*
X111044182Y-99826746D01*
X111043397Y-99819745D01*
X111007009Y-99715253D01*
X111000000Y-99673816D01*
X111000000Y-86948094D01*
X111020002Y-86879973D01*
X111036905Y-86858999D01*
X111142247Y-86753657D01*
X111150537Y-86746113D01*
X111157018Y-86742000D01*
X111203659Y-86692332D01*
X111206413Y-86689491D01*
X111226134Y-86669770D01*
X111228612Y-86666575D01*
X111236318Y-86657553D01*
X111261158Y-86631101D01*
X111266586Y-86625321D01*
X111276346Y-86607568D01*
X111287199Y-86591045D01*
X111294753Y-86581306D01*
X111299613Y-86575041D01*
X111317176Y-86534457D01*
X111322383Y-86523827D01*
X111343695Y-86485060D01*
X111345666Y-86477383D01*
X111345668Y-86477378D01*
X111348732Y-86465442D01*
X111355138Y-86446730D01*
X111360033Y-86435419D01*
X111363181Y-86428145D01*
X111364421Y-86420317D01*
X111364423Y-86420310D01*
X111370099Y-86384476D01*
X111372505Y-86372856D01*
X111381528Y-86337711D01*
X111381528Y-86337710D01*
X111383500Y-86330030D01*
X111383500Y-86309776D01*
X111385051Y-86290065D01*
X111386980Y-86277886D01*
X111388220Y-86270057D01*
X111384059Y-86226038D01*
X111383500Y-86214181D01*
X111383500Y-85668690D01*
X111403502Y-85600569D01*
X111420405Y-85579595D01*
X111463095Y-85536905D01*
X111525407Y-85502879D01*
X111552190Y-85500000D01*
X129947810Y-85500000D01*
X130015931Y-85520002D01*
G37*
%TD.AperFunction*%
%TD*%
%TA.AperFunction,Conductor*%
%TO.N,VDD*%
G36*
X167515931Y-72520002D02*
G01*
X167536905Y-72536905D01*
X169463095Y-74463095D01*
X169497121Y-74525407D01*
X169500000Y-74552190D01*
X169500000Y-145947810D01*
X169479998Y-146015931D01*
X169463095Y-146036905D01*
X167536905Y-147963095D01*
X167474593Y-147997121D01*
X167447810Y-148000000D01*
X118552190Y-148000000D01*
X118484069Y-147979998D01*
X118463095Y-147963095D01*
X116536905Y-146036905D01*
X116502879Y-145974593D01*
X116500000Y-145947810D01*
X116500000Y-145698134D01*
X125091500Y-145698134D01*
X125098255Y-145760316D01*
X125149385Y-145896705D01*
X125236739Y-146013261D01*
X125353295Y-146100615D01*
X125489684Y-146151745D01*
X125551866Y-146158500D01*
X129448134Y-146158500D01*
X129510316Y-146151745D01*
X129646705Y-146100615D01*
X129763261Y-146013261D01*
X129850615Y-145896705D01*
X129901745Y-145760316D01*
X129908500Y-145698135D01*
X138591500Y-145698135D01*
X138598255Y-145760317D01*
X138649385Y-145896706D01*
X138736739Y-146013262D01*
X138853295Y-146100616D01*
X138989684Y-146151746D01*
X139051866Y-146158501D01*
X142948134Y-146158501D01*
X143010316Y-146151746D01*
X143146705Y-146100616D01*
X143263261Y-146013262D01*
X143350615Y-145896706D01*
X143401745Y-145760317D01*
X143408500Y-145698135D01*
X143408500Y-145698134D01*
X152091500Y-145698134D01*
X152098255Y-145760316D01*
X152149385Y-145896705D01*
X152236739Y-146013261D01*
X152353295Y-146100615D01*
X152489684Y-146151745D01*
X152551866Y-146158500D01*
X156448134Y-146158500D01*
X156510316Y-146151745D01*
X156646705Y-146100615D01*
X156763261Y-146013261D01*
X156850615Y-145896705D01*
X156901745Y-145760316D01*
X156908500Y-145698134D01*
X156908500Y-144906178D01*
X164493476Y-144906178D01*
X164510025Y-145193192D01*
X164510850Y-145197397D01*
X164510851Y-145197405D01*
X164542797Y-145360230D01*
X164565373Y-145475304D01*
X164566760Y-145479354D01*
X164566761Y-145479359D01*
X164657108Y-145743239D01*
X164658497Y-145747295D01*
X164668767Y-145767715D01*
X164748097Y-145925444D01*
X164787672Y-146004131D01*
X164950508Y-146241059D01*
X165143993Y-146453697D01*
X165147288Y-146456452D01*
X165147289Y-146456453D01*
X165198045Y-146498891D01*
X165364546Y-146638107D01*
X165608085Y-146790880D01*
X165870105Y-146909186D01*
X165874224Y-146910406D01*
X166141644Y-146989620D01*
X166141649Y-146989621D01*
X166145757Y-146990838D01*
X166149991Y-146991486D01*
X166149996Y-146991487D01*
X166398598Y-147029528D01*
X166429940Y-147034324D01*
X166576272Y-147036623D01*
X166713104Y-147038773D01*
X166713110Y-147038773D01*
X166717395Y-147038840D01*
X166721647Y-147038325D01*
X166721655Y-147038325D01*
X166998543Y-147004817D01*
X166998548Y-147004816D01*
X167002804Y-147004301D01*
X167205369Y-146951159D01*
X167276741Y-146932435D01*
X167276742Y-146932435D01*
X167280884Y-146931348D01*
X167546491Y-146821330D01*
X167794709Y-146676283D01*
X168020946Y-146498891D01*
X168059255Y-146459360D01*
X168218031Y-146295515D01*
X168221014Y-146292437D01*
X168223547Y-146288989D01*
X168223551Y-146288984D01*
X168388674Y-146064195D01*
X168391212Y-146060740D01*
X168393258Y-146056972D01*
X168526341Y-145811864D01*
X168526342Y-145811862D01*
X168528391Y-145808088D01*
X168630012Y-145539157D01*
X168694194Y-145258922D01*
X168708462Y-145099057D01*
X168719530Y-144975035D01*
X168719530Y-144975033D01*
X168719750Y-144972569D01*
X168720214Y-144928309D01*
X168700660Y-144641484D01*
X168696123Y-144619573D01*
X168643230Y-144364164D01*
X168642361Y-144359967D01*
X168546394Y-144088966D01*
X168414537Y-143833497D01*
X168401275Y-143814626D01*
X168251691Y-143601791D01*
X168249228Y-143598286D01*
X168053527Y-143387687D01*
X167831055Y-143205596D01*
X167585929Y-143055382D01*
X167567835Y-143047439D01*
X167326617Y-142941552D01*
X167322685Y-142939826D01*
X167296750Y-142932438D01*
X167050321Y-142862241D01*
X167050322Y-142862241D01*
X167046193Y-142861065D01*
X166833491Y-142830794D01*
X166765823Y-142821163D01*
X166765821Y-142821163D01*
X166761571Y-142820558D01*
X166757282Y-142820536D01*
X166757275Y-142820535D01*
X166478370Y-142819074D01*
X166478363Y-142819074D01*
X166474084Y-142819052D01*
X166469840Y-142819611D01*
X166469836Y-142819611D01*
X166344447Y-142836119D01*
X166189053Y-142856577D01*
X166184913Y-142857710D01*
X166184911Y-142857710D01*
X166108098Y-142878724D01*
X165911751Y-142932438D01*
X165907803Y-142934122D01*
X165651263Y-143043546D01*
X165651259Y-143043548D01*
X165647311Y-143045232D01*
X165522747Y-143119782D01*
X165404308Y-143190666D01*
X165404304Y-143190669D01*
X165400626Y-143192870D01*
X165176259Y-143372622D01*
X164978364Y-143581160D01*
X164810601Y-143814626D01*
X164676075Y-144068701D01*
X164577276Y-144338682D01*
X164516032Y-144619573D01*
X164515696Y-144623843D01*
X164493983Y-144899737D01*
X164493982Y-144899737D01*
X164493983Y-144899739D01*
X164493476Y-144906178D01*
X156908500Y-144906178D01*
X156908500Y-141801866D01*
X156901745Y-141739684D01*
X156850615Y-141603295D01*
X156763261Y-141486739D01*
X156646705Y-141399385D01*
X156510316Y-141348255D01*
X156448134Y-141341500D01*
X152551866Y-141341500D01*
X152489684Y-141348255D01*
X152353295Y-141399385D01*
X152236739Y-141486739D01*
X152149385Y-141603295D01*
X152098255Y-141739684D01*
X152091500Y-141801866D01*
X152091500Y-145698134D01*
X143408500Y-145698134D01*
X143408500Y-141801867D01*
X143401745Y-141739685D01*
X143350615Y-141603296D01*
X143263261Y-141486740D01*
X143146705Y-141399386D01*
X143010316Y-141348256D01*
X142948134Y-141341501D01*
X139051866Y-141341501D01*
X138989684Y-141348256D01*
X138853295Y-141399386D01*
X138736739Y-141486740D01*
X138649385Y-141603296D01*
X138598255Y-141739685D01*
X138591500Y-141801867D01*
X138591500Y-145698135D01*
X129908500Y-145698135D01*
X129908500Y-145698134D01*
X129908500Y-141801866D01*
X129901745Y-141739684D01*
X129850615Y-141603295D01*
X129763261Y-141486739D01*
X129646705Y-141399385D01*
X129510316Y-141348255D01*
X129448134Y-141341500D01*
X125551866Y-141341500D01*
X125489684Y-141348255D01*
X125353295Y-141399385D01*
X125236739Y-141486739D01*
X125149385Y-141603295D01*
X125098255Y-141739684D01*
X125091500Y-141801866D01*
X125091500Y-145698134D01*
X116500000Y-145698134D01*
X116500000Y-136198133D01*
X125091500Y-136198133D01*
X125098255Y-136260315D01*
X125149385Y-136396704D01*
X125236739Y-136513260D01*
X125353295Y-136600614D01*
X125489684Y-136651744D01*
X125551866Y-136658499D01*
X129448134Y-136658499D01*
X129510316Y-136651744D01*
X129646705Y-136600614D01*
X129763261Y-136513260D01*
X129850615Y-136396704D01*
X129901745Y-136260315D01*
X129908500Y-136198134D01*
X138591500Y-136198134D01*
X138598255Y-136260316D01*
X138649385Y-136396705D01*
X138736739Y-136513261D01*
X138853295Y-136600615D01*
X138989684Y-136651745D01*
X139051866Y-136658500D01*
X142948134Y-136658500D01*
X143010316Y-136651745D01*
X143146705Y-136600615D01*
X143263261Y-136513261D01*
X143350615Y-136396705D01*
X143401745Y-136260316D01*
X143408500Y-136198134D01*
X152091500Y-136198134D01*
X152098255Y-136260316D01*
X152149385Y-136396705D01*
X152236739Y-136513261D01*
X152353295Y-136600615D01*
X152489684Y-136651745D01*
X152551866Y-136658500D01*
X156448134Y-136658500D01*
X156510316Y-136651745D01*
X156646705Y-136600615D01*
X156763261Y-136513261D01*
X156850615Y-136396705D01*
X156901745Y-136260316D01*
X156908500Y-136198134D01*
X156908500Y-132301866D01*
X156901745Y-132239684D01*
X156850615Y-132103295D01*
X156763261Y-131986739D01*
X156646705Y-131899385D01*
X156510316Y-131848255D01*
X156448134Y-131841500D01*
X152551866Y-131841500D01*
X152489684Y-131848255D01*
X152353295Y-131899385D01*
X152236739Y-131986739D01*
X152149385Y-132103295D01*
X152098255Y-132239684D01*
X152091500Y-132301866D01*
X152091500Y-136198134D01*
X143408500Y-136198134D01*
X143408500Y-132301866D01*
X143401745Y-132239684D01*
X143350615Y-132103295D01*
X143263261Y-131986739D01*
X143146705Y-131899385D01*
X143010316Y-131848255D01*
X142948134Y-131841500D01*
X139051866Y-131841500D01*
X138989684Y-131848255D01*
X138853295Y-131899385D01*
X138736739Y-131986739D01*
X138649385Y-132103295D01*
X138598255Y-132239684D01*
X138591500Y-132301866D01*
X138591500Y-136198134D01*
X129908500Y-136198134D01*
X129908500Y-136198133D01*
X129908500Y-132301865D01*
X129901745Y-132239683D01*
X129850615Y-132103294D01*
X129763261Y-131986738D01*
X129646705Y-131899384D01*
X129510316Y-131848254D01*
X129448134Y-131841499D01*
X125551866Y-131841499D01*
X125489684Y-131848254D01*
X125353295Y-131899384D01*
X125236739Y-131986738D01*
X125149385Y-132103294D01*
X125098255Y-132239683D01*
X125091500Y-132301865D01*
X125091500Y-136198133D01*
X116500000Y-136198133D01*
X116500000Y-128275063D01*
X116509591Y-128226845D01*
X116774175Y-127588084D01*
X116801489Y-127547207D01*
X121150562Y-123198134D01*
X151591500Y-123198134D01*
X151598255Y-123260316D01*
X151649385Y-123396705D01*
X151736739Y-123513261D01*
X151853295Y-123600615D01*
X151989684Y-123651745D01*
X152051866Y-123658500D01*
X155948134Y-123658500D01*
X156010316Y-123651745D01*
X156146705Y-123600615D01*
X156263261Y-123513261D01*
X156350615Y-123396705D01*
X156401745Y-123260316D01*
X156408500Y-123198134D01*
X161091500Y-123198134D01*
X161098255Y-123260316D01*
X161149385Y-123396705D01*
X161236739Y-123513261D01*
X161353295Y-123600615D01*
X161489684Y-123651745D01*
X161551866Y-123658500D01*
X165448134Y-123658500D01*
X165510316Y-123651745D01*
X165646705Y-123600615D01*
X165763261Y-123513261D01*
X165850615Y-123396705D01*
X165901745Y-123260316D01*
X165908500Y-123198134D01*
X165908500Y-119301866D01*
X165901745Y-119239684D01*
X165850615Y-119103295D01*
X165763261Y-118986739D01*
X165646705Y-118899385D01*
X165510316Y-118848255D01*
X165448134Y-118841500D01*
X161551866Y-118841500D01*
X161489684Y-118848255D01*
X161353295Y-118899385D01*
X161236739Y-118986739D01*
X161149385Y-119103295D01*
X161098255Y-119239684D01*
X161091500Y-119301866D01*
X161091500Y-123198134D01*
X156408500Y-123198134D01*
X156408500Y-119301866D01*
X156401745Y-119239684D01*
X156350615Y-119103295D01*
X156263261Y-118986739D01*
X156146705Y-118899385D01*
X156010316Y-118848255D01*
X155948134Y-118841500D01*
X152051866Y-118841500D01*
X151989684Y-118848255D01*
X151853295Y-118899385D01*
X151736739Y-118986739D01*
X151649385Y-119103295D01*
X151598255Y-119239684D01*
X151591500Y-119301866D01*
X151591500Y-123198134D01*
X121150562Y-123198134D01*
X133602247Y-110746449D01*
X133610537Y-110738905D01*
X133617018Y-110734792D01*
X133663659Y-110685124D01*
X133666413Y-110682283D01*
X133686135Y-110662561D01*
X133688612Y-110659368D01*
X133696317Y-110650347D01*
X133726586Y-110618113D01*
X133730407Y-110611163D01*
X133736346Y-110600360D01*
X133747202Y-110583833D01*
X133754757Y-110574094D01*
X133754758Y-110574092D01*
X133759614Y-110567832D01*
X133777174Y-110527252D01*
X133782391Y-110516604D01*
X133799875Y-110484801D01*
X133799876Y-110484799D01*
X133803695Y-110477852D01*
X133808733Y-110458229D01*
X133815137Y-110439526D01*
X133820033Y-110428212D01*
X133820033Y-110428211D01*
X133823181Y-110420937D01*
X133824420Y-110413114D01*
X133824423Y-110413104D01*
X133830099Y-110377268D01*
X133832505Y-110365648D01*
X133841528Y-110330503D01*
X133841528Y-110330502D01*
X133843500Y-110322822D01*
X133843500Y-110302568D01*
X133845051Y-110282857D01*
X133846980Y-110270678D01*
X133848220Y-110262849D01*
X133844059Y-110218830D01*
X133843500Y-110206973D01*
X133843500Y-109948134D01*
X151591500Y-109948134D01*
X151598255Y-110010316D01*
X151649385Y-110146705D01*
X151736739Y-110263261D01*
X151853295Y-110350615D01*
X151989684Y-110401745D01*
X152051866Y-110408500D01*
X155948134Y-110408500D01*
X156010316Y-110401745D01*
X156146705Y-110350615D01*
X156263261Y-110263261D01*
X156350615Y-110146705D01*
X156401745Y-110010316D01*
X156408500Y-109948134D01*
X161091500Y-109948134D01*
X161098255Y-110010316D01*
X161149385Y-110146705D01*
X161236739Y-110263261D01*
X161353295Y-110350615D01*
X161489684Y-110401745D01*
X161551866Y-110408500D01*
X165448134Y-110408500D01*
X165510316Y-110401745D01*
X165646705Y-110350615D01*
X165763261Y-110263261D01*
X165850615Y-110146705D01*
X165901745Y-110010316D01*
X165908500Y-109948134D01*
X165908500Y-106051866D01*
X165901745Y-105989684D01*
X165850615Y-105853295D01*
X165763261Y-105736739D01*
X165646705Y-105649385D01*
X165510316Y-105598255D01*
X165448134Y-105591500D01*
X161551866Y-105591500D01*
X161489684Y-105598255D01*
X161353295Y-105649385D01*
X161236739Y-105736739D01*
X161149385Y-105853295D01*
X161098255Y-105989684D01*
X161091500Y-106051866D01*
X161091500Y-109948134D01*
X156408500Y-109948134D01*
X156408500Y-106051866D01*
X156401745Y-105989684D01*
X156350615Y-105853295D01*
X156263261Y-105736739D01*
X156146705Y-105649385D01*
X156010316Y-105598255D01*
X155948134Y-105591500D01*
X152051866Y-105591500D01*
X151989684Y-105598255D01*
X151853295Y-105649385D01*
X151736739Y-105736739D01*
X151649385Y-105853295D01*
X151598255Y-105989684D01*
X151591500Y-106051866D01*
X151591500Y-109948134D01*
X133843500Y-109948134D01*
X133843500Y-105984500D01*
X133863502Y-105916379D01*
X133917158Y-105869886D01*
X133969500Y-105858500D01*
X135366233Y-105858500D01*
X135377416Y-105859027D01*
X135384909Y-105860702D01*
X135392835Y-105860453D01*
X135392836Y-105860453D01*
X135452986Y-105858562D01*
X135456945Y-105858500D01*
X135484856Y-105858500D01*
X135488791Y-105858003D01*
X135488856Y-105857995D01*
X135500693Y-105857062D01*
X135532951Y-105856048D01*
X135536970Y-105855922D01*
X135544889Y-105855673D01*
X135564343Y-105850021D01*
X135583700Y-105846013D01*
X135595930Y-105844468D01*
X135595931Y-105844468D01*
X135603797Y-105843474D01*
X135611168Y-105840555D01*
X135611170Y-105840555D01*
X135644912Y-105827196D01*
X135656142Y-105823351D01*
X135690983Y-105813229D01*
X135690984Y-105813229D01*
X135698593Y-105811018D01*
X135705412Y-105806985D01*
X135705417Y-105806983D01*
X135716028Y-105800707D01*
X135733776Y-105792012D01*
X135752617Y-105784552D01*
X135788387Y-105758564D01*
X135798307Y-105752048D01*
X135829535Y-105733580D01*
X135829538Y-105733578D01*
X135836362Y-105729542D01*
X135850683Y-105715221D01*
X135865717Y-105702380D01*
X135875694Y-105695131D01*
X135882107Y-105690472D01*
X135910298Y-105656395D01*
X135918288Y-105647616D01*
X137787081Y-103778823D01*
X137849393Y-103744797D01*
X137920208Y-103749862D01*
X137977044Y-103792409D01*
X137978794Y-103795128D01*
X137979385Y-103796705D01*
X138066739Y-103913261D01*
X138183295Y-104000615D01*
X138319684Y-104051745D01*
X138381866Y-104058500D01*
X139678134Y-104058500D01*
X139740316Y-104051745D01*
X139876705Y-104000615D01*
X139993261Y-103913261D01*
X140080615Y-103796705D01*
X140131745Y-103660316D01*
X140138500Y-103598134D01*
X140138500Y-101301866D01*
X140131745Y-101239684D01*
X140080615Y-101103295D01*
X139993261Y-100986739D01*
X139876705Y-100899385D01*
X139740316Y-100848255D01*
X139678134Y-100841500D01*
X138381866Y-100841500D01*
X138319684Y-100848255D01*
X138183295Y-100899385D01*
X138066739Y-100986739D01*
X137979385Y-101103295D01*
X137928255Y-101239684D01*
X137921500Y-101301866D01*
X137921500Y-101818671D01*
X137901498Y-101886792D01*
X137859639Y-101927124D01*
X137835465Y-101941420D01*
X137835462Y-101941422D01*
X137828638Y-101945458D01*
X137814317Y-101959779D01*
X137799284Y-101972619D01*
X137782893Y-101984528D01*
X137777842Y-101990634D01*
X137754702Y-102018605D01*
X137746712Y-102027384D01*
X137318595Y-102455501D01*
X137256283Y-102489527D01*
X137185468Y-102484462D01*
X137128632Y-102441915D01*
X137103821Y-102375395D01*
X137103500Y-102366406D01*
X137103500Y-96698134D01*
X151591500Y-96698134D01*
X151598255Y-96760316D01*
X151649385Y-96896705D01*
X151736739Y-97013261D01*
X151853295Y-97100615D01*
X151989684Y-97151745D01*
X152051866Y-97158500D01*
X155948134Y-97158500D01*
X156010316Y-97151745D01*
X156146705Y-97100615D01*
X156263261Y-97013261D01*
X156350615Y-96896705D01*
X156401745Y-96760316D01*
X156408500Y-96698134D01*
X161091500Y-96698134D01*
X161098255Y-96760316D01*
X161149385Y-96896705D01*
X161236739Y-97013261D01*
X161353295Y-97100615D01*
X161489684Y-97151745D01*
X161551866Y-97158500D01*
X165448134Y-97158500D01*
X165510316Y-97151745D01*
X165646705Y-97100615D01*
X165763261Y-97013261D01*
X165850615Y-96896705D01*
X165901745Y-96760316D01*
X165908500Y-96698134D01*
X165908500Y-92801866D01*
X165901745Y-92739684D01*
X165850615Y-92603295D01*
X165763261Y-92486739D01*
X165646705Y-92399385D01*
X165510316Y-92348255D01*
X165448134Y-92341500D01*
X161551866Y-92341500D01*
X161489684Y-92348255D01*
X161353295Y-92399385D01*
X161236739Y-92486739D01*
X161149385Y-92603295D01*
X161098255Y-92739684D01*
X161091500Y-92801866D01*
X161091500Y-96698134D01*
X156408500Y-96698134D01*
X156408500Y-92801866D01*
X156401745Y-92739684D01*
X156350615Y-92603295D01*
X156263261Y-92486739D01*
X156146705Y-92399385D01*
X156010316Y-92348255D01*
X155948134Y-92341500D01*
X152051866Y-92341500D01*
X151989684Y-92348255D01*
X151853295Y-92399385D01*
X151736739Y-92486739D01*
X151649385Y-92603295D01*
X151598255Y-92739684D01*
X151591500Y-92801866D01*
X151591500Y-96698134D01*
X137103500Y-96698134D01*
X137103500Y-95888767D01*
X137104027Y-95877584D01*
X137105702Y-95870091D01*
X137103562Y-95802014D01*
X137103500Y-95798055D01*
X137103500Y-95770144D01*
X137102995Y-95766144D01*
X137102062Y-95754301D01*
X137101493Y-95736179D01*
X137100673Y-95710110D01*
X137095022Y-95690658D01*
X137091014Y-95671306D01*
X137089467Y-95659063D01*
X137088474Y-95651203D01*
X137072694Y-95611346D01*
X137072200Y-95610097D01*
X137068355Y-95598870D01*
X137063952Y-95583717D01*
X137056018Y-95556407D01*
X137051984Y-95549585D01*
X137051981Y-95549579D01*
X137045706Y-95538968D01*
X137037010Y-95521218D01*
X137032472Y-95509756D01*
X137032469Y-95509751D01*
X137029552Y-95502383D01*
X137003573Y-95466625D01*
X136997057Y-95456707D01*
X136978575Y-95425457D01*
X136974542Y-95418637D01*
X136960218Y-95404313D01*
X136947376Y-95389278D01*
X136935472Y-95372893D01*
X136901406Y-95344711D01*
X136892627Y-95336722D01*
X135442911Y-93887006D01*
X135408885Y-93824694D01*
X135406743Y-93784305D01*
X135408500Y-93768134D01*
X135408500Y-92471866D01*
X135401745Y-92409684D01*
X135350615Y-92273295D01*
X135263261Y-92156739D01*
X135146705Y-92069385D01*
X135010316Y-92018255D01*
X134948134Y-92011500D01*
X133006107Y-92011500D01*
X132937986Y-91991498D01*
X132891493Y-91937842D01*
X132880110Y-91886346D01*
X132763775Y-74552393D01*
X132783319Y-74484139D01*
X132800378Y-74462751D01*
X134713045Y-72537204D01*
X134775243Y-72502970D01*
X134802439Y-72500000D01*
X167447810Y-72500000D01*
X167515931Y-72520002D01*
G37*
%TD.AperFunction*%
%TD*%
%TA.AperFunction,Conductor*%
%TO.N,/RelayIN*%
G36*
X100265931Y-66270002D02*
G01*
X100286905Y-66286905D01*
X100700496Y-66700496D01*
X100734522Y-66762808D01*
X100737060Y-66798296D01*
X100736500Y-66802190D01*
X100736500Y-77947810D01*
X100739441Y-78002692D01*
X100742320Y-78029475D01*
X100742588Y-78031132D01*
X100742590Y-78031143D01*
X100748377Y-78066851D01*
X100750000Y-78087007D01*
X100750000Y-85106986D01*
X100749870Y-85112702D01*
X100736941Y-85397404D01*
X100737304Y-85401552D01*
X100737304Y-85401556D01*
X100749521Y-85541190D01*
X100750000Y-85552172D01*
X100750000Y-96447810D01*
X100729998Y-96515931D01*
X100713095Y-96536905D01*
X100286905Y-96963095D01*
X100224593Y-96997121D01*
X100197810Y-97000000D01*
X87302190Y-97000000D01*
X87234069Y-96979998D01*
X87213095Y-96963095D01*
X86786905Y-96536905D01*
X86752879Y-96474593D01*
X86750000Y-96447810D01*
X86750000Y-66802190D01*
X86770002Y-66734069D01*
X86786905Y-66713095D01*
X87213095Y-66286905D01*
X87275407Y-66252879D01*
X87302190Y-66250000D01*
X100197810Y-66250000D01*
X100265931Y-66270002D01*
G37*
%TD.AperFunction*%
%TD*%
%TA.AperFunction,Conductor*%
%TO.N,GND*%
G36*
X168576807Y-50438310D02*
G01*
X168591640Y-50440620D01*
X168591644Y-50440620D01*
X168600513Y-50442001D01*
X168617711Y-50439752D01*
X168641652Y-50438919D01*
X168899500Y-50454515D01*
X168914605Y-50456349D01*
X169195546Y-50507832D01*
X169210319Y-50511473D01*
X169483016Y-50596448D01*
X169497233Y-50601839D01*
X169757712Y-50719071D01*
X169771168Y-50726134D01*
X170015603Y-50873900D01*
X170028124Y-50882543D01*
X170252962Y-51058692D01*
X170264351Y-51068781D01*
X170466317Y-51270746D01*
X170476407Y-51282136D01*
X170652556Y-51506974D01*
X170661199Y-51519495D01*
X170808965Y-51763930D01*
X170816028Y-51777386D01*
X170933258Y-52037861D01*
X170938651Y-52052082D01*
X171023626Y-52324778D01*
X171027267Y-52339551D01*
X171078751Y-52620494D01*
X171080585Y-52635598D01*
X171094223Y-52861066D01*
X171095743Y-52886200D01*
X171094479Y-52913055D01*
X171094478Y-52913157D01*
X171093096Y-52922032D01*
X171094260Y-52930934D01*
X171094260Y-52930936D01*
X171097223Y-52953591D01*
X171098287Y-52969929D01*
X171098287Y-146878942D01*
X171096787Y-146898328D01*
X171096056Y-146903025D01*
X171093096Y-146922032D01*
X171095345Y-146939227D01*
X171096178Y-146963171D01*
X171080580Y-147221016D01*
X171078746Y-147236120D01*
X171027262Y-147517059D01*
X171023621Y-147531833D01*
X170938645Y-147804528D01*
X170933251Y-147818750D01*
X170875080Y-147948000D01*
X170816025Y-148079212D01*
X170808954Y-148092684D01*
X170661192Y-148337110D01*
X170652550Y-148349630D01*
X170555139Y-148473966D01*
X170476399Y-148574470D01*
X170466309Y-148585859D01*
X170264340Y-148787825D01*
X170252951Y-148797914D01*
X170028122Y-148974055D01*
X170015600Y-148982699D01*
X169771165Y-149130464D01*
X169757694Y-149137534D01*
X169497221Y-149254762D01*
X169483013Y-149260150D01*
X169238641Y-149336298D01*
X169210317Y-149345124D01*
X169195544Y-149348765D01*
X168914602Y-149400249D01*
X168899497Y-149402083D01*
X168835053Y-149405981D01*
X168648774Y-149417248D01*
X168622412Y-149416007D01*
X168621941Y-149416001D01*
X168613065Y-149414619D01*
X168604162Y-149415783D01*
X168604155Y-149415783D01*
X168581495Y-149418746D01*
X168565159Y-149419810D01*
X88656155Y-149419810D01*
X88636769Y-149418310D01*
X88621937Y-149416000D01*
X88621934Y-149416000D01*
X88613065Y-149414619D01*
X88595866Y-149416868D01*
X88571925Y-149417701D01*
X88314081Y-149402103D01*
X88298976Y-149400269D01*
X88018034Y-149348783D01*
X88003262Y-149345142D01*
X87730564Y-149260166D01*
X87716337Y-149254770D01*
X87716309Y-149254757D01*
X87455883Y-149137548D01*
X87442412Y-149130478D01*
X87197982Y-148982715D01*
X87185460Y-148974072D01*
X86960621Y-148797921D01*
X86949232Y-148787831D01*
X86747267Y-148585865D01*
X86737178Y-148574477D01*
X86688905Y-148512861D01*
X86561026Y-148349636D01*
X86552384Y-148337116D01*
X86545782Y-148326194D01*
X86404620Y-148092684D01*
X86397550Y-148079213D01*
X86280329Y-147818760D01*
X86274933Y-147804534D01*
X86189956Y-147531836D01*
X86186315Y-147517062D01*
X86186315Y-147517059D01*
X86134831Y-147236120D01*
X86132997Y-147221017D01*
X86117836Y-146970397D01*
X86119095Y-146943631D01*
X86119097Y-146943459D01*
X86120479Y-146934584D01*
X86118018Y-146915760D01*
X86116352Y-146903025D01*
X86115288Y-146886687D01*
X86115288Y-144906179D01*
X88493476Y-144906179D01*
X88510025Y-145193193D01*
X88510850Y-145197398D01*
X88510851Y-145197406D01*
X88542797Y-145360231D01*
X88565373Y-145475305D01*
X88566760Y-145479355D01*
X88566761Y-145479360D01*
X88642344Y-145700117D01*
X88658497Y-145747296D01*
X88660424Y-145751127D01*
X88761582Y-145952257D01*
X88787672Y-146004132D01*
X88950508Y-146241060D01*
X88953395Y-146244233D01*
X88953396Y-146244234D01*
X89038852Y-146338149D01*
X89143993Y-146453698D01*
X89147288Y-146456453D01*
X89147289Y-146456454D01*
X89198045Y-146498892D01*
X89364546Y-146638108D01*
X89608085Y-146790881D01*
X89870105Y-146909187D01*
X89874224Y-146910407D01*
X90141644Y-146989621D01*
X90141649Y-146989622D01*
X90145757Y-146990839D01*
X90149991Y-146991487D01*
X90149996Y-146991488D01*
X90398598Y-147029529D01*
X90429940Y-147034325D01*
X90576272Y-147036624D01*
X90713104Y-147038774D01*
X90713110Y-147038774D01*
X90717395Y-147038841D01*
X90721647Y-147038326D01*
X90721655Y-147038326D01*
X90998543Y-147004818D01*
X90998548Y-147004817D01*
X91002804Y-147004302D01*
X91280884Y-146931349D01*
X91546491Y-146821331D01*
X91794709Y-146676284D01*
X92020946Y-146498892D01*
X92062072Y-146456454D01*
X92178047Y-146336776D01*
X92221014Y-146292438D01*
X92223547Y-146288990D01*
X92223551Y-146288985D01*
X92388674Y-146064196D01*
X92391212Y-146060741D01*
X92393258Y-146056973D01*
X92526341Y-145811865D01*
X92526342Y-145811863D01*
X92528391Y-145808089D01*
X92590017Y-145645001D01*
X92628494Y-145543176D01*
X92628495Y-145543172D01*
X92630012Y-145539158D01*
X92686467Y-145292660D01*
X92693236Y-145263107D01*
X92693237Y-145263103D01*
X92694194Y-145258923D01*
X92708462Y-145099058D01*
X92719530Y-144975036D01*
X92719530Y-144975034D01*
X92719750Y-144972570D01*
X92720214Y-144928310D01*
X92706654Y-144729400D01*
X92700952Y-144645762D01*
X92700951Y-144645756D01*
X92700660Y-144641485D01*
X92696123Y-144619574D01*
X92643230Y-144364165D01*
X92642361Y-144359968D01*
X92546394Y-144088967D01*
X92414537Y-143833498D01*
X92401275Y-143814627D01*
X92258773Y-143611868D01*
X92249228Y-143598287D01*
X92176393Y-143519907D01*
X92056448Y-143390831D01*
X92056445Y-143390829D01*
X92053527Y-143387688D01*
X91831055Y-143205597D01*
X91585929Y-143055383D01*
X91567835Y-143047440D01*
X91387817Y-142968418D01*
X102486994Y-142968418D01*
X102514241Y-143193568D01*
X102515891Y-143198930D01*
X102515891Y-143198932D01*
X102518777Y-143208313D01*
X102580927Y-143410336D01*
X102684946Y-143611868D01*
X102823009Y-143791796D01*
X102844266Y-143811138D01*
X102986605Y-143940657D01*
X102986608Y-143940659D01*
X102990752Y-143944430D01*
X102995503Y-143947411D01*
X102995504Y-143947411D01*
X103178118Y-144061965D01*
X103178122Y-144061967D01*
X103182874Y-144064948D01*
X103393301Y-144149539D01*
X103615382Y-144195530D01*
X103619993Y-144195796D01*
X103619994Y-144195796D01*
X103671121Y-144198744D01*
X103671125Y-144198744D01*
X103672944Y-144198849D01*
X106295535Y-144198849D01*
X106298322Y-144198600D01*
X106298328Y-144198600D01*
X106368506Y-144192336D01*
X106463895Y-144183823D01*
X106682651Y-144123979D01*
X106687709Y-144121567D01*
X106687713Y-144121565D01*
X106882284Y-144028759D01*
X106882285Y-144028758D01*
X106887351Y-144026342D01*
X106891913Y-144023064D01*
X107066966Y-143897275D01*
X107066968Y-143897273D01*
X107071526Y-143893998D01*
X107229355Y-143731132D01*
X107312845Y-143606885D01*
X107352721Y-143547544D01*
X107352724Y-143547539D01*
X107355847Y-143542891D01*
X107447007Y-143335225D01*
X107455110Y-143301471D01*
X107498640Y-143120157D01*
X107498641Y-143120151D01*
X107499950Y-143114698D01*
X107510034Y-142939827D01*
X107512683Y-142893886D01*
X107512683Y-142893883D01*
X107513006Y-142888280D01*
X107485759Y-142663130D01*
X107419073Y-142446362D01*
X107315054Y-142244830D01*
X107176991Y-142064902D01*
X107027262Y-141928659D01*
X107013395Y-141916041D01*
X107013392Y-141916039D01*
X107009248Y-141912268D01*
X106949841Y-141875002D01*
X106821882Y-141794733D01*
X106821878Y-141794731D01*
X106817126Y-141791750D01*
X106606699Y-141707159D01*
X106384618Y-141661168D01*
X106380007Y-141660902D01*
X106380006Y-141660902D01*
X106328879Y-141657954D01*
X106328875Y-141657954D01*
X106327056Y-141657849D01*
X103704465Y-141657849D01*
X103701678Y-141658098D01*
X103701672Y-141658098D01*
X103631494Y-141664362D01*
X103536105Y-141672875D01*
X103317349Y-141732719D01*
X103312291Y-141735131D01*
X103312287Y-141735133D01*
X103187334Y-141794733D01*
X103112649Y-141830356D01*
X103108088Y-141833633D01*
X103108087Y-141833634D01*
X102975847Y-141928659D01*
X102928474Y-141962700D01*
X102770645Y-142125566D01*
X102767518Y-142130220D01*
X102647279Y-142309154D01*
X102647276Y-142309159D01*
X102644153Y-142313807D01*
X102552993Y-142521473D01*
X102551683Y-142526930D01*
X102501360Y-142736541D01*
X102501359Y-142736547D01*
X102500050Y-142742000D01*
X102499727Y-142747606D01*
X102488643Y-142939827D01*
X102486994Y-142968418D01*
X91387817Y-142968418D01*
X91326617Y-142941553D01*
X91322685Y-142939827D01*
X91296750Y-142932439D01*
X91050321Y-142862242D01*
X91050322Y-142862242D01*
X91046193Y-142861066D01*
X90833491Y-142830795D01*
X90765823Y-142821164D01*
X90765821Y-142821164D01*
X90761571Y-142820559D01*
X90757282Y-142820537D01*
X90757275Y-142820536D01*
X90478370Y-142819075D01*
X90478363Y-142819075D01*
X90474084Y-142819053D01*
X90469840Y-142819612D01*
X90469836Y-142819612D01*
X90344447Y-142836120D01*
X90189053Y-142856578D01*
X90184913Y-142857711D01*
X90184911Y-142857711D01*
X90108098Y-142878725D01*
X89911751Y-142932439D01*
X89907803Y-142934123D01*
X89651263Y-143043547D01*
X89651259Y-143043549D01*
X89647311Y-143045233D01*
X89531244Y-143114698D01*
X89404308Y-143190667D01*
X89404304Y-143190670D01*
X89400626Y-143192871D01*
X89176259Y-143372623D01*
X88978364Y-143581161D01*
X88810601Y-143814627D01*
X88808592Y-143818422D01*
X88808591Y-143818423D01*
X88797074Y-143840175D01*
X88676075Y-144068702D01*
X88577276Y-144338683D01*
X88516032Y-144619574D01*
X88515696Y-144623844D01*
X88493983Y-144899738D01*
X88493982Y-144899738D01*
X88493983Y-144899740D01*
X88493476Y-144906179D01*
X86115288Y-144906179D01*
X86115288Y-122041500D01*
X86115287Y-96866442D01*
X86135289Y-96798323D01*
X86188945Y-96751830D01*
X86259219Y-96741726D01*
X86323799Y-96771220D01*
X86342154Y-96790934D01*
X86421102Y-96896393D01*
X86421108Y-96896400D01*
X86423806Y-96900004D01*
X86849996Y-97326194D01*
X86890877Y-97362917D01*
X86911851Y-97379820D01*
X86913224Y-97380810D01*
X86951430Y-97408362D01*
X86951435Y-97408365D01*
X86956451Y-97411982D01*
X86962081Y-97414553D01*
X86962086Y-97414556D01*
X87067843Y-97462854D01*
X87121498Y-97509347D01*
X87141500Y-97577467D01*
X87141500Y-129588157D01*
X87140763Y-129601764D01*
X87136676Y-129639388D01*
X87137213Y-129645523D01*
X87141050Y-129689388D01*
X87141379Y-129694214D01*
X87141500Y-129696686D01*
X87141500Y-129699769D01*
X87141801Y-129702837D01*
X87145690Y-129742506D01*
X87145812Y-129743819D01*
X87153913Y-129836413D01*
X87155400Y-129841532D01*
X87155920Y-129846833D01*
X87157703Y-129852738D01*
X87157703Y-129852739D01*
X87161122Y-129864063D01*
X87166500Y-129900481D01*
X87166500Y-130750400D01*
X87177474Y-130856166D01*
X87233450Y-131023946D01*
X87326522Y-131174348D01*
X87451697Y-131299305D01*
X87457927Y-131303145D01*
X87457928Y-131303146D01*
X87475689Y-131314094D01*
X87597340Y-131389081D01*
X87644832Y-131441852D01*
X87656256Y-131511924D01*
X87627982Y-131577048D01*
X87618195Y-131587510D01*
X87503865Y-131696576D01*
X87366246Y-131881542D01*
X87261760Y-132087051D01*
X87193393Y-132307227D01*
X87192692Y-132312516D01*
X87170362Y-132481000D01*
X87163102Y-132535774D01*
X87171751Y-132766158D01*
X87219093Y-132991791D01*
X87221051Y-132996750D01*
X87221052Y-132996752D01*
X87255464Y-133083887D01*
X87303776Y-133206221D01*
X87423377Y-133403317D01*
X87426874Y-133407347D01*
X87554965Y-133554959D01*
X87574477Y-133577445D01*
X87578608Y-133580832D01*
X87748627Y-133720240D01*
X87748633Y-133720244D01*
X87752755Y-133723624D01*
X87757391Y-133726263D01*
X87757394Y-133726265D01*
X87801531Y-133751389D01*
X87953114Y-133837675D01*
X88169825Y-133916337D01*
X88175074Y-133917286D01*
X88175077Y-133917287D01*
X88392608Y-133956623D01*
X88392615Y-133956624D01*
X88396692Y-133957361D01*
X88414414Y-133958197D01*
X88419356Y-133958430D01*
X88419363Y-133958430D01*
X88420844Y-133958500D01*
X88732890Y-133958500D01*
X88799809Y-133952822D01*
X88899409Y-133944371D01*
X88899413Y-133944370D01*
X88904720Y-133943920D01*
X88909875Y-133942582D01*
X88909881Y-133942581D01*
X89122703Y-133887343D01*
X89122707Y-133887342D01*
X89127872Y-133886001D01*
X89132738Y-133883809D01*
X89132741Y-133883808D01*
X89333202Y-133793507D01*
X89338075Y-133791312D01*
X89529319Y-133662559D01*
X89547789Y-133644940D01*
X89622769Y-133573412D01*
X89696135Y-133503424D01*
X89833754Y-133318458D01*
X89938240Y-133112949D01*
X89942016Y-133100790D01*
X89975861Y-132991791D01*
X90006607Y-132892773D01*
X90015468Y-132825920D01*
X90015991Y-132821970D01*
X90044770Y-132757068D01*
X90051804Y-132749430D01*
X90058357Y-132742877D01*
X90120669Y-132708851D01*
X90191484Y-132713916D01*
X90241977Y-132750636D01*
X90242555Y-132750078D01*
X90245726Y-132753362D01*
X90246191Y-132753700D01*
X90246826Y-132754501D01*
X90246833Y-132754508D01*
X90250661Y-132759338D01*
X90253369Y-132761643D01*
X90255594Y-132764410D01*
X90328407Y-132825508D01*
X90328873Y-132825901D01*
X90401276Y-132887521D01*
X90404377Y-132889254D01*
X90407100Y-132891539D01*
X90412495Y-132894505D01*
X90412498Y-132894507D01*
X90490344Y-132937304D01*
X90491111Y-132937729D01*
X90573920Y-132984009D01*
X90577303Y-132985108D01*
X90580413Y-132986818D01*
X90586294Y-132988683D01*
X90586295Y-132988684D01*
X90670859Y-133015509D01*
X90671697Y-133015778D01*
X90762018Y-133045125D01*
X90765545Y-133045546D01*
X90768932Y-133046620D01*
X90775053Y-133047307D01*
X90775055Y-133047307D01*
X90863220Y-133057196D01*
X90864094Y-133057297D01*
X90958403Y-133068543D01*
X90964538Y-133068071D01*
X90964540Y-133068071D01*
X91014115Y-133064256D01*
X91023782Y-133063885D01*
X99657111Y-133063885D01*
X99725232Y-133083887D01*
X99746206Y-133100790D01*
X102697466Y-136052050D01*
X102731492Y-136114362D01*
X102726427Y-136185177D01*
X102712953Y-136211421D01*
X102647279Y-136309154D01*
X102647276Y-136309159D01*
X102644153Y-136313807D01*
X102552993Y-136521473D01*
X102551683Y-136526930D01*
X102501360Y-136736541D01*
X102501359Y-136736547D01*
X102500050Y-136742000D01*
X102486994Y-136968418D01*
X102514241Y-137193568D01*
X102580927Y-137410336D01*
X102583499Y-137415319D01*
X102645728Y-137535884D01*
X102684946Y-137611868D01*
X102823009Y-137791796D01*
X102913850Y-137874455D01*
X102986605Y-137940657D01*
X102986608Y-137940659D01*
X102990752Y-137944430D01*
X102995503Y-137947411D01*
X102995504Y-137947411D01*
X103178118Y-138061965D01*
X103178122Y-138061967D01*
X103182874Y-138064948D01*
X103393301Y-138149539D01*
X103615382Y-138195530D01*
X103619993Y-138195796D01*
X103619994Y-138195796D01*
X103671121Y-138198744D01*
X103671125Y-138198744D01*
X103672944Y-138198849D01*
X106295535Y-138198849D01*
X106298322Y-138198600D01*
X106298328Y-138198600D01*
X106368506Y-138192336D01*
X106463895Y-138183823D01*
X106682651Y-138123979D01*
X106687709Y-138121567D01*
X106687713Y-138121565D01*
X106882284Y-138028759D01*
X106882285Y-138028758D01*
X106887351Y-138026342D01*
X106944467Y-137985300D01*
X107066966Y-137897275D01*
X107066968Y-137897273D01*
X107071526Y-137893998D01*
X107159458Y-137803260D01*
X107225452Y-137735160D01*
X107225454Y-137735157D01*
X107229355Y-137731132D01*
X107312845Y-137606885D01*
X107352721Y-137547544D01*
X107352724Y-137547539D01*
X107355847Y-137542891D01*
X107357147Y-137539930D01*
X107406958Y-137490398D01*
X107476374Y-137475502D01*
X107542825Y-137500500D01*
X107574808Y-137535884D01*
X107651732Y-137662901D01*
X107655380Y-137668924D01*
X107781382Y-137799402D01*
X107933159Y-137898722D01*
X107939763Y-137901178D01*
X107939765Y-137901179D01*
X108096558Y-137959490D01*
X108096560Y-137959490D01*
X108103168Y-137961948D01*
X108186995Y-137973133D01*
X108275980Y-137985007D01*
X108275984Y-137985007D01*
X108282961Y-137985938D01*
X108289972Y-137985300D01*
X108289976Y-137985300D01*
X108432459Y-137972332D01*
X108463600Y-137969498D01*
X108470302Y-137967320D01*
X108470304Y-137967320D01*
X108629409Y-137915624D01*
X108629412Y-137915623D01*
X108636108Y-137913447D01*
X108791912Y-137820569D01*
X108923266Y-137695482D01*
X109023643Y-137544402D01*
X109025356Y-137545540D01*
X109067368Y-137501372D01*
X109136343Y-137484551D01*
X109203463Y-137507690D01*
X109247417Y-137563444D01*
X109256500Y-137610415D01*
X109256500Y-138061254D01*
X109236498Y-138129375D01*
X109219594Y-138150351D01*
X109188906Y-138181038D01*
X109126593Y-138215062D01*
X109112983Y-138217251D01*
X109082288Y-138220477D01*
X109082286Y-138220477D01*
X109075288Y-138221213D01*
X108903579Y-138279667D01*
X108897575Y-138283361D01*
X108755095Y-138371015D01*
X108755092Y-138371017D01*
X108749088Y-138374711D01*
X108744053Y-138379642D01*
X108744050Y-138379644D01*
X108654089Y-138467741D01*
X108619493Y-138501620D01*
X108521235Y-138654087D01*
X108518826Y-138660707D01*
X108518824Y-138660710D01*
X108461606Y-138817915D01*
X108459197Y-138824534D01*
X108436463Y-139004489D01*
X108454163Y-139185009D01*
X108511418Y-139357122D01*
X108515065Y-139363144D01*
X108515066Y-139363146D01*
X108588521Y-139484435D01*
X108605380Y-139512273D01*
X108731382Y-139642751D01*
X108883159Y-139742071D01*
X108889763Y-139744527D01*
X108889765Y-139744528D01*
X109046558Y-139802839D01*
X109046560Y-139802839D01*
X109053168Y-139805297D01*
X109136995Y-139816482D01*
X109225980Y-139828356D01*
X109225984Y-139828356D01*
X109232961Y-139829287D01*
X109239972Y-139828649D01*
X109239976Y-139828649D01*
X109382459Y-139815681D01*
X109413600Y-139812847D01*
X109420302Y-139810669D01*
X109420304Y-139810669D01*
X109579409Y-139758973D01*
X109579412Y-139758972D01*
X109586108Y-139756796D01*
X109741912Y-139663918D01*
X109873266Y-139538831D01*
X109893310Y-139508662D01*
X109947667Y-139462993D01*
X110018086Y-139453961D01*
X110082210Y-139484435D01*
X110098088Y-139501516D01*
X110101728Y-139506242D01*
X110105380Y-139512273D01*
X110231382Y-139642751D01*
X110383159Y-139742071D01*
X110389763Y-139744527D01*
X110389765Y-139744528D01*
X110546558Y-139802839D01*
X110546560Y-139802839D01*
X110553168Y-139805297D01*
X110636995Y-139816482D01*
X110725980Y-139828356D01*
X110725984Y-139828356D01*
X110732961Y-139829287D01*
X110739972Y-139828649D01*
X110739976Y-139828649D01*
X110882459Y-139815681D01*
X110913600Y-139812847D01*
X110920302Y-139810669D01*
X110920304Y-139810669D01*
X111079409Y-139758973D01*
X111079412Y-139758972D01*
X111086108Y-139756796D01*
X111241912Y-139663918D01*
X111373266Y-139538831D01*
X111473643Y-139387751D01*
X111538055Y-139218187D01*
X111539035Y-139211215D01*
X111562748Y-139042488D01*
X111562748Y-139042485D01*
X111563299Y-139038566D01*
X111563616Y-139015849D01*
X111543397Y-138835594D01*
X111541080Y-138828940D01*
X111486064Y-138670955D01*
X111486062Y-138670952D01*
X111483745Y-138664297D01*
X111402646Y-138534510D01*
X111383500Y-138467741D01*
X111383500Y-133017386D01*
X111403502Y-132949265D01*
X111420405Y-132928291D01*
X115771405Y-128577291D01*
X115833717Y-128543265D01*
X115904532Y-128548330D01*
X115961368Y-128590877D01*
X115986179Y-128657397D01*
X115986500Y-128666386D01*
X115986500Y-145947810D01*
X115989441Y-146002692D01*
X115992320Y-146029475D01*
X115992588Y-146031132D01*
X115992590Y-146031143D01*
X116000125Y-146077640D01*
X116000126Y-146077645D01*
X116001116Y-146083752D01*
X116003278Y-146089549D01*
X116003279Y-146089552D01*
X116031306Y-146164692D01*
X116052194Y-146220693D01*
X116054347Y-146224636D01*
X116054348Y-146224638D01*
X116065049Y-146244234D01*
X116086220Y-146283005D01*
X116088915Y-146286605D01*
X116171109Y-146396402D01*
X116171113Y-146396406D01*
X116173806Y-146400004D01*
X118099996Y-148326194D01*
X118140877Y-148362917D01*
X118161851Y-148379820D01*
X118163224Y-148380810D01*
X118201430Y-148408362D01*
X118201435Y-148408365D01*
X118206451Y-148411982D01*
X118339400Y-148472698D01*
X118363154Y-148479673D01*
X118403198Y-148491431D01*
X118403202Y-148491432D01*
X118407521Y-148492700D01*
X118411970Y-148493340D01*
X118411976Y-148493341D01*
X118547743Y-148512861D01*
X118547748Y-148512861D01*
X118552190Y-148513500D01*
X167447810Y-148513500D01*
X167474385Y-148512076D01*
X167500999Y-148510650D01*
X167501009Y-148510649D01*
X167502692Y-148510559D01*
X167529475Y-148507680D01*
X167531132Y-148507412D01*
X167531143Y-148507410D01*
X167577640Y-148499875D01*
X167577645Y-148499874D01*
X167583752Y-148498884D01*
X167589549Y-148496722D01*
X167589552Y-148496721D01*
X167716479Y-148449378D01*
X167716481Y-148449377D01*
X167720693Y-148447806D01*
X167783005Y-148413780D01*
X167827047Y-148380810D01*
X167896402Y-148328891D01*
X167896406Y-148328887D01*
X167900004Y-148326194D01*
X169826194Y-146400004D01*
X169862917Y-146359123D01*
X169879820Y-146338149D01*
X169884034Y-146332306D01*
X169908362Y-146298570D01*
X169908365Y-146298565D01*
X169911982Y-146293549D01*
X169972698Y-146160600D01*
X169992700Y-146092479D01*
X169994834Y-146077640D01*
X170012861Y-145952257D01*
X170012861Y-145952252D01*
X170013500Y-145947810D01*
X170013500Y-74552190D01*
X170010559Y-74497308D01*
X170007680Y-74470525D01*
X170007410Y-74468857D01*
X169999875Y-74422360D01*
X169999874Y-74422355D01*
X169998884Y-74416248D01*
X169947806Y-74279307D01*
X169913780Y-74216995D01*
X169857106Y-74141289D01*
X169828891Y-74103598D01*
X169828887Y-74103594D01*
X169826194Y-74099996D01*
X167900004Y-72173806D01*
X167898681Y-72172617D01*
X167860366Y-72138200D01*
X167859123Y-72137083D01*
X167838149Y-72120180D01*
X167832306Y-72115966D01*
X167798570Y-72091638D01*
X167798565Y-72091635D01*
X167793549Y-72088018D01*
X167660600Y-72027302D01*
X167636846Y-72020327D01*
X167596802Y-72008569D01*
X167596798Y-72008568D01*
X167592479Y-72007300D01*
X167588030Y-72006660D01*
X167588024Y-72006659D01*
X167452257Y-71987139D01*
X167452252Y-71987139D01*
X167447810Y-71986500D01*
X134802439Y-71986500D01*
X134800739Y-71986593D01*
X134800722Y-71986593D01*
X134748399Y-71989442D01*
X134748395Y-71989442D01*
X134746693Y-71989535D01*
X134719497Y-71992505D01*
X134717815Y-71992782D01*
X134717807Y-71992783D01*
X134670540Y-72000564D01*
X134670535Y-72000565D01*
X134664408Y-72001574D01*
X134527638Y-72053110D01*
X134465440Y-72087344D01*
X134348729Y-72175325D01*
X132436062Y-74100872D01*
X132398932Y-74142559D01*
X132381873Y-74163947D01*
X132349480Y-74209429D01*
X132289658Y-74342783D01*
X132270114Y-74411037D01*
X132250287Y-74555839D01*
X132250317Y-74560333D01*
X132250317Y-74560335D01*
X132280204Y-79013500D01*
X132366622Y-91889792D01*
X132378713Y-91997178D01*
X132379432Y-92000430D01*
X132379433Y-92000437D01*
X132385474Y-92027767D01*
X132380646Y-92098599D01*
X132347851Y-92142590D01*
X132350269Y-92145008D01*
X132343919Y-92151358D01*
X132336739Y-92156739D01*
X132249385Y-92273295D01*
X132198255Y-92409684D01*
X132191500Y-92471866D01*
X132191500Y-93768134D01*
X132198255Y-93830316D01*
X132249385Y-93966705D01*
X132336739Y-94083261D01*
X132343918Y-94088641D01*
X132353762Y-94096019D01*
X132396276Y-94152879D01*
X132400901Y-94213700D01*
X132403019Y-94213990D01*
X132383192Y-94358792D01*
X132390984Y-95519639D01*
X132391588Y-95609654D01*
X132372044Y-95677908D01*
X132318701Y-95724760D01*
X132265591Y-95736500D01*
X131633316Y-95736500D01*
X131586453Y-95738643D01*
X131584999Y-95738776D01*
X131584988Y-95738777D01*
X131564998Y-95740609D01*
X131564989Y-95740610D01*
X131563549Y-95740742D01*
X131517066Y-95747155D01*
X131511436Y-95749056D01*
X131511435Y-95749056D01*
X131503471Y-95751745D01*
X131378588Y-95793907D01*
X131374583Y-95795933D01*
X131374579Y-95795935D01*
X131352003Y-95807358D01*
X131317195Y-95824969D01*
X131292781Y-95839313D01*
X131267207Y-95854338D01*
X131267203Y-95854341D01*
X131261622Y-95857620D01*
X131256826Y-95861971D01*
X131251597Y-95865816D01*
X131251106Y-95865149D01*
X131244730Y-95869284D01*
X131245280Y-95870041D01*
X131228890Y-95881949D01*
X131197214Y-95906921D01*
X131197173Y-95906869D01*
X131185017Y-95915595D01*
X131181390Y-95917857D01*
X131179015Y-95919417D01*
X131111796Y-95940096D01*
X131110179Y-95940121D01*
X131110108Y-95940122D01*
X131109945Y-95940125D01*
X131109702Y-95940131D01*
X131109689Y-95940131D01*
X131108235Y-95940165D01*
X131101852Y-95940316D01*
X131075699Y-95941138D01*
X131065826Y-95941060D01*
X131055405Y-95940569D01*
X131054695Y-95940552D01*
X131054659Y-95940551D01*
X131031962Y-95940017D01*
X131031948Y-95940017D01*
X131031233Y-95940000D01*
X130492375Y-95940000D01*
X130424254Y-95919998D01*
X130377761Y-95866342D01*
X130367657Y-95796068D01*
X130397151Y-95731488D01*
X130456877Y-95693104D01*
X130476475Y-95689206D01*
X130476468Y-95689165D01*
X130477615Y-95688979D01*
X130478908Y-95688722D01*
X130479784Y-95688628D01*
X130479789Y-95688627D01*
X130483149Y-95688266D01*
X130486450Y-95687548D01*
X130532210Y-95677594D01*
X130532215Y-95677593D01*
X130535491Y-95676880D01*
X130639657Y-95642210D01*
X130762612Y-95563192D01*
X130816268Y-95516699D01*
X130824297Y-95507433D01*
X130906081Y-95413050D01*
X130906083Y-95413047D01*
X130911982Y-95406239D01*
X130972698Y-95273290D01*
X130992700Y-95205169D01*
X131013500Y-95060500D01*
X131013500Y-86052190D01*
X131010559Y-85997308D01*
X131007680Y-85970525D01*
X131007410Y-85968857D01*
X130999875Y-85922360D01*
X130999874Y-85922355D01*
X130998884Y-85916248D01*
X130947806Y-85779307D01*
X130913780Y-85716995D01*
X130877619Y-85668690D01*
X130828891Y-85603598D01*
X130828887Y-85603594D01*
X130826194Y-85599996D01*
X130400004Y-85173806D01*
X130359123Y-85137083D01*
X130338149Y-85120180D01*
X130332306Y-85115966D01*
X130298570Y-85091638D01*
X130298565Y-85091635D01*
X130293549Y-85088018D01*
X130160600Y-85027302D01*
X130136846Y-85020327D01*
X130096802Y-85008569D01*
X130096798Y-85008568D01*
X130092479Y-85007300D01*
X130088030Y-85006660D01*
X130088024Y-85006659D01*
X129952257Y-84987139D01*
X129952252Y-84987139D01*
X129947810Y-84986500D01*
X111552190Y-84986500D01*
X111525615Y-84987924D01*
X111499001Y-84989350D01*
X111498991Y-84989351D01*
X111497308Y-84989441D01*
X111470525Y-84992320D01*
X111468868Y-84992588D01*
X111468857Y-84992590D01*
X111422360Y-85000125D01*
X111422355Y-85000126D01*
X111416248Y-85001116D01*
X111410451Y-85003278D01*
X111410448Y-85003279D01*
X111283521Y-85050622D01*
X111283519Y-85050623D01*
X111279307Y-85052194D01*
X111216995Y-85086220D01*
X111213395Y-85088915D01*
X111103598Y-85171109D01*
X111103594Y-85171113D01*
X111099996Y-85173806D01*
X111057306Y-85216496D01*
X111020583Y-85257377D01*
X111003680Y-85278351D01*
X111002695Y-85279718D01*
X111002682Y-85279734D01*
X110985391Y-85303713D01*
X110929324Y-85347268D01*
X110858610Y-85353596D01*
X110795700Y-85320689D01*
X110760568Y-85258994D01*
X110757671Y-85240999D01*
X110737275Y-85007884D01*
X110737274Y-85007875D01*
X110736909Y-85003708D01*
X110734364Y-84992320D01*
X110672372Y-84714984D01*
X110672371Y-84714981D01*
X110671460Y-84710905D01*
X110567860Y-84429329D01*
X110565916Y-84425641D01*
X110565912Y-84425633D01*
X110429884Y-84167633D01*
X110429883Y-84167632D01*
X110427931Y-84163929D01*
X110254129Y-83919367D01*
X110049510Y-83699939D01*
X109817667Y-83509502D01*
X109562675Y-83351400D01*
X109289012Y-83228411D01*
X109075650Y-83164805D01*
X109005486Y-83143888D01*
X109005484Y-83143888D01*
X109001487Y-83142696D01*
X108997367Y-83142043D01*
X108997365Y-83142043D01*
X108878491Y-83123215D01*
X108705152Y-83095761D01*
X108662423Y-83093821D01*
X108612738Y-83091564D01*
X108612719Y-83091564D01*
X108611319Y-83091500D01*
X102923893Y-83091500D01*
X102700630Y-83106329D01*
X102696536Y-83107154D01*
X102696532Y-83107155D01*
X102555487Y-83135595D01*
X102406520Y-83165632D01*
X102122837Y-83263312D01*
X102119104Y-83265181D01*
X102119100Y-83265183D01*
X101858309Y-83395778D01*
X101854565Y-83397653D01*
X101606416Y-83566294D01*
X101473481Y-83685152D01*
X101409369Y-83715645D01*
X101338947Y-83706635D01*
X101284574Y-83660982D01*
X101263500Y-83591221D01*
X101263500Y-79018103D01*
X101283502Y-78949982D01*
X101337158Y-78903489D01*
X101407432Y-78893385D01*
X101452303Y-78908991D01*
X101456451Y-78911982D01*
X101589400Y-78972698D01*
X101613154Y-78979673D01*
X101653198Y-78991431D01*
X101653202Y-78991432D01*
X101657521Y-78992700D01*
X101661970Y-78993340D01*
X101661976Y-78993341D01*
X101797743Y-79012861D01*
X101797748Y-79012861D01*
X101802190Y-79013500D01*
X114197810Y-79013500D01*
X114224385Y-79012076D01*
X114250999Y-79010650D01*
X114251009Y-79010649D01*
X114252692Y-79010559D01*
X114279475Y-79007680D01*
X114281132Y-79007412D01*
X114281143Y-79007410D01*
X114327640Y-78999875D01*
X114327645Y-78999874D01*
X114333752Y-78998884D01*
X114339549Y-78996722D01*
X114339552Y-78996721D01*
X114466479Y-78949378D01*
X114466481Y-78949377D01*
X114470693Y-78947806D01*
X114533005Y-78913780D01*
X114560249Y-78893385D01*
X114646402Y-78828891D01*
X114646406Y-78828887D01*
X114650004Y-78826194D01*
X115076194Y-78400004D01*
X115112917Y-78359123D01*
X115129820Y-78338149D01*
X115134034Y-78332306D01*
X115158362Y-78298570D01*
X115158365Y-78298565D01*
X115161982Y-78293549D01*
X115222698Y-78160600D01*
X115242700Y-78092479D01*
X115263500Y-77947810D01*
X115263500Y-66802190D01*
X115260559Y-66747308D01*
X115257680Y-66720525D01*
X115257410Y-66718857D01*
X115249875Y-66672360D01*
X115249874Y-66672355D01*
X115248884Y-66666248D01*
X115220221Y-66589400D01*
X115199378Y-66533521D01*
X115199377Y-66533519D01*
X115197806Y-66529307D01*
X115163780Y-66466995D01*
X115122499Y-66411851D01*
X115078891Y-66353598D01*
X115078887Y-66353594D01*
X115076194Y-66349996D01*
X114650004Y-65923806D01*
X114609123Y-65887083D01*
X114588149Y-65870180D01*
X114582306Y-65865966D01*
X114548570Y-65841638D01*
X114548565Y-65841635D01*
X114543549Y-65838018D01*
X114410600Y-65777302D01*
X114386846Y-65770327D01*
X114346802Y-65758569D01*
X114346798Y-65758568D01*
X114342479Y-65757300D01*
X114338030Y-65756660D01*
X114338024Y-65756659D01*
X114202257Y-65737139D01*
X114202252Y-65737139D01*
X114197810Y-65736500D01*
X101802190Y-65736500D01*
X101775615Y-65737924D01*
X101749001Y-65739350D01*
X101748991Y-65739351D01*
X101747308Y-65739441D01*
X101720525Y-65742320D01*
X101718868Y-65742588D01*
X101718857Y-65742590D01*
X101672360Y-65750125D01*
X101672355Y-65750126D01*
X101666248Y-65751116D01*
X101660451Y-65753278D01*
X101660448Y-65753279D01*
X101533521Y-65800622D01*
X101533519Y-65800623D01*
X101529307Y-65802194D01*
X101466995Y-65836220D01*
X101463395Y-65838915D01*
X101353598Y-65921109D01*
X101353594Y-65921113D01*
X101349996Y-65923806D01*
X101089095Y-66184707D01*
X101026783Y-66218733D01*
X100955968Y-66213668D01*
X100910905Y-66184707D01*
X100650004Y-65923806D01*
X100609123Y-65887083D01*
X100588149Y-65870180D01*
X100582306Y-65865966D01*
X100548570Y-65841638D01*
X100548565Y-65841635D01*
X100543549Y-65838018D01*
X100410600Y-65777302D01*
X100386846Y-65770327D01*
X100346802Y-65758569D01*
X100346798Y-65758568D01*
X100342479Y-65757300D01*
X100338030Y-65756660D01*
X100338024Y-65756659D01*
X100202257Y-65737139D01*
X100202252Y-65737139D01*
X100197810Y-65736500D01*
X87302190Y-65736500D01*
X87275615Y-65737924D01*
X87249001Y-65739350D01*
X87248991Y-65739351D01*
X87247308Y-65739441D01*
X87220525Y-65742320D01*
X87218868Y-65742588D01*
X87218857Y-65742590D01*
X87172360Y-65750125D01*
X87172355Y-65750126D01*
X87166248Y-65751116D01*
X87160451Y-65753278D01*
X87160448Y-65753279D01*
X87033521Y-65800622D01*
X87033519Y-65800623D01*
X87029307Y-65802194D01*
X86966995Y-65836220D01*
X86963395Y-65838915D01*
X86853598Y-65921109D01*
X86853594Y-65921113D01*
X86849996Y-65923806D01*
X86423806Y-66349996D01*
X86387083Y-66390877D01*
X86370180Y-66411851D01*
X86369192Y-66413221D01*
X86369189Y-66413225D01*
X86343486Y-66448868D01*
X86287418Y-66492422D01*
X86216704Y-66498749D01*
X86153794Y-66465840D01*
X86118664Y-66404144D01*
X86115287Y-66375170D01*
X86115287Y-57250000D01*
X107486685Y-57250000D01*
X107505931Y-57617241D01*
X107563459Y-57980459D01*
X107658639Y-58335674D01*
X107659824Y-58338762D01*
X107659825Y-58338764D01*
X107709902Y-58469218D01*
X107790427Y-58678994D01*
X107957380Y-59006657D01*
X108157668Y-59315075D01*
X108389098Y-59600867D01*
X108649133Y-59860902D01*
X108934925Y-60092332D01*
X109243342Y-60292620D01*
X109246276Y-60294115D01*
X109246283Y-60294119D01*
X109568066Y-60458075D01*
X109571006Y-60459573D01*
X109914326Y-60591361D01*
X110269541Y-60686541D01*
X110462558Y-60717112D01*
X110629511Y-60743555D01*
X110629519Y-60743556D01*
X110632759Y-60744069D01*
X111000000Y-60763315D01*
X111367241Y-60744069D01*
X111370481Y-60743556D01*
X111370489Y-60743555D01*
X111537442Y-60717112D01*
X111730459Y-60686541D01*
X112085674Y-60591361D01*
X112428994Y-60459573D01*
X112431934Y-60458075D01*
X112753717Y-60294119D01*
X112753724Y-60294115D01*
X112756658Y-60292620D01*
X113065075Y-60092332D01*
X113350867Y-59860902D01*
X113610902Y-59600867D01*
X113842332Y-59315075D01*
X114042620Y-59006657D01*
X114209573Y-58678994D01*
X114290098Y-58469218D01*
X114340175Y-58338764D01*
X114340176Y-58338762D01*
X114341361Y-58335674D01*
X114436541Y-57980459D01*
X114494069Y-57617241D01*
X114513315Y-57250000D01*
X118486685Y-57250000D01*
X118505931Y-57617241D01*
X118563459Y-57980459D01*
X118658639Y-58335674D01*
X118659824Y-58338762D01*
X118659825Y-58338764D01*
X118709902Y-58469218D01*
X118790427Y-58678994D01*
X118957380Y-59006657D01*
X119157668Y-59315075D01*
X119389098Y-59600867D01*
X119649133Y-59860902D01*
X119934925Y-60092332D01*
X120243342Y-60292620D01*
X120246276Y-60294115D01*
X120246283Y-60294119D01*
X120568066Y-60458075D01*
X120571006Y-60459573D01*
X120914326Y-60591361D01*
X121269541Y-60686541D01*
X121462558Y-60717112D01*
X121629511Y-60743555D01*
X121629519Y-60743556D01*
X121632759Y-60744069D01*
X122000000Y-60763315D01*
X122367241Y-60744069D01*
X122370481Y-60743556D01*
X122370489Y-60743555D01*
X122537442Y-60717112D01*
X122730459Y-60686541D01*
X123085674Y-60591361D01*
X123428994Y-60459573D01*
X123431934Y-60458075D01*
X123753717Y-60294119D01*
X123753724Y-60294115D01*
X123756658Y-60292620D01*
X124065075Y-60092332D01*
X124350867Y-59860902D01*
X124610902Y-59600867D01*
X124842332Y-59315075D01*
X125042620Y-59006657D01*
X125209573Y-58678994D01*
X125290098Y-58469218D01*
X125340175Y-58338764D01*
X125340176Y-58338762D01*
X125341361Y-58335674D01*
X125436541Y-57980459D01*
X125494069Y-57617241D01*
X125513315Y-57250000D01*
X125494069Y-56882759D01*
X125479156Y-56788598D01*
X125454885Y-56635360D01*
X125436541Y-56519541D01*
X125341361Y-56164326D01*
X125297365Y-56049711D01*
X125249663Y-55925445D01*
X125209573Y-55821006D01*
X125147977Y-55700117D01*
X125044119Y-55496284D01*
X125044115Y-55496277D01*
X125042620Y-55493343D01*
X125033540Y-55479360D01*
X124844134Y-55187700D01*
X124842332Y-55184925D01*
X124616608Y-54906179D01*
X164493476Y-54906179D01*
X164510025Y-55193193D01*
X164510850Y-55197398D01*
X164510851Y-55197406D01*
X164542797Y-55360231D01*
X164565373Y-55475305D01*
X164566760Y-55479355D01*
X164566761Y-55479360D01*
X164642344Y-55700117D01*
X164658497Y-55747296D01*
X164660424Y-55751127D01*
X164748097Y-55925445D01*
X164787672Y-56004132D01*
X164950508Y-56241060D01*
X165143993Y-56453698D01*
X165147288Y-56456453D01*
X165147289Y-56456454D01*
X165222741Y-56519541D01*
X165364546Y-56638108D01*
X165608085Y-56790881D01*
X165870105Y-56909187D01*
X165874224Y-56910407D01*
X166141644Y-56989621D01*
X166141649Y-56989622D01*
X166145757Y-56990839D01*
X166149991Y-56991487D01*
X166149996Y-56991488D01*
X166398598Y-57029529D01*
X166429940Y-57034325D01*
X166576272Y-57036624D01*
X166713104Y-57038774D01*
X166713110Y-57038774D01*
X166717395Y-57038841D01*
X166721647Y-57038326D01*
X166721655Y-57038326D01*
X166998543Y-57004818D01*
X166998548Y-57004817D01*
X167002804Y-57004302D01*
X167099389Y-56978963D01*
X167276741Y-56932436D01*
X167276742Y-56932436D01*
X167280884Y-56931349D01*
X167546491Y-56821331D01*
X167794709Y-56676284D01*
X168020946Y-56498892D01*
X168062072Y-56456454D01*
X168218031Y-56295516D01*
X168221014Y-56292438D01*
X168223547Y-56288990D01*
X168223551Y-56288985D01*
X168388674Y-56064196D01*
X168391212Y-56060741D01*
X168528391Y-55808089D01*
X168630012Y-55539158D01*
X168668236Y-55372263D01*
X168693236Y-55263107D01*
X168693237Y-55263103D01*
X168694194Y-55258923D01*
X168700551Y-55187700D01*
X168719530Y-54975036D01*
X168719530Y-54975034D01*
X168719750Y-54972570D01*
X168720214Y-54928310D01*
X168718414Y-54901900D01*
X168700952Y-54645762D01*
X168700951Y-54645756D01*
X168700660Y-54641485D01*
X168696123Y-54619574D01*
X168643230Y-54364165D01*
X168642361Y-54359968D01*
X168546394Y-54088967D01*
X168414537Y-53833498D01*
X168401275Y-53814627D01*
X168251691Y-53601792D01*
X168249228Y-53598287D01*
X168053527Y-53387688D01*
X167831055Y-53205597D01*
X167585929Y-53055383D01*
X167567835Y-53047440D01*
X167326617Y-52941553D01*
X167322685Y-52939827D01*
X167304280Y-52934584D01*
X167050321Y-52862242D01*
X167050322Y-52862242D01*
X167046193Y-52861066D01*
X166833491Y-52830795D01*
X166765823Y-52821164D01*
X166765821Y-52821164D01*
X166761571Y-52820559D01*
X166757282Y-52820537D01*
X166757275Y-52820536D01*
X166478370Y-52819075D01*
X166478363Y-52819075D01*
X166474084Y-52819053D01*
X166469840Y-52819612D01*
X166469836Y-52819612D01*
X166344447Y-52836120D01*
X166189053Y-52856578D01*
X166184913Y-52857711D01*
X166184911Y-52857711D01*
X166108098Y-52878725D01*
X165911751Y-52932439D01*
X165907803Y-52934123D01*
X165651263Y-53043547D01*
X165651259Y-53043549D01*
X165647311Y-53045233D01*
X165522747Y-53119783D01*
X165404308Y-53190667D01*
X165404304Y-53190670D01*
X165400626Y-53192871D01*
X165176259Y-53372623D01*
X164978364Y-53581161D01*
X164810601Y-53814627D01*
X164676075Y-54068702D01*
X164577276Y-54338683D01*
X164516032Y-54619574D01*
X164514311Y-54641442D01*
X164493983Y-54899738D01*
X164493982Y-54899738D01*
X164493983Y-54899740D01*
X164493476Y-54906179D01*
X124616608Y-54906179D01*
X124610902Y-54899133D01*
X124350867Y-54639098D01*
X124065075Y-54407668D01*
X123952640Y-54334652D01*
X123759427Y-54209178D01*
X123759424Y-54209176D01*
X123756658Y-54207380D01*
X123753724Y-54205885D01*
X123753717Y-54205881D01*
X123431934Y-54041925D01*
X123428994Y-54040427D01*
X123085674Y-53908639D01*
X122730459Y-53813459D01*
X122537442Y-53782888D01*
X122370489Y-53756445D01*
X122370481Y-53756444D01*
X122367241Y-53755931D01*
X122000000Y-53736685D01*
X121632759Y-53755931D01*
X121629519Y-53756444D01*
X121629511Y-53756445D01*
X121462558Y-53782888D01*
X121269541Y-53813459D01*
X120914326Y-53908639D01*
X120571006Y-54040427D01*
X120568066Y-54041925D01*
X120246284Y-54205881D01*
X120246277Y-54205885D01*
X120243343Y-54207380D01*
X119934925Y-54407668D01*
X119649133Y-54639098D01*
X119389098Y-54899133D01*
X119157668Y-55184925D01*
X119155866Y-55187700D01*
X118966461Y-55479360D01*
X118957380Y-55493343D01*
X118955885Y-55496277D01*
X118955881Y-55496284D01*
X118852023Y-55700117D01*
X118790427Y-55821006D01*
X118750337Y-55925445D01*
X118702636Y-56049711D01*
X118658639Y-56164326D01*
X118563459Y-56519541D01*
X118545115Y-56635360D01*
X118520845Y-56788598D01*
X118505931Y-56882759D01*
X118486685Y-57250000D01*
X114513315Y-57250000D01*
X114494069Y-56882759D01*
X114479156Y-56788598D01*
X114454885Y-56635360D01*
X114436541Y-56519541D01*
X114341361Y-56164326D01*
X114297365Y-56049711D01*
X114249663Y-55925445D01*
X114209573Y-55821006D01*
X114147977Y-55700117D01*
X114044119Y-55496284D01*
X114044115Y-55496277D01*
X114042620Y-55493343D01*
X114033540Y-55479360D01*
X113844134Y-55187700D01*
X113842332Y-55184925D01*
X113610902Y-54899133D01*
X113350867Y-54639098D01*
X113065075Y-54407668D01*
X112952640Y-54334652D01*
X112759427Y-54209178D01*
X112759424Y-54209176D01*
X112756658Y-54207380D01*
X112753724Y-54205885D01*
X112753717Y-54205881D01*
X112431934Y-54041925D01*
X112428994Y-54040427D01*
X112085674Y-53908639D01*
X111730459Y-53813459D01*
X111537442Y-53782888D01*
X111370489Y-53756445D01*
X111370481Y-53756444D01*
X111367241Y-53755931D01*
X111000000Y-53736685D01*
X110632759Y-53755931D01*
X110629519Y-53756444D01*
X110629511Y-53756445D01*
X110462558Y-53782888D01*
X110269541Y-53813459D01*
X109914326Y-53908639D01*
X109571006Y-54040427D01*
X109568066Y-54041925D01*
X109246284Y-54205881D01*
X109246277Y-54205885D01*
X109243343Y-54207380D01*
X108934925Y-54407668D01*
X108649133Y-54639098D01*
X108389098Y-54899133D01*
X108157668Y-55184925D01*
X108155866Y-55187700D01*
X107966461Y-55479360D01*
X107957380Y-55493343D01*
X107955885Y-55496277D01*
X107955881Y-55496284D01*
X107852023Y-55700117D01*
X107790427Y-55821006D01*
X107750337Y-55925445D01*
X107702636Y-56049711D01*
X107658639Y-56164326D01*
X107563459Y-56519541D01*
X107545115Y-56635360D01*
X107520845Y-56788598D01*
X107505931Y-56882759D01*
X107486685Y-57250000D01*
X86115287Y-57250000D01*
X86115287Y-54906179D01*
X88493477Y-54906179D01*
X88510026Y-55193193D01*
X88510851Y-55197398D01*
X88510852Y-55197406D01*
X88542798Y-55360231D01*
X88565374Y-55475305D01*
X88566761Y-55479355D01*
X88566762Y-55479360D01*
X88642345Y-55700117D01*
X88658498Y-55747296D01*
X88660425Y-55751127D01*
X88748098Y-55925445D01*
X88787673Y-56004132D01*
X88950509Y-56241060D01*
X89143994Y-56453698D01*
X89147289Y-56456453D01*
X89147290Y-56456454D01*
X89222742Y-56519541D01*
X89364547Y-56638108D01*
X89608086Y-56790881D01*
X89870106Y-56909187D01*
X89874225Y-56910407D01*
X90141645Y-56989621D01*
X90141650Y-56989622D01*
X90145758Y-56990839D01*
X90149992Y-56991487D01*
X90149997Y-56991488D01*
X90398599Y-57029529D01*
X90429941Y-57034325D01*
X90576273Y-57036624D01*
X90713105Y-57038774D01*
X90713111Y-57038774D01*
X90717396Y-57038841D01*
X90721648Y-57038326D01*
X90721656Y-57038326D01*
X90998544Y-57004818D01*
X90998549Y-57004817D01*
X91002805Y-57004302D01*
X91099390Y-56978963D01*
X91276742Y-56932436D01*
X91276743Y-56932436D01*
X91280885Y-56931349D01*
X91546492Y-56821331D01*
X91794710Y-56676284D01*
X92020947Y-56498892D01*
X92062073Y-56456454D01*
X92218032Y-56295516D01*
X92221015Y-56292438D01*
X92223548Y-56288990D01*
X92223552Y-56288985D01*
X92388675Y-56064196D01*
X92391213Y-56060741D01*
X92528392Y-55808089D01*
X92630013Y-55539158D01*
X92668237Y-55372263D01*
X92693237Y-55263107D01*
X92693238Y-55263103D01*
X92694195Y-55258923D01*
X92700552Y-55187700D01*
X92719531Y-54975036D01*
X92719531Y-54975034D01*
X92719751Y-54972570D01*
X92720215Y-54928310D01*
X92718415Y-54901900D01*
X92700953Y-54645762D01*
X92700952Y-54645756D01*
X92700661Y-54641485D01*
X92696124Y-54619574D01*
X92643231Y-54364165D01*
X92642362Y-54359968D01*
X92546395Y-54088967D01*
X92414538Y-53833498D01*
X92401276Y-53814627D01*
X92251692Y-53601792D01*
X92249229Y-53598287D01*
X92053528Y-53387688D01*
X91831056Y-53205597D01*
X91585930Y-53055383D01*
X91567836Y-53047440D01*
X91326618Y-52941553D01*
X91322686Y-52939827D01*
X91304281Y-52934584D01*
X91050322Y-52862242D01*
X91050323Y-52862242D01*
X91046194Y-52861066D01*
X90833492Y-52830795D01*
X90765824Y-52821164D01*
X90765822Y-52821164D01*
X90761572Y-52820559D01*
X90757283Y-52820537D01*
X90757276Y-52820536D01*
X90478371Y-52819075D01*
X90478364Y-52819075D01*
X90474085Y-52819053D01*
X90469841Y-52819612D01*
X90469837Y-52819612D01*
X90344448Y-52836120D01*
X90189054Y-52856578D01*
X90184914Y-52857711D01*
X90184912Y-52857711D01*
X90108099Y-52878725D01*
X89911752Y-52932439D01*
X89907804Y-52934123D01*
X89651264Y-53043547D01*
X89651260Y-53043549D01*
X89647312Y-53045233D01*
X89522748Y-53119783D01*
X89404309Y-53190667D01*
X89404305Y-53190670D01*
X89400627Y-53192871D01*
X89176260Y-53372623D01*
X88978365Y-53581161D01*
X88810602Y-53814627D01*
X88676076Y-54068702D01*
X88577277Y-54338683D01*
X88516033Y-54619574D01*
X88514312Y-54641442D01*
X88493984Y-54899738D01*
X88493983Y-54899738D01*
X88493984Y-54899740D01*
X88493477Y-54906179D01*
X86115287Y-54906179D01*
X86115287Y-52977675D01*
X86116787Y-52958290D01*
X86119097Y-52943457D01*
X86119097Y-52943453D01*
X86120478Y-52934584D01*
X86118229Y-52917386D01*
X86117396Y-52893445D01*
X86132992Y-52635598D01*
X86134826Y-52620493D01*
X86186310Y-52339548D01*
X86189951Y-52324775D01*
X86274923Y-52052087D01*
X86280318Y-52037861D01*
X86397544Y-51777392D01*
X86404615Y-51763919D01*
X86552376Y-51519491D01*
X86561019Y-51506969D01*
X86737170Y-51282126D01*
X86747260Y-51270737D01*
X86949224Y-51068772D01*
X86960613Y-51058682D01*
X87185454Y-50882530D01*
X87197975Y-50873887D01*
X87442414Y-50726116D01*
X87455879Y-50719050D01*
X87716333Y-50601829D01*
X87730556Y-50596434D01*
X87848628Y-50559641D01*
X88003258Y-50511455D01*
X88018031Y-50507814D01*
X88298975Y-50456328D01*
X88314080Y-50454494D01*
X88564584Y-50439340D01*
X88591576Y-50440610D01*
X88591637Y-50440620D01*
X88591645Y-50440620D01*
X88600513Y-50442001D01*
X88609414Y-50440837D01*
X88609418Y-50440837D01*
X88632072Y-50437874D01*
X88648410Y-50436810D01*
X168557422Y-50436810D01*
X168576807Y-50438310D01*
G37*
%TD.AperFunction*%
%TA.AperFunction,Conductor*%
G36*
X142837121Y-141875003D02*
G01*
X142883614Y-141928659D01*
X142895000Y-141981001D01*
X142895000Y-145519001D01*
X142874998Y-145587122D01*
X142821342Y-145633615D01*
X142769000Y-145645001D01*
X139231000Y-145645001D01*
X139162879Y-145624999D01*
X139116386Y-145571343D01*
X139105000Y-145519001D01*
X139105000Y-141981001D01*
X139125002Y-141912880D01*
X139178658Y-141866387D01*
X139231000Y-141855001D01*
X142769000Y-141855001D01*
X142837121Y-141875003D01*
G37*
%TD.AperFunction*%
%TA.AperFunction,Conductor*%
G36*
X129337121Y-141875002D02*
G01*
X129383614Y-141928658D01*
X129395000Y-141981000D01*
X129395000Y-145519000D01*
X129374998Y-145587121D01*
X129321342Y-145633614D01*
X129269000Y-145645000D01*
X125731000Y-145645000D01*
X125662879Y-145624998D01*
X125616386Y-145571342D01*
X125605000Y-145519000D01*
X125605000Y-141981000D01*
X125625002Y-141912879D01*
X125678658Y-141866386D01*
X125731000Y-141855000D01*
X129269000Y-141855000D01*
X129337121Y-141875002D01*
G37*
%TD.AperFunction*%
%TA.AperFunction,Conductor*%
G36*
X156337121Y-141875002D02*
G01*
X156383614Y-141928658D01*
X156395000Y-141981000D01*
X156395000Y-145519000D01*
X156374998Y-145587121D01*
X156321342Y-145633614D01*
X156269000Y-145645000D01*
X152731000Y-145645000D01*
X152662879Y-145624998D01*
X152616386Y-145571342D01*
X152605000Y-145519000D01*
X152605000Y-141981000D01*
X152625002Y-141912879D01*
X152678658Y-141866386D01*
X152731000Y-141855000D01*
X156269000Y-141855000D01*
X156337121Y-141875002D01*
G37*
%TD.AperFunction*%
%TA.AperFunction,Conductor*%
G36*
X100970560Y-103178502D02*
G01*
X101013895Y-103225734D01*
X101072069Y-103336071D01*
X101074487Y-103339473D01*
X101074491Y-103339480D01*
X101190285Y-103502416D01*
X101245871Y-103580633D01*
X101450490Y-103800061D01*
X101682333Y-103990498D01*
X101937325Y-104148600D01*
X102210988Y-104271589D01*
X102303282Y-104299103D01*
X102494514Y-104356112D01*
X102494516Y-104356112D01*
X102498513Y-104357304D01*
X102502633Y-104357957D01*
X102502635Y-104357957D01*
X102621509Y-104376785D01*
X102794848Y-104404239D01*
X102837577Y-104406179D01*
X102887262Y-104408436D01*
X102887281Y-104408436D01*
X102888681Y-104408500D01*
X108576107Y-104408500D01*
X108799370Y-104393671D01*
X108803464Y-104392846D01*
X108803468Y-104392845D01*
X108944513Y-104364405D01*
X109093480Y-104334368D01*
X109377163Y-104236688D01*
X109380896Y-104234819D01*
X109380900Y-104234817D01*
X109641691Y-104104222D01*
X109641693Y-104104221D01*
X109645435Y-104102347D01*
X109785383Y-104007239D01*
X109890125Y-103936057D01*
X109890128Y-103936055D01*
X109893584Y-103933706D01*
X110117248Y-103733726D01*
X110119966Y-103730555D01*
X110309779Y-103509097D01*
X110309782Y-103509093D01*
X110312499Y-103505923D01*
X110314773Y-103502421D01*
X110314777Y-103502416D01*
X110463328Y-103273667D01*
X110517204Y-103227430D01*
X110587525Y-103217661D01*
X110651965Y-103247461D01*
X110690064Y-103307370D01*
X110695000Y-103342292D01*
X110695000Y-103889181D01*
X110695570Y-103913363D01*
X110695604Y-103914083D01*
X110695747Y-103917117D01*
X110678968Y-103986102D01*
X110663621Y-104007239D01*
X110637083Y-104036782D01*
X110620180Y-104057756D01*
X110619190Y-104059129D01*
X110591638Y-104097335D01*
X110591635Y-104097340D01*
X110588018Y-104102356D01*
X110527302Y-104235305D01*
X110526034Y-104239624D01*
X110516298Y-104272783D01*
X110507300Y-104303426D01*
X110506660Y-104307875D01*
X110506659Y-104307881D01*
X110487139Y-104443648D01*
X110486500Y-104448095D01*
X110486500Y-109697810D01*
X110489441Y-109752692D01*
X110492320Y-109779475D01*
X110492588Y-109781132D01*
X110492590Y-109781143D01*
X110500125Y-109827640D01*
X110500126Y-109827645D01*
X110501116Y-109833752D01*
X110503278Y-109839549D01*
X110503279Y-109839552D01*
X110550593Y-109966401D01*
X110552194Y-109970693D01*
X110554347Y-109974636D01*
X110554348Y-109974638D01*
X110567068Y-109997932D01*
X110586220Y-110033005D01*
X110588915Y-110036605D01*
X110671109Y-110146402D01*
X110671113Y-110146406D01*
X110673806Y-110150004D01*
X111099996Y-110576194D01*
X111140877Y-110612917D01*
X111161851Y-110629820D01*
X111163224Y-110630810D01*
X111201430Y-110658362D01*
X111201435Y-110658365D01*
X111206451Y-110661982D01*
X111339400Y-110722698D01*
X111363154Y-110729673D01*
X111403198Y-110741431D01*
X111403202Y-110741432D01*
X111407521Y-110742700D01*
X111411970Y-110743340D01*
X111411976Y-110743341D01*
X111547743Y-110762861D01*
X111547748Y-110762861D01*
X111552190Y-110763500D01*
X129801905Y-110763500D01*
X129828480Y-110762076D01*
X129855094Y-110760650D01*
X129855104Y-110760649D01*
X129856787Y-110760559D01*
X129883570Y-110757680D01*
X129885227Y-110757412D01*
X129885238Y-110757410D01*
X129931735Y-110749875D01*
X129931740Y-110749874D01*
X129937847Y-110748884D01*
X129943644Y-110746722D01*
X129943647Y-110746721D01*
X130070574Y-110699378D01*
X130070576Y-110699377D01*
X130074788Y-110697806D01*
X130137100Y-110663780D01*
X130181142Y-110630810D01*
X130250497Y-110578891D01*
X130250501Y-110578887D01*
X130254099Y-110576194D01*
X130333025Y-110497268D01*
X130357602Y-110478134D01*
X130485866Y-110401673D01*
X130491912Y-110398069D01*
X130497006Y-110393218D01*
X130497010Y-110393215D01*
X130568681Y-110324962D01*
X130623266Y-110272982D01*
X130702855Y-110153191D01*
X130719745Y-110127770D01*
X130719747Y-110127765D01*
X130723643Y-110121902D01*
X130726143Y-110115320D01*
X130728937Y-110109884D01*
X130751907Y-110078386D01*
X130773429Y-110056864D01*
X130825423Y-109996056D01*
X130848467Y-109964413D01*
X130849748Y-109962330D01*
X130849755Y-109962320D01*
X130886736Y-109902199D01*
X130886737Y-109902197D01*
X130890384Y-109896268D01*
X130937838Y-109758029D01*
X130951098Y-109688282D01*
X130954737Y-109607596D01*
X130957481Y-109546758D01*
X130957481Y-109546751D01*
X130957683Y-109542268D01*
X130957245Y-109537803D01*
X130957245Y-109537795D01*
X130954512Y-109509920D01*
X130954904Y-109481836D01*
X130959658Y-109444204D01*
X130966263Y-109416907D01*
X130973991Y-109395673D01*
X130974933Y-109393086D01*
X130998099Y-109306628D01*
X131005698Y-109263533D01*
X131013500Y-109174363D01*
X131013500Y-108664500D01*
X131001766Y-108555351D01*
X130990380Y-108503009D01*
X130955710Y-108398843D01*
X130876692Y-108275888D01*
X130830199Y-108222232D01*
X130820933Y-108214203D01*
X130726550Y-108132419D01*
X130726547Y-108132417D01*
X130719739Y-108126518D01*
X130586790Y-108065802D01*
X130563036Y-108058827D01*
X130522992Y-108047069D01*
X130522988Y-108047068D01*
X130518669Y-108045800D01*
X130514220Y-108045160D01*
X130514214Y-108045159D01*
X130378447Y-108025639D01*
X130378442Y-108025639D01*
X130374000Y-108025000D01*
X128981000Y-108025000D01*
X128912879Y-108004998D01*
X128866386Y-107951342D01*
X128855000Y-107899000D01*
X128855000Y-106961000D01*
X128875002Y-106892879D01*
X128928658Y-106846386D01*
X128981000Y-106835000D01*
X130374000Y-106835000D01*
X130377346Y-106834640D01*
X130377351Y-106834640D01*
X130479785Y-106823628D01*
X130479792Y-106823627D01*
X130483149Y-106823266D01*
X130486450Y-106822548D01*
X130532210Y-106812594D01*
X130532215Y-106812593D01*
X130535491Y-106811880D01*
X130639657Y-106777210D01*
X130762612Y-106698192D01*
X130816268Y-106651699D01*
X130824297Y-106642433D01*
X130906081Y-106548050D01*
X130906083Y-106548047D01*
X130911982Y-106541239D01*
X130972698Y-106408290D01*
X130992700Y-106340169D01*
X131013500Y-106195500D01*
X131013500Y-105327357D01*
X131006894Y-105245254D01*
X131000452Y-105205482D01*
X130990153Y-105163553D01*
X130981409Y-105127951D01*
X130981406Y-105127940D01*
X130980806Y-105125498D01*
X130964053Y-105075137D01*
X130958212Y-105047659D01*
X130954512Y-105009919D01*
X130954904Y-104981839D01*
X130967463Y-104882422D01*
X130967981Y-104880359D01*
X130967981Y-104878325D01*
X130968648Y-104873045D01*
X130968238Y-104872993D01*
X130968237Y-104872961D01*
X130967981Y-104872961D01*
X130967981Y-104789500D01*
X130987983Y-104721379D01*
X131041639Y-104674886D01*
X131093981Y-104663500D01*
X131610477Y-104663500D01*
X131678598Y-104683502D01*
X131725091Y-104737158D01*
X131735195Y-104807432D01*
X131722907Y-104844173D01*
X131723042Y-104844226D01*
X131722061Y-104846705D01*
X131720892Y-104850199D01*
X131720124Y-104851595D01*
X131720121Y-104851603D01*
X131716305Y-104858544D01*
X131714334Y-104866219D01*
X131714334Y-104866220D01*
X131711267Y-104878166D01*
X131704863Y-104896870D01*
X131696819Y-104915459D01*
X131695580Y-104923282D01*
X131695577Y-104923292D01*
X131689901Y-104959128D01*
X131687495Y-104970748D01*
X131678472Y-105005893D01*
X131676500Y-105013574D01*
X131676500Y-105033828D01*
X131674949Y-105053538D01*
X131671780Y-105073547D01*
X131672526Y-105081439D01*
X131675941Y-105117565D01*
X131676500Y-105129423D01*
X131676500Y-109555406D01*
X131656498Y-109623527D01*
X131639595Y-109644501D01*
X107907747Y-133376348D01*
X107899461Y-133383888D01*
X107892982Y-133388000D01*
X107887557Y-133393777D01*
X107846357Y-133437651D01*
X107843602Y-133440493D01*
X107823865Y-133460230D01*
X107821385Y-133463427D01*
X107813682Y-133472447D01*
X107783414Y-133504679D01*
X107779595Y-133511625D01*
X107779593Y-133511628D01*
X107773652Y-133522434D01*
X107762801Y-133538953D01*
X107750386Y-133554959D01*
X107747241Y-133562228D01*
X107747238Y-133562232D01*
X107732826Y-133595537D01*
X107727609Y-133606187D01*
X107706305Y-133644940D01*
X107704334Y-133652615D01*
X107704334Y-133652616D01*
X107701267Y-133664562D01*
X107694863Y-133683266D01*
X107686819Y-133701855D01*
X107685580Y-133709678D01*
X107685577Y-133709688D01*
X107679901Y-133745524D01*
X107677495Y-133757144D01*
X107666500Y-133799970D01*
X107666500Y-133820224D01*
X107664949Y-133839934D01*
X107661780Y-133859943D01*
X107662526Y-133867835D01*
X107665941Y-133903961D01*
X107666500Y-133915819D01*
X107666500Y-136412554D01*
X107646498Y-136480675D01*
X107592842Y-136527168D01*
X107522568Y-136537272D01*
X107457988Y-136507778D01*
X107424420Y-136456276D01*
X107422843Y-136456920D01*
X107420722Y-136451723D01*
X107419073Y-136446362D01*
X107315054Y-136244830D01*
X107176991Y-136064902D01*
X107086150Y-135982243D01*
X107013395Y-135916041D01*
X107013392Y-135916039D01*
X107009248Y-135912268D01*
X107004496Y-135909287D01*
X106821882Y-135794733D01*
X106821878Y-135794731D01*
X106817126Y-135791750D01*
X106606699Y-135707159D01*
X106384618Y-135661168D01*
X106380007Y-135660902D01*
X106380006Y-135660902D01*
X106328879Y-135657954D01*
X106328875Y-135657954D01*
X106327056Y-135657849D01*
X105207924Y-135657849D01*
X105139803Y-135637847D01*
X105118829Y-135620944D01*
X100883891Y-131386006D01*
X100874789Y-131375863D01*
X100854933Y-131351167D01*
X100851068Y-131346360D01*
X100812614Y-131314093D01*
X100808967Y-131310913D01*
X100807155Y-131309270D01*
X100804961Y-131307076D01*
X100771687Y-131279743D01*
X100770889Y-131279081D01*
X100699562Y-131219231D01*
X100694892Y-131216663D01*
X100690775Y-131213282D01*
X100608950Y-131169408D01*
X100607791Y-131168779D01*
X100531655Y-131126923D01*
X100531647Y-131126920D01*
X100526249Y-131123952D01*
X100521167Y-131122340D01*
X100516473Y-131119823D01*
X100427505Y-131092623D01*
X100426477Y-131092303D01*
X100337730Y-131064150D01*
X100332434Y-131063556D01*
X100327338Y-131061998D01*
X100234779Y-131052595D01*
X100233643Y-131052474D01*
X100200028Y-131048704D01*
X100187306Y-131047277D01*
X100187302Y-131047277D01*
X100183809Y-131046885D01*
X100180282Y-131046885D01*
X100179297Y-131046830D01*
X100173617Y-131046383D01*
X100144211Y-131043396D01*
X100136699Y-131042633D01*
X100136697Y-131042633D01*
X100130574Y-131042011D01*
X100088295Y-131046008D01*
X100084927Y-131046326D01*
X100073069Y-131046885D01*
X91359500Y-131046885D01*
X91291379Y-131026883D01*
X91244886Y-130973227D01*
X91233500Y-130920885D01*
X91233500Y-129168340D01*
X91234237Y-129154733D01*
X91237659Y-129123235D01*
X91237659Y-129123230D01*
X91238324Y-129117109D01*
X91233950Y-129067109D01*
X91233621Y-129062283D01*
X91233500Y-129059811D01*
X91233500Y-129056728D01*
X91232326Y-129044759D01*
X91229310Y-129013991D01*
X91229188Y-129012678D01*
X91221623Y-128926215D01*
X91221087Y-128920084D01*
X91219600Y-128914965D01*
X91219080Y-128909664D01*
X91192209Y-128820663D01*
X91191874Y-128819530D01*
X91167630Y-128736083D01*
X91167628Y-128736079D01*
X91165909Y-128730161D01*
X91163456Y-128725429D01*
X91161916Y-128720328D01*
X91159022Y-128714885D01*
X91118269Y-128638237D01*
X91117657Y-128637071D01*
X91077729Y-128560044D01*
X91074892Y-128554571D01*
X91071569Y-128550408D01*
X91069066Y-128545701D01*
X91010245Y-128473579D01*
X91009554Y-128472723D01*
X90978262Y-128433524D01*
X90975758Y-128431020D01*
X90975116Y-128430302D01*
X90971415Y-128425969D01*
X90944065Y-128392435D01*
X90908733Y-128363206D01*
X90899963Y-128355225D01*
X90395405Y-127850668D01*
X90361380Y-127788355D01*
X90358500Y-127761572D01*
X90358500Y-117992248D01*
X90378502Y-117924127D01*
X90432158Y-117877634D01*
X90502432Y-117867530D01*
X90567012Y-117897024D01*
X90591932Y-117926412D01*
X90654097Y-118027856D01*
X90823637Y-118226363D01*
X91022144Y-118395903D01*
X91244729Y-118532303D01*
X91249299Y-118534196D01*
X91249303Y-118534198D01*
X91438416Y-118612531D01*
X91485911Y-118632204D01*
X91574931Y-118653576D01*
X91734938Y-118691991D01*
X91734944Y-118691992D01*
X91739751Y-118693146D01*
X92000000Y-118713628D01*
X92260249Y-118693146D01*
X92265056Y-118691992D01*
X92265062Y-118691991D01*
X92425069Y-118653576D01*
X92514089Y-118632204D01*
X92561584Y-118612531D01*
X92750697Y-118534198D01*
X92750701Y-118534196D01*
X92755271Y-118532303D01*
X92759491Y-118529717D01*
X92759501Y-118529712D01*
X92799665Y-118505099D01*
X92868198Y-118486560D01*
X92935875Y-118508016D01*
X92981208Y-118562655D01*
X92991500Y-118612531D01*
X92991500Y-122541377D01*
X92991498Y-122542147D01*
X92991024Y-122619721D01*
X92993491Y-122628352D01*
X92999150Y-122648153D01*
X93002728Y-122664915D01*
X93006920Y-122694187D01*
X93010634Y-122702355D01*
X93010634Y-122702356D01*
X93017548Y-122717562D01*
X93023996Y-122735086D01*
X93031051Y-122759771D01*
X93035843Y-122767365D01*
X93035844Y-122767368D01*
X93046830Y-122784780D01*
X93054969Y-122799863D01*
X93067208Y-122826782D01*
X93073069Y-122833584D01*
X93083970Y-122846235D01*
X93095073Y-122861239D01*
X93108776Y-122882958D01*
X93115501Y-122888897D01*
X93115504Y-122888901D01*
X93130938Y-122902532D01*
X93142982Y-122914724D01*
X93156427Y-122930327D01*
X93156430Y-122930329D01*
X93162287Y-122937127D01*
X93169816Y-122942007D01*
X93169817Y-122942008D01*
X93183835Y-122951094D01*
X93198709Y-122962385D01*
X93211217Y-122973431D01*
X93217951Y-122979378D01*
X93244711Y-122991942D01*
X93259691Y-123000263D01*
X93276983Y-123011471D01*
X93276988Y-123011473D01*
X93284515Y-123016352D01*
X93293108Y-123018922D01*
X93293113Y-123018924D01*
X93309120Y-123023711D01*
X93326564Y-123030372D01*
X93341676Y-123037467D01*
X93341678Y-123037468D01*
X93349800Y-123041281D01*
X93358667Y-123042662D01*
X93358668Y-123042662D01*
X93361353Y-123043080D01*
X93379017Y-123045830D01*
X93395732Y-123049613D01*
X93415466Y-123055515D01*
X93415472Y-123055516D01*
X93424066Y-123058086D01*
X93433037Y-123058141D01*
X93433038Y-123058141D01*
X93443097Y-123058202D01*
X93458506Y-123058296D01*
X93459289Y-123058329D01*
X93460386Y-123058500D01*
X93491377Y-123058500D01*
X93492147Y-123058502D01*
X93565785Y-123058952D01*
X93565786Y-123058952D01*
X93569721Y-123058976D01*
X93571065Y-123058592D01*
X93572410Y-123058500D01*
X110890715Y-123058500D01*
X110958836Y-123078502D01*
X111005329Y-123132158D01*
X111015433Y-123202432D01*
X110993928Y-123256770D01*
X110898672Y-123392810D01*
X110898669Y-123392816D01*
X110895512Y-123397324D01*
X110893189Y-123402306D01*
X110893186Y-123402311D01*
X110803883Y-123593822D01*
X110801560Y-123598804D01*
X110744022Y-123813537D01*
X110724647Y-124035000D01*
X110744022Y-124256463D01*
X110801560Y-124471196D01*
X110803882Y-124476177D01*
X110803883Y-124476178D01*
X110893186Y-124667689D01*
X110893189Y-124667694D01*
X110895512Y-124672676D01*
X111023023Y-124854781D01*
X111180219Y-125011977D01*
X111184727Y-125015134D01*
X111184730Y-125015136D01*
X111260495Y-125068187D01*
X111362323Y-125139488D01*
X111367305Y-125141811D01*
X111367310Y-125141814D01*
X111558822Y-125231117D01*
X111563804Y-125233440D01*
X111569112Y-125234862D01*
X111569114Y-125234863D01*
X111634949Y-125252503D01*
X111778537Y-125290978D01*
X112000000Y-125310353D01*
X112221463Y-125290978D01*
X112365051Y-125252503D01*
X112430886Y-125234863D01*
X112430888Y-125234862D01*
X112436196Y-125233440D01*
X112441178Y-125231117D01*
X112632690Y-125141814D01*
X112632695Y-125141811D01*
X112637677Y-125139488D01*
X112739505Y-125068187D01*
X112815270Y-125015136D01*
X112815273Y-125015134D01*
X112819781Y-125011977D01*
X112976977Y-124854781D01*
X113104488Y-124672676D01*
X113106811Y-124667694D01*
X113106814Y-124667689D01*
X113196117Y-124476178D01*
X113196118Y-124476177D01*
X113198440Y-124471196D01*
X113255978Y-124256463D01*
X113275353Y-124035000D01*
X113255978Y-123813537D01*
X113198440Y-123598804D01*
X113196117Y-123593822D01*
X113106814Y-123402311D01*
X113106811Y-123402306D01*
X113104488Y-123397324D01*
X113101331Y-123392816D01*
X113101328Y-123392810D01*
X113006072Y-123256770D01*
X112983384Y-123189497D01*
X113000669Y-123120636D01*
X113052439Y-123072052D01*
X113109285Y-123058500D01*
X116491377Y-123058500D01*
X116492148Y-123058502D01*
X116569721Y-123058976D01*
X116598152Y-123050850D01*
X116614915Y-123047272D01*
X116615753Y-123047152D01*
X116644187Y-123043080D01*
X116667564Y-123032451D01*
X116685087Y-123026004D01*
X116709771Y-123018949D01*
X116717365Y-123014157D01*
X116717368Y-123014156D01*
X116734780Y-123003170D01*
X116749865Y-122995030D01*
X116776782Y-122982792D01*
X116796235Y-122966030D01*
X116811239Y-122954927D01*
X116832958Y-122941224D01*
X116838897Y-122934499D01*
X116838901Y-122934496D01*
X116852532Y-122919062D01*
X116864724Y-122907018D01*
X116880327Y-122893573D01*
X116880329Y-122893570D01*
X116887127Y-122887713D01*
X116901094Y-122866165D01*
X116912385Y-122851291D01*
X116923431Y-122838783D01*
X116923432Y-122838782D01*
X116929378Y-122832049D01*
X116941943Y-122805287D01*
X116950263Y-122790309D01*
X116961471Y-122773017D01*
X116961473Y-122773012D01*
X116966352Y-122765485D01*
X116968922Y-122756892D01*
X116968924Y-122756887D01*
X116973711Y-122740880D01*
X116980372Y-122723436D01*
X116987467Y-122708324D01*
X116987468Y-122708322D01*
X116991281Y-122700200D01*
X116995830Y-122670983D01*
X116999613Y-122654268D01*
X117005515Y-122634534D01*
X117005516Y-122634528D01*
X117008086Y-122625934D01*
X117008296Y-122591494D01*
X117008329Y-122590711D01*
X117008500Y-122589614D01*
X117008500Y-122558623D01*
X117008502Y-122557853D01*
X117008952Y-122484215D01*
X117008952Y-122484214D01*
X117008976Y-122480279D01*
X117008592Y-122478935D01*
X117008500Y-122477590D01*
X117008500Y-118612531D01*
X117028502Y-118544410D01*
X117082158Y-118497917D01*
X117152432Y-118487813D01*
X117200335Y-118505099D01*
X117240499Y-118529712D01*
X117240509Y-118529717D01*
X117244729Y-118532303D01*
X117249299Y-118534196D01*
X117249303Y-118534198D01*
X117438416Y-118612531D01*
X117485911Y-118632204D01*
X117574931Y-118653576D01*
X117734938Y-118691991D01*
X117734944Y-118691992D01*
X117739751Y-118693146D01*
X118000000Y-118713628D01*
X118260249Y-118693146D01*
X118265056Y-118691992D01*
X118265062Y-118691991D01*
X118425069Y-118653576D01*
X118514089Y-118632204D01*
X118561584Y-118612531D01*
X118750697Y-118534198D01*
X118750701Y-118534196D01*
X118755271Y-118532303D01*
X118977856Y-118395903D01*
X119176363Y-118226363D01*
X119345903Y-118027856D01*
X119482303Y-117805271D01*
X119573825Y-117584319D01*
X119580310Y-117568662D01*
X119580311Y-117568660D01*
X119582204Y-117564089D01*
X119635707Y-117341235D01*
X119641991Y-117315062D01*
X119641992Y-117315056D01*
X119643146Y-117310249D01*
X119663628Y-117050000D01*
X119643146Y-116789751D01*
X119641992Y-116784944D01*
X119641991Y-116784938D01*
X119583359Y-116540723D01*
X119582204Y-116535911D01*
X119575377Y-116519428D01*
X119484198Y-116299303D01*
X119484196Y-116299299D01*
X119482303Y-116294729D01*
X119345903Y-116072144D01*
X119176363Y-115873637D01*
X118977856Y-115704097D01*
X118755271Y-115567697D01*
X118750701Y-115565804D01*
X118750697Y-115565802D01*
X118518662Y-115469690D01*
X118518660Y-115469689D01*
X118514089Y-115467796D01*
X118425069Y-115446424D01*
X118265062Y-115408009D01*
X118265056Y-115408008D01*
X118260249Y-115406854D01*
X118000000Y-115386372D01*
X117739751Y-115406854D01*
X117734944Y-115408008D01*
X117734938Y-115408009D01*
X117574931Y-115446424D01*
X117485911Y-115467796D01*
X117481340Y-115469689D01*
X117481338Y-115469690D01*
X117249303Y-115565802D01*
X117249299Y-115565804D01*
X117244729Y-115567697D01*
X117240510Y-115570282D01*
X117240499Y-115570288D01*
X117200335Y-115594901D01*
X117131802Y-115613440D01*
X117064125Y-115591984D01*
X117018792Y-115537345D01*
X117008500Y-115487469D01*
X117008500Y-111558623D01*
X117008502Y-111557853D01*
X117008800Y-111509102D01*
X117008976Y-111480279D01*
X117000850Y-111451847D01*
X116997272Y-111435085D01*
X116994352Y-111414698D01*
X116993080Y-111405813D01*
X116982451Y-111382436D01*
X116976004Y-111364913D01*
X116971416Y-111348862D01*
X116968949Y-111340229D01*
X116964156Y-111332632D01*
X116953170Y-111315220D01*
X116945030Y-111300135D01*
X116942564Y-111294711D01*
X116932792Y-111273218D01*
X116916030Y-111253765D01*
X116904927Y-111238761D01*
X116891224Y-111217042D01*
X116884499Y-111211103D01*
X116884496Y-111211099D01*
X116869062Y-111197468D01*
X116857018Y-111185276D01*
X116843573Y-111169673D01*
X116843570Y-111169671D01*
X116837713Y-111162873D01*
X116824009Y-111153990D01*
X116816165Y-111148906D01*
X116801291Y-111137615D01*
X116788783Y-111126569D01*
X116788782Y-111126568D01*
X116782049Y-111120622D01*
X116755287Y-111108057D01*
X116740309Y-111099737D01*
X116723017Y-111088529D01*
X116723012Y-111088527D01*
X116715485Y-111083648D01*
X116706892Y-111081078D01*
X116706887Y-111081076D01*
X116690880Y-111076289D01*
X116673436Y-111069628D01*
X116658324Y-111062533D01*
X116658322Y-111062532D01*
X116650200Y-111058719D01*
X116641333Y-111057338D01*
X116641332Y-111057338D01*
X116630478Y-111055648D01*
X116620983Y-111054170D01*
X116604268Y-111050387D01*
X116584534Y-111044485D01*
X116584528Y-111044484D01*
X116575934Y-111041914D01*
X116566963Y-111041859D01*
X116566962Y-111041859D01*
X116556903Y-111041798D01*
X116541494Y-111041704D01*
X116540711Y-111041671D01*
X116539614Y-111041500D01*
X116508623Y-111041500D01*
X116507853Y-111041498D01*
X116434215Y-111041048D01*
X116434214Y-111041048D01*
X116430279Y-111041024D01*
X116428935Y-111041408D01*
X116427590Y-111041500D01*
X93508623Y-111041500D01*
X93507853Y-111041498D01*
X93507037Y-111041493D01*
X93430279Y-111041024D01*
X93407918Y-111047415D01*
X93401847Y-111049150D01*
X93385085Y-111052728D01*
X93355813Y-111056920D01*
X93347645Y-111060634D01*
X93347644Y-111060634D01*
X93332438Y-111067548D01*
X93314914Y-111073996D01*
X93290229Y-111081051D01*
X93282635Y-111085843D01*
X93282632Y-111085844D01*
X93265220Y-111096830D01*
X93250137Y-111104969D01*
X93223218Y-111117208D01*
X93216416Y-111123069D01*
X93203765Y-111133970D01*
X93188761Y-111145073D01*
X93167042Y-111158776D01*
X93161103Y-111165501D01*
X93161099Y-111165504D01*
X93147468Y-111180938D01*
X93135276Y-111192982D01*
X93119673Y-111206427D01*
X93119671Y-111206430D01*
X93112873Y-111212287D01*
X93107993Y-111219816D01*
X93107992Y-111219817D01*
X93098906Y-111233835D01*
X93087615Y-111248709D01*
X93076569Y-111261217D01*
X93070622Y-111267951D01*
X93064312Y-111281391D01*
X93058058Y-111294711D01*
X93049737Y-111309691D01*
X93038529Y-111326983D01*
X93038527Y-111326988D01*
X93033648Y-111334515D01*
X93031078Y-111343108D01*
X93031076Y-111343113D01*
X93026289Y-111359120D01*
X93019628Y-111376564D01*
X93012533Y-111391676D01*
X93008719Y-111399800D01*
X93007338Y-111408667D01*
X93007338Y-111408668D01*
X93004170Y-111429015D01*
X93000387Y-111445732D01*
X92994485Y-111465466D01*
X92994484Y-111465472D01*
X92991914Y-111474066D01*
X92991859Y-111483037D01*
X92991859Y-111483038D01*
X92991704Y-111508497D01*
X92991671Y-111509289D01*
X92991500Y-111510386D01*
X92991500Y-111541377D01*
X92991498Y-111542147D01*
X92991024Y-111619721D01*
X92991408Y-111621065D01*
X92991500Y-111622410D01*
X92991500Y-115487469D01*
X92971498Y-115555590D01*
X92917842Y-115602083D01*
X92847568Y-115612187D01*
X92799665Y-115594901D01*
X92759501Y-115570288D01*
X92759490Y-115570282D01*
X92755271Y-115567697D01*
X92750701Y-115565804D01*
X92750697Y-115565802D01*
X92518662Y-115469690D01*
X92518660Y-115469689D01*
X92514089Y-115467796D01*
X92425069Y-115446424D01*
X92265062Y-115408009D01*
X92265056Y-115408008D01*
X92260249Y-115406854D01*
X92000000Y-115386372D01*
X91739751Y-115406854D01*
X91734944Y-115408008D01*
X91734938Y-115408009D01*
X91574931Y-115446424D01*
X91485911Y-115467796D01*
X91481340Y-115469689D01*
X91481338Y-115469690D01*
X91249303Y-115565802D01*
X91249299Y-115565804D01*
X91244729Y-115567697D01*
X91022144Y-115704097D01*
X90823637Y-115873637D01*
X90654097Y-116072144D01*
X90632277Y-116107752D01*
X90591933Y-116173587D01*
X90539285Y-116221218D01*
X90469244Y-116232825D01*
X90404046Y-116204722D01*
X90364392Y-116145832D01*
X90358500Y-116107752D01*
X90358500Y-113579925D01*
X90378502Y-113511804D01*
X90395405Y-113490830D01*
X100690829Y-103195405D01*
X100753141Y-103161379D01*
X100779924Y-103158500D01*
X100902439Y-103158500D01*
X100970560Y-103178502D01*
G37*
%TD.AperFunction*%
%TA.AperFunction,Conductor*%
G36*
X156337121Y-132375002D02*
G01*
X156383614Y-132428658D01*
X156395000Y-132481000D01*
X156395000Y-136019000D01*
X156374998Y-136087121D01*
X156321342Y-136133614D01*
X156269000Y-136145000D01*
X152731000Y-136145000D01*
X152662879Y-136124998D01*
X152616386Y-136071342D01*
X152605000Y-136019000D01*
X152605000Y-132481000D01*
X152625002Y-132412879D01*
X152678658Y-132366386D01*
X152731000Y-132355000D01*
X156269000Y-132355000D01*
X156337121Y-132375002D01*
G37*
%TD.AperFunction*%
%TA.AperFunction,Conductor*%
G36*
X142837121Y-132375002D02*
G01*
X142883614Y-132428658D01*
X142895000Y-132481000D01*
X142895000Y-136019000D01*
X142874998Y-136087121D01*
X142821342Y-136133614D01*
X142769000Y-136145000D01*
X139231000Y-136145000D01*
X139162879Y-136124998D01*
X139116386Y-136071342D01*
X139105000Y-136019000D01*
X139105000Y-132481000D01*
X139125002Y-132412879D01*
X139178658Y-132366386D01*
X139231000Y-132355000D01*
X142769000Y-132355000D01*
X142837121Y-132375002D01*
G37*
%TD.AperFunction*%
%TA.AperFunction,Conductor*%
G36*
X129337121Y-132375001D02*
G01*
X129383614Y-132428657D01*
X129395000Y-132480999D01*
X129395000Y-136018999D01*
X129374998Y-136087120D01*
X129321342Y-136133613D01*
X129269000Y-136144999D01*
X125731000Y-136144999D01*
X125662879Y-136124997D01*
X125616386Y-136071341D01*
X125605000Y-136018999D01*
X125605000Y-132480999D01*
X125625002Y-132412878D01*
X125678658Y-132366385D01*
X125731000Y-132354999D01*
X129269000Y-132354999D01*
X129337121Y-132375001D01*
G37*
%TD.AperFunction*%
%TA.AperFunction,Conductor*%
G36*
X155837121Y-119375002D02*
G01*
X155883614Y-119428658D01*
X155895000Y-119481000D01*
X155895000Y-123019000D01*
X155874998Y-123087121D01*
X155821342Y-123133614D01*
X155769000Y-123145000D01*
X152231000Y-123145000D01*
X152162879Y-123124998D01*
X152116386Y-123071342D01*
X152105000Y-123019000D01*
X152105000Y-119481000D01*
X152125002Y-119412879D01*
X152178658Y-119366386D01*
X152231000Y-119355000D01*
X155769000Y-119355000D01*
X155837121Y-119375002D01*
G37*
%TD.AperFunction*%
%TA.AperFunction,Conductor*%
G36*
X165337121Y-119375002D02*
G01*
X165383614Y-119428658D01*
X165395000Y-119481000D01*
X165395000Y-123019000D01*
X165374998Y-123087121D01*
X165321342Y-123133614D01*
X165269000Y-123145000D01*
X161731000Y-123145000D01*
X161662879Y-123124998D01*
X161616386Y-123071342D01*
X161605000Y-123019000D01*
X161605000Y-119481000D01*
X161625002Y-119412879D01*
X161678658Y-119366386D01*
X161731000Y-119355000D01*
X165269000Y-119355000D01*
X165337121Y-119375002D01*
G37*
%TD.AperFunction*%
%TA.AperFunction,Conductor*%
G36*
X110471784Y-86741252D02*
G01*
X110501625Y-86805673D01*
X110501724Y-86842207D01*
X110486500Y-86948094D01*
X110486500Y-99673816D01*
X110493692Y-99759457D01*
X110500701Y-99800894D01*
X110522072Y-99884126D01*
X110543947Y-99946942D01*
X110547073Y-99957346D01*
X110549178Y-99965632D01*
X110572719Y-100058321D01*
X110598337Y-100121405D01*
X110623416Y-100174293D01*
X110627187Y-100179330D01*
X110627192Y-100179339D01*
X110629602Y-100182558D01*
X110636453Y-100195679D01*
X110637551Y-100195030D01*
X110660062Y-100233094D01*
X110672875Y-100253638D01*
X110674410Y-100255975D01*
X110695096Y-100323228D01*
X110695120Y-100324812D01*
X110695124Y-100325002D01*
X110695125Y-100325077D01*
X110695315Y-100333163D01*
X110695322Y-100333382D01*
X110696137Y-100359306D01*
X110696059Y-100369193D01*
X110695569Y-100379593D01*
X110695000Y-100403763D01*
X110695000Y-100961328D01*
X110674998Y-101029449D01*
X110621342Y-101075942D01*
X110551068Y-101086046D01*
X110486488Y-101056552D01*
X110457543Y-101020093D01*
X110429884Y-100967633D01*
X110429883Y-100967632D01*
X110427931Y-100963929D01*
X110254129Y-100719367D01*
X110049510Y-100499939D01*
X109817667Y-100309502D01*
X109562675Y-100151400D01*
X109289012Y-100028411D01*
X109075650Y-99964805D01*
X109005486Y-99943888D01*
X109005484Y-99943888D01*
X109001487Y-99942696D01*
X108997367Y-99942043D01*
X108997365Y-99942043D01*
X108878491Y-99923215D01*
X108705152Y-99895761D01*
X108662423Y-99893821D01*
X108612738Y-99891564D01*
X108612719Y-99891564D01*
X108611319Y-99891500D01*
X102923893Y-99891500D01*
X102700630Y-99906329D01*
X102696536Y-99907154D01*
X102696532Y-99907155D01*
X102555487Y-99935595D01*
X102406520Y-99965632D01*
X102122837Y-100063312D01*
X102119104Y-100065181D01*
X102119100Y-100065183D01*
X101891137Y-100179339D01*
X101854565Y-100197653D01*
X101851100Y-100200008D01*
X101616699Y-100359306D01*
X101606416Y-100366294D01*
X101603300Y-100369080D01*
X101565325Y-100403034D01*
X101382752Y-100566274D01*
X101380035Y-100569444D01*
X101380034Y-100569445D01*
X101254155Y-100716311D01*
X101187501Y-100794077D01*
X101185227Y-100797579D01*
X101185223Y-100797584D01*
X101074792Y-100967633D01*
X101024093Y-101045703D01*
X101022298Y-101049483D01*
X101022297Y-101049485D01*
X101012770Y-101069548D01*
X100965481Y-101122503D01*
X100898951Y-101141500D01*
X100371850Y-101141500D01*
X100358242Y-101140763D01*
X100357662Y-101140700D01*
X100320612Y-101136675D01*
X100270570Y-101141053D01*
X100265788Y-101141379D01*
X100263310Y-101141500D01*
X100260231Y-101141500D01*
X100257177Y-101141799D01*
X100257166Y-101141800D01*
X100217529Y-101145687D01*
X100216215Y-101145809D01*
X100180688Y-101148917D01*
X100123587Y-101153913D01*
X100118468Y-101155400D01*
X100113167Y-101155920D01*
X100024166Y-101182791D01*
X100023033Y-101183126D01*
X99939586Y-101207370D01*
X99939582Y-101207372D01*
X99933664Y-101209091D01*
X99928932Y-101211544D01*
X99923831Y-101213084D01*
X99918388Y-101215978D01*
X99841740Y-101256731D01*
X99840574Y-101257343D01*
X99763547Y-101297271D01*
X99758074Y-101300108D01*
X99753911Y-101303431D01*
X99749204Y-101305934D01*
X99744429Y-101309828D01*
X99744428Y-101309829D01*
X99677102Y-101364739D01*
X99676075Y-101365567D01*
X99639792Y-101394531D01*
X99639787Y-101394536D01*
X99637028Y-101396738D01*
X99634527Y-101399239D01*
X99633809Y-101399881D01*
X99629461Y-101403594D01*
X99595938Y-101430935D01*
X99592015Y-101435677D01*
X99592013Y-101435679D01*
X99566703Y-101466273D01*
X99558713Y-101475053D01*
X89373595Y-111660171D01*
X89311283Y-111694197D01*
X89240468Y-111689132D01*
X89183632Y-111646585D01*
X89158821Y-111580065D01*
X89158500Y-111571076D01*
X89158500Y-97663842D01*
X89178502Y-97595721D01*
X89232158Y-97549228D01*
X89302334Y-97539138D01*
X89303168Y-97539448D01*
X89390832Y-97551145D01*
X89475980Y-97562507D01*
X89475984Y-97562507D01*
X89482961Y-97563438D01*
X89489972Y-97562800D01*
X89489976Y-97562800D01*
X89642701Y-97548900D01*
X89663600Y-97546998D01*
X89670300Y-97544821D01*
X89670305Y-97544820D01*
X89747717Y-97519667D01*
X89786653Y-97513500D01*
X90710724Y-97513500D01*
X90754644Y-97521403D01*
X90796558Y-97536991D01*
X90796568Y-97536994D01*
X90803168Y-97539448D01*
X90810149Y-97540379D01*
X90810151Y-97540380D01*
X90975980Y-97562507D01*
X90975984Y-97562507D01*
X90982961Y-97563438D01*
X90989972Y-97562800D01*
X90989976Y-97562800D01*
X91142701Y-97548900D01*
X91163600Y-97546998D01*
X91170300Y-97544821D01*
X91170305Y-97544820D01*
X91247717Y-97519667D01*
X91286653Y-97513500D01*
X92210724Y-97513500D01*
X92254644Y-97521403D01*
X92296558Y-97536991D01*
X92296568Y-97536994D01*
X92303168Y-97539448D01*
X92310149Y-97540379D01*
X92310151Y-97540380D01*
X92475980Y-97562507D01*
X92475984Y-97562507D01*
X92482961Y-97563438D01*
X92489972Y-97562800D01*
X92489976Y-97562800D01*
X92642701Y-97548900D01*
X92663600Y-97546998D01*
X92670300Y-97544821D01*
X92670305Y-97544820D01*
X92747717Y-97519667D01*
X92786653Y-97513500D01*
X93710724Y-97513500D01*
X93754644Y-97521403D01*
X93796558Y-97536991D01*
X93796568Y-97536994D01*
X93803168Y-97539448D01*
X93810149Y-97540379D01*
X93810151Y-97540380D01*
X93975980Y-97562507D01*
X93975984Y-97562507D01*
X93982961Y-97563438D01*
X93989972Y-97562800D01*
X93989976Y-97562800D01*
X94142701Y-97548900D01*
X94163600Y-97546998D01*
X94170300Y-97544821D01*
X94170305Y-97544820D01*
X94247717Y-97519667D01*
X94286653Y-97513500D01*
X95210724Y-97513500D01*
X95254644Y-97521403D01*
X95296558Y-97536991D01*
X95296568Y-97536994D01*
X95303168Y-97539448D01*
X95310149Y-97540379D01*
X95310151Y-97540380D01*
X95475980Y-97562507D01*
X95475984Y-97562507D01*
X95482961Y-97563438D01*
X95489972Y-97562800D01*
X95489976Y-97562800D01*
X95642701Y-97548900D01*
X95663600Y-97546998D01*
X95670300Y-97544821D01*
X95670305Y-97544820D01*
X95747717Y-97519667D01*
X95786653Y-97513500D01*
X96710724Y-97513500D01*
X96754644Y-97521403D01*
X96796558Y-97536991D01*
X96796568Y-97536994D01*
X96803168Y-97539448D01*
X96810149Y-97540379D01*
X96810151Y-97540380D01*
X96975980Y-97562507D01*
X96975984Y-97562507D01*
X96982961Y-97563438D01*
X96989972Y-97562800D01*
X96989976Y-97562800D01*
X97142701Y-97548900D01*
X97163600Y-97546998D01*
X97170300Y-97544821D01*
X97170305Y-97544820D01*
X97247717Y-97519667D01*
X97286653Y-97513500D01*
X98210724Y-97513500D01*
X98254644Y-97521403D01*
X98296558Y-97536991D01*
X98296568Y-97536994D01*
X98303168Y-97539448D01*
X98310149Y-97540379D01*
X98310151Y-97540380D01*
X98475980Y-97562507D01*
X98475984Y-97562507D01*
X98482961Y-97563438D01*
X98489972Y-97562800D01*
X98489976Y-97562800D01*
X98642701Y-97548900D01*
X98663600Y-97546998D01*
X98670300Y-97544821D01*
X98670305Y-97544820D01*
X98747717Y-97519667D01*
X98786653Y-97513500D01*
X100197810Y-97513500D01*
X100224385Y-97512076D01*
X100250999Y-97510650D01*
X100251009Y-97510649D01*
X100252692Y-97510559D01*
X100279475Y-97507680D01*
X100281132Y-97507412D01*
X100281143Y-97507410D01*
X100327640Y-97499875D01*
X100327645Y-97499874D01*
X100333752Y-97498884D01*
X100339549Y-97496722D01*
X100339552Y-97496721D01*
X100466479Y-97449378D01*
X100466481Y-97449377D01*
X100470693Y-97447806D01*
X100479766Y-97442852D01*
X100529057Y-97415936D01*
X100529059Y-97415935D01*
X100533005Y-97413780D01*
X100577047Y-97380810D01*
X100646402Y-97328891D01*
X100646406Y-97328887D01*
X100650004Y-97326194D01*
X101076194Y-96900004D01*
X101112917Y-96859123D01*
X101129820Y-96838149D01*
X101134034Y-96832306D01*
X101158362Y-96798570D01*
X101158365Y-96798565D01*
X101161982Y-96793549D01*
X101222698Y-96660600D01*
X101233152Y-96624998D01*
X101241431Y-96596802D01*
X101241432Y-96596798D01*
X101242700Y-96592479D01*
X101243471Y-96587121D01*
X101245055Y-96576107D01*
X103891500Y-96576107D01*
X103906329Y-96799370D01*
X103907154Y-96803464D01*
X103907155Y-96803468D01*
X103930225Y-96917880D01*
X103965632Y-97093480D01*
X104063312Y-97377163D01*
X104065181Y-97380896D01*
X104065183Y-97380900D01*
X104195778Y-97641691D01*
X104197653Y-97645435D01*
X104231288Y-97694927D01*
X104312289Y-97814117D01*
X104366294Y-97893584D01*
X104566274Y-98117248D01*
X104569444Y-98119965D01*
X104569445Y-98119966D01*
X104790903Y-98309779D01*
X104790907Y-98309782D01*
X104794077Y-98312499D01*
X104797579Y-98314773D01*
X104797584Y-98314777D01*
X105042193Y-98473628D01*
X105042198Y-98473631D01*
X105045703Y-98475907D01*
X105316730Y-98604600D01*
X105320713Y-98605879D01*
X105320716Y-98605880D01*
X105330325Y-98608965D01*
X105602396Y-98696318D01*
X105683264Y-98710868D01*
X105893575Y-98748709D01*
X105893580Y-98748710D01*
X105897684Y-98749448D01*
X105901851Y-98749637D01*
X105901858Y-98749638D01*
X106193234Y-98762870D01*
X106193240Y-98762870D01*
X106197404Y-98763059D01*
X106201552Y-98762696D01*
X106201556Y-98762696D01*
X106392290Y-98746008D01*
X106496292Y-98736909D01*
X106500364Y-98735999D01*
X106500369Y-98735998D01*
X106785016Y-98672372D01*
X106785019Y-98672371D01*
X106789095Y-98671460D01*
X107070671Y-98567860D01*
X107074359Y-98565916D01*
X107074367Y-98565912D01*
X107332367Y-98429884D01*
X107332368Y-98429883D01*
X107336071Y-98427931D01*
X107580633Y-98254129D01*
X107800061Y-98049510D01*
X107990498Y-97817667D01*
X108148600Y-97562675D01*
X108154644Y-97549228D01*
X108201192Y-97445652D01*
X108271589Y-97289012D01*
X108340429Y-97058094D01*
X108356112Y-97005486D01*
X108356112Y-97005484D01*
X108357304Y-97001487D01*
X108404239Y-96705152D01*
X108408500Y-96611319D01*
X108408500Y-90923893D01*
X108393671Y-90700630D01*
X108334368Y-90406520D01*
X108236688Y-90122837D01*
X108102347Y-89854565D01*
X108031294Y-89750013D01*
X107936057Y-89609875D01*
X107936055Y-89609872D01*
X107933706Y-89606416D01*
X107733726Y-89382752D01*
X107577350Y-89248721D01*
X107509097Y-89190221D01*
X107509093Y-89190218D01*
X107505923Y-89187501D01*
X107502421Y-89185227D01*
X107502416Y-89185223D01*
X107257807Y-89026372D01*
X107257802Y-89026369D01*
X107254297Y-89024093D01*
X106983270Y-88895400D01*
X106979287Y-88894121D01*
X106979284Y-88894120D01*
X106701591Y-88804962D01*
X106701590Y-88804962D01*
X106697604Y-88803682D01*
X106616736Y-88789132D01*
X106406425Y-88751291D01*
X106406420Y-88751290D01*
X106402316Y-88750552D01*
X106398149Y-88750363D01*
X106398142Y-88750362D01*
X106106766Y-88737130D01*
X106106760Y-88737130D01*
X106102596Y-88736941D01*
X106098448Y-88737304D01*
X106098444Y-88737304D01*
X105938579Y-88751291D01*
X105803708Y-88763091D01*
X105799636Y-88764001D01*
X105799631Y-88764002D01*
X105514984Y-88827628D01*
X105514981Y-88827629D01*
X105510905Y-88828540D01*
X105229329Y-88932140D01*
X105225641Y-88934084D01*
X105225633Y-88934088D01*
X105050601Y-89026372D01*
X104963929Y-89072069D01*
X104719367Y-89245871D01*
X104499939Y-89450490D01*
X104309502Y-89682333D01*
X104151400Y-89937325D01*
X104028411Y-90210988D01*
X103942696Y-90498513D01*
X103895761Y-90794848D01*
X103891500Y-90888681D01*
X103891500Y-96576107D01*
X101245055Y-96576107D01*
X101262861Y-96452257D01*
X101262861Y-96452252D01*
X101263500Y-96447810D01*
X101263500Y-87113021D01*
X101283502Y-87044900D01*
X101337158Y-86998407D01*
X101407432Y-86988303D01*
X101469475Y-87015656D01*
X101682333Y-87190498D01*
X101937325Y-87348600D01*
X102210988Y-87471589D01*
X102385368Y-87523574D01*
X102494514Y-87556112D01*
X102494516Y-87556112D01*
X102498513Y-87557304D01*
X102502633Y-87557957D01*
X102502635Y-87557957D01*
X102621509Y-87576785D01*
X102794848Y-87604239D01*
X102837577Y-87606179D01*
X102887262Y-87608436D01*
X102887281Y-87608436D01*
X102888681Y-87608500D01*
X108576107Y-87608500D01*
X108799370Y-87593671D01*
X108803464Y-87592846D01*
X108803468Y-87592845D01*
X108944513Y-87564405D01*
X109093480Y-87534368D01*
X109377163Y-87436688D01*
X109380896Y-87434819D01*
X109380900Y-87434817D01*
X109641691Y-87304222D01*
X109641693Y-87304221D01*
X109645435Y-87302347D01*
X109893584Y-87133706D01*
X110117248Y-86933726D01*
X110281338Y-86742279D01*
X110340856Y-86703574D01*
X110411852Y-86703191D01*
X110471784Y-86741252D01*
G37*
%TD.AperFunction*%
%TA.AperFunction,Conductor*%
G36*
X155837121Y-106125002D02*
G01*
X155883614Y-106178658D01*
X155895000Y-106231000D01*
X155895000Y-109769000D01*
X155874998Y-109837121D01*
X155821342Y-109883614D01*
X155769000Y-109895000D01*
X152231000Y-109895000D01*
X152162879Y-109874998D01*
X152116386Y-109821342D01*
X152105000Y-109769000D01*
X152105000Y-106231000D01*
X152125002Y-106162879D01*
X152178658Y-106116386D01*
X152231000Y-106105000D01*
X155769000Y-106105000D01*
X155837121Y-106125002D01*
G37*
%TD.AperFunction*%
%TA.AperFunction,Conductor*%
G36*
X165337121Y-106125002D02*
G01*
X165383614Y-106178658D01*
X165395000Y-106231000D01*
X165395000Y-109769000D01*
X165374998Y-109837121D01*
X165321342Y-109883614D01*
X165269000Y-109895000D01*
X161731000Y-109895000D01*
X161662879Y-109874998D01*
X161616386Y-109821342D01*
X161605000Y-109769000D01*
X161605000Y-106231000D01*
X161625002Y-106162879D01*
X161678658Y-106116386D01*
X161731000Y-106105000D01*
X165269000Y-106105000D01*
X165337121Y-106125002D01*
G37*
%TD.AperFunction*%
%TA.AperFunction,Conductor*%
G36*
X125301411Y-97275002D02*
G01*
X125347837Y-97328513D01*
X125357826Y-97350313D01*
X125358902Y-97352279D01*
X125373854Y-97379609D01*
X125373860Y-97379620D01*
X125374940Y-97381593D01*
X125414345Y-97442852D01*
X125517693Y-97546201D01*
X125521295Y-97548898D01*
X125521298Y-97548900D01*
X125540719Y-97563438D01*
X125574529Y-97588748D01*
X125702808Y-97658793D01*
X125711610Y-97660708D01*
X125711613Y-97660709D01*
X125841225Y-97688905D01*
X125841228Y-97688905D01*
X125845625Y-97689862D01*
X125916440Y-97694927D01*
X125920927Y-97694606D01*
X126053245Y-97685141D01*
X126062233Y-97684498D01*
X126070676Y-97681349D01*
X126194960Y-97634992D01*
X126194962Y-97634991D01*
X126199174Y-97633420D01*
X126261486Y-97599394D01*
X126279315Y-97586047D01*
X126318201Y-97556937D01*
X126384721Y-97532126D01*
X126454096Y-97547217D01*
X126504298Y-97597419D01*
X126519390Y-97666793D01*
X126494580Y-97733313D01*
X126482806Y-97746900D01*
X125820189Y-98409517D01*
X125803525Y-98426983D01*
X125800353Y-98430468D01*
X125747943Y-98464886D01*
X125744402Y-98466097D01*
X125744352Y-98466115D01*
X125743691Y-98466341D01*
X125721077Y-98474678D01*
X125719282Y-98475388D01*
X125582036Y-98556244D01*
X125578239Y-98559366D01*
X125526182Y-98602166D01*
X125526178Y-98602169D01*
X125522383Y-98605290D01*
X125416518Y-98724319D01*
X125355802Y-98857268D01*
X125335800Y-98925389D01*
X125315000Y-99070058D01*
X125315000Y-99319000D01*
X125294998Y-99387121D01*
X125241342Y-99433614D01*
X125189000Y-99445000D01*
X124251000Y-99445000D01*
X124182879Y-99424998D01*
X124136386Y-99371342D01*
X124125000Y-99319000D01*
X124125000Y-97381000D01*
X124145002Y-97312879D01*
X124198658Y-97266386D01*
X124251000Y-97255000D01*
X125233290Y-97255000D01*
X125301411Y-97275002D01*
G37*
%TD.AperFunction*%
%TA.AperFunction,Conductor*%
G36*
X155837121Y-92875002D02*
G01*
X155883614Y-92928658D01*
X155895000Y-92981000D01*
X155895000Y-96519000D01*
X155874998Y-96587121D01*
X155821342Y-96633614D01*
X155769000Y-96645000D01*
X152231000Y-96645000D01*
X152162879Y-96624998D01*
X152116386Y-96571342D01*
X152105000Y-96519000D01*
X152105000Y-92981000D01*
X152125002Y-92912879D01*
X152178658Y-92866386D01*
X152231000Y-92855000D01*
X155769000Y-92855000D01*
X155837121Y-92875002D01*
G37*
%TD.AperFunction*%
%TA.AperFunction,Conductor*%
G36*
X165337121Y-92875002D02*
G01*
X165383614Y-92928658D01*
X165395000Y-92981000D01*
X165395000Y-96519000D01*
X165374998Y-96587121D01*
X165321342Y-96633614D01*
X165269000Y-96645000D01*
X161731000Y-96645000D01*
X161662879Y-96624998D01*
X161616386Y-96571342D01*
X161605000Y-96519000D01*
X161605000Y-92981000D01*
X161625002Y-92912879D01*
X161678658Y-92866386D01*
X161731000Y-92855000D01*
X165269000Y-92855000D01*
X165337121Y-92875002D01*
G37*
%TD.AperFunction*%
%TD*%
M02*
