%TF.GenerationSoftware,KiCad,Pcbnew,(6.0.11)*%
%TF.CreationDate,2024-02-29T08:21:51+09:00*%
%TF.ProjectId,LargePW,4c617267-6550-4572-9e6b-696361645f70,rev?*%
%TF.SameCoordinates,Original*%
%TF.FileFunction,Legend,Bot*%
%TF.FilePolarity,Positive*%
%FSLAX46Y46*%
G04 Gerber Fmt 4.6, Leading zero omitted, Abs format (unit mm)*
G04 Created by KiCad (PCBNEW (6.0.11)) date 2024-02-29 08:21:51*
%MOMM*%
%LPD*%
G01*
G04 APERTURE LIST*
G04 Aperture macros list*
%AMRoundRect*
0 Rectangle with rounded corners*
0 $1 Rounding radius*
0 $2 $3 $4 $5 $6 $7 $8 $9 X,Y pos of 4 corners*
0 Add a 4 corners polygon primitive as box body*
4,1,4,$2,$3,$4,$5,$6,$7,$8,$9,$2,$3,0*
0 Add four circle primitives for the rounded corners*
1,1,$1+$1,$2,$3*
1,1,$1+$1,$4,$5*
1,1,$1+$1,$6,$7*
1,1,$1+$1,$8,$9*
0 Add four rect primitives between the rounded corners*
20,1,$1+$1,$2,$3,$4,$5,0*
20,1,$1+$1,$4,$5,$6,$7,0*
20,1,$1+$1,$6,$7,$8,$9,0*
20,1,$1+$1,$8,$9,$2,$3,0*%
G04 Aperture macros list end*
%ADD10C,0.120000*%
%ADD11O,9.000000X3.500000*%
%ADD12O,3.500000X9.000000*%
%ADD13R,3.800000X3.800000*%
%ADD14C,4.000000*%
%ADD15RoundRect,0.250000X-0.675000X0.600000X-0.675000X-0.600000X0.675000X-0.600000X0.675000X0.600000X0*%
%ADD16O,1.850000X1.700000*%
%ADD17C,2.780000*%
%ADD18O,4.000000X1.524000*%
%ADD19C,5.000000*%
%ADD20C,1.524000*%
%ADD21R,4.000000X4.000000*%
%ADD22R,1.900000X0.800000*%
%ADD23R,1.000000X1.000000*%
%ADD24RoundRect,0.237500X0.237500X-0.250000X0.237500X0.250000X-0.237500X0.250000X-0.237500X-0.250000X0*%
%ADD25RoundRect,0.237500X-0.237500X0.250000X-0.237500X-0.250000X0.237500X-0.250000X0.237500X0.250000X0*%
%ADD26R,0.800000X1.900000*%
%ADD27RoundRect,0.237500X-0.237500X0.300000X-0.237500X-0.300000X0.237500X-0.300000X0.237500X0.300000X0*%
G04 APERTURE END LIST*
D10*
%TO.C,Q5*%
X101760000Y-141508349D02*
X101760000Y-140578349D01*
X101760000Y-141508349D02*
X98600000Y-141508349D01*
X101760000Y-138348349D02*
X101760000Y-139278349D01*
X101760000Y-138348349D02*
X100300000Y-138348349D01*
%TO.C,D2*%
X148650000Y-74519000D02*
X148650000Y-71369000D01*
X150350000Y-74519000D02*
X150350000Y-71369000D01*
X150350000Y-74519000D02*
X148650000Y-74519000D01*
%TO.C,R6*%
X99992500Y-143794724D02*
X99992500Y-143285276D01*
X98947500Y-143794724D02*
X98947500Y-143285276D01*
%TO.C,R4*%
X111272500Y-140183073D02*
X111272500Y-139673625D01*
X110227500Y-140183073D02*
X110227500Y-139673625D01*
%TO.C,R5*%
X105022500Y-139673625D02*
X105022500Y-140183073D01*
X103977500Y-139673625D02*
X103977500Y-140183073D01*
%TO.C,Q6*%
X94840000Y-138240000D02*
X95770000Y-138240000D01*
X94840000Y-138240000D02*
X94840000Y-139700000D01*
X98000000Y-138240000D02*
X98000000Y-141400000D01*
X98000000Y-138240000D02*
X97070000Y-138240000D01*
%TO.C,R2*%
X106522500Y-139673625D02*
X106522500Y-140183073D01*
X105477500Y-139673625D02*
X105477500Y-140183073D01*
%TO.C,C1*%
X107240000Y-139782082D02*
X107240000Y-140074616D01*
X108260000Y-139782082D02*
X108260000Y-140074616D01*
%TO.C,R3*%
X108727500Y-139673625D02*
X108727500Y-140183073D01*
X109772500Y-139673625D02*
X109772500Y-140183073D01*
%TO.C,R1*%
X108822500Y-136005276D02*
X108822500Y-136514724D01*
X107777500Y-136005276D02*
X107777500Y-136514724D01*
%TO.C,D1*%
X88100000Y-134900000D02*
X91250000Y-134900000D01*
X88100000Y-136600000D02*
X88100000Y-134900000D01*
X88100000Y-136600000D02*
X91250000Y-136600000D01*
%TD*%
%LPC*%
D11*
%TO.C,K1*%
X96250000Y-93750000D03*
X105750000Y-102150000D03*
X105750000Y-85350000D03*
D12*
X114150000Y-93750000D03*
X106150000Y-93750000D03*
%TD*%
D13*
%TO.C,J2*%
X127500000Y-134249999D03*
D14*
X122500000Y-134249999D03*
%TD*%
D13*
%TO.C,J12*%
X154000000Y-108000000D03*
D14*
X154000000Y-113000000D03*
%TD*%
D13*
%TO.C,J3*%
X127500000Y-143750000D03*
D14*
X122500000Y-143750000D03*
%TD*%
D13*
%TO.C,J6*%
X154000000Y-94750000D03*
D14*
X154000000Y-99750000D03*
%TD*%
D15*
%TO.C,J1*%
X88600000Y-130100000D03*
D16*
X88600000Y-132600000D03*
%TD*%
D13*
%TO.C,J9*%
X154500000Y-143750000D03*
D14*
X149500000Y-143750000D03*
%TD*%
D13*
%TO.C,J7*%
X163500000Y-94750000D03*
D14*
X163500000Y-99750000D03*
%TD*%
D13*
%TO.C,J4*%
X141000000Y-134250000D03*
D14*
X136000000Y-134250000D03*
%TD*%
D17*
%TO.C,F1*%
X103250000Y-70850000D03*
X103250000Y-74250000D03*
X93330000Y-74250000D03*
X93330000Y-70850000D03*
%TD*%
D13*
%TO.C,J10*%
X154000000Y-121250000D03*
D14*
X154000000Y-126250000D03*
%TD*%
D13*
%TO.C,J11*%
X163500000Y-121250000D03*
D14*
X163500000Y-126250000D03*
%TD*%
D13*
%TO.C,J5*%
X141000000Y-143750001D03*
D14*
X136000000Y-143750001D03*
%TD*%
D13*
%TO.C,J13*%
X163500000Y-108000000D03*
D14*
X163500000Y-113000000D03*
%TD*%
D18*
%TO.C,SW1*%
X105000000Y-142928349D03*
X105000000Y-136928349D03*
%TD*%
D19*
%TO.C,H1*%
X122000000Y-72250000D03*
%TD*%
D13*
%TO.C,J8*%
X154500000Y-134250000D03*
D14*
X149500000Y-134250000D03*
%TD*%
D20*
%TO.C,MES1*%
X114000000Y-124050000D03*
X112000000Y-124035000D03*
%TD*%
D19*
%TO.C,H2*%
X111000000Y-72250000D03*
%TD*%
D21*
%TO.C,C2*%
X149500000Y-77619000D03*
D14*
X149500000Y-67619000D03*
%TD*%
D22*
%TO.C,Q5*%
X99500000Y-140878349D03*
X99500000Y-138978349D03*
X102500000Y-139928349D03*
%TD*%
D23*
%TO.C,D2*%
X149500000Y-73869000D03*
X149500000Y-71369000D03*
%TD*%
D24*
%TO.C,R6*%
X99470000Y-144452500D03*
X99470000Y-142627500D03*
%TD*%
%TO.C,R4*%
X110750000Y-140840849D03*
X110750000Y-139015849D03*
%TD*%
D25*
%TO.C,R5*%
X104500000Y-139015849D03*
X104500000Y-140840849D03*
%TD*%
D26*
%TO.C,Q6*%
X97370000Y-140500000D03*
X95470000Y-140500000D03*
X96420000Y-137500000D03*
%TD*%
D25*
%TO.C,R2*%
X106000000Y-139015849D03*
X106000000Y-140840849D03*
%TD*%
D27*
%TO.C,C1*%
X107750000Y-139065849D03*
X107750000Y-140790849D03*
%TD*%
D25*
%TO.C,R3*%
X109250000Y-139015849D03*
X109250000Y-140840849D03*
%TD*%
%TO.C,R1*%
X108300000Y-135347500D03*
X108300000Y-137172500D03*
%TD*%
D23*
%TO.C,D1*%
X88750000Y-135750000D03*
X91250000Y-135750000D03*
%TD*%
M02*
