%TF.GenerationSoftware,KiCad,Pcbnew,7.0.1*%
%TF.CreationDate,2024-02-10T23:33:58+09:00*%
%TF.ProjectId,LED_lighting_large,4c45445f-6c69-4676-9874-696e675f6c61,rev?*%
%TF.SameCoordinates,Original*%
%TF.FileFunction,Legend,Bot*%
%TF.FilePolarity,Positive*%
%FSLAX46Y46*%
G04 Gerber Fmt 4.6, Leading zero omitted, Abs format (unit mm)*
G04 Created by KiCad (PCBNEW 7.0.1) date 2024-02-10 23:33:58*
%MOMM*%
%LPD*%
G01*
G04 APERTURE LIST*
G04 Aperture macros list*
%AMRoundRect*
0 Rectangle with rounded corners*
0 $1 Rounding radius*
0 $2 $3 $4 $5 $6 $7 $8 $9 X,Y pos of 4 corners*
0 Add a 4 corners polygon primitive as box body*
4,1,4,$2,$3,$4,$5,$6,$7,$8,$9,$2,$3,0*
0 Add four circle primitives for the rounded corners*
1,1,$1+$1,$2,$3*
1,1,$1+$1,$4,$5*
1,1,$1+$1,$6,$7*
1,1,$1+$1,$8,$9*
0 Add four rect primitives between the rounded corners*
20,1,$1+$1,$2,$3,$4,$5,0*
20,1,$1+$1,$4,$5,$6,$7,0*
20,1,$1+$1,$6,$7,$8,$9,0*
20,1,$1+$1,$8,$9,$2,$3,0*%
%AMHorizOval*
0 Thick line with rounded ends*
0 $1 width*
0 $2 $3 position (X,Y) of the first rounded end (center of the circle)*
0 $4 $5 position (X,Y) of the second rounded end (center of the circle)*
0 Add line between two ends*
20,1,$1,$2,$3,$4,$5,0*
0 Add two circle primitives to create the rounded ends*
1,1,$1,$2,$3*
1,1,$1,$4,$5*%
G04 Aperture macros list end*
%ADD10C,0.150000*%
%ADD11C,0.120000*%
%ADD12RoundRect,0.250000X0.544709X-0.465206X0.681272X0.221343X-0.544709X0.465206X-0.681272X-0.221343X0*%
%ADD13HorizOval,1.200000X-0.269716X0.053650X0.269716X-0.053650X0*%
%ADD14RoundRect,0.250000X0.681272X-0.221343X0.544709X0.465206X-0.681272X0.221343X-0.544709X-0.465206X0*%
%ADD15HorizOval,1.200000X0.269716X0.053650X-0.269716X-0.053650X0*%
G04 APERTURE END LIST*
D10*
%TO.C,J2*%
X44134281Y-8438990D02*
X44834842Y-8578340D01*
X44834842Y-8578340D02*
X44984244Y-8559506D01*
X44984244Y-8559506D02*
X45096233Y-8484678D01*
X45096233Y-8484678D02*
X45170807Y-8353856D01*
X45170807Y-8353856D02*
X45189387Y-8260448D01*
X44144079Y-8877907D02*
X44088085Y-8915321D01*
X44088085Y-8915321D02*
X44022801Y-8999439D01*
X44022801Y-8999439D02*
X43976351Y-9232959D01*
X43976351Y-9232959D02*
X44004475Y-9335658D01*
X44004475Y-9335658D02*
X44041889Y-9391652D01*
X44041889Y-9391652D02*
X44126007Y-9456936D01*
X44126007Y-9456936D02*
X44219415Y-9475516D01*
X44219415Y-9475516D02*
X44368818Y-9456682D01*
X44368818Y-9456682D02*
X45040746Y-9007713D01*
X45040746Y-9007713D02*
X44919976Y-9614866D01*
%TO.C,J1*%
X45188392Y8648665D02*
X44487831Y8509315D01*
X44487831Y8509315D02*
X44357009Y8434740D01*
X44357009Y8434740D02*
X44282181Y8322752D01*
X44282181Y8322752D02*
X44263347Y8173350D01*
X44263347Y8173350D02*
X44281927Y8079942D01*
X44012516Y9434360D02*
X44123996Y8873911D01*
X44068256Y9154136D02*
X45049042Y9349226D01*
X45049042Y9349226D02*
X44927510Y9227948D01*
X44927510Y9227948D02*
X44852681Y9115960D01*
X44852681Y9115960D02*
X44824557Y9013261D01*
D11*
%TO.C,J2*%
X42970892Y-12992860D02*
X41744911Y-12748997D01*
X38105877Y-11719271D02*
X39690011Y-3755294D01*
X40175334Y-12130911D02*
X40294339Y-11532632D01*
X41450355Y-12384529D02*
X41569360Y-11786250D01*
X42735184Y-12640097D02*
X38105877Y-11719271D01*
X38823162Y-11239997D02*
X40169285Y-4472578D01*
X42255910Y-11922813D02*
X38823162Y-11239997D01*
X43214755Y-11766878D02*
X42970892Y-12992860D01*
X43216173Y-11247169D02*
X43020016Y-11208150D01*
X43078543Y-10913915D02*
X43274700Y-10952933D01*
X43176621Y-10933424D02*
X43118094Y-11227660D01*
X43274700Y-10952933D02*
X43216173Y-11247169D01*
X42636336Y-10010282D02*
X42255910Y-11922813D01*
X43234615Y-10129287D02*
X42636336Y-10010282D01*
X39281624Y-8935151D02*
X39772016Y-9032696D01*
X39772016Y-9032696D02*
X39811034Y-8836539D01*
X39301133Y-8837073D02*
X39791525Y-8934618D01*
X39811034Y-8836539D02*
X39320642Y-8738994D01*
X39671804Y-6973581D02*
X40162197Y-7071126D01*
X40162197Y-7071126D02*
X40201215Y-6874969D01*
X39691313Y-6875502D02*
X40181706Y-6973047D01*
X40201215Y-6874969D02*
X39710822Y-6777424D01*
X43221607Y-7067926D02*
X43819886Y-7186931D01*
X40169285Y-4472578D02*
X43602033Y-5155394D01*
X43602033Y-5155394D02*
X43221607Y-7067926D01*
X39690011Y-3755294D02*
X44319317Y-4676121D01*
X41759468Y-4166935D02*
X41640463Y-4765214D01*
X43034489Y-4420552D02*
X42915484Y-5018831D01*
X44319317Y-4676121D02*
X42735184Y-12640097D01*
%TO.C,J1*%
X44672080Y4440412D02*
X43446098Y4196549D01*
X39690011Y3755294D02*
X38105877Y11719271D01*
X41759468Y4166935D02*
X41640463Y4765214D01*
X43034489Y4420552D02*
X42915484Y5018831D01*
X44319317Y4676121D02*
X39690011Y3755294D01*
X40169285Y4472578D02*
X38823162Y11239997D01*
X43602033Y5155394D02*
X40169285Y4472578D01*
X44428217Y5666394D02*
X44672080Y4440412D01*
X44230643Y6147085D02*
X44034485Y6108067D01*
X43975958Y6402303D02*
X44172115Y6441321D01*
X44074037Y6421812D02*
X44132564Y6127576D01*
X44172115Y6441321D02*
X44230643Y6147085D01*
X43221607Y7067926D02*
X43602033Y5155394D01*
X43819886Y7186931D02*
X43221607Y7067926D01*
X39710822Y6777424D02*
X40201215Y6874969D01*
X40201215Y6874969D02*
X40162197Y7071126D01*
X39691313Y6875502D02*
X40181706Y6973047D01*
X40162197Y7071126D02*
X39671804Y6973581D01*
X39320642Y8738994D02*
X39811034Y8836539D01*
X39811034Y8836539D02*
X39772016Y9032696D01*
X39301133Y8837073D02*
X39791525Y8934618D01*
X39772016Y9032696D02*
X39281624Y8935151D01*
X42636336Y10010282D02*
X43234615Y10129287D01*
X38823162Y11239997D02*
X42255910Y11922813D01*
X42255910Y11922813D02*
X42636336Y10010282D01*
X38105877Y11719271D02*
X42735184Y12640097D01*
X40175334Y12130911D02*
X40294339Y11532632D01*
X41450355Y12384529D02*
X41569360Y11786250D01*
X42735184Y12640097D02*
X44319317Y4676121D01*
%TD*%
%LPC*%
D12*
%TO.C,J2*%
X41361849Y-10266566D03*
D13*
X41752029Y-8304995D03*
X42142210Y-6343425D03*
%TD*%
D14*
%TO.C,J1*%
X42142210Y6343425D03*
D15*
X41752029Y8304995D03*
X41361849Y10266566D03*
%TD*%
M02*
