%TF.GenerationSoftware,KiCad,Pcbnew,7.0.1*%
%TF.CreationDate,2024-02-10T23:33:58+09:00*%
%TF.ProjectId,LED_lighting_large,4c45445f-6c69-4676-9874-696e675f6c61,rev?*%
%TF.SameCoordinates,Original*%
%TF.FileFunction,Legend,Top*%
%TF.FilePolarity,Positive*%
%FSLAX46Y46*%
G04 Gerber Fmt 4.6, Leading zero omitted, Abs format (unit mm)*
G04 Created by KiCad (PCBNEW 7.0.1) date 2024-02-10 23:33:58*
%MOMM*%
%LPD*%
G01*
G04 APERTURE LIST*
G04 Aperture macros list*
%AMRoundRect*
0 Rectangle with rounded corners*
0 $1 Rounding radius*
0 $2 $3 $4 $5 $6 $7 $8 $9 X,Y pos of 4 corners*
0 Add a 4 corners polygon primitive as box body*
4,1,4,$2,$3,$4,$5,$6,$7,$8,$9,$2,$3,0*
0 Add four circle primitives for the rounded corners*
1,1,$1+$1,$2,$3*
1,1,$1+$1,$4,$5*
1,1,$1+$1,$6,$7*
1,1,$1+$1,$8,$9*
0 Add four rect primitives between the rounded corners*
20,1,$1+$1,$2,$3,$4,$5,0*
20,1,$1+$1,$4,$5,$6,$7,0*
20,1,$1+$1,$6,$7,$8,$9,0*
20,1,$1+$1,$8,$9,$2,$3,0*%
%AMHorizOval*
0 Thick line with rounded ends*
0 $1 width*
0 $2 $3 position (X,Y) of the first rounded end (center of the circle)*
0 $4 $5 position (X,Y) of the second rounded end (center of the circle)*
0 Add line between two ends*
20,1,$1,$2,$3,$4,$5,0*
0 Add two circle primitives to create the rounded ends*
1,1,$1,$2,$3*
1,1,$1,$4,$5*%
%AMRotRect*
0 Rectangle, with rotation*
0 The origin of the aperture is its center*
0 $1 length*
0 $2 width*
0 $3 Rotation angle, in degrees counterclockwise*
0 Add horizontal line*
21,1,$1,$2,0,0,$3*%
G04 Aperture macros list end*
%ADD10C,0.100000*%
%ADD11C,0.050000*%
%ADD12C,0.150000*%
%ADD13C,0.120000*%
%ADD14C,0.254000*%
%ADD15C,0.152000*%
%ADD16RoundRect,0.237500X-0.334226X0.186277X-0.104616X-0.368051X0.334226X-0.186277X0.104616X0.368051X0*%
%ADD17RoundRect,0.237500X-0.104616X0.368051X-0.334226X-0.186277X0.104616X-0.368051X0.334226X0.186277X0*%
%ADD18RoundRect,0.237500X0.380070X-0.044194X-0.044194X0.380070X-0.380070X0.044194X0.044194X-0.380070X0*%
%ADD19RotRect,0.900000X0.700000X247.500000*%
%ADD20RotRect,0.900000X0.700000X202.500000*%
%ADD21R,0.700000X0.900000*%
%ADD22RoundRect,0.237500X0.186277X0.334226X-0.368051X0.104616X-0.186277X-0.334226X0.368051X-0.104616X0*%
%ADD23RotRect,0.900000X0.700000X292.500000*%
%ADD24RotRect,0.900000X0.700000X22.500000*%
%ADD25RoundRect,0.237500X0.044194X0.380070X-0.380070X-0.044194X-0.044194X-0.380070X0.380070X0.044194X0*%
%ADD26R,0.900000X0.700000*%
%ADD27RotRect,0.900000X0.700000X315.000000*%
%ADD28RoundRect,0.237500X0.334226X-0.186277X0.104616X0.368051X-0.334226X0.186277X-0.104616X-0.368051X0*%
%ADD29RoundRect,0.237500X-0.186277X-0.334226X0.368051X-0.104616X0.186277X0.334226X-0.368051X0.104616X0*%
%ADD30RotRect,0.900000X0.700000X112.500000*%
%ADD31RoundRect,0.237500X-0.300000X-0.237500X0.300000X-0.237500X0.300000X0.237500X-0.300000X0.237500X0*%
%ADD32RotRect,0.900000X0.700000X157.500000*%
%ADD33RoundRect,0.237500X0.300000X0.237500X-0.300000X0.237500X-0.300000X-0.237500X0.300000X-0.237500X0*%
%ADD34RotRect,0.900000X0.700000X225.000000*%
%ADD35RotRect,0.900000X0.700000X337.500000*%
%ADD36RoundRect,0.237500X-0.237500X0.300000X-0.237500X-0.300000X0.237500X-0.300000X0.237500X0.300000X0*%
%ADD37RoundRect,0.237500X0.368051X0.104616X-0.186277X0.334226X-0.368051X-0.104616X0.186277X-0.334226X0*%
%ADD38RotRect,0.900000X0.700000X45.000000*%
%ADD39RoundRect,0.237500X-0.044194X-0.380070X0.380070X0.044194X0.044194X0.380070X-0.380070X-0.044194X0*%
%ADD40RoundRect,0.237500X0.104616X-0.368051X0.334226X0.186277X-0.104616X0.368051X-0.334226X-0.186277X0*%
%ADD41RoundRect,0.237500X-0.368051X-0.104616X0.186277X-0.334226X0.368051X0.104616X-0.186277X0.334226X0*%
%ADD42RotRect,0.900000X0.700000X135.000000*%
%ADD43RotRect,0.900000X0.700000X67.500000*%
%ADD44RoundRect,0.237500X-0.380070X0.044194X0.044194X-0.380070X0.380070X-0.044194X-0.044194X0.380070X0*%
%ADD45RoundRect,0.237500X0.237500X-0.300000X0.237500X0.300000X-0.237500X0.300000X-0.237500X-0.300000X0*%
%ADD46RoundRect,0.250000X0.544709X-0.465206X0.681272X0.221343X-0.544709X0.465206X-0.681272X-0.221343X0*%
%ADD47HorizOval,1.200000X-0.269716X0.053650X0.269716X-0.053650X0*%
%ADD48RoundRect,0.250000X0.681272X-0.221343X0.544709X0.465206X-0.681272X0.221343X-0.544709X-0.465206X0*%
%ADD49HorizOval,1.200000X0.269716X0.053650X-0.269716X-0.053650X0*%
G04 APERTURE END LIST*
D10*
X36943057Y8973267D02*
X36845512Y9463660D01*
X36845512Y9463660D02*
X36962272Y9486885D01*
X36962272Y9486885D02*
X37036974Y9477468D01*
X37036974Y9477468D02*
X37092968Y9440054D01*
X37092968Y9440054D02*
X37125610Y9397995D01*
X37125610Y9397995D02*
X37167542Y9309231D01*
X37167542Y9309231D02*
X37181477Y9239175D01*
X37181477Y9239175D02*
X37176705Y9141122D01*
X37176705Y9141122D02*
X37162643Y9089773D01*
X37162643Y9089773D02*
X37125229Y9033779D01*
X37125229Y9033779D02*
X37059818Y8996492D01*
X37059818Y8996492D02*
X36943057Y8973267D01*
X37433450Y9070812D02*
X37335905Y9561205D01*
X37666970Y9117262D02*
X37569425Y9607655D01*
X37569425Y9607655D02*
X37947195Y9173002D01*
X37947195Y9173002D02*
X37849649Y9663395D01*
X37093724Y7533467D02*
X37354734Y7075590D01*
X37354734Y7075590D02*
X37420653Y7598497D01*
X37681662Y7140620D02*
X37584117Y7631012D01*
X37584117Y7631012D02*
X37700877Y7654237D01*
X37700877Y7654237D02*
X37775578Y7644820D01*
X37775578Y7644820D02*
X37831572Y7607406D01*
X37831572Y7607406D02*
X37864214Y7565347D01*
X37864214Y7565347D02*
X37906146Y7476584D01*
X37906146Y7476584D02*
X37920081Y7406528D01*
X37920081Y7406528D02*
X37915309Y7308475D01*
X37915309Y7308475D02*
X37901247Y7257126D01*
X37901247Y7257126D02*
X37863833Y7201132D01*
X37863833Y7201132D02*
X37798422Y7163845D01*
X37798422Y7163845D02*
X37681662Y7140620D01*
X38172054Y7238165D02*
X38074509Y7728557D01*
X38074509Y7728557D02*
X38191269Y7751782D01*
X38191269Y7751782D02*
X38265971Y7742365D01*
X38265971Y7742365D02*
X38321965Y7704951D01*
X38321965Y7704951D02*
X38354607Y7662892D01*
X38354607Y7662892D02*
X38396539Y7574129D01*
X38396539Y7574129D02*
X38410474Y7504073D01*
X38410474Y7504073D02*
X38405702Y7406020D01*
X38405702Y7406020D02*
X38391640Y7354671D01*
X38391640Y7354671D02*
X38354226Y7298677D01*
X38354226Y7298677D02*
X38288815Y7261390D01*
X38288815Y7261390D02*
X38172054Y7238165D01*
X37225876Y-5561967D02*
X37323421Y-5071574D01*
X37323421Y-5071574D02*
X37440181Y-5094799D01*
X37440181Y-5094799D02*
X37505592Y-5132086D01*
X37505592Y-5132086D02*
X37543006Y-5188080D01*
X37543006Y-5188080D02*
X37557068Y-5239429D01*
X37557068Y-5239429D02*
X37561840Y-5337482D01*
X37561840Y-5337482D02*
X37547905Y-5407538D01*
X37547905Y-5407538D02*
X37505973Y-5496302D01*
X37505973Y-5496302D02*
X37473331Y-5538361D01*
X37473331Y-5538361D02*
X37417337Y-5575775D01*
X37417337Y-5575775D02*
X37342636Y-5585192D01*
X37342636Y-5585192D02*
X37225876Y-5561967D01*
X37907222Y-5187699D02*
X38000630Y-5206279D01*
X38000630Y-5206279D02*
X38042689Y-5238921D01*
X38042689Y-5238921D02*
X38080103Y-5294915D01*
X38080103Y-5294915D02*
X38084875Y-5392968D01*
X38084875Y-5392968D02*
X38052360Y-5556433D01*
X38052360Y-5556433D02*
X38010428Y-5645196D01*
X38010428Y-5645196D02*
X37954434Y-5682610D01*
X37954434Y-5682610D02*
X37903085Y-5696672D01*
X37903085Y-5696672D02*
X37809677Y-5678092D01*
X37809677Y-5678092D02*
X37767618Y-5645450D01*
X37767618Y-5645450D02*
X37730204Y-5589456D01*
X37730204Y-5589456D02*
X37725432Y-5491403D01*
X37725432Y-5491403D02*
X37757947Y-5327938D01*
X37757947Y-5327938D02*
X37799879Y-5239175D01*
X37799879Y-5239175D02*
X37855873Y-5201761D01*
X37855873Y-5201761D02*
X37907222Y-5187699D01*
X38327559Y-5271309D02*
X38248594Y-5668294D01*
X38248594Y-5668294D02*
X38262656Y-5719643D01*
X38262656Y-5719643D02*
X38281363Y-5747640D01*
X38281363Y-5747640D02*
X38323422Y-5780282D01*
X38323422Y-5780282D02*
X38416830Y-5798862D01*
X38416830Y-5798862D02*
X38468179Y-5784800D01*
X38468179Y-5784800D02*
X38496176Y-5766093D01*
X38496176Y-5766093D02*
X38528818Y-5724034D01*
X38528818Y-5724034D02*
X38607783Y-5327050D01*
X38771248Y-5359565D02*
X39051472Y-5415305D01*
X38813815Y-5877827D02*
X38911360Y-5387435D01*
D11*
X-1821427Y-40323809D02*
X-1535713Y-40323809D01*
X-1678570Y-40823809D02*
X-1678570Y-40323809D01*
X-1297618Y-40823809D02*
X-1345237Y-40800000D01*
X-1345237Y-40800000D02*
X-1369047Y-40776190D01*
X-1369047Y-40776190D02*
X-1392856Y-40728571D01*
X-1392856Y-40728571D02*
X-1392856Y-40585714D01*
X-1392856Y-40585714D02*
X-1369047Y-40538095D01*
X-1369047Y-40538095D02*
X-1345237Y-40514285D01*
X-1345237Y-40514285D02*
X-1297618Y-40490476D01*
X-1297618Y-40490476D02*
X-1226190Y-40490476D01*
X-1226190Y-40490476D02*
X-1178571Y-40514285D01*
X-1178571Y-40514285D02*
X-1154761Y-40538095D01*
X-1154761Y-40538095D02*
X-1130952Y-40585714D01*
X-1130952Y-40585714D02*
X-1130952Y-40728571D01*
X-1130952Y-40728571D02*
X-1154761Y-40776190D01*
X-1154761Y-40776190D02*
X-1178571Y-40800000D01*
X-1178571Y-40800000D02*
X-1226190Y-40823809D01*
X-1226190Y-40823809D02*
X-1297618Y-40823809D01*
X-916666Y-40823809D02*
X-916666Y-40490476D01*
X-916666Y-40538095D02*
X-892856Y-40514285D01*
X-892856Y-40514285D02*
X-845237Y-40490476D01*
X-845237Y-40490476D02*
X-773809Y-40490476D01*
X-773809Y-40490476D02*
X-726190Y-40514285D01*
X-726190Y-40514285D02*
X-702380Y-40561904D01*
X-702380Y-40561904D02*
X-702380Y-40823809D01*
X-702380Y-40561904D02*
X-678571Y-40514285D01*
X-678571Y-40514285D02*
X-630952Y-40490476D01*
X-630952Y-40490476D02*
X-559523Y-40490476D01*
X-559523Y-40490476D02*
X-511904Y-40514285D01*
X-511904Y-40514285D02*
X-488094Y-40561904D01*
X-488094Y-40561904D02*
X-488094Y-40823809D01*
X-178570Y-40823809D02*
X-226189Y-40800000D01*
X-226189Y-40800000D02*
X-249999Y-40776190D01*
X-249999Y-40776190D02*
X-273808Y-40728571D01*
X-273808Y-40728571D02*
X-273808Y-40585714D01*
X-273808Y-40585714D02*
X-249999Y-40538095D01*
X-249999Y-40538095D02*
X-226189Y-40514285D01*
X-226189Y-40514285D02*
X-178570Y-40490476D01*
X-178570Y-40490476D02*
X-107142Y-40490476D01*
X-107142Y-40490476D02*
X-59523Y-40514285D01*
X-59523Y-40514285D02*
X-35713Y-40538095D01*
X-35713Y-40538095D02*
X-11904Y-40585714D01*
X-11904Y-40585714D02*
X-11904Y-40728571D01*
X-11904Y-40728571D02*
X-35713Y-40776190D01*
X-35713Y-40776190D02*
X-59523Y-40800000D01*
X-59523Y-40800000D02*
X-107142Y-40823809D01*
X-107142Y-40823809D02*
X-178570Y-40823809D01*
X178572Y-40800000D02*
X226191Y-40823809D01*
X226191Y-40823809D02*
X321429Y-40823809D01*
X321429Y-40823809D02*
X369048Y-40800000D01*
X369048Y-40800000D02*
X392857Y-40752380D01*
X392857Y-40752380D02*
X392857Y-40728571D01*
X392857Y-40728571D02*
X369048Y-40680952D01*
X369048Y-40680952D02*
X321429Y-40657142D01*
X321429Y-40657142D02*
X250000Y-40657142D01*
X250000Y-40657142D02*
X202381Y-40633333D01*
X202381Y-40633333D02*
X178572Y-40585714D01*
X178572Y-40585714D02*
X178572Y-40561904D01*
X178572Y-40561904D02*
X202381Y-40514285D01*
X202381Y-40514285D02*
X250000Y-40490476D01*
X250000Y-40490476D02*
X321429Y-40490476D01*
X321429Y-40490476D02*
X369048Y-40514285D01*
X607143Y-40823809D02*
X607143Y-40323809D01*
X821429Y-40823809D02*
X821429Y-40561904D01*
X821429Y-40561904D02*
X797619Y-40514285D01*
X797619Y-40514285D02*
X750000Y-40490476D01*
X750000Y-40490476D02*
X678572Y-40490476D01*
X678572Y-40490476D02*
X630953Y-40514285D01*
X630953Y-40514285D02*
X607143Y-40538095D01*
X1059524Y-40823809D02*
X1059524Y-40490476D01*
X1059524Y-40323809D02*
X1035715Y-40347619D01*
X1035715Y-40347619D02*
X1059524Y-40371428D01*
X1059524Y-40371428D02*
X1083334Y-40347619D01*
X1083334Y-40347619D02*
X1059524Y-40323809D01*
X1059524Y-40323809D02*
X1059524Y-40371428D01*
X1297619Y-40823809D02*
X1297619Y-40323809D01*
X1297619Y-40514285D02*
X1345238Y-40490476D01*
X1345238Y-40490476D02*
X1440476Y-40490476D01*
X1440476Y-40490476D02*
X1488095Y-40514285D01*
X1488095Y-40514285D02*
X1511905Y-40538095D01*
X1511905Y-40538095D02*
X1535714Y-40585714D01*
X1535714Y-40585714D02*
X1535714Y-40728571D01*
X1535714Y-40728571D02*
X1511905Y-40776190D01*
X1511905Y-40776190D02*
X1488095Y-40800000D01*
X1488095Y-40800000D02*
X1440476Y-40823809D01*
X1440476Y-40823809D02*
X1345238Y-40823809D01*
X1345238Y-40823809D02*
X1297619Y-40800000D01*
X1750000Y-40823809D02*
X1750000Y-40490476D01*
X1750000Y-40323809D02*
X1726191Y-40347619D01*
X1726191Y-40347619D02*
X1750000Y-40371428D01*
X1750000Y-40371428D02*
X1773810Y-40347619D01*
X1773810Y-40347619D02*
X1750000Y-40323809D01*
X1750000Y-40323809D02*
X1750000Y-40371428D01*
D10*
X36974141Y-9185504D02*
X36932082Y-9152862D01*
X36932082Y-9152862D02*
X36862026Y-9138927D01*
X36862026Y-9138927D02*
X36787324Y-9148344D01*
X36787324Y-9148344D02*
X36731330Y-9185758D01*
X36731330Y-9185758D02*
X36698688Y-9227817D01*
X36698688Y-9227817D02*
X36656756Y-9316580D01*
X36656756Y-9316580D02*
X36642821Y-9386636D01*
X36642821Y-9386636D02*
X36647593Y-9484689D01*
X36647593Y-9484689D02*
X36661655Y-9536038D01*
X36661655Y-9536038D02*
X36699069Y-9592032D01*
X36699069Y-9592032D02*
X36764480Y-9629319D01*
X36764480Y-9629319D02*
X36811184Y-9638609D01*
X36811184Y-9638609D02*
X36885886Y-9629192D01*
X36885886Y-9629192D02*
X36913883Y-9610485D01*
X36913883Y-9610485D02*
X36946398Y-9447021D01*
X36946398Y-9447021D02*
X36852990Y-9428441D01*
X37114761Y-9698994D02*
X37212306Y-9208602D01*
X37212306Y-9208602D02*
X37394985Y-9754734D01*
X37394985Y-9754734D02*
X37492530Y-9264342D01*
X37628506Y-9801185D02*
X37726051Y-9310792D01*
X37726051Y-9310792D02*
X37842811Y-9334017D01*
X37842811Y-9334017D02*
X37908222Y-9371304D01*
X37908222Y-9371304D02*
X37945636Y-9427298D01*
X37945636Y-9427298D02*
X37959698Y-9478647D01*
X37959698Y-9478647D02*
X37964470Y-9576700D01*
X37964470Y-9576700D02*
X37950535Y-9646756D01*
X37950535Y-9646756D02*
X37908603Y-9735520D01*
X37908603Y-9735520D02*
X37875961Y-9777579D01*
X37875961Y-9777579D02*
X37819967Y-9814993D01*
X37819967Y-9814993D02*
X37745266Y-9824410D01*
X37745266Y-9824410D02*
X37628506Y-9801185D01*
X37198562Y-7106412D02*
X37264481Y-7629319D01*
X37264481Y-7629319D02*
X37525491Y-7171442D01*
X37591409Y-7694349D02*
X37688954Y-7203957D01*
X37688954Y-7203957D02*
X37805715Y-7227182D01*
X37805715Y-7227182D02*
X37871126Y-7264469D01*
X37871126Y-7264469D02*
X37908540Y-7320463D01*
X37908540Y-7320463D02*
X37922602Y-7371812D01*
X37922602Y-7371812D02*
X37927374Y-7469865D01*
X37927374Y-7469865D02*
X37913439Y-7539921D01*
X37913439Y-7539921D02*
X37871507Y-7628684D01*
X37871507Y-7628684D02*
X37838865Y-7670743D01*
X37838865Y-7670743D02*
X37782871Y-7708158D01*
X37782871Y-7708158D02*
X37708169Y-7717575D01*
X37708169Y-7717575D02*
X37591409Y-7694349D01*
X38081802Y-7791895D02*
X38179347Y-7301502D01*
X38179347Y-7301502D02*
X38296107Y-7324727D01*
X38296107Y-7324727D02*
X38361518Y-7362014D01*
X38361518Y-7362014D02*
X38398932Y-7418008D01*
X38398932Y-7418008D02*
X38412994Y-7469357D01*
X38412994Y-7469357D02*
X38417766Y-7567410D01*
X38417766Y-7567410D02*
X38403831Y-7637466D01*
X38403831Y-7637466D02*
X38361899Y-7726230D01*
X38361899Y-7726230D02*
X38329257Y-7768289D01*
X38329257Y-7768289D02*
X38273263Y-7805703D01*
X38273263Y-7805703D02*
X38198562Y-7815120D01*
X38198562Y-7815120D02*
X38081802Y-7791895D01*
X37678593Y5565855D02*
X37627244Y5579917D01*
X37627244Y5579917D02*
X37557188Y5565982D01*
X37557188Y5565982D02*
X37491777Y5528695D01*
X37491777Y5528695D02*
X37454363Y5472701D01*
X37454363Y5472701D02*
X37440301Y5421352D01*
X37440301Y5421352D02*
X37435529Y5323299D01*
X37435529Y5323299D02*
X37449464Y5253243D01*
X37449464Y5253243D02*
X37491396Y5164479D01*
X37491396Y5164479D02*
X37524038Y5122420D01*
X37524038Y5122420D02*
X37580032Y5085006D01*
X37580032Y5085006D02*
X37654733Y5075589D01*
X37654733Y5075589D02*
X37701437Y5084879D01*
X37701437Y5084879D02*
X37766848Y5122166D01*
X37766848Y5122166D02*
X37785555Y5150163D01*
X37785555Y5150163D02*
X37753040Y5313628D01*
X37753040Y5313628D02*
X37659632Y5295048D01*
X38005013Y5145264D02*
X37907468Y5635657D01*
X37907468Y5635657D02*
X38285238Y5201005D01*
X38285238Y5201005D02*
X38187693Y5691397D01*
X38518758Y5247455D02*
X38421213Y5737847D01*
X38421213Y5737847D02*
X38537973Y5761072D01*
X38537973Y5761072D02*
X38612675Y5751655D01*
X38612675Y5751655D02*
X38668669Y5714241D01*
X38668669Y5714241D02*
X38701311Y5672182D01*
X38701311Y5672182D02*
X38743243Y5583419D01*
X38743243Y5583419D02*
X38757178Y5513363D01*
X38757178Y5513363D02*
X38752406Y5415310D01*
X38752406Y5415310D02*
X38738344Y5363961D01*
X38738344Y5363961D02*
X38700930Y5307967D01*
X38700930Y5307967D02*
X38635519Y5270680D01*
X38635519Y5270680D02*
X38518758Y5247455D01*
D12*
X-47618Y-38371428D02*
X714286Y-38371428D01*
X-142856Y-39228571D02*
X904762Y-39228571D01*
X-428570Y-39895238D02*
X1095238Y-39895238D01*
X-142856Y-38752380D02*
X-142856Y-39228571D01*
X-142856Y-38752380D02*
X904762Y-38752380D01*
X904762Y-38752380D02*
X904762Y-39228571D01*
X-809523Y-37704761D02*
X-809523Y-39133333D01*
X-809523Y-39133333D02*
X-428570Y-39514285D01*
X523809Y-37990476D02*
X1095238Y-38561904D01*
X1095238Y-37990476D02*
X714286Y-38180952D01*
X-238094Y-37990476D02*
X-47618Y-38180952D01*
X-47618Y-38180952D02*
X-523809Y-38657142D01*
X809524Y-37704761D02*
X523809Y-37990476D01*
X47619Y-39419047D02*
X47619Y-39704761D01*
X428571Y-37609523D02*
X619048Y-38180952D01*
X714286Y-39323809D02*
X523809Y-39704761D01*
X-523809Y-38085714D02*
X-714285Y-38466666D01*
X-904761Y-39133333D02*
X-1190475Y-39895238D01*
X-333332Y-37800000D02*
X238095Y-37704761D01*
X238095Y-37704761D02*
X-47618Y-38276190D01*
X-1095237Y-38180952D02*
X-1285713Y-38657142D01*
X-809523Y-38657142D02*
X-999999Y-39609523D01*
%TO.C,C6*%
X-12344548Y41160625D02*
X-12406765Y41186397D01*
X-12406765Y41186397D02*
X-12505428Y41300156D01*
X-12505428Y41300156D02*
X-12541874Y41388145D01*
X-12541874Y41388145D02*
X-12552549Y41538351D01*
X-12552549Y41538351D02*
X-12501007Y41662785D01*
X-12501007Y41662785D02*
X-12431241Y41743226D01*
X-12431241Y41743226D02*
X-12273487Y41860112D01*
X-12273487Y41860112D02*
X-12141504Y41914781D01*
X-12141504Y41914781D02*
X-11947304Y41943679D01*
X-11947304Y41943679D02*
X-11841093Y41936131D01*
X-11841093Y41936131D02*
X-11716658Y41884588D01*
X-11716658Y41884588D02*
X-11617995Y41770828D01*
X-11617995Y41770828D02*
X-11581549Y41682840D01*
X-11581549Y41682840D02*
X-11570874Y41532634D01*
X-11570874Y41532634D02*
X-11596645Y41470417D01*
X-11180642Y40714966D02*
X-11253534Y40890943D01*
X-11253534Y40890943D02*
X-11333975Y40960709D01*
X-11333975Y40960709D02*
X-11396192Y40986480D01*
X-11396192Y40986480D02*
X-11564621Y41019799D01*
X-11564621Y41019799D02*
X-11758821Y40990901D01*
X-11758821Y40990901D02*
X-12110775Y40845117D01*
X-12110775Y40845117D02*
X-12180540Y40764677D01*
X-12180540Y40764677D02*
X-12206312Y40702460D01*
X-12206312Y40702460D02*
X-12213860Y40596248D01*
X-12213860Y40596248D02*
X-12140968Y40420271D01*
X-12140968Y40420271D02*
X-12060528Y40350506D01*
X-12060528Y40350506D02*
X-11998310Y40324734D01*
X-11998310Y40324734D02*
X-11892099Y40317186D01*
X-11892099Y40317186D02*
X-11672127Y40408301D01*
X-11672127Y40408301D02*
X-11602362Y40488742D01*
X-11602362Y40488742D02*
X-11576591Y40550959D01*
X-11576591Y40550959D02*
X-11569042Y40657170D01*
X-11569042Y40657170D02*
X-11641934Y40833147D01*
X-11641934Y40833147D02*
X-11722375Y40902913D01*
X-11722375Y40902913D02*
X-11784592Y40928684D01*
X-11784592Y40928684D02*
X-11890804Y40936232D01*
%TO.C,C4*%
X21066719Y37361346D02*
X21092490Y37299129D01*
X21092490Y37299129D02*
X21081815Y37148923D01*
X21081815Y37148923D02*
X21045369Y37060935D01*
X21045369Y37060935D02*
X20946706Y36947175D01*
X20946706Y36947175D02*
X20822271Y36895633D01*
X20822271Y36895633D02*
X20716060Y36888084D01*
X20716060Y36888084D02*
X20521860Y36916982D01*
X20521860Y36916982D02*
X20389877Y36971651D01*
X20389877Y36971651D02*
X20232123Y37088538D01*
X20232123Y37088538D02*
X20162357Y37168978D01*
X20162357Y37168978D02*
X20110815Y37293412D01*
X20110815Y37293412D02*
X20121490Y37443618D01*
X20121490Y37443618D02*
X20157936Y37531607D01*
X20157936Y37531607D02*
X20256599Y37645367D01*
X20256599Y37645367D02*
X20318816Y37671138D01*
X20866802Y38371919D02*
X21482722Y38116797D01*
X20423733Y38297732D02*
X20992532Y37804416D01*
X20992532Y37804416D02*
X21229431Y38376341D01*
%TO.C,C15*%
X26136990Y-33216371D02*
X26069647Y-33216371D01*
X26069647Y-33216371D02*
X25934960Y-33149028D01*
X25934960Y-33149028D02*
X25867616Y-33081684D01*
X25867616Y-33081684D02*
X25800273Y-32946997D01*
X25800273Y-32946997D02*
X25800273Y-32812310D01*
X25800273Y-32812310D02*
X25833944Y-32711295D01*
X25833944Y-32711295D02*
X25934960Y-32542936D01*
X25934960Y-32542936D02*
X26035975Y-32441921D01*
X26035975Y-32441921D02*
X26204334Y-32340906D01*
X26204334Y-32340906D02*
X26305349Y-32307234D01*
X26305349Y-32307234D02*
X26440036Y-32307234D01*
X26440036Y-32307234D02*
X26574723Y-32374578D01*
X26574723Y-32374578D02*
X26642067Y-32441921D01*
X26642067Y-32441921D02*
X26709410Y-32576608D01*
X26709410Y-32576608D02*
X26709410Y-32643952D01*
X26743082Y-33957150D02*
X26339021Y-33553089D01*
X26541051Y-33755119D02*
X27248158Y-33048013D01*
X27248158Y-33048013D02*
X27079799Y-33081684D01*
X27079799Y-33081684D02*
X26945112Y-33081684D01*
X26945112Y-33081684D02*
X26844097Y-33048013D01*
X28089952Y-33889806D02*
X27753234Y-33553089D01*
X27753234Y-33553089D02*
X27382845Y-33856135D01*
X27382845Y-33856135D02*
X27450189Y-33856135D01*
X27450189Y-33856135D02*
X27551204Y-33889806D01*
X27551204Y-33889806D02*
X27719563Y-34058165D01*
X27719563Y-34058165D02*
X27753234Y-34159180D01*
X27753234Y-34159180D02*
X27753234Y-34226524D01*
X27753234Y-34226524D02*
X27719563Y-34327539D01*
X27719563Y-34327539D02*
X27551204Y-34495898D01*
X27551204Y-34495898D02*
X27450189Y-34529570D01*
X27450189Y-34529570D02*
X27382845Y-34529570D01*
X27382845Y-34529570D02*
X27281830Y-34495898D01*
X27281830Y-34495898D02*
X27113471Y-34327539D01*
X27113471Y-34327539D02*
X27079799Y-34226524D01*
X27079799Y-34226524D02*
X27079799Y-34159180D01*
D13*
%TO.C,D16*%
X41703790Y-17815473D02*
X41010880Y-17528460D01*
X41010880Y-17528460D02*
X41079216Y-17363482D01*
X41079216Y-17363482D02*
X41153214Y-17278162D01*
X41153214Y-17278162D02*
X41246540Y-17239505D01*
X41246540Y-17239505D02*
X41326198Y-17233844D01*
X41326198Y-17233844D02*
X41471848Y-17255517D01*
X41471848Y-17255517D02*
X41570836Y-17296519D01*
X41570836Y-17296519D02*
X41689151Y-17384184D01*
X41689151Y-17384184D02*
X41741475Y-17444514D01*
X41741475Y-17444514D02*
X41780132Y-17537840D01*
X41780132Y-17537840D02*
X41772126Y-17650494D01*
X41772126Y-17650494D02*
X41703790Y-17815473D01*
X42141142Y-16759610D02*
X41977135Y-17155559D01*
X42059139Y-16957584D02*
X41366229Y-16670572D01*
X41366229Y-16670572D02*
X41437881Y-16777565D01*
X41437881Y-16777565D02*
X41476538Y-16870891D01*
X41476538Y-16870891D02*
X41482199Y-16950550D01*
X41694243Y-15878675D02*
X41639574Y-16010658D01*
X41639574Y-16010658D02*
X41645235Y-16090316D01*
X41645235Y-16090316D02*
X41664564Y-16136979D01*
X41664564Y-16136979D02*
X41736216Y-16243972D01*
X41736216Y-16243972D02*
X41854532Y-16331637D01*
X41854532Y-16331637D02*
X42118498Y-16440975D01*
X42118498Y-16440975D02*
X42198156Y-16435314D01*
X42198156Y-16435314D02*
X42244819Y-16415986D01*
X42244819Y-16415986D02*
X42305149Y-16363662D01*
X42305149Y-16363662D02*
X42359818Y-16231679D01*
X42359818Y-16231679D02*
X42354157Y-16152020D01*
X42354157Y-16152020D02*
X42334829Y-16105357D01*
X42334829Y-16105357D02*
X42282505Y-16045027D01*
X42282505Y-16045027D02*
X42117526Y-15976691D01*
X42117526Y-15976691D02*
X42037868Y-15982352D01*
X42037868Y-15982352D02*
X41991205Y-16001680D01*
X41991205Y-16001680D02*
X41930874Y-16054004D01*
X41930874Y-16054004D02*
X41876205Y-16185987D01*
X41876205Y-16185987D02*
X41881867Y-16265646D01*
X41881867Y-16265646D02*
X41901195Y-16312309D01*
X41901195Y-16312309D02*
X41953519Y-16372639D01*
%TO.C,D14*%
X16891591Y-42086474D02*
X16604579Y-41393564D01*
X16604579Y-41393564D02*
X16769557Y-41325228D01*
X16769557Y-41325228D02*
X16882212Y-41317222D01*
X16882212Y-41317222D02*
X16975538Y-41355879D01*
X16975538Y-41355879D02*
X17035868Y-41408203D01*
X17035868Y-41408203D02*
X17123533Y-41526518D01*
X17123533Y-41526518D02*
X17164534Y-41625505D01*
X17164534Y-41625505D02*
X17186208Y-41771155D01*
X17186208Y-41771155D02*
X17180547Y-41850814D01*
X17180547Y-41850814D02*
X17141890Y-41944140D01*
X17141890Y-41944140D02*
X17056570Y-42018137D01*
X17056570Y-42018137D02*
X16891591Y-42086474D01*
X17947454Y-41649121D02*
X17551505Y-41813128D01*
X17749480Y-41731125D02*
X17462467Y-41038215D01*
X17462467Y-41038215D02*
X17437477Y-41164537D01*
X17437477Y-41164537D02*
X17398820Y-41257863D01*
X17398820Y-41257863D02*
X17346496Y-41318193D01*
X18350035Y-40941171D02*
X18541377Y-41403110D01*
X18075718Y-40745541D02*
X18115749Y-41308813D01*
X18115749Y-41308813D02*
X18544693Y-41131139D01*
%TO.C,D1*%
X45346964Y214285D02*
X44596964Y214285D01*
X44596964Y214285D02*
X44596964Y392856D01*
X44596964Y392856D02*
X44632678Y499999D01*
X44632678Y499999D02*
X44704107Y571428D01*
X44704107Y571428D02*
X44775535Y607142D01*
X44775535Y607142D02*
X44918392Y642856D01*
X44918392Y642856D02*
X45025535Y642856D01*
X45025535Y642856D02*
X45168392Y607142D01*
X45168392Y607142D02*
X45239821Y571428D01*
X45239821Y571428D02*
X45311250Y499999D01*
X45311250Y499999D02*
X45346964Y392856D01*
X45346964Y392856D02*
X45346964Y214285D01*
X45346964Y1357142D02*
X45346964Y928571D01*
X45346964Y1142856D02*
X44596964Y1142856D01*
X44596964Y1142856D02*
X44704107Y1071428D01*
X44704107Y1071428D02*
X44775535Y999999D01*
X44775535Y999999D02*
X44811250Y928571D01*
D12*
%TO.C,C2*%
X41137002Y11445591D02*
X41111230Y11383374D01*
X41111230Y11383374D02*
X40997471Y11284711D01*
X40997471Y11284711D02*
X40909482Y11248265D01*
X40909482Y11248265D02*
X40759276Y11237590D01*
X40759276Y11237590D02*
X40634842Y11289132D01*
X40634842Y11289132D02*
X40554401Y11358898D01*
X40554401Y11358898D02*
X40437515Y11516652D01*
X40437515Y11516652D02*
X40382846Y11648635D01*
X40382846Y11648635D02*
X40353948Y11842835D01*
X40353948Y11842835D02*
X40361496Y11949046D01*
X40361496Y11949046D02*
X40413039Y12073481D01*
X40413039Y12073481D02*
X40526799Y12172144D01*
X40526799Y12172144D02*
X40614787Y12208590D01*
X40614787Y12208590D02*
X40764993Y12219265D01*
X40764993Y12219265D02*
X40827210Y12193494D01*
X41179164Y12339278D02*
X41204936Y12401495D01*
X41204936Y12401495D02*
X41274701Y12481936D01*
X41274701Y12481936D02*
X41494672Y12573051D01*
X41494672Y12573051D02*
X41600884Y12565502D01*
X41600884Y12565502D02*
X41663101Y12539731D01*
X41663101Y12539731D02*
X41743542Y12469966D01*
X41743542Y12469966D02*
X41779988Y12381977D01*
X41779988Y12381977D02*
X41790662Y12231771D01*
X41790662Y12231771D02*
X41481408Y11485164D01*
X41481408Y11485164D02*
X42053333Y11722063D01*
D13*
%TO.C,D2*%
X40187979Y19661641D02*
X40880888Y19948654D01*
X40880888Y19948654D02*
X40949225Y19783675D01*
X40949225Y19783675D02*
X40957231Y19671021D01*
X40957231Y19671021D02*
X40918574Y19577695D01*
X40918574Y19577695D02*
X40866250Y19517365D01*
X40866250Y19517365D02*
X40747934Y19429700D01*
X40747934Y19429700D02*
X40648947Y19388698D01*
X40648947Y19388698D02*
X40503297Y19367025D01*
X40503297Y19367025D02*
X40423638Y19372686D01*
X40423638Y19372686D02*
X40330312Y19411343D01*
X40330312Y19411343D02*
X40256315Y19496663D01*
X40256315Y19496663D02*
X40187979Y19661641D01*
X41088242Y19261405D02*
X41134905Y19242077D01*
X41134905Y19242077D02*
X41195235Y19189753D01*
X41195235Y19189753D02*
X41263572Y19024774D01*
X41263572Y19024774D02*
X41257911Y18945116D01*
X41257911Y18945116D02*
X41238582Y18898453D01*
X41238582Y18898453D02*
X41186258Y18838123D01*
X41186258Y18838123D02*
X41120267Y18810788D01*
X41120267Y18810788D02*
X41007612Y18802782D01*
X41007612Y18802782D02*
X40447657Y19034723D01*
X40447657Y19034723D02*
X40625331Y18605779D01*
%TO.C,D6*%
X-18308818Y40748337D02*
X-18595830Y41441246D01*
X-18595830Y41441246D02*
X-18430852Y41509583D01*
X-18430852Y41509583D02*
X-18318197Y41517589D01*
X-18318197Y41517589D02*
X-18224871Y41478932D01*
X-18224871Y41478932D02*
X-18164541Y41426608D01*
X-18164541Y41426608D02*
X-18076876Y41308292D01*
X-18076876Y41308292D02*
X-18035875Y41209305D01*
X-18035875Y41209305D02*
X-18014201Y41063655D01*
X-18014201Y41063655D02*
X-18019862Y40983996D01*
X-18019862Y40983996D02*
X-18058519Y40890670D01*
X-18058519Y40890670D02*
X-18143839Y40816673D01*
X-18143839Y40816673D02*
X-18308818Y40748337D01*
X-17605959Y41851264D02*
X-17737942Y41796595D01*
X-17737942Y41796595D02*
X-17790266Y41736265D01*
X-17790266Y41736265D02*
X-17809595Y41689602D01*
X-17809595Y41689602D02*
X-17834584Y41563280D01*
X-17834584Y41563280D02*
X-17812911Y41417630D01*
X-17812911Y41417630D02*
X-17703573Y41153665D01*
X-17703573Y41153665D02*
X-17643242Y41101341D01*
X-17643242Y41101341D02*
X-17596579Y41082012D01*
X-17596579Y41082012D02*
X-17516921Y41076351D01*
X-17516921Y41076351D02*
X-17384938Y41131020D01*
X-17384938Y41131020D02*
X-17332614Y41191350D01*
X-17332614Y41191350D02*
X-17313285Y41238013D01*
X-17313285Y41238013D02*
X-17307624Y41317672D01*
X-17307624Y41317672D02*
X-17375961Y41482650D01*
X-17375961Y41482650D02*
X-17436291Y41534975D01*
X-17436291Y41534975D02*
X-17482954Y41554303D01*
X-17482954Y41554303D02*
X-17562612Y41559964D01*
X-17562612Y41559964D02*
X-17694595Y41505295D01*
X-17694595Y41505295D02*
X-17746919Y41444965D01*
X-17746919Y41444965D02*
X-17766248Y41398302D01*
X-17766248Y41398302D02*
X-17771909Y41318643D01*
D12*
%TO.C,C3*%
X33743209Y26401328D02*
X33743209Y26333985D01*
X33743209Y26333985D02*
X33675866Y26199298D01*
X33675866Y26199298D02*
X33608522Y26131954D01*
X33608522Y26131954D02*
X33473835Y26064611D01*
X33473835Y26064611D02*
X33339148Y26064611D01*
X33339148Y26064611D02*
X33238133Y26098282D01*
X33238133Y26098282D02*
X33069774Y26199298D01*
X33069774Y26199298D02*
X32968759Y26300313D01*
X32968759Y26300313D02*
X32867744Y26468672D01*
X32867744Y26468672D02*
X32834072Y26569687D01*
X32834072Y26569687D02*
X32834072Y26704374D01*
X32834072Y26704374D02*
X32901415Y26839061D01*
X32901415Y26839061D02*
X32968759Y26906404D01*
X32968759Y26906404D02*
X33103446Y26973748D01*
X33103446Y26973748D02*
X33170789Y26973748D01*
X33339148Y27276794D02*
X33776881Y27714526D01*
X33776881Y27714526D02*
X33810553Y27209450D01*
X33810553Y27209450D02*
X33911568Y27310465D01*
X33911568Y27310465D02*
X34012583Y27344137D01*
X34012583Y27344137D02*
X34079927Y27344137D01*
X34079927Y27344137D02*
X34180942Y27310465D01*
X34180942Y27310465D02*
X34349301Y27142107D01*
X34349301Y27142107D02*
X34382973Y27041091D01*
X34382973Y27041091D02*
X34382973Y26973748D01*
X34382973Y26973748D02*
X34349301Y26872733D01*
X34349301Y26872733D02*
X34147270Y26670702D01*
X34147270Y26670702D02*
X34046255Y26637030D01*
X34046255Y26637030D02*
X33978912Y26637030D01*
D13*
%TO.C,D13*%
X-500000Y-45346964D02*
X-500000Y-44596964D01*
X-500000Y-44596964D02*
X-321429Y-44596964D01*
X-321429Y-44596964D02*
X-214286Y-44632678D01*
X-214286Y-44632678D02*
X-142857Y-44704107D01*
X-142857Y-44704107D02*
X-107143Y-44775535D01*
X-107143Y-44775535D02*
X-71429Y-44918392D01*
X-71429Y-44918392D02*
X-71429Y-45025535D01*
X-71429Y-45025535D02*
X-107143Y-45168392D01*
X-107143Y-45168392D02*
X-142857Y-45239821D01*
X-142857Y-45239821D02*
X-214286Y-45311250D01*
X-214286Y-45311250D02*
X-321429Y-45346964D01*
X-321429Y-45346964D02*
X-500000Y-45346964D01*
X642856Y-45346964D02*
X214285Y-45346964D01*
X428570Y-45346964D02*
X428570Y-44596964D01*
X428570Y-44596964D02*
X357142Y-44704107D01*
X357142Y-44704107D02*
X285713Y-44775535D01*
X285713Y-44775535D02*
X214285Y-44811250D01*
X892856Y-44596964D02*
X1357142Y-44596964D01*
X1357142Y-44596964D02*
X1107142Y-44882678D01*
X1107142Y-44882678D02*
X1214285Y-44882678D01*
X1214285Y-44882678D02*
X1285714Y-44918392D01*
X1285714Y-44918392D02*
X1321428Y-44954107D01*
X1321428Y-44954107D02*
X1357142Y-45025535D01*
X1357142Y-45025535D02*
X1357142Y-45204107D01*
X1357142Y-45204107D02*
X1321428Y-45275535D01*
X1321428Y-45275535D02*
X1285714Y-45311250D01*
X1285714Y-45311250D02*
X1214285Y-45346964D01*
X1214285Y-45346964D02*
X999999Y-45346964D01*
X999999Y-45346964D02*
X928571Y-45311250D01*
X928571Y-45311250D02*
X892856Y-45275535D01*
%TO.C,D3*%
X29604666Y33544262D02*
X30134996Y34074592D01*
X30134996Y34074592D02*
X30261265Y33948323D01*
X30261265Y33948323D02*
X30311773Y33847308D01*
X30311773Y33847308D02*
X30311773Y33746293D01*
X30311773Y33746293D02*
X30286519Y33670531D01*
X30286519Y33670531D02*
X30210758Y33544262D01*
X30210758Y33544262D02*
X30134996Y33468501D01*
X30134996Y33468501D02*
X30008727Y33392739D01*
X30008727Y33392739D02*
X29932966Y33367485D01*
X29932966Y33367485D02*
X29831951Y33367485D01*
X29831951Y33367485D02*
X29730935Y33417993D01*
X29730935Y33417993D02*
X29604666Y33544262D01*
X30614819Y33594770D02*
X30943118Y33266470D01*
X30943118Y33266470D02*
X30564311Y33241216D01*
X30564311Y33241216D02*
X30640073Y33165455D01*
X30640073Y33165455D02*
X30665326Y33089694D01*
X30665326Y33089694D02*
X30665326Y33039186D01*
X30665326Y33039186D02*
X30640073Y32963424D01*
X30640073Y32963424D02*
X30513803Y32837155D01*
X30513803Y32837155D02*
X30438042Y32811902D01*
X30438042Y32811902D02*
X30387534Y32811902D01*
X30387534Y32811902D02*
X30311773Y32837155D01*
X30311773Y32837155D02*
X30160250Y32988678D01*
X30160250Y32988678D02*
X30134996Y33064440D01*
X30134996Y33064440D02*
X30134996Y33114947D01*
D12*
%TO.C,C14*%
X11355925Y-40693905D02*
X11293708Y-40668133D01*
X11293708Y-40668133D02*
X11195044Y-40554373D01*
X11195044Y-40554373D02*
X11158598Y-40466385D01*
X11158598Y-40466385D02*
X11147924Y-40316179D01*
X11147924Y-40316179D02*
X11199466Y-40191745D01*
X11199466Y-40191745D02*
X11269232Y-40111304D01*
X11269232Y-40111304D02*
X11426986Y-39994418D01*
X11426986Y-39994418D02*
X11558968Y-39939749D01*
X11558968Y-39939749D02*
X11753168Y-39910851D01*
X11753168Y-39910851D02*
X11859380Y-39918399D01*
X11859380Y-39918399D02*
X11983815Y-39969942D01*
X11983815Y-39969942D02*
X12082478Y-40083702D01*
X12082478Y-40083702D02*
X12118924Y-40171690D01*
X12118924Y-40171690D02*
X12129599Y-40321896D01*
X12129599Y-40321896D02*
X12103827Y-40384113D01*
X11632397Y-41610236D02*
X11413721Y-41082305D01*
X11523059Y-41346270D02*
X12446938Y-40963587D01*
X12446938Y-40963587D02*
X12278509Y-40930267D01*
X12278509Y-40930267D02*
X12154075Y-40878725D01*
X12154075Y-40878725D02*
X12073635Y-40808959D01*
X12576331Y-42147010D02*
X11960411Y-42402133D01*
X12837170Y-41781255D02*
X12086141Y-41834629D01*
X12086141Y-41834629D02*
X12323040Y-42406554D01*
%TO.C,C10*%
X-41663068Y-12464278D02*
X-41688840Y-12526495D01*
X-41688840Y-12526495D02*
X-41802600Y-12625159D01*
X-41802600Y-12625159D02*
X-41890588Y-12661605D01*
X-41890588Y-12661605D02*
X-42040794Y-12672279D01*
X-42040794Y-12672279D02*
X-42165228Y-12620737D01*
X-42165228Y-12620737D02*
X-42245669Y-12550971D01*
X-42245669Y-12550971D02*
X-42362555Y-12393217D01*
X-42362555Y-12393217D02*
X-42417224Y-12261235D01*
X-42417224Y-12261235D02*
X-42446122Y-12067035D01*
X-42446122Y-12067035D02*
X-42438574Y-11960823D01*
X-42438574Y-11960823D02*
X-42387031Y-11836388D01*
X-42387031Y-11836388D02*
X-42273271Y-11737725D01*
X-42273271Y-11737725D02*
X-42185283Y-11701279D01*
X-42185283Y-11701279D02*
X-42035077Y-11690604D01*
X-42035077Y-11690604D02*
X-41972860Y-11716376D01*
X-40746737Y-12187806D02*
X-41274668Y-12406482D01*
X-41010703Y-12297144D02*
X-41393386Y-11373265D01*
X-41393386Y-11373265D02*
X-41426706Y-11541694D01*
X-41426706Y-11541694D02*
X-41478248Y-11666128D01*
X-41478248Y-11666128D02*
X-41548014Y-11746568D01*
X-40557495Y-11027027D02*
X-40469507Y-10990581D01*
X-40469507Y-10990581D02*
X-40363295Y-10998130D01*
X-40363295Y-10998130D02*
X-40301078Y-11023901D01*
X-40301078Y-11023901D02*
X-40220637Y-11093666D01*
X-40220637Y-11093666D02*
X-40103751Y-11251420D01*
X-40103751Y-11251420D02*
X-40012636Y-11471392D01*
X-40012636Y-11471392D02*
X-39983738Y-11665592D01*
X-39983738Y-11665592D02*
X-39991286Y-11771803D01*
X-39991286Y-11771803D02*
X-40017058Y-11834021D01*
X-40017058Y-11834021D02*
X-40086823Y-11914461D01*
X-40086823Y-11914461D02*
X-40174812Y-11950907D01*
X-40174812Y-11950907D02*
X-40281023Y-11943359D01*
X-40281023Y-11943359D02*
X-40343241Y-11917587D01*
X-40343241Y-11917587D02*
X-40423681Y-11847822D01*
X-40423681Y-11847822D02*
X-40540567Y-11690068D01*
X-40540567Y-11690068D02*
X-40631682Y-11470097D01*
X-40631682Y-11470097D02*
X-40660580Y-11275896D01*
X-40660580Y-11275896D02*
X-40653032Y-11169685D01*
X-40653032Y-11169685D02*
X-40627261Y-11107468D01*
X-40627261Y-11107468D02*
X-40557495Y-11027027D01*
D13*
%TO.C,D10*%
X-41252770Y-18904329D02*
X-40559861Y-18617317D01*
X-40559861Y-18617317D02*
X-40491524Y-18782295D01*
X-40491524Y-18782295D02*
X-40483518Y-18894950D01*
X-40483518Y-18894950D02*
X-40522175Y-18988276D01*
X-40522175Y-18988276D02*
X-40574499Y-19048606D01*
X-40574499Y-19048606D02*
X-40692815Y-19136271D01*
X-40692815Y-19136271D02*
X-40791802Y-19177272D01*
X-40791802Y-19177272D02*
X-40937452Y-19198946D01*
X-40937452Y-19198946D02*
X-41017111Y-19193285D01*
X-41017111Y-19193285D02*
X-41110437Y-19154628D01*
X-41110437Y-19154628D02*
X-41184434Y-19069308D01*
X-41184434Y-19069308D02*
X-41252770Y-18904329D01*
X-40815418Y-19960192D02*
X-40979425Y-19564243D01*
X-40897421Y-19762218D02*
X-40204512Y-19475205D01*
X-40204512Y-19475205D02*
X-40330833Y-19450215D01*
X-40330833Y-19450215D02*
X-40424159Y-19411559D01*
X-40424159Y-19411559D02*
X-40484490Y-19359234D01*
X-39944834Y-20102124D02*
X-39917499Y-20168115D01*
X-39917499Y-20168115D02*
X-39923160Y-20247774D01*
X-39923160Y-20247774D02*
X-39942489Y-20294437D01*
X-39942489Y-20294437D02*
X-39994813Y-20354767D01*
X-39994813Y-20354767D02*
X-40113128Y-20442432D01*
X-40113128Y-20442432D02*
X-40278107Y-20510768D01*
X-40278107Y-20510768D02*
X-40423757Y-20532441D01*
X-40423757Y-20532441D02*
X-40503416Y-20526780D01*
X-40503416Y-20526780D02*
X-40550079Y-20507452D01*
X-40550079Y-20507452D02*
X-40610409Y-20455128D01*
X-40610409Y-20455128D02*
X-40637743Y-20389136D01*
X-40637743Y-20389136D02*
X-40632082Y-20309477D01*
X-40632082Y-20309477D02*
X-40612754Y-20262815D01*
X-40612754Y-20262815D02*
X-40560430Y-20202484D01*
X-40560430Y-20202484D02*
X-40442114Y-20114820D01*
X-40442114Y-20114820D02*
X-40277136Y-20046483D01*
X-40277136Y-20046483D02*
X-40131486Y-20024810D01*
X-40131486Y-20024810D02*
X-40051827Y-20030471D01*
X-40051827Y-20030471D02*
X-40005164Y-20049799D01*
X-40005164Y-20049799D02*
X-39944834Y-20102124D01*
D12*
%TO.C,C9*%
X-42829166Y4462619D02*
X-42876785Y4415000D01*
X-42876785Y4415000D02*
X-43019642Y4367380D01*
X-43019642Y4367380D02*
X-43114880Y4367380D01*
X-43114880Y4367380D02*
X-43257737Y4415000D01*
X-43257737Y4415000D02*
X-43352975Y4510238D01*
X-43352975Y4510238D02*
X-43400594Y4605476D01*
X-43400594Y4605476D02*
X-43448213Y4795952D01*
X-43448213Y4795952D02*
X-43448213Y4938809D01*
X-43448213Y4938809D02*
X-43400594Y5129285D01*
X-43400594Y5129285D02*
X-43352975Y5224523D01*
X-43352975Y5224523D02*
X-43257737Y5319761D01*
X-43257737Y5319761D02*
X-43114880Y5367380D01*
X-43114880Y5367380D02*
X-43019642Y5367380D01*
X-43019642Y5367380D02*
X-42876785Y5319761D01*
X-42876785Y5319761D02*
X-42829166Y5272142D01*
X-42352975Y4367380D02*
X-42162499Y4367380D01*
X-42162499Y4367380D02*
X-42067261Y4415000D01*
X-42067261Y4415000D02*
X-42019642Y4462619D01*
X-42019642Y4462619D02*
X-41924404Y4605476D01*
X-41924404Y4605476D02*
X-41876785Y4795952D01*
X-41876785Y4795952D02*
X-41876785Y5176904D01*
X-41876785Y5176904D02*
X-41924404Y5272142D01*
X-41924404Y5272142D02*
X-41972023Y5319761D01*
X-41972023Y5319761D02*
X-42067261Y5367380D01*
X-42067261Y5367380D02*
X-42257737Y5367380D01*
X-42257737Y5367380D02*
X-42352975Y5319761D01*
X-42352975Y5319761D02*
X-42400594Y5272142D01*
X-42400594Y5272142D02*
X-42448213Y5176904D01*
X-42448213Y5176904D02*
X-42448213Y4938809D01*
X-42448213Y4938809D02*
X-42400594Y4843571D01*
X-42400594Y4843571D02*
X-42352975Y4795952D01*
X-42352975Y4795952D02*
X-42257737Y4748333D01*
X-42257737Y4748333D02*
X-42067261Y4748333D01*
X-42067261Y4748333D02*
X-41972023Y4795952D01*
X-41972023Y4795952D02*
X-41924404Y4843571D01*
X-41924404Y4843571D02*
X-41876785Y4938809D01*
D13*
%TO.C,D12*%
X-15802734Y-42537493D02*
X-15515722Y-41844583D01*
X-15515722Y-41844583D02*
X-15350743Y-41912920D01*
X-15350743Y-41912920D02*
X-15265424Y-41986917D01*
X-15265424Y-41986917D02*
X-15226767Y-42080243D01*
X-15226767Y-42080243D02*
X-15221106Y-42159902D01*
X-15221106Y-42159902D02*
X-15242779Y-42305552D01*
X-15242779Y-42305552D02*
X-15283781Y-42404539D01*
X-15283781Y-42404539D02*
X-15371445Y-42522854D01*
X-15371445Y-42522854D02*
X-15431776Y-42575179D01*
X-15431776Y-42575179D02*
X-15525102Y-42613835D01*
X-15525102Y-42613835D02*
X-15637756Y-42605829D01*
X-15637756Y-42605829D02*
X-15802734Y-42537493D01*
X-14746872Y-42974846D02*
X-15142821Y-42810838D01*
X-14944846Y-42892842D02*
X-14657834Y-42199932D01*
X-14657834Y-42199932D02*
X-14764827Y-42271585D01*
X-14764827Y-42271585D02*
X-14858153Y-42310242D01*
X-14858153Y-42310242D02*
X-14937812Y-42315903D01*
X-14223228Y-42457266D02*
X-14176565Y-42437937D01*
X-14176565Y-42437937D02*
X-14096907Y-42432276D01*
X-14096907Y-42432276D02*
X-13931928Y-42500612D01*
X-13931928Y-42500612D02*
X-13879604Y-42560942D01*
X-13879604Y-42560942D02*
X-13860276Y-42607605D01*
X-13860276Y-42607605D02*
X-13854614Y-42687264D01*
X-13854614Y-42687264D02*
X-13881949Y-42753255D01*
X-13881949Y-42753255D02*
X-13955946Y-42838575D01*
X-13955946Y-42838575D02*
X-14515902Y-43070516D01*
X-14515902Y-43070516D02*
X-14086958Y-43248191D01*
D12*
%TO.C,C1*%
X42370833Y-5297380D02*
X42323214Y-5345000D01*
X42323214Y-5345000D02*
X42180357Y-5392619D01*
X42180357Y-5392619D02*
X42085119Y-5392619D01*
X42085119Y-5392619D02*
X41942262Y-5345000D01*
X41942262Y-5345000D02*
X41847024Y-5249761D01*
X41847024Y-5249761D02*
X41799405Y-5154523D01*
X41799405Y-5154523D02*
X41751786Y-4964047D01*
X41751786Y-4964047D02*
X41751786Y-4821190D01*
X41751786Y-4821190D02*
X41799405Y-4630714D01*
X41799405Y-4630714D02*
X41847024Y-4535476D01*
X41847024Y-4535476D02*
X41942262Y-4440238D01*
X41942262Y-4440238D02*
X42085119Y-4392619D01*
X42085119Y-4392619D02*
X42180357Y-4392619D01*
X42180357Y-4392619D02*
X42323214Y-4440238D01*
X42323214Y-4440238D02*
X42370833Y-4487857D01*
X43323214Y-5392619D02*
X42751786Y-5392619D01*
X43037500Y-5392619D02*
X43037500Y-4392619D01*
X43037500Y-4392619D02*
X42942262Y-4535476D01*
X42942262Y-4535476D02*
X42847024Y-4630714D01*
X42847024Y-4630714D02*
X42751786Y-4678333D01*
D13*
%TO.C,D15*%
X31711592Y-32418699D02*
X31181262Y-31888369D01*
X31181262Y-31888369D02*
X31307531Y-31762100D01*
X31307531Y-31762100D02*
X31408547Y-31711592D01*
X31408547Y-31711592D02*
X31509562Y-31711592D01*
X31509562Y-31711592D02*
X31585323Y-31736846D01*
X31585323Y-31736846D02*
X31711592Y-31812608D01*
X31711592Y-31812608D02*
X31787354Y-31888369D01*
X31787354Y-31888369D02*
X31863115Y-32014638D01*
X31863115Y-32014638D02*
X31888369Y-32090400D01*
X31888369Y-32090400D02*
X31888369Y-32191415D01*
X31888369Y-32191415D02*
X31837861Y-32292430D01*
X31837861Y-32292430D02*
X31711592Y-32418699D01*
X32519714Y-31610577D02*
X32216669Y-31913623D01*
X32368191Y-31762100D02*
X31837861Y-31231770D01*
X31837861Y-31231770D02*
X31863115Y-31358039D01*
X31863115Y-31358039D02*
X31863115Y-31459054D01*
X31863115Y-31459054D02*
X31837861Y-31534816D01*
X32469207Y-30600424D02*
X32216669Y-30852963D01*
X32216669Y-30852963D02*
X32443953Y-31130755D01*
X32443953Y-31130755D02*
X32443953Y-31080247D01*
X32443953Y-31080247D02*
X32469207Y-31004486D01*
X32469207Y-31004486D02*
X32595476Y-30878216D01*
X32595476Y-30878216D02*
X32671237Y-30852963D01*
X32671237Y-30852963D02*
X32721745Y-30852963D01*
X32721745Y-30852963D02*
X32797507Y-30878216D01*
X32797507Y-30878216D02*
X32923776Y-31004486D01*
X32923776Y-31004486D02*
X32949029Y-31080247D01*
X32949029Y-31080247D02*
X32949029Y-31130755D01*
X32949029Y-31130755D02*
X32923776Y-31206516D01*
X32923776Y-31206516D02*
X32797507Y-31332785D01*
X32797507Y-31332785D02*
X32721745Y-31358039D01*
X32721745Y-31358039D02*
X32671237Y-31358039D01*
%TO.C,D4*%
X14514313Y42320072D02*
X14801325Y43012982D01*
X14801325Y43012982D02*
X14966304Y42944645D01*
X14966304Y42944645D02*
X15051624Y42870648D01*
X15051624Y42870648D02*
X15090280Y42777322D01*
X15090280Y42777322D02*
X15095942Y42697663D01*
X15095942Y42697663D02*
X15074268Y42552013D01*
X15074268Y42552013D02*
X15033266Y42453026D01*
X15033266Y42453026D02*
X14945602Y42334711D01*
X14945602Y42334711D02*
X14885271Y42282386D01*
X14885271Y42282386D02*
X14791945Y42243730D01*
X14791945Y42243730D02*
X14679291Y42251736D01*
X14679291Y42251736D02*
X14514313Y42320072D01*
X15695525Y42371994D02*
X15504184Y41910054D01*
X15639885Y42704296D02*
X15269897Y42277697D01*
X15269897Y42277697D02*
X15698842Y42100022D01*
D12*
%TO.C,C5*%
X5197380Y42433333D02*
X5245000Y42385714D01*
X5245000Y42385714D02*
X5292619Y42242857D01*
X5292619Y42242857D02*
X5292619Y42147619D01*
X5292619Y42147619D02*
X5245000Y42004762D01*
X5245000Y42004762D02*
X5149761Y41909524D01*
X5149761Y41909524D02*
X5054523Y41861905D01*
X5054523Y41861905D02*
X4864047Y41814286D01*
X4864047Y41814286D02*
X4721190Y41814286D01*
X4721190Y41814286D02*
X4530714Y41861905D01*
X4530714Y41861905D02*
X4435476Y41909524D01*
X4435476Y41909524D02*
X4340238Y42004762D01*
X4340238Y42004762D02*
X4292619Y42147619D01*
X4292619Y42147619D02*
X4292619Y42242857D01*
X4292619Y42242857D02*
X4340238Y42385714D01*
X4340238Y42385714D02*
X4387857Y42433333D01*
X4292619Y43338095D02*
X4292619Y42861905D01*
X4292619Y42861905D02*
X4768809Y42814286D01*
X4768809Y42814286D02*
X4721190Y42861905D01*
X4721190Y42861905D02*
X4673571Y42957143D01*
X4673571Y42957143D02*
X4673571Y43195238D01*
X4673571Y43195238D02*
X4721190Y43290476D01*
X4721190Y43290476D02*
X4768809Y43338095D01*
X4768809Y43338095D02*
X4864047Y43385714D01*
X4864047Y43385714D02*
X5102142Y43385714D01*
X5102142Y43385714D02*
X5197380Y43338095D01*
X5197380Y43338095D02*
X5245000Y43290476D01*
X5245000Y43290476D02*
X5292619Y43195238D01*
X5292619Y43195238D02*
X5292619Y42957143D01*
X5292619Y42957143D02*
X5245000Y42861905D01*
X5245000Y42861905D02*
X5197380Y42814286D01*
%TO.C,C16*%
X36780749Y-20814552D02*
X36718532Y-20840324D01*
X36718532Y-20840324D02*
X36568326Y-20829649D01*
X36568326Y-20829649D02*
X36480338Y-20793203D01*
X36480338Y-20793203D02*
X36366578Y-20694540D01*
X36366578Y-20694540D02*
X36315035Y-20570105D01*
X36315035Y-20570105D02*
X36307487Y-20463893D01*
X36307487Y-20463893D02*
X36336385Y-20269693D01*
X36336385Y-20269693D02*
X36391054Y-20137711D01*
X36391054Y-20137711D02*
X36507940Y-19979957D01*
X36507940Y-19979957D02*
X36588381Y-19910191D01*
X36588381Y-19910191D02*
X36712815Y-19858649D01*
X36712815Y-19858649D02*
X36863021Y-19869323D01*
X36863021Y-19869323D02*
X36951010Y-19905769D01*
X36951010Y-19905769D02*
X37064769Y-20004433D01*
X37064769Y-20004433D02*
X37090541Y-20066650D01*
X37624189Y-21267001D02*
X37096257Y-21048325D01*
X37360223Y-21157663D02*
X37742906Y-20233784D01*
X37742906Y-20233784D02*
X37600249Y-20329320D01*
X37600249Y-20329320D02*
X37475814Y-20380863D01*
X37475814Y-20380863D02*
X37369603Y-20388411D01*
X38798769Y-20671136D02*
X38622792Y-20598244D01*
X38622792Y-20598244D02*
X38516580Y-20605792D01*
X38516580Y-20605792D02*
X38454363Y-20631564D01*
X38454363Y-20631564D02*
X38311705Y-20727100D01*
X38311705Y-20727100D02*
X38194819Y-20884854D01*
X38194819Y-20884854D02*
X38049035Y-21236809D01*
X38049035Y-21236809D02*
X38056583Y-21343020D01*
X38056583Y-21343020D02*
X38082354Y-21405237D01*
X38082354Y-21405237D02*
X38152120Y-21485678D01*
X38152120Y-21485678D02*
X38328097Y-21558570D01*
X38328097Y-21558570D02*
X38434308Y-21551022D01*
X38434308Y-21551022D02*
X38496526Y-21525250D01*
X38496526Y-21525250D02*
X38576966Y-21455485D01*
X38576966Y-21455485D02*
X38668081Y-21235513D01*
X38668081Y-21235513D02*
X38660533Y-21129302D01*
X38660533Y-21129302D02*
X38634762Y-21067085D01*
X38634762Y-21067085D02*
X38564996Y-20986644D01*
X38564996Y-20986644D02*
X38389019Y-20913752D01*
X38389019Y-20913752D02*
X38282807Y-20921300D01*
X38282807Y-20921300D02*
X38220590Y-20947072D01*
X38220590Y-20947072D02*
X38140150Y-21016837D01*
D13*
%TO.C,D7*%
X-32508856Y30640073D02*
X-33039186Y31170403D01*
X-33039186Y31170403D02*
X-32912917Y31296672D01*
X-32912917Y31296672D02*
X-32811901Y31347180D01*
X-32811901Y31347180D02*
X-32710886Y31347180D01*
X-32710886Y31347180D02*
X-32635125Y31321926D01*
X-32635125Y31321926D02*
X-32508856Y31246164D01*
X-32508856Y31246164D02*
X-32433094Y31170403D01*
X-32433094Y31170403D02*
X-32357333Y31044134D01*
X-32357333Y31044134D02*
X-32332079Y30968372D01*
X-32332079Y30968372D02*
X-32332079Y30867357D01*
X-32332079Y30867357D02*
X-32382587Y30766342D01*
X-32382587Y30766342D02*
X-32508856Y30640073D01*
X-32559363Y31650225D02*
X-32205810Y32003779D01*
X-32205810Y32003779D02*
X-31902764Y31246164D01*
D12*
%TO.C,C11*%
X-33815834Y-27313063D02*
X-33815834Y-27380406D01*
X-33815834Y-27380406D02*
X-33883177Y-27515093D01*
X-33883177Y-27515093D02*
X-33950521Y-27582437D01*
X-33950521Y-27582437D02*
X-34085208Y-27649780D01*
X-34085208Y-27649780D02*
X-34219895Y-27649780D01*
X-34219895Y-27649780D02*
X-34320910Y-27616109D01*
X-34320910Y-27616109D02*
X-34489269Y-27515093D01*
X-34489269Y-27515093D02*
X-34590284Y-27414078D01*
X-34590284Y-27414078D02*
X-34691299Y-27245719D01*
X-34691299Y-27245719D02*
X-34724971Y-27144704D01*
X-34724971Y-27144704D02*
X-34724971Y-27010017D01*
X-34724971Y-27010017D02*
X-34657627Y-26875330D01*
X-34657627Y-26875330D02*
X-34590284Y-26807986D01*
X-34590284Y-26807986D02*
X-34455597Y-26740643D01*
X-34455597Y-26740643D02*
X-34388253Y-26740643D01*
X-33075055Y-26706971D02*
X-33479116Y-27111032D01*
X-33277086Y-26909002D02*
X-33984192Y-26201895D01*
X-33984192Y-26201895D02*
X-33950521Y-26370254D01*
X-33950521Y-26370254D02*
X-33950521Y-26504941D01*
X-33950521Y-26504941D02*
X-33984192Y-26605956D01*
X-32401620Y-26033536D02*
X-32805681Y-26437597D01*
X-32603651Y-26235567D02*
X-33310757Y-25528460D01*
X-33310757Y-25528460D02*
X-33277086Y-25696819D01*
X-33277086Y-25696819D02*
X-33277086Y-25831506D01*
X-33277086Y-25831506D02*
X-33310757Y-25932521D01*
D13*
%TO.C,D9*%
X-44629904Y-1321428D02*
X-45429904Y-1321428D01*
X-45429904Y-1321428D02*
X-45429904Y-1142857D01*
X-45429904Y-1142857D02*
X-45391809Y-1035714D01*
X-45391809Y-1035714D02*
X-45315619Y-964285D01*
X-45315619Y-964285D02*
X-45239428Y-928571D01*
X-45239428Y-928571D02*
X-45087047Y-892857D01*
X-45087047Y-892857D02*
X-44972761Y-892857D01*
X-44972761Y-892857D02*
X-44820380Y-928571D01*
X-44820380Y-928571D02*
X-44744190Y-964285D01*
X-44744190Y-964285D02*
X-44668000Y-1035714D01*
X-44668000Y-1035714D02*
X-44629904Y-1142857D01*
X-44629904Y-1142857D02*
X-44629904Y-1321428D01*
X-44629904Y-535714D02*
X-44629904Y-392857D01*
X-44629904Y-392857D02*
X-44668000Y-321428D01*
X-44668000Y-321428D02*
X-44706095Y-285714D01*
X-44706095Y-285714D02*
X-44820380Y-214285D01*
X-44820380Y-214285D02*
X-44972761Y-178571D01*
X-44972761Y-178571D02*
X-45277523Y-178571D01*
X-45277523Y-178571D02*
X-45353714Y-214285D01*
X-45353714Y-214285D02*
X-45391809Y-250000D01*
X-45391809Y-250000D02*
X-45429904Y-321428D01*
X-45429904Y-321428D02*
X-45429904Y-464285D01*
X-45429904Y-464285D02*
X-45391809Y-535714D01*
X-45391809Y-535714D02*
X-45353714Y-571428D01*
X-45353714Y-571428D02*
X-45277523Y-607142D01*
X-45277523Y-607142D02*
X-45087047Y-607142D01*
X-45087047Y-607142D02*
X-45010857Y-571428D01*
X-45010857Y-571428D02*
X-44972761Y-535714D01*
X-44972761Y-535714D02*
X-44934666Y-464285D01*
X-44934666Y-464285D02*
X-44934666Y-321428D01*
X-44934666Y-321428D02*
X-44972761Y-250000D01*
X-44972761Y-250000D02*
X-45010857Y-214285D01*
X-45010857Y-214285D02*
X-45087047Y-178571D01*
D12*
%TO.C,C12*%
X-20690243Y-38187276D02*
X-20664471Y-38249493D01*
X-20664471Y-38249493D02*
X-20675146Y-38399699D01*
X-20675146Y-38399699D02*
X-20711592Y-38487687D01*
X-20711592Y-38487687D02*
X-20810255Y-38601447D01*
X-20810255Y-38601447D02*
X-20934690Y-38652990D01*
X-20934690Y-38652990D02*
X-21040902Y-38660538D01*
X-21040902Y-38660538D02*
X-21235102Y-38631640D01*
X-21235102Y-38631640D02*
X-21367084Y-38576971D01*
X-21367084Y-38576971D02*
X-21524838Y-38460085D01*
X-21524838Y-38460085D02*
X-21594604Y-38379644D01*
X-21594604Y-38379644D02*
X-21646146Y-38255210D01*
X-21646146Y-38255210D02*
X-21635472Y-38105004D01*
X-21635472Y-38105004D02*
X-21599026Y-38017015D01*
X-21599026Y-38017015D02*
X-21500362Y-37903256D01*
X-21500362Y-37903256D02*
X-21438145Y-37877484D01*
X-20237794Y-37343836D02*
X-20456470Y-37871768D01*
X-20347132Y-37607802D02*
X-21271011Y-37225119D01*
X-21271011Y-37225119D02*
X-21175475Y-37367776D01*
X-21175475Y-37367776D02*
X-21123932Y-37492211D01*
X-21123932Y-37492211D02*
X-21116384Y-37598422D01*
X-20927900Y-36645645D02*
X-20953672Y-36583428D01*
X-20953672Y-36583428D02*
X-20961220Y-36477216D01*
X-20961220Y-36477216D02*
X-20870105Y-36257245D01*
X-20870105Y-36257245D02*
X-20789664Y-36187479D01*
X-20789664Y-36187479D02*
X-20727447Y-36161708D01*
X-20727447Y-36161708D02*
X-20621236Y-36154160D01*
X-20621236Y-36154160D02*
X-20533247Y-36190606D01*
X-20533247Y-36190606D02*
X-20419487Y-36289269D01*
X-20419487Y-36289269D02*
X-20110232Y-37035877D01*
X-20110232Y-37035877D02*
X-19873333Y-36463951D01*
%TO.C,C8*%
X-37809833Y20445512D02*
X-37872050Y20419741D01*
X-37872050Y20419741D02*
X-38022256Y20430416D01*
X-38022256Y20430416D02*
X-38110244Y20466862D01*
X-38110244Y20466862D02*
X-38224004Y20565525D01*
X-38224004Y20565525D02*
X-38275546Y20689960D01*
X-38275546Y20689960D02*
X-38283095Y20796171D01*
X-38283095Y20796171D02*
X-38254197Y20990371D01*
X-38254197Y20990371D02*
X-38199528Y21122354D01*
X-38199528Y21122354D02*
X-38082641Y21280108D01*
X-38082641Y21280108D02*
X-38002201Y21349874D01*
X-38002201Y21349874D02*
X-37877767Y21401416D01*
X-37877767Y21401416D02*
X-37727561Y21390741D01*
X-37727561Y21390741D02*
X-37639572Y21354295D01*
X-37639572Y21354295D02*
X-37525812Y21255632D01*
X-37525812Y21255632D02*
X-37500041Y21193415D01*
X-37099671Y20666779D02*
X-37169437Y20747219D01*
X-37169437Y20747219D02*
X-37195208Y20809436D01*
X-37195208Y20809436D02*
X-37202756Y20915648D01*
X-37202756Y20915648D02*
X-37184533Y20959642D01*
X-37184533Y20959642D02*
X-37104093Y21029407D01*
X-37104093Y21029407D02*
X-37041876Y21055179D01*
X-37041876Y21055179D02*
X-36935664Y21062727D01*
X-36935664Y21062727D02*
X-36759687Y20989835D01*
X-36759687Y20989835D02*
X-36689921Y20909395D01*
X-36689921Y20909395D02*
X-36664150Y20847177D01*
X-36664150Y20847177D02*
X-36656602Y20740966D01*
X-36656602Y20740966D02*
X-36674825Y20696971D01*
X-36674825Y20696971D02*
X-36755265Y20627206D01*
X-36755265Y20627206D02*
X-36817483Y20601435D01*
X-36817483Y20601435D02*
X-36923694Y20593886D01*
X-36923694Y20593886D02*
X-37099671Y20666779D01*
X-37099671Y20666779D02*
X-37205883Y20659230D01*
X-37205883Y20659230D02*
X-37268100Y20633459D01*
X-37268100Y20633459D02*
X-37348540Y20563694D01*
X-37348540Y20563694D02*
X-37421432Y20387717D01*
X-37421432Y20387717D02*
X-37413884Y20281505D01*
X-37413884Y20281505D02*
X-37388113Y20219288D01*
X-37388113Y20219288D02*
X-37318347Y20138847D01*
X-37318347Y20138847D02*
X-37142370Y20065955D01*
X-37142370Y20065955D02*
X-37036159Y20073504D01*
X-37036159Y20073504D02*
X-36973942Y20099275D01*
X-36973942Y20099275D02*
X-36893501Y20169040D01*
X-36893501Y20169040D02*
X-36820609Y20345017D01*
X-36820609Y20345017D02*
X-36828157Y20451229D01*
X-36828157Y20451229D02*
X-36853929Y20513446D01*
X-36853929Y20513446D02*
X-36923694Y20593886D01*
D13*
%TO.C,D11*%
X-30878216Y-33252075D02*
X-30347886Y-32721745D01*
X-30347886Y-32721745D02*
X-30221617Y-32848014D01*
X-30221617Y-32848014D02*
X-30171109Y-32949030D01*
X-30171109Y-32949030D02*
X-30171109Y-33050045D01*
X-30171109Y-33050045D02*
X-30196363Y-33125806D01*
X-30196363Y-33125806D02*
X-30272125Y-33252075D01*
X-30272125Y-33252075D02*
X-30347886Y-33327837D01*
X-30347886Y-33327837D02*
X-30474155Y-33403598D01*
X-30474155Y-33403598D02*
X-30549917Y-33428852D01*
X-30549917Y-33428852D02*
X-30650932Y-33428852D01*
X-30650932Y-33428852D02*
X-30751947Y-33378344D01*
X-30751947Y-33378344D02*
X-30878216Y-33252075D01*
X-30070094Y-34060197D02*
X-30373140Y-33757152D01*
X-30221617Y-33908675D02*
X-29691287Y-33378344D01*
X-29691287Y-33378344D02*
X-29817556Y-33403598D01*
X-29817556Y-33403598D02*
X-29918571Y-33403598D01*
X-29918571Y-33403598D02*
X-29994333Y-33378344D01*
X-29565018Y-34565274D02*
X-29868063Y-34262228D01*
X-29716541Y-34413751D02*
X-29186211Y-33883421D01*
X-29186211Y-33883421D02*
X-29312480Y-33908675D01*
X-29312480Y-33908675D02*
X-29413495Y-33908675D01*
X-29413495Y-33908675D02*
X-29489256Y-33883421D01*
%TO.C,D5*%
X-1321428Y44653035D02*
X-1321428Y45403035D01*
X-1321428Y45403035D02*
X-1142857Y45403035D01*
X-1142857Y45403035D02*
X-1035714Y45367321D01*
X-1035714Y45367321D02*
X-964285Y45295892D01*
X-964285Y45295892D02*
X-928571Y45224464D01*
X-928571Y45224464D02*
X-892857Y45081607D01*
X-892857Y45081607D02*
X-892857Y44974464D01*
X-892857Y44974464D02*
X-928571Y44831607D01*
X-928571Y44831607D02*
X-964285Y44760178D01*
X-964285Y44760178D02*
X-1035714Y44688750D01*
X-1035714Y44688750D02*
X-1142857Y44653035D01*
X-1142857Y44653035D02*
X-1321428Y44653035D01*
X-214285Y45403035D02*
X-571428Y45403035D01*
X-571428Y45403035D02*
X-607142Y45045892D01*
X-607142Y45045892D02*
X-571428Y45081607D01*
X-571428Y45081607D02*
X-500000Y45117321D01*
X-500000Y45117321D02*
X-321428Y45117321D01*
X-321428Y45117321D02*
X-250000Y45081607D01*
X-250000Y45081607D02*
X-214285Y45045892D01*
X-214285Y45045892D02*
X-178571Y44974464D01*
X-178571Y44974464D02*
X-178571Y44795892D01*
X-178571Y44795892D02*
X-214285Y44724464D01*
X-214285Y44724464D02*
X-250000Y44688750D01*
X-250000Y44688750D02*
X-321428Y44653035D01*
X-321428Y44653035D02*
X-500000Y44653035D01*
X-500000Y44653035D02*
X-571428Y44688750D01*
X-571428Y44688750D02*
X-607142Y44724464D01*
%TO.C,D8*%
X-41759714Y15867137D02*
X-42452624Y16154149D01*
X-42452624Y16154149D02*
X-42384287Y16319128D01*
X-42384287Y16319128D02*
X-42310290Y16404447D01*
X-42310290Y16404447D02*
X-42216964Y16443104D01*
X-42216964Y16443104D02*
X-42137305Y16448765D01*
X-42137305Y16448765D02*
X-41991655Y16427092D01*
X-41991655Y16427092D02*
X-41892668Y16386090D01*
X-41892668Y16386090D02*
X-41774353Y16298426D01*
X-41774353Y16298426D02*
X-41722028Y16238095D01*
X-41722028Y16238095D02*
X-41683372Y16144769D01*
X-41683372Y16144769D02*
X-41691378Y16032115D01*
X-41691378Y16032115D02*
X-41759714Y15867137D01*
X-41827648Y16823040D02*
X-41887978Y16770716D01*
X-41887978Y16770716D02*
X-41934641Y16751388D01*
X-41934641Y16751388D02*
X-42014300Y16745727D01*
X-42014300Y16745727D02*
X-42047296Y16759394D01*
X-42047296Y16759394D02*
X-42099620Y16819724D01*
X-42099620Y16819724D02*
X-42118948Y16866387D01*
X-42118948Y16866387D02*
X-42124609Y16946046D01*
X-42124609Y16946046D02*
X-42069940Y17078029D01*
X-42069940Y17078029D02*
X-42009610Y17130353D01*
X-42009610Y17130353D02*
X-41962947Y17149681D01*
X-41962947Y17149681D02*
X-41883288Y17155342D01*
X-41883288Y17155342D02*
X-41850293Y17141675D01*
X-41850293Y17141675D02*
X-41797969Y17081345D01*
X-41797969Y17081345D02*
X-41778640Y17034682D01*
X-41778640Y17034682D02*
X-41772979Y16955023D01*
X-41772979Y16955023D02*
X-41827648Y16823040D01*
X-41827648Y16823040D02*
X-41821987Y16743382D01*
X-41821987Y16743382D02*
X-41802658Y16696719D01*
X-41802658Y16696719D02*
X-41750334Y16636389D01*
X-41750334Y16636389D02*
X-41618351Y16581720D01*
X-41618351Y16581720D02*
X-41538693Y16587381D01*
X-41538693Y16587381D02*
X-41492030Y16606709D01*
X-41492030Y16606709D02*
X-41431700Y16659033D01*
X-41431700Y16659033D02*
X-41377031Y16791016D01*
X-41377031Y16791016D02*
X-41382692Y16870675D01*
X-41382692Y16870675D02*
X-41402020Y16917338D01*
X-41402020Y16917338D02*
X-41454344Y16977668D01*
X-41454344Y16977668D02*
X-41586327Y17032337D01*
X-41586327Y17032337D02*
X-41665986Y17026676D01*
X-41665986Y17026676D02*
X-41712649Y17007347D01*
X-41712649Y17007347D02*
X-41772979Y16955023D01*
D12*
%TO.C,C7*%
X-27166465Y33469236D02*
X-27233808Y33469236D01*
X-27233808Y33469236D02*
X-27368495Y33536579D01*
X-27368495Y33536579D02*
X-27435839Y33603923D01*
X-27435839Y33603923D02*
X-27503182Y33738610D01*
X-27503182Y33738610D02*
X-27503182Y33873297D01*
X-27503182Y33873297D02*
X-27469511Y33974312D01*
X-27469511Y33974312D02*
X-27368495Y34142671D01*
X-27368495Y34142671D02*
X-27267480Y34243686D01*
X-27267480Y34243686D02*
X-27099121Y34344701D01*
X-27099121Y34344701D02*
X-26998106Y34378373D01*
X-26998106Y34378373D02*
X-26863419Y34378373D01*
X-26863419Y34378373D02*
X-26728732Y34311030D01*
X-26728732Y34311030D02*
X-26661389Y34243686D01*
X-26661389Y34243686D02*
X-26594045Y34108999D01*
X-26594045Y34108999D02*
X-26594045Y34041656D01*
X-26290999Y33873297D02*
X-25819595Y33401892D01*
X-25819595Y33401892D02*
X-26829747Y32997831D01*
%TO.C,C13*%
X-4462619Y-43180357D02*
X-4415000Y-43227976D01*
X-4415000Y-43227976D02*
X-4367380Y-43370833D01*
X-4367380Y-43370833D02*
X-4367380Y-43466071D01*
X-4367380Y-43466071D02*
X-4415000Y-43608928D01*
X-4415000Y-43608928D02*
X-4510238Y-43704166D01*
X-4510238Y-43704166D02*
X-4605476Y-43751785D01*
X-4605476Y-43751785D02*
X-4795952Y-43799404D01*
X-4795952Y-43799404D02*
X-4938809Y-43799404D01*
X-4938809Y-43799404D02*
X-5129285Y-43751785D01*
X-5129285Y-43751785D02*
X-5224523Y-43704166D01*
X-5224523Y-43704166D02*
X-5319761Y-43608928D01*
X-5319761Y-43608928D02*
X-5367380Y-43466071D01*
X-5367380Y-43466071D02*
X-5367380Y-43370833D01*
X-5367380Y-43370833D02*
X-5319761Y-43227976D01*
X-5319761Y-43227976D02*
X-5272142Y-43180357D01*
X-4367380Y-42227976D02*
X-4367380Y-42799404D01*
X-4367380Y-42513690D02*
X-5367380Y-42513690D01*
X-5367380Y-42513690D02*
X-5224523Y-42608928D01*
X-5224523Y-42608928D02*
X-5129285Y-42704166D01*
X-5129285Y-42704166D02*
X-5081666Y-42799404D01*
X-5367380Y-41894642D02*
X-5367380Y-41275595D01*
X-5367380Y-41275595D02*
X-4986428Y-41608928D01*
X-4986428Y-41608928D02*
X-4986428Y-41466071D01*
X-4986428Y-41466071D02*
X-4938809Y-41370833D01*
X-4938809Y-41370833D02*
X-4891190Y-41323214D01*
X-4891190Y-41323214D02*
X-4795952Y-41275595D01*
X-4795952Y-41275595D02*
X-4557857Y-41275595D01*
X-4557857Y-41275595D02*
X-4462619Y-41323214D01*
X-4462619Y-41323214D02*
X-4415000Y-41370833D01*
X-4415000Y-41370833D02*
X-4367380Y-41466071D01*
X-4367380Y-41466071D02*
X-4367380Y-41751785D01*
X-4367380Y-41751785D02*
X-4415000Y-41847023D01*
X-4415000Y-41847023D02*
X-4462619Y-41894642D01*
D13*
%TO.C,C6*%
X-12847295Y40930302D02*
X-12735347Y40660035D01*
X-13789653Y40539965D02*
X-13677705Y40269698D01*
%TO.C,C4*%
X19997089Y38143119D02*
X19885141Y37872852D01*
X19054731Y38533456D02*
X18942783Y38263189D01*
%TO.C,C15*%
X27605302Y-32864051D02*
X27398449Y-32657198D01*
X28326551Y-32142802D02*
X28119698Y-31935949D01*
D14*
%TO.C,D16*%
X41286770Y-15694431D02*
X41275683Y-15689838D01*
D15*
X39093236Y-15110557D02*
X38327869Y-16958316D01*
X40515401Y-16511431D02*
X39175775Y-15956540D01*
X40515401Y-16511431D02*
X40457998Y-16650013D01*
X40457998Y-16650013D02*
X39164567Y-16114256D01*
X39164567Y-16114256D02*
X39118373Y-16095122D01*
X39118373Y-16095122D02*
X39175775Y-15956540D01*
X40360404Y-17800219D02*
X41125771Y-15952460D01*
D10*
X43254540Y-14994159D02*
X41188049Y-19983108D01*
X41188049Y-19983108D02*
X36199100Y-17916617D01*
X36199100Y-17916617D02*
X38265591Y-12927668D01*
X38265591Y-12927668D02*
X43254540Y-14994159D01*
D14*
%TO.C,D14*%
X18096517Y-40291793D02*
X18091925Y-40280706D01*
D15*
X16958316Y-38327869D02*
X15110557Y-39093236D01*
X16973370Y-40324059D02*
X16418479Y-38984433D01*
X16973370Y-40324059D02*
X16834789Y-40381461D01*
X16834789Y-40381461D02*
X16299032Y-39088030D01*
X16299032Y-39088030D02*
X16279898Y-39041836D01*
X16279898Y-39041836D02*
X16418479Y-38984433D01*
X15952460Y-41125771D02*
X17800219Y-40360404D01*
D10*
X19983108Y-41188049D02*
X14994159Y-43254540D01*
X14994159Y-43254540D02*
X12927668Y-38265591D01*
X12927668Y-38265591D02*
X17916617Y-36199100D01*
X17916617Y-36199100D02*
X19983108Y-41188049D01*
D14*
%TO.C,D1*%
X44150000Y1300000D02*
X44138000Y1300000D01*
D15*
X41900000Y1000000D02*
X41900000Y-1000000D01*
X43750000Y250000D02*
X42300000Y250000D01*
X43750000Y250000D02*
X43750000Y100000D01*
X43750000Y100000D02*
X42350000Y100000D01*
X42350000Y100000D02*
X42300000Y100000D01*
X42300000Y100000D02*
X42300000Y250000D01*
X44100000Y-1000000D02*
X44100000Y1000000D01*
D10*
X45700000Y2700000D02*
X40300000Y2700000D01*
X40300000Y2700000D02*
X40300000Y-2700000D01*
X40300000Y-2700000D02*
X45700000Y-2700000D01*
X45700000Y-2700000D02*
X45700000Y2700000D01*
D13*
%TO.C,C2*%
X40933456Y12754731D02*
X40663189Y12642783D01*
X40543119Y13697089D02*
X40272852Y13585141D01*
D14*
%TO.C,D2*%
X40291793Y18096517D02*
X40280706Y18091925D01*
D15*
X38327869Y16958316D02*
X39093236Y15110557D01*
X40324059Y16973370D02*
X38984433Y16418479D01*
X40324059Y16973370D02*
X40381461Y16834789D01*
X40381461Y16834789D02*
X39088030Y16299032D01*
X39088030Y16299032D02*
X39041836Y16279898D01*
X39041836Y16279898D02*
X38984433Y16418479D01*
X41125771Y15952460D02*
X40360404Y17800219D01*
D10*
X41188049Y19983108D02*
X43254540Y14994159D01*
X43254540Y14994159D02*
X38265591Y12927668D01*
X38265591Y12927668D02*
X36199100Y17916617D01*
X36199100Y17916617D02*
X41188049Y19983108D01*
D14*
%TO.C,D6*%
X-18096517Y40291793D02*
X-18091925Y40280706D01*
D15*
X-16958316Y38327869D02*
X-15110557Y39093236D01*
X-16973370Y40324059D02*
X-16418479Y38984433D01*
X-16973370Y40324059D02*
X-16834789Y40381461D01*
X-16834789Y40381461D02*
X-16299032Y39088030D01*
X-16299032Y39088030D02*
X-16279898Y39041836D01*
X-16279898Y39041836D02*
X-16418479Y38984433D01*
X-15952460Y41125771D02*
X-17800219Y40360404D01*
D10*
X-19983108Y41188049D02*
X-14994159Y43254540D01*
X-14994159Y43254540D02*
X-12927668Y38265591D01*
X-12927668Y38265591D02*
X-17916617Y36199100D01*
X-17916617Y36199100D02*
X-19983108Y41188049D01*
D13*
%TO.C,C3*%
X33054171Y27532922D02*
X32847318Y27326069D01*
X32332922Y28254171D02*
X32126069Y28047318D01*
D14*
%TO.C,D13*%
X1300000Y-44150000D02*
X1300000Y-44138000D01*
D15*
X1000000Y-41900000D02*
X-1000000Y-41900000D01*
X250000Y-43750000D02*
X250000Y-42300000D01*
X250000Y-43750000D02*
X100000Y-43750000D01*
X100000Y-43750000D02*
X100000Y-42350000D01*
X100000Y-42350000D02*
X100000Y-42300000D01*
X100000Y-42300000D02*
X250000Y-42300000D01*
X-1000000Y-44100000D02*
X1000000Y-44100000D01*
D10*
X2700000Y-45700000D02*
X-2700000Y-45700000D01*
X-2700000Y-45700000D02*
X-2700000Y-40300000D01*
X-2700000Y-40300000D02*
X2700000Y-40300000D01*
X2700000Y-40300000D02*
X2700000Y-45700000D01*
D14*
%TO.C,D3*%
X30299526Y32138004D02*
X30291041Y32129518D01*
D15*
X28920668Y30334881D02*
X30334881Y28920668D01*
X30759145Y31112699D02*
X29733841Y30087394D01*
X30759145Y31112699D02*
X30865211Y31006633D01*
X30865211Y31006633D02*
X29875262Y30016683D01*
X29875262Y30016683D02*
X29839907Y29981328D01*
X29839907Y29981328D02*
X29733841Y30087394D01*
X31890516Y30476303D02*
X30476303Y31890516D01*
D10*
X30405592Y34223969D02*
X34223969Y30405592D01*
X34223969Y30405592D02*
X30405592Y26587215D01*
X30405592Y26587215D02*
X26587215Y30405592D01*
X26587215Y30405592D02*
X30405592Y34223969D01*
D13*
%TO.C,C14*%
X12847295Y-40930302D02*
X12735347Y-40660035D01*
X13789653Y-40539965D02*
X13677705Y-40269698D01*
%TO.C,C10*%
X-40992802Y-12784795D02*
X-40722535Y-12672847D01*
X-40602465Y-13727153D02*
X-40332198Y-13615205D01*
D14*
%TO.C,D10*%
X-40291793Y-18096517D02*
X-40280706Y-18091925D01*
D15*
X-38327869Y-16958316D02*
X-39093236Y-15110557D01*
X-40324059Y-16973370D02*
X-38984433Y-16418479D01*
X-40324059Y-16973370D02*
X-40381461Y-16834789D01*
X-40381461Y-16834789D02*
X-39088030Y-16299032D01*
X-39088030Y-16299032D02*
X-39041836Y-16279898D01*
X-39041836Y-16279898D02*
X-38984433Y-16418479D01*
X-41125771Y-15952460D02*
X-40360404Y-17800219D01*
D10*
X-41188049Y-19983108D02*
X-43254540Y-14994159D01*
X-43254540Y-14994159D02*
X-38265591Y-12927668D01*
X-38265591Y-12927668D02*
X-36199100Y-17916617D01*
X-36199100Y-17916617D02*
X-41188049Y-19983108D01*
D13*
%TO.C,C9*%
X-42808767Y3910000D02*
X-42516233Y3910000D01*
X-42808767Y2890000D02*
X-42516233Y2890000D01*
D14*
%TO.C,D12*%
X-15694431Y-41286770D02*
X-15689838Y-41275683D01*
D15*
X-15110557Y-39093236D02*
X-16958316Y-38327869D01*
X-16511431Y-40515401D02*
X-15956540Y-39175775D01*
X-16511431Y-40515401D02*
X-16650013Y-40457998D01*
X-16650013Y-40457998D02*
X-16114256Y-39164567D01*
X-16114256Y-39164567D02*
X-16095122Y-39118373D01*
X-16095122Y-39118373D02*
X-15956540Y-39175775D01*
X-17800219Y-40360404D02*
X-15952460Y-41125771D01*
D10*
X-14994159Y-43254540D02*
X-19983108Y-41188049D01*
X-19983108Y-41188049D02*
X-17916617Y-36199100D01*
X-17916617Y-36199100D02*
X-12927668Y-38265591D01*
X-12927668Y-38265591D02*
X-14994159Y-43254540D01*
D13*
%TO.C,C1*%
X42683767Y-4010000D02*
X42391233Y-4010000D01*
X42683767Y-2990000D02*
X42391233Y-2990000D01*
D14*
%TO.C,D15*%
X32138004Y-30299526D02*
X32129518Y-30291041D01*
D15*
X30334881Y-28920668D02*
X28920668Y-30334881D01*
X31112699Y-30759145D02*
X30087394Y-29733841D01*
X31112699Y-30759145D02*
X31006633Y-30865211D01*
X31006633Y-30865211D02*
X30016683Y-29875262D01*
X30016683Y-29875262D02*
X29981328Y-29839907D01*
X29981328Y-29839907D02*
X30087394Y-29733841D01*
X30476303Y-31890516D02*
X31890516Y-30476303D01*
D10*
X34223969Y-30405592D02*
X30405592Y-34223969D01*
X30405592Y-34223969D02*
X26587215Y-30405592D01*
X26587215Y-30405592D02*
X30405592Y-26587215D01*
X30405592Y-26587215D02*
X34223969Y-30405592D01*
D14*
%TO.C,D4*%
X15694431Y41286770D02*
X15689838Y41275683D01*
D15*
X15110557Y39093236D02*
X16958316Y38327869D01*
X16511431Y40515401D02*
X15956540Y39175775D01*
X16511431Y40515401D02*
X16650013Y40457998D01*
X16650013Y40457998D02*
X16114256Y39164567D01*
X16114256Y39164567D02*
X16095122Y39118373D01*
X16095122Y39118373D02*
X15956540Y39175775D01*
X17800219Y40360404D02*
X15952460Y41125771D01*
D10*
X14994159Y43254540D02*
X19983108Y41188049D01*
X19983108Y41188049D02*
X17916617Y36199100D01*
X17916617Y36199100D02*
X12927668Y38265591D01*
X12927668Y38265591D02*
X14994159Y43254540D01*
D13*
%TO.C,C5*%
X3910000Y42746267D02*
X3910000Y42453733D01*
X2890000Y42746267D02*
X2890000Y42453733D01*
%TO.C,C16*%
X38002465Y-19927153D02*
X37732198Y-19815205D01*
X38392802Y-18984795D02*
X38122535Y-18872847D01*
D14*
%TO.C,D7*%
X-32138004Y30299526D02*
X-32129518Y30291041D01*
D15*
X-30334881Y28920668D02*
X-28920668Y30334881D01*
X-31112699Y30759145D02*
X-30087394Y29733841D01*
X-31112699Y30759145D02*
X-31006633Y30865211D01*
X-31006633Y30865211D02*
X-30016683Y29875262D01*
X-30016683Y29875262D02*
X-29981328Y29839907D01*
X-29981328Y29839907D02*
X-30087394Y29733841D01*
X-30476303Y31890516D02*
X-31890516Y30476303D01*
D10*
X-34223969Y30405592D02*
X-30405592Y34223969D01*
X-30405592Y34223969D02*
X-26587215Y30405592D01*
X-26587215Y30405592D02*
X-30405592Y26587215D01*
X-30405592Y26587215D02*
X-34223969Y30405592D01*
D13*
%TO.C,C11*%
X-33073931Y-27352682D02*
X-32867078Y-27145829D01*
X-32352682Y-28073931D02*
X-32145829Y-27867078D01*
D14*
%TO.C,D9*%
X-44150000Y-1300000D02*
X-44138000Y-1300000D01*
D15*
X-41900000Y-1000000D02*
X-41900000Y1000000D01*
X-43750000Y-250000D02*
X-42300000Y-250000D01*
X-43750000Y-250000D02*
X-43750000Y-100000D01*
X-43750000Y-100000D02*
X-42350000Y-100000D01*
X-42350000Y-100000D02*
X-42300000Y-100000D01*
X-42300000Y-100000D02*
X-42300000Y-250000D01*
X-44100000Y1000000D02*
X-44100000Y-1000000D01*
D10*
X-45700000Y-2700000D02*
X-40300000Y-2700000D01*
X-40300000Y-2700000D02*
X-40300000Y2700000D01*
X-40300000Y2700000D02*
X-45700000Y2700000D01*
X-45700000Y2700000D02*
X-45700000Y-2700000D01*
D13*
%TO.C,C12*%
X-19989653Y-37939965D02*
X-19877705Y-37669698D01*
X-19047295Y-38330302D02*
X-18935347Y-38060035D01*
%TO.C,C8*%
X-38002465Y19927153D02*
X-37732198Y19815205D01*
X-38392802Y18984795D02*
X-38122535Y18872847D01*
D14*
%TO.C,D11*%
X-30299526Y-32138004D02*
X-30291041Y-32129518D01*
D15*
X-28920668Y-30334881D02*
X-30334881Y-28920668D01*
X-30759145Y-31112699D02*
X-29733841Y-30087394D01*
X-30759145Y-31112699D02*
X-30865211Y-31006633D01*
X-30865211Y-31006633D02*
X-29875262Y-30016683D01*
X-29875262Y-30016683D02*
X-29839907Y-29981328D01*
X-29839907Y-29981328D02*
X-29733841Y-30087394D01*
X-31890516Y-30476303D02*
X-30476303Y-31890516D01*
D10*
X-30405592Y-34223969D02*
X-34223969Y-30405592D01*
X-34223969Y-30405592D02*
X-30405592Y-26587215D01*
X-30405592Y-26587215D02*
X-26587215Y-30405592D01*
X-26587215Y-30405592D02*
X-30405592Y-34223969D01*
D14*
%TO.C,D5*%
X-1300000Y44150000D02*
X-1300000Y44138000D01*
D15*
X-1000000Y41900000D02*
X1000000Y41900000D01*
X-250000Y43750000D02*
X-250000Y42300000D01*
X-250000Y43750000D02*
X-100000Y43750000D01*
X-100000Y43750000D02*
X-100000Y42350000D01*
X-100000Y42350000D02*
X-100000Y42300000D01*
X-100000Y42300000D02*
X-250000Y42300000D01*
X1000000Y44100000D02*
X-1000000Y44100000D01*
D10*
X-2700000Y45700000D02*
X2700000Y45700000D01*
X2700000Y45700000D02*
X2700000Y40300000D01*
X2700000Y40300000D02*
X-2700000Y40300000D01*
X-2700000Y40300000D02*
X-2700000Y45700000D01*
D14*
%TO.C,D8*%
X-41286770Y15694431D02*
X-41275683Y15689838D01*
D15*
X-39093236Y15110557D02*
X-38327869Y16958316D01*
X-40515401Y16511431D02*
X-39175775Y15956540D01*
X-40515401Y16511431D02*
X-40457998Y16650013D01*
X-40457998Y16650013D02*
X-39164567Y16114256D01*
X-39164567Y16114256D02*
X-39118373Y16095122D01*
X-39118373Y16095122D02*
X-39175775Y15956540D01*
X-40360404Y17800219D02*
X-41125771Y15952460D01*
D10*
X-43254540Y14994159D02*
X-41188049Y19983108D01*
X-41188049Y19983108D02*
X-36199100Y17916617D01*
X-36199100Y17916617D02*
X-38265591Y12927668D01*
X-38265591Y12927668D02*
X-43254540Y14994159D01*
D13*
%TO.C,C7*%
X-27542802Y33064051D02*
X-27335949Y32857198D01*
X-28264051Y32342802D02*
X-28057198Y32135949D01*
%TO.C,C13*%
X-3910000Y-42683767D02*
X-3910000Y-42391233D01*
X-2890000Y-42683767D02*
X-2890000Y-42391233D01*
%TD*%
%LPC*%
D16*
%TO.C,C6*%
X-13592564Y41396846D03*
X-12932436Y39803154D03*
%TD*%
D17*
%TO.C,C4*%
X19800000Y39000000D03*
X19139872Y37406308D03*
%TD*%
D18*
%TO.C,C15*%
X28472380Y-33009880D03*
X27252620Y-31790120D03*
%TD*%
D19*
%TO.C,D16*%
X40585109Y-15820514D03*
X39568842Y-15399562D03*
X38868531Y-17090262D03*
X39884798Y-17511214D03*
%TD*%
D20*
%TO.C,D14*%
X17511214Y-39884798D03*
X17090262Y-38868531D03*
X15399562Y-39568842D03*
X15820514Y-40585109D03*
%TD*%
D21*
%TO.C,D1*%
X43550000Y915000D03*
X42450000Y915000D03*
X42450000Y-915000D03*
X43550000Y-915000D03*
%TD*%
D22*
%TO.C,C2*%
X41400000Y13500000D03*
X39806308Y12839872D03*
%TD*%
D23*
%TO.C,D2*%
X39884798Y17511214D03*
X38868531Y17090262D03*
X39568842Y15399562D03*
X40585109Y15820514D03*
%TD*%
D24*
%TO.C,D6*%
X-17511214Y39884798D03*
X-17090262Y38868531D03*
X-15399562Y39568842D03*
X-15820514Y40585109D03*
%TD*%
D25*
%TO.C,C3*%
X33200000Y28400000D03*
X31980240Y27180240D03*
%TD*%
D26*
%TO.C,D13*%
X915000Y-43550000D03*
X915000Y-42450000D03*
X-915000Y-42450000D03*
X-915000Y-43550000D03*
%TD*%
D27*
%TO.C,D3*%
X30147498Y31441503D03*
X29369681Y30663686D03*
X30663686Y29369681D03*
X31441503Y30147498D03*
%TD*%
D28*
%TO.C,C14*%
X13592564Y-41396846D03*
X12932436Y-39803154D03*
%TD*%
D29*
%TO.C,C10*%
X-41459346Y-13530064D03*
X-39865654Y-12869936D03*
%TD*%
D30*
%TO.C,D10*%
X-39884798Y-17511214D03*
X-38868531Y-17090262D03*
X-39568842Y-15399562D03*
X-40585109Y-15820514D03*
%TD*%
D31*
%TO.C,C9*%
X-43525000Y3400000D03*
X-41800000Y3400000D03*
%TD*%
D32*
%TO.C,D12*%
X-15820514Y-40585109D03*
X-15399562Y-39568842D03*
X-17090262Y-38868531D03*
X-17511214Y-39884798D03*
%TD*%
D33*
%TO.C,C1*%
X43400000Y-3500000D03*
X41675000Y-3500000D03*
%TD*%
D34*
%TO.C,D15*%
X31441503Y-30147498D03*
X30663686Y-29369681D03*
X29369681Y-30663686D03*
X30147498Y-31441503D03*
%TD*%
D35*
%TO.C,D4*%
X15820514Y40585109D03*
X15399562Y39568842D03*
X17090262Y38868531D03*
X17511214Y39884798D03*
%TD*%
D36*
%TO.C,C5*%
X3400000Y43462500D03*
X3400000Y41737500D03*
%TD*%
D37*
%TO.C,C16*%
X38859346Y-19730064D03*
X37265654Y-19069936D03*
%TD*%
D38*
%TO.C,D7*%
X-31441503Y30147498D03*
X-30663686Y29369681D03*
X-29369681Y30663686D03*
X-30147498Y31441503D03*
%TD*%
D39*
%TO.C,C11*%
X-33219760Y-28219760D03*
X-32000000Y-27000000D03*
%TD*%
D21*
%TO.C,D9*%
X-43550000Y-915000D03*
X-42450000Y-915000D03*
X-42450000Y915000D03*
X-43550000Y915000D03*
%TD*%
D40*
%TO.C,C12*%
X-19792564Y-38796846D03*
X-19132436Y-37203154D03*
%TD*%
D41*
%TO.C,C8*%
X-38859346Y19730064D03*
X-37265654Y19069936D03*
%TD*%
D42*
%TO.C,D11*%
X-30147498Y-31441503D03*
X-29369681Y-30663686D03*
X-30663686Y-29369681D03*
X-31441503Y-30147498D03*
%TD*%
D26*
%TO.C,D5*%
X-915000Y43550000D03*
X-915000Y42450000D03*
X915000Y42450000D03*
X915000Y43550000D03*
%TD*%
D43*
%TO.C,D8*%
X-40585109Y15820514D03*
X-39568842Y15399562D03*
X-38868531Y17090262D03*
X-39884798Y17511214D03*
%TD*%
D44*
%TO.C,C7*%
X-28409880Y33209880D03*
X-27190120Y31990120D03*
%TD*%
D45*
%TO.C,C13*%
X-3400000Y-43400000D03*
X-3400000Y-41675000D03*
%TD*%
D46*
%TO.C,J2*%
X41361849Y-10266566D03*
D47*
X41752029Y-8304995D03*
X42142210Y-6343425D03*
%TD*%
D48*
%TO.C,J1*%
X42142210Y6343425D03*
D49*
X41752029Y8304995D03*
X41361849Y10266566D03*
%TD*%
M02*
