%TF.GenerationSoftware,KiCad,Pcbnew,7.0.1*%
%TF.CreationDate,2024-02-10T23:33:58+09:00*%
%TF.ProjectId,LED_lighting_large,4c45445f-6c69-4676-9874-696e675f6c61,rev?*%
%TF.SameCoordinates,Original*%
%TF.FileFunction,Copper,L2,Bot*%
%TF.FilePolarity,Positive*%
%FSLAX46Y46*%
G04 Gerber Fmt 4.6, Leading zero omitted, Abs format (unit mm)*
G04 Created by KiCad (PCBNEW 7.0.1) date 2024-02-10 23:33:58*
%MOMM*%
%LPD*%
G01*
G04 APERTURE LIST*
G04 Aperture macros list*
%AMRoundRect*
0 Rectangle with rounded corners*
0 $1 Rounding radius*
0 $2 $3 $4 $5 $6 $7 $8 $9 X,Y pos of 4 corners*
0 Add a 4 corners polygon primitive as box body*
4,1,4,$2,$3,$4,$5,$6,$7,$8,$9,$2,$3,0*
0 Add four circle primitives for the rounded corners*
1,1,$1+$1,$2,$3*
1,1,$1+$1,$4,$5*
1,1,$1+$1,$6,$7*
1,1,$1+$1,$8,$9*
0 Add four rect primitives between the rounded corners*
20,1,$1+$1,$2,$3,$4,$5,0*
20,1,$1+$1,$4,$5,$6,$7,0*
20,1,$1+$1,$6,$7,$8,$9,0*
20,1,$1+$1,$8,$9,$2,$3,0*%
%AMHorizOval*
0 Thick line with rounded ends*
0 $1 width*
0 $2 $3 position (X,Y) of the first rounded end (center of the circle)*
0 $4 $5 position (X,Y) of the second rounded end (center of the circle)*
0 Add line between two ends*
20,1,$1,$2,$3,$4,$5,0*
0 Add two circle primitives to create the rounded ends*
1,1,$1,$2,$3*
1,1,$1,$4,$5*%
G04 Aperture macros list end*
%TA.AperFunction,ComponentPad*%
%ADD10RoundRect,0.250000X0.544709X-0.465206X0.681272X0.221343X-0.544709X0.465206X-0.681272X-0.221343X0*%
%TD*%
%TA.AperFunction,ComponentPad*%
%ADD11HorizOval,1.200000X-0.269716X0.053650X0.269716X-0.053650X0*%
%TD*%
%TA.AperFunction,ComponentPad*%
%ADD12RoundRect,0.250000X0.681272X-0.221343X0.544709X0.465206X-0.681272X0.221343X-0.544709X-0.465206X0*%
%TD*%
%TA.AperFunction,ComponentPad*%
%ADD13HorizOval,1.200000X0.269716X0.053650X-0.269716X-0.053650X0*%
%TD*%
%TA.AperFunction,ViaPad*%
%ADD14C,0.600000*%
%TD*%
%TA.AperFunction,Conductor*%
%ADD15C,0.500000*%
%TD*%
G04 APERTURE END LIST*
D10*
%TO.P,J2,1,Pin_1*%
%TO.N,GND*%
X41361849Y-10266566D03*
D11*
%TO.P,J2,2,Pin_2*%
%TO.N,VDD*%
X41752029Y-8304995D03*
%TO.P,J2,3,Pin_3*%
%TO.N,DOUT*%
X42142210Y-6343425D03*
%TD*%
D12*
%TO.P,J1,1,Pin_1*%
%TO.N,GND*%
X42142210Y6343425D03*
D13*
%TO.P,J1,2,Pin_2*%
%TO.N,VDD*%
X41752029Y8304995D03*
%TO.P,J1,3,Pin_3*%
%TO.N,DIN*%
X41361849Y10266566D03*
%TD*%
D14*
%TO.N,GND*%
X-15100000Y-35300000D03*
X43100000Y5000000D03*
X18700000Y36400000D03*
X40100000Y-8900000D03*
X34900000Y25900000D03*
X38700000Y-11500000D03*
X-37700000Y18100000D03*
X6300000Y37300000D03*
X-23400000Y32400000D03*
X-43100000Y4800000D03*
X-27900000Y-30900000D03*
X-39200000Y-7500000D03*
X-29400000Y-28800000D03*
X35500000Y-14600000D03*
X-34900000Y-25900000D03*
X25900000Y-34900000D03*
X32900000Y-22600000D03*
X-1900000Y41300000D03*
X30900000Y21800000D03*
X-11700000Y39100000D03*
X42300000Y-2300000D03*
X31800000Y25700000D03*
X4100000Y40500000D03*
X27900000Y30800000D03*
X5100000Y39600000D03*
X-18100000Y-37700000D03*
X-41100000Y13900000D03*
X39400000Y13900000D03*
X38000000Y-16000000D03*
X38800000Y12500000D03*
X-21000000Y-38000000D03*
X-7500000Y39200000D03*
X-39600000Y12300000D03*
X41700000Y11900000D03*
X37300000Y6400000D03*
X37900000Y-18000000D03*
X32900000Y-28400000D03*
X-39200000Y-11500000D03*
X-31900000Y20400000D03*
X-13900000Y39400000D03*
X-22200000Y-33100000D03*
X26800000Y27500000D03*
X-15900000Y-38100000D03*
X-40600000Y4400000D03*
X14000000Y-39500000D03*
X-4400000Y-40600000D03*
X-41700000Y-12200000D03*
X18100000Y37800000D03*
X-8400000Y36900000D03*
X22500000Y33200000D03*
X20600000Y31700000D03*
X25700000Y-31800000D03*
X35900000Y-19500000D03*
X27400000Y-33800000D03*
X43200000Y3600000D03*
X-28100000Y-33100000D03*
X15100000Y-35300000D03*
X-32800000Y22600000D03*
X-25700000Y31800000D03*
X-12300000Y41700000D03*
X0Y41300000D03*
X15700000Y-38200000D03*
X-34000000Y-27100000D03*
X29300000Y29100000D03*
X12200000Y-41600000D03*
X38400000Y0D03*
X-43300000Y-3400000D03*
X23300000Y-32300000D03*
X-15000000Y35300000D03*
X27300000Y-27100000D03*
X-38100000Y16000000D03*
X3300000Y-43300000D03*
X32400000Y23400000D03*
X12400000Y39600000D03*
X-35400000Y-14900000D03*
X28300000Y33000000D03*
X8200000Y-36900000D03*
X-28800000Y29500000D03*
X-41200000Y500000D03*
X-4700000Y-43000000D03*
X38100000Y-20900000D03*
X-37000000Y-7800000D03*
X-35400000Y14900000D03*
X31500000Y-20900000D03*
X38700000Y-9600000D03*
X-39500000Y5600000D03*
X36500000Y-10200000D03*
X-14000000Y-41100000D03*
X41500000Y2100000D03*
X-32400000Y-23400000D03*
X30600000Y-27900000D03*
X-25900000Y35000000D03*
X20900000Y38100000D03*
X-38400000Y-200000D03*
X43100000Y-4900000D03*
X38200000Y15700000D03*
X-39500000Y-13900000D03*
X-3500000Y43200000D03*
X28800000Y-29500000D03*
X-38100000Y20900000D03*
X13800000Y41100000D03*
X-400000Y-41200000D03*
X11600000Y-39100000D03*
X-37300000Y6200000D03*
X-35800000Y19600000D03*
X21100000Y-31400000D03*
X-21200000Y31400000D03*
X-200000Y38400000D03*
X-31800000Y-25500000D03*
X33800000Y27200000D03*
X-41400000Y-2000000D03*
X-38200000Y-15700000D03*
X15800000Y38300000D03*
X7500000Y-39100000D03*
X-15700000Y38200000D03*
X-20200000Y-32000000D03*
X-30600000Y27900000D03*
X4800000Y43100000D03*
X-19500000Y-35800000D03*
X41100000Y-13900000D03*
X41800000Y-11900000D03*
X-27300000Y27000000D03*
X40700000Y-7300000D03*
X-27200000Y33900000D03*
X2000000Y-41400000D03*
X14400000Y35500000D03*
X-32900000Y28400000D03*
X40600000Y6000000D03*
X-31000000Y-21700000D03*
X-27000000Y-27300000D03*
X-12200000Y-39400000D03*
X42000000Y4800000D03*
X-6700000Y-37200000D03*
X-5600000Y-39400000D03*
X35400000Y14900000D03*
%TO.N,DIN*%
X41500000Y-1000000D03*
%TD*%
D15*
%TO.N,DIN*%
X39600000Y900000D02*
X41500000Y-1000000D01*
X41361849Y10266566D02*
X40366566Y10266566D01*
X40366566Y10266566D02*
X39600000Y9500000D01*
X39600000Y9500000D02*
X39600000Y900000D01*
%TD*%
%TA.AperFunction,Conductor*%
%TO.N,GND*%
G36*
X684409Y46494436D02*
G01*
X2045427Y46454464D01*
X2049064Y46454303D01*
X3408260Y46374397D01*
X3411891Y46374130D01*
X4768165Y46254357D01*
X4771786Y46253984D01*
X6124001Y46094442D01*
X6127610Y46093962D01*
X7474503Y45894801D01*
X7478097Y45894216D01*
X8818623Y45655589D01*
X8822197Y45654898D01*
X10155083Y45377034D01*
X10158636Y45376239D01*
X11482818Y45059359D01*
X11486345Y45058460D01*
X12800656Y44702843D01*
X12804156Y44701841D01*
X14107469Y44307790D01*
X14110938Y44306685D01*
X15402099Y43874552D01*
X15405534Y43873346D01*
X16683442Y43403498D01*
X16686841Y43402192D01*
X17950463Y42895009D01*
X17953821Y42893603D01*
X19201948Y42349571D01*
X19205243Y42348077D01*
X19447270Y42234015D01*
X20436922Y41767610D01*
X20440192Y41766009D01*
X21654249Y41149660D01*
X21657470Y41147965D01*
X22852937Y40496225D01*
X22856108Y40494435D01*
X24031898Y39807899D01*
X24035014Y39806018D01*
X25190158Y39085251D01*
X25193218Y39083279D01*
X26326727Y38328899D01*
X26329728Y38326837D01*
X27440557Y37539536D01*
X27443496Y37537388D01*
X28530766Y36717793D01*
X28533641Y36715559D01*
X29596388Y35864394D01*
X29599196Y35862076D01*
X30636470Y34980104D01*
X30639208Y34977706D01*
X31650159Y34065647D01*
X31652826Y34063169D01*
X32636581Y33121814D01*
X32639174Y33119258D01*
X33594835Y32149464D01*
X33597352Y32146834D01*
X34524148Y31149384D01*
X34526587Y31146681D01*
X35423722Y30122431D01*
X35426080Y30119657D01*
X36292721Y29069559D01*
X36294997Y29066718D01*
X37130458Y27991607D01*
X37132650Y27988700D01*
X37936211Y26889493D01*
X37938316Y26886522D01*
X38709224Y25764256D01*
X38711241Y25761226D01*
X39448901Y24616767D01*
X39450828Y24613678D01*
X40154550Y23448093D01*
X40156386Y23444949D01*
X40825605Y22259175D01*
X40827347Y22255979D01*
X41461462Y21051085D01*
X41463110Y21047838D01*
X42061570Y19824864D01*
X42063122Y19821571D01*
X42625425Y18581552D01*
X42626880Y18578215D01*
X43152551Y17322191D01*
X43153907Y17318812D01*
X43642460Y16047947D01*
X43643717Y16044530D01*
X44094772Y14759811D01*
X44095927Y14756359D01*
X44509057Y13459004D01*
X44510111Y13455519D01*
X44884993Y12146539D01*
X44885943Y12143025D01*
X45222216Y10823685D01*
X45223064Y10820144D01*
X45520475Y9491437D01*
X45521218Y9487873D01*
X45779490Y8151025D01*
X45780128Y8147441D01*
X45999047Y6803572D01*
X45999579Y6799971D01*
X46178947Y5450299D01*
X46179374Y5446683D01*
X46319049Y4092280D01*
X46319369Y4088654D01*
X46419218Y2730771D01*
X46419432Y2727136D01*
X46479378Y1366883D01*
X46479485Y1363244D01*
X46499473Y1820D01*
X46499473Y-1820D01*
X46479485Y-1363244D01*
X46479378Y-1366883D01*
X46419432Y-2727136D01*
X46419218Y-2730771D01*
X46319369Y-4088654D01*
X46319049Y-4092280D01*
X46179374Y-5446683D01*
X46178947Y-5450299D01*
X45999579Y-6799971D01*
X45999047Y-6803572D01*
X45780128Y-8147441D01*
X45779490Y-8151025D01*
X45521218Y-9487873D01*
X45520475Y-9491437D01*
X45223064Y-10820144D01*
X45222216Y-10823685D01*
X44885943Y-12143025D01*
X44884993Y-12146539D01*
X44510111Y-13455519D01*
X44509057Y-13459004D01*
X44095927Y-14756359D01*
X44094772Y-14759811D01*
X43643717Y-16044530D01*
X43642460Y-16047947D01*
X43153907Y-17318812D01*
X43152551Y-17322191D01*
X42626880Y-18578215D01*
X42625425Y-18581552D01*
X42063122Y-19821571D01*
X42061570Y-19824864D01*
X41463110Y-21047838D01*
X41461462Y-21051085D01*
X40827347Y-22255979D01*
X40825605Y-22259175D01*
X40156386Y-23444949D01*
X40154550Y-23448093D01*
X39450828Y-24613678D01*
X39448901Y-24616767D01*
X38711241Y-25761226D01*
X38709224Y-25764256D01*
X37938316Y-26886522D01*
X37936211Y-26889493D01*
X37132650Y-27988700D01*
X37130458Y-27991607D01*
X36294997Y-29066718D01*
X36292721Y-29069559D01*
X35426080Y-30119657D01*
X35423722Y-30122431D01*
X34526587Y-31146681D01*
X34524148Y-31149384D01*
X33597352Y-32146834D01*
X33594835Y-32149464D01*
X32639174Y-33119258D01*
X32636581Y-33121814D01*
X31652826Y-34063169D01*
X31650159Y-34065647D01*
X30639208Y-34977706D01*
X30636470Y-34980104D01*
X29599196Y-35862076D01*
X29596388Y-35864394D01*
X28533641Y-36715559D01*
X28530766Y-36717793D01*
X27443496Y-37537388D01*
X27440557Y-37539536D01*
X26329728Y-38326837D01*
X26326727Y-38328899D01*
X25193218Y-39083279D01*
X25190158Y-39085251D01*
X24035014Y-39806018D01*
X24031898Y-39807899D01*
X22856108Y-40494435D01*
X22852937Y-40496225D01*
X21657470Y-41147965D01*
X21654249Y-41149660D01*
X20440192Y-41766009D01*
X20436922Y-41767610D01*
X19738780Y-42096631D01*
X19205243Y-42348077D01*
X19201948Y-42349571D01*
X17953821Y-42893603D01*
X17950463Y-42895009D01*
X16686841Y-43402192D01*
X16683442Y-43403498D01*
X15405534Y-43873346D01*
X15402099Y-43874552D01*
X14110938Y-44306685D01*
X14107469Y-44307790D01*
X12804156Y-44701841D01*
X12800656Y-44702843D01*
X11486345Y-45058460D01*
X11482818Y-45059359D01*
X10158636Y-45376239D01*
X10155083Y-45377034D01*
X8822197Y-45654898D01*
X8818623Y-45655589D01*
X7478097Y-45894216D01*
X7474503Y-45894801D01*
X6127610Y-46093962D01*
X6124001Y-46094442D01*
X4771786Y-46253984D01*
X4768165Y-46254357D01*
X3411891Y-46374130D01*
X3408260Y-46374397D01*
X2049064Y-46454303D01*
X2045427Y-46454464D01*
X684409Y-46494436D01*
X680769Y-46494489D01*
X-680769Y-46494489D01*
X-684409Y-46494436D01*
X-2045427Y-46454464D01*
X-2049064Y-46454303D01*
X-3408260Y-46374397D01*
X-3411891Y-46374130D01*
X-4768165Y-46254357D01*
X-4771786Y-46253984D01*
X-6124001Y-46094442D01*
X-6127610Y-46093962D01*
X-7474503Y-45894801D01*
X-7478097Y-45894216D01*
X-8818623Y-45655589D01*
X-8822197Y-45654898D01*
X-10155083Y-45377034D01*
X-10158636Y-45376239D01*
X-11482818Y-45059359D01*
X-11486345Y-45058460D01*
X-12800656Y-44702843D01*
X-12804156Y-44701841D01*
X-14107469Y-44307790D01*
X-14110938Y-44306685D01*
X-15402099Y-43874552D01*
X-15405534Y-43873346D01*
X-16683442Y-43403498D01*
X-16686841Y-43402192D01*
X-17950463Y-42895009D01*
X-17953821Y-42893603D01*
X-19201948Y-42349571D01*
X-19205243Y-42348077D01*
X-19738780Y-42096631D01*
X-20436922Y-41767610D01*
X-20440192Y-41766009D01*
X-21654249Y-41149660D01*
X-21657470Y-41147965D01*
X-22852937Y-40496225D01*
X-22856108Y-40494435D01*
X-24031898Y-39807899D01*
X-24035014Y-39806018D01*
X-25190158Y-39085251D01*
X-25193218Y-39083279D01*
X-26326727Y-38328899D01*
X-26329728Y-38326837D01*
X-27440557Y-37539536D01*
X-27443496Y-37537388D01*
X-28530766Y-36717793D01*
X-28533641Y-36715559D01*
X-29596388Y-35864394D01*
X-29599196Y-35862076D01*
X-30636470Y-34980104D01*
X-30639208Y-34977706D01*
X-31650159Y-34065647D01*
X-31652826Y-34063169D01*
X-32636581Y-33121814D01*
X-32639174Y-33119258D01*
X-33594835Y-32149464D01*
X-33597352Y-32146834D01*
X-34524148Y-31149384D01*
X-34526587Y-31146681D01*
X-35423722Y-30122431D01*
X-35426080Y-30119657D01*
X-36292721Y-29069559D01*
X-36294997Y-29066718D01*
X-37130458Y-27991607D01*
X-37132650Y-27988700D01*
X-37936211Y-26889493D01*
X-37938316Y-26886522D01*
X-38709224Y-25764256D01*
X-38711241Y-25761226D01*
X-39448901Y-24616767D01*
X-39450828Y-24613678D01*
X-40154550Y-23448093D01*
X-40156386Y-23444949D01*
X-40219031Y-23333950D01*
X-37126946Y-23333950D01*
X-37108080Y-23621789D01*
X-37051805Y-23904703D01*
X-36959083Y-24177852D01*
X-36831502Y-24436561D01*
X-36671244Y-24676404D01*
X-36481051Y-24893277D01*
X-36264178Y-25083470D01*
X-36024335Y-25243728D01*
X-35765626Y-25371309D01*
X-35492477Y-25464031D01*
X-35278834Y-25506527D01*
X-35209569Y-25520305D01*
X-35209567Y-25520305D01*
X-35209563Y-25520306D01*
X-34921724Y-25539172D01*
X-34633885Y-25520306D01*
X-34633880Y-25520305D01*
X-34633878Y-25520305D01*
X-34493399Y-25492361D01*
X-34350971Y-25464031D01*
X-34168871Y-25402216D01*
X-34077821Y-25371309D01*
X-33819113Y-25243728D01*
X-33579270Y-25083470D01*
X-33579269Y-25083469D01*
X-33362397Y-24893277D01*
X-33172204Y-24676404D01*
X-33132356Y-24616767D01*
X-33011945Y-24436560D01*
X-32884364Y-24177852D01*
X-32791642Y-23904700D01*
X-32735368Y-23621795D01*
X-32716502Y-23333949D01*
X-32735368Y-23046104D01*
X-32791642Y-22763199D01*
X-32884364Y-22490047D01*
X-33011945Y-22231339D01*
X-33172203Y-21991496D01*
X-33362397Y-21774623D01*
X-33579270Y-21584429D01*
X-33819113Y-21424171D01*
X-34077821Y-21296590D01*
X-34350973Y-21203868D01*
X-34633878Y-21147594D01*
X-34921724Y-21128728D01*
X-35209569Y-21147594D01*
X-35492474Y-21203868D01*
X-35765626Y-21296590D01*
X-36024334Y-21424171D01*
X-36068779Y-21453868D01*
X-36264178Y-21584430D01*
X-36481051Y-21774623D01*
X-36543760Y-21846129D01*
X-36671244Y-21991496D01*
X-36831502Y-22231339D01*
X-36923778Y-22418457D01*
X-36959083Y-22490048D01*
X-37051805Y-22763197D01*
X-37108080Y-23046111D01*
X-37126946Y-23333950D01*
X-40219031Y-23333950D01*
X-40825605Y-22259175D01*
X-40827347Y-22255979D01*
X-41461462Y-21051085D01*
X-41463110Y-21047838D01*
X-42061570Y-19824864D01*
X-42063122Y-19821571D01*
X-42625425Y-18581552D01*
X-42626880Y-18578215D01*
X-43152551Y-17322191D01*
X-43153907Y-17318812D01*
X-43642460Y-16047947D01*
X-43643717Y-16044530D01*
X-44094772Y-14759811D01*
X-44095927Y-14756359D01*
X-44509057Y-13459004D01*
X-44510111Y-13455519D01*
X-44884993Y-12146539D01*
X-44885943Y-12143025D01*
X-45222216Y-10823685D01*
X-45223064Y-10820144D01*
X-45520475Y-9491437D01*
X-45521218Y-9487873D01*
X-45779490Y-8151025D01*
X-45780128Y-8147441D01*
X-45999047Y-6803572D01*
X-45999579Y-6799971D01*
X-46178947Y-5450299D01*
X-46179374Y-5446683D01*
X-46319049Y-4092280D01*
X-46319369Y-4088654D01*
X-46419218Y-2730771D01*
X-46419432Y-2727136D01*
X-46479378Y-1366883D01*
X-46479485Y-1363244D01*
X-46499473Y-1820D01*
X-46499473Y0D01*
X-37505521Y0D01*
X-37485440Y-1227146D01*
X-37425219Y-2452978D01*
X-37324922Y-3676184D01*
X-37184656Y-4895453D01*
X-37004572Y-6109480D01*
X-36784863Y-7316964D01*
X-36525763Y-8516614D01*
X-36227551Y-9707143D01*
X-35890546Y-10887278D01*
X-35515108Y-12055755D01*
X-35101639Y-13211322D01*
X-34650583Y-14352742D01*
X-34162422Y-15478792D01*
X-33637679Y-16588268D01*
X-33076917Y-17679980D01*
X-32480734Y-18752761D01*
X-31849770Y-19805460D01*
X-31184701Y-20836951D01*
X-30486238Y-21846129D01*
X-29755130Y-22831915D01*
X-28992160Y-23793251D01*
X-28198144Y-24729108D01*
X-27373932Y-25638485D01*
X-26520408Y-26520408D01*
X-25638485Y-27373932D01*
X-24729108Y-28198144D01*
X-23793251Y-28992160D01*
X-22831915Y-29755130D01*
X-21846129Y-30486238D01*
X-20836951Y-31184701D01*
X-19805460Y-31849770D01*
X-18752761Y-32480734D01*
X-17679980Y-33076917D01*
X-16588268Y-33637679D01*
X-15478792Y-34162422D01*
X-14352742Y-34650583D01*
X-13298904Y-35067029D01*
X-13211309Y-35101644D01*
X-12818277Y-35242273D01*
X-12055755Y-35515108D01*
X-10887278Y-35890546D01*
X-9707143Y-36227551D01*
X-8516614Y-36525763D01*
X-7316964Y-36784863D01*
X-6109480Y-37004572D01*
X-4895453Y-37184656D01*
X-3676184Y-37324922D01*
X-2452978Y-37425219D01*
X-1227146Y-37485440D01*
X0Y-37505521D01*
X1227146Y-37485440D01*
X2452978Y-37425219D01*
X3676184Y-37324922D01*
X4895453Y-37184656D01*
X6109480Y-37004572D01*
X7316964Y-36784863D01*
X8516614Y-36525763D01*
X9707143Y-36227551D01*
X10887278Y-35890546D01*
X12055755Y-35515108D01*
X12818277Y-35242273D01*
X13211309Y-35101644D01*
X13298904Y-35067029D01*
X13666606Y-34921724D01*
X21128728Y-34921724D01*
X21147594Y-35209569D01*
X21203868Y-35492474D01*
X21296590Y-35765626D01*
X21424171Y-36024334D01*
X21578492Y-36255292D01*
X21584430Y-36264178D01*
X21774623Y-36481051D01*
X21825611Y-36525766D01*
X21991496Y-36671244D01*
X22231339Y-36831502D01*
X22490047Y-36959083D01*
X22581097Y-36989990D01*
X22763197Y-37051805D01*
X22905625Y-37080135D01*
X23046104Y-37108079D01*
X23046106Y-37108079D01*
X23046111Y-37108080D01*
X23333950Y-37126946D01*
X23621789Y-37108080D01*
X23621793Y-37108079D01*
X23621795Y-37108079D01*
X23691060Y-37094301D01*
X23904703Y-37051805D01*
X24177852Y-36959083D01*
X24436561Y-36831502D01*
X24676404Y-36671244D01*
X24893277Y-36481051D01*
X25083470Y-36264178D01*
X25243728Y-36024335D01*
X25371309Y-35765626D01*
X25464031Y-35492477D01*
X25520306Y-35209563D01*
X25539172Y-34921724D01*
X25520306Y-34633885D01*
X25464031Y-34350971D01*
X25371309Y-34077822D01*
X25364703Y-34064427D01*
X25243728Y-33819113D01*
X25083470Y-33579270D01*
X24948414Y-33425269D01*
X24893277Y-33362397D01*
X24676404Y-33172204D01*
X24600990Y-33121814D01*
X24436560Y-33011945D01*
X24177852Y-32884364D01*
X23904700Y-32791642D01*
X23621795Y-32735368D01*
X23333950Y-32716502D01*
X23046104Y-32735368D01*
X22763199Y-32791642D01*
X22490047Y-32884364D01*
X22231339Y-33011945D01*
X21991496Y-33172203D01*
X21774623Y-33362397D01*
X21584429Y-33579270D01*
X21424171Y-33819113D01*
X21296590Y-34077821D01*
X21203868Y-34350973D01*
X21147594Y-34633878D01*
X21128728Y-34921724D01*
X13666606Y-34921724D01*
X14352742Y-34650583D01*
X15478792Y-34162422D01*
X16588268Y-33637679D01*
X17679980Y-33076917D01*
X18752761Y-32480734D01*
X19805460Y-31849770D01*
X20836951Y-31184701D01*
X21846129Y-30486238D01*
X22831915Y-29755130D01*
X23793251Y-28992160D01*
X24729108Y-28198144D01*
X25638485Y-27373932D01*
X26520408Y-26520408D01*
X27373932Y-25638485D01*
X28198144Y-24729108D01*
X28992160Y-23793251D01*
X29755130Y-22831915D01*
X30486238Y-21846129D01*
X31184701Y-20836951D01*
X31849770Y-19805460D01*
X32480734Y-18752761D01*
X33076917Y-17679980D01*
X33637679Y-16588268D01*
X34162422Y-15478792D01*
X34650583Y-14352742D01*
X35101639Y-13211322D01*
X35515108Y-12055755D01*
X35727669Y-11394201D01*
X41392445Y-11394201D01*
X41392446Y-11394202D01*
X41809256Y-11477111D01*
X41912046Y-11486857D01*
X42086037Y-11465237D01*
X42250347Y-11404076D01*
X42396127Y-11306671D01*
X42515509Y-11178274D01*
X42602063Y-11025808D01*
X42632399Y-10927100D01*
X42661656Y-10780011D01*
X42661656Y-10780010D01*
X41558272Y-10560534D01*
X41558271Y-10560535D01*
X41392445Y-11394201D01*
X35727669Y-11394201D01*
X35890546Y-10887278D01*
X36003025Y-10493397D01*
X39925490Y-10493397D01*
X39947111Y-10667389D01*
X40008271Y-10831699D01*
X40105676Y-10977477D01*
X40234074Y-11096860D01*
X40386540Y-11183414D01*
X40485248Y-11213750D01*
X40902052Y-11296657D01*
X40902053Y-11296656D01*
X41067880Y-10462989D01*
X41067879Y-10462988D01*
X39964497Y-10243512D01*
X39964496Y-10243512D01*
X39935237Y-10390608D01*
X39925490Y-10493397D01*
X36003025Y-10493397D01*
X36214422Y-9753119D01*
X40062040Y-9753119D01*
X40062041Y-9753120D01*
X41545589Y-10048216D01*
X41545592Y-10048217D01*
X42759199Y-10289618D01*
X42759200Y-10289617D01*
X42788460Y-10142522D01*
X42798207Y-10039734D01*
X42776586Y-9865742D01*
X42715426Y-9701432D01*
X42618022Y-9555656D01*
X42563380Y-9504850D01*
X42530961Y-9455523D01*
X42525021Y-9396797D01*
X42546905Y-9341977D01*
X42591653Y-9303487D01*
X42613881Y-9292195D01*
X42779857Y-9163262D01*
X42918432Y-9005249D01*
X43024598Y-8823865D01*
X43094519Y-8625666D01*
X43125667Y-8417817D01*
X43125014Y-8402161D01*
X43116915Y-8207832D01*
X43116915Y-8207829D01*
X43068582Y-8003292D01*
X42982414Y-7811599D01*
X42861523Y-7639677D01*
X42826176Y-7605569D01*
X42794860Y-7556197D01*
X42789648Y-7497961D01*
X42811701Y-7443811D01*
X42856113Y-7405787D01*
X43004062Y-7330625D01*
X43170038Y-7201692D01*
X43308613Y-7043679D01*
X43414779Y-6862295D01*
X43484700Y-6664096D01*
X43515848Y-6456247D01*
X43515195Y-6440591D01*
X43507096Y-6246262D01*
X43507096Y-6246259D01*
X43458763Y-6041722D01*
X43372595Y-5850029D01*
X43251704Y-5678107D01*
X43100463Y-5532170D01*
X42924336Y-5417494D01*
X42924333Y-5417492D01*
X42924332Y-5417492D01*
X42729688Y-5338221D01*
X42035776Y-5200192D01*
X41879072Y-5184288D01*
X41669740Y-5203021D01*
X41467736Y-5261030D01*
X41280353Y-5356226D01*
X41114381Y-5485157D01*
X40975806Y-5643171D01*
X40869639Y-5824554D01*
X40799720Y-6022752D01*
X40768571Y-6230606D01*
X40777323Y-6440587D01*
X40825656Y-6645128D01*
X40885102Y-6777374D01*
X40911825Y-6836821D01*
X40929738Y-6862295D01*
X41032716Y-7008743D01*
X41068061Y-7042848D01*
X41099378Y-7092222D01*
X41104590Y-7150457D01*
X41082537Y-7204607D01*
X41038123Y-7242632D01*
X40890176Y-7317794D01*
X40724200Y-7446727D01*
X40585625Y-7604741D01*
X40479458Y-7786124D01*
X40409539Y-7984322D01*
X40378390Y-8192176D01*
X40387142Y-8402157D01*
X40435475Y-8606698D01*
X40494921Y-8738944D01*
X40521644Y-8798391D01*
X40539557Y-8823865D01*
X40603460Y-8914743D01*
X40624520Y-8966799D01*
X40620458Y-9022807D01*
X40592108Y-9071280D01*
X40545284Y-9102278D01*
X40473351Y-9129053D01*
X40327570Y-9226460D01*
X40208188Y-9354857D01*
X40121634Y-9507323D01*
X40091299Y-9606030D01*
X40062040Y-9753119D01*
X36214422Y-9753119D01*
X36227551Y-9707143D01*
X36525763Y-8516614D01*
X36784863Y-7316964D01*
X37004572Y-6109480D01*
X37184656Y-4895453D01*
X37324922Y-3676184D01*
X37425219Y-2452978D01*
X37485440Y-1227146D01*
X37505521Y0D01*
X37490434Y921976D01*
X38844711Y921976D01*
X38849028Y872631D01*
X38849500Y861824D01*
X38849500Y856291D01*
X38853098Y825501D01*
X38853464Y821917D01*
X38860109Y745961D01*
X38864330Y726921D01*
X38890421Y655232D01*
X38891603Y651831D01*
X38915579Y579479D01*
X38924077Y561925D01*
X38965970Y498228D01*
X38967905Y495190D01*
X39007943Y430281D01*
X39020256Y415164D01*
X39075708Y362848D01*
X39078294Y360336D01*
X40746693Y-1308061D01*
X40765726Y-1338352D01*
X40766778Y-1337692D01*
X40870185Y-1502264D01*
X40997735Y-1629814D01*
X40997737Y-1629815D01*
X40997738Y-1629816D01*
X41150478Y-1725789D01*
X41320745Y-1785368D01*
X41500000Y-1805565D01*
X41679255Y-1785368D01*
X41849522Y-1725789D01*
X42002262Y-1629816D01*
X42129816Y-1502262D01*
X42225789Y-1349522D01*
X42285368Y-1179255D01*
X42305565Y-1000000D01*
X42285368Y-820745D01*
X42225789Y-650478D01*
X42129816Y-497738D01*
X42129815Y-497737D01*
X42129814Y-497735D01*
X42002263Y-370184D01*
X41837693Y-266778D01*
X41838352Y-265728D01*
X41808058Y-246691D01*
X40386819Y1174549D01*
X40359939Y1214777D01*
X40350500Y1262230D01*
X40350500Y5829978D01*
X40842402Y5829978D01*
X40871662Y5682884D01*
X40901993Y5584187D01*
X40988551Y5431715D01*
X41107931Y5303319D01*
X41253711Y5205914D01*
X41418021Y5144753D01*
X41592012Y5123133D01*
X41694799Y5132878D01*
X42111611Y5215787D01*
X42111612Y5215788D01*
X41945786Y6049454D01*
X41945785Y6049455D01*
X40842403Y5829979D01*
X40842402Y5829978D01*
X40350500Y5829978D01*
X40350500Y6147000D01*
X42436177Y6147000D01*
X42602003Y5313334D01*
X42602004Y5313333D01*
X43018814Y5396242D01*
X43117513Y5426574D01*
X43269985Y5513132D01*
X43398382Y5632513D01*
X43495787Y5778291D01*
X43556947Y5942601D01*
X43578568Y6116593D01*
X43568822Y6219379D01*
X43539562Y6366476D01*
X43539561Y6366477D01*
X42436178Y6147001D01*
X42436177Y6147000D01*
X40350500Y6147000D01*
X40350500Y7555401D01*
X40365881Y7615216D01*
X40408207Y7660192D01*
X40466979Y7679173D01*
X40527617Y7667448D01*
X40575077Y7627928D01*
X40651150Y7522432D01*
X40804114Y7378309D01*
X40924229Y7302123D01*
X40963608Y7262088D01*
X40981289Y7208789D01*
X40973646Y7153156D01*
X40942247Y7106599D01*
X40886037Y7054336D01*
X40788632Y6908558D01*
X40727472Y6744248D01*
X40705851Y6570256D01*
X40715597Y6467467D01*
X40744856Y6320371D01*
X40744857Y6320371D01*
X41891750Y6548501D01*
X41891758Y6548505D01*
X43442016Y6856869D01*
X43442016Y6856870D01*
X43412758Y7003964D01*
X43382426Y7102662D01*
X43295868Y7255134D01*
X43176488Y7383530D01*
X43030708Y7480935D01*
X42960785Y7506963D01*
X42911957Y7540128D01*
X42883995Y7592110D01*
X42883234Y7651131D01*
X42909846Y7703817D01*
X42926063Y7722759D01*
X43030064Y7905394D01*
X43097621Y8104409D01*
X43126293Y8312615D01*
X43115043Y8522484D01*
X43064279Y8726431D01*
X42975835Y8917086D01*
X42852908Y9087556D01*
X42699941Y9231682D01*
X42522461Y9344254D01*
X42476753Y9362237D01*
X42428927Y9395867D01*
X42401826Y9447675D01*
X42401477Y9506143D01*
X42427959Y9558270D01*
X42535883Y9684330D01*
X42577439Y9757306D01*
X42639884Y9866965D01*
X42707441Y10065980D01*
X42736113Y10274186D01*
X42724863Y10484055D01*
X42674099Y10688002D01*
X42585655Y10878657D01*
X42462728Y11049127D01*
X42309761Y11193253D01*
X42132281Y11305825D01*
X41936704Y11382776D01*
X41730100Y11421322D01*
X41519933Y11420071D01*
X40826018Y11282042D01*
X40675159Y11236769D01*
X40488928Y11139354D01*
X40375590Y11049127D01*
X40365145Y11040812D01*
X40302310Y11014664D01*
X40292049Y11013464D01*
X40288495Y11013102D01*
X40213769Y11006565D01*
X40213767Y11006564D01*
X40212515Y11006455D01*
X40193496Y11002238D01*
X40192312Y11001807D01*
X40192311Y11001807D01*
X40121840Y10976158D01*
X40118434Y10974974D01*
X40046034Y10950983D01*
X40028502Y10942495D01*
X40027450Y10941803D01*
X40027449Y10941803D01*
X39964750Y10900565D01*
X39961747Y10898653D01*
X39896836Y10858616D01*
X39881738Y10846316D01*
X39829414Y10790856D01*
X39826901Y10788269D01*
X39114360Y10075728D01*
X39100727Y10063946D01*
X39081469Y10049609D01*
X39049631Y10011666D01*
X39042323Y10003691D01*
X39038409Y9999777D01*
X39019168Y9975442D01*
X39016890Y9972647D01*
X38967890Y9914251D01*
X38957422Y9897821D01*
X38925186Y9828691D01*
X38923615Y9825447D01*
X38889394Y9757306D01*
X38882997Y9738903D01*
X38867574Y9664211D01*
X38866794Y9660692D01*
X38849208Y9586490D01*
X38847229Y9567121D01*
X38849448Y9490869D01*
X38849500Y9487263D01*
X38849500Y963706D01*
X38848191Y945736D01*
X38844711Y921976D01*
X37490434Y921976D01*
X37485440Y1227146D01*
X37425219Y2452978D01*
X37324922Y3676184D01*
X37184656Y4895453D01*
X37004572Y6109480D01*
X36784863Y7316964D01*
X36525763Y8516614D01*
X36227551Y9707143D01*
X35890546Y10887278D01*
X35515108Y12055755D01*
X35101639Y13211322D01*
X34650583Y14352742D01*
X34162422Y15478792D01*
X33637679Y16588268D01*
X33076917Y17679980D01*
X32480734Y18752760D01*
X31849770Y19805460D01*
X31184701Y20836951D01*
X30486238Y21846129D01*
X29755130Y22831915D01*
X29356687Y23333950D01*
X32716502Y23333950D01*
X32729434Y23136633D01*
X32735368Y23046104D01*
X32791642Y22763199D01*
X32884364Y22490047D01*
X33011945Y22231339D01*
X33172203Y21991496D01*
X33362397Y21774623D01*
X33579270Y21584429D01*
X33819113Y21424171D01*
X34077821Y21296590D01*
X34350973Y21203868D01*
X34633878Y21147594D01*
X34921724Y21128728D01*
X35209569Y21147594D01*
X35492474Y21203868D01*
X35765626Y21296590D01*
X36024334Y21424171D01*
X36264177Y21584429D01*
X36290856Y21607826D01*
X36481051Y21774623D01*
X36671244Y21991496D01*
X36831502Y22231339D01*
X36843653Y22255979D01*
X36959083Y22490047D01*
X37031199Y22702495D01*
X37051805Y22763197D01*
X37108080Y23046111D01*
X37126946Y23333950D01*
X37108080Y23621789D01*
X37051805Y23904703D01*
X36959083Y24177852D01*
X36831502Y24436561D01*
X36671244Y24676404D01*
X36481051Y24893277D01*
X36264178Y25083470D01*
X36024335Y25243728D01*
X35765626Y25371309D01*
X35492477Y25464031D01*
X35278834Y25506527D01*
X35209569Y25520305D01*
X35209567Y25520305D01*
X35209563Y25520306D01*
X34921724Y25539172D01*
X34633885Y25520306D01*
X34633880Y25520305D01*
X34633878Y25520305D01*
X34493399Y25492361D01*
X34350971Y25464031D01*
X34168871Y25402216D01*
X34077821Y25371309D01*
X33819113Y25243728D01*
X33579270Y25083470D01*
X33362397Y24893277D01*
X33222631Y24733905D01*
X33172203Y24676403D01*
X33011945Y24436560D01*
X32884364Y24177852D01*
X32791642Y23904700D01*
X32735368Y23621795D01*
X32735368Y23621789D01*
X32716502Y23333950D01*
X29356687Y23333950D01*
X28992160Y23793251D01*
X28198144Y24729108D01*
X27373932Y25638485D01*
X26520408Y26520408D01*
X25638485Y27373932D01*
X24729108Y28198144D01*
X23793251Y28992160D01*
X22831915Y29755130D01*
X21846129Y30486238D01*
X20836951Y31184701D01*
X19805460Y31849770D01*
X18752761Y32480734D01*
X17679980Y33076917D01*
X16588268Y33637679D01*
X15478792Y34162422D01*
X14352742Y34650583D01*
X13211322Y35101639D01*
X13211318Y35101640D01*
X13211309Y35101644D01*
X12366637Y35403872D01*
X12055755Y35515108D01*
X10887278Y35890546D01*
X9707143Y36227551D01*
X8516614Y36525763D01*
X7316964Y36784863D01*
X6109480Y37004572D01*
X4895453Y37184656D01*
X3676184Y37324922D01*
X2452978Y37425219D01*
X1227146Y37485440D01*
X0Y37505521D01*
X-1227146Y37485440D01*
X-2452978Y37425219D01*
X-3676184Y37324922D01*
X-4895453Y37184656D01*
X-6109480Y37004572D01*
X-7316964Y36784863D01*
X-8516614Y36525763D01*
X-9707143Y36227551D01*
X-10887278Y35890546D01*
X-12055755Y35515108D01*
X-12366637Y35403872D01*
X-13211309Y35101644D01*
X-13211318Y35101640D01*
X-13211322Y35101639D01*
X-14352742Y34650583D01*
X-15478792Y34162422D01*
X-16588268Y33637679D01*
X-17679980Y33076917D01*
X-18752760Y32480734D01*
X-19805460Y31849770D01*
X-20836951Y31184701D01*
X-21846129Y30486238D01*
X-22831915Y29755130D01*
X-23793251Y28992160D01*
X-24729108Y28198144D01*
X-25638485Y27373932D01*
X-26520408Y26520408D01*
X-27373932Y25638485D01*
X-28198144Y24729108D01*
X-28992160Y23793251D01*
X-29755130Y22831915D01*
X-30486238Y21846129D01*
X-31184701Y20836951D01*
X-31849770Y19805460D01*
X-32480734Y18752760D01*
X-33076917Y17679980D01*
X-33637679Y16588268D01*
X-34162422Y15478792D01*
X-34650583Y14352742D01*
X-35101639Y13211322D01*
X-35515108Y12055755D01*
X-35890546Y10887278D01*
X-36227551Y9707143D01*
X-36525763Y8516614D01*
X-36784863Y7316964D01*
X-37004572Y6109480D01*
X-37184656Y4895453D01*
X-37324922Y3676184D01*
X-37425219Y2452978D01*
X-37485440Y1227146D01*
X-37505521Y0D01*
X-46499473Y0D01*
X-46499473Y1820D01*
X-46479485Y1363244D01*
X-46479378Y1366883D01*
X-46419432Y2727136D01*
X-46419218Y2730771D01*
X-46319369Y4088654D01*
X-46319049Y4092280D01*
X-46179374Y5446683D01*
X-46178947Y5450299D01*
X-45999579Y6799971D01*
X-45999047Y6803572D01*
X-45780128Y8147441D01*
X-45779490Y8151025D01*
X-45521218Y9487873D01*
X-45520475Y9491437D01*
X-45223064Y10820144D01*
X-45222216Y10823685D01*
X-44885943Y12143025D01*
X-44884993Y12146539D01*
X-44510111Y13455519D01*
X-44509057Y13459004D01*
X-44095927Y14756359D01*
X-44094772Y14759811D01*
X-43643717Y16044530D01*
X-43642460Y16047947D01*
X-43153907Y17318812D01*
X-43152551Y17322191D01*
X-42626880Y18578215D01*
X-42625425Y18581552D01*
X-42063122Y19821571D01*
X-42061570Y19824864D01*
X-41463110Y21047838D01*
X-41461462Y21051085D01*
X-40827347Y22255979D01*
X-40825605Y22259175D01*
X-40156386Y23444949D01*
X-40154550Y23448093D01*
X-39450828Y24613678D01*
X-39448901Y24616767D01*
X-38711241Y25761226D01*
X-38709224Y25764256D01*
X-37938316Y26886522D01*
X-37936211Y26889493D01*
X-37132650Y27988700D01*
X-37130458Y27991607D01*
X-36294997Y29066718D01*
X-36292721Y29069559D01*
X-35426080Y30119657D01*
X-35423722Y30122431D01*
X-34526587Y31146681D01*
X-34524148Y31149384D01*
X-33597352Y32146834D01*
X-33594835Y32149464D01*
X-32639174Y33119258D01*
X-32636581Y33121814D01*
X-31652826Y34063169D01*
X-31650159Y34065647D01*
X-30701260Y34921724D01*
X-25539172Y34921724D01*
X-25520306Y34633885D01*
X-25464031Y34350971D01*
X-25443425Y34290269D01*
X-25371309Y34077821D01*
X-25364083Y34063169D01*
X-25243728Y33819113D01*
X-25083470Y33579270D01*
X-24893277Y33362397D01*
X-24703082Y33195600D01*
X-24676403Y33172203D01*
X-24436560Y33011945D01*
X-24177852Y32884364D01*
X-23904700Y32791642D01*
X-23621795Y32735368D01*
X-23333950Y32716502D01*
X-23046104Y32735368D01*
X-22763199Y32791642D01*
X-22490047Y32884364D01*
X-22231339Y33011945D01*
X-21991496Y33172203D01*
X-21774623Y33362397D01*
X-21584429Y33579270D01*
X-21424171Y33819113D01*
X-21296590Y34077821D01*
X-21203868Y34350973D01*
X-21147594Y34633878D01*
X-21128728Y34921724D01*
X-21147594Y35209569D01*
X-21203868Y35492474D01*
X-21296590Y35765626D01*
X-21424171Y36024334D01*
X-21584429Y36264177D01*
X-21751430Y36454604D01*
X-21774623Y36481051D01*
X-21991496Y36671244D01*
X-22231339Y36831502D01*
X-22490047Y36959083D01*
X-22624054Y37004572D01*
X-22763197Y37051805D01*
X-22905625Y37080135D01*
X-23046104Y37108079D01*
X-23046106Y37108079D01*
X-23046111Y37108080D01*
X-23333950Y37126946D01*
X-23621789Y37108080D01*
X-23621793Y37108079D01*
X-23621795Y37108079D01*
X-23691060Y37094301D01*
X-23904703Y37051805D01*
X-24177852Y36959083D01*
X-24436561Y36831502D01*
X-24676404Y36671244D01*
X-24893277Y36481051D01*
X-25083470Y36264178D01*
X-25243728Y36024335D01*
X-25371309Y35765626D01*
X-25464031Y35492477D01*
X-25520306Y35209563D01*
X-25539172Y34921724D01*
X-30701260Y34921724D01*
X-30639208Y34977706D01*
X-30636470Y34980104D01*
X-29599196Y35862076D01*
X-29596388Y35864394D01*
X-28533641Y36715559D01*
X-28530766Y36717793D01*
X-27443496Y37537388D01*
X-27440557Y37539536D01*
X-26329728Y38326837D01*
X-26326727Y38328899D01*
X-25193218Y39083279D01*
X-25190158Y39085251D01*
X-24035014Y39806018D01*
X-24031898Y39807899D01*
X-22856108Y40494435D01*
X-22852937Y40496225D01*
X-21657470Y41147965D01*
X-21654249Y41149660D01*
X-20440192Y41766009D01*
X-20436922Y41767610D01*
X-19447270Y42234015D01*
X-19205243Y42348077D01*
X-19201948Y42349571D01*
X-17953821Y42893603D01*
X-17950463Y42895009D01*
X-16686841Y43402192D01*
X-16683442Y43403498D01*
X-15405534Y43873346D01*
X-15402099Y43874552D01*
X-14110938Y44306685D01*
X-14107469Y44307790D01*
X-12804156Y44701841D01*
X-12800656Y44702843D01*
X-11486345Y45058460D01*
X-11482818Y45059359D01*
X-10158636Y45376239D01*
X-10155083Y45377034D01*
X-8822197Y45654898D01*
X-8818623Y45655589D01*
X-7478097Y45894216D01*
X-7474503Y45894801D01*
X-6127610Y46093962D01*
X-6124001Y46094442D01*
X-4771786Y46253984D01*
X-4768165Y46254357D01*
X-3411891Y46374130D01*
X-3408260Y46374397D01*
X-2049064Y46454303D01*
X-2045427Y46454464D01*
X-684409Y46494436D01*
X-680769Y46494489D01*
X680769Y46494489D01*
X684409Y46494436D01*
G37*
%TD.AperFunction*%
%TD*%
M02*
