%TF.GenerationSoftware,KiCad,Pcbnew,7.0.1*%
%TF.CreationDate,2024-02-10T23:33:58+09:00*%
%TF.ProjectId,LED_lighting_large,4c45445f-6c69-4676-9874-696e675f6c61,rev?*%
%TF.SameCoordinates,Original*%
%TF.FileFunction,Copper,L1,Top*%
%TF.FilePolarity,Positive*%
%FSLAX46Y46*%
G04 Gerber Fmt 4.6, Leading zero omitted, Abs format (unit mm)*
G04 Created by KiCad (PCBNEW 7.0.1) date 2024-02-10 23:33:58*
%MOMM*%
%LPD*%
G01*
G04 APERTURE LIST*
G04 Aperture macros list*
%AMRoundRect*
0 Rectangle with rounded corners*
0 $1 Rounding radius*
0 $2 $3 $4 $5 $6 $7 $8 $9 X,Y pos of 4 corners*
0 Add a 4 corners polygon primitive as box body*
4,1,4,$2,$3,$4,$5,$6,$7,$8,$9,$2,$3,0*
0 Add four circle primitives for the rounded corners*
1,1,$1+$1,$2,$3*
1,1,$1+$1,$4,$5*
1,1,$1+$1,$6,$7*
1,1,$1+$1,$8,$9*
0 Add four rect primitives between the rounded corners*
20,1,$1+$1,$2,$3,$4,$5,0*
20,1,$1+$1,$4,$5,$6,$7,0*
20,1,$1+$1,$6,$7,$8,$9,0*
20,1,$1+$1,$8,$9,$2,$3,0*%
%AMHorizOval*
0 Thick line with rounded ends*
0 $1 width*
0 $2 $3 position (X,Y) of the first rounded end (center of the circle)*
0 $4 $5 position (X,Y) of the second rounded end (center of the circle)*
0 Add line between two ends*
20,1,$1,$2,$3,$4,$5,0*
0 Add two circle primitives to create the rounded ends*
1,1,$1,$2,$3*
1,1,$1,$4,$5*%
%AMRotRect*
0 Rectangle, with rotation*
0 The origin of the aperture is its center*
0 $1 length*
0 $2 width*
0 $3 Rotation angle, in degrees counterclockwise*
0 Add horizontal line*
21,1,$1,$2,0,0,$3*%
G04 Aperture macros list end*
%TA.AperFunction,SMDPad,CuDef*%
%ADD10RoundRect,0.237500X-0.334226X0.186277X-0.104616X-0.368051X0.334226X-0.186277X0.104616X0.368051X0*%
%TD*%
%TA.AperFunction,SMDPad,CuDef*%
%ADD11RoundRect,0.237500X-0.104616X0.368051X-0.334226X-0.186277X0.104616X-0.368051X0.334226X0.186277X0*%
%TD*%
%TA.AperFunction,SMDPad,CuDef*%
%ADD12RoundRect,0.237500X0.380070X-0.044194X-0.044194X0.380070X-0.380070X0.044194X0.044194X-0.380070X0*%
%TD*%
%TA.AperFunction,SMDPad,CuDef*%
%ADD13RotRect,0.900000X0.700000X247.500000*%
%TD*%
%TA.AperFunction,SMDPad,CuDef*%
%ADD14RotRect,0.900000X0.700000X202.500000*%
%TD*%
%TA.AperFunction,SMDPad,CuDef*%
%ADD15R,0.700000X0.900000*%
%TD*%
%TA.AperFunction,SMDPad,CuDef*%
%ADD16RoundRect,0.237500X0.186277X0.334226X-0.368051X0.104616X-0.186277X-0.334226X0.368051X-0.104616X0*%
%TD*%
%TA.AperFunction,SMDPad,CuDef*%
%ADD17RotRect,0.900000X0.700000X292.500000*%
%TD*%
%TA.AperFunction,SMDPad,CuDef*%
%ADD18RotRect,0.900000X0.700000X22.500000*%
%TD*%
%TA.AperFunction,SMDPad,CuDef*%
%ADD19RoundRect,0.237500X0.044194X0.380070X-0.380070X-0.044194X-0.044194X-0.380070X0.380070X0.044194X0*%
%TD*%
%TA.AperFunction,SMDPad,CuDef*%
%ADD20R,0.900000X0.700000*%
%TD*%
%TA.AperFunction,SMDPad,CuDef*%
%ADD21RotRect,0.900000X0.700000X315.000000*%
%TD*%
%TA.AperFunction,SMDPad,CuDef*%
%ADD22RoundRect,0.237500X0.334226X-0.186277X0.104616X0.368051X-0.334226X0.186277X-0.104616X-0.368051X0*%
%TD*%
%TA.AperFunction,SMDPad,CuDef*%
%ADD23RoundRect,0.237500X-0.186277X-0.334226X0.368051X-0.104616X0.186277X0.334226X-0.368051X0.104616X0*%
%TD*%
%TA.AperFunction,SMDPad,CuDef*%
%ADD24RotRect,0.900000X0.700000X112.500000*%
%TD*%
%TA.AperFunction,SMDPad,CuDef*%
%ADD25RoundRect,0.237500X-0.300000X-0.237500X0.300000X-0.237500X0.300000X0.237500X-0.300000X0.237500X0*%
%TD*%
%TA.AperFunction,SMDPad,CuDef*%
%ADD26RotRect,0.900000X0.700000X157.500000*%
%TD*%
%TA.AperFunction,SMDPad,CuDef*%
%ADD27RoundRect,0.237500X0.300000X0.237500X-0.300000X0.237500X-0.300000X-0.237500X0.300000X-0.237500X0*%
%TD*%
%TA.AperFunction,SMDPad,CuDef*%
%ADD28RotRect,0.900000X0.700000X225.000000*%
%TD*%
%TA.AperFunction,SMDPad,CuDef*%
%ADD29RotRect,0.900000X0.700000X337.500000*%
%TD*%
%TA.AperFunction,SMDPad,CuDef*%
%ADD30RoundRect,0.237500X-0.237500X0.300000X-0.237500X-0.300000X0.237500X-0.300000X0.237500X0.300000X0*%
%TD*%
%TA.AperFunction,SMDPad,CuDef*%
%ADD31RoundRect,0.237500X0.368051X0.104616X-0.186277X0.334226X-0.368051X-0.104616X0.186277X-0.334226X0*%
%TD*%
%TA.AperFunction,SMDPad,CuDef*%
%ADD32RotRect,0.900000X0.700000X45.000000*%
%TD*%
%TA.AperFunction,SMDPad,CuDef*%
%ADD33RoundRect,0.237500X-0.044194X-0.380070X0.380070X0.044194X0.044194X0.380070X-0.380070X-0.044194X0*%
%TD*%
%TA.AperFunction,SMDPad,CuDef*%
%ADD34RoundRect,0.237500X0.104616X-0.368051X0.334226X0.186277X-0.104616X0.368051X-0.334226X-0.186277X0*%
%TD*%
%TA.AperFunction,SMDPad,CuDef*%
%ADD35RoundRect,0.237500X-0.368051X-0.104616X0.186277X-0.334226X0.368051X0.104616X-0.186277X0.334226X0*%
%TD*%
%TA.AperFunction,SMDPad,CuDef*%
%ADD36RotRect,0.900000X0.700000X135.000000*%
%TD*%
%TA.AperFunction,SMDPad,CuDef*%
%ADD37RotRect,0.900000X0.700000X67.500000*%
%TD*%
%TA.AperFunction,SMDPad,CuDef*%
%ADD38RoundRect,0.237500X-0.380070X0.044194X0.044194X-0.380070X0.380070X-0.044194X-0.044194X0.380070X0*%
%TD*%
%TA.AperFunction,SMDPad,CuDef*%
%ADD39RoundRect,0.237500X0.237500X-0.300000X0.237500X0.300000X-0.237500X0.300000X-0.237500X-0.300000X0*%
%TD*%
%TA.AperFunction,ComponentPad*%
%ADD40RoundRect,0.250000X0.544709X-0.465206X0.681272X0.221343X-0.544709X0.465206X-0.681272X-0.221343X0*%
%TD*%
%TA.AperFunction,ComponentPad*%
%ADD41HorizOval,1.200000X-0.269716X0.053650X0.269716X-0.053650X0*%
%TD*%
%TA.AperFunction,ComponentPad*%
%ADD42RoundRect,0.250000X0.681272X-0.221343X0.544709X0.465206X-0.681272X0.221343X-0.544709X-0.465206X0*%
%TD*%
%TA.AperFunction,ComponentPad*%
%ADD43HorizOval,1.200000X0.269716X0.053650X-0.269716X-0.053650X0*%
%TD*%
%TA.AperFunction,ViaPad*%
%ADD44C,0.600000*%
%TD*%
%TA.AperFunction,Conductor*%
%ADD45C,0.250000*%
%TD*%
%TA.AperFunction,Conductor*%
%ADD46C,0.500000*%
%TD*%
%TA.AperFunction,Conductor*%
%ADD47C,1.000000*%
%TD*%
%TA.AperFunction,Conductor*%
%ADD48C,2.000000*%
%TD*%
G04 APERTURE END LIST*
D10*
%TO.P,C6,1*%
%TO.N,VDD*%
X-13592564Y41396846D03*
%TO.P,C6,2*%
%TO.N,GND*%
X-12932436Y39803154D03*
%TD*%
D11*
%TO.P,C4,1*%
%TO.N,VDD*%
X19800000Y39000000D03*
%TO.P,C4,2*%
%TO.N,GND*%
X19139872Y37406308D03*
%TD*%
D12*
%TO.P,C15,1*%
%TO.N,VDD*%
X28472380Y-33009880D03*
%TO.P,C15,2*%
%TO.N,GND*%
X27252620Y-31790120D03*
%TD*%
D13*
%TO.P,D16,1,DOUT*%
%TO.N,DOUT*%
X40585109Y-15820514D03*
%TO.P,D16,2,GND*%
%TO.N,GND*%
X39568842Y-15399562D03*
%TO.P,D16,3,DIN*%
%TO.N,Net-(D15-DOUT)*%
X38868531Y-17090262D03*
%TO.P,D16,4,VDD*%
%TO.N,VDD*%
X39884798Y-17511214D03*
%TD*%
D14*
%TO.P,D14,1,DOUT*%
%TO.N,Net-(D14-DOUT)*%
X17511214Y-39884798D03*
%TO.P,D14,2,GND*%
%TO.N,GND*%
X17090262Y-38868531D03*
%TO.P,D14,3,DIN*%
%TO.N,Net-(D13-DOUT)*%
X15399562Y-39568842D03*
%TO.P,D14,4,VDD*%
%TO.N,VDD*%
X15820514Y-40585109D03*
%TD*%
D15*
%TO.P,D1,1,DOUT*%
%TO.N,Net-(D1-DOUT)*%
X43550000Y915000D03*
%TO.P,D1,2,GND*%
%TO.N,GND*%
X42450000Y915000D03*
%TO.P,D1,3,DIN*%
%TO.N,DIN*%
X42450000Y-915000D03*
%TO.P,D1,4,VDD*%
%TO.N,VDD*%
X43550000Y-915000D03*
%TD*%
D16*
%TO.P,C2,1*%
%TO.N,VDD*%
X41400000Y13500000D03*
%TO.P,C2,2*%
%TO.N,GND*%
X39806308Y12839872D03*
%TD*%
D17*
%TO.P,D2,1,DOUT*%
%TO.N,Net-(D2-DOUT)*%
X39884798Y17511214D03*
%TO.P,D2,2,GND*%
%TO.N,GND*%
X38868531Y17090262D03*
%TO.P,D2,3,DIN*%
%TO.N,Net-(D1-DOUT)*%
X39568842Y15399562D03*
%TO.P,D2,4,VDD*%
%TO.N,VDD*%
X40585109Y15820514D03*
%TD*%
D18*
%TO.P,D6,1,DOUT*%
%TO.N,Net-(D6-DOUT)*%
X-17511214Y39884798D03*
%TO.P,D6,2,GND*%
%TO.N,GND*%
X-17090262Y38868531D03*
%TO.P,D6,3,DIN*%
%TO.N,Net-(D5-DOUT)*%
X-15399562Y39568842D03*
%TO.P,D6,4,VDD*%
%TO.N,VDD*%
X-15820514Y40585109D03*
%TD*%
D19*
%TO.P,C3,1*%
%TO.N,VDD*%
X33200000Y28400000D03*
%TO.P,C3,2*%
%TO.N,GND*%
X31980240Y27180240D03*
%TD*%
D20*
%TO.P,D13,1,DOUT*%
%TO.N,Net-(D13-DOUT)*%
X915000Y-43550000D03*
%TO.P,D13,2,GND*%
%TO.N,GND*%
X915000Y-42450000D03*
%TO.P,D13,3,DIN*%
%TO.N,Net-(D12-DOUT)*%
X-915000Y-42450000D03*
%TO.P,D13,4,VDD*%
%TO.N,VDD*%
X-915000Y-43550000D03*
%TD*%
D21*
%TO.P,D3,1,DOUT*%
%TO.N,Net-(D3-DOUT)*%
X30147498Y31441503D03*
%TO.P,D3,2,GND*%
%TO.N,GND*%
X29369681Y30663686D03*
%TO.P,D3,3,DIN*%
%TO.N,Net-(D2-DOUT)*%
X30663686Y29369681D03*
%TO.P,D3,4,VDD*%
%TO.N,VDD*%
X31441503Y30147498D03*
%TD*%
D22*
%TO.P,C14,1*%
%TO.N,VDD*%
X13592564Y-41396846D03*
%TO.P,C14,2*%
%TO.N,GND*%
X12932436Y-39803154D03*
%TD*%
D23*
%TO.P,C10,1*%
%TO.N,VDD*%
X-41459346Y-13530064D03*
%TO.P,C10,2*%
%TO.N,GND*%
X-39865654Y-12869936D03*
%TD*%
D24*
%TO.P,D10,1,DOUT*%
%TO.N,Net-(D10-DOUT)*%
X-39884798Y-17511214D03*
%TO.P,D10,2,GND*%
%TO.N,GND*%
X-38868531Y-17090262D03*
%TO.P,D10,3,DIN*%
%TO.N,Net-(D10-DIN)*%
X-39568842Y-15399562D03*
%TO.P,D10,4,VDD*%
%TO.N,VDD*%
X-40585109Y-15820514D03*
%TD*%
D25*
%TO.P,C9,1*%
%TO.N,VDD*%
X-43525000Y3400000D03*
%TO.P,C9,2*%
%TO.N,GND*%
X-41800000Y3400000D03*
%TD*%
D26*
%TO.P,D12,1,DOUT*%
%TO.N,Net-(D12-DOUT)*%
X-15820514Y-40585109D03*
%TO.P,D12,2,GND*%
%TO.N,GND*%
X-15399562Y-39568842D03*
%TO.P,D12,3,DIN*%
%TO.N,Net-(D11-DOUT)*%
X-17090262Y-38868531D03*
%TO.P,D12,4,VDD*%
%TO.N,VDD*%
X-17511214Y-39884798D03*
%TD*%
D27*
%TO.P,C1,1*%
%TO.N,VDD*%
X43400000Y-3500000D03*
%TO.P,C1,2*%
%TO.N,GND*%
X41675000Y-3500000D03*
%TD*%
D28*
%TO.P,D15,1,DOUT*%
%TO.N,Net-(D15-DOUT)*%
X31441503Y-30147498D03*
%TO.P,D15,2,GND*%
%TO.N,GND*%
X30663686Y-29369681D03*
%TO.P,D15,3,DIN*%
%TO.N,Net-(D14-DOUT)*%
X29369681Y-30663686D03*
%TO.P,D15,4,VDD*%
%TO.N,VDD*%
X30147498Y-31441503D03*
%TD*%
D29*
%TO.P,D4,1,DOUT*%
%TO.N,Net-(D4-DOUT)*%
X15820514Y40585109D03*
%TO.P,D4,2,GND*%
%TO.N,GND*%
X15399562Y39568842D03*
%TO.P,D4,3,DIN*%
%TO.N,Net-(D3-DOUT)*%
X17090262Y38868531D03*
%TO.P,D4,4,VDD*%
%TO.N,VDD*%
X17511214Y39884798D03*
%TD*%
D30*
%TO.P,C5,1*%
%TO.N,VDD*%
X3400000Y43462500D03*
%TO.P,C5,2*%
%TO.N,GND*%
X3400000Y41737500D03*
%TD*%
D31*
%TO.P,C16,1*%
%TO.N,VDD*%
X38859346Y-19730064D03*
%TO.P,C16,2*%
%TO.N,GND*%
X37265654Y-19069936D03*
%TD*%
D32*
%TO.P,D7,1,DOUT*%
%TO.N,Net-(D7-DOUT)*%
X-31441503Y30147498D03*
%TO.P,D7,2,GND*%
%TO.N,GND*%
X-30663686Y29369681D03*
%TO.P,D7,3,DIN*%
%TO.N,Net-(D6-DOUT)*%
X-29369681Y30663686D03*
%TO.P,D7,4,VDD*%
%TO.N,VDD*%
X-30147498Y31441503D03*
%TD*%
D33*
%TO.P,C11,1*%
%TO.N,VDD*%
X-33219760Y-28219760D03*
%TO.P,C11,2*%
%TO.N,GND*%
X-32000000Y-27000000D03*
%TD*%
D15*
%TO.P,D9,1,DOUT*%
%TO.N,Net-(D10-DIN)*%
X-43550000Y-915000D03*
%TO.P,D9,2,GND*%
%TO.N,GND*%
X-42450000Y-915000D03*
%TO.P,D9,3,DIN*%
%TO.N,Net-(D8-DOUT)*%
X-42450000Y915000D03*
%TO.P,D9,4,VDD*%
%TO.N,VDD*%
X-43550000Y915000D03*
%TD*%
D34*
%TO.P,C12,1*%
%TO.N,VDD*%
X-19792564Y-38796846D03*
%TO.P,C12,2*%
%TO.N,GND*%
X-19132436Y-37203154D03*
%TD*%
D35*
%TO.P,C8,1*%
%TO.N,VDD*%
X-38859346Y19730064D03*
%TO.P,C8,2*%
%TO.N,GND*%
X-37265654Y19069936D03*
%TD*%
D36*
%TO.P,D11,1,DOUT*%
%TO.N,Net-(D11-DOUT)*%
X-30147498Y-31441503D03*
%TO.P,D11,2,GND*%
%TO.N,GND*%
X-29369681Y-30663686D03*
%TO.P,D11,3,DIN*%
%TO.N,Net-(D10-DOUT)*%
X-30663686Y-29369681D03*
%TO.P,D11,4,VDD*%
%TO.N,VDD*%
X-31441503Y-30147498D03*
%TD*%
D20*
%TO.P,D5,1,DOUT*%
%TO.N,Net-(D5-DOUT)*%
X-915000Y43550000D03*
%TO.P,D5,2,GND*%
%TO.N,GND*%
X-915000Y42450000D03*
%TO.P,D5,3,DIN*%
%TO.N,Net-(D4-DOUT)*%
X915000Y42450000D03*
%TO.P,D5,4,VDD*%
%TO.N,VDD*%
X915000Y43550000D03*
%TD*%
D37*
%TO.P,D8,1,DOUT*%
%TO.N,Net-(D8-DOUT)*%
X-40585109Y15820514D03*
%TO.P,D8,2,GND*%
%TO.N,GND*%
X-39568842Y15399562D03*
%TO.P,D8,3,DIN*%
%TO.N,Net-(D7-DOUT)*%
X-38868531Y17090262D03*
%TO.P,D8,4,VDD*%
%TO.N,VDD*%
X-39884798Y17511214D03*
%TD*%
D38*
%TO.P,C7,1*%
%TO.N,VDD*%
X-28409880Y33209880D03*
%TO.P,C7,2*%
%TO.N,GND*%
X-27190120Y31990120D03*
%TD*%
D39*
%TO.P,C13,1*%
%TO.N,VDD*%
X-3400000Y-43400000D03*
%TO.P,C13,2*%
%TO.N,GND*%
X-3400000Y-41675000D03*
%TD*%
D40*
%TO.P,J2,1,Pin_1*%
%TO.N,GND*%
X41361849Y-10266566D03*
D41*
%TO.P,J2,2,Pin_2*%
%TO.N,VDD*%
X41752029Y-8304995D03*
%TO.P,J2,3,Pin_3*%
%TO.N,DOUT*%
X42142210Y-6343425D03*
%TD*%
D42*
%TO.P,J1,1,Pin_1*%
%TO.N,GND*%
X42142210Y6343425D03*
D43*
%TO.P,J1,2,Pin_2*%
%TO.N,VDD*%
X41752029Y8304995D03*
%TO.P,J1,3,Pin_3*%
%TO.N,DIN*%
X41361849Y10266566D03*
%TD*%
D44*
%TO.N,GND*%
X-15100000Y-35300000D03*
X43100000Y5000000D03*
X18700000Y36400000D03*
X40100000Y-8900000D03*
X34900000Y25900000D03*
X38700000Y-11500000D03*
X-37700000Y18100000D03*
X6300000Y37300000D03*
X-23400000Y32400000D03*
X-43100000Y4800000D03*
X-27900000Y-30900000D03*
X-39200000Y-7500000D03*
X-29400000Y-28800000D03*
X35500000Y-14600000D03*
X-34900000Y-25900000D03*
X25900000Y-34900000D03*
X32900000Y-22600000D03*
X-1900000Y41300000D03*
X30900000Y21800000D03*
X-11700000Y39100000D03*
X42300000Y-2300000D03*
X31800000Y25700000D03*
X4100000Y40500000D03*
X27900000Y30800000D03*
X5100000Y39600000D03*
X-18100000Y-37700000D03*
X-41100000Y13900000D03*
X39400000Y13900000D03*
X38000000Y-16000000D03*
X38800000Y12500000D03*
X-21000000Y-38000000D03*
X-7500000Y39200000D03*
X-39600000Y12300000D03*
X41700000Y11900000D03*
X37300000Y6400000D03*
X37900000Y-18000000D03*
X32900000Y-28400000D03*
X-39200000Y-11500000D03*
X-31900000Y20400000D03*
X-13900000Y39400000D03*
X-22200000Y-33100000D03*
X26800000Y27500000D03*
X-15900000Y-38100000D03*
X-40600000Y4400000D03*
X14000000Y-39500000D03*
X-4400000Y-40600000D03*
X-41700000Y-12200000D03*
X18100000Y37800000D03*
X-8400000Y36900000D03*
X22500000Y33200000D03*
X20600000Y31700000D03*
X25700000Y-31800000D03*
X35900000Y-19500000D03*
X27400000Y-33800000D03*
X43200000Y3600000D03*
X-28100000Y-33100000D03*
X15100000Y-35300000D03*
X-32800000Y22600000D03*
X-25700000Y31800000D03*
X-12300000Y41700000D03*
X0Y41300000D03*
X15700000Y-38200000D03*
X-34000000Y-27100000D03*
X29300000Y29100000D03*
X12200000Y-41600000D03*
X38400000Y0D03*
X-43300000Y-3400000D03*
X23300000Y-32300000D03*
X-15000000Y35300000D03*
X27300000Y-27100000D03*
X-38100000Y16000000D03*
X3300000Y-43300000D03*
X32400000Y23400000D03*
X12400000Y39600000D03*
X-35400000Y-14900000D03*
X28300000Y33000000D03*
X8200000Y-36900000D03*
X-28800000Y29500000D03*
X-41200000Y500000D03*
X-4700000Y-43000000D03*
X38100000Y-20900000D03*
X-37000000Y-7800000D03*
X-35400000Y14900000D03*
X31500000Y-20900000D03*
X38700000Y-9600000D03*
X-39500000Y5600000D03*
X36500000Y-10200000D03*
X-14000000Y-41100000D03*
X41500000Y2100000D03*
X-32400000Y-23400000D03*
X30600000Y-27900000D03*
X-25900000Y35000000D03*
X20900000Y38100000D03*
X-38400000Y-200000D03*
X43100000Y-4900000D03*
X38200000Y15700000D03*
X-39500000Y-13900000D03*
X-3500000Y43200000D03*
X28800000Y-29500000D03*
X-38100000Y20900000D03*
X13800000Y41100000D03*
X-400000Y-41200000D03*
X11600000Y-39100000D03*
X-37300000Y6200000D03*
X-35800000Y19600000D03*
X21100000Y-31400000D03*
X-21200000Y31400000D03*
X-200000Y38400000D03*
X-31800000Y-25500000D03*
X33800000Y27200000D03*
X-41400000Y-2000000D03*
X-38200000Y-15700000D03*
X15800000Y38300000D03*
X7500000Y-39100000D03*
X-15700000Y38200000D03*
X-20200000Y-32000000D03*
X-30600000Y27900000D03*
X4800000Y43100000D03*
X-19500000Y-35800000D03*
X41100000Y-13900000D03*
X41800000Y-11900000D03*
X-27300000Y27000000D03*
X40700000Y-7300000D03*
X-27200000Y33900000D03*
X2000000Y-41400000D03*
X14400000Y35500000D03*
X-32900000Y28400000D03*
X40600000Y6000000D03*
X-31000000Y-21700000D03*
X-27000000Y-27300000D03*
X-12200000Y-39400000D03*
X42000000Y4800000D03*
X-6700000Y-37200000D03*
X-5600000Y-39400000D03*
X35400000Y14900000D03*
%TO.N,DIN*%
X41500000Y-1000000D03*
%TD*%
D45*
%TO.N,GND*%
X-15900000Y-39068404D02*
X-15399562Y-39568842D01*
X29233367Y30800000D02*
X29369681Y30663686D01*
X-13600000Y39100000D02*
X-13900000Y39400000D01*
X37265654Y-19069936D02*
X36330064Y-19069936D01*
X41800000Y4800000D02*
X40600000Y6000000D01*
X-19759958Y-37830676D02*
X-20069324Y-37830676D01*
X-38968404Y16000000D02*
X-39568842Y15399562D01*
X30663686Y-27963686D02*
X30600000Y-27900000D01*
X31800000Y25700000D02*
X31800000Y27000000D01*
X11600000Y-39100000D02*
X12229282Y-39100000D01*
X-40730064Y-12869936D02*
X-41400000Y-12200000D01*
X-4700000Y-42975000D02*
X-3400000Y-41675000D01*
X950000Y-42450000D02*
X2000000Y-41400000D01*
X-27200000Y33900000D02*
X-27200000Y32000000D01*
X-41200000Y500000D02*
X-41200000Y335000D01*
X-38868531Y-17090262D02*
X-38868531Y-16368531D01*
X-29133367Y-30900000D02*
X-29369681Y-30663686D01*
X37900000Y-20200000D02*
X37900000Y-20700000D01*
X37900000Y-20700000D02*
X38100000Y-20900000D01*
X0Y41300000D02*
X0Y41535000D01*
X-41200000Y335000D02*
X-42450000Y-915000D01*
X4762500Y43100000D02*
X3400000Y41737500D01*
X-37911926Y19763519D02*
X-37911926Y20711926D01*
X27400000Y-31937500D02*
X27252620Y-31790120D01*
X18100000Y37000000D02*
X18700000Y36400000D01*
X-915000Y42285000D02*
X-1900000Y41300000D01*
X-40800000Y4400000D02*
X-41800000Y3400000D01*
X-31800000Y-25500000D02*
X-31800000Y-26800000D01*
X27900000Y30800000D02*
X29233367Y30800000D01*
X33780240Y27180240D02*
X33800000Y27200000D01*
X30533367Y-29500000D02*
X30663686Y-29369681D01*
X-37269936Y19069936D02*
X-37927037Y19727037D01*
X-30663686Y29369681D02*
X-30663686Y27963686D01*
X-27000000Y31800000D02*
X-27190120Y31990120D01*
X38000000Y-16000000D02*
X38968404Y-16000000D01*
X-15700000Y38200000D02*
X-16368531Y38868531D01*
X-20100000Y-37800000D02*
X-20800000Y-37800000D01*
X25700000Y-31800000D02*
X27242740Y-31800000D01*
X-32100000Y-27100000D02*
X-32000000Y-27000000D01*
X-19132436Y-37203154D02*
X-19132436Y-36167564D01*
X-41400000Y-1965000D02*
X-42450000Y-915000D01*
X31980240Y27180240D02*
X33780240Y27180240D01*
X915000Y-42450000D02*
X950000Y-42450000D01*
X-37265654Y19069936D02*
X-36330064Y19069936D01*
X31800000Y27000000D02*
X31980240Y27180240D01*
X18100000Y37800000D02*
X18100000Y37000000D01*
X-28800000Y29500000D02*
X-30533367Y29500000D01*
X38968404Y-16000000D02*
X39568842Y-15399562D01*
X27400000Y-33800000D02*
X27400000Y-31937500D01*
X15700000Y-38200000D02*
X16500000Y-39000000D01*
X-12932436Y39803154D02*
X-12932436Y40667564D01*
X-43100000Y4700000D02*
X-41800000Y3400000D01*
X-4700000Y-43000000D02*
X-4700000Y-42975000D01*
X4800000Y43100000D02*
X4762500Y43100000D01*
X-4400000Y-40600000D02*
X-4400000Y-40675000D01*
X29369681Y30663686D02*
X29336314Y30663686D01*
X42450000Y915000D02*
X42450000Y1150000D01*
X20100000Y38100000D02*
X20900000Y38100000D01*
X3400000Y41737500D02*
X3400000Y41200000D01*
X38800000Y12500000D02*
X38800000Y13300000D01*
X38800000Y13300000D02*
X39400000Y13900000D01*
X-27200000Y32000000D02*
X-27190120Y31990120D01*
X-40600000Y4400000D02*
X-40800000Y4400000D01*
X28800000Y-29500000D02*
X30533367Y-29500000D01*
X-27900000Y-30900000D02*
X-29133367Y-30900000D01*
X15800000Y39168404D02*
X15399562Y39568842D01*
X-20069324Y-37830676D02*
X-20100000Y-37800000D01*
X-29400000Y-28800000D02*
X-29400000Y-30633367D01*
X29369681Y30663686D02*
X29369681Y29169681D01*
X37265654Y-19069936D02*
X37916229Y-19720511D01*
X-30533367Y29500000D02*
X-30663686Y29369681D01*
X-39200000Y-11500000D02*
X-39200000Y-12204282D01*
X-12932436Y40667564D02*
X-12300000Y41300000D01*
X-19132436Y-36167564D02*
X-19500000Y-35800000D01*
X16500000Y-39000000D02*
X16958793Y-39000000D01*
X-335000Y-41200000D02*
X915000Y-42450000D01*
X-34000000Y-27100000D02*
X-32100000Y-27100000D01*
X37916229Y-19720511D02*
X37916229Y-20183771D01*
X12932436Y-39803154D02*
X12932436Y-40667564D01*
X0Y41535000D02*
X-915000Y42450000D01*
X42000000Y4800000D02*
X41800000Y4800000D01*
X12200000Y-41400000D02*
X12200000Y-41600000D01*
X37916229Y-20183771D02*
X37900000Y-20200000D01*
X-38868531Y-16368531D02*
X-38200000Y-15700000D01*
X-37265654Y19069936D02*
X-37269936Y19069936D01*
X-41400000Y-2000000D02*
X-41400000Y-1965000D01*
X15800000Y38300000D02*
X15800000Y39168404D01*
X-19132436Y-37203154D02*
X-19759958Y-37830676D01*
X-400000Y-41200000D02*
X-335000Y-41200000D01*
X19139872Y37406308D02*
X19406308Y37406308D01*
X42450000Y1150000D02*
X41500000Y2100000D01*
X-31800000Y-26800000D02*
X-32000000Y-27000000D01*
X-4400000Y-40675000D02*
X-3400000Y-41675000D01*
X31980240Y27180240D02*
X32200000Y27400000D01*
X3400000Y41200000D02*
X4100000Y40500000D01*
X12932436Y-40667564D02*
X12200000Y-41400000D01*
X-37927037Y19727037D02*
X-37911926Y19763519D01*
X27242740Y-31800000D02*
X27252620Y-31790120D01*
X38868531Y16368531D02*
X38200000Y15700000D01*
X30663686Y-29369681D02*
X30663686Y-27963686D01*
X-11700000Y39100000D02*
X-13600000Y39100000D01*
X-25700000Y31800000D02*
X-27000000Y31800000D01*
X-37911926Y20711926D02*
X-38100000Y20900000D01*
X-30663686Y27963686D02*
X-30600000Y27900000D01*
X19406308Y37406308D02*
X20100000Y38100000D01*
X-29400000Y-30633367D02*
X-29369681Y-30663686D01*
X-41400000Y-12200000D02*
X-41700000Y-12200000D01*
X29369681Y29169681D02*
X29300000Y29100000D01*
X-12300000Y41300000D02*
X-12300000Y41700000D01*
X-43100000Y4800000D02*
X-43100000Y4700000D01*
X-20800000Y-37800000D02*
X-21000000Y-38000000D01*
X-38100000Y16000000D02*
X-38968404Y16000000D01*
X-39865654Y-12869936D02*
X-40730064Y-12869936D01*
X16958793Y-39000000D02*
X17090262Y-38868531D01*
X-36330064Y19069936D02*
X-35800000Y19600000D01*
X-915000Y42450000D02*
X-915000Y42285000D01*
X-15900000Y-38100000D02*
X-15900000Y-39068404D01*
X-16368531Y38868531D02*
X-17090262Y38868531D01*
X12229282Y-39100000D02*
X12932436Y-39803154D01*
X38868531Y17090262D02*
X38868531Y16368531D01*
X36330064Y-19069936D02*
X35900000Y-19500000D01*
X-39200000Y-12204282D02*
X-39865654Y-12869936D01*
D46*
%TO.N,Net-(D1-DOUT)*%
X43550000Y915000D02*
X43550000Y1650000D01*
X43550000Y1650000D02*
X37900000Y7300000D01*
X37900000Y7300000D02*
X37900000Y13730720D01*
X37900000Y13730720D02*
X39568842Y15399562D01*
%TO.N,DIN*%
X42365000Y-1000000D02*
X42450000Y-915000D01*
X41500000Y-1000000D02*
X42365000Y-1000000D01*
%TO.N,VDD*%
X3400000Y43462500D02*
X3400000Y44925132D01*
D47*
X41752029Y8304995D02*
X43094040Y8304995D01*
D46*
X13603154Y-41396846D02*
X14414891Y-40585109D01*
X-30147498Y31472262D02*
X-28409880Y33209880D01*
D47*
X43094724Y-8304995D02*
X43257143Y-8304995D01*
X41752029Y-8304995D02*
X43094724Y-8304995D01*
X43257143Y-8304995D02*
X44309930Y-9357782D01*
D46*
X40585109Y14414891D02*
X40585109Y15820514D01*
X-44953201Y3400000D02*
X-45153201Y3200000D01*
D47*
X43094040Y8219818D02*
X44813858Y6500000D01*
D46*
X-38859346Y19730064D02*
X-38859346Y18536666D01*
X43400000Y-3500000D02*
X45039614Y-3500000D01*
X-19792564Y-38796846D02*
X-18599166Y-38796846D01*
X-33219760Y-28369241D02*
X-31441503Y-30147498D01*
X18396012Y39000000D02*
X19800000Y39000000D01*
X-19792564Y-38796846D02*
X-19796846Y-38796846D01*
X33200000Y28400000D02*
X33189001Y28400000D01*
X13592564Y-41396846D02*
X13592564Y-42954071D01*
X-30147498Y31441503D02*
X-30147498Y31472262D01*
X-13592564Y41396846D02*
X-13592564Y43216712D01*
X-3400000Y-43400000D02*
X-3400000Y-45139614D01*
X41400000Y13600000D02*
X40585109Y14414891D01*
X38859346Y-19730064D02*
X38930064Y-19730064D01*
D48*
X45250000Y-250000D02*
X45250000Y250000D01*
D47*
X2000000Y45000000D02*
X2000000Y45215959D01*
D46*
X-41459346Y-13530064D02*
X-43154212Y-13530064D01*
X43400000Y-3500000D02*
X43400000Y-1065000D01*
X19800000Y39000000D02*
X20987105Y40187105D01*
D48*
X250000Y-45250000D02*
X-250000Y-45250000D01*
D46*
X14414891Y-40585109D02*
X15820514Y-40585109D01*
X43400000Y-1065000D02*
X43550000Y-915000D01*
X28472380Y-33009880D02*
X28609880Y-33009880D01*
X-38930064Y19730064D02*
X-40187105Y20987105D01*
X-15820514Y40585109D02*
X-14404301Y40585109D01*
X-43525000Y3400000D02*
X-43525000Y940000D01*
X38859346Y-18536666D02*
X39884798Y-17511214D01*
X-43525000Y3400000D02*
X-44953201Y3400000D01*
X28579121Y-33009880D02*
X30147498Y-31441503D01*
X-38859346Y18536666D02*
X-39884798Y17511214D01*
X-33219760Y-28219760D02*
X-34471443Y-29471443D01*
X-40585109Y-14404301D02*
X-41459346Y-13530064D01*
X33200000Y28400000D02*
X34271444Y29471444D01*
X28472380Y-33009880D02*
X28579121Y-33009880D01*
X41400000Y13500000D02*
X41400000Y13600000D01*
D48*
X44942700Y-5807300D02*
X44942700Y-5500000D01*
D46*
X13592564Y-41396846D02*
X13603154Y-41396846D01*
X-3400000Y-43400000D02*
X-1065000Y-43400000D01*
D47*
X-17511214Y-41261214D02*
X-17895914Y-41645914D01*
D48*
X250000Y45250000D02*
X-250000Y45250000D01*
D46*
X17511214Y39884798D02*
X18396012Y39000000D01*
X33189001Y28400000D02*
X31441503Y30147498D01*
X-19796846Y-38796846D02*
X-21118569Y-40118569D01*
X-14404301Y40585109D02*
X-13592564Y41396846D01*
X-33219760Y-28219760D02*
X-33219760Y-28369241D01*
X-43525000Y940000D02*
X-43550000Y915000D01*
X-1065000Y-43400000D02*
X-915000Y-43550000D01*
X-28409880Y33209880D02*
X-29579166Y34379166D01*
D47*
X43094724Y-8304995D02*
X44799719Y-6600000D01*
D46*
X3400000Y44925132D02*
X3600000Y45125132D01*
X34271444Y29471444D02*
X34471444Y29471444D01*
X28609880Y-33009880D02*
X29793660Y-34193660D01*
X915000Y43550000D02*
X3312500Y43550000D01*
X38859346Y-19730064D02*
X38859346Y-18536666D01*
X-18599166Y-38796846D02*
X-17511214Y-39884798D01*
D47*
X43094040Y8304995D02*
X44289045Y9500000D01*
X43094040Y8304995D02*
X43094040Y8219818D01*
D48*
X-45250000Y250000D02*
X-45250000Y-250000D01*
D46*
X41400000Y13500000D02*
X43124149Y13500000D01*
X3312500Y43550000D02*
X3400000Y43462500D01*
X38930064Y-19730064D02*
X40187105Y-20987105D01*
X45039614Y-3500000D02*
X45139614Y-3400000D01*
X-38859346Y19730064D02*
X-38930064Y19730064D01*
X-40585109Y-15820514D02*
X-40585109Y-14404301D01*
D48*
X-250000Y45250000D02*
G75*
G03*
X-45250000Y250000I-6J-44999994D01*
G01*
X250000Y-45250000D02*
G75*
G03*
X45250000Y-250000I0J45000000D01*
G01*
X-45250000Y-250000D02*
G75*
G03*
X-250000Y-45250000I45000001J1D01*
G01*
X45250000Y250000D02*
G75*
G03*
X250000Y45250000I-45000000J0D01*
G01*
D46*
%TO.N,Net-(D2-DOUT)*%
X39109421Y18286591D02*
X35913409Y18286591D01*
X30663686Y23536314D02*
X30663686Y29369681D01*
X35913409Y18286591D02*
X30663686Y23536314D01*
X39884798Y17511214D02*
X39109421Y18286591D01*
%TO.N,Net-(D3-DOUT)*%
X17090262Y36709738D02*
X17090262Y38868531D01*
X21900000Y31900000D02*
X17090262Y36709738D01*
X29689001Y31900000D02*
X21900000Y31900000D01*
X30147498Y31441503D02*
X29689001Y31900000D01*
%TO.N,Net-(D4-DOUT)*%
X915000Y42085000D02*
X915000Y42450000D01*
X15820514Y40585109D02*
X15002061Y40585109D01*
X4600000Y38400000D02*
X915000Y42085000D01*
X12816952Y38400000D02*
X4600000Y38400000D01*
X15002061Y40585109D02*
X12816952Y38400000D01*
%TO.N,Net-(D5-DOUT)*%
X-7000000Y38000000D02*
X-13830720Y38000000D01*
X-915000Y43550000D02*
X-1450000Y43550000D01*
X-1450000Y43550000D02*
X-7000000Y38000000D01*
X-13830720Y38000000D02*
X-15399562Y39568842D01*
%TO.N,Net-(D6-DOUT)*%
X-23536314Y30663686D02*
X-18089947Y36110053D01*
X-18089947Y36110053D02*
X-18089947Y39306065D01*
X-18089947Y39306065D02*
X-17511214Y39884798D01*
X-29369681Y30663686D02*
X-23536314Y30663686D01*
%TO.N,Net-(D7-DOUT)*%
X-38868531Y17090262D02*
X-36709738Y17090262D01*
X-31775000Y29814001D02*
X-31441503Y30147498D01*
X-31700000Y22100000D02*
X-31700000Y28086827D01*
X-31775000Y28161827D02*
X-31775000Y29814001D01*
X-31700000Y28086827D02*
X-31775000Y28161827D01*
X-36709738Y17090262D02*
X-31700000Y22100000D01*
%TO.N,Net-(D8-DOUT)*%
X-38400000Y12816952D02*
X-40585109Y15002061D01*
X-42450000Y915000D02*
X-38400000Y4965000D01*
X-40585109Y15002061D02*
X-40585109Y15820514D01*
X-38400000Y4965000D02*
X-38400000Y12816952D01*
%TO.N,Net-(D10-DIN)*%
X-38025000Y-12961828D02*
X-38100000Y-12886828D01*
X-38100000Y-6965000D02*
X-43550000Y-1515000D01*
X-39568842Y-15399562D02*
X-38025000Y-13855720D01*
X-43550000Y-1515000D02*
X-43550000Y-915000D01*
X-38025000Y-13855720D02*
X-38025000Y-12961828D01*
X-38100000Y-12886828D02*
X-38100000Y-6965000D01*
%TO.N,Net-(D10-DOUT)*%
X-35806433Y-18393567D02*
X-39002445Y-18393567D01*
X-39002445Y-18393567D02*
X-39884798Y-17511214D01*
X-30663686Y-23536314D02*
X-35806433Y-18393567D01*
X-30663686Y-29369681D02*
X-30663686Y-23536314D01*
%TO.N,Net-(D11-DOUT)*%
X-21700000Y-32000000D02*
X-29589001Y-32000000D01*
X-17090262Y-36609738D02*
X-21700000Y-32000000D01*
X-29589001Y-32000000D02*
X-30147498Y-31441503D01*
X-17090262Y-38868531D02*
X-17090262Y-36609738D01*
%TO.N,Net-(D12-DOUT)*%
X-5065000Y-38300000D02*
X-12716952Y-38300000D01*
X-15002061Y-40585109D02*
X-15820514Y-40585109D01*
X-12716952Y-38300000D02*
X-15002061Y-40585109D01*
X-915000Y-42450000D02*
X-5065000Y-38300000D01*
%TO.N,DOUT*%
X40585109Y-15002061D02*
X37600000Y-12016952D01*
X40585109Y-15820514D02*
X40585109Y-15002061D01*
X40406575Y-6343425D02*
X42142210Y-6343425D01*
X37600000Y-12016952D02*
X37600000Y-9150000D01*
X37600000Y-9150000D02*
X40406575Y-6343425D01*
%TO.N,Net-(D13-DOUT)*%
X13830720Y-38000000D02*
X15399562Y-39568842D01*
X7000000Y-38000000D02*
X13830720Y-38000000D01*
X1450000Y-43550000D02*
X7000000Y-38000000D01*
X915000Y-43550000D02*
X1450000Y-43550000D01*
%TO.N,Net-(D14-DOUT)*%
X17511214Y-39884798D02*
X18089947Y-39306065D01*
X18089947Y-39306065D02*
X18089947Y-35910053D01*
X23336314Y-30663686D02*
X29369681Y-30663686D01*
X18089947Y-35910053D02*
X23336314Y-30663686D01*
%TO.N,Net-(D15-DOUT)*%
X31441503Y-30147498D02*
X31759701Y-29829300D01*
X36791091Y-17090262D02*
X38868531Y-17090262D01*
X31759701Y-22121652D02*
X36791091Y-17090262D01*
X31759701Y-29829300D02*
X31759701Y-22121652D01*
%TD*%
%TA.AperFunction,Conductor*%
%TO.N,GND*%
G36*
X12219969Y-38767476D02*
G01*
X12265447Y-38813754D01*
X12281326Y-38876665D01*
X12263260Y-38938983D01*
X12216194Y-38983646D01*
X12181207Y-39002510D01*
X12050765Y-39115237D01*
X11949835Y-39255009D01*
X11883859Y-39414289D01*
X11856395Y-39584488D01*
X11868922Y-39756434D01*
X11898041Y-39853702D01*
X11935981Y-39945298D01*
X11935982Y-39945299D01*
X13067735Y-39476513D01*
X13741419Y-39197463D01*
X13770044Y-39158867D01*
X13824518Y-39133103D01*
X13884705Y-39136059D01*
X13936391Y-39167039D01*
X14376324Y-39606972D01*
X14403204Y-39647199D01*
X14412662Y-39670032D01*
X14421740Y-39726944D01*
X14404111Y-39781812D01*
X14363583Y-39822786D01*
X14308911Y-39841014D01*
X14260842Y-39845220D01*
X14241817Y-39849437D01*
X14170142Y-39875524D01*
X14166740Y-39876706D01*
X14139856Y-39885615D01*
X14074600Y-39889100D01*
X14016635Y-39858925D01*
X13982059Y-39803473D01*
X13966830Y-39752606D01*
X13928888Y-39661007D01*
X12831890Y-40115399D01*
X12831886Y-40115399D01*
X12127324Y-40407239D01*
X12165265Y-40498837D01*
X12213452Y-40588207D01*
X12326179Y-40718648D01*
X12465951Y-40819579D01*
X12484146Y-40827116D01*
X12535068Y-40866190D01*
X12559632Y-40925490D01*
X12551255Y-40989127D01*
X12543504Y-41007839D01*
X12534894Y-41061198D01*
X12517337Y-41170007D01*
X12516021Y-41178161D01*
X12528554Y-41350220D01*
X12557696Y-41447559D01*
X12697046Y-41783979D01*
X12704740Y-41852160D01*
X12675003Y-41913994D01*
X12616939Y-41950549D01*
X11717685Y-42210651D01*
X11714140Y-42211620D01*
X10469200Y-42532054D01*
X10465628Y-42532917D01*
X9211755Y-42816313D01*
X9208159Y-42817070D01*
X7946446Y-43063185D01*
X7942829Y-43063835D01*
X6674377Y-43272453D01*
X6670742Y-43272996D01*
X5396624Y-43443939D01*
X5392975Y-43444373D01*
X4114426Y-43577477D01*
X4110765Y-43577804D01*
X2828747Y-43672968D01*
X2825095Y-43673184D01*
X2704944Y-43678529D01*
X2686778Y-43679338D01*
X2628937Y-43667877D01*
X2582929Y-43630995D01*
X2559159Y-43577032D01*
X2563001Y-43518192D01*
X2593585Y-43467781D01*
X7274548Y-38786819D01*
X7314776Y-38759939D01*
X7362229Y-38750500D01*
X12157345Y-38750500D01*
X12219969Y-38767476D01*
G37*
%TD.AperFunction*%
%TA.AperFunction,Conductor*%
G36*
X-5379777Y-39059939D02*
G01*
X-5339548Y-39086819D01*
X-3921799Y-40504567D01*
X-3892358Y-40551532D01*
X-3886322Y-40606639D01*
X-3904904Y-40658868D01*
X-3944387Y-40697782D01*
X-4098040Y-40792556D01*
X-4219943Y-40914459D01*
X-4310453Y-41061198D01*
X-4364681Y-41224848D01*
X-4375000Y-41325853D01*
X-4375000Y-41425000D01*
X-3274000Y-41425000D01*
X-3212000Y-41441613D01*
X-3166613Y-41487000D01*
X-3150000Y-41549000D01*
X-3150000Y-41801000D01*
X-3166613Y-41863000D01*
X-3212000Y-41908387D01*
X-3274000Y-41925000D01*
X-4374999Y-41925000D01*
X-4374999Y-42024147D01*
X-4364681Y-42125150D01*
X-4310452Y-42288804D01*
X-4219945Y-42435536D01*
X-4206019Y-42449463D01*
X-4173923Y-42505052D01*
X-4173923Y-42569240D01*
X-4206019Y-42624829D01*
X-4220340Y-42639150D01*
X-4310908Y-42785984D01*
X-4329620Y-42842454D01*
X-4365174Y-42949747D01*
X-4375500Y-43050823D01*
X-4375499Y-43412719D01*
X-4394319Y-43478394D01*
X-4445067Y-43524134D01*
X-4512339Y-43536052D01*
X-5392975Y-43444373D01*
X-5396624Y-43443939D01*
X-6670742Y-43272996D01*
X-6674377Y-43272453D01*
X-7942828Y-43063835D01*
X-7946444Y-43063185D01*
X-9208158Y-42817070D01*
X-9211755Y-42816313D01*
X-10465627Y-42532917D01*
X-10469199Y-42532054D01*
X-11714140Y-42211620D01*
X-11717685Y-42210651D01*
X-12952555Y-41853475D01*
X-12956069Y-41852402D01*
X-14179822Y-41458786D01*
X-14183304Y-41457609D01*
X-14461166Y-41359058D01*
X-14511837Y-41325196D01*
X-14540255Y-41271284D01*
X-14539557Y-41210344D01*
X-14509910Y-41157097D01*
X-14464908Y-41109398D01*
X-14462395Y-41106811D01*
X-12442404Y-39086819D01*
X-12402176Y-39059939D01*
X-12354723Y-39050500D01*
X-5427230Y-39050500D01*
X-5379777Y-39059939D01*
G37*
%TD.AperFunction*%
%TA.AperFunction,Conductor*%
G36*
X-727000Y42682888D02*
G01*
X-681613Y42637501D01*
X-665000Y42575501D01*
X-665000Y41600000D01*
X-417176Y41600000D01*
X-357624Y41606402D01*
X-222910Y41656647D01*
X-107809Y41742811D01*
X-99578Y41753808D01*
X-55815Y41790380D01*
X-312Y41803496D01*
X55192Y41790380D01*
X98954Y41753807D01*
X107451Y41742455D01*
X222670Y41656203D01*
X287130Y41632160D01*
X328889Y41606173D01*
X390708Y41547849D01*
X393294Y41545336D01*
X4024272Y37914358D01*
X4036053Y37900727D01*
X4050392Y37881467D01*
X4088329Y37849633D01*
X4096289Y37842341D01*
X4100222Y37838408D01*
X4124545Y37819176D01*
X4127337Y37816902D01*
X4185744Y37767894D01*
X4202187Y37757418D01*
X4271294Y37725192D01*
X4274536Y37723622D01*
X4342692Y37689393D01*
X4361098Y37682996D01*
X4435788Y37667573D01*
X4439305Y37666793D01*
X4513505Y37649208D01*
X4532878Y37647229D01*
X4609131Y37649448D01*
X4612737Y37649500D01*
X12753246Y37649500D01*
X12771216Y37648191D01*
X12794975Y37644711D01*
X12844321Y37649028D01*
X12855128Y37649500D01*
X12860660Y37649500D01*
X12860661Y37649500D01*
X12878254Y37651556D01*
X12891448Y37653098D01*
X12895033Y37653464D01*
X12899084Y37653818D01*
X12969749Y37660001D01*
X12970993Y37660110D01*
X12990023Y37664329D01*
X12991203Y37664758D01*
X12991207Y37664759D01*
X13061694Y37690413D01*
X13065059Y37691582D01*
X13137476Y37715580D01*
X13155024Y37724075D01*
X13218736Y37765979D01*
X13221741Y37767894D01*
X13285608Y37807288D01*
X13286684Y37807952D01*
X13301782Y37820253D01*
X13302645Y37821168D01*
X13302648Y37821170D01*
X13354102Y37875708D01*
X13356615Y37878295D01*
X14443944Y38965624D01*
X14488291Y38994125D01*
X14540470Y39001627D01*
X14591050Y38986776D01*
X14614344Y38974056D01*
X14843310Y38879214D01*
X15177367Y39685699D01*
X15204247Y39725927D01*
X15276610Y39798290D01*
X15316838Y39825170D01*
X15364291Y39834609D01*
X15385253Y39834609D01*
X15432706Y39825170D01*
X15611450Y39751131D01*
X15662373Y39712056D01*
X15686936Y39652755D01*
X15678558Y39589117D01*
X15305251Y38687873D01*
X15534217Y38593032D01*
X15591677Y38576161D01*
X15735366Y38571028D01*
X15874677Y38606586D01*
X15886493Y38613597D01*
X15940920Y38630638D01*
X15997218Y38621515D01*
X16043477Y38588157D01*
X16069913Y38537621D01*
X16073420Y38523877D01*
X16146858Y38400103D01*
X16252195Y38302031D01*
X16275189Y38289476D01*
X16322404Y38243918D01*
X16339762Y38180644D01*
X16339762Y36773444D01*
X16338453Y36755474D01*
X16334973Y36731714D01*
X16339290Y36682369D01*
X16339762Y36671562D01*
X16339762Y36666029D01*
X16343360Y36635239D01*
X16343726Y36631655D01*
X16350371Y36555699D01*
X16354592Y36536659D01*
X16380683Y36464970D01*
X16381865Y36461569D01*
X16405841Y36389217D01*
X16414339Y36371663D01*
X16456232Y36307966D01*
X16458167Y36304928D01*
X16498205Y36240019D01*
X16510518Y36224902D01*
X16565970Y36172586D01*
X16568556Y36170074D01*
X21324272Y31414358D01*
X21336053Y31400727D01*
X21350392Y31381467D01*
X21388329Y31349633D01*
X21396289Y31342341D01*
X21400222Y31338408D01*
X21424545Y31319176D01*
X21427337Y31316902D01*
X21485744Y31267894D01*
X21502187Y31257418D01*
X21571294Y31225192D01*
X21574536Y31223622D01*
X21642692Y31189393D01*
X21661100Y31182995D01*
X21735777Y31167576D01*
X21739297Y31166796D01*
X21813507Y31149208D01*
X21832879Y31147229D01*
X21909132Y31149448D01*
X21912738Y31149500D01*
X28250946Y31149500D01*
X28310373Y31134332D01*
X28355262Y31092539D01*
X28374630Y31034345D01*
X28363740Y30973988D01*
X28319314Y30876712D01*
X28298854Y30734397D01*
X28319314Y30592081D01*
X28379043Y30461294D01*
X28416621Y30414663D01*
X28591864Y30239422D01*
X29281646Y30929204D01*
X29337233Y30961298D01*
X29401421Y30961298D01*
X29457008Y30929204D01*
X29635199Y30751013D01*
X29667293Y30695426D01*
X29667293Y30631238D01*
X29635199Y30575651D01*
X28945417Y29885869D01*
X29120658Y29710626D01*
X29167289Y29673048D01*
X29298076Y29613319D01*
X29440394Y29592858D01*
X29453991Y29594813D01*
X29510795Y29589729D01*
X29559316Y29559755D01*
X29589288Y29511234D01*
X29594372Y29454429D01*
X29592353Y29440392D01*
X29612835Y29297933D01*
X29672623Y29167018D01*
X29710238Y29120339D01*
X29748400Y29082178D01*
X29876869Y28953709D01*
X29903747Y28913484D01*
X29913186Y28866031D01*
X29913186Y23600020D01*
X29911877Y23582050D01*
X29908397Y23558290D01*
X29912714Y23508945D01*
X29913186Y23498138D01*
X29913186Y23492605D01*
X29916784Y23461815D01*
X29917150Y23458231D01*
X29923795Y23382275D01*
X29928016Y23363235D01*
X29954107Y23291546D01*
X29955289Y23288145D01*
X29979265Y23215793D01*
X29987763Y23198239D01*
X30029656Y23134542D01*
X30031591Y23131504D01*
X30071629Y23066595D01*
X30083943Y23051478D01*
X30139395Y22999161D01*
X30141981Y22996649D01*
X35337678Y17800953D01*
X35349458Y17787323D01*
X35363798Y17768062D01*
X35401746Y17736219D01*
X35409710Y17728922D01*
X35413635Y17724997D01*
X35437939Y17705779D01*
X35440730Y17703506D01*
X35499156Y17654482D01*
X35515585Y17644015D01*
X35584675Y17611797D01*
X35587917Y17610227D01*
X35656092Y17575989D01*
X35674504Y17569589D01*
X35749163Y17554173D01*
X35752682Y17553393D01*
X35826913Y17535800D01*
X35846285Y17533821D01*
X35922520Y17536039D01*
X35926125Y17536091D01*
X37747138Y17536091D01*
X37807856Y17520208D01*
X37853019Y17476629D01*
X37871059Y17416517D01*
X37875850Y17282376D01*
X37892721Y17224917D01*
X37987561Y16995951D01*
X37987562Y16995950D01*
X38866407Y17359980D01*
X38913860Y17369419D01*
X38961313Y17359980D01*
X39001541Y17333100D01*
X39046338Y17288303D01*
X39073218Y17248075D01*
X39147256Y17069332D01*
X39155634Y17005694D01*
X39131071Y16946393D01*
X39080148Y16907318D01*
X38178903Y16534010D01*
X38273744Y16305046D01*
X38302447Y16252482D01*
X38400418Y16147253D01*
X38524073Y16073885D01*
X38537383Y16070488D01*
X38587918Y16044053D01*
X38621275Y15997793D01*
X38630398Y15941496D01*
X38613357Y15887070D01*
X38606120Y15874872D01*
X38570527Y15735420D01*
X38575664Y15591588D01*
X38583045Y15566450D01*
X38584215Y15500850D01*
X38551748Y15443836D01*
X37414360Y14306448D01*
X37400727Y14294666D01*
X37381469Y14280329D01*
X37349631Y14242386D01*
X37342323Y14234411D01*
X37338409Y14230497D01*
X37319168Y14206162D01*
X37316890Y14203367D01*
X37267890Y14144971D01*
X37257422Y14128541D01*
X37225186Y14059411D01*
X37223615Y14056167D01*
X37189394Y13988026D01*
X37182997Y13969623D01*
X37167574Y13894931D01*
X37166794Y13891412D01*
X37149208Y13817210D01*
X37147229Y13797841D01*
X37149448Y13721589D01*
X37149500Y13717983D01*
X37149500Y7363706D01*
X37148191Y7345736D01*
X37144711Y7321976D01*
X37149028Y7272631D01*
X37149500Y7261824D01*
X37149500Y7256291D01*
X37153098Y7225501D01*
X37153464Y7221917D01*
X37160109Y7145961D01*
X37164330Y7126921D01*
X37190421Y7055232D01*
X37191603Y7051831D01*
X37215579Y6979479D01*
X37224077Y6961925D01*
X37265970Y6898228D01*
X37267905Y6895190D01*
X37307943Y6830281D01*
X37320257Y6815164D01*
X37375709Y6762847D01*
X37378295Y6760335D01*
X42068867Y2069764D01*
X42102112Y2009521D01*
X42098123Y1940830D01*
X42058127Y1884840D01*
X41994440Y1858793D01*
X41992624Y1858597D01*
X41857910Y1808352D01*
X41742811Y1722188D01*
X41656647Y1607089D01*
X41606402Y1472375D01*
X41600000Y1412824D01*
X41600000Y1165000D01*
X42575500Y1165000D01*
X42637500Y1148387D01*
X42682887Y1103000D01*
X42699500Y1041000D01*
X42699501Y789000D01*
X42682888Y727000D01*
X42637501Y681613D01*
X42575501Y665000D01*
X41600000Y665000D01*
X41600000Y417176D01*
X41606402Y357624D01*
X41656647Y222910D01*
X41742813Y107807D01*
X41753810Y99575D01*
X41790382Y55812D01*
X41803496Y309D01*
X41790379Y-55194D01*
X41753808Y-98953D01*
X41746609Y-104343D01*
X41742452Y-107455D01*
X41706110Y-156001D01*
X41656044Y-195510D01*
X41592962Y-204908D01*
X41500000Y-194434D01*
X41320748Y-214631D01*
X41320745Y-214631D01*
X41320745Y-214632D01*
X41150478Y-274211D01*
X41150476Y-274211D01*
X41150476Y-274212D01*
X40997735Y-370185D01*
X40870185Y-497735D01*
X40774212Y-650476D01*
X40774211Y-650478D01*
X40747435Y-727000D01*
X40714631Y-820748D01*
X40694434Y-999999D01*
X40714631Y-1179251D01*
X40714631Y-1179253D01*
X40714632Y-1179255D01*
X40774211Y-1349522D01*
X40774212Y-1349523D01*
X40870185Y-1502264D01*
X40997735Y-1629814D01*
X40997737Y-1629815D01*
X40997738Y-1629816D01*
X41150478Y-1725789D01*
X41320745Y-1785368D01*
X41500000Y-1805565D01*
X41679255Y-1785368D01*
X41717142Y-1772111D01*
X41776995Y-1766601D01*
X41832406Y-1789884D01*
X41857669Y-1808796D01*
X41992517Y-1859091D01*
X42052127Y-1865500D01*
X42525500Y-1865499D01*
X42587500Y-1882112D01*
X42632887Y-1927499D01*
X42649500Y-1989499D01*
X42649500Y-2594654D01*
X42635985Y-2650949D01*
X42598385Y-2694972D01*
X42544898Y-2717127D01*
X42487182Y-2712585D01*
X42437819Y-2682335D01*
X42435540Y-2680056D01*
X42288801Y-2589546D01*
X42125151Y-2535318D01*
X42024147Y-2525000D01*
X41925000Y-2525000D01*
X41925000Y-4474999D01*
X42024147Y-4474999D01*
X42125150Y-4464681D01*
X42288804Y-4410452D01*
X42435536Y-4319945D01*
X42449463Y-4306019D01*
X42505052Y-4273923D01*
X42569240Y-4273923D01*
X42624829Y-4306019D01*
X42639150Y-4320340D01*
X42785245Y-4410452D01*
X42785984Y-4410908D01*
X42949746Y-4465174D01*
X42959114Y-4466131D01*
X43050823Y-4475500D01*
X43402308Y-4475499D01*
X43467983Y-4494319D01*
X43513723Y-4545068D01*
X43525641Y-4612339D01*
X43460962Y-5233620D01*
X43457839Y-5251204D01*
X43457591Y-5252180D01*
X43452089Y-5318583D01*
X43451846Y-5321181D01*
X43444369Y-5393004D01*
X43443935Y-5396654D01*
X43421065Y-5567113D01*
X43394224Y-5629038D01*
X43338926Y-5667733D01*
X43271553Y-5671734D01*
X43212064Y-5639856D01*
X43100466Y-5532172D01*
X43100463Y-5532170D01*
X42924336Y-5417494D01*
X42924333Y-5417492D01*
X42924332Y-5417492D01*
X42729688Y-5338221D01*
X42035776Y-5200192D01*
X41879072Y-5184288D01*
X41669740Y-5203021D01*
X41467736Y-5261030D01*
X41280353Y-5356226D01*
X41114381Y-5485157D01*
X41056916Y-5550684D01*
X41014864Y-5581872D01*
X40963688Y-5592925D01*
X40470281Y-5592925D01*
X40452311Y-5591616D01*
X40438428Y-5589582D01*
X40428552Y-5588136D01*
X40428551Y-5588136D01*
X40379209Y-5592453D01*
X40368402Y-5592925D01*
X40362866Y-5592925D01*
X40332058Y-5596525D01*
X40328475Y-5596891D01*
X40252525Y-5603536D01*
X40233497Y-5607754D01*
X40161845Y-5633832D01*
X40158444Y-5635014D01*
X40086055Y-5659003D01*
X40068502Y-5667501D01*
X40004811Y-5709390D01*
X40001773Y-5711326D01*
X39936852Y-5751372D01*
X39921738Y-5763683D01*
X39869406Y-5819151D01*
X39866894Y-5821737D01*
X37114358Y-8574272D01*
X37100727Y-8586053D01*
X37081467Y-8600392D01*
X37049633Y-8638329D01*
X37042341Y-8646289D01*
X37038408Y-8650222D01*
X37019176Y-8674545D01*
X37016902Y-8677337D01*
X36967894Y-8735744D01*
X36957418Y-8752187D01*
X36925192Y-8821294D01*
X36923622Y-8824536D01*
X36889393Y-8892692D01*
X36882996Y-8911098D01*
X36867573Y-8985788D01*
X36866793Y-8989305D01*
X36849208Y-9063505D01*
X36847229Y-9082878D01*
X36849448Y-9159131D01*
X36849500Y-9162737D01*
X36849500Y-11953246D01*
X36848191Y-11971216D01*
X36844711Y-11994975D01*
X36849028Y-12044321D01*
X36849500Y-12055128D01*
X36849500Y-12060661D01*
X36851556Y-12078254D01*
X36853098Y-12091448D01*
X36853464Y-12095033D01*
X36860110Y-12170993D01*
X36864329Y-12190023D01*
X36864758Y-12191203D01*
X36864759Y-12191207D01*
X36890413Y-12261694D01*
X36891582Y-12265059D01*
X36915580Y-12337476D01*
X36924075Y-12355024D01*
X36965979Y-12418736D01*
X36967889Y-12421734D01*
X37007288Y-12485608D01*
X37007952Y-12486684D01*
X37020253Y-12501782D01*
X37021168Y-12502645D01*
X37021170Y-12502648D01*
X37068206Y-12547024D01*
X37075709Y-12554103D01*
X37078296Y-12556616D01*
X38454071Y-13932391D01*
X38965624Y-14443943D01*
X38994124Y-14488289D01*
X39001627Y-14540467D01*
X38986777Y-14591047D01*
X38974057Y-14614343D01*
X38879214Y-14843310D01*
X39685701Y-15177368D01*
X39725929Y-15204248D01*
X39798290Y-15276609D01*
X39825170Y-15316837D01*
X39834609Y-15364290D01*
X39834609Y-15385253D01*
X39825170Y-15432706D01*
X39751131Y-15611450D01*
X39712056Y-15662373D01*
X39652755Y-15686936D01*
X39589117Y-15678558D01*
X38687873Y-15305250D01*
X38687872Y-15305251D01*
X38593032Y-15534217D01*
X38576161Y-15591677D01*
X38571028Y-15735366D01*
X38606586Y-15874677D01*
X38613597Y-15886493D01*
X38630638Y-15940920D01*
X38621515Y-15997218D01*
X38588157Y-16043477D01*
X38537621Y-16069913D01*
X38523877Y-16073420D01*
X38400103Y-16146858D01*
X38302031Y-16252195D01*
X38289476Y-16275189D01*
X38243918Y-16322404D01*
X38180644Y-16339762D01*
X36854797Y-16339762D01*
X36836827Y-16338453D01*
X36822944Y-16336419D01*
X36813068Y-16334973D01*
X36813067Y-16334973D01*
X36763722Y-16339290D01*
X36752915Y-16339762D01*
X36747382Y-16339762D01*
X36716592Y-16343360D01*
X36713008Y-16343726D01*
X36637052Y-16350371D01*
X36618012Y-16354592D01*
X36546323Y-16380683D01*
X36542922Y-16381865D01*
X36470570Y-16405841D01*
X36453016Y-16414339D01*
X36389319Y-16456232D01*
X36386281Y-16458167D01*
X36321372Y-16498205D01*
X36306255Y-16510518D01*
X36253939Y-16565970D01*
X36251427Y-16568556D01*
X31274059Y-21545924D01*
X31260428Y-21557705D01*
X31241168Y-21572044D01*
X31209334Y-21609981D01*
X31202042Y-21617941D01*
X31198109Y-21621874D01*
X31178877Y-21646197D01*
X31176603Y-21648989D01*
X31127595Y-21707396D01*
X31117119Y-21723839D01*
X31084893Y-21792946D01*
X31083323Y-21796188D01*
X31049094Y-21864344D01*
X31042697Y-21882750D01*
X31027274Y-21957440D01*
X31026494Y-21960957D01*
X31008909Y-22035157D01*
X31006930Y-22054530D01*
X31009149Y-22130783D01*
X31009201Y-22134389D01*
X31009201Y-28195260D01*
X30989517Y-28262299D01*
X30936713Y-28308054D01*
X30867555Y-28317998D01*
X30734397Y-28298853D01*
X30592081Y-28319314D01*
X30461294Y-28379043D01*
X30414663Y-28416621D01*
X30239422Y-28591864D01*
X30929204Y-29281646D01*
X30961298Y-29337233D01*
X30961298Y-29401421D01*
X30929204Y-29457008D01*
X30751013Y-29635199D01*
X30695426Y-29667293D01*
X30631238Y-29667293D01*
X30575651Y-29635199D01*
X29885869Y-28945417D01*
X29710626Y-29120658D01*
X29673048Y-29167289D01*
X29613319Y-29298076D01*
X29592858Y-29440394D01*
X29594813Y-29453991D01*
X29589729Y-29510795D01*
X29559755Y-29559316D01*
X29511234Y-29589288D01*
X29454429Y-29594372D01*
X29440392Y-29592353D01*
X29297933Y-29612835D01*
X29167018Y-29672623D01*
X29120339Y-29710238D01*
X29075448Y-29755130D01*
X28953709Y-29876869D01*
X28913484Y-29903747D01*
X28866031Y-29913186D01*
X23400020Y-29913186D01*
X23382050Y-29911877D01*
X23368167Y-29909843D01*
X23358291Y-29908397D01*
X23358290Y-29908397D01*
X23308948Y-29912714D01*
X23298141Y-29913186D01*
X23292605Y-29913186D01*
X23261797Y-29916786D01*
X23258214Y-29917152D01*
X23182264Y-29923797D01*
X23163236Y-29928015D01*
X23091584Y-29954093D01*
X23088183Y-29955275D01*
X23015794Y-29979264D01*
X22998241Y-29987762D01*
X22934550Y-30029651D01*
X22931512Y-30031587D01*
X22866591Y-30071633D01*
X22851477Y-30083944D01*
X22799145Y-30139412D01*
X22796633Y-30141998D01*
X17604305Y-35334325D01*
X17590674Y-35346106D01*
X17571414Y-35360445D01*
X17539580Y-35398382D01*
X17532288Y-35406342D01*
X17528355Y-35410275D01*
X17509123Y-35434598D01*
X17506849Y-35437390D01*
X17457841Y-35495797D01*
X17447365Y-35512240D01*
X17415139Y-35581347D01*
X17413569Y-35584589D01*
X17379340Y-35652745D01*
X17372943Y-35671151D01*
X17357520Y-35745841D01*
X17356740Y-35749358D01*
X17339155Y-35823558D01*
X17337176Y-35842931D01*
X17339395Y-35919184D01*
X17339447Y-35922790D01*
X17339447Y-37766268D01*
X17328241Y-37817780D01*
X17296649Y-37859982D01*
X17250380Y-37885246D01*
X17224910Y-37892724D01*
X16995951Y-37987561D01*
X16995950Y-37987562D01*
X17330008Y-38794047D01*
X17339447Y-38841500D01*
X17339447Y-38943833D01*
X17330008Y-38991286D01*
X17303128Y-39031514D01*
X17288303Y-39046339D01*
X17248074Y-39073219D01*
X17069331Y-39147256D01*
X17005693Y-39155634D01*
X16946392Y-39131071D01*
X16907318Y-39080148D01*
X16534011Y-38178903D01*
X16305046Y-38273744D01*
X16252482Y-38302447D01*
X16147253Y-38400418D01*
X16073885Y-38524073D01*
X16070488Y-38537383D01*
X16044053Y-38587918D01*
X15997793Y-38621275D01*
X15941496Y-38630398D01*
X15887070Y-38613357D01*
X15874872Y-38606120D01*
X15735420Y-38570527D01*
X15591587Y-38575664D01*
X15566448Y-38583045D01*
X15500848Y-38584215D01*
X15443835Y-38551748D01*
X14942758Y-38050671D01*
X14406448Y-37514360D01*
X14394666Y-37500727D01*
X14383285Y-37485440D01*
X14380330Y-37481470D01*
X14342387Y-37449631D01*
X14334411Y-37442323D01*
X14330502Y-37438414D01*
X14330501Y-37438413D01*
X14330497Y-37438409D01*
X14306143Y-37419152D01*
X14303367Y-37416890D01*
X14244971Y-37367890D01*
X14228541Y-37357422D01*
X14159411Y-37325186D01*
X14156167Y-37323615D01*
X14088026Y-37289394D01*
X14069623Y-37282997D01*
X13994931Y-37267574D01*
X13991412Y-37266794D01*
X13917210Y-37249208D01*
X13897841Y-37247229D01*
X13821589Y-37249448D01*
X13817983Y-37249500D01*
X7063706Y-37249500D01*
X7045736Y-37248191D01*
X7031853Y-37246157D01*
X7021977Y-37244711D01*
X7021976Y-37244711D01*
X6972634Y-37249028D01*
X6961827Y-37249500D01*
X6956289Y-37249500D01*
X6925487Y-37253099D01*
X6921906Y-37253465D01*
X6845952Y-37260111D01*
X6826926Y-37264329D01*
X6755245Y-37290417D01*
X6751842Y-37291600D01*
X6679474Y-37315580D01*
X6661927Y-37324076D01*
X6598236Y-37365965D01*
X6595196Y-37367902D01*
X6530280Y-37407943D01*
X6515165Y-37420255D01*
X6462848Y-37475708D01*
X6460336Y-37478294D01*
X2018777Y-41919853D01*
X1966030Y-41951149D01*
X1904737Y-41953338D01*
X1849892Y-41925884D01*
X1814913Y-41875503D01*
X1808351Y-41857910D01*
X1722188Y-41742811D01*
X1607089Y-41656647D01*
X1472375Y-41606402D01*
X1412824Y-41600000D01*
X1165000Y-41600000D01*
X1165000Y-42575500D01*
X1148387Y-42637500D01*
X1103000Y-42682887D01*
X1041000Y-42699500D01*
X953405Y-42699500D01*
X788998Y-42699500D01*
X727000Y-42682888D01*
X681613Y-42637501D01*
X665000Y-42575501D01*
X665000Y-41600000D01*
X417176Y-41600000D01*
X357624Y-41606402D01*
X222910Y-41656647D01*
X107809Y-41742811D01*
X99578Y-41753808D01*
X55815Y-41790380D01*
X312Y-41803496D01*
X-55192Y-41790380D01*
X-98954Y-41753807D01*
X-107451Y-41742455D01*
X-222668Y-41656204D01*
X-357516Y-41605909D01*
X-369438Y-41604627D01*
X-417127Y-41599500D01*
X-417131Y-41599500D01*
X-652769Y-41599500D01*
X-700222Y-41590061D01*
X-740450Y-41563181D01*
X-4489272Y-37814358D01*
X-4501053Y-37800727D01*
X-4515392Y-37781467D01*
X-4553329Y-37749633D01*
X-4561289Y-37742341D01*
X-4565222Y-37738408D01*
X-4589545Y-37719176D01*
X-4592337Y-37716902D01*
X-4650744Y-37667894D01*
X-4667187Y-37657418D01*
X-4736294Y-37625192D01*
X-4739536Y-37623622D01*
X-4807692Y-37589393D01*
X-4826098Y-37582996D01*
X-4900788Y-37567573D01*
X-4904305Y-37566793D01*
X-4978505Y-37549208D01*
X-4997878Y-37547229D01*
X-5074131Y-37549448D01*
X-5077737Y-37549500D01*
X-12653246Y-37549500D01*
X-12671216Y-37548191D01*
X-12694975Y-37544711D01*
X-12724178Y-37547266D01*
X-12744318Y-37549028D01*
X-12755125Y-37549500D01*
X-12760663Y-37549500D01*
X-12791463Y-37553099D01*
X-12795045Y-37553465D01*
X-12871002Y-37560111D01*
X-12890024Y-37564328D01*
X-12928674Y-37578395D01*
X-12961700Y-37590415D01*
X-12965084Y-37591592D01*
X-13037480Y-37615581D01*
X-13055023Y-37624075D01*
X-13118736Y-37665979D01*
X-13121734Y-37667889D01*
X-13185608Y-37707288D01*
X-13186684Y-37707952D01*
X-13201782Y-37720253D01*
X-13202645Y-37721168D01*
X-13202648Y-37721170D01*
X-13226218Y-37746153D01*
X-13254102Y-37775708D01*
X-13256615Y-37778295D01*
X-14443944Y-38965624D01*
X-14488291Y-38994125D01*
X-14540470Y-39001627D01*
X-14591050Y-38986776D01*
X-14614344Y-38974056D01*
X-14843310Y-38879214D01*
X-15177367Y-39685699D01*
X-15204247Y-39725927D01*
X-15276610Y-39798290D01*
X-15316838Y-39825170D01*
X-15364291Y-39834609D01*
X-15385253Y-39834609D01*
X-15432706Y-39825170D01*
X-15611450Y-39751131D01*
X-15662373Y-39712056D01*
X-15686936Y-39652755D01*
X-15678558Y-39589117D01*
X-15305250Y-38687873D01*
X-15305251Y-38687872D01*
X-15534217Y-38593032D01*
X-15591677Y-38576161D01*
X-15735366Y-38571028D01*
X-15874677Y-38606586D01*
X-15886493Y-38613597D01*
X-15940920Y-38630638D01*
X-15997218Y-38621515D01*
X-16043477Y-38588157D01*
X-16069913Y-38537621D01*
X-16073420Y-38523877D01*
X-16146858Y-38400103D01*
X-16252195Y-38302031D01*
X-16275189Y-38289476D01*
X-16322404Y-38243918D01*
X-16339762Y-38180644D01*
X-16339762Y-36673444D01*
X-16338453Y-36655474D01*
X-16334973Y-36631714D01*
X-16339290Y-36582369D01*
X-16339762Y-36571562D01*
X-16339762Y-36566029D01*
X-16343360Y-36535239D01*
X-16343726Y-36531655D01*
X-16350371Y-36455699D01*
X-16354592Y-36436659D01*
X-16380683Y-36364970D01*
X-16381865Y-36361569D01*
X-16405841Y-36289217D01*
X-16414339Y-36271663D01*
X-16456232Y-36207966D01*
X-16458167Y-36204928D01*
X-16498205Y-36140019D01*
X-16510518Y-36124902D01*
X-16565970Y-36072586D01*
X-16568556Y-36070074D01*
X-21124272Y-31514358D01*
X-21136053Y-31500727D01*
X-21150392Y-31481467D01*
X-21188329Y-31449633D01*
X-21196289Y-31442341D01*
X-21200222Y-31438408D01*
X-21224545Y-31419176D01*
X-21227337Y-31416902D01*
X-21285744Y-31367894D01*
X-21302187Y-31357418D01*
X-21371294Y-31325192D01*
X-21374536Y-31323622D01*
X-21442692Y-31289393D01*
X-21461098Y-31282996D01*
X-21535788Y-31267573D01*
X-21539305Y-31266793D01*
X-21613505Y-31249208D01*
X-21632878Y-31247229D01*
X-21709131Y-31249448D01*
X-21712737Y-31249500D01*
X-28314884Y-31249500D01*
X-28380990Y-31230410D01*
X-28426741Y-31179017D01*
X-28438050Y-31111146D01*
X-28411436Y-31047694D01*
X-28379042Y-31007495D01*
X-28319314Y-30876712D01*
X-28298853Y-30734396D01*
X-28319314Y-30592081D01*
X-28379043Y-30461294D01*
X-28416621Y-30414663D01*
X-28591864Y-30239422D01*
X-29281646Y-30929204D01*
X-29337233Y-30961298D01*
X-29401421Y-30961298D01*
X-29457008Y-30929204D01*
X-29635199Y-30751013D01*
X-29667293Y-30695426D01*
X-29667293Y-30631238D01*
X-29635199Y-30575651D01*
X-28945417Y-29885869D01*
X-29120658Y-29710626D01*
X-29167289Y-29673048D01*
X-29298076Y-29613319D01*
X-29440394Y-29592858D01*
X-29453991Y-29594813D01*
X-29510795Y-29589729D01*
X-29559316Y-29559755D01*
X-29589288Y-29511234D01*
X-29594372Y-29454429D01*
X-29592353Y-29440392D01*
X-29612835Y-29297933D01*
X-29672623Y-29167018D01*
X-29710238Y-29120339D01*
X-29838428Y-28992151D01*
X-29876869Y-28953709D01*
X-29903747Y-28913484D01*
X-29913186Y-28866031D01*
X-29913186Y-23600020D01*
X-29911877Y-23582050D01*
X-29908397Y-23558290D01*
X-29912714Y-23508945D01*
X-29913186Y-23498138D01*
X-29913186Y-23492605D01*
X-29916784Y-23461815D01*
X-29917150Y-23458231D01*
X-29923795Y-23382275D01*
X-29928016Y-23363235D01*
X-29954107Y-23291546D01*
X-29955289Y-23288145D01*
X-29979266Y-23215788D01*
X-29987761Y-23198241D01*
X-30029661Y-23134535D01*
X-30031598Y-23131495D01*
X-30071630Y-23066594D01*
X-30083943Y-23051478D01*
X-30139412Y-22999145D01*
X-30141998Y-22996633D01*
X-35230705Y-17907925D01*
X-35242486Y-17894294D01*
X-35256825Y-17875034D01*
X-35294762Y-17843200D01*
X-35302722Y-17835908D01*
X-35306655Y-17831975D01*
X-35330978Y-17812743D01*
X-35333770Y-17810469D01*
X-35392177Y-17761461D01*
X-35408620Y-17750985D01*
X-35477727Y-17718759D01*
X-35480969Y-17717189D01*
X-35549125Y-17682960D01*
X-35567531Y-17676563D01*
X-35642221Y-17661140D01*
X-35645738Y-17660360D01*
X-35719938Y-17642775D01*
X-35739311Y-17640796D01*
X-35815564Y-17643015D01*
X-35819170Y-17643067D01*
X-37766480Y-17643067D01*
X-37820993Y-17630442D01*
X-37864405Y-17595137D01*
X-37887877Y-17544342D01*
X-37886628Y-17488400D01*
X-37870717Y-17426066D01*
X-37875850Y-17282377D01*
X-37892721Y-17224917D01*
X-37987561Y-16995951D01*
X-37987562Y-16995950D01*
X-38866408Y-17359981D01*
X-38913861Y-17369420D01*
X-38961314Y-17359981D01*
X-39001542Y-17333101D01*
X-39046338Y-17288305D01*
X-39073218Y-17248077D01*
X-39147257Y-17069332D01*
X-39155635Y-17005694D01*
X-39131072Y-16946393D01*
X-39080149Y-16907318D01*
X-38178903Y-16534011D01*
X-38273744Y-16305046D01*
X-38302447Y-16252482D01*
X-38400418Y-16147253D01*
X-38524073Y-16073885D01*
X-38537383Y-16070488D01*
X-38587918Y-16044053D01*
X-38621275Y-15997793D01*
X-38630398Y-15941496D01*
X-38613357Y-15887070D01*
X-38606120Y-15874872D01*
X-38570527Y-15735420D01*
X-38575664Y-15591587D01*
X-38583045Y-15566448D01*
X-38584215Y-15500848D01*
X-38551748Y-15443835D01*
X-37539364Y-14431451D01*
X-37525731Y-14419669D01*
X-37515820Y-14412291D01*
X-37506470Y-14405330D01*
X-37474625Y-14367379D01*
X-37467317Y-14359404D01*
X-37463415Y-14355502D01*
X-37463410Y-14355497D01*
X-37444148Y-14331136D01*
X-37441916Y-14328397D01*
X-37392893Y-14269976D01*
X-37382420Y-14253537D01*
X-37350198Y-14184437D01*
X-37348627Y-14181193D01*
X-37314395Y-14113029D01*
X-37307998Y-14094626D01*
X-37292583Y-14019971D01*
X-37291803Y-14016451D01*
X-37274209Y-13942215D01*
X-37272230Y-13922843D01*
X-37274448Y-13846609D01*
X-37274500Y-13843004D01*
X-37274500Y-13025534D01*
X-37273191Y-13007564D01*
X-37269711Y-12983804D01*
X-37274028Y-12934459D01*
X-37274500Y-12923652D01*
X-37274500Y-12918119D01*
X-37278098Y-12887329D01*
X-37278464Y-12883745D01*
X-37285109Y-12807789D01*
X-37289330Y-12788749D01*
X-37315421Y-12717060D01*
X-37316603Y-12713658D01*
X-37343205Y-12633382D01*
X-37349500Y-12594377D01*
X-37349500Y-7028706D01*
X-37348191Y-7010736D01*
X-37344711Y-6986976D01*
X-37349028Y-6937631D01*
X-37349500Y-6926824D01*
X-37349500Y-6921291D01*
X-37353098Y-6890501D01*
X-37353464Y-6886917D01*
X-37360109Y-6810961D01*
X-37364330Y-6791921D01*
X-37390421Y-6720232D01*
X-37391603Y-6716831D01*
X-37415580Y-6644474D01*
X-37424075Y-6626927D01*
X-37465975Y-6563221D01*
X-37467912Y-6560181D01*
X-37507944Y-6495280D01*
X-37520257Y-6480164D01*
X-37575726Y-6427831D01*
X-37578312Y-6425319D01*
X-41967195Y-2036435D01*
X-41998491Y-1983689D01*
X-42000680Y-1922396D01*
X-41973227Y-1867551D01*
X-41922847Y-1832572D01*
X-41857911Y-1808352D01*
X-41742811Y-1722188D01*
X-41656647Y-1607089D01*
X-41606402Y-1472375D01*
X-41600000Y-1412824D01*
X-41600000Y-1165000D01*
X-42575500Y-1165000D01*
X-42637500Y-1148387D01*
X-42682887Y-1103000D01*
X-42699500Y-1041000D01*
X-42699501Y-789000D01*
X-42682888Y-727000D01*
X-42637501Y-681613D01*
X-42575501Y-665000D01*
X-41600000Y-665000D01*
X-41600000Y-417176D01*
X-41606402Y-357624D01*
X-41656647Y-222910D01*
X-41742811Y-107809D01*
X-41753808Y-99578D01*
X-41790380Y-55815D01*
X-41803496Y-312D01*
X-41803422Y0D01*
X-37505521Y0D01*
X-37485440Y-1227146D01*
X-37425219Y-2452978D01*
X-37324922Y-3676184D01*
X-37184656Y-4895453D01*
X-37004572Y-6109480D01*
X-36784863Y-7316964D01*
X-36525763Y-8516614D01*
X-36227551Y-9707143D01*
X-35890546Y-10887278D01*
X-35515108Y-12055755D01*
X-35440218Y-12265059D01*
X-35103486Y-13206162D01*
X-35101639Y-13211322D01*
X-34650583Y-14352742D01*
X-34162422Y-15478792D01*
X-33637679Y-16588268D01*
X-33076917Y-17679980D01*
X-32480734Y-18752761D01*
X-31849770Y-19805460D01*
X-31184701Y-20836951D01*
X-30486238Y-21846129D01*
X-29755130Y-22831915D01*
X-28992160Y-23793251D01*
X-28198144Y-24729108D01*
X-27373932Y-25638485D01*
X-26520408Y-26520408D01*
X-25638485Y-27373932D01*
X-24729108Y-28198144D01*
X-23793251Y-28992160D01*
X-22831915Y-29755130D01*
X-21846129Y-30486238D01*
X-20836951Y-31184701D01*
X-19805460Y-31849770D01*
X-18752761Y-32480734D01*
X-17679980Y-33076917D01*
X-16588268Y-33637679D01*
X-15478792Y-34162422D01*
X-14352742Y-34650583D01*
X-13298904Y-35067029D01*
X-13211309Y-35101644D01*
X-12503134Y-35355033D01*
X-12055755Y-35515108D01*
X-10887278Y-35890546D01*
X-9707143Y-36227551D01*
X-8516614Y-36525763D01*
X-7316964Y-36784863D01*
X-6109480Y-37004572D01*
X-4895453Y-37184656D01*
X-3676184Y-37324922D01*
X-2452978Y-37425219D01*
X-1227146Y-37485440D01*
X0Y-37505521D01*
X1227146Y-37485440D01*
X2452978Y-37425219D01*
X3676184Y-37324922D01*
X4895453Y-37184656D01*
X6109480Y-37004572D01*
X7316964Y-36784863D01*
X8516614Y-36525763D01*
X9707143Y-36227551D01*
X10887278Y-35890546D01*
X12055755Y-35515108D01*
X12503134Y-35355033D01*
X13211309Y-35101644D01*
X13298904Y-35067029D01*
X14352742Y-34650583D01*
X15478792Y-34162422D01*
X16588268Y-33637679D01*
X17679980Y-33076917D01*
X18752761Y-32480734D01*
X19805460Y-31849770D01*
X20836951Y-31184701D01*
X21846129Y-30486238D01*
X22831915Y-29755130D01*
X23793251Y-28992160D01*
X24729108Y-28198144D01*
X25638485Y-27373932D01*
X26520408Y-26520408D01*
X27373932Y-25638485D01*
X28198144Y-24729108D01*
X28992160Y-23793251D01*
X29755130Y-22831915D01*
X30486238Y-21846129D01*
X31184701Y-20836951D01*
X31849770Y-19805460D01*
X32480734Y-18752761D01*
X33076917Y-17679980D01*
X33637679Y-16588268D01*
X34162422Y-15478792D01*
X34650583Y-14352742D01*
X35101639Y-13211322D01*
X35103486Y-13206162D01*
X35440218Y-12265059D01*
X35515108Y-12055755D01*
X35890546Y-10887278D01*
X36227551Y-9707143D01*
X36525763Y-8516614D01*
X36784863Y-7316964D01*
X37004572Y-6109480D01*
X37184656Y-4895453D01*
X37316430Y-3750000D01*
X40637501Y-3750000D01*
X40637501Y-3786647D01*
X40647818Y-3887650D01*
X40702046Y-4051301D01*
X40792556Y-4198040D01*
X40914459Y-4319943D01*
X41061198Y-4410453D01*
X41224848Y-4464681D01*
X41325853Y-4475000D01*
X41425000Y-4475000D01*
X41425000Y-3750000D01*
X40637501Y-3750000D01*
X37316430Y-3750000D01*
X37324922Y-3676184D01*
X37359867Y-3250000D01*
X40637500Y-3250000D01*
X41425000Y-3250000D01*
X41425000Y-2525001D01*
X41325853Y-2525001D01*
X41224849Y-2535318D01*
X41061198Y-2589546D01*
X40914459Y-2680056D01*
X40792556Y-2801959D01*
X40702046Y-2948698D01*
X40647818Y-3112348D01*
X40637500Y-3213353D01*
X40637500Y-3250000D01*
X37359867Y-3250000D01*
X37425219Y-2452978D01*
X37485440Y-1227146D01*
X37505521Y0D01*
X37485440Y1227146D01*
X37425219Y2452978D01*
X37324922Y3676184D01*
X37184656Y4895453D01*
X37004572Y6109480D01*
X36784863Y7316964D01*
X36525763Y8516614D01*
X36227551Y9707143D01*
X35890546Y10887278D01*
X35515108Y12055755D01*
X35338670Y12548865D01*
X35101644Y13211309D01*
X35065891Y13301784D01*
X34650583Y14352742D01*
X34162422Y15478792D01*
X33637679Y16588268D01*
X33076917Y17679980D01*
X32480734Y18752760D01*
X31849770Y19805460D01*
X31184701Y20836951D01*
X30486238Y21846129D01*
X29755130Y22831915D01*
X28992160Y23793251D01*
X28198144Y24729108D01*
X27373932Y25638485D01*
X26520408Y26520408D01*
X25638485Y27373932D01*
X24729108Y28198144D01*
X23793251Y28992160D01*
X22831915Y29755130D01*
X21846129Y30486238D01*
X20836951Y31184701D01*
X19805460Y31849770D01*
X18752761Y32480734D01*
X17679980Y33076917D01*
X16588268Y33637679D01*
X15478792Y34162422D01*
X14352742Y34650583D01*
X13211322Y35101639D01*
X13211318Y35101640D01*
X13211309Y35101644D01*
X12152883Y35480355D01*
X12055755Y35515108D01*
X10887278Y35890546D01*
X9707143Y36227551D01*
X8516614Y36525763D01*
X7316964Y36784863D01*
X6109480Y37004572D01*
X4895453Y37184656D01*
X3676184Y37324922D01*
X2452978Y37425219D01*
X1227146Y37485440D01*
X0Y37505521D01*
X-1227146Y37485440D01*
X-2452978Y37425219D01*
X-3676184Y37324922D01*
X-4895453Y37184656D01*
X-6109480Y37004572D01*
X-7316964Y36784863D01*
X-8516614Y36525763D01*
X-9707143Y36227551D01*
X-10887278Y35890546D01*
X-12055755Y35515108D01*
X-12152883Y35480355D01*
X-13211309Y35101644D01*
X-13211318Y35101640D01*
X-13211322Y35101639D01*
X-14352742Y34650583D01*
X-15478792Y34162422D01*
X-16588268Y33637679D01*
X-17679980Y33076917D01*
X-18752760Y32480734D01*
X-19805460Y31849770D01*
X-20836951Y31184701D01*
X-21846129Y30486238D01*
X-22831915Y29755130D01*
X-23793251Y28992160D01*
X-24729108Y28198144D01*
X-25638485Y27373932D01*
X-26520408Y26520408D01*
X-27373932Y25638485D01*
X-28198144Y24729108D01*
X-28992160Y23793251D01*
X-29755130Y22831915D01*
X-30486238Y21846129D01*
X-31184701Y20836951D01*
X-31849770Y19805460D01*
X-32480734Y18752760D01*
X-33076917Y17679980D01*
X-33637679Y16588268D01*
X-34162422Y15478792D01*
X-34650583Y14352742D01*
X-35065891Y13301784D01*
X-35101644Y13211309D01*
X-35338670Y12548865D01*
X-35515108Y12055755D01*
X-35890546Y10887278D01*
X-36227551Y9707143D01*
X-36525763Y8516614D01*
X-36784863Y7316964D01*
X-37004572Y6109480D01*
X-37184656Y4895453D01*
X-37324922Y3676184D01*
X-37425219Y2452978D01*
X-37485440Y1227146D01*
X-37505521Y0D01*
X-41803422Y0D01*
X-41790380Y55192D01*
X-41753807Y98954D01*
X-41742455Y107451D01*
X-41656204Y222668D01*
X-41605909Y357516D01*
X-41599500Y417131D01*
X-41599500Y652769D01*
X-41590061Y700222D01*
X-41563181Y740450D01*
X-37914358Y4389272D01*
X-37900727Y4401053D01*
X-37881467Y4415392D01*
X-37849633Y4453329D01*
X-37842341Y4461289D01*
X-37838408Y4465222D01*
X-37819176Y4489545D01*
X-37816902Y4492337D01*
X-37767894Y4550744D01*
X-37757418Y4567187D01*
X-37725192Y4636294D01*
X-37723622Y4639536D01*
X-37689393Y4707692D01*
X-37682996Y4726098D01*
X-37667573Y4800788D01*
X-37666793Y4804305D01*
X-37649208Y4878505D01*
X-37647229Y4897878D01*
X-37649448Y4974131D01*
X-37649500Y4977737D01*
X-37649500Y12753246D01*
X-37648191Y12771216D01*
X-37644711Y12794975D01*
X-37649028Y12844321D01*
X-37649500Y12855128D01*
X-37649500Y12860660D01*
X-37653098Y12891448D01*
X-37653464Y12895033D01*
X-37658497Y12952556D01*
X-37660001Y12969749D01*
X-37660110Y12970993D01*
X-37664329Y12990023D01*
X-37664758Y12991203D01*
X-37664759Y12991207D01*
X-37690413Y13061694D01*
X-37691582Y13065059D01*
X-37715582Y13137482D01*
X-37724073Y13155018D01*
X-37724761Y13156064D01*
X-37724763Y13156069D01*
X-37765991Y13218754D01*
X-37767902Y13221752D01*
X-37807953Y13286685D01*
X-37820255Y13301784D01*
X-37821168Y13302646D01*
X-37821170Y13302648D01*
X-37875726Y13354119D01*
X-37878313Y13356632D01*
X-38830590Y14308909D01*
X-38965625Y14443944D01*
X-38994124Y14488289D01*
X-39001627Y14540467D01*
X-38986777Y14591047D01*
X-38974057Y14614343D01*
X-38879214Y14843310D01*
X-39685699Y15177367D01*
X-39725927Y15204247D01*
X-39798290Y15276610D01*
X-39825170Y15316838D01*
X-39834609Y15364291D01*
X-39834609Y15385253D01*
X-39825170Y15432706D01*
X-39751131Y15611450D01*
X-39712056Y15662373D01*
X-39652755Y15686936D01*
X-39589117Y15678558D01*
X-38687873Y15305250D01*
X-38687872Y15305251D01*
X-38593032Y15534217D01*
X-38576161Y15591677D01*
X-38571028Y15735366D01*
X-38606586Y15874677D01*
X-38613597Y15886493D01*
X-38630638Y15940920D01*
X-38621515Y15997218D01*
X-38588157Y16043477D01*
X-38537621Y16069913D01*
X-38523877Y16073420D01*
X-38400103Y16146858D01*
X-38302031Y16252195D01*
X-38289476Y16275189D01*
X-38243918Y16322404D01*
X-38180644Y16339762D01*
X-36773444Y16339762D01*
X-36755474Y16338453D01*
X-36741591Y16336419D01*
X-36731715Y16334973D01*
X-36731714Y16334973D01*
X-36682369Y16339290D01*
X-36671562Y16339762D01*
X-36666029Y16339762D01*
X-36635239Y16343360D01*
X-36631655Y16343726D01*
X-36555699Y16350371D01*
X-36536659Y16354592D01*
X-36464970Y16380683D01*
X-36461569Y16381865D01*
X-36389217Y16405841D01*
X-36371663Y16414339D01*
X-36307966Y16456232D01*
X-36304928Y16458167D01*
X-36240019Y16498205D01*
X-36224902Y16510519D01*
X-36172585Y16565971D01*
X-36170073Y16568557D01*
X-31214362Y21524269D01*
X-31200732Y21536049D01*
X-31181471Y21550389D01*
X-31149628Y21588337D01*
X-31142331Y21596301D01*
X-31138406Y21600226D01*
X-31119188Y21624530D01*
X-31116915Y21627321D01*
X-31067891Y21685747D01*
X-31057424Y21702176D01*
X-31025206Y21771266D01*
X-31023636Y21774508D01*
X-30989398Y21842683D01*
X-30982998Y21861095D01*
X-30967582Y21935754D01*
X-30966802Y21939273D01*
X-30949209Y22013504D01*
X-30947230Y22032876D01*
X-30949448Y22109111D01*
X-30949500Y22112716D01*
X-30949500Y28023121D01*
X-30948191Y28041091D01*
X-30944711Y28064850D01*
X-30949028Y28114196D01*
X-30949500Y28125003D01*
X-30949500Y28130535D01*
X-30953098Y28161323D01*
X-30953465Y28164915D01*
X-30954492Y28176661D01*
X-30946883Y28231490D01*
X-30916174Y28277546D01*
X-30868484Y28305649D01*
X-30813317Y28310200D01*
X-30734397Y28298853D01*
X-30592081Y28319314D01*
X-30461294Y28379043D01*
X-30414663Y28416621D01*
X-30239422Y28591864D01*
X-30929204Y29281646D01*
X-30961298Y29337233D01*
X-30961298Y29401421D01*
X-30929204Y29457008D01*
X-30751013Y29635199D01*
X-30695426Y29667293D01*
X-30631238Y29667293D01*
X-30575651Y29635199D01*
X-29885869Y28945417D01*
X-29710626Y29120658D01*
X-29673048Y29167289D01*
X-29613319Y29298076D01*
X-29592858Y29440394D01*
X-29594813Y29453991D01*
X-29589729Y29510795D01*
X-29559755Y29559316D01*
X-29511234Y29589288D01*
X-29454429Y29594372D01*
X-29440392Y29592353D01*
X-29297933Y29612835D01*
X-29167018Y29672623D01*
X-29120339Y29710238D01*
X-29043869Y29786708D01*
X-28953709Y29876869D01*
X-28913484Y29903747D01*
X-28866031Y29913186D01*
X-23600020Y29913186D01*
X-23582050Y29911877D01*
X-23568167Y29909843D01*
X-23558291Y29908397D01*
X-23558290Y29908397D01*
X-23508945Y29912714D01*
X-23498138Y29913186D01*
X-23492605Y29913186D01*
X-23461815Y29916784D01*
X-23458231Y29917150D01*
X-23382275Y29923795D01*
X-23363235Y29928016D01*
X-23291546Y29954107D01*
X-23288145Y29955289D01*
X-23215793Y29979265D01*
X-23198239Y29987763D01*
X-23134542Y30029656D01*
X-23131504Y30031591D01*
X-23066595Y30071629D01*
X-23051478Y30083942D01*
X-22999162Y30139394D01*
X-22996650Y30141980D01*
X-17604305Y35534325D01*
X-17590674Y35546106D01*
X-17571414Y35560445D01*
X-17539580Y35598382D01*
X-17532288Y35606342D01*
X-17528355Y35610275D01*
X-17509123Y35634598D01*
X-17506849Y35637390D01*
X-17457841Y35695797D01*
X-17447365Y35712240D01*
X-17415139Y35781347D01*
X-17413569Y35784589D01*
X-17379342Y35852741D01*
X-17372942Y35871154D01*
X-17357526Y35945818D01*
X-17356746Y35949338D01*
X-17339156Y36023557D01*
X-17337177Y36042929D01*
X-17339395Y36119164D01*
X-17339447Y36122769D01*
X-17339447Y37766268D01*
X-17328241Y37817780D01*
X-17296649Y37859982D01*
X-17250380Y37885246D01*
X-17224910Y37892724D01*
X-16995951Y37987562D01*
X-16995950Y37987562D01*
X-17330008Y38794047D01*
X-17339447Y38841500D01*
X-17339447Y38943833D01*
X-17330008Y38991286D01*
X-17303128Y39031514D01*
X-17288303Y39046339D01*
X-17248074Y39073219D01*
X-17069331Y39147256D01*
X-17005693Y39155634D01*
X-16946392Y39131071D01*
X-16907318Y39080148D01*
X-16534011Y38178903D01*
X-16305046Y38273744D01*
X-16252482Y38302447D01*
X-16147253Y38400418D01*
X-16073885Y38524073D01*
X-16070488Y38537383D01*
X-16044053Y38587918D01*
X-15997793Y38621275D01*
X-15941496Y38630398D01*
X-15887070Y38613357D01*
X-15874872Y38606120D01*
X-15735420Y38570527D01*
X-15591587Y38575664D01*
X-15566448Y38583045D01*
X-15500848Y38584215D01*
X-15443835Y38551748D01*
X-14406451Y37514364D01*
X-14394671Y37500733D01*
X-14380330Y37481470D01*
X-14380329Y37481469D01*
X-14342379Y37449625D01*
X-14334404Y37442317D01*
X-14330496Y37438409D01*
X-14306152Y37419160D01*
X-14303402Y37416919D01*
X-14245934Y37368698D01*
X-14244971Y37367890D01*
X-14228541Y37357422D01*
X-14159430Y37325195D01*
X-14156186Y37323624D01*
X-14088023Y37289392D01*
X-14069625Y37282998D01*
X-14068393Y37282743D01*
X-14068392Y37282743D01*
X-14030463Y37274911D01*
X-13994945Y37267577D01*
X-13991426Y37266797D01*
X-13917213Y37249208D01*
X-13897840Y37247229D01*
X-13821588Y37249448D01*
X-13817982Y37249500D01*
X-7063706Y37249500D01*
X-7045736Y37248191D01*
X-7031853Y37246157D01*
X-7021977Y37244711D01*
X-7021976Y37244711D01*
X-6972631Y37249028D01*
X-6961824Y37249500D01*
X-6956291Y37249500D01*
X-6925501Y37253098D01*
X-6921917Y37253464D01*
X-6845961Y37260109D01*
X-6826921Y37264330D01*
X-6755232Y37290421D01*
X-6751831Y37291603D01*
X-6679479Y37315579D01*
X-6661925Y37324077D01*
X-6598228Y37365970D01*
X-6595190Y37367905D01*
X-6530281Y37407943D01*
X-6515164Y37420257D01*
X-6462847Y37475709D01*
X-6460335Y37478295D01*
X-2018778Y41919853D01*
X-1966032Y41951149D01*
X-1904739Y41953338D01*
X-1849895Y41925885D01*
X-1814915Y41875506D01*
X-1808352Y41857911D01*
X-1722188Y41742811D01*
X-1607089Y41656647D01*
X-1472375Y41606402D01*
X-1412824Y41600000D01*
X-1165000Y41600000D01*
X-1165000Y42575500D01*
X-1148387Y42637500D01*
X-1103000Y42682887D01*
X-1041000Y42699500D01*
X-953405Y42699500D01*
X-788998Y42699500D01*
X-727000Y42682888D01*
G37*
%TD.AperFunction*%
%TA.AperFunction,Conductor*%
G36*
X-22014777Y-32759939D02*
G01*
X-21974548Y-32786819D01*
X-18802920Y-35958447D01*
X-18770029Y-36017179D01*
X-18772672Y-36084444D01*
X-18810071Y-36140416D01*
X-18871204Y-36168599D01*
X-18938055Y-36160687D01*
X-19000221Y-36134937D01*
X-19097496Y-36105815D01*
X-19269441Y-36093288D01*
X-19439642Y-36120754D01*
X-19598919Y-36186727D01*
X-19738692Y-36287659D01*
X-19851420Y-36418101D01*
X-19899607Y-36507469D01*
X-19937547Y-36599065D01*
X-19937546Y-36599066D01*
X-19267735Y-36876513D01*
X-18135983Y-37345299D01*
X-18135982Y-37345298D01*
X-18098043Y-37253704D01*
X-18083553Y-37205304D01*
X-18045567Y-37146812D01*
X-17982019Y-37118075D01*
X-17913012Y-37128183D01*
X-17860376Y-37173939D01*
X-17840762Y-37240868D01*
X-17840762Y-38171958D01*
X-17850198Y-38219405D01*
X-17855006Y-38231011D01*
X-17888828Y-38277674D01*
X-17940093Y-38304008D01*
X-17997725Y-38304323D01*
X-18049275Y-38278551D01*
X-18087495Y-38246480D01*
X-18095455Y-38239187D01*
X-18099388Y-38235254D01*
X-18123711Y-38216022D01*
X-18126503Y-38213748D01*
X-18184910Y-38164740D01*
X-18201353Y-38154264D01*
X-18270460Y-38122038D01*
X-18273703Y-38120468D01*
X-18325709Y-38094350D01*
X-18374315Y-38050671D01*
X-18393966Y-37988348D01*
X-18379204Y-37924689D01*
X-18365267Y-37898841D01*
X-18327324Y-37807240D01*
X-19031886Y-37515399D01*
X-19031890Y-37515399D01*
X-20128887Y-37061007D01*
X-20166830Y-37152606D01*
X-20195949Y-37249873D01*
X-20208476Y-37421819D01*
X-20181012Y-37592018D01*
X-20173475Y-37610214D01*
X-20165096Y-37673852D01*
X-20189658Y-37733154D01*
X-20240581Y-37772229D01*
X-20259292Y-37779979D01*
X-20399159Y-37880979D01*
X-20511964Y-38011510D01*
X-20560185Y-38100942D01*
X-20715236Y-38475272D01*
X-20757507Y-38528568D01*
X-20821534Y-38551544D01*
X-20888047Y-38537286D01*
X-21249580Y-38344904D01*
X-21252799Y-38343130D01*
X-22369261Y-37705871D01*
X-22372425Y-37704002D01*
X-23469479Y-37033962D01*
X-23472587Y-37032000D01*
X-24549293Y-36329750D01*
X-24552341Y-36327698D01*
X-25607834Y-35593803D01*
X-25610819Y-35591660D01*
X-26644027Y-34826862D01*
X-26646940Y-34824638D01*
X-27248701Y-34350971D01*
X-27657046Y-34029548D01*
X-27659899Y-34027233D01*
X-28646020Y-33202542D01*
X-28648804Y-33200143D01*
X-28911116Y-32967222D01*
X-28944765Y-32918366D01*
X-28951869Y-32859469D01*
X-28930801Y-32804014D01*
X-28886384Y-32764690D01*
X-28828783Y-32750500D01*
X-22062230Y-32750500D01*
X-22014777Y-32759939D01*
G37*
%TD.AperFunction*%
%TA.AperFunction,Conductor*%
G36*
X26090454Y-31426578D02*
G01*
X26133687Y-31461277D01*
X26157481Y-31511347D01*
X26157078Y-31566782D01*
X26135050Y-31659727D01*
X26135050Y-31832125D01*
X26174808Y-31999884D01*
X26252182Y-32153946D01*
X26316312Y-32232670D01*
X26386413Y-32302771D01*
X27164938Y-31524247D01*
X27220525Y-31492153D01*
X27284713Y-31492153D01*
X27340300Y-31524247D01*
X27518491Y-31702438D01*
X27550585Y-31758025D01*
X27550585Y-31822213D01*
X27518491Y-31877800D01*
X26739967Y-32656325D01*
X26810074Y-32726431D01*
X26888790Y-32790555D01*
X27042855Y-32867931D01*
X27210615Y-32907690D01*
X27230310Y-32907690D01*
X27292310Y-32924303D01*
X27337697Y-32969690D01*
X27354310Y-33031690D01*
X27354310Y-33051948D01*
X27394095Y-33219812D01*
X27394095Y-33219813D01*
X27394096Y-33219814D01*
X27471522Y-33373984D01*
X27535692Y-33452757D01*
X27535695Y-33452760D01*
X27535696Y-33452761D01*
X27809259Y-33726324D01*
X27842251Y-33785475D01*
X27839241Y-33853138D01*
X27801127Y-33909126D01*
X27659919Y-34027218D01*
X27657066Y-34029533D01*
X27248700Y-34350973D01*
X26889281Y-34633885D01*
X26646949Y-34824633D01*
X26644027Y-34826863D01*
X25673569Y-35545211D01*
X25619102Y-35568033D01*
X25560256Y-35563072D01*
X25510377Y-35531455D01*
X25480780Y-35480351D01*
X25478178Y-35421353D01*
X25480382Y-35410276D01*
X25520306Y-35209563D01*
X25539172Y-34921724D01*
X25520306Y-34633885D01*
X25464031Y-34350971D01*
X25383463Y-34113626D01*
X25371309Y-34077821D01*
X25243728Y-33819113D01*
X25083470Y-33579270D01*
X24972524Y-33452761D01*
X24893277Y-33362397D01*
X24676404Y-33172204D01*
X24496428Y-33051948D01*
X24436560Y-33011945D01*
X24177852Y-32884364D01*
X23904700Y-32791642D01*
X23621795Y-32735368D01*
X23333950Y-32716502D01*
X23046104Y-32735368D01*
X22763196Y-32791642D01*
X22519711Y-32874294D01*
X22454072Y-32878165D01*
X22395682Y-32847931D01*
X22360959Y-32792093D01*
X22359668Y-32726352D01*
X22392170Y-32669196D01*
X23610862Y-31450504D01*
X23651090Y-31423625D01*
X23698543Y-31414186D01*
X26036420Y-31414186D01*
X26090454Y-31426578D01*
G37*
%TD.AperFunction*%
%TA.AperFunction,Conductor*%
G36*
X38219404Y-17850198D02*
G01*
X38238053Y-17857922D01*
X38284123Y-17891061D01*
X38310605Y-17941260D01*
X38311946Y-17997999D01*
X38287867Y-18049393D01*
X38278524Y-18061209D01*
X38276248Y-18064003D01*
X38227240Y-18122410D01*
X38216764Y-18138853D01*
X38184538Y-18207960D01*
X38182968Y-18211203D01*
X38156851Y-18263208D01*
X38113173Y-18311813D01*
X38050850Y-18331465D01*
X37987191Y-18316704D01*
X37961335Y-18302763D01*
X37869740Y-18264823D01*
X37869738Y-18264824D01*
X37577899Y-18969388D01*
X37577899Y-18969390D01*
X37123507Y-20066387D01*
X37215106Y-20104330D01*
X37312373Y-20133449D01*
X37484319Y-20145976D01*
X37654518Y-20118512D01*
X37672714Y-20110975D01*
X37736352Y-20102596D01*
X37795654Y-20127158D01*
X37834729Y-20178081D01*
X37842479Y-20196792D01*
X37943479Y-20336659D01*
X38074010Y-20449464D01*
X38163442Y-20497685D01*
X38353573Y-20576438D01*
X38513813Y-20642812D01*
X38567108Y-20685082D01*
X38590084Y-20749109D01*
X38575826Y-20815622D01*
X38344904Y-21249580D01*
X38343130Y-21252799D01*
X37705872Y-22369261D01*
X37704003Y-22372425D01*
X37033976Y-23469455D01*
X37032015Y-23472563D01*
X36329736Y-24549316D01*
X36327683Y-24552364D01*
X35593803Y-25607834D01*
X35591660Y-25610819D01*
X34826863Y-26644027D01*
X34824633Y-26646949D01*
X34029549Y-27657046D01*
X34027234Y-27659899D01*
X33202542Y-28646021D01*
X33200143Y-28648805D01*
X32726923Y-29181736D01*
X32678066Y-29215385D01*
X32619170Y-29222489D01*
X32563714Y-29201421D01*
X32524391Y-29157004D01*
X32510201Y-29099403D01*
X32510201Y-22483882D01*
X32519640Y-22436429D01*
X32546520Y-22396201D01*
X33396797Y-21545924D01*
X35953238Y-18989482D01*
X36004315Y-18958691D01*
X36063866Y-18955310D01*
X36118106Y-18980124D01*
X36154485Y-19027392D01*
X36164586Y-19086177D01*
X36155788Y-19206941D01*
X36183254Y-19377142D01*
X36249227Y-19536419D01*
X36350159Y-19676192D01*
X36480601Y-19788920D01*
X36569969Y-19837107D01*
X36661566Y-19875047D01*
X36661568Y-19875046D01*
X36939013Y-19205235D01*
X37407799Y-18073483D01*
X37404554Y-18065649D01*
X37369034Y-18037647D01*
X37345734Y-17974491D01*
X37358867Y-17908467D01*
X37404562Y-17859035D01*
X37469352Y-17840762D01*
X38171958Y-17840762D01*
X38219404Y-17850198D01*
G37*
%TD.AperFunction*%
%TA.AperFunction,Conductor*%
G36*
X-32629489Y-22654235D02*
G01*
X-32575470Y-22685896D01*
X-31707009Y-23554358D01*
X-31450505Y-23810862D01*
X-31423625Y-23851090D01*
X-31414186Y-23898543D01*
X-31414186Y-25865624D01*
X-31429909Y-25926056D01*
X-31473089Y-25971163D01*
X-31532778Y-25989506D01*
X-31593838Y-25976434D01*
X-31701847Y-25922188D01*
X-31869607Y-25882430D01*
X-32042005Y-25882430D01*
X-32209764Y-25922188D01*
X-32363826Y-25999562D01*
X-32442550Y-26063692D01*
X-32512652Y-26133794D01*
X-31734127Y-26912318D01*
X-31702033Y-26967905D01*
X-31702033Y-27032093D01*
X-31734127Y-27087680D01*
X-31912318Y-27265871D01*
X-31967905Y-27297965D01*
X-32032093Y-27297965D01*
X-32087680Y-27265871D01*
X-32866205Y-26487347D01*
X-32936311Y-26557454D01*
X-33000435Y-26636170D01*
X-33077811Y-26790235D01*
X-33117570Y-26957995D01*
X-33117570Y-26977690D01*
X-33134183Y-27039690D01*
X-33179570Y-27085077D01*
X-33241570Y-27101690D01*
X-33261828Y-27101690D01*
X-33429692Y-27141475D01*
X-33429693Y-27141475D01*
X-33429694Y-27141476D01*
X-33583864Y-27218902D01*
X-33662637Y-27283072D01*
X-33662640Y-27283075D01*
X-33662641Y-27283076D01*
X-33933913Y-27554349D01*
X-33994257Y-27587617D01*
X-34063044Y-27583535D01*
X-34119030Y-27543364D01*
X-34824644Y-26646932D01*
X-34826874Y-26644011D01*
X-35545211Y-25673570D01*
X-35568033Y-25619102D01*
X-35563072Y-25560256D01*
X-35531455Y-25510377D01*
X-35480351Y-25480780D01*
X-35421354Y-25478178D01*
X-35209563Y-25520306D01*
X-34921724Y-25539172D01*
X-34633885Y-25520306D01*
X-34633880Y-25520305D01*
X-34633878Y-25520305D01*
X-34493399Y-25492361D01*
X-34350971Y-25464031D01*
X-34168871Y-25402216D01*
X-34077821Y-25371309D01*
X-33819113Y-25243728D01*
X-33579270Y-25083470D01*
X-33579269Y-25083469D01*
X-33362397Y-24893277D01*
X-33172204Y-24676404D01*
X-33088315Y-24550855D01*
X-33011945Y-24436560D01*
X-32884364Y-24177852D01*
X-32791642Y-23904700D01*
X-32735368Y-23621795D01*
X-32716502Y-23333949D01*
X-32735368Y-23046103D01*
X-32784765Y-22797770D01*
X-32781079Y-22735261D01*
X-32747319Y-22682523D01*
X-32692095Y-22653005D01*
X-32629489Y-22654235D01*
G37*
%TD.AperFunction*%
%TA.AperFunction,Conductor*%
G36*
X40875647Y-7108881D02*
G01*
X40920443Y-7150143D01*
X40940191Y-7207755D01*
X40930127Y-7267821D01*
X40892679Y-7315850D01*
X40724200Y-7446727D01*
X40585625Y-7604741D01*
X40479458Y-7786124D01*
X40409539Y-7984322D01*
X40378390Y-8192176D01*
X40387142Y-8402157D01*
X40435475Y-8606698D01*
X40494921Y-8738944D01*
X40521644Y-8798391D01*
X40587163Y-8891567D01*
X40603460Y-8914743D01*
X40624520Y-8966799D01*
X40620458Y-9022807D01*
X40592108Y-9071280D01*
X40545284Y-9102278D01*
X40473351Y-9129053D01*
X40327570Y-9226460D01*
X40208188Y-9354857D01*
X40121634Y-9507323D01*
X40091299Y-9606030D01*
X40062040Y-9753119D01*
X40062041Y-9753120D01*
X41502931Y-10039731D01*
X41502928Y-10039730D01*
X41534197Y-10045949D01*
X41591766Y-10074338D01*
X41627428Y-10127708D01*
X41631626Y-10191758D01*
X41392445Y-11394201D01*
X41392446Y-11394202D01*
X41809256Y-11477111D01*
X41912046Y-11486857D01*
X42100420Y-11463450D01*
X42100944Y-11467672D01*
X42139663Y-11464388D01*
X42199457Y-11494037D01*
X42235221Y-11550388D01*
X42236593Y-11617116D01*
X42211620Y-11714140D01*
X42210651Y-11717685D01*
X41853476Y-12952555D01*
X41852403Y-12956069D01*
X41458787Y-14179823D01*
X41457610Y-14183305D01*
X41359059Y-14461167D01*
X41325197Y-14511838D01*
X41271284Y-14540256D01*
X41210345Y-14539558D01*
X41157098Y-14509911D01*
X41109381Y-14464892D01*
X41106794Y-14462379D01*
X38386819Y-11742403D01*
X38359939Y-11702175D01*
X38350500Y-11654722D01*
X38350500Y-10493397D01*
X39925490Y-10493397D01*
X39947111Y-10667389D01*
X40008271Y-10831699D01*
X40105676Y-10977477D01*
X40234074Y-11096860D01*
X40386540Y-11183414D01*
X40485248Y-11213750D01*
X40902052Y-11296657D01*
X40902053Y-11296656D01*
X41067880Y-10462989D01*
X41067879Y-10462988D01*
X39964497Y-10243512D01*
X39964496Y-10243512D01*
X39935237Y-10390608D01*
X39925490Y-10493397D01*
X38350500Y-10493397D01*
X38350500Y-9512230D01*
X38359939Y-9464777D01*
X38386819Y-9424549D01*
X40681123Y-7130244D01*
X40721351Y-7103364D01*
X40768804Y-7093925D01*
X40816609Y-7093925D01*
X40875647Y-7108881D01*
G37*
%TD.AperFunction*%
%TA.AperFunction,Conductor*%
G36*
X-43515166Y-2631027D02*
G01*
X-43464755Y-2661611D01*
X-40016888Y-6109480D01*
X-38886819Y-7239549D01*
X-38859939Y-7279777D01*
X-38850500Y-7327230D01*
X-38850500Y-12033798D01*
X-38864846Y-12091694D01*
X-38904563Y-12136194D01*
X-38960463Y-12157001D01*
X-39019610Y-12149302D01*
X-39068320Y-12114877D01*
X-39177736Y-11988265D01*
X-39317509Y-11887335D01*
X-39476789Y-11821359D01*
X-39646988Y-11793895D01*
X-39818934Y-11806422D01*
X-39916202Y-11835541D01*
X-40007798Y-11873481D01*
X-40007799Y-11873482D01*
X-39539013Y-13005235D01*
X-39261567Y-13675046D01*
X-39229992Y-13661967D01*
X-39163141Y-13654055D01*
X-39102007Y-13682237D01*
X-39064607Y-13738210D01*
X-39061964Y-13805475D01*
X-39094857Y-13864209D01*
X-39606973Y-14376325D01*
X-39647199Y-14403204D01*
X-39669136Y-14412291D01*
X-39726048Y-14421370D01*
X-39780917Y-14403741D01*
X-39821891Y-14363213D01*
X-39840119Y-14308541D01*
X-39845218Y-14250262D01*
X-39849439Y-14231222D01*
X-39875530Y-14159533D01*
X-39876712Y-14156132D01*
X-39904852Y-14071215D01*
X-39903234Y-14070678D01*
X-39914140Y-14038144D01*
X-39906579Y-13982344D01*
X-39875121Y-13935642D01*
X-39826252Y-13907667D01*
X-39815103Y-13904329D01*
X-39723507Y-13866388D01*
X-40177899Y-12769390D01*
X-40177899Y-12769388D01*
X-40469739Y-12064823D01*
X-40561332Y-12102764D01*
X-40650707Y-12150953D01*
X-40781148Y-12263679D01*
X-40882079Y-12403451D01*
X-40889616Y-12421646D01*
X-40928690Y-12472568D01*
X-40987990Y-12497132D01*
X-41051627Y-12488755D01*
X-41070339Y-12481004D01*
X-41183887Y-12462681D01*
X-41240659Y-12453521D01*
X-41240660Y-12453521D01*
X-41412720Y-12466054D01*
X-41412723Y-12466055D01*
X-41504130Y-12493421D01*
X-41510059Y-12495196D01*
X-41806809Y-12618114D01*
X-41874990Y-12625808D01*
X-41936824Y-12596071D01*
X-41973379Y-12538007D01*
X-42210651Y-11717685D01*
X-42211620Y-11714140D01*
X-42532054Y-10469199D01*
X-42532917Y-10465627D01*
X-42816313Y-9211755D01*
X-42817070Y-9208158D01*
X-43063185Y-7946444D01*
X-43063835Y-7942828D01*
X-43272453Y-6674377D01*
X-43272996Y-6670742D01*
X-43443939Y-5396624D01*
X-43444373Y-5392975D01*
X-43577477Y-4114426D01*
X-43577804Y-4110765D01*
X-43672968Y-2828747D01*
X-43673185Y-2825078D01*
X-43676311Y-2754804D01*
X-43664851Y-2696963D01*
X-43627969Y-2650955D01*
X-43574006Y-2627185D01*
X-43515166Y-2631027D01*
G37*
%TD.AperFunction*%
%TA.AperFunction,Conductor*%
G36*
X39781814Y14404110D02*
G01*
X39822787Y14363582D01*
X39841014Y14308909D01*
X39845218Y14260852D01*
X39849439Y14241812D01*
X39875530Y14170123D01*
X39876712Y14166722D01*
X39900688Y14094370D01*
X39910418Y14074273D01*
X39914825Y14062172D01*
X39912399Y14061288D01*
X39923286Y14031349D01*
X39916636Y13974554D01*
X39885207Y13926783D01*
X39835684Y13898194D01*
X39755760Y13874266D01*
X39664162Y13836325D01*
X40118553Y12739326D01*
X40118553Y12739324D01*
X40410393Y12034759D01*
X40501986Y12072700D01*
X40591361Y12120889D01*
X40721802Y12233615D01*
X40822733Y12373387D01*
X40830270Y12391582D01*
X40869344Y12442504D01*
X40928644Y12467068D01*
X40992281Y12458691D01*
X41010993Y12450940D01*
X41103644Y12435990D01*
X41181313Y12423457D01*
X41181314Y12423457D01*
X41181315Y12423457D01*
X41353374Y12435990D01*
X41450713Y12465132D01*
X41808225Y12613218D01*
X41876406Y12620912D01*
X41938240Y12591175D01*
X41974795Y12533111D01*
X42210651Y11717685D01*
X42211620Y11714140D01*
X42276952Y11460314D01*
X42275420Y11393060D01*
X42238996Y11336503D01*
X42178399Y11307289D01*
X42111465Y11314015D01*
X41936704Y11382776D01*
X41730100Y11421322D01*
X41519933Y11420071D01*
X40826018Y11282042D01*
X40675159Y11236769D01*
X40488930Y11139356D01*
X40451995Y11109952D01*
X40324499Y11008455D01*
X40187815Y10848802D01*
X40083814Y10666167D01*
X40016257Y10467152D01*
X39987585Y10258946D01*
X39987585Y10258943D01*
X39987585Y10258942D01*
X39998835Y10049079D01*
X40049598Y9845129D01*
X40138044Y9654472D01*
X40260970Y9484003D01*
X40413934Y9339880D01*
X40591415Y9227307D01*
X40637124Y9209323D01*
X40684951Y9175692D01*
X40712052Y9123884D01*
X40712400Y9065417D01*
X40685918Y9013290D01*
X40577995Y8887231D01*
X40473994Y8704596D01*
X40406437Y8505581D01*
X40377765Y8297375D01*
X40377765Y8297372D01*
X40377765Y8297371D01*
X40389015Y8087508D01*
X40439778Y7883558D01*
X40528224Y7692901D01*
X40651150Y7522432D01*
X40804114Y7378309D01*
X40924229Y7302123D01*
X40963608Y7262088D01*
X40981289Y7208789D01*
X40973646Y7153156D01*
X40942247Y7106599D01*
X40886037Y7054336D01*
X40788632Y6908558D01*
X40727472Y6744248D01*
X40705851Y6570256D01*
X40715597Y6467467D01*
X40744856Y6320371D01*
X40744857Y6320371D01*
X41891750Y6548501D01*
X41891758Y6548505D01*
X42217016Y6613202D01*
X42281066Y6609004D01*
X42334435Y6573344D01*
X42362824Y6515776D01*
X42602003Y5313334D01*
X42602004Y5313333D01*
X43018814Y5396242D01*
X43117513Y5426574D01*
X43257404Y5505990D01*
X43315163Y5522107D01*
X43373731Y5509236D01*
X43419411Y5470387D01*
X43441521Y5414646D01*
X43443939Y5396626D01*
X43444373Y5392975D01*
X43577477Y4114426D01*
X43577804Y4110765D01*
X43667528Y2902039D01*
X43657494Y2843209D01*
X43621140Y2795880D01*
X43566887Y2771015D01*
X43507302Y2774374D01*
X43456189Y2805177D01*
X41329090Y4932276D01*
X41297932Y4984563D01*
X41295409Y5045382D01*
X41322133Y5100073D01*
X41371663Y5135457D01*
X41432065Y5143008D01*
X41592012Y5123133D01*
X41694799Y5132878D01*
X42111611Y5215787D01*
X42111612Y5215788D01*
X41945786Y6049454D01*
X41945785Y6049455D01*
X40842403Y5829979D01*
X40842402Y5829978D01*
X40864711Y5717825D01*
X40861025Y5655316D01*
X40827265Y5602578D01*
X40772041Y5573060D01*
X40709435Y5574290D01*
X40655416Y5605950D01*
X38686819Y7574549D01*
X38659939Y7614777D01*
X38650500Y7662230D01*
X38650500Y12211868D01*
X38943454Y12211868D01*
X38957479Y12178010D01*
X39005662Y12088644D01*
X39118391Y11958201D01*
X39258163Y11857271D01*
X39417443Y11791295D01*
X39587642Y11763831D01*
X39759588Y11776358D01*
X39856856Y11805477D01*
X39948452Y11843417D01*
X39948453Y11843418D01*
X39671008Y12513230D01*
X39671007Y12513231D01*
X38943454Y12211868D01*
X38650500Y12211868D01*
X38650500Y12548865D01*
X38659939Y12596318D01*
X38686819Y12636546D01*
X38727047Y12663426D01*
X39479666Y12975170D01*
X39479667Y12975171D01*
X39202221Y13644983D01*
X39191994Y13649219D01*
X39153783Y13644696D01*
X39092649Y13672879D01*
X39055249Y13728851D01*
X39052606Y13796117D01*
X39085499Y13854851D01*
X39606973Y14376325D01*
X39647203Y14403206D01*
X39670035Y14412663D01*
X39726946Y14421740D01*
X39781814Y14404110D01*
G37*
%TD.AperFunction*%
%TA.AperFunction,Conductor*%
G36*
X-41210346Y14539559D02*
G01*
X-41157099Y14509912D01*
X-41109399Y14464909D01*
X-41106812Y14462396D01*
X-39186819Y12542403D01*
X-39159939Y12502175D01*
X-39150500Y12454722D01*
X-39150500Y5327229D01*
X-39159939Y5279776D01*
X-39186819Y5239548D01*
X-40597292Y3829074D01*
X-40651136Y3797463D01*
X-40713565Y3796100D01*
X-40768742Y3825335D01*
X-40802675Y3877753D01*
X-40827047Y3951301D01*
X-40917556Y4098040D01*
X-41039459Y4219943D01*
X-41186198Y4310453D01*
X-41349848Y4364681D01*
X-41450853Y4375000D01*
X-41550000Y4375000D01*
X-41550000Y3274000D01*
X-41566613Y3212000D01*
X-41612000Y3166613D01*
X-41674000Y3150000D01*
X-41926000Y3150000D01*
X-41988000Y3166613D01*
X-42033387Y3212000D01*
X-42050000Y3274000D01*
X-42050000Y4374999D01*
X-42149147Y4374999D01*
X-42250150Y4364681D01*
X-42413804Y4310452D01*
X-42560536Y4219945D01*
X-42574463Y4206019D01*
X-42630052Y4173923D01*
X-42694240Y4173923D01*
X-42749829Y4206019D01*
X-42764148Y4220338D01*
X-42764150Y4220340D01*
X-42910984Y4310908D01*
X-43074746Y4365174D01*
X-43084114Y4366131D01*
X-43175823Y4375500D01*
X-43412720Y4375499D01*
X-43478395Y4394319D01*
X-43524135Y4445067D01*
X-43536053Y4512339D01*
X-43444374Y5392975D01*
X-43443940Y5396624D01*
X-43272996Y6670747D01*
X-43272453Y6674381D01*
X-43063837Y7942823D01*
X-43063187Y7946440D01*
X-42817071Y9208159D01*
X-42816314Y9211756D01*
X-42532918Y10465628D01*
X-42532055Y10469200D01*
X-42211622Y11714141D01*
X-42210653Y11717686D01*
X-41853477Y12952556D01*
X-41852404Y12956070D01*
X-41458788Y14179823D01*
X-41457611Y14183305D01*
X-41359060Y14461168D01*
X-41325198Y14511838D01*
X-41271286Y14540257D01*
X-41210346Y14539559D01*
G37*
%TD.AperFunction*%
%TA.AperFunction,Conductor*%
G36*
X-32579014Y29184196D02*
G01*
X-32539690Y29139779D01*
X-32525500Y29082178D01*
X-32525500Y28225533D01*
X-32526809Y28207563D01*
X-32530289Y28183804D01*
X-32528322Y28161323D01*
X-32525972Y28134458D01*
X-32525500Y28123651D01*
X-32525500Y28118116D01*
X-32521903Y28087348D01*
X-32521536Y28083756D01*
X-32516232Y28023121D01*
X-32514889Y28007776D01*
X-32510672Y27988757D01*
X-32484592Y27917101D01*
X-32483408Y27913695D01*
X-32456794Y27833379D01*
X-32450500Y27794375D01*
X-32450500Y22462229D01*
X-32459939Y22414776D01*
X-32486818Y22374548D01*
X-35967071Y18894296D01*
X-36023351Y18862021D01*
X-36088232Y18862586D01*
X-36143945Y18895841D01*
X-36175237Y18952680D01*
X-36173540Y19017541D01*
X-36168315Y19034994D01*
X-36155788Y19206941D01*
X-36183254Y19377142D01*
X-36249227Y19536419D01*
X-36350159Y19676192D01*
X-36480601Y19788920D01*
X-36569969Y19837107D01*
X-36661566Y19875047D01*
X-36661568Y19875046D01*
X-36939013Y19205235D01*
X-37407799Y18073483D01*
X-37404554Y18065649D01*
X-37369034Y18037647D01*
X-37345734Y17974491D01*
X-37358867Y17908467D01*
X-37404562Y17859035D01*
X-37469352Y17840762D01*
X-38171958Y17840762D01*
X-38219409Y17850200D01*
X-38238054Y17857923D01*
X-38284125Y17891065D01*
X-38310605Y17941262D01*
X-38311946Y17998000D01*
X-38287868Y18049392D01*
X-38278534Y18061197D01*
X-38276256Y18063994D01*
X-38227240Y18122409D01*
X-38216764Y18138853D01*
X-38184538Y18207960D01*
X-38182968Y18211203D01*
X-38156851Y18263208D01*
X-38113173Y18311813D01*
X-38050850Y18331465D01*
X-37987191Y18316704D01*
X-37961335Y18302763D01*
X-37869740Y18264823D01*
X-37869738Y18264824D01*
X-37577899Y18969388D01*
X-37577899Y18969390D01*
X-37123507Y20066387D01*
X-37215106Y20104330D01*
X-37312373Y20133449D01*
X-37484319Y20145976D01*
X-37654518Y20118512D01*
X-37672714Y20110975D01*
X-37736352Y20102596D01*
X-37795654Y20127158D01*
X-37834729Y20178081D01*
X-37842479Y20196792D01*
X-37943479Y20336659D01*
X-38074010Y20449464D01*
X-38163442Y20497685D01*
X-38513814Y20642813D01*
X-38567110Y20685084D01*
X-38590086Y20749111D01*
X-38575828Y20815624D01*
X-38344906Y21249582D01*
X-38343132Y21252801D01*
X-37705873Y22369263D01*
X-37704004Y22372427D01*
X-37033964Y23469480D01*
X-37032002Y23472588D01*
X-36329752Y24549294D01*
X-36327700Y24552342D01*
X-35593805Y25607835D01*
X-35591662Y25610820D01*
X-34826865Y26644029D01*
X-34824641Y26646942D01*
X-34182047Y27463313D01*
X-34029551Y27657048D01*
X-34027236Y27659901D01*
X-33202544Y28646022D01*
X-33200145Y28648806D01*
X-32742222Y29164511D01*
X-32693365Y29198160D01*
X-32634469Y29205264D01*
X-32579014Y29184196D01*
G37*
%TD.AperFunction*%
%TA.AperFunction,Conductor*%
G36*
X33974956Y27695447D02*
G01*
X34030942Y27655276D01*
X34824633Y26646949D01*
X34826863Y26644027D01*
X35545211Y25673569D01*
X35568033Y25619102D01*
X35563072Y25560256D01*
X35531455Y25510377D01*
X35480351Y25480780D01*
X35421354Y25478178D01*
X35209563Y25520306D01*
X34921724Y25539172D01*
X34633885Y25520306D01*
X34633880Y25520305D01*
X34633878Y25520305D01*
X34493399Y25492361D01*
X34350971Y25464031D01*
X34168871Y25402216D01*
X34077821Y25371309D01*
X33819113Y25243728D01*
X33579270Y25083470D01*
X33362397Y24893277D01*
X33222631Y24733905D01*
X33172203Y24676403D01*
X33011945Y24436560D01*
X32884364Y24177852D01*
X32791642Y23904700D01*
X32735368Y23621795D01*
X32735368Y23621789D01*
X32716502Y23333950D01*
X32729434Y23136633D01*
X32735368Y23046104D01*
X32784765Y22797772D01*
X32781079Y22735263D01*
X32747319Y22682525D01*
X32692095Y22653007D01*
X32629489Y22654237D01*
X32575467Y22685900D01*
X32201523Y23059844D01*
X31450505Y23810863D01*
X31423625Y23851091D01*
X31414186Y23898544D01*
X31414186Y26035940D01*
X31429909Y26096372D01*
X31473089Y26141479D01*
X31532778Y26159822D01*
X31593838Y26146750D01*
X31682087Y26102428D01*
X31849847Y26062670D01*
X32022245Y26062670D01*
X32190004Y26102428D01*
X32344066Y26179802D01*
X32422790Y26243932D01*
X32492892Y26314034D01*
X31714368Y27092559D01*
X31682274Y27148146D01*
X31682274Y27212334D01*
X31714368Y27267921D01*
X31892558Y27446111D01*
X31948145Y27478205D01*
X32012333Y27478205D01*
X32067920Y27446111D01*
X32846445Y26667587D01*
X32916551Y26737694D01*
X32980675Y26816410D01*
X33058051Y26970475D01*
X33097810Y27138235D01*
X33097810Y27157930D01*
X33114423Y27219930D01*
X33159810Y27265317D01*
X33221810Y27281930D01*
X33242068Y27281930D01*
X33409932Y27321715D01*
X33564102Y27399141D01*
X33564104Y27399142D01*
X33642877Y27463312D01*
X33845825Y27666261D01*
X33906169Y27699529D01*
X33974956Y27695447D01*
G37*
%TD.AperFunction*%
%TA.AperFunction,Conductor*%
G36*
X-25560256Y35563075D02*
G01*
X-25510377Y35531458D01*
X-25480780Y35480355D01*
X-25478178Y35421357D01*
X-25513800Y35242273D01*
X-25520306Y35209563D01*
X-25539172Y34921724D01*
X-25520306Y34633885D01*
X-25464031Y34350971D01*
X-25443425Y34290269D01*
X-25371309Y34077821D01*
X-25257962Y33847976D01*
X-25243728Y33819113D01*
X-25083470Y33579270D01*
X-24893277Y33362397D01*
X-24710999Y33202543D01*
X-24676403Y33172203D01*
X-24436560Y33011945D01*
X-24177852Y32884364D01*
X-23904700Y32791642D01*
X-23621795Y32735368D01*
X-23333950Y32716502D01*
X-23046104Y32735368D01*
X-22797772Y32784765D01*
X-22735263Y32781079D01*
X-22682525Y32747319D01*
X-22653007Y32692095D01*
X-22654237Y32629489D01*
X-22685899Y32575467D01*
X-23253734Y32007634D01*
X-23810863Y31450505D01*
X-23851091Y31423625D01*
X-23898544Y31414186D01*
X-26050782Y31414186D01*
X-26111214Y31429909D01*
X-26156321Y31473089D01*
X-26174664Y31532778D01*
X-26161592Y31593838D01*
X-26112308Y31691967D01*
X-26072550Y31859727D01*
X-26072550Y32032125D01*
X-26112308Y32199884D01*
X-26189682Y32353946D01*
X-26253812Y32432670D01*
X-26323914Y32502772D01*
X-27102438Y31724247D01*
X-27158025Y31692153D01*
X-27222213Y31692153D01*
X-27277800Y31724247D01*
X-27455992Y31902439D01*
X-27488086Y31958026D01*
X-27488086Y32022214D01*
X-27455992Y32077801D01*
X-26677467Y32856325D01*
X-26747574Y32926431D01*
X-26826290Y32990555D01*
X-26980355Y33067931D01*
X-27148115Y33107690D01*
X-27167810Y33107690D01*
X-27229810Y33124303D01*
X-27275197Y33169690D01*
X-27291810Y33231690D01*
X-27291810Y33251948D01*
X-27331595Y33419812D01*
X-27409021Y33573982D01*
X-27409022Y33573984D01*
X-27473192Y33652757D01*
X-27666263Y33845827D01*
X-27699531Y33906171D01*
X-27695449Y33974958D01*
X-27655278Y34030944D01*
X-26788665Y34713087D01*
X-26646942Y34824641D01*
X-26644029Y34826865D01*
X-25673569Y35545214D01*
X-25619102Y35568036D01*
X-25560256Y35563075D01*
G37*
%TD.AperFunction*%
%TA.AperFunction,Conductor*%
G36*
X20825189Y38570735D02*
G01*
X21249580Y38344904D01*
X21252799Y38343130D01*
X22369261Y37705872D01*
X22372425Y37704003D01*
X23469455Y37033976D01*
X23472563Y37032015D01*
X24549316Y36329736D01*
X24552364Y36327683D01*
X25607834Y35593803D01*
X25610819Y35591660D01*
X26644027Y34826863D01*
X26646940Y34824639D01*
X26889289Y34633878D01*
X27657046Y34029549D01*
X27659899Y34027234D01*
X28646021Y33202543D01*
X28648805Y33200144D01*
X29023735Y32867222D01*
X29057384Y32818365D01*
X29064488Y32759469D01*
X29043420Y32704013D01*
X28999003Y32664690D01*
X28941402Y32650500D01*
X22262229Y32650500D01*
X22214776Y32659939D01*
X22174548Y32686819D01*
X20034502Y34826865D01*
X18509257Y36352110D01*
X18973808Y36352110D01*
X19007655Y36338092D01*
X19104932Y36308969D01*
X19276877Y36296442D01*
X19447078Y36323908D01*
X19606355Y36389881D01*
X19746128Y36490813D01*
X19858856Y36621255D01*
X19907043Y36710623D01*
X19944983Y36802219D01*
X19944982Y36802220D01*
X19275171Y37079667D01*
X18973808Y36352112D01*
X18973808Y36352110D01*
X18509257Y36352110D01*
X18505944Y36355423D01*
X18474966Y36407107D01*
X18472010Y36467294D01*
X18497775Y36521768D01*
X18505151Y36527238D01*
X18813231Y37271008D01*
X18143419Y37548453D01*
X18143418Y37548452D01*
X18105479Y37456858D01*
X18083553Y37383621D01*
X18045567Y37325129D01*
X17982019Y37296392D01*
X17913012Y37306500D01*
X17860376Y37352256D01*
X17840762Y37419185D01*
X17840762Y38171958D01*
X17850201Y38219411D01*
X17872500Y38273245D01*
X17913014Y38325256D01*
X17974461Y38349150D01*
X18039469Y38338173D01*
X18067322Y38325184D01*
X18070563Y38323615D01*
X18138701Y38289396D01*
X18157107Y38282998D01*
X18231766Y38267582D01*
X18235287Y38266801D01*
X18280893Y38255992D01*
X18328851Y38232881D01*
X18362699Y38191790D01*
X18376197Y38140293D01*
X18366857Y38087882D01*
X18334760Y38010394D01*
X18334759Y38010394D01*
X19039322Y37718553D01*
X19039326Y37718553D01*
X20136323Y37264161D01*
X20174266Y37355760D01*
X20203385Y37453027D01*
X20215912Y37624973D01*
X20188448Y37795172D01*
X20180911Y37813368D01*
X20172532Y37877006D01*
X20197094Y37936308D01*
X20248017Y37975383D01*
X20266728Y37983133D01*
X20406595Y38084133D01*
X20519400Y38214664D01*
X20567621Y38304096D01*
X20652378Y38508721D01*
X20694649Y38562017D01*
X20758676Y38584993D01*
X20825189Y38570735D01*
G37*
%TD.AperFunction*%
%TA.AperFunction,Conductor*%
G36*
X-2628937Y43667879D02*
G01*
X-2582929Y43630997D01*
X-2559158Y43577035D01*
X-2563000Y43518194D01*
X-2593585Y43467781D01*
X-4937670Y41123698D01*
X-7274549Y38786819D01*
X-7314777Y38759939D01*
X-7362230Y38750500D01*
X-12157345Y38750500D01*
X-12219969Y38767476D01*
X-12265447Y38813754D01*
X-12281326Y38876665D01*
X-12263260Y38938983D01*
X-12216194Y38983646D01*
X-12181207Y39002510D01*
X-12050765Y39115237D01*
X-11949835Y39255009D01*
X-11883859Y39414289D01*
X-11856395Y39584488D01*
X-11868922Y39756434D01*
X-11898041Y39853702D01*
X-11935981Y39945298D01*
X-11935982Y39945299D01*
X-13067735Y39476513D01*
X-13741419Y39197463D01*
X-13770044Y39158867D01*
X-13824518Y39133102D01*
X-13884705Y39136058D01*
X-13936391Y39167038D01*
X-14376325Y39606972D01*
X-14403205Y39647200D01*
X-14412292Y39669138D01*
X-14421370Y39726050D01*
X-14403741Y39780918D01*
X-14363213Y39821891D01*
X-14308541Y39840119D01*
X-14250262Y39845218D01*
X-14231222Y39849439D01*
X-14159533Y39875530D01*
X-14156129Y39876713D01*
X-14138897Y39882423D01*
X-14073642Y39885906D01*
X-14015678Y39855732D01*
X-13981103Y39800280D01*
X-13966830Y39752606D01*
X-13928888Y39661007D01*
X-12831890Y40115399D01*
X-12831886Y40115399D01*
X-12127324Y40407239D01*
X-12165265Y40498837D01*
X-12213452Y40588207D01*
X-12326179Y40718648D01*
X-12465951Y40819579D01*
X-12484146Y40827116D01*
X-12535068Y40866190D01*
X-12559632Y40925490D01*
X-12551255Y40989127D01*
X-12543504Y41007839D01*
X-12516021Y41178161D01*
X-12528554Y41350220D01*
X-12557696Y41447559D01*
X-12697046Y41783980D01*
X-12704740Y41852161D01*
X-12675003Y41913995D01*
X-12616939Y41950550D01*
X-11717686Y42210653D01*
X-11714141Y42211622D01*
X-10469200Y42532055D01*
X-10465628Y42532918D01*
X-9211756Y42816314D01*
X-9208159Y42817071D01*
X-7946440Y43063187D01*
X-7942823Y43063837D01*
X-6674381Y43272453D01*
X-6670747Y43272996D01*
X-5396624Y43443940D01*
X-5392975Y43444374D01*
X-4114426Y43577478D01*
X-4110765Y43577805D01*
X-2828747Y43672969D01*
X-2825079Y43673186D01*
X-2686778Y43679339D01*
X-2628937Y43667879D01*
G37*
%TD.AperFunction*%
%TA.AperFunction,Conductor*%
G36*
X5392975Y43444373D02*
G01*
X5396624Y43443939D01*
X6670742Y43272996D01*
X6674377Y43272453D01*
X7942829Y43063835D01*
X7946446Y43063185D01*
X9208159Y42817070D01*
X9211755Y42816313D01*
X10465628Y42532917D01*
X10469200Y42532054D01*
X11714140Y42211620D01*
X11717685Y42210651D01*
X12952555Y41853476D01*
X12956069Y41852403D01*
X14179823Y41458787D01*
X14183305Y41457610D01*
X14461167Y41359059D01*
X14511838Y41325197D01*
X14540256Y41271284D01*
X14539558Y41210345D01*
X14509911Y41157098D01*
X14464892Y41109381D01*
X14462379Y41106794D01*
X12542403Y39186819D01*
X12502175Y39159939D01*
X12454722Y39150500D01*
X4962230Y39150500D01*
X4914777Y39159939D01*
X4874549Y39186819D01*
X4559158Y39502210D01*
X3573044Y40488323D01*
X3542797Y40537681D01*
X3538254Y40595396D01*
X3560409Y40648883D01*
X3604430Y40686483D01*
X3660724Y40700000D01*
X3686644Y40700000D01*
X3787650Y40710318D01*
X3951301Y40764546D01*
X4098040Y40855056D01*
X4219943Y40976959D01*
X4310453Y41123698D01*
X4364681Y41287348D01*
X4375000Y41388353D01*
X4375000Y41487500D01*
X3274000Y41487500D01*
X3212000Y41504113D01*
X3166613Y41549500D01*
X3150000Y41611500D01*
X3150000Y41863500D01*
X3166613Y41925500D01*
X3212000Y41970887D01*
X3274000Y41987500D01*
X4374999Y41987500D01*
X4374999Y42086647D01*
X4364681Y42187650D01*
X4310452Y42351304D01*
X4219945Y42498036D01*
X4206019Y42511963D01*
X4173923Y42567552D01*
X4173923Y42631740D01*
X4206019Y42687329D01*
X4220338Y42701648D01*
X4220340Y42701650D01*
X4310908Y42848484D01*
X4365174Y43012246D01*
X4366131Y43021614D01*
X4375500Y43113323D01*
X4375499Y43412720D01*
X4394319Y43478394D01*
X4445067Y43524134D01*
X4512339Y43536052D01*
X5392975Y43444373D01*
G37*
%TD.AperFunction*%
%TD*%
M02*
