M48
; DRILL file {KiCad 7.0.1} date Sat Feb 10 23:33:58 2024
; FORMAT={-:-/ absolute / inch / decimal}
; #@! TF.CreationDate,2024-02-10T23:33:58+09:00
; #@! TF.GenerationSoftware,Kicad,Pcbnew,7.0.1
; #@! TF.FileFunction,Plated,1,2,PTH
FMAT,2
INCH
; #@! TA.AperFunction,Plated,PTH,ViaDrill
T1C0.0118
; #@! TA.AperFunction,Plated,PTH,ComponentDrill
T2C0.0295
%
G90
G05
T1
X-1.7047Y-0.1339
X-1.6969Y0.189
X-1.6417Y-0.4803
X-1.6299Y-0.0787
X-1.622Y0.0197
X-1.6181Y0.5472
X-1.5984Y0.1732
X-1.5591Y0.4843
X-1.5551Y0.2205
X-1.5551Y-0.5472
X-1.5433Y-0.2953
X-1.5433Y-0.4528
X-1.5118Y-0.0079
X-1.5039Y-0.6181
X-1.5Y0.8228
X-1.5Y0.6299
X-1.4843Y0.7126
X-1.4685Y0.2441
X-1.4567Y-0.3071
X-1.4094Y0.7717
X-1.3937Y0.5866
X-1.3937Y-0.5866
X-1.374Y-1.0197
X-1.3386Y-1.0669
X-1.2953Y1.1181
X-1.2913Y0.8898
X-1.2756Y-0.9213
X-1.2559Y0.8031
X-1.252Y-1.0039
X-1.2205Y-0.8543
X-1.2047Y1.0984
X-1.1575Y-1.1339
X-1.1339Y1.1614
X-1.1063Y-1.3031
X-1.0984Y-1.2165
X-1.0748Y1.063
X-1.0709Y1.3346
X-1.063Y-1.0748
X-1.0197Y1.378
X-1.0118Y1.252
X-0.9213Y1.2756
X-0.874Y-1.3031
X-0.8346Y1.2362
X-0.8268Y-1.4961
X-0.7953Y-1.2598
X-0.7677Y-1.4094
X-0.7126Y-1.4843
X-0.626Y-1.5
X-0.6181Y1.5039
X-0.5945Y-1.3898
X-0.5906Y1.3898
X-0.5512Y-1.6181
X-0.5472Y1.5512
X-0.4843Y1.6417
X-0.4803Y-1.5512
X-0.4606Y1.5394
X-0.3307Y1.4528
X-0.2953Y1.5433
X-0.2638Y-1.4646
X-0.2205Y-1.5512
X-0.185Y-1.6929
X-0.1732Y-1.5984
X-0.1378Y1.7008
X-0.0748Y1.626
X-0.0157Y-1.622
X-0.0079Y1.5118
X0.0Y1.626
X0.0787Y-1.6299
X0.1299Y-1.7047
X0.1614Y1.5945
X0.189Y1.6969
X0.2008Y1.5591
X0.248Y1.4685
X0.2953Y-1.5394
X0.3228Y-1.4528
X0.4567Y-1.5394
X0.4803Y-1.6378
X0.4882Y1.5591
X0.5433Y1.6181
X0.5512Y-1.5551
X0.5669Y1.3976
X0.5945Y-1.3898
X0.6181Y-1.5039
X0.622Y1.5079
X0.7126Y1.4882
X0.7362Y1.4331
X0.811Y1.248
X0.8228Y1.5
X0.8307Y-1.2362
X0.8858Y1.3071
X0.9173Y-1.2717
X1.0118Y-1.252
X1.0197Y-1.374
X1.0551Y1.0827
X1.0748Y-1.0669
X1.0787Y-1.3307
X1.0984Y1.2126
X1.1142Y1.2992
X1.1339Y-1.1614
X1.1535Y1.1457
X1.2047Y-1.0984
X1.2165Y0.8583
X1.2402Y-0.8228
X1.252Y1.0118
X1.2756Y0.9213
X1.2953Y-0.8898
X1.2953Y-1.1181
X1.3307Y1.0709
X1.374Y1.0197
X1.3937Y0.5866
X1.3976Y-0.5748
X1.4134Y-0.7677
X1.437Y-0.4016
X1.4685Y0.252
X1.4921Y-0.7087
X1.4961Y-0.6299
X1.5Y-0.8228
X1.5039Y0.6181
X1.5118Y0.0
X1.5236Y-0.378
X1.5236Y-0.4528
X1.5276Y0.4921
X1.5512Y0.5472
X1.5787Y-0.3504
X1.5984Y0.2362
X1.6024Y-0.2874
X1.6181Y-0.5472
X1.6339Y0.0827
X1.6339Y-0.0394
X1.6417Y0.4685
X1.6457Y-0.4685
X1.6535Y0.189
X1.6654Y-0.0906
X1.6969Y0.1969
X1.6969Y-0.1929
X1.7008Y0.1417
T2
X1.6284Y0.4042
X1.6284Y-0.4042
X1.6438Y0.327
X1.6438Y-0.327
X1.6591Y0.2497
X1.6591Y-0.2497
T0
M30
