%TF.GenerationSoftware,KiCad,Pcbnew,(6.0.11)*%
%TF.CreationDate,2024-02-29T08:23:56+09:00*%
%TF.ProjectId,Mother_Ctrl,4d6f7468-6572-45f4-9374-726c2e6b6963,rev?*%
%TF.SameCoordinates,Original*%
%TF.FileFunction,Legend,Bot*%
%TF.FilePolarity,Positive*%
%FSLAX46Y46*%
G04 Gerber Fmt 4.6, Leading zero omitted, Abs format (unit mm)*
G04 Created by KiCad (PCBNEW (6.0.11)) date 2024-02-29 08:23:56*
%MOMM*%
%LPD*%
G01*
G04 APERTURE LIST*
G04 Aperture macros list*
%AMRoundRect*
0 Rectangle with rounded corners*
0 $1 Rounding radius*
0 $2 $3 $4 $5 $6 $7 $8 $9 X,Y pos of 4 corners*
0 Add a 4 corners polygon primitive as box body*
4,1,4,$2,$3,$4,$5,$6,$7,$8,$9,$2,$3,0*
0 Add four circle primitives for the rounded corners*
1,1,$1+$1,$2,$3*
1,1,$1+$1,$4,$5*
1,1,$1+$1,$6,$7*
1,1,$1+$1,$8,$9*
0 Add four rect primitives between the rounded corners*
20,1,$1+$1,$2,$3,$4,$5,0*
20,1,$1+$1,$4,$5,$6,$7,0*
20,1,$1+$1,$6,$7,$8,$9,0*
20,1,$1+$1,$8,$9,$2,$3,0*%
%AMHorizOval*
0 Thick line with rounded ends*
0 $1 width*
0 $2 $3 position (X,Y) of the first rounded end (center of the circle)*
0 $4 $5 position (X,Y) of the second rounded end (center of the circle)*
0 Add line between two ends*
20,1,$1,$2,$3,$4,$5,0*
0 Add two circle primitives to create the rounded ends*
1,1,$1,$2,$3*
1,1,$1,$4,$5*%
G04 Aperture macros list end*
%ADD10C,0.150000*%
%ADD11C,0.080000*%
%ADD12C,0.130000*%
%ADD13C,0.120000*%
%ADD14RoundRect,0.250000X0.675000X-0.600000X0.675000X0.600000X-0.675000X0.600000X-0.675000X-0.600000X0*%
%ADD15O,1.850000X1.700000*%
%ADD16R,1.700000X1.700000*%
%ADD17O,1.700000X1.700000*%
%ADD18RoundRect,0.250000X0.600000X0.675000X-0.600000X0.675000X-0.600000X-0.675000X0.600000X-0.675000X0*%
%ADD19O,1.700000X1.850000*%
%ADD20C,1.400000*%
%ADD21R,3.500000X3.500000*%
%ADD22C,3.500000*%
%ADD23R,1.400000X1.400000*%
%ADD24RoundRect,0.381000X-0.381000X-0.381000X0.381000X-0.381000X0.381000X0.381000X-0.381000X0.381000X0*%
%ADD25C,1.524000*%
%ADD26RoundRect,0.250000X-0.675000X0.600000X-0.675000X-0.600000X0.675000X-0.600000X0.675000X0.600000X0*%
%ADD27HorizOval,3.100000X0.424264X-0.424264X-0.424264X0.424264X0*%
%ADD28C,1.700000*%
%ADD29RoundRect,0.425000X0.425000X0.425000X-0.425000X0.425000X-0.425000X-0.425000X0.425000X-0.425000X0*%
%ADD30C,2.000000*%
%ADD31RoundRect,0.225000X-0.225000X-0.250000X0.225000X-0.250000X0.225000X0.250000X-0.225000X0.250000X0*%
%ADD32R,1.000000X0.700000*%
%ADD33RoundRect,0.135000X0.135000X0.185000X-0.135000X0.185000X-0.135000X-0.185000X0.135000X-0.185000X0*%
%ADD34RoundRect,0.150000X0.150000X-0.587500X0.150000X0.587500X-0.150000X0.587500X-0.150000X-0.587500X0*%
%ADD35RoundRect,0.135000X-0.185000X0.135000X-0.185000X-0.135000X0.185000X-0.135000X0.185000X0.135000X0*%
%ADD36RoundRect,0.140000X0.170000X-0.140000X0.170000X0.140000X-0.170000X0.140000X-0.170000X-0.140000X0*%
%ADD37RoundRect,0.135000X-0.135000X-0.185000X0.135000X-0.185000X0.135000X0.185000X-0.135000X0.185000X0*%
%ADD38R,1.800000X1.000000*%
%ADD39RoundRect,0.237500X-0.237500X0.250000X-0.237500X-0.250000X0.237500X-0.250000X0.237500X0.250000X0*%
%ADD40RoundRect,0.150000X-0.150000X0.587500X-0.150000X-0.587500X0.150000X-0.587500X0.150000X0.587500X0*%
%ADD41RoundRect,0.225000X-0.250000X0.225000X-0.250000X-0.225000X0.250000X-0.225000X0.250000X0.225000X0*%
%ADD42R,1.000000X1.000000*%
%ADD43RoundRect,0.150000X0.587500X0.150000X-0.587500X0.150000X-0.587500X-0.150000X0.587500X-0.150000X0*%
%ADD44RoundRect,0.140000X-0.140000X-0.170000X0.140000X-0.170000X0.140000X0.170000X-0.140000X0.170000X0*%
%ADD45RoundRect,0.150000X-0.150000X0.675000X-0.150000X-0.675000X0.150000X-0.675000X0.150000X0.675000X0*%
%ADD46RoundRect,0.200000X0.275000X-0.200000X0.275000X0.200000X-0.275000X0.200000X-0.275000X-0.200000X0*%
%ADD47RoundRect,0.150000X-0.587500X-0.150000X0.587500X-0.150000X0.587500X0.150000X-0.587500X0.150000X0*%
%ADD48RoundRect,0.140000X-0.170000X0.140000X-0.170000X-0.140000X0.170000X-0.140000X0.170000X0.140000X0*%
%ADD49RoundRect,0.140000X0.140000X0.170000X-0.140000X0.170000X-0.140000X-0.170000X0.140000X-0.170000X0*%
%ADD50R,0.300000X1.400000*%
%ADD51R,0.700000X1.000000*%
%ADD52RoundRect,0.075000X-0.700000X-0.075000X0.700000X-0.075000X0.700000X0.075000X-0.700000X0.075000X0*%
%ADD53RoundRect,0.075000X-0.075000X-0.700000X0.075000X-0.700000X0.075000X0.700000X-0.075000X0.700000X0*%
%ADD54RoundRect,0.200000X-0.275000X0.200000X-0.275000X-0.200000X0.275000X-0.200000X0.275000X0.200000X0*%
%ADD55RoundRect,0.135000X0.185000X-0.135000X0.185000X0.135000X-0.185000X0.135000X-0.185000X-0.135000X0*%
%ADD56RoundRect,0.150000X0.675000X0.150000X-0.675000X0.150000X-0.675000X-0.150000X0.675000X-0.150000X0*%
%ADD57R,1.800000X2.100000*%
%ADD58RoundRect,0.250000X-0.250000X-0.475000X0.250000X-0.475000X0.250000X0.475000X-0.250000X0.475000X0*%
%ADD59RoundRect,0.200000X0.200000X0.275000X-0.200000X0.275000X-0.200000X-0.275000X0.200000X-0.275000X0*%
%ADD60R,1.500000X1.500000*%
%ADD61R,2.200000X1.200000*%
%ADD62R,6.400000X5.800000*%
%ADD63C,0.650000*%
%ADD64R,0.600000X1.240000*%
%ADD65R,0.300000X1.240000*%
%ADD66O,1.000000X1.800000*%
%ADD67O,1.000000X2.100000*%
%ADD68RoundRect,0.225000X0.225000X0.250000X-0.225000X0.250000X-0.225000X-0.250000X0.225000X-0.250000X0*%
G04 APERTURE END LIST*
D10*
X124550000Y-117670000D02*
X127750000Y-117670000D01*
X129150000Y-128720000D02*
X117650000Y-128720000D01*
X127750000Y-117670000D02*
X127750000Y-110270000D01*
X124550000Y-110970000D02*
X123750000Y-110970000D01*
X123750000Y-110970000D02*
X123750000Y-111770000D01*
X123750000Y-111770000D02*
X124550000Y-111770000D01*
X124550000Y-111770000D02*
X124550000Y-110970000D01*
X134650000Y-81870000D02*
X134650000Y-76770000D01*
X124550000Y-110270000D02*
X125650000Y-110270000D01*
X126650000Y-110270000D02*
X127750000Y-110270000D01*
X153450000Y-99020000D02*
X153450000Y-93920000D01*
X128550000Y-112270000D02*
X127750000Y-112270000D01*
X127750000Y-112270000D02*
X127750000Y-113070000D01*
X127750000Y-113070000D02*
X128550000Y-113070000D01*
X128550000Y-113070000D02*
X128550000Y-112270000D01*
X124550000Y-113570000D02*
X123750000Y-113570000D01*
X123750000Y-113570000D02*
X123750000Y-114370000D01*
X123750000Y-114370000D02*
X124550000Y-114370000D01*
X124550000Y-114370000D02*
X124550000Y-113570000D01*
X149800000Y-92570000D02*
X149800000Y-87470000D01*
D11*
X119150000Y-107995000D02*
X119150000Y-103245000D01*
D10*
X147650000Y-128720000D02*
X136150000Y-128720000D01*
X124550000Y-117670000D02*
X124550000Y-110270000D01*
X131650000Y-102470000D02*
X123400000Y-102470000D01*
X123850000Y-92570000D02*
X123850000Y-87470000D01*
X115650000Y-92570000D02*
X115650000Y-87470000D01*
X128550000Y-110970000D02*
X127750000Y-110970000D01*
X127750000Y-110970000D02*
X127750000Y-111770000D01*
X127750000Y-111770000D02*
X128550000Y-111770000D01*
X128550000Y-111770000D02*
X128550000Y-110970000D01*
X161650000Y-99020000D02*
X161650000Y-93920000D01*
X114900000Y-102470000D02*
X106650000Y-102470000D01*
X124550000Y-112270000D02*
X123750000Y-112270000D01*
X123750000Y-112270000D02*
X123750000Y-113070000D01*
X123750000Y-113070000D02*
X124550000Y-113070000D01*
X124550000Y-113070000D02*
X124550000Y-112270000D01*
X150700000Y-92570000D02*
X150700000Y-87470000D01*
X124550000Y-116170000D02*
X123750000Y-116170000D01*
X123750000Y-116170000D02*
X123750000Y-116970000D01*
X123750000Y-116970000D02*
X124550000Y-116970000D01*
X124550000Y-116970000D02*
X124550000Y-116170000D01*
X132950000Y-92570000D02*
X132950000Y-87470000D01*
X142850000Y-81870000D02*
X142850000Y-76770000D01*
D11*
X136400000Y-134220000D02*
X136400000Y-129470000D01*
D10*
X124750000Y-92570000D02*
X124750000Y-87470000D01*
X125650000Y-110270000D02*
G75*
G03*
X126650000Y-110270000I500000J0D01*
G01*
X106650000Y-108720000D02*
X131650000Y-108720000D01*
X128550000Y-113570000D02*
X127750000Y-113570000D01*
X127750000Y-113570000D02*
X127750000Y-114370000D01*
X127750000Y-114370000D02*
X128550000Y-114370000D01*
X128550000Y-114370000D02*
X128550000Y-113570000D01*
X124550000Y-114870000D02*
X123750000Y-114870000D01*
X123750000Y-114870000D02*
X123750000Y-115670000D01*
X123750000Y-115670000D02*
X124550000Y-115670000D01*
X124550000Y-115670000D02*
X124550000Y-114870000D01*
X117650000Y-134970000D02*
X147650000Y-134970000D01*
X128550000Y-116170000D02*
X127750000Y-116170000D01*
X127750000Y-116170000D02*
X127750000Y-116970000D01*
X127750000Y-116970000D02*
X128550000Y-116970000D01*
X128550000Y-116970000D02*
X128550000Y-116170000D01*
X128550000Y-114870000D02*
X127750000Y-114870000D01*
X127750000Y-114870000D02*
X127750000Y-115670000D01*
X127750000Y-115670000D02*
X128550000Y-115670000D01*
X128550000Y-115670000D02*
X128550000Y-114870000D01*
D11*
X125150000Y-134220000D02*
X125150000Y-129470000D01*
D10*
X158900000Y-92570000D02*
X158900000Y-87470000D01*
X141600000Y-92570000D02*
X141600000Y-87470000D01*
D12*
X130595238Y-104655714D02*
X130833333Y-104655714D01*
X130833333Y-103227142D01*
X130595238Y-103227142D01*
X129738095Y-104322380D02*
X130214285Y-104322380D01*
X130214285Y-103322380D01*
X129404761Y-103798571D02*
X129071428Y-103798571D01*
X128928571Y-104322380D02*
X129404761Y-104322380D01*
X129404761Y-103322380D01*
X128928571Y-103322380D01*
X128500000Y-104322380D02*
X128500000Y-103322380D01*
X128261904Y-103322380D01*
X128119047Y-103370000D01*
X128023809Y-103465238D01*
X127976190Y-103560476D01*
X127928571Y-103750952D01*
X127928571Y-103893809D01*
X127976190Y-104084285D01*
X128023809Y-104179523D01*
X128119047Y-104274761D01*
X128261904Y-104322380D01*
X128500000Y-104322380D01*
X127642857Y-103322380D02*
X127071428Y-103322380D01*
X127357142Y-104322380D02*
X127357142Y-103322380D01*
X126309523Y-104322380D02*
X126309523Y-103798571D01*
X126357142Y-103703333D01*
X126452380Y-103655714D01*
X126642857Y-103655714D01*
X126738095Y-103703333D01*
X126309523Y-104274761D02*
X126404761Y-104322380D01*
X126642857Y-104322380D01*
X126738095Y-104274761D01*
X126785714Y-104179523D01*
X126785714Y-104084285D01*
X126738095Y-103989047D01*
X126642857Y-103941428D01*
X126404761Y-103941428D01*
X126309523Y-103893809D01*
X125833333Y-103655714D02*
X125833333Y-104655714D01*
X125833333Y-103703333D02*
X125738095Y-103655714D01*
X125547619Y-103655714D01*
X125452380Y-103703333D01*
X125404761Y-103750952D01*
X125357142Y-103846190D01*
X125357142Y-104131904D01*
X125404761Y-104227142D01*
X125452380Y-104274761D01*
X125547619Y-104322380D01*
X125738095Y-104322380D01*
X125833333Y-104274761D01*
X124547619Y-104274761D02*
X124642857Y-104322380D01*
X124833333Y-104322380D01*
X124928571Y-104274761D01*
X124976190Y-104179523D01*
X124976190Y-103798571D01*
X124928571Y-103703333D01*
X124833333Y-103655714D01*
X124642857Y-103655714D01*
X124547619Y-103703333D01*
X124500000Y-103798571D01*
X124500000Y-103893809D01*
X124976190Y-103989047D01*
X123880952Y-103322380D02*
X123785714Y-103322380D01*
X123690476Y-103370000D01*
X123642857Y-103417619D01*
X123595238Y-103512857D01*
X123547619Y-103703333D01*
X123547619Y-103941428D01*
X123595238Y-104131904D01*
X123642857Y-104227142D01*
X123690476Y-104274761D01*
X123785714Y-104322380D01*
X123880952Y-104322380D01*
X123976190Y-104274761D01*
X124023809Y-104227142D01*
X124071428Y-104131904D01*
X124119047Y-103941428D01*
X124119047Y-103703333D01*
X124071428Y-103512857D01*
X124023809Y-103417619D01*
X123976190Y-103370000D01*
X123880952Y-103322380D01*
X123214285Y-104655714D02*
X122976190Y-104655714D01*
X122976190Y-103227142D01*
X123214285Y-103227142D01*
X122452380Y-104322380D02*
X122452380Y-103322380D01*
X122071428Y-103322380D01*
X121976190Y-103370000D01*
X121928571Y-103417619D01*
X121880952Y-103512857D01*
X121880952Y-103655714D01*
X121928571Y-103750952D01*
X121976190Y-103798571D01*
X122071428Y-103846190D01*
X122452380Y-103846190D01*
X121500000Y-104036666D02*
X121023809Y-104036666D01*
X121595238Y-104322380D02*
X121261904Y-103322380D01*
X120928571Y-104322380D01*
X120166666Y-103322380D02*
X120357142Y-103322380D01*
X120452380Y-103370000D01*
X120500000Y-103417619D01*
X120595238Y-103560476D01*
X120642857Y-103750952D01*
X120642857Y-104131904D01*
X120595238Y-104227142D01*
X120547619Y-104274761D01*
X120452380Y-104322380D01*
X120261904Y-104322380D01*
X120166666Y-104274761D01*
X120119047Y-104227142D01*
X120071428Y-104131904D01*
X120071428Y-103893809D01*
X120119047Y-103798571D01*
X120166666Y-103750952D01*
X120261904Y-103703333D01*
X120452380Y-103703333D01*
X120547619Y-103750952D01*
X120595238Y-103798571D01*
X120642857Y-103893809D01*
X142154761Y-81274761D02*
X142011904Y-81322380D01*
X141773809Y-81322380D01*
X141678571Y-81274761D01*
X141630952Y-81227142D01*
X141583333Y-81131904D01*
X141583333Y-81036666D01*
X141630952Y-80941428D01*
X141678571Y-80893809D01*
X141773809Y-80846190D01*
X141964285Y-80798571D01*
X142059523Y-80750952D01*
X142107142Y-80703333D01*
X142154761Y-80608095D01*
X142154761Y-80512857D01*
X142107142Y-80417619D01*
X142059523Y-80370000D01*
X141964285Y-80322380D01*
X141726190Y-80322380D01*
X141583333Y-80370000D01*
X141154761Y-81322380D02*
X141154761Y-80322380D01*
X140916666Y-80322380D01*
X140773809Y-80370000D01*
X140678571Y-80465238D01*
X140630952Y-80560476D01*
X140583333Y-80750952D01*
X140583333Y-80893809D01*
X140630952Y-81084285D01*
X140678571Y-81179523D01*
X140773809Y-81274761D01*
X140916666Y-81322380D01*
X141154761Y-81322380D01*
X140202380Y-81036666D02*
X139726190Y-81036666D01*
X140297619Y-81322380D02*
X139964285Y-80322380D01*
X139630952Y-81322380D01*
X138773809Y-81322380D02*
X139345238Y-81322380D01*
X139059523Y-81322380D02*
X139059523Y-80322380D01*
X139154761Y-80465238D01*
X139250000Y-80560476D01*
X139345238Y-80608095D01*
X138345238Y-81227142D02*
X138297619Y-81274761D01*
X138345238Y-81322380D01*
X138392857Y-81274761D01*
X138345238Y-81227142D01*
X138345238Y-81322380D01*
X138345238Y-80703333D02*
X138297619Y-80750952D01*
X138345238Y-80798571D01*
X138392857Y-80750952D01*
X138345238Y-80703333D01*
X138345238Y-80798571D01*
X137869047Y-81322380D02*
X137869047Y-80322380D01*
X137488095Y-80322380D01*
X137392857Y-80370000D01*
X137345238Y-80417619D01*
X137297619Y-80512857D01*
X137297619Y-80655714D01*
X137345238Y-80750952D01*
X137392857Y-80798571D01*
X137488095Y-80846190D01*
X137869047Y-80846190D01*
X136535714Y-80798571D02*
X136392857Y-80846190D01*
X136345238Y-80893809D01*
X136297619Y-80989047D01*
X136297619Y-81131904D01*
X136345238Y-81227142D01*
X136392857Y-81274761D01*
X136488095Y-81322380D01*
X136869047Y-81322380D01*
X136869047Y-80322380D01*
X136535714Y-80322380D01*
X136440476Y-80370000D01*
X136392857Y-80417619D01*
X136345238Y-80512857D01*
X136345238Y-80608095D01*
X136392857Y-80703333D01*
X136440476Y-80750952D01*
X136535714Y-80798571D01*
X136869047Y-80798571D01*
X135964285Y-80322380D02*
X135297619Y-80322380D01*
X135726190Y-81322380D01*
X122892857Y-113097380D02*
X122892857Y-112097380D01*
X122511904Y-112097380D01*
X122416666Y-112145000D01*
X122369047Y-112192619D01*
X122321428Y-112287857D01*
X122321428Y-112430714D01*
X122369047Y-112525952D01*
X122416666Y-112573571D01*
X122511904Y-112621190D01*
X122892857Y-112621190D01*
X121940476Y-112811666D02*
X121464285Y-112811666D01*
X122035714Y-113097380D02*
X121702380Y-112097380D01*
X121369047Y-113097380D01*
X120511904Y-113097380D02*
X121083333Y-113097380D01*
X120797619Y-113097380D02*
X120797619Y-112097380D01*
X120892857Y-112240238D01*
X120988095Y-112335476D01*
X121083333Y-112383095D01*
X119559523Y-113097380D02*
X120130952Y-113097380D01*
X119845238Y-113097380D02*
X119845238Y-112097380D01*
X119940476Y-112240238D01*
X120035714Y-112335476D01*
X120130952Y-112383095D01*
X118007142Y-107605714D02*
X118245238Y-107605714D01*
X118245238Y-106177142D01*
X118007142Y-106177142D01*
X117626190Y-107272380D02*
X117626190Y-106272380D01*
X117054761Y-107272380D01*
X117054761Y-106272380D01*
X116197619Y-107224761D02*
X116292857Y-107272380D01*
X116483333Y-107272380D01*
X116578571Y-107224761D01*
X116626190Y-107129523D01*
X116626190Y-106748571D01*
X116578571Y-106653333D01*
X116483333Y-106605714D01*
X116292857Y-106605714D01*
X116197619Y-106653333D01*
X116150000Y-106748571D01*
X116150000Y-106843809D01*
X116626190Y-106939047D01*
X115578571Y-107272380D02*
X115673809Y-107224761D01*
X115721428Y-107177142D01*
X115769047Y-107081904D01*
X115769047Y-106796190D01*
X115721428Y-106700952D01*
X115673809Y-106653333D01*
X115578571Y-106605714D01*
X115435714Y-106605714D01*
X115340476Y-106653333D01*
X115292857Y-106700952D01*
X115245238Y-106796190D01*
X115245238Y-107081904D01*
X115292857Y-107177142D01*
X115340476Y-107224761D01*
X115435714Y-107272380D01*
X115578571Y-107272380D01*
X114816666Y-107272380D02*
X114816666Y-106272380D01*
X114435714Y-106272380D01*
X114340476Y-106320000D01*
X114292857Y-106367619D01*
X114245238Y-106462857D01*
X114245238Y-106605714D01*
X114292857Y-106700952D01*
X114340476Y-106748571D01*
X114435714Y-106796190D01*
X114816666Y-106796190D01*
X113816666Y-107272380D02*
X113816666Y-106605714D01*
X113816666Y-106272380D02*
X113864285Y-106320000D01*
X113816666Y-106367619D01*
X113769047Y-106320000D01*
X113816666Y-106272380D01*
X113816666Y-106367619D01*
X113435714Y-107272380D02*
X112911904Y-106605714D01*
X113435714Y-106605714D02*
X112911904Y-107272380D01*
X112150000Y-107224761D02*
X112245238Y-107272380D01*
X112435714Y-107272380D01*
X112530952Y-107224761D01*
X112578571Y-107129523D01*
X112578571Y-106748571D01*
X112530952Y-106653333D01*
X112435714Y-106605714D01*
X112245238Y-106605714D01*
X112150000Y-106653333D01*
X112102380Y-106748571D01*
X112102380Y-106843809D01*
X112578571Y-106939047D01*
X111530952Y-107272380D02*
X111626190Y-107224761D01*
X111673809Y-107129523D01*
X111673809Y-106272380D01*
X111245238Y-107605714D02*
X111007142Y-107605714D01*
X111007142Y-106177142D01*
X111245238Y-106177142D01*
X110483333Y-107272380D02*
X110483333Y-106272380D01*
X110102380Y-106272380D01*
X110007142Y-106320000D01*
X109959523Y-106367619D01*
X109911904Y-106462857D01*
X109911904Y-106605714D01*
X109959523Y-106700952D01*
X110007142Y-106748571D01*
X110102380Y-106796190D01*
X110483333Y-106796190D01*
X109150000Y-106748571D02*
X109007142Y-106796190D01*
X108959523Y-106843809D01*
X108911904Y-106939047D01*
X108911904Y-107081904D01*
X108959523Y-107177142D01*
X109007142Y-107224761D01*
X109102380Y-107272380D01*
X109483333Y-107272380D01*
X109483333Y-106272380D01*
X109150000Y-106272380D01*
X109054761Y-106320000D01*
X109007142Y-106367619D01*
X108959523Y-106462857D01*
X108959523Y-106558095D01*
X109007142Y-106653333D01*
X109054761Y-106700952D01*
X109150000Y-106748571D01*
X109483333Y-106748571D01*
X108007142Y-106272380D02*
X108483333Y-106272380D01*
X108530952Y-106748571D01*
X108483333Y-106700952D01*
X108388095Y-106653333D01*
X108150000Y-106653333D01*
X108054761Y-106700952D01*
X108007142Y-106748571D01*
X107959523Y-106843809D01*
X107959523Y-107081904D01*
X108007142Y-107177142D01*
X108054761Y-107224761D01*
X108150000Y-107272380D01*
X108388095Y-107272380D01*
X108483333Y-107224761D01*
X108530952Y-107177142D01*
X122889285Y-115847380D02*
X122889285Y-114847380D01*
X122508333Y-114847380D01*
X122413095Y-114895000D01*
X122365476Y-114942619D01*
X122317857Y-115037857D01*
X122317857Y-115180714D01*
X122365476Y-115275952D01*
X122413095Y-115323571D01*
X122508333Y-115371190D01*
X122889285Y-115371190D01*
X121317857Y-115752142D02*
X121365476Y-115799761D01*
X121508333Y-115847380D01*
X121603571Y-115847380D01*
X121746428Y-115799761D01*
X121841666Y-115704523D01*
X121889285Y-115609285D01*
X121936904Y-115418809D01*
X121936904Y-115275952D01*
X121889285Y-115085476D01*
X121841666Y-114990238D01*
X121746428Y-114895000D01*
X121603571Y-114847380D01*
X121508333Y-114847380D01*
X121365476Y-114895000D01*
X121317857Y-114942619D01*
X120365476Y-115847380D02*
X120936904Y-115847380D01*
X120651190Y-115847380D02*
X120651190Y-114847380D01*
X120746428Y-114990238D01*
X120841666Y-115085476D01*
X120936904Y-115133095D01*
X119746428Y-114847380D02*
X119651190Y-114847380D01*
X119555952Y-114895000D01*
X119508333Y-114942619D01*
X119460714Y-115037857D01*
X119413095Y-115228333D01*
X119413095Y-115466428D01*
X119460714Y-115656904D01*
X119508333Y-115752142D01*
X119555952Y-115799761D01*
X119651190Y-115847380D01*
X119746428Y-115847380D01*
X119841666Y-115799761D01*
X119889285Y-115752142D01*
X119936904Y-115656904D01*
X119984523Y-115466428D01*
X119984523Y-115228333D01*
X119936904Y-115037857D01*
X119889285Y-114942619D01*
X119841666Y-114895000D01*
X119746428Y-114847380D01*
X122892857Y-111672380D02*
X122892857Y-110672380D01*
X122511904Y-110672380D01*
X122416666Y-110720000D01*
X122369047Y-110767619D01*
X122321428Y-110862857D01*
X122321428Y-111005714D01*
X122369047Y-111100952D01*
X122416666Y-111148571D01*
X122511904Y-111196190D01*
X122892857Y-111196190D01*
X121940476Y-111386666D02*
X121464285Y-111386666D01*
X122035714Y-111672380D02*
X121702380Y-110672380D01*
X121369047Y-111672380D01*
X120511904Y-111672380D02*
X121083333Y-111672380D01*
X120797619Y-111672380D02*
X120797619Y-110672380D01*
X120892857Y-110815238D01*
X120988095Y-110910476D01*
X121083333Y-110958095D01*
X120130952Y-110767619D02*
X120083333Y-110720000D01*
X119988095Y-110672380D01*
X119750000Y-110672380D01*
X119654761Y-110720000D01*
X119607142Y-110767619D01*
X119559523Y-110862857D01*
X119559523Y-110958095D01*
X119607142Y-111100952D01*
X120178571Y-111672380D01*
X119559523Y-111672380D01*
X118016666Y-105355714D02*
X118254761Y-105355714D01*
X118254761Y-103927142D01*
X118016666Y-103927142D01*
X117159523Y-105022380D02*
X117635714Y-105022380D01*
X117635714Y-104022380D01*
X116826190Y-104498571D02*
X116492857Y-104498571D01*
X116350000Y-105022380D02*
X116826190Y-105022380D01*
X116826190Y-104022380D01*
X116350000Y-104022380D01*
X115921428Y-105022380D02*
X115921428Y-104022380D01*
X115683333Y-104022380D01*
X115540476Y-104070000D01*
X115445238Y-104165238D01*
X115397619Y-104260476D01*
X115350000Y-104450952D01*
X115350000Y-104593809D01*
X115397619Y-104784285D01*
X115445238Y-104879523D01*
X115540476Y-104974761D01*
X115683333Y-105022380D01*
X115921428Y-105022380D01*
X115064285Y-104022380D02*
X114492857Y-104022380D01*
X114778571Y-105022380D02*
X114778571Y-104022380D01*
X113730952Y-105022380D02*
X113730952Y-104498571D01*
X113778571Y-104403333D01*
X113873809Y-104355714D01*
X114064285Y-104355714D01*
X114159523Y-104403333D01*
X113730952Y-104974761D02*
X113826190Y-105022380D01*
X114064285Y-105022380D01*
X114159523Y-104974761D01*
X114207142Y-104879523D01*
X114207142Y-104784285D01*
X114159523Y-104689047D01*
X114064285Y-104641428D01*
X113826190Y-104641428D01*
X113730952Y-104593809D01*
X113254761Y-104355714D02*
X113254761Y-105355714D01*
X113254761Y-104403333D02*
X113159523Y-104355714D01*
X112969047Y-104355714D01*
X112873809Y-104403333D01*
X112826190Y-104450952D01*
X112778571Y-104546190D01*
X112778571Y-104831904D01*
X112826190Y-104927142D01*
X112873809Y-104974761D01*
X112969047Y-105022380D01*
X113159523Y-105022380D01*
X113254761Y-104974761D01*
X111969047Y-104974761D02*
X112064285Y-105022380D01*
X112254761Y-105022380D01*
X112350000Y-104974761D01*
X112397619Y-104879523D01*
X112397619Y-104498571D01*
X112350000Y-104403333D01*
X112254761Y-104355714D01*
X112064285Y-104355714D01*
X111969047Y-104403333D01*
X111921428Y-104498571D01*
X111921428Y-104593809D01*
X112397619Y-104689047D01*
X111588095Y-104022380D02*
X110969047Y-104022380D01*
X111302380Y-104403333D01*
X111159523Y-104403333D01*
X111064285Y-104450952D01*
X111016666Y-104498571D01*
X110969047Y-104593809D01*
X110969047Y-104831904D01*
X111016666Y-104927142D01*
X111064285Y-104974761D01*
X111159523Y-105022380D01*
X111445238Y-105022380D01*
X111540476Y-104974761D01*
X111588095Y-104927142D01*
X110635714Y-105355714D02*
X110397619Y-105355714D01*
X110397619Y-103927142D01*
X110635714Y-103927142D01*
X109873809Y-105022380D02*
X109873809Y-104022380D01*
X109492857Y-104022380D01*
X109397619Y-104070000D01*
X109350000Y-104117619D01*
X109302380Y-104212857D01*
X109302380Y-104355714D01*
X109350000Y-104450952D01*
X109397619Y-104498571D01*
X109492857Y-104546190D01*
X109873809Y-104546190D01*
X108540476Y-104498571D02*
X108397619Y-104546190D01*
X108350000Y-104593809D01*
X108302380Y-104689047D01*
X108302380Y-104831904D01*
X108350000Y-104927142D01*
X108397619Y-104974761D01*
X108492857Y-105022380D01*
X108873809Y-105022380D01*
X108873809Y-104022380D01*
X108540476Y-104022380D01*
X108445238Y-104070000D01*
X108397619Y-104117619D01*
X108350000Y-104212857D01*
X108350000Y-104308095D01*
X108397619Y-104403333D01*
X108445238Y-104450952D01*
X108540476Y-104498571D01*
X108873809Y-104498571D01*
X107445238Y-104022380D02*
X107635714Y-104022380D01*
X107730952Y-104070000D01*
X107778571Y-104117619D01*
X107873809Y-104260476D01*
X107921428Y-104450952D01*
X107921428Y-104831904D01*
X107873809Y-104927142D01*
X107826190Y-104974761D01*
X107730952Y-105022380D01*
X107540476Y-105022380D01*
X107445238Y-104974761D01*
X107397619Y-104927142D01*
X107350000Y-104831904D01*
X107350000Y-104593809D01*
X107397619Y-104498571D01*
X107445238Y-104450952D01*
X107540476Y-104403333D01*
X107730952Y-104403333D01*
X107826190Y-104450952D01*
X107873809Y-104498571D01*
X107921428Y-104593809D01*
X130566666Y-106405714D02*
X130804761Y-106405714D01*
X130804761Y-104977142D01*
X130566666Y-104977142D01*
X129709523Y-106072380D02*
X130185714Y-106072380D01*
X130185714Y-105072380D01*
X129376190Y-105548571D02*
X129042857Y-105548571D01*
X128900000Y-106072380D02*
X129376190Y-106072380D01*
X129376190Y-105072380D01*
X128900000Y-105072380D01*
X128471428Y-106072380D02*
X128471428Y-105072380D01*
X128233333Y-105072380D01*
X128090476Y-105120000D01*
X127995238Y-105215238D01*
X127947619Y-105310476D01*
X127900000Y-105500952D01*
X127900000Y-105643809D01*
X127947619Y-105834285D01*
X127995238Y-105929523D01*
X128090476Y-106024761D01*
X128233333Y-106072380D01*
X128471428Y-106072380D01*
X127614285Y-105072380D02*
X127042857Y-105072380D01*
X127328571Y-106072380D02*
X127328571Y-105072380D01*
X126280952Y-106072380D02*
X126280952Y-105548571D01*
X126328571Y-105453333D01*
X126423809Y-105405714D01*
X126614285Y-105405714D01*
X126709523Y-105453333D01*
X126280952Y-106024761D02*
X126376190Y-106072380D01*
X126614285Y-106072380D01*
X126709523Y-106024761D01*
X126757142Y-105929523D01*
X126757142Y-105834285D01*
X126709523Y-105739047D01*
X126614285Y-105691428D01*
X126376190Y-105691428D01*
X126280952Y-105643809D01*
X125804761Y-105405714D02*
X125804761Y-106405714D01*
X125804761Y-105453333D02*
X125709523Y-105405714D01*
X125519047Y-105405714D01*
X125423809Y-105453333D01*
X125376190Y-105500952D01*
X125328571Y-105596190D01*
X125328571Y-105881904D01*
X125376190Y-105977142D01*
X125423809Y-106024761D01*
X125519047Y-106072380D01*
X125709523Y-106072380D01*
X125804761Y-106024761D01*
X124519047Y-106024761D02*
X124614285Y-106072380D01*
X124804761Y-106072380D01*
X124900000Y-106024761D01*
X124947619Y-105929523D01*
X124947619Y-105548571D01*
X124900000Y-105453333D01*
X124804761Y-105405714D01*
X124614285Y-105405714D01*
X124519047Y-105453333D01*
X124471428Y-105548571D01*
X124471428Y-105643809D01*
X124947619Y-105739047D01*
X123519047Y-106072380D02*
X124090476Y-106072380D01*
X123804761Y-106072380D02*
X123804761Y-105072380D01*
X123900000Y-105215238D01*
X123995238Y-105310476D01*
X124090476Y-105358095D01*
X123185714Y-106405714D02*
X122947619Y-106405714D01*
X122947619Y-104977142D01*
X123185714Y-104977142D01*
X122423809Y-106072380D02*
X122423809Y-105072380D01*
X122042857Y-105072380D01*
X121947619Y-105120000D01*
X121900000Y-105167619D01*
X121852380Y-105262857D01*
X121852380Y-105405714D01*
X121900000Y-105500952D01*
X121947619Y-105548571D01*
X122042857Y-105596190D01*
X122423809Y-105596190D01*
X121090476Y-105548571D02*
X120947619Y-105596190D01*
X120900000Y-105643809D01*
X120852380Y-105739047D01*
X120852380Y-105881904D01*
X120900000Y-105977142D01*
X120947619Y-106024761D01*
X121042857Y-106072380D01*
X121423809Y-106072380D01*
X121423809Y-105072380D01*
X121090476Y-105072380D01*
X120995238Y-105120000D01*
X120947619Y-105167619D01*
X120900000Y-105262857D01*
X120900000Y-105358095D01*
X120947619Y-105453333D01*
X120995238Y-105500952D01*
X121090476Y-105548571D01*
X121423809Y-105548571D01*
X120233333Y-105072380D02*
X120138095Y-105072380D01*
X120042857Y-105120000D01*
X119995238Y-105167619D01*
X119947619Y-105262857D01*
X119900000Y-105453333D01*
X119900000Y-105691428D01*
X119947619Y-105881904D01*
X119995238Y-105977142D01*
X120042857Y-106024761D01*
X120138095Y-106072380D01*
X120233333Y-106072380D01*
X120328571Y-106024761D01*
X120376190Y-105977142D01*
X120423809Y-105881904D01*
X120471428Y-105691428D01*
X120471428Y-105453333D01*
X120423809Y-105262857D01*
X120376190Y-105167619D01*
X120328571Y-105120000D01*
X120233333Y-105072380D01*
X135519047Y-130905714D02*
X135757142Y-130905714D01*
X135757142Y-129477142D01*
X135519047Y-129477142D01*
X135185714Y-130524761D02*
X135042857Y-130572380D01*
X134804761Y-130572380D01*
X134709523Y-130524761D01*
X134661904Y-130477142D01*
X134614285Y-130381904D01*
X134614285Y-130286666D01*
X134661904Y-130191428D01*
X134709523Y-130143809D01*
X134804761Y-130096190D01*
X134995238Y-130048571D01*
X135090476Y-130000952D01*
X135138095Y-129953333D01*
X135185714Y-129858095D01*
X135185714Y-129762857D01*
X135138095Y-129667619D01*
X135090476Y-129620000D01*
X134995238Y-129572380D01*
X134757142Y-129572380D01*
X134614285Y-129620000D01*
X133804761Y-130524761D02*
X133900000Y-130572380D01*
X134090476Y-130572380D01*
X134185714Y-130524761D01*
X134233333Y-130429523D01*
X134233333Y-130048571D01*
X134185714Y-129953333D01*
X134090476Y-129905714D01*
X133900000Y-129905714D01*
X133804761Y-129953333D01*
X133757142Y-130048571D01*
X133757142Y-130143809D01*
X134233333Y-130239047D01*
X133328571Y-129905714D02*
X133328571Y-130572380D01*
X133328571Y-130000952D02*
X133280952Y-129953333D01*
X133185714Y-129905714D01*
X133042857Y-129905714D01*
X132947619Y-129953333D01*
X132900000Y-130048571D01*
X132900000Y-130572380D01*
X132471428Y-130524761D02*
X132376190Y-130572380D01*
X132185714Y-130572380D01*
X132090476Y-130524761D01*
X132042857Y-130429523D01*
X132042857Y-130381904D01*
X132090476Y-130286666D01*
X132185714Y-130239047D01*
X132328571Y-130239047D01*
X132423809Y-130191428D01*
X132471428Y-130096190D01*
X132471428Y-130048571D01*
X132423809Y-129953333D01*
X132328571Y-129905714D01*
X132185714Y-129905714D01*
X132090476Y-129953333D01*
X131471428Y-130572380D02*
X131566666Y-130524761D01*
X131614285Y-130477142D01*
X131661904Y-130381904D01*
X131661904Y-130096190D01*
X131614285Y-130000952D01*
X131566666Y-129953333D01*
X131471428Y-129905714D01*
X131328571Y-129905714D01*
X131233333Y-129953333D01*
X131185714Y-130000952D01*
X131138095Y-130096190D01*
X131138095Y-130381904D01*
X131185714Y-130477142D01*
X131233333Y-130524761D01*
X131328571Y-130572380D01*
X131471428Y-130572380D01*
X130709523Y-130572380D02*
X130709523Y-129905714D01*
X130709523Y-130096190D02*
X130661904Y-130000952D01*
X130614285Y-129953333D01*
X130519047Y-129905714D01*
X130423809Y-129905714D01*
X129566666Y-130572380D02*
X130138095Y-130572380D01*
X129852380Y-130572380D02*
X129852380Y-129572380D01*
X129947619Y-129715238D01*
X130042857Y-129810476D01*
X130138095Y-129858095D01*
X129233333Y-130905714D02*
X128995238Y-130905714D01*
X128995238Y-129477142D01*
X129233333Y-129477142D01*
X128471428Y-130572380D02*
X128471428Y-129572380D01*
X128090476Y-129572380D01*
X127995238Y-129620000D01*
X127947619Y-129667619D01*
X127900000Y-129762857D01*
X127900000Y-129905714D01*
X127947619Y-130000952D01*
X127995238Y-130048571D01*
X128090476Y-130096190D01*
X128471428Y-130096190D01*
X126900000Y-130477142D02*
X126947619Y-130524761D01*
X127090476Y-130572380D01*
X127185714Y-130572380D01*
X127328571Y-130524761D01*
X127423809Y-130429523D01*
X127471428Y-130334285D01*
X127519047Y-130143809D01*
X127519047Y-130000952D01*
X127471428Y-129810476D01*
X127423809Y-129715238D01*
X127328571Y-129620000D01*
X127185714Y-129572380D01*
X127090476Y-129572380D01*
X126947619Y-129620000D01*
X126900000Y-129667619D01*
X125947619Y-130572380D02*
X126519047Y-130572380D01*
X126233333Y-130572380D02*
X126233333Y-129572380D01*
X126328571Y-129715238D01*
X126423809Y-129810476D01*
X126519047Y-129858095D01*
X135497619Y-134405714D02*
X135735714Y-134405714D01*
X135735714Y-132977142D01*
X135497619Y-132977142D01*
X135164285Y-134024761D02*
X135021428Y-134072380D01*
X134783333Y-134072380D01*
X134688095Y-134024761D01*
X134640476Y-133977142D01*
X134592857Y-133881904D01*
X134592857Y-133786666D01*
X134640476Y-133691428D01*
X134688095Y-133643809D01*
X134783333Y-133596190D01*
X134973809Y-133548571D01*
X135069047Y-133500952D01*
X135116666Y-133453333D01*
X135164285Y-133358095D01*
X135164285Y-133262857D01*
X135116666Y-133167619D01*
X135069047Y-133120000D01*
X134973809Y-133072380D01*
X134735714Y-133072380D01*
X134592857Y-133120000D01*
X133783333Y-134024761D02*
X133878571Y-134072380D01*
X134069047Y-134072380D01*
X134164285Y-134024761D01*
X134211904Y-133929523D01*
X134211904Y-133548571D01*
X134164285Y-133453333D01*
X134069047Y-133405714D01*
X133878571Y-133405714D01*
X133783333Y-133453333D01*
X133735714Y-133548571D01*
X133735714Y-133643809D01*
X134211904Y-133739047D01*
X133307142Y-133405714D02*
X133307142Y-134072380D01*
X133307142Y-133500952D02*
X133259523Y-133453333D01*
X133164285Y-133405714D01*
X133021428Y-133405714D01*
X132926190Y-133453333D01*
X132878571Y-133548571D01*
X132878571Y-134072380D01*
X132450000Y-134024761D02*
X132354761Y-134072380D01*
X132164285Y-134072380D01*
X132069047Y-134024761D01*
X132021428Y-133929523D01*
X132021428Y-133881904D01*
X132069047Y-133786666D01*
X132164285Y-133739047D01*
X132307142Y-133739047D01*
X132402380Y-133691428D01*
X132450000Y-133596190D01*
X132450000Y-133548571D01*
X132402380Y-133453333D01*
X132307142Y-133405714D01*
X132164285Y-133405714D01*
X132069047Y-133453333D01*
X131450000Y-134072380D02*
X131545238Y-134024761D01*
X131592857Y-133977142D01*
X131640476Y-133881904D01*
X131640476Y-133596190D01*
X131592857Y-133500952D01*
X131545238Y-133453333D01*
X131450000Y-133405714D01*
X131307142Y-133405714D01*
X131211904Y-133453333D01*
X131164285Y-133500952D01*
X131116666Y-133596190D01*
X131116666Y-133881904D01*
X131164285Y-133977142D01*
X131211904Y-134024761D01*
X131307142Y-134072380D01*
X131450000Y-134072380D01*
X130688095Y-134072380D02*
X130688095Y-133405714D01*
X130688095Y-133596190D02*
X130640476Y-133500952D01*
X130592857Y-133453333D01*
X130497619Y-133405714D01*
X130402380Y-133405714D01*
X130164285Y-133072380D02*
X129545238Y-133072380D01*
X129878571Y-133453333D01*
X129735714Y-133453333D01*
X129640476Y-133500952D01*
X129592857Y-133548571D01*
X129545238Y-133643809D01*
X129545238Y-133881904D01*
X129592857Y-133977142D01*
X129640476Y-134024761D01*
X129735714Y-134072380D01*
X130021428Y-134072380D01*
X130116666Y-134024761D01*
X130164285Y-133977142D01*
X129211904Y-134405714D02*
X128973809Y-134405714D01*
X128973809Y-132977142D01*
X129211904Y-132977142D01*
X128450000Y-134072380D02*
X128450000Y-133072380D01*
X128069047Y-133072380D01*
X127973809Y-133120000D01*
X127926190Y-133167619D01*
X127878571Y-133262857D01*
X127878571Y-133405714D01*
X127926190Y-133500952D01*
X127973809Y-133548571D01*
X128069047Y-133596190D01*
X128450000Y-133596190D01*
X127497619Y-133786666D02*
X127021428Y-133786666D01*
X127592857Y-134072380D02*
X127259523Y-133072380D01*
X126926190Y-134072380D01*
X126688095Y-133072380D02*
X126021428Y-133072380D01*
X126450000Y-134072380D01*
X130566666Y-108155714D02*
X130804761Y-108155714D01*
X130804761Y-106727142D01*
X130566666Y-106727142D01*
X129709523Y-107822380D02*
X130185714Y-107822380D01*
X130185714Y-106822380D01*
X129376190Y-107298571D02*
X129042857Y-107298571D01*
X128900000Y-107822380D02*
X129376190Y-107822380D01*
X129376190Y-106822380D01*
X128900000Y-106822380D01*
X128471428Y-107822380D02*
X128471428Y-106822380D01*
X128233333Y-106822380D01*
X128090476Y-106870000D01*
X127995238Y-106965238D01*
X127947619Y-107060476D01*
X127900000Y-107250952D01*
X127900000Y-107393809D01*
X127947619Y-107584285D01*
X127995238Y-107679523D01*
X128090476Y-107774761D01*
X128233333Y-107822380D01*
X128471428Y-107822380D01*
X127614285Y-106822380D02*
X127042857Y-106822380D01*
X127328571Y-107822380D02*
X127328571Y-106822380D01*
X126280952Y-107822380D02*
X126280952Y-107298571D01*
X126328571Y-107203333D01*
X126423809Y-107155714D01*
X126614285Y-107155714D01*
X126709523Y-107203333D01*
X126280952Y-107774761D02*
X126376190Y-107822380D01*
X126614285Y-107822380D01*
X126709523Y-107774761D01*
X126757142Y-107679523D01*
X126757142Y-107584285D01*
X126709523Y-107489047D01*
X126614285Y-107441428D01*
X126376190Y-107441428D01*
X126280952Y-107393809D01*
X125804761Y-107155714D02*
X125804761Y-108155714D01*
X125804761Y-107203333D02*
X125709523Y-107155714D01*
X125519047Y-107155714D01*
X125423809Y-107203333D01*
X125376190Y-107250952D01*
X125328571Y-107346190D01*
X125328571Y-107631904D01*
X125376190Y-107727142D01*
X125423809Y-107774761D01*
X125519047Y-107822380D01*
X125709523Y-107822380D01*
X125804761Y-107774761D01*
X124519047Y-107774761D02*
X124614285Y-107822380D01*
X124804761Y-107822380D01*
X124900000Y-107774761D01*
X124947619Y-107679523D01*
X124947619Y-107298571D01*
X124900000Y-107203333D01*
X124804761Y-107155714D01*
X124614285Y-107155714D01*
X124519047Y-107203333D01*
X124471428Y-107298571D01*
X124471428Y-107393809D01*
X124947619Y-107489047D01*
X124090476Y-106917619D02*
X124042857Y-106870000D01*
X123947619Y-106822380D01*
X123709523Y-106822380D01*
X123614285Y-106870000D01*
X123566666Y-106917619D01*
X123519047Y-107012857D01*
X123519047Y-107108095D01*
X123566666Y-107250952D01*
X124138095Y-107822380D01*
X123519047Y-107822380D01*
X123185714Y-108155714D02*
X122947619Y-108155714D01*
X122947619Y-106727142D01*
X123185714Y-106727142D01*
X122423809Y-107822380D02*
X122423809Y-106822380D01*
X122042857Y-106822380D01*
X121947619Y-106870000D01*
X121900000Y-106917619D01*
X121852380Y-107012857D01*
X121852380Y-107155714D01*
X121900000Y-107250952D01*
X121947619Y-107298571D01*
X122042857Y-107346190D01*
X122423809Y-107346190D01*
X121090476Y-107298571D02*
X120947619Y-107346190D01*
X120900000Y-107393809D01*
X120852380Y-107489047D01*
X120852380Y-107631904D01*
X120900000Y-107727142D01*
X120947619Y-107774761D01*
X121042857Y-107822380D01*
X121423809Y-107822380D01*
X121423809Y-106822380D01*
X121090476Y-106822380D01*
X120995238Y-106870000D01*
X120947619Y-106917619D01*
X120900000Y-107012857D01*
X120900000Y-107108095D01*
X120947619Y-107203333D01*
X120995238Y-107250952D01*
X121090476Y-107298571D01*
X121423809Y-107298571D01*
X119900000Y-107822380D02*
X120471428Y-107822380D01*
X120185714Y-107822380D02*
X120185714Y-106822380D01*
X120280952Y-106965238D01*
X120376190Y-107060476D01*
X120471428Y-107108095D01*
X140057142Y-78555714D02*
X140295238Y-78555714D01*
X140295238Y-77127142D01*
X140057142Y-77127142D01*
X139676190Y-78222380D02*
X139676190Y-77222380D01*
X139247619Y-77317619D02*
X139200000Y-77270000D01*
X139104761Y-77222380D01*
X138866666Y-77222380D01*
X138771428Y-77270000D01*
X138723809Y-77317619D01*
X138676190Y-77412857D01*
X138676190Y-77508095D01*
X138723809Y-77650952D01*
X139295238Y-78222380D01*
X138676190Y-78222380D01*
X137676190Y-78127142D02*
X137723809Y-78174761D01*
X137866666Y-78222380D01*
X137961904Y-78222380D01*
X138104761Y-78174761D01*
X138200000Y-78079523D01*
X138247619Y-77984285D01*
X138295238Y-77793809D01*
X138295238Y-77650952D01*
X138247619Y-77460476D01*
X138200000Y-77365238D01*
X138104761Y-77270000D01*
X137961904Y-77222380D01*
X137866666Y-77222380D01*
X137723809Y-77270000D01*
X137676190Y-77317619D01*
X137342857Y-78555714D02*
X137104761Y-78555714D01*
X137104761Y-77127142D01*
X137342857Y-77127142D01*
X157702380Y-89722380D02*
X157130952Y-89722380D01*
X157416666Y-90722380D02*
X157416666Y-89722380D01*
X156892857Y-89722380D02*
X156226190Y-90722380D01*
X156226190Y-89722380D02*
X156892857Y-90722380D01*
X155416666Y-89722380D02*
X155607142Y-89722380D01*
X155702380Y-89770000D01*
X155750000Y-89817619D01*
X155845238Y-89960476D01*
X155892857Y-90150952D01*
X155892857Y-90531904D01*
X155845238Y-90627142D01*
X155797619Y-90674761D01*
X155702380Y-90722380D01*
X155511904Y-90722380D01*
X155416666Y-90674761D01*
X155369047Y-90627142D01*
X155321428Y-90531904D01*
X155321428Y-90293809D01*
X155369047Y-90198571D01*
X155416666Y-90150952D01*
X155511904Y-90103333D01*
X155702380Y-90103333D01*
X155797619Y-90150952D01*
X155845238Y-90198571D01*
X155892857Y-90293809D01*
X154892857Y-90627142D02*
X154845238Y-90674761D01*
X154892857Y-90722380D01*
X154940476Y-90674761D01*
X154892857Y-90627142D01*
X154892857Y-90722380D01*
X154892857Y-90103333D02*
X154845238Y-90150952D01*
X154892857Y-90198571D01*
X154940476Y-90150952D01*
X154892857Y-90103333D01*
X154892857Y-90198571D01*
X154416666Y-90722380D02*
X154416666Y-89722380D01*
X154035714Y-89722380D01*
X153940476Y-89770000D01*
X153892857Y-89817619D01*
X153845238Y-89912857D01*
X153845238Y-90055714D01*
X153892857Y-90150952D01*
X153940476Y-90198571D01*
X154035714Y-90246190D01*
X154416666Y-90246190D01*
X152845238Y-90627142D02*
X152892857Y-90674761D01*
X153035714Y-90722380D01*
X153130952Y-90722380D01*
X153273809Y-90674761D01*
X153369047Y-90579523D01*
X153416666Y-90484285D01*
X153464285Y-90293809D01*
X153464285Y-90150952D01*
X153416666Y-89960476D01*
X153369047Y-89865238D01*
X153273809Y-89770000D01*
X153130952Y-89722380D01*
X153035714Y-89722380D01*
X152892857Y-89770000D01*
X152845238Y-89817619D01*
X151988095Y-89722380D02*
X152178571Y-89722380D01*
X152273809Y-89770000D01*
X152321428Y-89817619D01*
X152416666Y-89960476D01*
X152464285Y-90150952D01*
X152464285Y-90531904D01*
X152416666Y-90627142D01*
X152369047Y-90674761D01*
X152273809Y-90722380D01*
X152083333Y-90722380D01*
X151988095Y-90674761D01*
X151940476Y-90627142D01*
X151892857Y-90531904D01*
X151892857Y-90293809D01*
X151940476Y-90198571D01*
X151988095Y-90150952D01*
X152083333Y-90103333D01*
X152273809Y-90103333D01*
X152369047Y-90150952D01*
X152416666Y-90198571D01*
X152464285Y-90293809D01*
X122533333Y-89255714D02*
X122771428Y-89255714D01*
X122771428Y-87827142D01*
X122533333Y-87827142D01*
X122295238Y-87922380D02*
X121723809Y-87922380D01*
X122009523Y-88922380D02*
X122009523Y-87922380D01*
X121485714Y-88255714D02*
X121295238Y-88922380D01*
X121104761Y-88446190D01*
X120914285Y-88922380D01*
X120723809Y-88255714D01*
X119961904Y-88874761D02*
X120057142Y-88922380D01*
X120247619Y-88922380D01*
X120342857Y-88874761D01*
X120390476Y-88779523D01*
X120390476Y-88398571D01*
X120342857Y-88303333D01*
X120247619Y-88255714D01*
X120057142Y-88255714D01*
X119961904Y-88303333D01*
X119914285Y-88398571D01*
X119914285Y-88493809D01*
X120390476Y-88589047D01*
X119009523Y-88922380D02*
X119485714Y-88922380D01*
X119485714Y-87922380D01*
X118676190Y-88922380D02*
X118676190Y-88255714D01*
X118676190Y-87922380D02*
X118723809Y-87970000D01*
X118676190Y-88017619D01*
X118628571Y-87970000D01*
X118676190Y-87922380D01*
X118676190Y-88017619D01*
X118342857Y-88255714D02*
X117961904Y-88255714D01*
X118200000Y-87922380D02*
X118200000Y-88779523D01*
X118152380Y-88874761D01*
X118057142Y-88922380D01*
X117961904Y-88922380D01*
X117247619Y-88874761D02*
X117342857Y-88922380D01*
X117533333Y-88922380D01*
X117628571Y-88874761D01*
X117676190Y-88779523D01*
X117676190Y-88398571D01*
X117628571Y-88303333D01*
X117533333Y-88255714D01*
X117342857Y-88255714D01*
X117247619Y-88303333D01*
X117200000Y-88398571D01*
X117200000Y-88493809D01*
X117676190Y-88589047D01*
X116866666Y-89255714D02*
X116628571Y-89255714D01*
X116628571Y-87827142D01*
X116866666Y-87827142D01*
X142130952Y-79874761D02*
X141988095Y-79922380D01*
X141750000Y-79922380D01*
X141654761Y-79874761D01*
X141607142Y-79827142D01*
X141559523Y-79731904D01*
X141559523Y-79636666D01*
X141607142Y-79541428D01*
X141654761Y-79493809D01*
X141750000Y-79446190D01*
X141940476Y-79398571D01*
X142035714Y-79350952D01*
X142083333Y-79303333D01*
X142130952Y-79208095D01*
X142130952Y-79112857D01*
X142083333Y-79017619D01*
X142035714Y-78970000D01*
X141940476Y-78922380D01*
X141702380Y-78922380D01*
X141559523Y-78970000D01*
X140559523Y-79827142D02*
X140607142Y-79874761D01*
X140750000Y-79922380D01*
X140845238Y-79922380D01*
X140988095Y-79874761D01*
X141083333Y-79779523D01*
X141130952Y-79684285D01*
X141178571Y-79493809D01*
X141178571Y-79350952D01*
X141130952Y-79160476D01*
X141083333Y-79065238D01*
X140988095Y-78970000D01*
X140845238Y-78922380D01*
X140750000Y-78922380D01*
X140607142Y-78970000D01*
X140559523Y-79017619D01*
X139654761Y-79922380D02*
X140130952Y-79922380D01*
X140130952Y-78922380D01*
X138797619Y-79922380D02*
X139369047Y-79922380D01*
X139083333Y-79922380D02*
X139083333Y-78922380D01*
X139178571Y-79065238D01*
X139273809Y-79160476D01*
X139369047Y-79208095D01*
X138369047Y-79827142D02*
X138321428Y-79874761D01*
X138369047Y-79922380D01*
X138416666Y-79874761D01*
X138369047Y-79827142D01*
X138369047Y-79922380D01*
X138369047Y-79303333D02*
X138321428Y-79350952D01*
X138369047Y-79398571D01*
X138416666Y-79350952D01*
X138369047Y-79303333D01*
X138369047Y-79398571D01*
X137892857Y-79922380D02*
X137892857Y-78922380D01*
X137511904Y-78922380D01*
X137416666Y-78970000D01*
X137369047Y-79017619D01*
X137321428Y-79112857D01*
X137321428Y-79255714D01*
X137369047Y-79350952D01*
X137416666Y-79398571D01*
X137511904Y-79446190D01*
X137892857Y-79446190D01*
X136559523Y-79398571D02*
X136416666Y-79446190D01*
X136369047Y-79493809D01*
X136321428Y-79589047D01*
X136321428Y-79731904D01*
X136369047Y-79827142D01*
X136416666Y-79874761D01*
X136511904Y-79922380D01*
X136892857Y-79922380D01*
X136892857Y-78922380D01*
X136559523Y-78922380D01*
X136464285Y-78970000D01*
X136416666Y-79017619D01*
X136369047Y-79112857D01*
X136369047Y-79208095D01*
X136416666Y-79303333D01*
X136464285Y-79350952D01*
X136559523Y-79398571D01*
X136892857Y-79398571D01*
X135750000Y-79350952D02*
X135845238Y-79303333D01*
X135892857Y-79255714D01*
X135940476Y-79160476D01*
X135940476Y-79112857D01*
X135892857Y-79017619D01*
X135845238Y-78970000D01*
X135750000Y-78922380D01*
X135559523Y-78922380D01*
X135464285Y-78970000D01*
X135416666Y-79017619D01*
X135369047Y-79112857D01*
X135369047Y-79160476D01*
X135416666Y-79255714D01*
X135464285Y-79303333D01*
X135559523Y-79350952D01*
X135750000Y-79350952D01*
X135845238Y-79398571D01*
X135892857Y-79446190D01*
X135940476Y-79541428D01*
X135940476Y-79731904D01*
X135892857Y-79827142D01*
X135845238Y-79874761D01*
X135750000Y-79922380D01*
X135559523Y-79922380D01*
X135464285Y-79874761D01*
X135416666Y-79827142D01*
X135369047Y-79731904D01*
X135369047Y-79541428D01*
X135416666Y-79446190D01*
X135464285Y-79398571D01*
X135559523Y-79350952D01*
X148007142Y-92222380D02*
X148340476Y-91746190D01*
X148578571Y-92222380D02*
X148578571Y-91222380D01*
X148197619Y-91222380D01*
X148102380Y-91270000D01*
X148054761Y-91317619D01*
X148007142Y-91412857D01*
X148007142Y-91555714D01*
X148054761Y-91650952D01*
X148102380Y-91698571D01*
X148197619Y-91746190D01*
X148578571Y-91746190D01*
X147673809Y-91222380D02*
X147007142Y-92222380D01*
X147007142Y-91222380D02*
X147673809Y-92222380D01*
X146721428Y-91222380D02*
X146102380Y-91222380D01*
X146435714Y-91603333D01*
X146292857Y-91603333D01*
X146197619Y-91650952D01*
X146150000Y-91698571D01*
X146102380Y-91793809D01*
X146102380Y-92031904D01*
X146150000Y-92127142D01*
X146197619Y-92174761D01*
X146292857Y-92222380D01*
X146578571Y-92222380D01*
X146673809Y-92174761D01*
X146721428Y-92127142D01*
X145673809Y-92127142D02*
X145626190Y-92174761D01*
X145673809Y-92222380D01*
X145721428Y-92174761D01*
X145673809Y-92127142D01*
X145673809Y-92222380D01*
X145673809Y-91603333D02*
X145626190Y-91650952D01*
X145673809Y-91698571D01*
X145721428Y-91650952D01*
X145673809Y-91603333D01*
X145673809Y-91698571D01*
X145197619Y-92222380D02*
X145197619Y-91222380D01*
X144816666Y-91222380D01*
X144721428Y-91270000D01*
X144673809Y-91317619D01*
X144626190Y-91412857D01*
X144626190Y-91555714D01*
X144673809Y-91650952D01*
X144721428Y-91698571D01*
X144816666Y-91746190D01*
X145197619Y-91746190D01*
X143626190Y-92127142D02*
X143673809Y-92174761D01*
X143816666Y-92222380D01*
X143911904Y-92222380D01*
X144054761Y-92174761D01*
X144150000Y-92079523D01*
X144197619Y-91984285D01*
X144245238Y-91793809D01*
X144245238Y-91650952D01*
X144197619Y-91460476D01*
X144150000Y-91365238D01*
X144054761Y-91270000D01*
X143911904Y-91222380D01*
X143816666Y-91222380D01*
X143673809Y-91270000D01*
X143626190Y-91317619D01*
X142721428Y-91222380D02*
X143197619Y-91222380D01*
X143245238Y-91698571D01*
X143197619Y-91650952D01*
X143102380Y-91603333D01*
X142864285Y-91603333D01*
X142769047Y-91650952D01*
X142721428Y-91698571D01*
X142673809Y-91793809D01*
X142673809Y-92031904D01*
X142721428Y-92127142D01*
X142769047Y-92174761D01*
X142864285Y-92222380D01*
X143102380Y-92222380D01*
X143197619Y-92174761D01*
X143245238Y-92127142D01*
X124326190Y-132630714D02*
X124564285Y-132630714D01*
X124564285Y-131202142D01*
X124326190Y-131202142D01*
X123945238Y-132297380D02*
X123945238Y-131297380D01*
X123707142Y-131297380D01*
X123564285Y-131345000D01*
X123469047Y-131440238D01*
X123421428Y-131535476D01*
X123373809Y-131725952D01*
X123373809Y-131868809D01*
X123421428Y-132059285D01*
X123469047Y-132154523D01*
X123564285Y-132249761D01*
X123707142Y-132297380D01*
X123945238Y-132297380D01*
X122992857Y-132011666D02*
X122516666Y-132011666D01*
X123088095Y-132297380D02*
X122754761Y-131297380D01*
X122421428Y-132297380D01*
X121516666Y-132202142D02*
X121564285Y-132249761D01*
X121707142Y-132297380D01*
X121802380Y-132297380D01*
X121945238Y-132249761D01*
X122040476Y-132154523D01*
X122088095Y-132059285D01*
X122135714Y-131868809D01*
X122135714Y-131725952D01*
X122088095Y-131535476D01*
X122040476Y-131440238D01*
X121945238Y-131345000D01*
X121802380Y-131297380D01*
X121707142Y-131297380D01*
X121564285Y-131345000D01*
X121516666Y-131392619D01*
X121183333Y-132630714D02*
X120945238Y-132630714D01*
X120945238Y-131202142D01*
X121183333Y-131202142D01*
X120421428Y-132297380D02*
X120421428Y-131297380D01*
X120040476Y-131297380D01*
X119945238Y-131345000D01*
X119897619Y-131392619D01*
X119850000Y-131487857D01*
X119850000Y-131630714D01*
X119897619Y-131725952D01*
X119945238Y-131773571D01*
X120040476Y-131821190D01*
X120421428Y-131821190D01*
X119469047Y-132011666D02*
X118992857Y-132011666D01*
X119564285Y-132297380D02*
X119230952Y-131297380D01*
X118897619Y-132297380D01*
X118135714Y-131630714D02*
X118135714Y-132297380D01*
X118373809Y-131249761D02*
X118611904Y-131964047D01*
X117992857Y-131964047D01*
X148700000Y-89355714D02*
X148938095Y-89355714D01*
X148938095Y-87927142D01*
X148700000Y-87927142D01*
X147747619Y-89022380D02*
X148080952Y-88546190D01*
X148319047Y-89022380D02*
X148319047Y-88022380D01*
X147938095Y-88022380D01*
X147842857Y-88070000D01*
X147795238Y-88117619D01*
X147747619Y-88212857D01*
X147747619Y-88355714D01*
X147795238Y-88450952D01*
X147842857Y-88498571D01*
X147938095Y-88546190D01*
X148319047Y-88546190D01*
X147366666Y-88974761D02*
X147223809Y-89022380D01*
X146985714Y-89022380D01*
X146890476Y-88974761D01*
X146842857Y-88927142D01*
X146795238Y-88831904D01*
X146795238Y-88736666D01*
X146842857Y-88641428D01*
X146890476Y-88593809D01*
X146985714Y-88546190D01*
X147176190Y-88498571D01*
X147271428Y-88450952D01*
X147319047Y-88403333D01*
X147366666Y-88308095D01*
X147366666Y-88212857D01*
X147319047Y-88117619D01*
X147271428Y-88070000D01*
X147176190Y-88022380D01*
X146938095Y-88022380D01*
X146795238Y-88070000D01*
X145938095Y-88355714D02*
X145938095Y-89022380D01*
X146176190Y-87974761D02*
X146414285Y-88689047D01*
X145795238Y-88689047D01*
X145271428Y-88450952D02*
X145366666Y-88403333D01*
X145414285Y-88355714D01*
X145461904Y-88260476D01*
X145461904Y-88212857D01*
X145414285Y-88117619D01*
X145366666Y-88070000D01*
X145271428Y-88022380D01*
X145080952Y-88022380D01*
X144985714Y-88070000D01*
X144938095Y-88117619D01*
X144890476Y-88212857D01*
X144890476Y-88260476D01*
X144938095Y-88355714D01*
X144985714Y-88403333D01*
X145080952Y-88450952D01*
X145271428Y-88450952D01*
X145366666Y-88498571D01*
X145414285Y-88546190D01*
X145461904Y-88641428D01*
X145461904Y-88831904D01*
X145414285Y-88927142D01*
X145366666Y-88974761D01*
X145271428Y-89022380D01*
X145080952Y-89022380D01*
X144985714Y-88974761D01*
X144938095Y-88927142D01*
X144890476Y-88831904D01*
X144890476Y-88641428D01*
X144938095Y-88546190D01*
X144985714Y-88498571D01*
X145080952Y-88450952D01*
X143985714Y-88022380D02*
X144461904Y-88022380D01*
X144509523Y-88498571D01*
X144461904Y-88450952D01*
X144366666Y-88403333D01*
X144128571Y-88403333D01*
X144033333Y-88450952D01*
X143985714Y-88498571D01*
X143938095Y-88593809D01*
X143938095Y-88831904D01*
X143985714Y-88927142D01*
X144033333Y-88974761D01*
X144128571Y-89022380D01*
X144366666Y-89022380D01*
X144461904Y-88974761D01*
X144509523Y-88927142D01*
X143509523Y-89022380D02*
X143509523Y-88022380D01*
X143509523Y-88403333D02*
X143414285Y-88355714D01*
X143223809Y-88355714D01*
X143128571Y-88403333D01*
X143080952Y-88450952D01*
X143033333Y-88546190D01*
X143033333Y-88831904D01*
X143080952Y-88927142D01*
X143128571Y-88974761D01*
X143223809Y-89022380D01*
X143414285Y-89022380D01*
X143509523Y-88974761D01*
X142700000Y-89355714D02*
X142461904Y-89355714D01*
X142461904Y-87927142D01*
X142700000Y-87927142D01*
X146669047Y-134405714D02*
X146907142Y-134405714D01*
X146907142Y-132977142D01*
X146669047Y-132977142D01*
X146335714Y-134024761D02*
X146192857Y-134072380D01*
X145954761Y-134072380D01*
X145859523Y-134024761D01*
X145811904Y-133977142D01*
X145764285Y-133881904D01*
X145764285Y-133786666D01*
X145811904Y-133691428D01*
X145859523Y-133643809D01*
X145954761Y-133596190D01*
X146145238Y-133548571D01*
X146240476Y-133500952D01*
X146288095Y-133453333D01*
X146335714Y-133358095D01*
X146335714Y-133262857D01*
X146288095Y-133167619D01*
X146240476Y-133120000D01*
X146145238Y-133072380D01*
X145907142Y-133072380D01*
X145764285Y-133120000D01*
X144954761Y-134024761D02*
X145050000Y-134072380D01*
X145240476Y-134072380D01*
X145335714Y-134024761D01*
X145383333Y-133929523D01*
X145383333Y-133548571D01*
X145335714Y-133453333D01*
X145240476Y-133405714D01*
X145050000Y-133405714D01*
X144954761Y-133453333D01*
X144907142Y-133548571D01*
X144907142Y-133643809D01*
X145383333Y-133739047D01*
X144478571Y-133405714D02*
X144478571Y-134072380D01*
X144478571Y-133500952D02*
X144430952Y-133453333D01*
X144335714Y-133405714D01*
X144192857Y-133405714D01*
X144097619Y-133453333D01*
X144050000Y-133548571D01*
X144050000Y-134072380D01*
X143621428Y-134024761D02*
X143526190Y-134072380D01*
X143335714Y-134072380D01*
X143240476Y-134024761D01*
X143192857Y-133929523D01*
X143192857Y-133881904D01*
X143240476Y-133786666D01*
X143335714Y-133739047D01*
X143478571Y-133739047D01*
X143573809Y-133691428D01*
X143621428Y-133596190D01*
X143621428Y-133548571D01*
X143573809Y-133453333D01*
X143478571Y-133405714D01*
X143335714Y-133405714D01*
X143240476Y-133453333D01*
X142621428Y-134072380D02*
X142716666Y-134024761D01*
X142764285Y-133977142D01*
X142811904Y-133881904D01*
X142811904Y-133596190D01*
X142764285Y-133500952D01*
X142716666Y-133453333D01*
X142621428Y-133405714D01*
X142478571Y-133405714D01*
X142383333Y-133453333D01*
X142335714Y-133500952D01*
X142288095Y-133596190D01*
X142288095Y-133881904D01*
X142335714Y-133977142D01*
X142383333Y-134024761D01*
X142478571Y-134072380D01*
X142621428Y-134072380D01*
X141859523Y-134072380D02*
X141859523Y-133405714D01*
X141859523Y-133596190D02*
X141811904Y-133500952D01*
X141764285Y-133453333D01*
X141669047Y-133405714D01*
X141573809Y-133405714D01*
X141050000Y-133072380D02*
X140954761Y-133072380D01*
X140859523Y-133120000D01*
X140811904Y-133167619D01*
X140764285Y-133262857D01*
X140716666Y-133453333D01*
X140716666Y-133691428D01*
X140764285Y-133881904D01*
X140811904Y-133977142D01*
X140859523Y-134024761D01*
X140954761Y-134072380D01*
X141050000Y-134072380D01*
X141145238Y-134024761D01*
X141192857Y-133977142D01*
X141240476Y-133881904D01*
X141288095Y-133691428D01*
X141288095Y-133453333D01*
X141240476Y-133262857D01*
X141192857Y-133167619D01*
X141145238Y-133120000D01*
X141050000Y-133072380D01*
X140383333Y-134405714D02*
X140145238Y-134405714D01*
X140145238Y-132977142D01*
X140383333Y-132977142D01*
X139621428Y-134072380D02*
X139621428Y-133072380D01*
X139240476Y-133072380D01*
X139145238Y-133120000D01*
X139097619Y-133167619D01*
X139050000Y-133262857D01*
X139050000Y-133405714D01*
X139097619Y-133500952D01*
X139145238Y-133548571D01*
X139240476Y-133596190D01*
X139621428Y-133596190D01*
X138050000Y-133977142D02*
X138097619Y-134024761D01*
X138240476Y-134072380D01*
X138335714Y-134072380D01*
X138478571Y-134024761D01*
X138573809Y-133929523D01*
X138621428Y-133834285D01*
X138669047Y-133643809D01*
X138669047Y-133500952D01*
X138621428Y-133310476D01*
X138573809Y-133215238D01*
X138478571Y-133120000D01*
X138335714Y-133072380D01*
X138240476Y-133072380D01*
X138097619Y-133120000D01*
X138050000Y-133167619D01*
X137716666Y-133072380D02*
X137097619Y-133072380D01*
X137430952Y-133453333D01*
X137288095Y-133453333D01*
X137192857Y-133500952D01*
X137145238Y-133548571D01*
X137097619Y-133643809D01*
X137097619Y-133881904D01*
X137145238Y-133977142D01*
X137192857Y-134024761D01*
X137288095Y-134072380D01*
X137573809Y-134072380D01*
X137669047Y-134024761D01*
X137716666Y-133977142D01*
D10*
X122750000Y-102762857D02*
X122750000Y-101562857D01*
X122064285Y-102762857D01*
X122064285Y-101562857D01*
X121035714Y-102705714D02*
X121150000Y-102762857D01*
X121378571Y-102762857D01*
X121492857Y-102705714D01*
X121550000Y-102591428D01*
X121550000Y-102134285D01*
X121492857Y-102020000D01*
X121378571Y-101962857D01*
X121150000Y-101962857D01*
X121035714Y-102020000D01*
X120978571Y-102134285D01*
X120978571Y-102248571D01*
X121550000Y-102362857D01*
X120292857Y-102762857D02*
X120407142Y-102705714D01*
X120464285Y-102648571D01*
X120521428Y-102534285D01*
X120521428Y-102191428D01*
X120464285Y-102077142D01*
X120407142Y-102020000D01*
X120292857Y-101962857D01*
X120121428Y-101962857D01*
X120007142Y-102020000D01*
X119950000Y-102077142D01*
X119892857Y-102191428D01*
X119892857Y-102534285D01*
X119950000Y-102648571D01*
X120007142Y-102705714D01*
X120121428Y-102762857D01*
X120292857Y-102762857D01*
X119378571Y-102762857D02*
X119378571Y-101562857D01*
X118921428Y-101562857D01*
X118807142Y-101620000D01*
X118750000Y-101677142D01*
X118692857Y-101791428D01*
X118692857Y-101962857D01*
X118750000Y-102077142D01*
X118807142Y-102134285D01*
X118921428Y-102191428D01*
X119378571Y-102191428D01*
X118178571Y-102762857D02*
X118178571Y-101962857D01*
X118178571Y-101562857D02*
X118235714Y-101620000D01*
X118178571Y-101677142D01*
X118121428Y-101620000D01*
X118178571Y-101562857D01*
X118178571Y-101677142D01*
X117721428Y-102762857D02*
X117092857Y-101962857D01*
X117721428Y-101962857D02*
X117092857Y-102762857D01*
X116178571Y-102705714D02*
X116292857Y-102762857D01*
X116521428Y-102762857D01*
X116635714Y-102705714D01*
X116692857Y-102591428D01*
X116692857Y-102134285D01*
X116635714Y-102020000D01*
X116521428Y-101962857D01*
X116292857Y-101962857D01*
X116178571Y-102020000D01*
X116121428Y-102134285D01*
X116121428Y-102248571D01*
X116692857Y-102362857D01*
X115435714Y-102762857D02*
X115550000Y-102705714D01*
X115607142Y-102591428D01*
X115607142Y-101562857D01*
D12*
X146697619Y-130905714D02*
X146935714Y-130905714D01*
X146935714Y-129477142D01*
X146697619Y-129477142D01*
X146459523Y-129572380D02*
X146126190Y-130572380D01*
X145792857Y-129572380D01*
X145697619Y-130667619D02*
X144935714Y-130667619D01*
X144697619Y-130572380D02*
X144697619Y-129905714D01*
X144697619Y-130000952D02*
X144650000Y-129953333D01*
X144554761Y-129905714D01*
X144411904Y-129905714D01*
X144316666Y-129953333D01*
X144269047Y-130048571D01*
X144269047Y-130572380D01*
X144269047Y-130048571D02*
X144221428Y-129953333D01*
X144126190Y-129905714D01*
X143983333Y-129905714D01*
X143888095Y-129953333D01*
X143840476Y-130048571D01*
X143840476Y-130572380D01*
X142983333Y-130524761D02*
X143078571Y-130572380D01*
X143269047Y-130572380D01*
X143364285Y-130524761D01*
X143411904Y-130429523D01*
X143411904Y-130048571D01*
X143364285Y-129953333D01*
X143269047Y-129905714D01*
X143078571Y-129905714D01*
X142983333Y-129953333D01*
X142935714Y-130048571D01*
X142935714Y-130143809D01*
X143411904Y-130239047D01*
X142078571Y-130572380D02*
X142078571Y-130048571D01*
X142126190Y-129953333D01*
X142221428Y-129905714D01*
X142411904Y-129905714D01*
X142507142Y-129953333D01*
X142078571Y-130524761D02*
X142173809Y-130572380D01*
X142411904Y-130572380D01*
X142507142Y-130524761D01*
X142554761Y-130429523D01*
X142554761Y-130334285D01*
X142507142Y-130239047D01*
X142411904Y-130191428D01*
X142173809Y-130191428D01*
X142078571Y-130143809D01*
X141650000Y-130524761D02*
X141554761Y-130572380D01*
X141364285Y-130572380D01*
X141269047Y-130524761D01*
X141221428Y-130429523D01*
X141221428Y-130381904D01*
X141269047Y-130286666D01*
X141364285Y-130239047D01*
X141507142Y-130239047D01*
X141602380Y-130191428D01*
X141650000Y-130096190D01*
X141650000Y-130048571D01*
X141602380Y-129953333D01*
X141507142Y-129905714D01*
X141364285Y-129905714D01*
X141269047Y-129953333D01*
X140792857Y-130477142D02*
X140745238Y-130524761D01*
X140792857Y-130572380D01*
X140840476Y-130524761D01*
X140792857Y-130477142D01*
X140792857Y-130572380D01*
X140411904Y-130905714D02*
X140173809Y-130905714D01*
X140173809Y-129477142D01*
X140411904Y-129477142D01*
X139650000Y-130572380D02*
X139650000Y-129572380D01*
X139269047Y-129572380D01*
X139173809Y-129620000D01*
X139126190Y-129667619D01*
X139078571Y-129762857D01*
X139078571Y-129905714D01*
X139126190Y-130000952D01*
X139173809Y-130048571D01*
X139269047Y-130096190D01*
X139650000Y-130096190D01*
X138697619Y-130286666D02*
X138221428Y-130286666D01*
X138792857Y-130572380D02*
X138459523Y-129572380D01*
X138126190Y-130572380D01*
X137602380Y-129572380D02*
X137507142Y-129572380D01*
X137411904Y-129620000D01*
X137364285Y-129667619D01*
X137316666Y-129762857D01*
X137269047Y-129953333D01*
X137269047Y-130191428D01*
X137316666Y-130381904D01*
X137364285Y-130477142D01*
X137411904Y-130524761D01*
X137507142Y-130572380D01*
X137602380Y-130572380D01*
X137697619Y-130524761D01*
X137745238Y-130477142D01*
X137792857Y-130381904D01*
X137840476Y-130191428D01*
X137840476Y-129953333D01*
X137792857Y-129762857D01*
X137745238Y-129667619D01*
X137697619Y-129620000D01*
X137602380Y-129572380D01*
X130347619Y-89255714D02*
X130585714Y-89255714D01*
X130585714Y-87827142D01*
X130347619Y-87827142D01*
X130014285Y-88636666D02*
X129538095Y-88636666D01*
X130109523Y-88922380D02*
X129776190Y-87922380D01*
X129442857Y-88922380D01*
X129109523Y-88922380D02*
X129109523Y-88255714D01*
X129109523Y-88446190D02*
X129061904Y-88350952D01*
X129014285Y-88303333D01*
X128919047Y-88255714D01*
X128823809Y-88255714D01*
X128490476Y-88922380D02*
X128490476Y-88255714D01*
X128490476Y-88350952D02*
X128442857Y-88303333D01*
X128347619Y-88255714D01*
X128204761Y-88255714D01*
X128109523Y-88303333D01*
X128061904Y-88398571D01*
X128061904Y-88922380D01*
X128061904Y-88398571D02*
X128014285Y-88303333D01*
X127919047Y-88255714D01*
X127776190Y-88255714D01*
X127680952Y-88303333D01*
X127633333Y-88398571D01*
X127633333Y-88922380D01*
X127252380Y-89255714D02*
X127014285Y-89255714D01*
X127014285Y-87827142D01*
X127252380Y-87827142D01*
X160380952Y-96172380D02*
X159809523Y-96172380D01*
X160095238Y-97172380D02*
X160095238Y-96172380D01*
X159571428Y-96172380D02*
X158904761Y-97172380D01*
X158904761Y-96172380D02*
X159571428Y-97172380D01*
X158000000Y-97172380D02*
X158571428Y-97172380D01*
X158285714Y-97172380D02*
X158285714Y-96172380D01*
X158380952Y-96315238D01*
X158476190Y-96410476D01*
X158571428Y-96458095D01*
X157571428Y-97077142D02*
X157523809Y-97124761D01*
X157571428Y-97172380D01*
X157619047Y-97124761D01*
X157571428Y-97077142D01*
X157571428Y-97172380D01*
X157571428Y-96553333D02*
X157523809Y-96600952D01*
X157571428Y-96648571D01*
X157619047Y-96600952D01*
X157571428Y-96553333D01*
X157571428Y-96648571D01*
X157095238Y-97172380D02*
X157095238Y-96172380D01*
X156714285Y-96172380D01*
X156619047Y-96220000D01*
X156571428Y-96267619D01*
X156523809Y-96362857D01*
X156523809Y-96505714D01*
X156571428Y-96600952D01*
X156619047Y-96648571D01*
X156714285Y-96696190D01*
X157095238Y-96696190D01*
X156142857Y-96886666D02*
X155666666Y-96886666D01*
X156238095Y-97172380D02*
X155904761Y-96172380D01*
X155571428Y-97172380D01*
X155190476Y-97172380D02*
X155000000Y-97172380D01*
X154904761Y-97124761D01*
X154857142Y-97077142D01*
X154761904Y-96934285D01*
X154714285Y-96743809D01*
X154714285Y-96362857D01*
X154761904Y-96267619D01*
X154809523Y-96220000D01*
X154904761Y-96172380D01*
X155095238Y-96172380D01*
X155190476Y-96220000D01*
X155238095Y-96267619D01*
X155285714Y-96362857D01*
X155285714Y-96600952D01*
X155238095Y-96696190D01*
X155190476Y-96743809D01*
X155095238Y-96791428D01*
X154904761Y-96791428D01*
X154809523Y-96743809D01*
X154761904Y-96696190D01*
X154714285Y-96600952D01*
X157800000Y-89355714D02*
X158038095Y-89355714D01*
X158038095Y-87927142D01*
X157800000Y-87927142D01*
X156847619Y-89022380D02*
X157180952Y-88546190D01*
X157419047Y-89022380D02*
X157419047Y-88022380D01*
X157038095Y-88022380D01*
X156942857Y-88070000D01*
X156895238Y-88117619D01*
X156847619Y-88212857D01*
X156847619Y-88355714D01*
X156895238Y-88450952D01*
X156942857Y-88498571D01*
X157038095Y-88546190D01*
X157419047Y-88546190D01*
X156466666Y-88974761D02*
X156323809Y-89022380D01*
X156085714Y-89022380D01*
X155990476Y-88974761D01*
X155942857Y-88927142D01*
X155895238Y-88831904D01*
X155895238Y-88736666D01*
X155942857Y-88641428D01*
X155990476Y-88593809D01*
X156085714Y-88546190D01*
X156276190Y-88498571D01*
X156371428Y-88450952D01*
X156419047Y-88403333D01*
X156466666Y-88308095D01*
X156466666Y-88212857D01*
X156419047Y-88117619D01*
X156371428Y-88070000D01*
X156276190Y-88022380D01*
X156038095Y-88022380D01*
X155895238Y-88070000D01*
X155038095Y-88355714D02*
X155038095Y-89022380D01*
X155276190Y-87974761D02*
X155514285Y-88689047D01*
X154895238Y-88689047D01*
X154371428Y-88450952D02*
X154466666Y-88403333D01*
X154514285Y-88355714D01*
X154561904Y-88260476D01*
X154561904Y-88212857D01*
X154514285Y-88117619D01*
X154466666Y-88070000D01*
X154371428Y-88022380D01*
X154180952Y-88022380D01*
X154085714Y-88070000D01*
X154038095Y-88117619D01*
X153990476Y-88212857D01*
X153990476Y-88260476D01*
X154038095Y-88355714D01*
X154085714Y-88403333D01*
X154180952Y-88450952D01*
X154371428Y-88450952D01*
X154466666Y-88498571D01*
X154514285Y-88546190D01*
X154561904Y-88641428D01*
X154561904Y-88831904D01*
X154514285Y-88927142D01*
X154466666Y-88974761D01*
X154371428Y-89022380D01*
X154180952Y-89022380D01*
X154085714Y-88974761D01*
X154038095Y-88927142D01*
X153990476Y-88831904D01*
X153990476Y-88641428D01*
X154038095Y-88546190D01*
X154085714Y-88498571D01*
X154180952Y-88450952D01*
X153085714Y-88022380D02*
X153561904Y-88022380D01*
X153609523Y-88498571D01*
X153561904Y-88450952D01*
X153466666Y-88403333D01*
X153228571Y-88403333D01*
X153133333Y-88450952D01*
X153085714Y-88498571D01*
X153038095Y-88593809D01*
X153038095Y-88831904D01*
X153085714Y-88927142D01*
X153133333Y-88974761D01*
X153228571Y-89022380D01*
X153466666Y-89022380D01*
X153561904Y-88974761D01*
X153609523Y-88927142D01*
X152180952Y-89022380D02*
X152180952Y-88498571D01*
X152228571Y-88403333D01*
X152323809Y-88355714D01*
X152514285Y-88355714D01*
X152609523Y-88403333D01*
X152180952Y-88974761D02*
X152276190Y-89022380D01*
X152514285Y-89022380D01*
X152609523Y-88974761D01*
X152657142Y-88879523D01*
X152657142Y-88784285D01*
X152609523Y-88689047D01*
X152514285Y-88641428D01*
X152276190Y-88641428D01*
X152180952Y-88593809D01*
X151800000Y-89355714D02*
X151561904Y-89355714D01*
X151561904Y-87927142D01*
X151800000Y-87927142D01*
X122916666Y-114472380D02*
X122916666Y-113472380D01*
X122535714Y-113472380D01*
X122440476Y-113520000D01*
X122392857Y-113567619D01*
X122345238Y-113662857D01*
X122345238Y-113805714D01*
X122392857Y-113900952D01*
X122440476Y-113948571D01*
X122535714Y-113996190D01*
X122916666Y-113996190D01*
X121964285Y-114186666D02*
X121488095Y-114186666D01*
X122059523Y-114472380D02*
X121726190Y-113472380D01*
X121392857Y-114472380D01*
X120916666Y-113900952D02*
X121011904Y-113853333D01*
X121059523Y-113805714D01*
X121107142Y-113710476D01*
X121107142Y-113662857D01*
X121059523Y-113567619D01*
X121011904Y-113520000D01*
X120916666Y-113472380D01*
X120726190Y-113472380D01*
X120630952Y-113520000D01*
X120583333Y-113567619D01*
X120535714Y-113662857D01*
X120535714Y-113710476D01*
X120583333Y-113805714D01*
X120630952Y-113853333D01*
X120726190Y-113900952D01*
X120916666Y-113900952D01*
X121011904Y-113948571D01*
X121059523Y-113996190D01*
X121107142Y-114091428D01*
X121107142Y-114281904D01*
X121059523Y-114377142D01*
X121011904Y-114424761D01*
X120916666Y-114472380D01*
X120726190Y-114472380D01*
X120630952Y-114424761D01*
X120583333Y-114377142D01*
X120535714Y-114281904D01*
X120535714Y-114091428D01*
X120583333Y-113996190D01*
X120630952Y-113948571D01*
X120726190Y-113900952D01*
X149078571Y-89722380D02*
X148507142Y-89722380D01*
X148792857Y-90722380D02*
X148792857Y-89722380D01*
X148269047Y-89722380D02*
X147602380Y-90722380D01*
X147602380Y-89722380D02*
X148269047Y-90722380D01*
X147316666Y-89722380D02*
X146697619Y-89722380D01*
X147030952Y-90103333D01*
X146888095Y-90103333D01*
X146792857Y-90150952D01*
X146745238Y-90198571D01*
X146697619Y-90293809D01*
X146697619Y-90531904D01*
X146745238Y-90627142D01*
X146792857Y-90674761D01*
X146888095Y-90722380D01*
X147173809Y-90722380D01*
X147269047Y-90674761D01*
X147316666Y-90627142D01*
X146269047Y-90627142D02*
X146221428Y-90674761D01*
X146269047Y-90722380D01*
X146316666Y-90674761D01*
X146269047Y-90627142D01*
X146269047Y-90722380D01*
X146269047Y-90103333D02*
X146221428Y-90150952D01*
X146269047Y-90198571D01*
X146316666Y-90150952D01*
X146269047Y-90103333D01*
X146269047Y-90198571D01*
X145792857Y-90722380D02*
X145792857Y-89722380D01*
X145411904Y-89722380D01*
X145316666Y-89770000D01*
X145269047Y-89817619D01*
X145221428Y-89912857D01*
X145221428Y-90055714D01*
X145269047Y-90150952D01*
X145316666Y-90198571D01*
X145411904Y-90246190D01*
X145792857Y-90246190D01*
X144459523Y-90198571D02*
X144316666Y-90246190D01*
X144269047Y-90293809D01*
X144221428Y-90389047D01*
X144221428Y-90531904D01*
X144269047Y-90627142D01*
X144316666Y-90674761D01*
X144411904Y-90722380D01*
X144792857Y-90722380D01*
X144792857Y-89722380D01*
X144459523Y-89722380D01*
X144364285Y-89770000D01*
X144316666Y-89817619D01*
X144269047Y-89912857D01*
X144269047Y-90008095D01*
X144316666Y-90103333D01*
X144364285Y-90150952D01*
X144459523Y-90198571D01*
X144792857Y-90198571D01*
X143269047Y-90722380D02*
X143840476Y-90722380D01*
X143554761Y-90722380D02*
X143554761Y-89722380D01*
X143650000Y-89865238D01*
X143745238Y-89960476D01*
X143840476Y-90008095D01*
X142650000Y-89722380D02*
X142554761Y-89722380D01*
X142459523Y-89770000D01*
X142411904Y-89817619D01*
X142364285Y-89912857D01*
X142316666Y-90103333D01*
X142316666Y-90341428D01*
X142364285Y-90531904D01*
X142411904Y-90627142D01*
X142459523Y-90674761D01*
X142554761Y-90722380D01*
X142650000Y-90722380D01*
X142745238Y-90674761D01*
X142792857Y-90627142D01*
X142840476Y-90531904D01*
X142888095Y-90341428D01*
X142888095Y-90103333D01*
X142840476Y-89912857D01*
X142792857Y-89817619D01*
X142745238Y-89770000D01*
X142650000Y-89722380D01*
X159526190Y-95805714D02*
X159764285Y-95805714D01*
X159764285Y-94377142D01*
X159526190Y-94377142D01*
X159240476Y-94472380D02*
X159002380Y-95472380D01*
X158811904Y-94758095D01*
X158621428Y-95472380D01*
X158383333Y-94472380D01*
X158002380Y-95472380D02*
X158002380Y-94805714D01*
X158002380Y-94996190D02*
X157954761Y-94900952D01*
X157907142Y-94853333D01*
X157811904Y-94805714D01*
X157716666Y-94805714D01*
X157383333Y-95472380D02*
X157383333Y-94805714D01*
X157383333Y-94472380D02*
X157430952Y-94520000D01*
X157383333Y-94567619D01*
X157335714Y-94520000D01*
X157383333Y-94472380D01*
X157383333Y-94567619D01*
X157050000Y-94805714D02*
X156669047Y-94805714D01*
X156907142Y-94472380D02*
X156907142Y-95329523D01*
X156859523Y-95424761D01*
X156764285Y-95472380D01*
X156669047Y-95472380D01*
X155954761Y-95424761D02*
X156050000Y-95472380D01*
X156240476Y-95472380D01*
X156335714Y-95424761D01*
X156383333Y-95329523D01*
X156383333Y-94948571D01*
X156335714Y-94853333D01*
X156240476Y-94805714D01*
X156050000Y-94805714D01*
X155954761Y-94853333D01*
X155907142Y-94948571D01*
X155907142Y-95043809D01*
X156383333Y-95139047D01*
X155573809Y-95805714D02*
X155335714Y-95805714D01*
X155335714Y-94377142D01*
X155573809Y-94377142D01*
X135519047Y-132655714D02*
X135757142Y-132655714D01*
X135757142Y-131227142D01*
X135519047Y-131227142D01*
X135185714Y-132274761D02*
X135042857Y-132322380D01*
X134804761Y-132322380D01*
X134709523Y-132274761D01*
X134661904Y-132227142D01*
X134614285Y-132131904D01*
X134614285Y-132036666D01*
X134661904Y-131941428D01*
X134709523Y-131893809D01*
X134804761Y-131846190D01*
X134995238Y-131798571D01*
X135090476Y-131750952D01*
X135138095Y-131703333D01*
X135185714Y-131608095D01*
X135185714Y-131512857D01*
X135138095Y-131417619D01*
X135090476Y-131370000D01*
X134995238Y-131322380D01*
X134757142Y-131322380D01*
X134614285Y-131370000D01*
X133804761Y-132274761D02*
X133900000Y-132322380D01*
X134090476Y-132322380D01*
X134185714Y-132274761D01*
X134233333Y-132179523D01*
X134233333Y-131798571D01*
X134185714Y-131703333D01*
X134090476Y-131655714D01*
X133900000Y-131655714D01*
X133804761Y-131703333D01*
X133757142Y-131798571D01*
X133757142Y-131893809D01*
X134233333Y-131989047D01*
X133328571Y-131655714D02*
X133328571Y-132322380D01*
X133328571Y-131750952D02*
X133280952Y-131703333D01*
X133185714Y-131655714D01*
X133042857Y-131655714D01*
X132947619Y-131703333D01*
X132900000Y-131798571D01*
X132900000Y-132322380D01*
X132471428Y-132274761D02*
X132376190Y-132322380D01*
X132185714Y-132322380D01*
X132090476Y-132274761D01*
X132042857Y-132179523D01*
X132042857Y-132131904D01*
X132090476Y-132036666D01*
X132185714Y-131989047D01*
X132328571Y-131989047D01*
X132423809Y-131941428D01*
X132471428Y-131846190D01*
X132471428Y-131798571D01*
X132423809Y-131703333D01*
X132328571Y-131655714D01*
X132185714Y-131655714D01*
X132090476Y-131703333D01*
X131471428Y-132322380D02*
X131566666Y-132274761D01*
X131614285Y-132227142D01*
X131661904Y-132131904D01*
X131661904Y-131846190D01*
X131614285Y-131750952D01*
X131566666Y-131703333D01*
X131471428Y-131655714D01*
X131328571Y-131655714D01*
X131233333Y-131703333D01*
X131185714Y-131750952D01*
X131138095Y-131846190D01*
X131138095Y-132131904D01*
X131185714Y-132227142D01*
X131233333Y-132274761D01*
X131328571Y-132322380D01*
X131471428Y-132322380D01*
X130709523Y-132322380D02*
X130709523Y-131655714D01*
X130709523Y-131846190D02*
X130661904Y-131750952D01*
X130614285Y-131703333D01*
X130519047Y-131655714D01*
X130423809Y-131655714D01*
X130138095Y-131417619D02*
X130090476Y-131370000D01*
X129995238Y-131322380D01*
X129757142Y-131322380D01*
X129661904Y-131370000D01*
X129614285Y-131417619D01*
X129566666Y-131512857D01*
X129566666Y-131608095D01*
X129614285Y-131750952D01*
X130185714Y-132322380D01*
X129566666Y-132322380D01*
X129233333Y-132655714D02*
X128995238Y-132655714D01*
X128995238Y-131227142D01*
X129233333Y-131227142D01*
X128471428Y-132322380D02*
X128471428Y-131322380D01*
X128090476Y-131322380D01*
X127995238Y-131370000D01*
X127947619Y-131417619D01*
X127900000Y-131512857D01*
X127900000Y-131655714D01*
X127947619Y-131750952D01*
X127995238Y-131798571D01*
X128090476Y-131846190D01*
X128471428Y-131846190D01*
X126900000Y-132227142D02*
X126947619Y-132274761D01*
X127090476Y-132322380D01*
X127185714Y-132322380D01*
X127328571Y-132274761D01*
X127423809Y-132179523D01*
X127471428Y-132084285D01*
X127519047Y-131893809D01*
X127519047Y-131750952D01*
X127471428Y-131560476D01*
X127423809Y-131465238D01*
X127328571Y-131370000D01*
X127185714Y-131322380D01*
X127090476Y-131322380D01*
X126947619Y-131370000D01*
X126900000Y-131417619D01*
X126519047Y-131417619D02*
X126471428Y-131370000D01*
X126376190Y-131322380D01*
X126138095Y-131322380D01*
X126042857Y-131370000D01*
X125995238Y-131417619D01*
X125947619Y-131512857D01*
X125947619Y-131608095D01*
X125995238Y-131750952D01*
X126566666Y-132322380D01*
X125947619Y-132322380D01*
X122889285Y-117247380D02*
X122889285Y-116247380D01*
X122508333Y-116247380D01*
X122413095Y-116295000D01*
X122365476Y-116342619D01*
X122317857Y-116437857D01*
X122317857Y-116580714D01*
X122365476Y-116675952D01*
X122413095Y-116723571D01*
X122508333Y-116771190D01*
X122889285Y-116771190D01*
X121317857Y-117152142D02*
X121365476Y-117199761D01*
X121508333Y-117247380D01*
X121603571Y-117247380D01*
X121746428Y-117199761D01*
X121841666Y-117104523D01*
X121889285Y-117009285D01*
X121936904Y-116818809D01*
X121936904Y-116675952D01*
X121889285Y-116485476D01*
X121841666Y-116390238D01*
X121746428Y-116295000D01*
X121603571Y-116247380D01*
X121508333Y-116247380D01*
X121365476Y-116295000D01*
X121317857Y-116342619D01*
X120365476Y-117247380D02*
X120936904Y-117247380D01*
X120651190Y-117247380D02*
X120651190Y-116247380D01*
X120746428Y-116390238D01*
X120841666Y-116485476D01*
X120936904Y-116533095D01*
X119413095Y-117247380D02*
X119984523Y-117247380D01*
X119698809Y-117247380D02*
X119698809Y-116247380D01*
X119794047Y-116390238D01*
X119889285Y-116485476D01*
X119984523Y-116533095D01*
X122107142Y-92022380D02*
X122440476Y-91546190D01*
X122678571Y-92022380D02*
X122678571Y-91022380D01*
X122297619Y-91022380D01*
X122202380Y-91070000D01*
X122154761Y-91117619D01*
X122107142Y-91212857D01*
X122107142Y-91355714D01*
X122154761Y-91450952D01*
X122202380Y-91498571D01*
X122297619Y-91546190D01*
X122678571Y-91546190D01*
X121773809Y-91022380D02*
X121107142Y-92022380D01*
X121107142Y-91022380D02*
X121773809Y-92022380D01*
X120250000Y-91022380D02*
X120726190Y-91022380D01*
X120773809Y-91498571D01*
X120726190Y-91450952D01*
X120630952Y-91403333D01*
X120392857Y-91403333D01*
X120297619Y-91450952D01*
X120250000Y-91498571D01*
X120202380Y-91593809D01*
X120202380Y-91831904D01*
X120250000Y-91927142D01*
X120297619Y-91974761D01*
X120392857Y-92022380D01*
X120630952Y-92022380D01*
X120726190Y-91974761D01*
X120773809Y-91927142D01*
X119773809Y-91927142D02*
X119726190Y-91974761D01*
X119773809Y-92022380D01*
X119821428Y-91974761D01*
X119773809Y-91927142D01*
X119773809Y-92022380D01*
X119773809Y-91403333D02*
X119726190Y-91450952D01*
X119773809Y-91498571D01*
X119821428Y-91450952D01*
X119773809Y-91403333D01*
X119773809Y-91498571D01*
X119297619Y-92022380D02*
X119297619Y-91022380D01*
X118916666Y-91022380D01*
X118821428Y-91070000D01*
X118773809Y-91117619D01*
X118726190Y-91212857D01*
X118726190Y-91355714D01*
X118773809Y-91450952D01*
X118821428Y-91498571D01*
X118916666Y-91546190D01*
X119297619Y-91546190D01*
X118297619Y-92022380D02*
X118297619Y-91022380D01*
X118059523Y-91022380D01*
X117916666Y-91070000D01*
X117821428Y-91165238D01*
X117773809Y-91260476D01*
X117726190Y-91450952D01*
X117726190Y-91593809D01*
X117773809Y-91784285D01*
X117821428Y-91879523D01*
X117916666Y-91974761D01*
X118059523Y-92022380D01*
X118297619Y-92022380D01*
X117345238Y-91117619D02*
X117297619Y-91070000D01*
X117202380Y-91022380D01*
X116964285Y-91022380D01*
X116869047Y-91070000D01*
X116821428Y-91117619D01*
X116773809Y-91212857D01*
X116773809Y-91308095D01*
X116821428Y-91450952D01*
X117392857Y-92022380D01*
X116773809Y-92022380D01*
X157107142Y-92222380D02*
X157440476Y-91746190D01*
X157678571Y-92222380D02*
X157678571Y-91222380D01*
X157297619Y-91222380D01*
X157202380Y-91270000D01*
X157154761Y-91317619D01*
X157107142Y-91412857D01*
X157107142Y-91555714D01*
X157154761Y-91650952D01*
X157202380Y-91698571D01*
X157297619Y-91746190D01*
X157678571Y-91746190D01*
X156773809Y-91222380D02*
X156107142Y-92222380D01*
X156107142Y-91222380D02*
X156773809Y-92222380D01*
X155297619Y-91222380D02*
X155488095Y-91222380D01*
X155583333Y-91270000D01*
X155630952Y-91317619D01*
X155726190Y-91460476D01*
X155773809Y-91650952D01*
X155773809Y-92031904D01*
X155726190Y-92127142D01*
X155678571Y-92174761D01*
X155583333Y-92222380D01*
X155392857Y-92222380D01*
X155297619Y-92174761D01*
X155250000Y-92127142D01*
X155202380Y-92031904D01*
X155202380Y-91793809D01*
X155250000Y-91698571D01*
X155297619Y-91650952D01*
X155392857Y-91603333D01*
X155583333Y-91603333D01*
X155678571Y-91650952D01*
X155726190Y-91698571D01*
X155773809Y-91793809D01*
X154773809Y-92127142D02*
X154726190Y-92174761D01*
X154773809Y-92222380D01*
X154821428Y-92174761D01*
X154773809Y-92127142D01*
X154773809Y-92222380D01*
X154773809Y-91603333D02*
X154726190Y-91650952D01*
X154773809Y-91698571D01*
X154821428Y-91650952D01*
X154773809Y-91603333D01*
X154773809Y-91698571D01*
X154297619Y-92222380D02*
X154297619Y-91222380D01*
X153916666Y-91222380D01*
X153821428Y-91270000D01*
X153773809Y-91317619D01*
X153726190Y-91412857D01*
X153726190Y-91555714D01*
X153773809Y-91650952D01*
X153821428Y-91698571D01*
X153916666Y-91746190D01*
X154297619Y-91746190D01*
X152726190Y-92127142D02*
X152773809Y-92174761D01*
X152916666Y-92222380D01*
X153011904Y-92222380D01*
X153154761Y-92174761D01*
X153250000Y-92079523D01*
X153297619Y-91984285D01*
X153345238Y-91793809D01*
X153345238Y-91650952D01*
X153297619Y-91460476D01*
X153250000Y-91365238D01*
X153154761Y-91270000D01*
X153011904Y-91222380D01*
X152916666Y-91222380D01*
X152773809Y-91270000D01*
X152726190Y-91317619D01*
X152392857Y-91222380D02*
X151726190Y-91222380D01*
X152154761Y-92222380D01*
X146059523Y-132655714D02*
X146297619Y-132655714D01*
X146297619Y-131227142D01*
X146059523Y-131227142D01*
X145821428Y-131322380D02*
X145488095Y-132322380D01*
X145154761Y-131322380D01*
X144678571Y-132322380D02*
X144773809Y-132274761D01*
X144821428Y-132227142D01*
X144869047Y-132131904D01*
X144869047Y-131846190D01*
X144821428Y-131750952D01*
X144773809Y-131703333D01*
X144678571Y-131655714D01*
X144535714Y-131655714D01*
X144440476Y-131703333D01*
X144392857Y-131750952D01*
X144345238Y-131846190D01*
X144345238Y-132131904D01*
X144392857Y-132227142D01*
X144440476Y-132274761D01*
X144535714Y-132322380D01*
X144678571Y-132322380D01*
X143773809Y-132322380D02*
X143869047Y-132274761D01*
X143916666Y-132179523D01*
X143916666Y-131322380D01*
X142964285Y-131655714D02*
X142964285Y-132322380D01*
X143392857Y-131655714D02*
X143392857Y-132179523D01*
X143345238Y-132274761D01*
X143250000Y-132322380D01*
X143107142Y-132322380D01*
X143011904Y-132274761D01*
X142964285Y-132227142D01*
X142488095Y-132322380D02*
X142488095Y-131655714D01*
X142488095Y-131750952D02*
X142440476Y-131703333D01*
X142345238Y-131655714D01*
X142202380Y-131655714D01*
X142107142Y-131703333D01*
X142059523Y-131798571D01*
X142059523Y-132322380D01*
X142059523Y-131798571D02*
X142011904Y-131703333D01*
X141916666Y-131655714D01*
X141773809Y-131655714D01*
X141678571Y-131703333D01*
X141630952Y-131798571D01*
X141630952Y-132322380D01*
X140773809Y-132274761D02*
X140869047Y-132322380D01*
X141059523Y-132322380D01*
X141154761Y-132274761D01*
X141202380Y-132179523D01*
X141202380Y-131798571D01*
X141154761Y-131703333D01*
X141059523Y-131655714D01*
X140869047Y-131655714D01*
X140773809Y-131703333D01*
X140726190Y-131798571D01*
X140726190Y-131893809D01*
X141202380Y-131989047D01*
X140392857Y-132655714D02*
X140154761Y-132655714D01*
X140154761Y-131227142D01*
X140392857Y-131227142D01*
X139630952Y-132322380D02*
X139630952Y-131322380D01*
X139250000Y-131322380D01*
X139154761Y-131370000D01*
X139107142Y-131417619D01*
X139059523Y-131512857D01*
X139059523Y-131655714D01*
X139107142Y-131750952D01*
X139154761Y-131798571D01*
X139250000Y-131846190D01*
X139630952Y-131846190D01*
X138059523Y-132227142D02*
X138107142Y-132274761D01*
X138250000Y-132322380D01*
X138345238Y-132322380D01*
X138488095Y-132274761D01*
X138583333Y-132179523D01*
X138630952Y-132084285D01*
X138678571Y-131893809D01*
X138678571Y-131750952D01*
X138630952Y-131560476D01*
X138583333Y-131465238D01*
X138488095Y-131370000D01*
X138345238Y-131322380D01*
X138250000Y-131322380D01*
X138107142Y-131370000D01*
X138059523Y-131417619D01*
X137202380Y-131655714D02*
X137202380Y-132322380D01*
X137440476Y-131274761D02*
X137678571Y-131989047D01*
X137059523Y-131989047D01*
X123178571Y-89622380D02*
X122607142Y-89622380D01*
X122892857Y-90622380D02*
X122892857Y-89622380D01*
X122369047Y-89622380D02*
X121702380Y-90622380D01*
X121702380Y-89622380D02*
X122369047Y-90622380D01*
X120845238Y-89622380D02*
X121321428Y-89622380D01*
X121369047Y-90098571D01*
X121321428Y-90050952D01*
X121226190Y-90003333D01*
X120988095Y-90003333D01*
X120892857Y-90050952D01*
X120845238Y-90098571D01*
X120797619Y-90193809D01*
X120797619Y-90431904D01*
X120845238Y-90527142D01*
X120892857Y-90574761D01*
X120988095Y-90622380D01*
X121226190Y-90622380D01*
X121321428Y-90574761D01*
X121369047Y-90527142D01*
X120369047Y-90527142D02*
X120321428Y-90574761D01*
X120369047Y-90622380D01*
X120416666Y-90574761D01*
X120369047Y-90527142D01*
X120369047Y-90622380D01*
X120369047Y-90003333D02*
X120321428Y-90050952D01*
X120369047Y-90098571D01*
X120416666Y-90050952D01*
X120369047Y-90003333D01*
X120369047Y-90098571D01*
X119892857Y-90622380D02*
X119892857Y-89622380D01*
X119511904Y-89622380D01*
X119416666Y-89670000D01*
X119369047Y-89717619D01*
X119321428Y-89812857D01*
X119321428Y-89955714D01*
X119369047Y-90050952D01*
X119416666Y-90098571D01*
X119511904Y-90146190D01*
X119892857Y-90146190D01*
X118321428Y-90527142D02*
X118369047Y-90574761D01*
X118511904Y-90622380D01*
X118607142Y-90622380D01*
X118750000Y-90574761D01*
X118845238Y-90479523D01*
X118892857Y-90384285D01*
X118940476Y-90193809D01*
X118940476Y-90050952D01*
X118892857Y-89860476D01*
X118845238Y-89765238D01*
X118750000Y-89670000D01*
X118607142Y-89622380D01*
X118511904Y-89622380D01*
X118369047Y-89670000D01*
X118321428Y-89717619D01*
X117369047Y-90622380D02*
X117940476Y-90622380D01*
X117654761Y-90622380D02*
X117654761Y-89622380D01*
X117750000Y-89765238D01*
X117845238Y-89860476D01*
X117940476Y-89908095D01*
X116988095Y-89717619D02*
X116940476Y-89670000D01*
X116845238Y-89622380D01*
X116607142Y-89622380D01*
X116511904Y-89670000D01*
X116464285Y-89717619D01*
X116416666Y-89812857D01*
X116416666Y-89908095D01*
X116464285Y-90050952D01*
X117035714Y-90622380D01*
X116416666Y-90622380D01*
X131730952Y-89622380D02*
X131159523Y-89622380D01*
X131445238Y-90622380D02*
X131445238Y-89622380D01*
X130921428Y-89622380D02*
X130254761Y-90622380D01*
X130254761Y-89622380D02*
X130921428Y-90622380D01*
X129921428Y-89717619D02*
X129873809Y-89670000D01*
X129778571Y-89622380D01*
X129540476Y-89622380D01*
X129445238Y-89670000D01*
X129397619Y-89717619D01*
X129350000Y-89812857D01*
X129350000Y-89908095D01*
X129397619Y-90050952D01*
X129969047Y-90622380D01*
X129350000Y-90622380D01*
X128921428Y-90527142D02*
X128873809Y-90574761D01*
X128921428Y-90622380D01*
X128969047Y-90574761D01*
X128921428Y-90527142D01*
X128921428Y-90622380D01*
X128921428Y-90003333D02*
X128873809Y-90050952D01*
X128921428Y-90098571D01*
X128969047Y-90050952D01*
X128921428Y-90003333D01*
X128921428Y-90098571D01*
X128445238Y-90622380D02*
X128445238Y-89622380D01*
X128064285Y-89622380D01*
X127969047Y-89670000D01*
X127921428Y-89717619D01*
X127873809Y-89812857D01*
X127873809Y-89955714D01*
X127921428Y-90050952D01*
X127969047Y-90098571D01*
X128064285Y-90146190D01*
X128445238Y-90146190D01*
X127492857Y-90336666D02*
X127016666Y-90336666D01*
X127588095Y-90622380D02*
X127254761Y-89622380D01*
X126921428Y-90622380D01*
X126635714Y-89717619D02*
X126588095Y-89670000D01*
X126492857Y-89622380D01*
X126254761Y-89622380D01*
X126159523Y-89670000D01*
X126111904Y-89717619D01*
X126064285Y-89812857D01*
X126064285Y-89908095D01*
X126111904Y-90050952D01*
X126683333Y-90622380D01*
X126064285Y-90622380D01*
X160261904Y-98672380D02*
X160595238Y-98196190D01*
X160833333Y-98672380D02*
X160833333Y-97672380D01*
X160452380Y-97672380D01*
X160357142Y-97720000D01*
X160309523Y-97767619D01*
X160261904Y-97862857D01*
X160261904Y-98005714D01*
X160309523Y-98100952D01*
X160357142Y-98148571D01*
X160452380Y-98196190D01*
X160833333Y-98196190D01*
X159928571Y-97672380D02*
X159261904Y-98672380D01*
X159261904Y-97672380D02*
X159928571Y-98672380D01*
X158357142Y-98672380D02*
X158928571Y-98672380D01*
X158642857Y-98672380D02*
X158642857Y-97672380D01*
X158738095Y-97815238D01*
X158833333Y-97910476D01*
X158928571Y-97958095D01*
X157928571Y-98577142D02*
X157880952Y-98624761D01*
X157928571Y-98672380D01*
X157976190Y-98624761D01*
X157928571Y-98577142D01*
X157928571Y-98672380D01*
X157928571Y-98053333D02*
X157880952Y-98100952D01*
X157928571Y-98148571D01*
X157976190Y-98100952D01*
X157928571Y-98053333D01*
X157928571Y-98148571D01*
X157452380Y-98672380D02*
X157452380Y-97672380D01*
X157071428Y-97672380D01*
X156976190Y-97720000D01*
X156928571Y-97767619D01*
X156880952Y-97862857D01*
X156880952Y-98005714D01*
X156928571Y-98100952D01*
X156976190Y-98148571D01*
X157071428Y-98196190D01*
X157452380Y-98196190D01*
X156500000Y-98386666D02*
X156023809Y-98386666D01*
X156595238Y-98672380D02*
X156261904Y-97672380D01*
X155928571Y-98672380D01*
X155071428Y-98672380D02*
X155642857Y-98672380D01*
X155357142Y-98672380D02*
X155357142Y-97672380D01*
X155452380Y-97815238D01*
X155547619Y-97910476D01*
X155642857Y-97958095D01*
X154452380Y-97672380D02*
X154357142Y-97672380D01*
X154261904Y-97720000D01*
X154214285Y-97767619D01*
X154166666Y-97862857D01*
X154119047Y-98053333D01*
X154119047Y-98291428D01*
X154166666Y-98481904D01*
X154214285Y-98577142D01*
X154261904Y-98624761D01*
X154357142Y-98672380D01*
X154452380Y-98672380D01*
X154547619Y-98624761D01*
X154595238Y-98577142D01*
X154642857Y-98481904D01*
X154690476Y-98291428D01*
X154690476Y-98053333D01*
X154642857Y-97862857D01*
X154595238Y-97767619D01*
X154547619Y-97720000D01*
X154452380Y-97672380D01*
D10*
X135421428Y-128420000D02*
X134850000Y-128420000D01*
X135535714Y-128762857D02*
X135135714Y-127562857D01*
X134735714Y-128762857D01*
X134335714Y-127962857D02*
X134335714Y-128762857D01*
X134335714Y-128077142D02*
X134278571Y-128020000D01*
X134164285Y-127962857D01*
X133992857Y-127962857D01*
X133878571Y-128020000D01*
X133821428Y-128134285D01*
X133821428Y-128762857D01*
X132735714Y-128762857D02*
X132735714Y-128134285D01*
X132792857Y-128020000D01*
X132907142Y-127962857D01*
X133135714Y-127962857D01*
X133250000Y-128020000D01*
X132735714Y-128705714D02*
X132850000Y-128762857D01*
X133135714Y-128762857D01*
X133250000Y-128705714D01*
X133307142Y-128591428D01*
X133307142Y-128477142D01*
X133250000Y-128362857D01*
X133135714Y-128305714D01*
X132850000Y-128305714D01*
X132735714Y-128248571D01*
X131992857Y-128762857D02*
X132107142Y-128705714D01*
X132164285Y-128591428D01*
X132164285Y-127562857D01*
X131364285Y-128762857D02*
X131478571Y-128705714D01*
X131535714Y-128648571D01*
X131592857Y-128534285D01*
X131592857Y-128191428D01*
X131535714Y-128077142D01*
X131478571Y-128020000D01*
X131364285Y-127962857D01*
X131192857Y-127962857D01*
X131078571Y-128020000D01*
X131021428Y-128077142D01*
X130964285Y-128191428D01*
X130964285Y-128534285D01*
X131021428Y-128648571D01*
X131078571Y-128705714D01*
X131192857Y-128762857D01*
X131364285Y-128762857D01*
X129935714Y-127962857D02*
X129935714Y-128934285D01*
X129992857Y-129048571D01*
X130050000Y-129105714D01*
X130164285Y-129162857D01*
X130335714Y-129162857D01*
X130450000Y-129105714D01*
X129935714Y-128705714D02*
X130050000Y-128762857D01*
X130278571Y-128762857D01*
X130392857Y-128705714D01*
X130450000Y-128648571D01*
X130507142Y-128534285D01*
X130507142Y-128191428D01*
X130450000Y-128077142D01*
X130392857Y-128020000D01*
X130278571Y-127962857D01*
X130050000Y-127962857D01*
X129935714Y-128020000D01*
D12*
X131135714Y-92022380D02*
X131469047Y-91546190D01*
X131707142Y-92022380D02*
X131707142Y-91022380D01*
X131326190Y-91022380D01*
X131230952Y-91070000D01*
X131183333Y-91117619D01*
X131135714Y-91212857D01*
X131135714Y-91355714D01*
X131183333Y-91450952D01*
X131230952Y-91498571D01*
X131326190Y-91546190D01*
X131707142Y-91546190D01*
X130802380Y-91022380D02*
X130135714Y-92022380D01*
X130135714Y-91022380D02*
X130802380Y-92022380D01*
X129802380Y-91117619D02*
X129754761Y-91070000D01*
X129659523Y-91022380D01*
X129421428Y-91022380D01*
X129326190Y-91070000D01*
X129278571Y-91117619D01*
X129230952Y-91212857D01*
X129230952Y-91308095D01*
X129278571Y-91450952D01*
X129850000Y-92022380D01*
X129230952Y-92022380D01*
X128802380Y-91927142D02*
X128754761Y-91974761D01*
X128802380Y-92022380D01*
X128850000Y-91974761D01*
X128802380Y-91927142D01*
X128802380Y-92022380D01*
X128802380Y-91403333D02*
X128754761Y-91450952D01*
X128802380Y-91498571D01*
X128850000Y-91450952D01*
X128802380Y-91403333D01*
X128802380Y-91498571D01*
X128326190Y-92022380D02*
X128326190Y-91022380D01*
X127945238Y-91022380D01*
X127850000Y-91070000D01*
X127802380Y-91117619D01*
X127754761Y-91212857D01*
X127754761Y-91355714D01*
X127802380Y-91450952D01*
X127850000Y-91498571D01*
X127945238Y-91546190D01*
X128326190Y-91546190D01*
X127373809Y-91736666D02*
X126897619Y-91736666D01*
X127469047Y-92022380D02*
X127135714Y-91022380D01*
X126802380Y-92022380D01*
X126564285Y-91022380D02*
X125945238Y-91022380D01*
X126278571Y-91403333D01*
X126135714Y-91403333D01*
X126040476Y-91450952D01*
X125992857Y-91498571D01*
X125945238Y-91593809D01*
X125945238Y-91831904D01*
X125992857Y-91927142D01*
X126040476Y-91974761D01*
X126135714Y-92022380D01*
X126421428Y-92022380D01*
X126516666Y-91974761D01*
X126564285Y-91927142D01*
D13*
%TO.C,C17*%
X158999420Y-110140000D02*
X159280580Y-110140000D01*
X158999420Y-109120000D02*
X159280580Y-109120000D01*
%TO.C,Q9*%
X180825000Y-84520000D02*
X180825000Y-85430000D01*
X183400000Y-82210000D02*
X180825000Y-82210000D01*
X182975000Y-85430000D02*
X180825000Y-85430000D01*
X180825000Y-82210000D02*
X180825000Y-83120000D01*
%TO.C,R55*%
X161913641Y-117850000D02*
X161606359Y-117850000D01*
X161913641Y-118610000D02*
X161606359Y-118610000D01*
%TO.C,Q2*%
X109740000Y-128070000D02*
X109740000Y-128720000D01*
X112860000Y-128070000D02*
X112860000Y-127420000D01*
X109740000Y-128070000D02*
X109740000Y-127420000D01*
X112860000Y-128070000D02*
X112860000Y-129745000D01*
%TO.C,R46*%
X183930000Y-133716359D02*
X183930000Y-134023641D01*
X183170000Y-133716359D02*
X183170000Y-134023641D01*
%TO.C,C19*%
X147940000Y-101427836D02*
X147940000Y-101212164D01*
X148660000Y-101427836D02*
X148660000Y-101212164D01*
%TO.C,R31*%
X183996359Y-77950000D02*
X184303641Y-77950000D01*
X183996359Y-77190000D02*
X184303641Y-77190000D01*
%TO.C,Y2*%
X162725000Y-108635000D02*
X162725000Y-107285000D01*
X160975000Y-108635000D02*
X160975000Y-107285000D01*
%TO.C,R41*%
X160920000Y-115666359D02*
X160920000Y-115973641D01*
X161680000Y-115666359D02*
X161680000Y-115973641D01*
%TO.C,R1*%
X116350000Y-129076359D02*
X116350000Y-129383641D01*
X115590000Y-129076359D02*
X115590000Y-129383641D01*
%TO.C,R84*%
X183467500Y-108655276D02*
X183467500Y-109164724D01*
X184512500Y-108655276D02*
X184512500Y-109164724D01*
%TO.C,R80*%
X181867500Y-96446359D02*
X181867500Y-96753641D01*
X181107500Y-96446359D02*
X181107500Y-96753641D01*
%TO.C,R27*%
X137196359Y-102640000D02*
X137503641Y-102640000D01*
X137196359Y-103400000D02*
X137503641Y-103400000D01*
%TO.C,R13*%
X132330000Y-95666359D02*
X132330000Y-95973641D01*
X133090000Y-95666359D02*
X133090000Y-95973641D01*
%TO.C,Q6*%
X141550000Y-115180000D02*
X144125000Y-115180000D01*
X144125000Y-115180000D02*
X144125000Y-114270000D01*
X141975000Y-111960000D02*
X144125000Y-111960000D01*
X144125000Y-112870000D02*
X144125000Y-111960000D01*
%TO.C,Q18*%
X187740000Y-133070000D02*
X187740000Y-133720000D01*
X187740000Y-133070000D02*
X187740000Y-131395000D01*
X190860000Y-133070000D02*
X190860000Y-132420000D01*
X190860000Y-133070000D02*
X190860000Y-133720000D01*
%TO.C,C16*%
X164440000Y-103119420D02*
X164440000Y-103400580D01*
X163420000Y-103119420D02*
X163420000Y-103400580D01*
%TO.C,D10*%
X172650000Y-118920000D02*
X172650000Y-122070000D01*
X170950000Y-118920000D02*
X172650000Y-118920000D01*
X170950000Y-118920000D02*
X170950000Y-122070000D01*
%TO.C,Q27*%
X179804500Y-120876250D02*
X179804500Y-121526250D01*
X176684500Y-120876250D02*
X176684500Y-119201250D01*
X176684500Y-120876250D02*
X176684500Y-121526250D01*
X179804500Y-120876250D02*
X179804500Y-120226250D01*
%TO.C,Q32*%
X129550000Y-77510000D02*
X128900000Y-77510000D01*
X129550000Y-80630000D02*
X130200000Y-80630000D01*
X129550000Y-77510000D02*
X131225000Y-77510000D01*
X129550000Y-80630000D02*
X128900000Y-80630000D01*
%TO.C,Q16*%
X184240000Y-132970000D02*
X184240000Y-131295000D01*
X187360000Y-132970000D02*
X187360000Y-133620000D01*
X187360000Y-132970000D02*
X187360000Y-132320000D01*
X184240000Y-132970000D02*
X184240000Y-133620000D01*
%TO.C,R99*%
X144910000Y-79046359D02*
X144910000Y-79353641D01*
X145670000Y-79046359D02*
X145670000Y-79353641D01*
%TO.C,Q11*%
X186460000Y-80070000D02*
X186460000Y-80720000D01*
X183340000Y-80070000D02*
X183340000Y-78395000D01*
X183340000Y-80070000D02*
X183340000Y-80720000D01*
X186460000Y-80070000D02*
X186460000Y-79420000D01*
%TO.C,R29*%
X140453641Y-92940000D02*
X140146359Y-92940000D01*
X140453641Y-93700000D02*
X140146359Y-93700000D01*
%TO.C,Q23*%
X195490000Y-92070000D02*
X195490000Y-91420000D01*
X198610000Y-92070000D02*
X198610000Y-91420000D01*
X195490000Y-92070000D02*
X195490000Y-92720000D01*
X198610000Y-92070000D02*
X198610000Y-93745000D01*
%TO.C,C28*%
X179192164Y-107960000D02*
X179407836Y-107960000D01*
X179192164Y-108680000D02*
X179407836Y-108680000D01*
%TO.C,D11*%
X174690000Y-125360000D02*
X174690000Y-127060000D01*
X174690000Y-125360000D02*
X171540000Y-125360000D01*
X174690000Y-127060000D02*
X171540000Y-127060000D01*
%TO.C,U6*%
X200170000Y-105120000D02*
X200170000Y-107070000D01*
X195050000Y-105120000D02*
X195050000Y-101670000D01*
X200170000Y-105120000D02*
X200170000Y-103170000D01*
X195050000Y-105120000D02*
X195050000Y-107070000D01*
%TO.C,D14*%
X166950000Y-118920000D02*
X168650000Y-118920000D01*
X166950000Y-118920000D02*
X166950000Y-122070000D01*
X168650000Y-118920000D02*
X168650000Y-122070000D01*
%TO.C,R91*%
X158430000Y-79316359D02*
X158430000Y-79623641D01*
X159190000Y-79316359D02*
X159190000Y-79623641D01*
%TO.C,R3*%
X153032500Y-114407258D02*
X153032500Y-113932742D01*
X151987500Y-114407258D02*
X151987500Y-113932742D01*
%TO.C,Q22*%
X148800000Y-93510000D02*
X148150000Y-93510000D01*
X148800000Y-93510000D02*
X149450000Y-93510000D01*
X148800000Y-96630000D02*
X147125000Y-96630000D01*
X148800000Y-96630000D02*
X149450000Y-96630000D01*
%TO.C,C13*%
X139940000Y-105962164D02*
X139940000Y-106177836D01*
X140660000Y-105962164D02*
X140660000Y-106177836D01*
%TO.C,C29*%
X167407836Y-109210000D02*
X167192164Y-109210000D01*
X167407836Y-109930000D02*
X167192164Y-109930000D01*
%TO.C,C35*%
X118157836Y-77210000D02*
X117942164Y-77210000D01*
X118157836Y-77930000D02*
X117942164Y-77930000D01*
%TO.C,R72*%
X168306359Y-134210000D02*
X168613641Y-134210000D01*
X168306359Y-134970000D02*
X168613641Y-134970000D01*
D10*
%TO.C,U1*%
X163675000Y-129095000D02*
X163675000Y-132445000D01*
X167025000Y-132445000D02*
X166725000Y-132445000D01*
X167025000Y-129095000D02*
X166725000Y-129095000D01*
X163900000Y-129095000D02*
X163900000Y-127870000D01*
X167025000Y-129095000D02*
X167025000Y-132445000D01*
X163675000Y-132445000D02*
X163975000Y-132445000D01*
X163675000Y-129095000D02*
X163900000Y-129095000D01*
D13*
%TO.C,Q19*%
X144350000Y-99245000D02*
X143440000Y-99245000D01*
X146660000Y-101820000D02*
X146660000Y-99245000D01*
X143440000Y-101395000D02*
X143440000Y-99245000D01*
X146660000Y-99245000D02*
X145750000Y-99245000D01*
%TO.C,R61*%
X148920000Y-101166359D02*
X148920000Y-101473641D01*
X149680000Y-101166359D02*
X149680000Y-101473641D01*
%TO.C,C27*%
X165190000Y-103177836D02*
X165190000Y-102962164D01*
X165910000Y-103177836D02*
X165910000Y-102962164D01*
%TO.C,R23*%
X134930000Y-105666359D02*
X134930000Y-105973641D01*
X134170000Y-105666359D02*
X134170000Y-105973641D01*
%TO.C,H5*%
X144550000Y-109970000D02*
X143150000Y-109970000D01*
X143150000Y-109970000D02*
X143150000Y-111370000D01*
X143150000Y-111370000D02*
X144550000Y-111370000D01*
X144550000Y-111370000D02*
X144550000Y-109970000D01*
%TO.C,U4*%
X167690000Y-98210000D02*
X167690000Y-99160000D01*
X167690000Y-107480000D02*
X166350000Y-107480000D01*
X176960000Y-98210000D02*
X177910000Y-98210000D01*
X176960000Y-108430000D02*
X177910000Y-108430000D01*
X167690000Y-108430000D02*
X167690000Y-107480000D01*
X168640000Y-98210000D02*
X167690000Y-98210000D01*
X168640000Y-108430000D02*
X167690000Y-108430000D01*
X177910000Y-98210000D02*
X177910000Y-99160000D01*
X177910000Y-108430000D02*
X177910000Y-107480000D01*
%TO.C,D36*%
X162970000Y-84260000D02*
X166120000Y-84260000D01*
X162970000Y-84260000D02*
X162970000Y-82560000D01*
X162970000Y-82560000D02*
X166120000Y-82560000D01*
%TO.C,C9*%
X133360000Y-116077836D02*
X133360000Y-115862164D01*
X132640000Y-116077836D02*
X132640000Y-115862164D01*
%TO.C,R8*%
X124922500Y-94052742D02*
X124922500Y-94527258D01*
X123877500Y-94052742D02*
X123877500Y-94527258D01*
%TO.C,R22*%
X135170000Y-105666359D02*
X135170000Y-105973641D01*
X135930000Y-105666359D02*
X135930000Y-105973641D01*
%TO.C,R88*%
X198737500Y-99522742D02*
X198737500Y-99997258D01*
X199782500Y-99522742D02*
X199782500Y-99997258D01*
%TO.C,R62*%
X167966359Y-111730000D02*
X168273641Y-111730000D01*
X167966359Y-110970000D02*
X168273641Y-110970000D01*
%TO.C,R59*%
X191220000Y-117813641D02*
X191220000Y-117506359D01*
X191980000Y-117813641D02*
X191980000Y-117506359D01*
%TO.C,U8*%
X122800000Y-82130000D02*
X124750000Y-82130000D01*
X122800000Y-77010000D02*
X126250000Y-77010000D01*
X122800000Y-77010000D02*
X120850000Y-77010000D01*
X122800000Y-82130000D02*
X120850000Y-82130000D01*
%TO.C,C37*%
X119192164Y-85680000D02*
X119407836Y-85680000D01*
X119192164Y-84960000D02*
X119407836Y-84960000D01*
%TO.C,C32*%
X181100000Y-107692164D02*
X181100000Y-107907836D01*
X180380000Y-107692164D02*
X180380000Y-107907836D01*
%TO.C,Q15*%
X184190000Y-127570000D02*
X184190000Y-130145000D01*
X187410000Y-127995000D02*
X187410000Y-130145000D01*
X184190000Y-130145000D02*
X185100000Y-130145000D01*
X186500000Y-130145000D02*
X187410000Y-130145000D01*
%TO.C,R94*%
X199223641Y-109990000D02*
X198916359Y-109990000D01*
X199223641Y-109230000D02*
X198916359Y-109230000D01*
%TO.C,Y1*%
X158480000Y-105630000D02*
X158480000Y-100230000D01*
X162980000Y-105630000D02*
X158480000Y-105630000D01*
%TO.C,D33*%
X183660000Y-119950000D02*
X186810000Y-119950000D01*
X183660000Y-121650000D02*
X183660000Y-119950000D01*
X183660000Y-121650000D02*
X186810000Y-121650000D01*
%TO.C,C3*%
X154058748Y-126455000D02*
X154581252Y-126455000D01*
X154058748Y-124985000D02*
X154581252Y-124985000D01*
%TO.C,R66*%
X166263641Y-111230000D02*
X165956359Y-111230000D01*
X166263641Y-111990000D02*
X165956359Y-111990000D01*
%TO.C,D32*%
X186087500Y-100670000D02*
X189237500Y-100670000D01*
X186087500Y-98970000D02*
X189237500Y-98970000D01*
X186087500Y-100670000D02*
X186087500Y-98970000D01*
%TO.C,Q17*%
X188475000Y-127710000D02*
X188475000Y-128620000D01*
X190625000Y-130930000D02*
X188475000Y-130930000D01*
X188475000Y-130020000D02*
X188475000Y-130930000D01*
X191050000Y-127710000D02*
X188475000Y-127710000D01*
%TO.C,C25*%
X169550000Y-95687836D02*
X169550000Y-95472164D01*
X170270000Y-95687836D02*
X170270000Y-95472164D01*
%TO.C,R73*%
X147950000Y-133713641D02*
X147950000Y-133406359D01*
X148710000Y-133713641D02*
X148710000Y-133406359D01*
%TO.C,Q10*%
X140250000Y-97895000D02*
X141160000Y-97895000D01*
X137940000Y-95320000D02*
X137940000Y-97895000D01*
X137940000Y-97895000D02*
X138850000Y-97895000D01*
X141160000Y-95745000D02*
X141160000Y-97895000D01*
%TO.C,U7*%
X154540000Y-76780000D02*
X152590000Y-76780000D01*
X154540000Y-76780000D02*
X157990000Y-76780000D01*
X154540000Y-81900000D02*
X152590000Y-81900000D01*
X154540000Y-81900000D02*
X156490000Y-81900000D01*
%TO.C,R19*%
X152403641Y-121170000D02*
X152096359Y-121170000D01*
X152403641Y-120410000D02*
X152096359Y-120410000D01*
%TO.C,R103*%
X165956359Y-110190000D02*
X166263641Y-110190000D01*
X165956359Y-110950000D02*
X166263641Y-110950000D01*
%TO.C,D35*%
X183650000Y-118610000D02*
X183650000Y-116910000D01*
X183650000Y-118610000D02*
X186800000Y-118610000D01*
X183650000Y-116910000D02*
X186800000Y-116910000D01*
%TO.C,R4*%
X110390000Y-124926359D02*
X110390000Y-125233641D01*
X109630000Y-124926359D02*
X109630000Y-125233641D01*
%TO.C,R65*%
X149920000Y-101473641D02*
X149920000Y-101166359D01*
X150680000Y-101473641D02*
X150680000Y-101166359D01*
%TO.C,R92*%
X128287258Y-81047500D02*
X127812742Y-81047500D01*
X128287258Y-82092500D02*
X127812742Y-82092500D01*
%TO.C,C2*%
X150907836Y-112930000D02*
X150692164Y-112930000D01*
X150907836Y-113650000D02*
X150692164Y-113650000D01*
%TO.C,C31*%
X166407835Y-107959999D02*
X166192163Y-107959999D01*
X166407835Y-108679999D02*
X166192163Y-108679999D01*
%TO.C,R7*%
X123362500Y-94547258D02*
X123362500Y-94072742D01*
X122317500Y-94547258D02*
X122317500Y-94072742D01*
%TO.C,R44*%
X139680001Y-105916358D02*
X139680001Y-106223640D01*
X138920001Y-105916358D02*
X138920001Y-106223640D01*
%TO.C,R90*%
X197356359Y-100380000D02*
X197663641Y-100380000D01*
X197356359Y-101140000D02*
X197663641Y-101140000D01*
%TO.C,Q30*%
X198320000Y-98260000D02*
X198320000Y-98910000D01*
X195200000Y-98260000D02*
X195200000Y-98910000D01*
X195200000Y-98260000D02*
X195200000Y-96585000D01*
X198320000Y-98260000D02*
X198320000Y-97610000D01*
%TO.C,R86*%
X115180000Y-94996359D02*
X115180000Y-95303641D01*
X114420000Y-94996359D02*
X114420000Y-95303641D01*
%TO.C,R75*%
X181867500Y-99166359D02*
X181867500Y-99473641D01*
X181107500Y-99166359D02*
X181107500Y-99473641D01*
%TO.C,H4*%
X146650000Y-109970000D02*
X145250000Y-109970000D01*
X145250000Y-109970000D02*
X145250000Y-111370000D01*
X145250000Y-111370000D02*
X146650000Y-111370000D01*
X146650000Y-111370000D02*
X146650000Y-109970000D01*
%TO.C,R81*%
X178398141Y-118756250D02*
X178090859Y-118756250D01*
X178398141Y-117996250D02*
X178090859Y-117996250D01*
%TO.C,R89*%
X160047258Y-80717500D02*
X159572742Y-80717500D01*
X160047258Y-81762500D02*
X159572742Y-81762500D01*
%TO.C,Q26*%
X183987500Y-94260000D02*
X184637500Y-94260000D01*
X183987500Y-97380000D02*
X182312500Y-97380000D01*
X183987500Y-97380000D02*
X184637500Y-97380000D01*
X183987500Y-94260000D02*
X183337500Y-94260000D01*
%TO.C,H7*%
X182500000Y-131020000D02*
X182500000Y-129120000D01*
X180600000Y-129120000D02*
X180600000Y-131020000D01*
X182500000Y-129120000D02*
X180600000Y-129120000D01*
X180600000Y-131020000D02*
X182500000Y-131020000D01*
%TO.C,Q12*%
X137300000Y-94630000D02*
X136650000Y-94630000D01*
X137300000Y-91510000D02*
X136650000Y-91510000D01*
X137300000Y-94630000D02*
X137950000Y-94630000D01*
X137300000Y-91510000D02*
X138975000Y-91510000D01*
%TO.C,R28*%
X182303641Y-77950000D02*
X181996359Y-77950000D01*
X182303641Y-77190000D02*
X181996359Y-77190000D01*
%TO.C,R100*%
X118930000Y-78916359D02*
X118930000Y-79223641D01*
X118170000Y-78916359D02*
X118170000Y-79223641D01*
%TO.C,R26*%
X141180000Y-91666359D02*
X141180000Y-91973641D01*
X140420000Y-91666359D02*
X140420000Y-91973641D01*
%TO.C,C36*%
X110530000Y-96642164D02*
X110530000Y-96857836D01*
X109810000Y-96642164D02*
X109810000Y-96857836D01*
%TO.C,R2*%
X111430000Y-125213641D02*
X111430000Y-124906359D01*
X110670000Y-125213641D02*
X110670000Y-124906359D01*
%TO.C,R95*%
X197273641Y-109240000D02*
X196966359Y-109240000D01*
X197273641Y-110000000D02*
X196966359Y-110000000D01*
%TO.C,R67*%
X166293641Y-113520000D02*
X165986359Y-113520000D01*
X166293641Y-112760000D02*
X165986359Y-112760000D01*
%TO.C,R52*%
X138490000Y-120963641D02*
X138490000Y-120656359D01*
X137730000Y-120963641D02*
X137730000Y-120656359D01*
%TO.C,R42*%
X187026359Y-85980000D02*
X187333641Y-85980000D01*
X187026359Y-86740000D02*
X187333641Y-86740000D01*
%TO.C,D17*%
X164650000Y-118920000D02*
X164650000Y-122070000D01*
X162950000Y-118920000D02*
X162950000Y-122070000D01*
X162950000Y-118920000D02*
X164650000Y-118920000D01*
%TO.C,C1*%
X112440000Y-125177836D02*
X112440000Y-124962164D01*
X111720000Y-125177836D02*
X111720000Y-124962164D01*
%TO.C,R45*%
X183170000Y-132123641D02*
X183170000Y-131816359D01*
X183930000Y-132123641D02*
X183930000Y-131816359D01*
%TO.C,H11*%
X168370000Y-80150000D02*
X166470000Y-80150000D01*
X166470000Y-80150000D02*
X166470000Y-82050000D01*
X168370000Y-82050000D02*
X168370000Y-80150000D01*
X166470000Y-82050000D02*
X168370000Y-82050000D01*
%TO.C,D34*%
X186087500Y-97170000D02*
X189237500Y-97170000D01*
X186087500Y-97170000D02*
X186087500Y-95470000D01*
X186087500Y-95470000D02*
X189237500Y-95470000D01*
%TO.C,Q14*%
X137610000Y-96820000D02*
X137610000Y-96170000D01*
X137610000Y-96820000D02*
X137610000Y-98495000D01*
X134490000Y-96820000D02*
X134490000Y-97470000D01*
X134490000Y-96820000D02*
X134490000Y-96170000D01*
%TO.C,R9*%
X111453641Y-130950000D02*
X111146359Y-130950000D01*
X111453641Y-130190000D02*
X111146359Y-130190000D01*
%TO.C,R21*%
X132336359Y-100460000D02*
X132643641Y-100460000D01*
X132336359Y-101220000D02*
X132643641Y-101220000D01*
%TO.C,R17*%
X152453641Y-117670000D02*
X152146359Y-117670000D01*
X152453641Y-116910000D02*
X152146359Y-116910000D01*
%TO.C,Q20*%
X148800000Y-97010000D02*
X148150000Y-97010000D01*
X148800000Y-100130000D02*
X147125000Y-100130000D01*
X148800000Y-100130000D02*
X149450000Y-100130000D01*
X148800000Y-97010000D02*
X149450000Y-97010000D01*
%TO.C,R49*%
X175100000Y-119916359D02*
X175100000Y-120223641D01*
X174340000Y-119916359D02*
X174340000Y-120223641D01*
%TO.C,H8*%
X180600000Y-133770000D02*
X182500000Y-133770000D01*
X182500000Y-133770000D02*
X182500000Y-131870000D01*
X182500000Y-131870000D02*
X180600000Y-131870000D01*
X180600000Y-131870000D02*
X180600000Y-133770000D01*
%TO.C,Q24*%
X183987500Y-100880000D02*
X184637500Y-100880000D01*
X183987500Y-100880000D02*
X182312500Y-100880000D01*
X183987500Y-97760000D02*
X183337500Y-97760000D01*
X183987500Y-97760000D02*
X184637500Y-97760000D01*
%TO.C,R33*%
X133420000Y-95973641D02*
X133420000Y-95666359D01*
X134180000Y-95973641D02*
X134180000Y-95666359D01*
%TO.C,R60*%
X147680000Y-101473641D02*
X147680000Y-101166359D01*
X146920000Y-101473641D02*
X146920000Y-101166359D01*
%TO.C,R58*%
X150680000Y-105473641D02*
X150680000Y-105166359D01*
X149920000Y-105473641D02*
X149920000Y-105166359D01*
%TO.C,C11*%
X140427835Y-94680000D02*
X140212163Y-94680000D01*
X140427835Y-93960000D02*
X140212163Y-93960000D01*
%TO.C,Q28*%
X114060000Y-96150000D02*
X114060000Y-97825000D01*
X110940000Y-96150000D02*
X110940000Y-95500000D01*
X110940000Y-96150000D02*
X110940000Y-96800000D01*
X114060000Y-96150000D02*
X114060000Y-95500000D01*
%TO.C,R96*%
X148680000Y-80483641D02*
X148680000Y-80176359D01*
X149440000Y-80483641D02*
X149440000Y-80176359D01*
%TO.C,U3*%
X143080001Y-102620000D02*
X141580001Y-102620000D01*
X141580001Y-109250000D02*
X138750001Y-109250000D01*
X143080001Y-109520000D02*
X141580001Y-109520000D01*
X141580001Y-102620000D02*
X141580001Y-102890000D01*
X141580001Y-109520000D02*
X141580001Y-109250000D01*
X141580001Y-102890000D02*
X140480001Y-102890000D01*
%TO.C,Q4*%
X145975000Y-111960000D02*
X145975000Y-112870000D01*
X145975000Y-114270000D02*
X145975000Y-115180000D01*
X148550000Y-111960000D02*
X145975000Y-111960000D01*
X148125000Y-115180000D02*
X145975000Y-115180000D01*
%TO.C,C4*%
X166142164Y-134210000D02*
X166357836Y-134210000D01*
X166142164Y-134930000D02*
X166357836Y-134930000D01*
%TO.C,R43*%
X185110000Y-89916359D02*
X185110000Y-90223641D01*
X184350000Y-89916359D02*
X184350000Y-90223641D01*
%TO.C,R47*%
X173280000Y-119906359D02*
X173280000Y-120213641D01*
X174040000Y-119906359D02*
X174040000Y-120213641D01*
%TO.C,R70*%
X149750000Y-133203641D02*
X149750000Y-132896359D01*
X148990000Y-133203641D02*
X148990000Y-132896359D01*
%TO.C,R16*%
X140170000Y-118473641D02*
X140170000Y-118166359D01*
X140930000Y-118473641D02*
X140930000Y-118166359D01*
%TO.C,R87*%
X112346359Y-98270000D02*
X112653641Y-98270000D01*
X112346359Y-99030000D02*
X112653641Y-99030000D01*
%TO.C,R35*%
X183930000Y-128223641D02*
X183930000Y-127916359D01*
X183170000Y-128223641D02*
X183170000Y-127916359D01*
%TO.C,R76*%
X196896359Y-87950000D02*
X197203641Y-87950000D01*
X196896359Y-87190000D02*
X197203641Y-87190000D01*
%TO.C,R69*%
X168740000Y-115226359D02*
X168740000Y-115533641D01*
X169500000Y-115226359D02*
X169500000Y-115533641D01*
%TO.C,R82*%
X186833859Y-95200000D02*
X187141141Y-95200000D01*
X186833859Y-94440000D02*
X187141141Y-94440000D01*
%TO.C,D5*%
X136150000Y-88960000D02*
X139300000Y-88960000D01*
X136150000Y-90660000D02*
X136150000Y-88960000D01*
X136150000Y-90660000D02*
X139300000Y-90660000D01*
%TO.C,R63*%
X167976359Y-113470000D02*
X168283641Y-113470000D01*
X167976359Y-112710000D02*
X168283641Y-112710000D01*
%TO.C,R10*%
X159213641Y-126860000D02*
X158906359Y-126860000D01*
X159213641Y-126100000D02*
X158906359Y-126100000D01*
%TO.C,D12*%
X170650000Y-118920000D02*
X170650000Y-122070000D01*
X168950000Y-118920000D02*
X168950000Y-122070000D01*
X168950000Y-118920000D02*
X170650000Y-118920000D01*
%TO.C,D37*%
X176550000Y-85040000D02*
X173400000Y-85040000D01*
X176550000Y-86740000D02*
X173400000Y-86740000D01*
X176550000Y-85040000D02*
X176550000Y-86740000D01*
%TO.C,R5*%
X154902500Y-110292742D02*
X154902500Y-110767258D01*
X153857500Y-110292742D02*
X153857500Y-110767258D01*
%TO.C,C6*%
X186657836Y-126210000D02*
X186442164Y-126210000D01*
X186657836Y-126930000D02*
X186442164Y-126930000D01*
%TO.C,C33*%
X195307836Y-109260000D02*
X195092164Y-109260000D01*
X195307836Y-109980000D02*
X195092164Y-109980000D01*
%TO.C,R77*%
X186833859Y-97940000D02*
X187141141Y-97940000D01*
X186833859Y-98700000D02*
X187141141Y-98700000D01*
%TO.C,R57*%
X191930000Y-134223641D02*
X191930000Y-133916359D01*
X191170000Y-134223641D02*
X191170000Y-133916359D01*
%TO.C,C26*%
X178012164Y-96910000D02*
X178227836Y-96910000D01*
X178012164Y-97630000D02*
X178227836Y-97630000D01*
%TO.C,D15*%
X162740000Y-126920000D02*
X162740000Y-125220000D01*
X162740000Y-125220000D02*
X165890000Y-125220000D01*
X162740000Y-126920000D02*
X165890000Y-126920000D01*
%TO.C,R51*%
X167993641Y-118630000D02*
X167686359Y-118630000D01*
X167993641Y-117870000D02*
X167686359Y-117870000D01*
%TO.C,R83*%
X184316358Y-118910000D02*
X184623640Y-118910000D01*
X184316358Y-119670000D02*
X184623640Y-119670000D01*
%TO.C,R54*%
X163646359Y-117870000D02*
X163953641Y-117870000D01*
X163646359Y-118630000D02*
X163953641Y-118630000D01*
%TO.C,R12*%
X150163641Y-115000000D02*
X149856359Y-115000000D01*
X150163641Y-114240000D02*
X149856359Y-114240000D01*
%TO.C,C30*%
X175380000Y-94679420D02*
X175380000Y-94960580D01*
X176400000Y-94679420D02*
X176400000Y-94960580D01*
%TO.C,R40*%
X185350000Y-90223641D02*
X185350000Y-89916359D01*
X186110000Y-90223641D02*
X186110000Y-89916359D01*
%TO.C,D16*%
X164950000Y-118920000D02*
X164950000Y-122070000D01*
X164950000Y-118920000D02*
X166650000Y-118920000D01*
X166650000Y-118920000D02*
X166650000Y-122070000D01*
%TO.C,R71*%
X150080000Y-133223641D02*
X150080000Y-132916359D01*
X150840000Y-133223641D02*
X150840000Y-132916359D01*
%TO.C,D9*%
X138150000Y-104170000D02*
X138150000Y-107320000D01*
X136450000Y-104170000D02*
X136450000Y-107320000D01*
X136450000Y-104170000D02*
X138150000Y-104170000D01*
%TO.C,Q8*%
X182960000Y-80070000D02*
X182960000Y-81745000D01*
X182960000Y-80070000D02*
X182960000Y-79420000D01*
X179840000Y-80070000D02*
X179840000Y-80720000D01*
X179840000Y-80070000D02*
X179840000Y-79420000D01*
%TO.C,R74*%
X196896359Y-94190000D02*
X197203641Y-94190000D01*
X196896359Y-94950000D02*
X197203641Y-94950000D01*
%TO.C,R53*%
X165953641Y-118630000D02*
X165646359Y-118630000D01*
X165953641Y-117870000D02*
X165646359Y-117870000D01*
%TO.C,D19*%
X156850000Y-121020000D02*
X160000000Y-121020000D01*
X156850000Y-122720000D02*
X156850000Y-121020000D01*
X156850000Y-122720000D02*
X160000000Y-122720000D01*
%TO.C,R24*%
X133930000Y-105666359D02*
X133930000Y-105973641D01*
X133170000Y-105666359D02*
X133170000Y-105973641D01*
%TO.C,R36*%
X183930000Y-129916359D02*
X183930000Y-130223641D01*
X183170000Y-129916359D02*
X183170000Y-130223641D01*
%TO.C,C34*%
X150550000Y-77792164D02*
X150550000Y-78007836D01*
X149830000Y-77792164D02*
X149830000Y-78007836D01*
%TO.C,R14*%
X150953641Y-108940000D02*
X150646359Y-108940000D01*
X150953641Y-109700000D02*
X150646359Y-109700000D01*
%TO.C,R39*%
X180973641Y-89950000D02*
X180666359Y-89950000D01*
X180973641Y-90710000D02*
X180666359Y-90710000D01*
%TO.C,R79*%
X184336359Y-121920000D02*
X184643641Y-121920000D01*
X184336359Y-122680000D02*
X184643641Y-122680000D01*
%TO.C,Q21*%
X145750002Y-97395000D02*
X146660002Y-97395000D01*
X143440002Y-97395000D02*
X144350002Y-97395000D01*
X146660002Y-95245000D02*
X146660002Y-97395000D01*
X143440002Y-94820000D02*
X143440002Y-97395000D01*
%TO.C,R97*%
X148670000Y-78473641D02*
X148670000Y-78166359D01*
X149430000Y-78473641D02*
X149430000Y-78166359D01*
%TO.C,Q25*%
X180184500Y-120876249D02*
X180184500Y-121526249D01*
X183304500Y-120876249D02*
X183304500Y-121526249D01*
X183304500Y-120876249D02*
X183304500Y-120226249D01*
X180184500Y-120876249D02*
X180184500Y-119201249D01*
%TO.C,D1*%
X114400000Y-96290000D02*
X114400000Y-99440000D01*
X116100000Y-96290000D02*
X116100000Y-99440000D01*
X114400000Y-96290000D02*
X116100000Y-96290000D01*
%TO.C,R30*%
X139420000Y-91973641D02*
X139420000Y-91666359D01*
X140180000Y-91973641D02*
X140180000Y-91666359D01*
%TO.C,Q7*%
X139050000Y-117130000D02*
X137375000Y-117130000D01*
X139050000Y-117130000D02*
X139700000Y-117130000D01*
X139050000Y-114010000D02*
X138400000Y-114010000D01*
X139050000Y-114010000D02*
X139700000Y-114010000D01*
%TO.C,R78*%
X181078141Y-117996250D02*
X180770859Y-117996250D01*
X181078141Y-118756250D02*
X180770859Y-118756250D01*
%TO.C,D31*%
X198950000Y-89920000D02*
X195800000Y-89920000D01*
X198950000Y-88220000D02*
X198950000Y-89920000D01*
X198950000Y-88220000D02*
X195800000Y-88220000D01*
%TO.C,R101*%
X117930000Y-79223641D02*
X117930000Y-78916359D01*
X117170000Y-79223641D02*
X117170000Y-78916359D01*
%TO.C,J3*%
X162630000Y-130020000D02*
X162630000Y-131940000D01*
X153470000Y-131940000D02*
X153470000Y-130020000D01*
X162630000Y-135655000D02*
X162630000Y-133950000D01*
X153470000Y-135655000D02*
X162630000Y-135655000D01*
X153470000Y-133950000D02*
X153470000Y-135655000D01*
%TO.C,R93*%
X127430000Y-79666359D02*
X127430000Y-79973641D01*
X126670000Y-79666359D02*
X126670000Y-79973641D01*
%TO.C,R38*%
X182650000Y-90223641D02*
X182650000Y-89916359D01*
X183410000Y-90223641D02*
X183410000Y-89916359D01*
%TO.C,D20*%
X143150000Y-102220000D02*
X143150000Y-99070000D01*
X141450000Y-102220000D02*
X141450000Y-99070000D01*
X143150000Y-102220000D02*
X141450000Y-102220000D01*
%TO.C,R20*%
X142453641Y-118940000D02*
X142146359Y-118940000D01*
X142453641Y-119700000D02*
X142146359Y-119700000D01*
%TO.C,R102*%
X174310000Y-94166359D02*
X174310000Y-94473641D01*
X173550000Y-94166359D02*
X173550000Y-94473641D01*
%TO.C,R32*%
X134420000Y-93666359D02*
X134420000Y-93973641D01*
X135180000Y-93666359D02*
X135180000Y-93973641D01*
%TO.C,D18*%
X162650000Y-118920000D02*
X162650000Y-122070000D01*
X160950000Y-118920000D02*
X160950000Y-122070000D01*
X160950000Y-118920000D02*
X162650000Y-118920000D01*
%TO.C,R37*%
X178440000Y-86023641D02*
X178440000Y-85716359D01*
X177680000Y-86023641D02*
X177680000Y-85716359D01*
%TO.C,R11*%
X157940000Y-125756359D02*
X157940000Y-126063641D01*
X157180000Y-125756359D02*
X157180000Y-126063641D01*
%TO.C,R15*%
X150646359Y-107940000D02*
X150953641Y-107940000D01*
X150646359Y-108700000D02*
X150953641Y-108700000D01*
%TO.C,D21*%
X192210000Y-115490000D02*
X192210000Y-112340000D01*
X193910000Y-115490000D02*
X193910000Y-112340000D01*
X193910000Y-115490000D02*
X192210000Y-115490000D01*
%TO.C,R50*%
X139710000Y-120833641D02*
X139710000Y-120526359D01*
X138950000Y-120833641D02*
X138950000Y-120526359D01*
%TO.C,R48*%
X168976359Y-127310000D02*
X169283641Y-127310000D01*
X168976359Y-128070000D02*
X169283641Y-128070000D01*
%TO.C,R98*%
X196866359Y-114040000D02*
X197173641Y-114040000D01*
X196866359Y-113280000D02*
X197173641Y-113280000D01*
%TO.C,Q31*%
X161300000Y-77020000D02*
X162975000Y-77020000D01*
X161300000Y-77020000D02*
X160650000Y-77020000D01*
X161300000Y-80140000D02*
X161950000Y-80140000D01*
X161300000Y-80140000D02*
X160650000Y-80140000D01*
%TO.C,R68*%
X151680000Y-95973641D02*
X151680000Y-95666359D01*
X150920000Y-95973641D02*
X150920000Y-95666359D01*
%TO.C,R56*%
X156570000Y-121923641D02*
X156570000Y-121616359D01*
X155810000Y-121923641D02*
X155810000Y-121616359D01*
%TO.C,C12*%
X181409420Y-128330000D02*
X181690580Y-128330000D01*
X181409420Y-127310000D02*
X181690580Y-127310000D01*
%TO.C,C15*%
X158999420Y-107040000D02*
X159280580Y-107040000D01*
X158999420Y-106020000D02*
X159280580Y-106020000D01*
%TO.C,R85*%
X183457500Y-113025276D02*
X183457500Y-113534724D01*
X184502500Y-113025276D02*
X184502500Y-113534724D01*
%TO.C,D2*%
X155150000Y-116220000D02*
X155150000Y-113070000D01*
X153450000Y-116220000D02*
X153450000Y-113070000D01*
X155150000Y-116220000D02*
X153450000Y-116220000D01*
%TO.C,R6*%
X156930000Y-125746359D02*
X156930000Y-126053641D01*
X156170000Y-125746359D02*
X156170000Y-126053641D01*
%TO.C,C18*%
X158999420Y-108580000D02*
X159280580Y-108580000D01*
X158999420Y-107560000D02*
X159280580Y-107560000D01*
%TO.C,C5*%
X164457836Y-134930000D02*
X164242164Y-134930000D01*
X164457836Y-134210000D02*
X164242164Y-134210000D01*
%TO.C,C14*%
X149940000Y-103427836D02*
X149940000Y-103212164D01*
X150660000Y-103427836D02*
X150660000Y-103212164D01*
%TO.C,Q13*%
X138225000Y-98960000D02*
X138225000Y-99870000D01*
X140375000Y-102180000D02*
X138225000Y-102180000D01*
X138225000Y-101270000D02*
X138225000Y-102180000D01*
X140800000Y-98960000D02*
X138225000Y-98960000D01*
%TO.C,Q5*%
X143050000Y-115510000D02*
X142400000Y-115510000D01*
X143050000Y-115510000D02*
X143700000Y-115510000D01*
X143050000Y-118630000D02*
X141375000Y-118630000D01*
X143050000Y-118630000D02*
X143700000Y-118630000D01*
%TO.C,D39*%
X181090000Y-95110000D02*
X177940000Y-95110000D01*
X181090000Y-93410000D02*
X181090000Y-95110000D01*
X181090000Y-93410000D02*
X177940000Y-93410000D01*
%TO.C,R25*%
X139170000Y-118473641D02*
X139170000Y-118166359D01*
X139930000Y-118473641D02*
X139930000Y-118166359D01*
%TO.C,R18*%
X152403641Y-118660000D02*
X152096359Y-118660000D01*
X152403641Y-119420000D02*
X152096359Y-119420000D01*
%TO.C,D38*%
X165440000Y-95160000D02*
X168590000Y-95160000D01*
X165440000Y-93460000D02*
X168590000Y-93460000D01*
X165440000Y-95160000D02*
X165440000Y-93460000D01*
%TO.C,D13*%
X166840000Y-125350000D02*
X169990000Y-125350000D01*
X166840000Y-127050000D02*
X169990000Y-127050000D01*
X166840000Y-127050000D02*
X166840000Y-125350000D01*
%TO.C,C24*%
X164817836Y-100860000D02*
X164602164Y-100860000D01*
X164817836Y-101580000D02*
X164602164Y-101580000D01*
%TO.C,R34*%
X188703641Y-126690000D02*
X188396359Y-126690000D01*
X188703641Y-127450000D02*
X188396359Y-127450000D01*
%TO.C,C8*%
X150690580Y-111080000D02*
X150409420Y-111080000D01*
X150690580Y-110060000D02*
X150409420Y-110060000D01*
%TD*%
%LPC*%
D14*
%TO.C,J10*%
X193650000Y-124320000D03*
D15*
X193650000Y-121820000D03*
X193650000Y-119320000D03*
X193650000Y-116820000D03*
%TD*%
D16*
%TO.C,J16*%
X189050000Y-92070000D03*
D17*
X186510000Y-92070000D03*
X183970000Y-92070000D03*
X181430000Y-92070000D03*
X178890000Y-92070000D03*
X176350000Y-92070000D03*
X173810000Y-92070000D03*
X171270000Y-92070000D03*
X168730000Y-92070000D03*
X166190000Y-92070000D03*
X163650000Y-92070000D03*
X161110000Y-92070000D03*
%TD*%
D18*
%TO.C,J6*%
X187650000Y-83370000D03*
D19*
X185150000Y-83370000D03*
%TD*%
D20*
%TO.C,J2*%
X119800000Y-126170000D03*
X130800000Y-126170000D03*
D21*
X127800000Y-121170000D03*
D22*
X122800000Y-121170000D03*
%TD*%
D18*
%TO.C,J12*%
X159790000Y-83260000D03*
D19*
X157290000Y-83260000D03*
X154790000Y-83260000D03*
X152290000Y-83260000D03*
%TD*%
D23*
%TO.C,SW4*%
X174070000Y-133100000D03*
D20*
X171570000Y-133100000D03*
X169070000Y-133100000D03*
X174070000Y-129800000D03*
X171570000Y-129800000D03*
X169070000Y-129800000D03*
%TD*%
D16*
%TO.C,JP1*%
X198825000Y-111810000D03*
D17*
X196285000Y-111810000D03*
%TD*%
D18*
%TO.C,J14*%
X125550000Y-83470000D03*
D19*
X123050000Y-83470000D03*
X120550000Y-83470000D03*
X118050000Y-83470000D03*
X115550000Y-83470000D03*
%TD*%
D14*
%TO.C,J7*%
X193650000Y-93070000D03*
D15*
X193650000Y-90570000D03*
X193650000Y-88070000D03*
%TD*%
D16*
%TO.C,J15*%
X189050000Y-88070000D03*
D17*
X186510000Y-88070000D03*
X183970000Y-88070000D03*
X181430000Y-88070000D03*
X178890000Y-88070000D03*
X176350000Y-88070000D03*
X173810000Y-88070000D03*
X171270000Y-88070000D03*
X168730000Y-88070000D03*
X166190000Y-88070000D03*
X163650000Y-88070000D03*
X161110000Y-88070000D03*
%TD*%
D20*
%TO.C,J1*%
X104975000Y-109070000D03*
X104975000Y-120070000D03*
D21*
X114975000Y-112070000D03*
D22*
X114975000Y-117070000D03*
%TD*%
D16*
%TO.C,JP2*%
X147300000Y-80845001D03*
D17*
X147300000Y-78305001D03*
%TD*%
D18*
%TO.C,J11*%
X142290000Y-83310000D03*
D19*
X139790000Y-83310000D03*
X137290000Y-83310000D03*
X134790000Y-83310000D03*
%TD*%
D24*
%TO.C,SW5*%
X159550000Y-114570000D03*
D25*
X159550000Y-117110000D03*
X159550000Y-119650000D03*
%TD*%
D18*
%TO.C,J8*%
X174400000Y-83370000D03*
D19*
X171900000Y-83370000D03*
X169400000Y-83370000D03*
%TD*%
D26*
%TO.C,J13*%
X108450000Y-88070000D03*
D15*
X108450000Y-90570000D03*
X108450000Y-93070000D03*
X108450000Y-95570000D03*
X108450000Y-98070000D03*
%TD*%
D14*
%TO.C,J9*%
X193650000Y-106820000D03*
D15*
X193650000Y-104320000D03*
X193650000Y-101820000D03*
X193650000Y-99320000D03*
%TD*%
D27*
%TO.C,U2*%
X137600000Y-110920000D03*
%TD*%
D16*
%TO.C,J17*%
X189050000Y-124070000D03*
D17*
X186510000Y-124070000D03*
X183970000Y-124070000D03*
X181430000Y-124070000D03*
X178890000Y-124070000D03*
X176350000Y-124070000D03*
X173810000Y-124070000D03*
X171270000Y-124070000D03*
X168730000Y-124070000D03*
X166190000Y-124070000D03*
X163650000Y-124070000D03*
X161110000Y-124070000D03*
%TD*%
D16*
%TO.C,J4*%
X135400000Y-125420000D03*
D17*
X137940000Y-125420000D03*
X140480000Y-125420000D03*
X143020000Y-125420000D03*
X145560000Y-125420000D03*
X148100000Y-125420000D03*
X150640000Y-125420000D03*
%TD*%
D25*
%TO.C,U5*%
X182209999Y-110050002D03*
X189829999Y-110050002D03*
X182209999Y-107510002D03*
X189829999Y-115130002D03*
X189829999Y-112590002D03*
X182209999Y-115130002D03*
X182209999Y-112590002D03*
X189829999Y-107510002D03*
%TD*%
D28*
%TO.C,SW1*%
X114300000Y-122990000D03*
X114300000Y-133150000D03*
D29*
X114300000Y-130610000D03*
D28*
X114300000Y-128070000D03*
X114300000Y-125530000D03*
%TD*%
D30*
%TO.C,TP5*%
X104900000Y-125970000D03*
%TD*%
D31*
%TO.C,C17*%
X158365000Y-109630000D03*
X159915000Y-109630000D03*
%TD*%
D32*
%TO.C,Q9*%
X183100000Y-82870000D03*
X183100000Y-84770000D03*
X180700000Y-83820000D03*
%TD*%
D33*
%TO.C,R55*%
X162270000Y-118230000D03*
X161250000Y-118230000D03*
%TD*%
D34*
%TO.C,Q2*%
X112250000Y-129007500D03*
X110350000Y-129007500D03*
X111300000Y-127132500D03*
%TD*%
D35*
%TO.C,R46*%
X183550000Y-133360000D03*
X183550000Y-134380000D03*
%TD*%
D36*
%TO.C,C19*%
X148300000Y-101800000D03*
X148300000Y-100840000D03*
%TD*%
D37*
%TO.C,R31*%
X183640000Y-77570000D03*
X184660000Y-77570000D03*
%TD*%
D38*
%TO.C,Y2*%
X161850000Y-106710000D03*
X161850000Y-109210000D03*
%TD*%
D35*
%TO.C,R41*%
X161300000Y-115310000D03*
X161300000Y-116330000D03*
%TD*%
%TO.C,R1*%
X115970000Y-128720000D03*
X115970000Y-129740000D03*
%TD*%
D39*
%TO.C,R84*%
X183990000Y-107997500D03*
X183990000Y-109822500D03*
%TD*%
D35*
%TO.C,R80*%
X181487500Y-96090000D03*
X181487500Y-97110000D03*
%TD*%
D37*
%TO.C,R27*%
X136840000Y-103020000D03*
X137860000Y-103020000D03*
%TD*%
D35*
%TO.C,R13*%
X132710000Y-95310000D03*
X132710000Y-96330000D03*
%TD*%
D32*
%TO.C,Q6*%
X141850000Y-114520000D03*
X141850000Y-112620000D03*
X144250000Y-113570000D03*
%TD*%
D40*
%TO.C,Q18*%
X188350000Y-132132500D03*
X190250000Y-132132500D03*
X189300000Y-134007500D03*
%TD*%
D41*
%TO.C,C16*%
X163930000Y-102485000D03*
X163930000Y-104035000D03*
%TD*%
D42*
%TO.C,D10*%
X171800000Y-119570000D03*
X171800000Y-122070000D03*
%TD*%
D40*
%TO.C,Q27*%
X177294500Y-119938750D03*
X179194500Y-119938750D03*
X178244500Y-121813750D03*
%TD*%
D43*
%TO.C,Q32*%
X130487500Y-78120000D03*
X130487500Y-80020000D03*
X128612500Y-79070000D03*
%TD*%
D40*
%TO.C,Q16*%
X184850000Y-132032500D03*
X186750000Y-132032500D03*
X185800000Y-133907500D03*
%TD*%
D35*
%TO.C,R99*%
X145290000Y-78690000D03*
X145290000Y-79710000D03*
%TD*%
D40*
%TO.C,Q11*%
X183950000Y-79132500D03*
X185850000Y-79132500D03*
X184900000Y-81007500D03*
%TD*%
D33*
%TO.C,R29*%
X140810000Y-93320000D03*
X139790000Y-93320000D03*
%TD*%
D34*
%TO.C,Q23*%
X198000000Y-93007500D03*
X196100000Y-93007500D03*
X197050000Y-91132500D03*
%TD*%
D44*
%TO.C,C28*%
X178820000Y-108320000D03*
X179780000Y-108320000D03*
%TD*%
D42*
%TO.C,D11*%
X174040000Y-126210000D03*
X171540000Y-126210000D03*
%TD*%
D45*
%TO.C,U6*%
X195705000Y-102495000D03*
X196975000Y-102495000D03*
X198245000Y-102495000D03*
X199515000Y-102495000D03*
X199515000Y-107745000D03*
X198245000Y-107745000D03*
X196975000Y-107745000D03*
X195705000Y-107745000D03*
%TD*%
D42*
%TO.C,D14*%
X167800000Y-119570000D03*
X167800000Y-122070000D03*
%TD*%
D35*
%TO.C,R91*%
X158810000Y-78960000D03*
X158810000Y-79980000D03*
%TD*%
D46*
%TO.C,R3*%
X152510000Y-114995000D03*
X152510000Y-113345000D03*
%TD*%
D47*
%TO.C,Q22*%
X147862500Y-96020000D03*
X147862500Y-94120000D03*
X149737500Y-95070000D03*
%TD*%
D48*
%TO.C,C13*%
X140300000Y-105590000D03*
X140300000Y-106550000D03*
%TD*%
D49*
%TO.C,C29*%
X167780000Y-109570000D03*
X166820000Y-109570000D03*
%TD*%
%TO.C,C35*%
X118530000Y-77570000D03*
X117570000Y-77570000D03*
%TD*%
D37*
%TO.C,R72*%
X167950000Y-134590000D03*
X168970000Y-134590000D03*
%TD*%
D50*
%TO.C,U1*%
X164350000Y-128570000D03*
X164850000Y-128570000D03*
X165350000Y-128570000D03*
X165850000Y-128570000D03*
X166350000Y-128570000D03*
X166350000Y-132970000D03*
X165850000Y-132970000D03*
X165350000Y-132970000D03*
X164850000Y-132970000D03*
X164350000Y-132970000D03*
%TD*%
D51*
%TO.C,Q19*%
X146000000Y-101520000D03*
X144100000Y-101520000D03*
X145050000Y-99120000D03*
%TD*%
D35*
%TO.C,R61*%
X149300000Y-100810000D03*
X149300000Y-101830000D03*
%TD*%
D36*
%TO.C,C27*%
X165550000Y-103550000D03*
X165550000Y-102590000D03*
%TD*%
D35*
%TO.C,R23*%
X134550000Y-105310000D03*
X134550000Y-106330000D03*
%TD*%
D42*
%TO.C,H5*%
X143850000Y-110670000D03*
%TD*%
D52*
%TO.C,U4*%
X167125000Y-107070000D03*
X167125000Y-106570000D03*
X167125000Y-106070000D03*
X167125000Y-105570000D03*
X167125000Y-105070000D03*
X167125000Y-104570000D03*
X167125000Y-104070000D03*
X167125000Y-103570000D03*
X167125000Y-103070000D03*
X167125000Y-102570000D03*
X167125000Y-102070000D03*
X167125000Y-101570000D03*
X167125000Y-101070000D03*
X167125000Y-100570000D03*
X167125000Y-100070000D03*
X167125000Y-99570000D03*
D53*
X169050000Y-97645000D03*
X169550000Y-97645000D03*
X170050000Y-97645000D03*
X170550000Y-97645000D03*
X171050000Y-97645000D03*
X171550000Y-97645000D03*
X172050000Y-97645000D03*
X172550000Y-97645000D03*
X173050000Y-97645000D03*
X173550000Y-97645000D03*
X174050000Y-97645000D03*
X174550000Y-97645000D03*
X175050000Y-97645000D03*
X175550000Y-97645000D03*
X176050000Y-97645000D03*
X176550000Y-97645000D03*
D52*
X178475000Y-99570000D03*
X178475000Y-100070000D03*
X178475000Y-100570000D03*
X178475000Y-101070000D03*
X178475000Y-101570000D03*
X178475000Y-102070000D03*
X178475000Y-102570000D03*
X178475000Y-103070000D03*
X178475000Y-103570000D03*
X178475000Y-104070000D03*
X178475000Y-104570000D03*
X178475000Y-105070000D03*
X178475000Y-105570000D03*
X178475000Y-106070000D03*
X178475000Y-106570000D03*
X178475000Y-107070000D03*
D53*
X176550000Y-108995000D03*
X176050000Y-108995000D03*
X175550000Y-108995000D03*
X175050000Y-108995000D03*
X174550000Y-108995000D03*
X174050000Y-108995000D03*
X173550000Y-108995000D03*
X173050000Y-108995000D03*
X172550000Y-108995000D03*
X172050000Y-108995000D03*
X171550000Y-108995000D03*
X171050000Y-108995000D03*
X170550000Y-108995000D03*
X170050000Y-108995000D03*
X169550000Y-108995000D03*
X169050000Y-108995000D03*
%TD*%
D42*
%TO.C,D36*%
X163620000Y-83410000D03*
X166120000Y-83410000D03*
%TD*%
D36*
%TO.C,C9*%
X133000000Y-116450000D03*
X133000000Y-115490000D03*
%TD*%
D54*
%TO.C,R8*%
X124400000Y-93465000D03*
X124400000Y-95115000D03*
%TD*%
D35*
%TO.C,R22*%
X135550000Y-105310000D03*
X135550000Y-106330000D03*
%TD*%
D54*
%TO.C,R88*%
X199260000Y-98935000D03*
X199260000Y-100585000D03*
%TD*%
D37*
%TO.C,R62*%
X167610000Y-111350000D03*
X168630000Y-111350000D03*
%TD*%
D55*
%TO.C,R59*%
X191600000Y-118170000D03*
X191600000Y-117150000D03*
%TD*%
D56*
%TO.C,U8*%
X125425000Y-77665000D03*
X125425000Y-78935000D03*
X125425000Y-80205000D03*
X125425000Y-81475000D03*
X120175000Y-81475000D03*
X120175000Y-80205000D03*
X120175000Y-78935000D03*
X120175000Y-77665000D03*
%TD*%
D44*
%TO.C,C37*%
X118820000Y-85320000D03*
X119780000Y-85320000D03*
%TD*%
D48*
%TO.C,C32*%
X180740000Y-107320000D03*
X180740000Y-108280000D03*
%TD*%
D51*
%TO.C,Q15*%
X184850000Y-127870000D03*
X186750000Y-127870000D03*
X185800000Y-130270000D03*
%TD*%
D33*
%TO.C,R94*%
X199580000Y-109610000D03*
X198560000Y-109610000D03*
%TD*%
D57*
%TO.C,Y1*%
X159580000Y-104380000D03*
X159580000Y-101480000D03*
X161880000Y-101480000D03*
X161880000Y-104380000D03*
%TD*%
D42*
%TO.C,D33*%
X184310000Y-120800000D03*
X186810000Y-120800000D03*
%TD*%
D58*
%TO.C,C3*%
X153370000Y-125720000D03*
X155270000Y-125720000D03*
%TD*%
D33*
%TO.C,R66*%
X166620000Y-111610000D03*
X165600000Y-111610000D03*
%TD*%
D42*
%TO.C,D32*%
X186737500Y-99820000D03*
X189237500Y-99820000D03*
%TD*%
D32*
%TO.C,Q17*%
X190750000Y-128370000D03*
X190750000Y-130270000D03*
X188350000Y-129320000D03*
%TD*%
D36*
%TO.C,C25*%
X169910000Y-96060000D03*
X169910000Y-95100000D03*
%TD*%
D55*
%TO.C,R73*%
X148330000Y-134070000D03*
X148330000Y-133050000D03*
%TD*%
D51*
%TO.C,Q10*%
X138600000Y-95620000D03*
X140500000Y-95620000D03*
X139550000Y-98020000D03*
%TD*%
D56*
%TO.C,U7*%
X157165000Y-77435000D03*
X157165000Y-78705000D03*
X157165000Y-79975000D03*
X157165000Y-81245000D03*
X151915000Y-81245000D03*
X151915000Y-79975000D03*
X151915000Y-78705000D03*
X151915000Y-77435000D03*
%TD*%
D33*
%TO.C,R19*%
X152760000Y-120790000D03*
X151740000Y-120790000D03*
%TD*%
D37*
%TO.C,R103*%
X165600000Y-110570000D03*
X166620000Y-110570000D03*
%TD*%
D42*
%TO.C,D35*%
X184300000Y-117760000D03*
X186800000Y-117760000D03*
%TD*%
D35*
%TO.C,R4*%
X110010000Y-124570000D03*
X110010000Y-125590000D03*
%TD*%
D55*
%TO.C,R65*%
X150300000Y-101830000D03*
X150300000Y-100810000D03*
%TD*%
D59*
%TO.C,R92*%
X128875000Y-81570000D03*
X127225000Y-81570000D03*
%TD*%
D49*
%TO.C,C2*%
X151280000Y-113290000D03*
X150320000Y-113290000D03*
%TD*%
%TO.C,C31*%
X166779999Y-108319999D03*
X165819999Y-108319999D03*
%TD*%
D46*
%TO.C,R7*%
X122840000Y-95135000D03*
X122840000Y-93485000D03*
%TD*%
D35*
%TO.C,R44*%
X139300001Y-105559999D03*
X139300001Y-106579999D03*
%TD*%
D37*
%TO.C,R90*%
X197000000Y-100760000D03*
X198020000Y-100760000D03*
%TD*%
D40*
%TO.C,Q30*%
X195810000Y-97322500D03*
X197710000Y-97322500D03*
X196760000Y-99197500D03*
%TD*%
D35*
%TO.C,R86*%
X114800000Y-94640000D03*
X114800000Y-95660000D03*
%TD*%
%TO.C,R75*%
X181487500Y-98810000D03*
X181487500Y-99830000D03*
%TD*%
D42*
%TO.C,H4*%
X145950000Y-110670000D03*
%TD*%
D33*
%TO.C,R81*%
X178754500Y-118376250D03*
X177734500Y-118376250D03*
%TD*%
D59*
%TO.C,R89*%
X160635000Y-81240000D03*
X158985000Y-81240000D03*
%TD*%
D47*
%TO.C,Q26*%
X183050000Y-96770000D03*
X183050000Y-94870000D03*
X184925000Y-95820000D03*
%TD*%
D60*
%TO.C,H7*%
X181550000Y-130070000D03*
%TD*%
D43*
%TO.C,Q12*%
X138237500Y-92120000D03*
X138237500Y-94020000D03*
X136362500Y-93070000D03*
%TD*%
D33*
%TO.C,R28*%
X182660000Y-77570000D03*
X181640000Y-77570000D03*
%TD*%
D35*
%TO.C,R100*%
X118550000Y-78560000D03*
X118550000Y-79580000D03*
%TD*%
%TO.C,R26*%
X140800000Y-91310000D03*
X140800000Y-92330000D03*
%TD*%
D48*
%TO.C,C36*%
X110170000Y-96270000D03*
X110170000Y-97230000D03*
%TD*%
D55*
%TO.C,R2*%
X111050000Y-125570000D03*
X111050000Y-124550000D03*
%TD*%
D33*
%TO.C,R95*%
X197630000Y-109620000D03*
X196610000Y-109620000D03*
%TD*%
%TO.C,R67*%
X166650000Y-113140000D03*
X165630000Y-113140000D03*
%TD*%
D55*
%TO.C,R52*%
X138110000Y-121320000D03*
X138110000Y-120300000D03*
%TD*%
D37*
%TO.C,R42*%
X186670000Y-86360000D03*
X187690000Y-86360000D03*
%TD*%
D42*
%TO.C,D17*%
X163800000Y-119570000D03*
X163800000Y-122070000D03*
%TD*%
D36*
%TO.C,C1*%
X112080000Y-125550000D03*
X112080000Y-124590000D03*
%TD*%
D55*
%TO.C,R45*%
X183550000Y-132480000D03*
X183550000Y-131460000D03*
%TD*%
D60*
%TO.C,H11*%
X167420000Y-81100000D03*
%TD*%
D42*
%TO.C,D34*%
X186737500Y-96320000D03*
X189237500Y-96320000D03*
%TD*%
D34*
%TO.C,Q14*%
X137000000Y-97757500D03*
X135100000Y-97757500D03*
X136050000Y-95882500D03*
%TD*%
D33*
%TO.C,R9*%
X111810000Y-130570000D03*
X110790000Y-130570000D03*
%TD*%
D37*
%TO.C,R21*%
X131980000Y-100840000D03*
X133000000Y-100840000D03*
%TD*%
D33*
%TO.C,R17*%
X152810000Y-117290000D03*
X151790000Y-117290000D03*
%TD*%
D47*
%TO.C,Q20*%
X147862500Y-99520000D03*
X147862500Y-97620000D03*
X149737500Y-98570000D03*
%TD*%
D35*
%TO.C,R49*%
X174720000Y-119560000D03*
X174720000Y-120580000D03*
%TD*%
D60*
%TO.C,H8*%
X181550000Y-132820000D03*
%TD*%
D47*
%TO.C,Q24*%
X183050000Y-100270000D03*
X183050000Y-98370000D03*
X184925000Y-99320000D03*
%TD*%
D55*
%TO.C,R33*%
X133800000Y-96330000D03*
X133800000Y-95310000D03*
%TD*%
%TO.C,R60*%
X147300000Y-101830000D03*
X147300000Y-100810000D03*
%TD*%
%TO.C,R58*%
X150300000Y-105830000D03*
X150300000Y-104810000D03*
%TD*%
D49*
%TO.C,C11*%
X140799999Y-94320000D03*
X139839999Y-94320000D03*
%TD*%
D34*
%TO.C,Q28*%
X113450000Y-97087500D03*
X111550000Y-97087500D03*
X112500000Y-95212500D03*
%TD*%
D55*
%TO.C,R96*%
X149060000Y-80840000D03*
X149060000Y-79820000D03*
%TD*%
D61*
%TO.C,U3*%
X139850001Y-108350000D03*
D62*
X146150001Y-106070000D03*
D61*
X139850001Y-103790000D03*
%TD*%
D32*
%TO.C,Q4*%
X148250000Y-112620000D03*
X148250000Y-114520000D03*
X145850000Y-113570000D03*
%TD*%
D44*
%TO.C,C4*%
X165770000Y-134570000D03*
X166730000Y-134570000D03*
%TD*%
D35*
%TO.C,R43*%
X184730000Y-89560000D03*
X184730000Y-90580000D03*
%TD*%
%TO.C,R47*%
X173660000Y-119550000D03*
X173660000Y-120570000D03*
%TD*%
D55*
%TO.C,R70*%
X149370000Y-133560000D03*
X149370000Y-132540000D03*
%TD*%
%TO.C,R16*%
X140550000Y-118830000D03*
X140550000Y-117810000D03*
%TD*%
D37*
%TO.C,R87*%
X111990000Y-98650000D03*
X113010000Y-98650000D03*
%TD*%
D55*
%TO.C,R35*%
X183550000Y-128580000D03*
X183550000Y-127560000D03*
%TD*%
D37*
%TO.C,R76*%
X196540000Y-87570000D03*
X197560000Y-87570000D03*
%TD*%
D35*
%TO.C,R69*%
X169120000Y-114870000D03*
X169120000Y-115890000D03*
%TD*%
D37*
%TO.C,R82*%
X186477500Y-94820000D03*
X187497500Y-94820000D03*
%TD*%
D42*
%TO.C,D5*%
X136800000Y-89810000D03*
X139300000Y-89810000D03*
%TD*%
D37*
%TO.C,R63*%
X167620000Y-113090000D03*
X168640000Y-113090000D03*
%TD*%
D33*
%TO.C,R10*%
X159570000Y-126480000D03*
X158550000Y-126480000D03*
%TD*%
D42*
%TO.C,D12*%
X169800000Y-119570000D03*
X169800000Y-122070000D03*
%TD*%
%TO.C,D37*%
X175900000Y-85890000D03*
X173400000Y-85890000D03*
%TD*%
D54*
%TO.C,R5*%
X154380000Y-109705000D03*
X154380000Y-111355000D03*
%TD*%
D49*
%TO.C,C6*%
X187030000Y-126570000D03*
X186070000Y-126570000D03*
%TD*%
%TO.C,C33*%
X195680000Y-109620000D03*
X194720000Y-109620000D03*
%TD*%
D37*
%TO.C,R77*%
X186477500Y-98320000D03*
X187497500Y-98320000D03*
%TD*%
D55*
%TO.C,R57*%
X191550000Y-134580000D03*
X191550000Y-133560000D03*
%TD*%
D44*
%TO.C,C26*%
X177640000Y-97270000D03*
X178600000Y-97270000D03*
%TD*%
D42*
%TO.C,D15*%
X163390000Y-126070000D03*
X165890000Y-126070000D03*
%TD*%
D33*
%TO.C,R51*%
X168350000Y-118250000D03*
X167330000Y-118250000D03*
%TD*%
D37*
%TO.C,R83*%
X183959999Y-119290000D03*
X184979999Y-119290000D03*
%TD*%
%TO.C,R54*%
X163290000Y-118250000D03*
X164310000Y-118250000D03*
%TD*%
D33*
%TO.C,R12*%
X150520000Y-114620000D03*
X149500000Y-114620000D03*
%TD*%
D41*
%TO.C,C30*%
X175890000Y-94045000D03*
X175890000Y-95595000D03*
%TD*%
D55*
%TO.C,R40*%
X185730000Y-90580000D03*
X185730000Y-89560000D03*
%TD*%
D42*
%TO.C,D16*%
X165800000Y-119570000D03*
X165800000Y-122070000D03*
%TD*%
D55*
%TO.C,R71*%
X150460000Y-133580000D03*
X150460000Y-132560000D03*
%TD*%
D42*
%TO.C,D9*%
X137300000Y-104820000D03*
X137300000Y-107320000D03*
%TD*%
D34*
%TO.C,Q8*%
X182350000Y-81007500D03*
X180450000Y-81007500D03*
X181400000Y-79132500D03*
%TD*%
D37*
%TO.C,R74*%
X196540000Y-94570000D03*
X197560000Y-94570000D03*
%TD*%
D33*
%TO.C,R53*%
X166310000Y-118250000D03*
X165290000Y-118250000D03*
%TD*%
D42*
%TO.C,D19*%
X157500000Y-121870000D03*
X160000000Y-121870000D03*
%TD*%
D35*
%TO.C,R24*%
X133550000Y-105310000D03*
X133550000Y-106330000D03*
%TD*%
%TO.C,R36*%
X183550000Y-129560000D03*
X183550000Y-130580000D03*
%TD*%
D48*
%TO.C,C34*%
X150190000Y-77420000D03*
X150190000Y-78380000D03*
%TD*%
D33*
%TO.C,R14*%
X151310000Y-109320000D03*
X150290000Y-109320000D03*
%TD*%
%TO.C,R39*%
X181330000Y-90330000D03*
X180310000Y-90330000D03*
%TD*%
D37*
%TO.C,R79*%
X183980000Y-122300000D03*
X185000000Y-122300000D03*
%TD*%
D51*
%TO.C,Q21*%
X144100002Y-95120000D03*
X146000002Y-95120000D03*
X145050002Y-97520000D03*
%TD*%
D55*
%TO.C,R97*%
X149050000Y-78830000D03*
X149050000Y-77810000D03*
%TD*%
D40*
%TO.C,Q25*%
X180794500Y-119938749D03*
X182694500Y-119938749D03*
X181744500Y-121813749D03*
%TD*%
D42*
%TO.C,D1*%
X115250000Y-96940000D03*
X115250000Y-99440000D03*
%TD*%
D55*
%TO.C,R30*%
X139800000Y-92330000D03*
X139800000Y-91310000D03*
%TD*%
D47*
%TO.C,Q7*%
X138112500Y-116520000D03*
X138112500Y-114620000D03*
X139987500Y-115570000D03*
%TD*%
D33*
%TO.C,R78*%
X181434500Y-118376250D03*
X180414500Y-118376250D03*
%TD*%
D42*
%TO.C,D31*%
X198300000Y-89070000D03*
X195800000Y-89070000D03*
%TD*%
D55*
%TO.C,R101*%
X117550000Y-79580000D03*
X117550000Y-78560000D03*
%TD*%
D63*
%TO.C,J3*%
X160940000Y-129265000D03*
X155160000Y-129265000D03*
D64*
X161250000Y-128145000D03*
X160450000Y-128145000D03*
D65*
X159300000Y-128145000D03*
X158300000Y-128145000D03*
X157800000Y-128145000D03*
X156800000Y-128145000D03*
D64*
X155650000Y-128145000D03*
X154850000Y-128145000D03*
X154850000Y-128145000D03*
X155650000Y-128145000D03*
D65*
X156300000Y-128145000D03*
X157300000Y-128145000D03*
X158800000Y-128145000D03*
X159800000Y-128145000D03*
D64*
X160450000Y-128145000D03*
X161250000Y-128145000D03*
D66*
X153730000Y-132945000D03*
D67*
X162370000Y-128745000D03*
D66*
X162370000Y-132945000D03*
D67*
X153730000Y-128745000D03*
%TD*%
D35*
%TO.C,R93*%
X127050000Y-79310000D03*
X127050000Y-80330000D03*
%TD*%
D55*
%TO.C,R38*%
X183030000Y-90580000D03*
X183030000Y-89560000D03*
%TD*%
D42*
%TO.C,D20*%
X142300000Y-101570000D03*
X142300000Y-99070000D03*
%TD*%
D33*
%TO.C,R20*%
X142810000Y-119320000D03*
X141790000Y-119320000D03*
%TD*%
D35*
%TO.C,R102*%
X173930000Y-93810000D03*
X173930000Y-94830000D03*
%TD*%
%TO.C,R32*%
X134800000Y-93310000D03*
X134800000Y-94330000D03*
%TD*%
D42*
%TO.C,D18*%
X161800000Y-119570000D03*
X161800000Y-122070000D03*
%TD*%
D55*
%TO.C,R37*%
X178060000Y-86380000D03*
X178060000Y-85360000D03*
%TD*%
D35*
%TO.C,R11*%
X157560000Y-125400000D03*
X157560000Y-126420000D03*
%TD*%
D37*
%TO.C,R15*%
X150290000Y-108320000D03*
X151310000Y-108320000D03*
%TD*%
D42*
%TO.C,D21*%
X193060000Y-114840000D03*
X193060000Y-112340000D03*
%TD*%
D55*
%TO.C,R50*%
X139330000Y-121190000D03*
X139330000Y-120170000D03*
%TD*%
D37*
%TO.C,R48*%
X168620000Y-127690000D03*
X169640000Y-127690000D03*
%TD*%
%TO.C,R98*%
X196510000Y-113660000D03*
X197530000Y-113660000D03*
%TD*%
D43*
%TO.C,Q31*%
X162237500Y-77630000D03*
X162237500Y-79530000D03*
X160362500Y-78580000D03*
%TD*%
D55*
%TO.C,R68*%
X151300000Y-96330000D03*
X151300000Y-95310000D03*
%TD*%
%TO.C,R56*%
X156190000Y-122280000D03*
X156190000Y-121260000D03*
%TD*%
D31*
%TO.C,C12*%
X180775000Y-127820000D03*
X182325000Y-127820000D03*
%TD*%
%TO.C,C15*%
X158365000Y-106530000D03*
X159915000Y-106530000D03*
%TD*%
D39*
%TO.C,R85*%
X183980000Y-112367500D03*
X183980000Y-114192500D03*
%TD*%
D42*
%TO.C,D2*%
X154300000Y-115570000D03*
X154300000Y-113070000D03*
%TD*%
D35*
%TO.C,R6*%
X156550000Y-125390000D03*
X156550000Y-126410000D03*
%TD*%
D31*
%TO.C,C18*%
X158365000Y-108070000D03*
X159915000Y-108070000D03*
%TD*%
D49*
%TO.C,C5*%
X164830000Y-134570000D03*
X163870000Y-134570000D03*
%TD*%
D36*
%TO.C,C14*%
X150300000Y-103800000D03*
X150300000Y-102840000D03*
%TD*%
D32*
%TO.C,Q13*%
X140500000Y-99620000D03*
X140500000Y-101520000D03*
X138100000Y-100570000D03*
%TD*%
D47*
%TO.C,Q5*%
X142112500Y-118020000D03*
X142112500Y-116120000D03*
X143987500Y-117070000D03*
%TD*%
D42*
%TO.C,D39*%
X180440000Y-94260000D03*
X177940000Y-94260000D03*
%TD*%
D55*
%TO.C,R25*%
X139550000Y-118830000D03*
X139550000Y-117810000D03*
%TD*%
D33*
%TO.C,R18*%
X152760000Y-119040000D03*
X151740000Y-119040000D03*
%TD*%
D42*
%TO.C,D38*%
X166090000Y-94310000D03*
X168590000Y-94310000D03*
%TD*%
%TO.C,D13*%
X167490000Y-126200000D03*
X169990000Y-126200000D03*
%TD*%
D49*
%TO.C,C24*%
X165190000Y-101220000D03*
X164230000Y-101220000D03*
%TD*%
D33*
%TO.C,R34*%
X189060000Y-127070000D03*
X188040000Y-127070000D03*
%TD*%
D68*
%TO.C,C8*%
X151325000Y-110570000D03*
X149775000Y-110570000D03*
%TD*%
M02*
