%TF.GenerationSoftware,KiCad,Pcbnew,(6.0.11)*%
%TF.CreationDate,2024-02-29T08:23:56+09:00*%
%TF.ProjectId,Mother_Ctrl,4d6f7468-6572-45f4-9374-726c2e6b6963,rev?*%
%TF.SameCoordinates,Original*%
%TF.FileFunction,Soldermask,Bot*%
%TF.FilePolarity,Negative*%
%FSLAX46Y46*%
G04 Gerber Fmt 4.6, Leading zero omitted, Abs format (unit mm)*
G04 Created by KiCad (PCBNEW (6.0.11)) date 2024-02-29 08:23:56*
%MOMM*%
%LPD*%
G01*
G04 APERTURE LIST*
G04 Aperture macros list*
%AMRoundRect*
0 Rectangle with rounded corners*
0 $1 Rounding radius*
0 $2 $3 $4 $5 $6 $7 $8 $9 X,Y pos of 4 corners*
0 Add a 4 corners polygon primitive as box body*
4,1,4,$2,$3,$4,$5,$6,$7,$8,$9,$2,$3,0*
0 Add four circle primitives for the rounded corners*
1,1,$1+$1,$2,$3*
1,1,$1+$1,$4,$5*
1,1,$1+$1,$6,$7*
1,1,$1+$1,$8,$9*
0 Add four rect primitives between the rounded corners*
20,1,$1+$1,$2,$3,$4,$5,0*
20,1,$1+$1,$4,$5,$6,$7,0*
20,1,$1+$1,$6,$7,$8,$9,0*
20,1,$1+$1,$8,$9,$2,$3,0*%
%AMHorizOval*
0 Thick line with rounded ends*
0 $1 width*
0 $2 $3 position (X,Y) of the first rounded end (center of the circle)*
0 $4 $5 position (X,Y) of the second rounded end (center of the circle)*
0 Add line between two ends*
20,1,$1,$2,$3,$4,$5,0*
0 Add two circle primitives to create the rounded ends*
1,1,$1,$2,$3*
1,1,$1,$4,$5*%
G04 Aperture macros list end*
%ADD10RoundRect,0.250000X0.675000X-0.600000X0.675000X0.600000X-0.675000X0.600000X-0.675000X-0.600000X0*%
%ADD11O,1.850000X1.700000*%
%ADD12R,1.700000X1.700000*%
%ADD13O,1.700000X1.700000*%
%ADD14RoundRect,0.250000X0.600000X0.675000X-0.600000X0.675000X-0.600000X-0.675000X0.600000X-0.675000X0*%
%ADD15O,1.700000X1.850000*%
%ADD16C,1.400000*%
%ADD17R,3.500000X3.500000*%
%ADD18C,3.500000*%
%ADD19R,1.400000X1.400000*%
%ADD20RoundRect,0.381000X-0.381000X-0.381000X0.381000X-0.381000X0.381000X0.381000X-0.381000X0.381000X0*%
%ADD21C,1.524000*%
%ADD22RoundRect,0.250000X-0.675000X0.600000X-0.675000X-0.600000X0.675000X-0.600000X0.675000X0.600000X0*%
%ADD23HorizOval,3.100000X0.424264X-0.424264X-0.424264X0.424264X0*%
%ADD24C,1.700000*%
%ADD25RoundRect,0.425000X0.425000X0.425000X-0.425000X0.425000X-0.425000X-0.425000X0.425000X-0.425000X0*%
%ADD26C,2.000000*%
%ADD27RoundRect,0.225000X-0.225000X-0.250000X0.225000X-0.250000X0.225000X0.250000X-0.225000X0.250000X0*%
%ADD28R,1.000000X0.700000*%
%ADD29RoundRect,0.135000X0.135000X0.185000X-0.135000X0.185000X-0.135000X-0.185000X0.135000X-0.185000X0*%
%ADD30RoundRect,0.150000X0.150000X-0.587500X0.150000X0.587500X-0.150000X0.587500X-0.150000X-0.587500X0*%
%ADD31RoundRect,0.135000X-0.185000X0.135000X-0.185000X-0.135000X0.185000X-0.135000X0.185000X0.135000X0*%
%ADD32RoundRect,0.140000X0.170000X-0.140000X0.170000X0.140000X-0.170000X0.140000X-0.170000X-0.140000X0*%
%ADD33RoundRect,0.135000X-0.135000X-0.185000X0.135000X-0.185000X0.135000X0.185000X-0.135000X0.185000X0*%
%ADD34R,1.800000X1.000000*%
%ADD35RoundRect,0.237500X-0.237500X0.250000X-0.237500X-0.250000X0.237500X-0.250000X0.237500X0.250000X0*%
%ADD36RoundRect,0.150000X-0.150000X0.587500X-0.150000X-0.587500X0.150000X-0.587500X0.150000X0.587500X0*%
%ADD37RoundRect,0.225000X-0.250000X0.225000X-0.250000X-0.225000X0.250000X-0.225000X0.250000X0.225000X0*%
%ADD38R,1.000000X1.000000*%
%ADD39RoundRect,0.150000X0.587500X0.150000X-0.587500X0.150000X-0.587500X-0.150000X0.587500X-0.150000X0*%
%ADD40RoundRect,0.140000X-0.140000X-0.170000X0.140000X-0.170000X0.140000X0.170000X-0.140000X0.170000X0*%
%ADD41RoundRect,0.150000X-0.150000X0.675000X-0.150000X-0.675000X0.150000X-0.675000X0.150000X0.675000X0*%
%ADD42RoundRect,0.200000X0.275000X-0.200000X0.275000X0.200000X-0.275000X0.200000X-0.275000X-0.200000X0*%
%ADD43RoundRect,0.150000X-0.587500X-0.150000X0.587500X-0.150000X0.587500X0.150000X-0.587500X0.150000X0*%
%ADD44RoundRect,0.140000X-0.170000X0.140000X-0.170000X-0.140000X0.170000X-0.140000X0.170000X0.140000X0*%
%ADD45RoundRect,0.140000X0.140000X0.170000X-0.140000X0.170000X-0.140000X-0.170000X0.140000X-0.170000X0*%
%ADD46R,0.300000X1.400000*%
%ADD47R,0.700000X1.000000*%
%ADD48RoundRect,0.075000X-0.700000X-0.075000X0.700000X-0.075000X0.700000X0.075000X-0.700000X0.075000X0*%
%ADD49RoundRect,0.075000X-0.075000X-0.700000X0.075000X-0.700000X0.075000X0.700000X-0.075000X0.700000X0*%
%ADD50RoundRect,0.200000X-0.275000X0.200000X-0.275000X-0.200000X0.275000X-0.200000X0.275000X0.200000X0*%
%ADD51RoundRect,0.135000X0.185000X-0.135000X0.185000X0.135000X-0.185000X0.135000X-0.185000X-0.135000X0*%
%ADD52RoundRect,0.150000X0.675000X0.150000X-0.675000X0.150000X-0.675000X-0.150000X0.675000X-0.150000X0*%
%ADD53R,1.800000X2.100000*%
%ADD54RoundRect,0.250000X-0.250000X-0.475000X0.250000X-0.475000X0.250000X0.475000X-0.250000X0.475000X0*%
%ADD55RoundRect,0.200000X0.200000X0.275000X-0.200000X0.275000X-0.200000X-0.275000X0.200000X-0.275000X0*%
%ADD56R,1.500000X1.500000*%
%ADD57R,2.200000X1.200000*%
%ADD58R,6.400000X5.800000*%
%ADD59C,0.650000*%
%ADD60R,0.600000X1.240000*%
%ADD61R,0.300000X1.240000*%
%ADD62O,1.000000X1.800000*%
%ADD63O,1.000000X2.100000*%
%ADD64RoundRect,0.225000X0.225000X0.250000X-0.225000X0.250000X-0.225000X-0.250000X0.225000X-0.250000X0*%
G04 APERTURE END LIST*
D10*
%TO.C,J10*%
X193650000Y-124320000D03*
D11*
X193650000Y-121820000D03*
X193650000Y-119320000D03*
X193650000Y-116820000D03*
%TD*%
D12*
%TO.C,J16*%
X189050000Y-92070000D03*
D13*
X186510000Y-92070000D03*
X183970000Y-92070000D03*
X181430000Y-92070000D03*
X178890000Y-92070000D03*
X176350000Y-92070000D03*
X173810000Y-92070000D03*
X171270000Y-92070000D03*
X168730000Y-92070000D03*
X166190000Y-92070000D03*
X163650000Y-92070000D03*
X161110000Y-92070000D03*
%TD*%
D14*
%TO.C,J6*%
X187650000Y-83370000D03*
D15*
X185150000Y-83370000D03*
%TD*%
D16*
%TO.C,J2*%
X119800000Y-126170000D03*
X130800000Y-126170000D03*
D17*
X127800000Y-121170000D03*
D18*
X122800000Y-121170000D03*
%TD*%
D14*
%TO.C,J12*%
X159790000Y-83260000D03*
D15*
X157290000Y-83260000D03*
X154790000Y-83260000D03*
X152290000Y-83260000D03*
%TD*%
D19*
%TO.C,SW4*%
X174070000Y-133100000D03*
D16*
X171570000Y-133100000D03*
X169070000Y-133100000D03*
X174070000Y-129800000D03*
X171570000Y-129800000D03*
X169070000Y-129800000D03*
%TD*%
D12*
%TO.C,JP1*%
X198825000Y-111810000D03*
D13*
X196285000Y-111810000D03*
%TD*%
D14*
%TO.C,J14*%
X125550000Y-83470000D03*
D15*
X123050000Y-83470000D03*
X120550000Y-83470000D03*
X118050000Y-83470000D03*
X115550000Y-83470000D03*
%TD*%
D10*
%TO.C,J7*%
X193650000Y-93070000D03*
D11*
X193650000Y-90570000D03*
X193650000Y-88070000D03*
%TD*%
D12*
%TO.C,J15*%
X189050000Y-88070000D03*
D13*
X186510000Y-88070000D03*
X183970000Y-88070000D03*
X181430000Y-88070000D03*
X178890000Y-88070000D03*
X176350000Y-88070000D03*
X173810000Y-88070000D03*
X171270000Y-88070000D03*
X168730000Y-88070000D03*
X166190000Y-88070000D03*
X163650000Y-88070000D03*
X161110000Y-88070000D03*
%TD*%
D16*
%TO.C,J1*%
X104975000Y-109070000D03*
X104975000Y-120070000D03*
D17*
X114975000Y-112070000D03*
D18*
X114975000Y-117070000D03*
%TD*%
D12*
%TO.C,JP2*%
X147300000Y-80845001D03*
D13*
X147300000Y-78305001D03*
%TD*%
D14*
%TO.C,J11*%
X142290000Y-83310000D03*
D15*
X139790000Y-83310000D03*
X137290000Y-83310000D03*
X134790000Y-83310000D03*
%TD*%
D20*
%TO.C,SW5*%
X159550000Y-114570000D03*
D21*
X159550000Y-117110000D03*
X159550000Y-119650000D03*
%TD*%
D14*
%TO.C,J8*%
X174400000Y-83370000D03*
D15*
X171900000Y-83370000D03*
X169400000Y-83370000D03*
%TD*%
D22*
%TO.C,J13*%
X108450000Y-88070000D03*
D11*
X108450000Y-90570000D03*
X108450000Y-93070000D03*
X108450000Y-95570000D03*
X108450000Y-98070000D03*
%TD*%
D10*
%TO.C,J9*%
X193650000Y-106820000D03*
D11*
X193650000Y-104320000D03*
X193650000Y-101820000D03*
X193650000Y-99320000D03*
%TD*%
D23*
%TO.C,U2*%
X137600000Y-110920000D03*
%TD*%
D12*
%TO.C,J17*%
X189050000Y-124070000D03*
D13*
X186510000Y-124070000D03*
X183970000Y-124070000D03*
X181430000Y-124070000D03*
X178890000Y-124070000D03*
X176350000Y-124070000D03*
X173810000Y-124070000D03*
X171270000Y-124070000D03*
X168730000Y-124070000D03*
X166190000Y-124070000D03*
X163650000Y-124070000D03*
X161110000Y-124070000D03*
%TD*%
D12*
%TO.C,J4*%
X135400000Y-125420000D03*
D13*
X137940000Y-125420000D03*
X140480000Y-125420000D03*
X143020000Y-125420000D03*
X145560000Y-125420000D03*
X148100000Y-125420000D03*
X150640000Y-125420000D03*
%TD*%
D21*
%TO.C,U5*%
X182209999Y-110050002D03*
X189829999Y-110050002D03*
X182209999Y-107510002D03*
X189829999Y-115130002D03*
X189829999Y-112590002D03*
X182209999Y-115130002D03*
X182209999Y-112590002D03*
X189829999Y-107510002D03*
%TD*%
D24*
%TO.C,SW1*%
X114300000Y-122990000D03*
X114300000Y-133150000D03*
D25*
X114300000Y-130610000D03*
D24*
X114300000Y-128070000D03*
X114300000Y-125530000D03*
%TD*%
D26*
%TO.C,TP5*%
X104900000Y-125970000D03*
%TD*%
D27*
%TO.C,C17*%
X158365000Y-109630000D03*
X159915000Y-109630000D03*
%TD*%
D28*
%TO.C,Q9*%
X183100000Y-82870000D03*
X183100000Y-84770000D03*
X180700000Y-83820000D03*
%TD*%
D29*
%TO.C,R55*%
X162270000Y-118230000D03*
X161250000Y-118230000D03*
%TD*%
D30*
%TO.C,Q2*%
X112250000Y-129007500D03*
X110350000Y-129007500D03*
X111300000Y-127132500D03*
%TD*%
D31*
%TO.C,R46*%
X183550000Y-133360000D03*
X183550000Y-134380000D03*
%TD*%
D32*
%TO.C,C19*%
X148300000Y-101800000D03*
X148300000Y-100840000D03*
%TD*%
D33*
%TO.C,R31*%
X183640000Y-77570000D03*
X184660000Y-77570000D03*
%TD*%
D34*
%TO.C,Y2*%
X161850000Y-106710000D03*
X161850000Y-109210000D03*
%TD*%
D31*
%TO.C,R41*%
X161300000Y-115310000D03*
X161300000Y-116330000D03*
%TD*%
%TO.C,R1*%
X115970000Y-128720000D03*
X115970000Y-129740000D03*
%TD*%
D35*
%TO.C,R84*%
X183990000Y-107997500D03*
X183990000Y-109822500D03*
%TD*%
D31*
%TO.C,R80*%
X181487500Y-96090000D03*
X181487500Y-97110000D03*
%TD*%
D33*
%TO.C,R27*%
X136840000Y-103020000D03*
X137860000Y-103020000D03*
%TD*%
D31*
%TO.C,R13*%
X132710000Y-95310000D03*
X132710000Y-96330000D03*
%TD*%
D28*
%TO.C,Q6*%
X141850000Y-114520000D03*
X141850000Y-112620000D03*
X144250000Y-113570000D03*
%TD*%
D36*
%TO.C,Q18*%
X188350000Y-132132500D03*
X190250000Y-132132500D03*
X189300000Y-134007500D03*
%TD*%
D37*
%TO.C,C16*%
X163930000Y-102485000D03*
X163930000Y-104035000D03*
%TD*%
D38*
%TO.C,D10*%
X171800000Y-119570000D03*
X171800000Y-122070000D03*
%TD*%
D36*
%TO.C,Q27*%
X177294500Y-119938750D03*
X179194500Y-119938750D03*
X178244500Y-121813750D03*
%TD*%
D39*
%TO.C,Q32*%
X130487500Y-78120000D03*
X130487500Y-80020000D03*
X128612500Y-79070000D03*
%TD*%
D36*
%TO.C,Q16*%
X184850000Y-132032500D03*
X186750000Y-132032500D03*
X185800000Y-133907500D03*
%TD*%
D31*
%TO.C,R99*%
X145290000Y-78690000D03*
X145290000Y-79710000D03*
%TD*%
D36*
%TO.C,Q11*%
X183950000Y-79132500D03*
X185850000Y-79132500D03*
X184900000Y-81007500D03*
%TD*%
D29*
%TO.C,R29*%
X140810000Y-93320000D03*
X139790000Y-93320000D03*
%TD*%
D30*
%TO.C,Q23*%
X198000000Y-93007500D03*
X196100000Y-93007500D03*
X197050000Y-91132500D03*
%TD*%
D40*
%TO.C,C28*%
X178820000Y-108320000D03*
X179780000Y-108320000D03*
%TD*%
D38*
%TO.C,D11*%
X174040000Y-126210000D03*
X171540000Y-126210000D03*
%TD*%
D41*
%TO.C,U6*%
X195705000Y-102495000D03*
X196975000Y-102495000D03*
X198245000Y-102495000D03*
X199515000Y-102495000D03*
X199515000Y-107745000D03*
X198245000Y-107745000D03*
X196975000Y-107745000D03*
X195705000Y-107745000D03*
%TD*%
D38*
%TO.C,D14*%
X167800000Y-119570000D03*
X167800000Y-122070000D03*
%TD*%
D31*
%TO.C,R91*%
X158810000Y-78960000D03*
X158810000Y-79980000D03*
%TD*%
D42*
%TO.C,R3*%
X152510000Y-114995000D03*
X152510000Y-113345000D03*
%TD*%
D43*
%TO.C,Q22*%
X147862500Y-96020000D03*
X147862500Y-94120000D03*
X149737500Y-95070000D03*
%TD*%
D44*
%TO.C,C13*%
X140300000Y-105590000D03*
X140300000Y-106550000D03*
%TD*%
D45*
%TO.C,C29*%
X167780000Y-109570000D03*
X166820000Y-109570000D03*
%TD*%
%TO.C,C35*%
X118530000Y-77570000D03*
X117570000Y-77570000D03*
%TD*%
D33*
%TO.C,R72*%
X167950000Y-134590000D03*
X168970000Y-134590000D03*
%TD*%
D46*
%TO.C,U1*%
X164350000Y-128570000D03*
X164850000Y-128570000D03*
X165350000Y-128570000D03*
X165850000Y-128570000D03*
X166350000Y-128570000D03*
X166350000Y-132970000D03*
X165850000Y-132970000D03*
X165350000Y-132970000D03*
X164850000Y-132970000D03*
X164350000Y-132970000D03*
%TD*%
D47*
%TO.C,Q19*%
X146000000Y-101520000D03*
X144100000Y-101520000D03*
X145050000Y-99120000D03*
%TD*%
D31*
%TO.C,R61*%
X149300000Y-100810000D03*
X149300000Y-101830000D03*
%TD*%
D32*
%TO.C,C27*%
X165550000Y-103550000D03*
X165550000Y-102590000D03*
%TD*%
D31*
%TO.C,R23*%
X134550000Y-105310000D03*
X134550000Y-106330000D03*
%TD*%
D38*
%TO.C,H5*%
X143850000Y-110670000D03*
%TD*%
D48*
%TO.C,U4*%
X167125000Y-107070000D03*
X167125000Y-106570000D03*
X167125000Y-106070000D03*
X167125000Y-105570000D03*
X167125000Y-105070000D03*
X167125000Y-104570000D03*
X167125000Y-104070000D03*
X167125000Y-103570000D03*
X167125000Y-103070000D03*
X167125000Y-102570000D03*
X167125000Y-102070000D03*
X167125000Y-101570000D03*
X167125000Y-101070000D03*
X167125000Y-100570000D03*
X167125000Y-100070000D03*
X167125000Y-99570000D03*
D49*
X169050000Y-97645000D03*
X169550000Y-97645000D03*
X170050000Y-97645000D03*
X170550000Y-97645000D03*
X171050000Y-97645000D03*
X171550000Y-97645000D03*
X172050000Y-97645000D03*
X172550000Y-97645000D03*
X173050000Y-97645000D03*
X173550000Y-97645000D03*
X174050000Y-97645000D03*
X174550000Y-97645000D03*
X175050000Y-97645000D03*
X175550000Y-97645000D03*
X176050000Y-97645000D03*
X176550000Y-97645000D03*
D48*
X178475000Y-99570000D03*
X178475000Y-100070000D03*
X178475000Y-100570000D03*
X178475000Y-101070000D03*
X178475000Y-101570000D03*
X178475000Y-102070000D03*
X178475000Y-102570000D03*
X178475000Y-103070000D03*
X178475000Y-103570000D03*
X178475000Y-104070000D03*
X178475000Y-104570000D03*
X178475000Y-105070000D03*
X178475000Y-105570000D03*
X178475000Y-106070000D03*
X178475000Y-106570000D03*
X178475000Y-107070000D03*
D49*
X176550000Y-108995000D03*
X176050000Y-108995000D03*
X175550000Y-108995000D03*
X175050000Y-108995000D03*
X174550000Y-108995000D03*
X174050000Y-108995000D03*
X173550000Y-108995000D03*
X173050000Y-108995000D03*
X172550000Y-108995000D03*
X172050000Y-108995000D03*
X171550000Y-108995000D03*
X171050000Y-108995000D03*
X170550000Y-108995000D03*
X170050000Y-108995000D03*
X169550000Y-108995000D03*
X169050000Y-108995000D03*
%TD*%
D38*
%TO.C,D36*%
X163620000Y-83410000D03*
X166120000Y-83410000D03*
%TD*%
D32*
%TO.C,C9*%
X133000000Y-116450000D03*
X133000000Y-115490000D03*
%TD*%
D50*
%TO.C,R8*%
X124400000Y-93465000D03*
X124400000Y-95115000D03*
%TD*%
D31*
%TO.C,R22*%
X135550000Y-105310000D03*
X135550000Y-106330000D03*
%TD*%
D50*
%TO.C,R88*%
X199260000Y-98935000D03*
X199260000Y-100585000D03*
%TD*%
D33*
%TO.C,R62*%
X167610000Y-111350000D03*
X168630000Y-111350000D03*
%TD*%
D51*
%TO.C,R59*%
X191600000Y-118170000D03*
X191600000Y-117150000D03*
%TD*%
D52*
%TO.C,U8*%
X125425000Y-77665000D03*
X125425000Y-78935000D03*
X125425000Y-80205000D03*
X125425000Y-81475000D03*
X120175000Y-81475000D03*
X120175000Y-80205000D03*
X120175000Y-78935000D03*
X120175000Y-77665000D03*
%TD*%
D40*
%TO.C,C37*%
X118820000Y-85320000D03*
X119780000Y-85320000D03*
%TD*%
D44*
%TO.C,C32*%
X180740000Y-107320000D03*
X180740000Y-108280000D03*
%TD*%
D47*
%TO.C,Q15*%
X184850000Y-127870000D03*
X186750000Y-127870000D03*
X185800000Y-130270000D03*
%TD*%
D29*
%TO.C,R94*%
X199580000Y-109610000D03*
X198560000Y-109610000D03*
%TD*%
D53*
%TO.C,Y1*%
X159580000Y-104380000D03*
X159580000Y-101480000D03*
X161880000Y-101480000D03*
X161880000Y-104380000D03*
%TD*%
D38*
%TO.C,D33*%
X184310000Y-120800000D03*
X186810000Y-120800000D03*
%TD*%
D54*
%TO.C,C3*%
X153370000Y-125720000D03*
X155270000Y-125720000D03*
%TD*%
D29*
%TO.C,R66*%
X166620000Y-111610000D03*
X165600000Y-111610000D03*
%TD*%
D38*
%TO.C,D32*%
X186737500Y-99820000D03*
X189237500Y-99820000D03*
%TD*%
D28*
%TO.C,Q17*%
X190750000Y-128370000D03*
X190750000Y-130270000D03*
X188350000Y-129320000D03*
%TD*%
D32*
%TO.C,C25*%
X169910000Y-96060000D03*
X169910000Y-95100000D03*
%TD*%
D51*
%TO.C,R73*%
X148330000Y-134070000D03*
X148330000Y-133050000D03*
%TD*%
D47*
%TO.C,Q10*%
X138600000Y-95620000D03*
X140500000Y-95620000D03*
X139550000Y-98020000D03*
%TD*%
D52*
%TO.C,U7*%
X157165000Y-77435000D03*
X157165000Y-78705000D03*
X157165000Y-79975000D03*
X157165000Y-81245000D03*
X151915000Y-81245000D03*
X151915000Y-79975000D03*
X151915000Y-78705000D03*
X151915000Y-77435000D03*
%TD*%
D29*
%TO.C,R19*%
X152760000Y-120790000D03*
X151740000Y-120790000D03*
%TD*%
D33*
%TO.C,R103*%
X165600000Y-110570000D03*
X166620000Y-110570000D03*
%TD*%
D38*
%TO.C,D35*%
X184300000Y-117760000D03*
X186800000Y-117760000D03*
%TD*%
D31*
%TO.C,R4*%
X110010000Y-124570000D03*
X110010000Y-125590000D03*
%TD*%
D51*
%TO.C,R65*%
X150300000Y-101830000D03*
X150300000Y-100810000D03*
%TD*%
D55*
%TO.C,R92*%
X128875000Y-81570000D03*
X127225000Y-81570000D03*
%TD*%
D45*
%TO.C,C2*%
X151280000Y-113290000D03*
X150320000Y-113290000D03*
%TD*%
%TO.C,C31*%
X166779999Y-108319999D03*
X165819999Y-108319999D03*
%TD*%
D42*
%TO.C,R7*%
X122840000Y-95135000D03*
X122840000Y-93485000D03*
%TD*%
D31*
%TO.C,R44*%
X139300001Y-105559999D03*
X139300001Y-106579999D03*
%TD*%
D33*
%TO.C,R90*%
X197000000Y-100760000D03*
X198020000Y-100760000D03*
%TD*%
D36*
%TO.C,Q30*%
X195810000Y-97322500D03*
X197710000Y-97322500D03*
X196760000Y-99197500D03*
%TD*%
D31*
%TO.C,R86*%
X114800000Y-94640000D03*
X114800000Y-95660000D03*
%TD*%
%TO.C,R75*%
X181487500Y-98810000D03*
X181487500Y-99830000D03*
%TD*%
D38*
%TO.C,H4*%
X145950000Y-110670000D03*
%TD*%
D29*
%TO.C,R81*%
X178754500Y-118376250D03*
X177734500Y-118376250D03*
%TD*%
D55*
%TO.C,R89*%
X160635000Y-81240000D03*
X158985000Y-81240000D03*
%TD*%
D43*
%TO.C,Q26*%
X183050000Y-96770000D03*
X183050000Y-94870000D03*
X184925000Y-95820000D03*
%TD*%
D56*
%TO.C,H7*%
X181550000Y-130070000D03*
%TD*%
D39*
%TO.C,Q12*%
X138237500Y-92120000D03*
X138237500Y-94020000D03*
X136362500Y-93070000D03*
%TD*%
D29*
%TO.C,R28*%
X182660000Y-77570000D03*
X181640000Y-77570000D03*
%TD*%
D31*
%TO.C,R100*%
X118550000Y-78560000D03*
X118550000Y-79580000D03*
%TD*%
%TO.C,R26*%
X140800000Y-91310000D03*
X140800000Y-92330000D03*
%TD*%
D44*
%TO.C,C36*%
X110170000Y-96270000D03*
X110170000Y-97230000D03*
%TD*%
D51*
%TO.C,R2*%
X111050000Y-125570000D03*
X111050000Y-124550000D03*
%TD*%
D29*
%TO.C,R95*%
X197630000Y-109620000D03*
X196610000Y-109620000D03*
%TD*%
%TO.C,R67*%
X166650000Y-113140000D03*
X165630000Y-113140000D03*
%TD*%
D51*
%TO.C,R52*%
X138110000Y-121320000D03*
X138110000Y-120300000D03*
%TD*%
D33*
%TO.C,R42*%
X186670000Y-86360000D03*
X187690000Y-86360000D03*
%TD*%
D38*
%TO.C,D17*%
X163800000Y-119570000D03*
X163800000Y-122070000D03*
%TD*%
D32*
%TO.C,C1*%
X112080000Y-125550000D03*
X112080000Y-124590000D03*
%TD*%
D51*
%TO.C,R45*%
X183550000Y-132480000D03*
X183550000Y-131460000D03*
%TD*%
D56*
%TO.C,H11*%
X167420000Y-81100000D03*
%TD*%
D38*
%TO.C,D34*%
X186737500Y-96320000D03*
X189237500Y-96320000D03*
%TD*%
D30*
%TO.C,Q14*%
X137000000Y-97757500D03*
X135100000Y-97757500D03*
X136050000Y-95882500D03*
%TD*%
D29*
%TO.C,R9*%
X111810000Y-130570000D03*
X110790000Y-130570000D03*
%TD*%
D33*
%TO.C,R21*%
X131980000Y-100840000D03*
X133000000Y-100840000D03*
%TD*%
D29*
%TO.C,R17*%
X152810000Y-117290000D03*
X151790000Y-117290000D03*
%TD*%
D43*
%TO.C,Q20*%
X147862500Y-99520000D03*
X147862500Y-97620000D03*
X149737500Y-98570000D03*
%TD*%
D31*
%TO.C,R49*%
X174720000Y-119560000D03*
X174720000Y-120580000D03*
%TD*%
D56*
%TO.C,H8*%
X181550000Y-132820000D03*
%TD*%
D43*
%TO.C,Q24*%
X183050000Y-100270000D03*
X183050000Y-98370000D03*
X184925000Y-99320000D03*
%TD*%
D51*
%TO.C,R33*%
X133800000Y-96330000D03*
X133800000Y-95310000D03*
%TD*%
%TO.C,R60*%
X147300000Y-101830000D03*
X147300000Y-100810000D03*
%TD*%
%TO.C,R58*%
X150300000Y-105830000D03*
X150300000Y-104810000D03*
%TD*%
D45*
%TO.C,C11*%
X140799999Y-94320000D03*
X139839999Y-94320000D03*
%TD*%
D30*
%TO.C,Q28*%
X113450000Y-97087500D03*
X111550000Y-97087500D03*
X112500000Y-95212500D03*
%TD*%
D51*
%TO.C,R96*%
X149060000Y-80840000D03*
X149060000Y-79820000D03*
%TD*%
D57*
%TO.C,U3*%
X139850001Y-108350000D03*
D58*
X146150001Y-106070000D03*
D57*
X139850001Y-103790000D03*
%TD*%
D28*
%TO.C,Q4*%
X148250000Y-112620000D03*
X148250000Y-114520000D03*
X145850000Y-113570000D03*
%TD*%
D40*
%TO.C,C4*%
X165770000Y-134570000D03*
X166730000Y-134570000D03*
%TD*%
D31*
%TO.C,R43*%
X184730000Y-89560000D03*
X184730000Y-90580000D03*
%TD*%
%TO.C,R47*%
X173660000Y-119550000D03*
X173660000Y-120570000D03*
%TD*%
D51*
%TO.C,R70*%
X149370000Y-133560000D03*
X149370000Y-132540000D03*
%TD*%
%TO.C,R16*%
X140550000Y-118830000D03*
X140550000Y-117810000D03*
%TD*%
D33*
%TO.C,R87*%
X111990000Y-98650000D03*
X113010000Y-98650000D03*
%TD*%
D51*
%TO.C,R35*%
X183550000Y-128580000D03*
X183550000Y-127560000D03*
%TD*%
D33*
%TO.C,R76*%
X196540000Y-87570000D03*
X197560000Y-87570000D03*
%TD*%
D31*
%TO.C,R69*%
X169120000Y-114870000D03*
X169120000Y-115890000D03*
%TD*%
D33*
%TO.C,R82*%
X186477500Y-94820000D03*
X187497500Y-94820000D03*
%TD*%
D38*
%TO.C,D5*%
X136800000Y-89810000D03*
X139300000Y-89810000D03*
%TD*%
D33*
%TO.C,R63*%
X167620000Y-113090000D03*
X168640000Y-113090000D03*
%TD*%
D29*
%TO.C,R10*%
X159570000Y-126480000D03*
X158550000Y-126480000D03*
%TD*%
D38*
%TO.C,D12*%
X169800000Y-119570000D03*
X169800000Y-122070000D03*
%TD*%
%TO.C,D37*%
X175900000Y-85890000D03*
X173400000Y-85890000D03*
%TD*%
D50*
%TO.C,R5*%
X154380000Y-109705000D03*
X154380000Y-111355000D03*
%TD*%
D45*
%TO.C,C6*%
X187030000Y-126570000D03*
X186070000Y-126570000D03*
%TD*%
%TO.C,C33*%
X195680000Y-109620000D03*
X194720000Y-109620000D03*
%TD*%
D33*
%TO.C,R77*%
X186477500Y-98320000D03*
X187497500Y-98320000D03*
%TD*%
D51*
%TO.C,R57*%
X191550000Y-134580000D03*
X191550000Y-133560000D03*
%TD*%
D40*
%TO.C,C26*%
X177640000Y-97270000D03*
X178600000Y-97270000D03*
%TD*%
D38*
%TO.C,D15*%
X163390000Y-126070000D03*
X165890000Y-126070000D03*
%TD*%
D29*
%TO.C,R51*%
X168350000Y-118250000D03*
X167330000Y-118250000D03*
%TD*%
D33*
%TO.C,R83*%
X183959999Y-119290000D03*
X184979999Y-119290000D03*
%TD*%
%TO.C,R54*%
X163290000Y-118250000D03*
X164310000Y-118250000D03*
%TD*%
D29*
%TO.C,R12*%
X150520000Y-114620000D03*
X149500000Y-114620000D03*
%TD*%
D37*
%TO.C,C30*%
X175890000Y-94045000D03*
X175890000Y-95595000D03*
%TD*%
D51*
%TO.C,R40*%
X185730000Y-90580000D03*
X185730000Y-89560000D03*
%TD*%
D38*
%TO.C,D16*%
X165800000Y-119570000D03*
X165800000Y-122070000D03*
%TD*%
D51*
%TO.C,R71*%
X150460000Y-133580000D03*
X150460000Y-132560000D03*
%TD*%
D38*
%TO.C,D9*%
X137300000Y-104820000D03*
X137300000Y-107320000D03*
%TD*%
D30*
%TO.C,Q8*%
X182350000Y-81007500D03*
X180450000Y-81007500D03*
X181400000Y-79132500D03*
%TD*%
D33*
%TO.C,R74*%
X196540000Y-94570000D03*
X197560000Y-94570000D03*
%TD*%
D29*
%TO.C,R53*%
X166310000Y-118250000D03*
X165290000Y-118250000D03*
%TD*%
D38*
%TO.C,D19*%
X157500000Y-121870000D03*
X160000000Y-121870000D03*
%TD*%
D31*
%TO.C,R24*%
X133550000Y-105310000D03*
X133550000Y-106330000D03*
%TD*%
%TO.C,R36*%
X183550000Y-129560000D03*
X183550000Y-130580000D03*
%TD*%
D44*
%TO.C,C34*%
X150190000Y-77420000D03*
X150190000Y-78380000D03*
%TD*%
D29*
%TO.C,R14*%
X151310000Y-109320000D03*
X150290000Y-109320000D03*
%TD*%
%TO.C,R39*%
X181330000Y-90330000D03*
X180310000Y-90330000D03*
%TD*%
D33*
%TO.C,R79*%
X183980000Y-122300000D03*
X185000000Y-122300000D03*
%TD*%
D47*
%TO.C,Q21*%
X144100002Y-95120000D03*
X146000002Y-95120000D03*
X145050002Y-97520000D03*
%TD*%
D51*
%TO.C,R97*%
X149050000Y-78830000D03*
X149050000Y-77810000D03*
%TD*%
D36*
%TO.C,Q25*%
X180794500Y-119938749D03*
X182694500Y-119938749D03*
X181744500Y-121813749D03*
%TD*%
D38*
%TO.C,D1*%
X115250000Y-96940000D03*
X115250000Y-99440000D03*
%TD*%
D51*
%TO.C,R30*%
X139800000Y-92330000D03*
X139800000Y-91310000D03*
%TD*%
D43*
%TO.C,Q7*%
X138112500Y-116520000D03*
X138112500Y-114620000D03*
X139987500Y-115570000D03*
%TD*%
D29*
%TO.C,R78*%
X181434500Y-118376250D03*
X180414500Y-118376250D03*
%TD*%
D38*
%TO.C,D31*%
X198300000Y-89070000D03*
X195800000Y-89070000D03*
%TD*%
D51*
%TO.C,R101*%
X117550000Y-79580000D03*
X117550000Y-78560000D03*
%TD*%
D59*
%TO.C,J3*%
X160940000Y-129265000D03*
X155160000Y-129265000D03*
D60*
X161250000Y-128145000D03*
X160450000Y-128145000D03*
D61*
X159300000Y-128145000D03*
X158300000Y-128145000D03*
X157800000Y-128145000D03*
X156800000Y-128145000D03*
D60*
X155650000Y-128145000D03*
X154850000Y-128145000D03*
X154850000Y-128145000D03*
X155650000Y-128145000D03*
D61*
X156300000Y-128145000D03*
X157300000Y-128145000D03*
X158800000Y-128145000D03*
X159800000Y-128145000D03*
D60*
X160450000Y-128145000D03*
X161250000Y-128145000D03*
D62*
X153730000Y-132945000D03*
D63*
X162370000Y-128745000D03*
D62*
X162370000Y-132945000D03*
D63*
X153730000Y-128745000D03*
%TD*%
D31*
%TO.C,R93*%
X127050000Y-79310000D03*
X127050000Y-80330000D03*
%TD*%
D51*
%TO.C,R38*%
X183030000Y-90580000D03*
X183030000Y-89560000D03*
%TD*%
D38*
%TO.C,D20*%
X142300000Y-101570000D03*
X142300000Y-99070000D03*
%TD*%
D29*
%TO.C,R20*%
X142810000Y-119320000D03*
X141790000Y-119320000D03*
%TD*%
D31*
%TO.C,R102*%
X173930000Y-93810000D03*
X173930000Y-94830000D03*
%TD*%
%TO.C,R32*%
X134800000Y-93310000D03*
X134800000Y-94330000D03*
%TD*%
D38*
%TO.C,D18*%
X161800000Y-119570000D03*
X161800000Y-122070000D03*
%TD*%
D51*
%TO.C,R37*%
X178060000Y-86380000D03*
X178060000Y-85360000D03*
%TD*%
D31*
%TO.C,R11*%
X157560000Y-125400000D03*
X157560000Y-126420000D03*
%TD*%
D33*
%TO.C,R15*%
X150290000Y-108320000D03*
X151310000Y-108320000D03*
%TD*%
D38*
%TO.C,D21*%
X193060000Y-114840000D03*
X193060000Y-112340000D03*
%TD*%
D51*
%TO.C,R50*%
X139330000Y-121190000D03*
X139330000Y-120170000D03*
%TD*%
D33*
%TO.C,R48*%
X168620000Y-127690000D03*
X169640000Y-127690000D03*
%TD*%
%TO.C,R98*%
X196510000Y-113660000D03*
X197530000Y-113660000D03*
%TD*%
D39*
%TO.C,Q31*%
X162237500Y-77630000D03*
X162237500Y-79530000D03*
X160362500Y-78580000D03*
%TD*%
D51*
%TO.C,R68*%
X151300000Y-96330000D03*
X151300000Y-95310000D03*
%TD*%
%TO.C,R56*%
X156190000Y-122280000D03*
X156190000Y-121260000D03*
%TD*%
D27*
%TO.C,C12*%
X180775000Y-127820000D03*
X182325000Y-127820000D03*
%TD*%
%TO.C,C15*%
X158365000Y-106530000D03*
X159915000Y-106530000D03*
%TD*%
D35*
%TO.C,R85*%
X183980000Y-112367500D03*
X183980000Y-114192500D03*
%TD*%
D38*
%TO.C,D2*%
X154300000Y-115570000D03*
X154300000Y-113070000D03*
%TD*%
D31*
%TO.C,R6*%
X156550000Y-125390000D03*
X156550000Y-126410000D03*
%TD*%
D27*
%TO.C,C18*%
X158365000Y-108070000D03*
X159915000Y-108070000D03*
%TD*%
D45*
%TO.C,C5*%
X164830000Y-134570000D03*
X163870000Y-134570000D03*
%TD*%
D32*
%TO.C,C14*%
X150300000Y-103800000D03*
X150300000Y-102840000D03*
%TD*%
D28*
%TO.C,Q13*%
X140500000Y-99620000D03*
X140500000Y-101520000D03*
X138100000Y-100570000D03*
%TD*%
D43*
%TO.C,Q5*%
X142112500Y-118020000D03*
X142112500Y-116120000D03*
X143987500Y-117070000D03*
%TD*%
D38*
%TO.C,D39*%
X180440000Y-94260000D03*
X177940000Y-94260000D03*
%TD*%
D51*
%TO.C,R25*%
X139550000Y-118830000D03*
X139550000Y-117810000D03*
%TD*%
D29*
%TO.C,R18*%
X152760000Y-119040000D03*
X151740000Y-119040000D03*
%TD*%
D38*
%TO.C,D38*%
X166090000Y-94310000D03*
X168590000Y-94310000D03*
%TD*%
%TO.C,D13*%
X167490000Y-126200000D03*
X169990000Y-126200000D03*
%TD*%
D45*
%TO.C,C24*%
X165190000Y-101220000D03*
X164230000Y-101220000D03*
%TD*%
D29*
%TO.C,R34*%
X189060000Y-127070000D03*
X188040000Y-127070000D03*
%TD*%
D64*
%TO.C,C8*%
X151325000Y-110570000D03*
X149775000Y-110570000D03*
%TD*%
M02*
