%TF.GenerationSoftware,KiCad,Pcbnew,(6.0.11)*%
%TF.CreationDate,2024-02-29T08:23:56+09:00*%
%TF.ProjectId,Mother_Ctrl,4d6f7468-6572-45f4-9374-726c2e6b6963,rev?*%
%TF.SameCoordinates,Original*%
%TF.FileFunction,Soldermask,Top*%
%TF.FilePolarity,Negative*%
%FSLAX46Y46*%
G04 Gerber Fmt 4.6, Leading zero omitted, Abs format (unit mm)*
G04 Created by KiCad (PCBNEW (6.0.11)) date 2024-02-29 08:23:56*
%MOMM*%
%LPD*%
G01*
G04 APERTURE LIST*
G04 Aperture macros list*
%AMRoundRect*
0 Rectangle with rounded corners*
0 $1 Rounding radius*
0 $2 $3 $4 $5 $6 $7 $8 $9 X,Y pos of 4 corners*
0 Add a 4 corners polygon primitive as box body*
4,1,4,$2,$3,$4,$5,$6,$7,$8,$9,$2,$3,0*
0 Add four circle primitives for the rounded corners*
1,1,$1+$1,$2,$3*
1,1,$1+$1,$4,$5*
1,1,$1+$1,$6,$7*
1,1,$1+$1,$8,$9*
0 Add four rect primitives between the rounded corners*
20,1,$1+$1,$2,$3,$4,$5,0*
20,1,$1+$1,$4,$5,$6,$7,0*
20,1,$1+$1,$6,$7,$8,$9,0*
20,1,$1+$1,$8,$9,$2,$3,0*%
%AMHorizOval*
0 Thick line with rounded ends*
0 $1 width*
0 $2 $3 position (X,Y) of the first rounded end (center of the circle)*
0 $4 $5 position (X,Y) of the second rounded end (center of the circle)*
0 Add line between two ends*
20,1,$1,$2,$3,$4,$5,0*
0 Add two circle primitives to create the rounded ends*
1,1,$1,$2,$3*
1,1,$1,$4,$5*%
%AMFreePoly0*
4,1,53,0.885000,-2.035000,0.700000,-2.035000,0.700000,-3.665000,0.695106,-3.680063,0.695106,-3.695902,0.685796,-3.708716,0.680902,-3.723779,0.668089,-3.733089,0.658779,-3.745902,0.643716,-3.750796,0.630902,-3.760106,0.615063,-3.760106,0.600000,-3.765000,-0.600000,-3.765000,-0.615063,-3.760106,-0.630902,-3.760106,-0.643716,-3.750796,-0.658779,-3.745902,-0.668089,-3.733089,-0.680902,-3.723779,
-0.685796,-3.708716,-0.695106,-3.695902,-0.695106,-3.680063,-0.700000,-3.665000,-0.700000,-2.035000,-0.885000,-2.035000,-0.885000,0.450000,-2.515000,0.450000,-2.530063,0.454894,-2.545902,0.454894,-2.558716,0.464204,-2.573779,0.469098,-2.583089,0.481911,-2.595902,0.491221,-2.600796,0.506284,-2.610106,0.519098,-2.610106,0.534937,-2.615000,0.550000,-2.615000,1.750000,-2.610106,1.765063,
-2.610106,1.780902,-2.600796,1.793716,-2.595902,1.808779,-2.583089,1.818089,-2.573779,1.830902,-2.558716,1.835796,-2.545902,1.845106,-2.530063,1.845106,-2.515000,1.850000,-0.885000,1.850000,-0.885000,2.035000,0.885000,2.035000,0.885000,-2.035000,0.885000,-2.035000,$1*%
%AMFreePoly1*
4,1,53,-0.534937,2.610106,-0.519098,2.610106,-0.506284,2.600796,-0.491221,2.595902,-0.481911,2.583089,-0.469098,2.573779,-0.464204,2.558716,-0.454894,2.545902,-0.454894,2.530063,-0.450000,2.515000,-0.450000,0.885000,0.450000,0.885000,0.450000,2.515000,0.454894,2.530063,0.454894,2.545902,0.464204,2.558716,0.469098,2.573779,0.481911,2.583089,0.491221,2.595902,0.506284,2.600796,
0.519098,2.610106,0.534937,2.610106,0.550000,2.615000,1.750000,2.615000,1.765063,2.610106,1.780902,2.610106,1.793716,2.600796,1.808779,2.595902,1.818089,2.583089,1.830902,2.573779,1.835796,2.558716,1.845106,2.545902,1.845106,2.530063,1.850000,2.515000,1.850000,0.885000,2.035000,0.885000,2.035000,-0.885000,-2.035000,-0.885000,-2.035000,0.885000,-1.850000,0.885000,
-1.850000,2.515000,-1.845106,2.530063,-1.845106,2.545902,-1.835796,2.558716,-1.830902,2.573779,-1.818089,2.583089,-1.808779,2.595902,-1.793716,2.600796,-1.780902,2.610106,-1.765063,2.610106,-1.750000,2.615000,-0.550000,2.615000,-0.534937,2.610106,-0.534937,2.610106,$1*%
%AMFreePoly2*
4,1,29,0.885000,1.850000,2.515000,1.850000,2.530063,1.845106,2.545902,1.845106,2.558716,1.835796,2.573779,1.830902,2.583089,1.818089,2.595902,1.808779,2.600796,1.793716,2.610106,1.780902,2.610106,1.765063,2.615000,1.750000,2.615000,0.550000,2.610106,0.534937,2.610106,0.519098,2.600796,0.506284,2.595902,0.491221,2.583089,0.481911,2.573779,0.469098,2.558716,0.464204,
2.545902,0.454894,2.530063,0.454894,2.515000,0.450000,0.885000,0.450000,0.885000,-2.035000,-0.885000,-2.035000,-0.885000,2.035000,0.885000,2.035000,0.885000,1.850000,0.885000,1.850000,$1*%
G04 Aperture macros list end*
%ADD10RoundRect,0.237500X-0.287500X-0.237500X0.287500X-0.237500X0.287500X0.237500X-0.287500X0.237500X0*%
%ADD11R,0.740000X3.250000*%
%ADD12RoundRect,0.250000X0.675000X-0.600000X0.675000X0.600000X-0.675000X0.600000X-0.675000X-0.600000X0*%
%ADD13O,1.850000X1.700000*%
%ADD14R,1.700000X1.700000*%
%ADD15O,1.700000X1.700000*%
%ADD16RoundRect,0.237500X-0.237500X0.287500X-0.237500X-0.287500X0.237500X-0.287500X0.237500X0.287500X0*%
%ADD17RoundRect,0.250000X0.600000X0.675000X-0.600000X0.675000X-0.600000X-0.675000X0.600000X-0.675000X0*%
%ADD18O,1.700000X1.850000*%
%ADD19C,1.400000*%
%ADD20R,3.500000X3.500000*%
%ADD21C,3.500000*%
%ADD22RoundRect,0.250001X1.999999X0.799999X-1.999999X0.799999X-1.999999X-0.799999X1.999999X-0.799999X0*%
%ADD23R,1.400000X1.400000*%
%ADD24RoundRect,0.237500X0.287500X0.237500X-0.287500X0.237500X-0.287500X-0.237500X0.287500X-0.237500X0*%
%ADD25R,1.050000X0.650000*%
%ADD26RoundRect,0.200000X-0.275000X0.200000X-0.275000X-0.200000X0.275000X-0.200000X0.275000X0.200000X0*%
%ADD27R,3.400000X2.600000*%
%ADD28R,1.500000X2.000000*%
%ADD29RoundRect,0.250000X0.250000X0.475000X-0.250000X0.475000X-0.250000X-0.475000X0.250000X-0.475000X0*%
%ADD30RoundRect,0.250000X-0.250000X-0.475000X0.250000X-0.475000X0.250000X0.475000X-0.250000X0.475000X0*%
%ADD31R,2.200000X1.200000*%
%ADD32R,6.400000X5.800000*%
%ADD33RoundRect,0.381000X-0.381000X-0.381000X0.381000X-0.381000X0.381000X0.381000X-0.381000X0.381000X0*%
%ADD34C,1.524000*%
%ADD35R,3.000000X1.200000*%
%ADD36FreePoly0,270.000000*%
%ADD37FreePoly1,0.000000*%
%ADD38FreePoly2,0.000000*%
%ADD39R,1.200000X3.000000*%
%ADD40R,1.500000X1.200000*%
%ADD41RoundRect,0.250000X-0.675000X0.600000X-0.675000X-0.600000X0.675000X-0.600000X0.675000X0.600000X0*%
%ADD42R,1.200000X2.200000*%
%ADD43R,5.800000X6.400000*%
%ADD44HorizOval,3.100000X0.424264X-0.424264X-0.424264X0.424264X0*%
%ADD45O,1.400000X0.900000*%
%ADD46O,0.900000X1.400000*%
%ADD47O,0.900000X1.200000*%
%ADD48RoundRect,0.250001X-0.799999X1.999999X-0.799999X-1.999999X0.799999X-1.999999X0.799999X1.999999X0*%
%ADD49C,1.700000*%
%ADD50RoundRect,0.425000X0.425000X0.425000X-0.425000X0.425000X-0.425000X-0.425000X0.425000X-0.425000X0*%
%ADD51C,2.000000*%
%ADD52C,0.650000*%
%ADD53O,1.000000X1.800000*%
%ADD54O,1.000000X2.100000*%
G04 APERTURE END LIST*
D10*
%TO.C,D26*%
X164425000Y-113070000D03*
X166175000Y-113070000D03*
%TD*%
D11*
%TO.C,J5*%
X186840000Y-128945000D03*
X186840000Y-133695000D03*
X185570000Y-128945000D03*
X185570000Y-133695000D03*
X184300000Y-128945000D03*
X184300000Y-133695000D03*
X183030000Y-128945000D03*
X183030000Y-133695000D03*
X181760000Y-128945000D03*
X181760000Y-133695000D03*
%TD*%
D10*
%TO.C,D6*%
X151515000Y-117290000D03*
X153265000Y-117290000D03*
%TD*%
D12*
%TO.C,J10*%
X193650000Y-124320000D03*
D13*
X193650000Y-121820000D03*
X193650000Y-119320000D03*
X193650000Y-116820000D03*
%TD*%
D14*
%TO.C,J16*%
X189050000Y-92070000D03*
D15*
X186510000Y-92070000D03*
X183970000Y-92070000D03*
X181430000Y-92070000D03*
X178890000Y-92070000D03*
X176350000Y-92070000D03*
X173810000Y-92070000D03*
X171270000Y-92070000D03*
X168730000Y-92070000D03*
X166190000Y-92070000D03*
X163650000Y-92070000D03*
X161110000Y-92070000D03*
%TD*%
D16*
%TO.C,D29*%
X158920000Y-132095000D03*
X158920000Y-133845000D03*
%TD*%
D17*
%TO.C,J6*%
X187650000Y-83370000D03*
D18*
X185150000Y-83370000D03*
%TD*%
D19*
%TO.C,J2*%
X119800000Y-126170000D03*
X130800000Y-126170000D03*
D20*
X127800000Y-121170000D03*
D21*
X122800000Y-121170000D03*
%TD*%
D17*
%TO.C,J12*%
X159790000Y-83260000D03*
D18*
X157290000Y-83260000D03*
X154790000Y-83260000D03*
X152290000Y-83260000D03*
%TD*%
D22*
%TO.C,C21*%
X128350000Y-89820000D03*
X121150000Y-89820000D03*
%TD*%
D10*
%TO.C,D7*%
X151525000Y-119040000D03*
X153275000Y-119040000D03*
%TD*%
D23*
%TO.C,SW4*%
X174070000Y-133100000D03*
D19*
X171570000Y-133100000D03*
X169070000Y-133100000D03*
X174070000Y-129800000D03*
X171570000Y-129800000D03*
X169070000Y-129800000D03*
%TD*%
D10*
%TO.C,D3*%
X155815000Y-126230000D03*
X157565000Y-126230000D03*
%TD*%
D24*
%TO.C,D23*%
X169675000Y-113070000D03*
X167925000Y-113070000D03*
%TD*%
D14*
%TO.C,JP1*%
X198825000Y-111810000D03*
D15*
X196285000Y-111810000D03*
%TD*%
D17*
%TO.C,J14*%
X125550000Y-83470000D03*
D18*
X123050000Y-83470000D03*
X120550000Y-83470000D03*
X118050000Y-83470000D03*
X115550000Y-83470000D03*
%TD*%
D10*
%TO.C,D8*%
X151525000Y-120790000D03*
X153275000Y-120790000D03*
%TD*%
D25*
%TO.C,SW2*%
X150225000Y-113245000D03*
X154375000Y-113245000D03*
X154350000Y-115395000D03*
X150225000Y-115395000D03*
%TD*%
D10*
%TO.C,D25*%
X164425000Y-111320000D03*
X166175000Y-111320000D03*
%TD*%
D12*
%TO.C,J7*%
X193650000Y-93070000D03*
D13*
X193650000Y-90570000D03*
X193650000Y-88070000D03*
%TD*%
D14*
%TO.C,J15*%
X189050000Y-88070000D03*
D15*
X186510000Y-88070000D03*
X183970000Y-88070000D03*
X181430000Y-88070000D03*
X178890000Y-88070000D03*
X176350000Y-88070000D03*
X173810000Y-88070000D03*
X171270000Y-88070000D03*
X168730000Y-88070000D03*
X166190000Y-88070000D03*
X163650000Y-88070000D03*
X161110000Y-88070000D03*
%TD*%
D26*
%TO.C,R64*%
X132740000Y-110965000D03*
X132740000Y-112615000D03*
%TD*%
D22*
%TO.C,C20*%
X118650000Y-102570000D03*
X111450000Y-102570000D03*
%TD*%
D27*
%TO.C,D4*%
X126010000Y-96820000D03*
D28*
X122790000Y-96820000D03*
%TD*%
D19*
%TO.C,J1*%
X104975000Y-109070000D03*
X104975000Y-120070000D03*
D20*
X114975000Y-112070000D03*
D21*
X114975000Y-117070000D03*
%TD*%
D16*
%TO.C,D27*%
X155420000Y-132095000D03*
X155420000Y-133845000D03*
%TD*%
D14*
%TO.C,JP2*%
X147300000Y-80845001D03*
D15*
X147300000Y-78305001D03*
%TD*%
D29*
%TO.C,C10*%
X141185000Y-89920000D03*
X139285000Y-89920000D03*
%TD*%
D30*
%TO.C,C7*%
X134785000Y-89920000D03*
X136685000Y-89920000D03*
%TD*%
D16*
%TO.C,D28*%
X157170000Y-132095000D03*
X157170000Y-133845000D03*
%TD*%
D25*
%TO.C,SW6*%
X169125000Y-114825000D03*
X164975000Y-114825000D03*
X169100000Y-116975000D03*
X164975000Y-116975000D03*
%TD*%
D22*
%TO.C,C23*%
X152900000Y-90070000D03*
X145700000Y-90070000D03*
%TD*%
D17*
%TO.C,J11*%
X142290000Y-83310000D03*
D18*
X139790000Y-83310000D03*
X137290000Y-83310000D03*
X134790000Y-83310000D03*
%TD*%
D31*
%TO.C,Q1*%
X127850000Y-116550000D03*
D32*
X121550000Y-114270000D03*
D31*
X127850000Y-111990000D03*
%TD*%
D33*
%TO.C,SW5*%
X159550000Y-114570000D03*
D34*
X159550000Y-117110000D03*
X159550000Y-119650000D03*
%TD*%
D35*
%TO.C,MD1*%
X131200000Y-98570000D03*
D36*
X133365000Y-93985000D03*
D37*
X137945000Y-93985000D03*
D38*
X141385000Y-95135000D03*
D35*
X142400000Y-98570000D03*
X142400000Y-103150000D03*
D39*
X136800000Y-104170000D03*
X134510000Y-104170000D03*
D35*
X131200000Y-103150000D03*
X131200000Y-100860000D03*
D40*
X143150000Y-100860000D03*
D39*
X139090000Y-104170000D03*
%TD*%
D25*
%TO.C,SW7*%
X164975000Y-121145000D03*
X169125000Y-121145000D03*
X165000000Y-118995000D03*
X169125000Y-118995000D03*
%TD*%
%TO.C,SW3*%
X154375000Y-111395000D03*
X150225000Y-111395000D03*
X150250000Y-109245000D03*
X154375000Y-109245000D03*
%TD*%
D17*
%TO.C,J8*%
X174400000Y-83370000D03*
D18*
X171900000Y-83370000D03*
X169400000Y-83370000D03*
%TD*%
D41*
%TO.C,J13*%
X108450000Y-88070000D03*
D13*
X108450000Y-90570000D03*
X108450000Y-93070000D03*
X108450000Y-95570000D03*
X108450000Y-98070000D03*
%TD*%
D42*
%TO.C,Q3*%
X122770000Y-109020000D03*
D43*
X125050000Y-102720000D03*
D42*
X127330000Y-109020000D03*
%TD*%
D12*
%TO.C,J9*%
X193650000Y-106820000D03*
D13*
X193650000Y-104320000D03*
X193650000Y-101820000D03*
X193650000Y-99320000D03*
%TD*%
D44*
%TO.C,U2*%
X137600000Y-110920000D03*
D45*
X134565000Y-110375000D03*
X134565000Y-111645000D03*
X134565000Y-112915000D03*
X134565000Y-114185000D03*
X134565000Y-115455000D03*
X134565000Y-116725000D03*
X134565000Y-117995000D03*
X134565000Y-119265000D03*
D46*
X136855000Y-121555000D03*
X138125000Y-121555000D03*
X139395000Y-121555000D03*
X140665000Y-121555000D03*
X141935000Y-121555000D03*
X143205000Y-121555000D03*
X144475000Y-121555000D03*
X145745000Y-121555000D03*
D45*
X148035000Y-119265000D03*
X148035000Y-117995000D03*
X148035000Y-116725000D03*
X148035000Y-115455000D03*
X148035000Y-114185000D03*
X148035000Y-112915000D03*
X148035000Y-111645000D03*
X148035000Y-110375000D03*
D46*
X145745000Y-108085000D03*
X144475000Y-108085000D03*
X143205000Y-108085000D03*
X141935000Y-108085000D03*
X140665000Y-108085000D03*
X139395000Y-108085000D03*
D47*
X138125000Y-107985000D03*
X136855000Y-107985000D03*
%TD*%
D48*
%TO.C,C22*%
X149300000Y-97220000D03*
X149300000Y-104420000D03*
%TD*%
D14*
%TO.C,J17*%
X189050000Y-124070000D03*
D15*
X186510000Y-124070000D03*
X183970000Y-124070000D03*
X181430000Y-124070000D03*
X178890000Y-124070000D03*
X176350000Y-124070000D03*
X173810000Y-124070000D03*
X171270000Y-124070000D03*
X168730000Y-124070000D03*
X166190000Y-124070000D03*
X163650000Y-124070000D03*
X161110000Y-124070000D03*
%TD*%
D14*
%TO.C,J4*%
X135400000Y-125420000D03*
D15*
X137940000Y-125420000D03*
X140480000Y-125420000D03*
X143020000Y-125420000D03*
X145560000Y-125420000D03*
X148100000Y-125420000D03*
X150640000Y-125420000D03*
%TD*%
D34*
%TO.C,U5*%
X182209999Y-110050002D03*
X189829999Y-110050002D03*
X182209999Y-107510002D03*
X189829999Y-115130002D03*
X189829999Y-112590002D03*
X182209999Y-115130002D03*
X182209999Y-112590002D03*
X189829999Y-107510002D03*
%TD*%
D42*
%TO.C,Q29*%
X112520000Y-95770000D03*
D43*
X114800000Y-89470000D03*
D42*
X117080000Y-95770000D03*
%TD*%
D49*
%TO.C,SW1*%
X114300000Y-122990000D03*
X114300000Y-133150000D03*
D50*
X114300000Y-130610000D03*
D49*
X114300000Y-128070000D03*
X114300000Y-125530000D03*
%TD*%
D51*
%TO.C,TP5*%
X104900000Y-125970000D03*
%TD*%
D16*
%TO.C,D30*%
X160670000Y-132095000D03*
X160670000Y-133845000D03*
%TD*%
D24*
%TO.C,D22*%
X169675000Y-111320000D03*
X167925000Y-111320000D03*
%TD*%
D52*
%TO.C,J3*%
X160940000Y-129265000D03*
X155160000Y-129265000D03*
D53*
X153730000Y-132945000D03*
D54*
X162370000Y-128745000D03*
D53*
X162370000Y-132945000D03*
D54*
X153730000Y-128745000D03*
%TD*%
M02*
