%TF.GenerationSoftware,KiCad,Pcbnew,(6.0.11)*%
%TF.CreationDate,2024-02-29T08:23:56+09:00*%
%TF.ProjectId,Mother_Ctrl,4d6f7468-6572-45f4-9374-726c2e6b6963,rev?*%
%TF.SameCoordinates,Original*%
%TF.FileFunction,Paste,Top*%
%TF.FilePolarity,Positive*%
%FSLAX46Y46*%
G04 Gerber Fmt 4.6, Leading zero omitted, Abs format (unit mm)*
G04 Created by KiCad (PCBNEW (6.0.11)) date 2024-02-29 08:23:56*
%MOMM*%
%LPD*%
G01*
G04 APERTURE LIST*
G04 Aperture macros list*
%AMRoundRect*
0 Rectangle with rounded corners*
0 $1 Rounding radius*
0 $2 $3 $4 $5 $6 $7 $8 $9 X,Y pos of 4 corners*
0 Add a 4 corners polygon primitive as box body*
4,1,4,$2,$3,$4,$5,$6,$7,$8,$9,$2,$3,0*
0 Add four circle primitives for the rounded corners*
1,1,$1+$1,$2,$3*
1,1,$1+$1,$4,$5*
1,1,$1+$1,$6,$7*
1,1,$1+$1,$8,$9*
0 Add four rect primitives between the rounded corners*
20,1,$1+$1,$2,$3,$4,$5,0*
20,1,$1+$1,$4,$5,$6,$7,0*
20,1,$1+$1,$6,$7,$8,$9,0*
20,1,$1+$1,$8,$9,$2,$3,0*%
%AMFreePoly0*
4,1,53,0.885000,-2.035000,0.700000,-2.035000,0.700000,-3.665000,0.695106,-3.680063,0.695106,-3.695902,0.685796,-3.708716,0.680902,-3.723779,0.668089,-3.733089,0.658779,-3.745902,0.643716,-3.750796,0.630902,-3.760106,0.615063,-3.760106,0.600000,-3.765000,-0.600000,-3.765000,-0.615063,-3.760106,-0.630902,-3.760106,-0.643716,-3.750796,-0.658779,-3.745902,-0.668089,-3.733089,-0.680902,-3.723779,
-0.685796,-3.708716,-0.695106,-3.695902,-0.695106,-3.680063,-0.700000,-3.665000,-0.700000,-2.035000,-0.885000,-2.035000,-0.885000,0.450000,-2.515000,0.450000,-2.530063,0.454894,-2.545902,0.454894,-2.558716,0.464204,-2.573779,0.469098,-2.583089,0.481911,-2.595902,0.491221,-2.600796,0.506284,-2.610106,0.519098,-2.610106,0.534937,-2.615000,0.550000,-2.615000,1.750000,-2.610106,1.765063,
-2.610106,1.780902,-2.600796,1.793716,-2.595902,1.808779,-2.583089,1.818089,-2.573779,1.830902,-2.558716,1.835796,-2.545902,1.845106,-2.530063,1.845106,-2.515000,1.850000,-0.885000,1.850000,-0.885000,2.035000,0.885000,2.035000,0.885000,-2.035000,0.885000,-2.035000,$1*%
%AMFreePoly1*
4,1,53,-0.534937,2.610106,-0.519098,2.610106,-0.506284,2.600796,-0.491221,2.595902,-0.481911,2.583089,-0.469098,2.573779,-0.464204,2.558716,-0.454894,2.545902,-0.454894,2.530063,-0.450000,2.515000,-0.450000,0.885000,0.450000,0.885000,0.450000,2.515000,0.454894,2.530063,0.454894,2.545902,0.464204,2.558716,0.469098,2.573779,0.481911,2.583089,0.491221,2.595902,0.506284,2.600796,
0.519098,2.610106,0.534937,2.610106,0.550000,2.615000,1.750000,2.615000,1.765063,2.610106,1.780902,2.610106,1.793716,2.600796,1.808779,2.595902,1.818089,2.583089,1.830902,2.573779,1.835796,2.558716,1.845106,2.545902,1.845106,2.530063,1.850000,2.515000,1.850000,0.885000,2.035000,0.885000,2.035000,-0.885000,-2.035000,-0.885000,-2.035000,0.885000,-1.850000,0.885000,
-1.850000,2.515000,-1.845106,2.530063,-1.845106,2.545902,-1.835796,2.558716,-1.830902,2.573779,-1.818089,2.583089,-1.808779,2.595902,-1.793716,2.600796,-1.780902,2.610106,-1.765063,2.610106,-1.750000,2.615000,-0.550000,2.615000,-0.534937,2.610106,-0.534937,2.610106,$1*%
%AMFreePoly2*
4,1,29,0.885000,1.850000,2.515000,1.850000,2.530063,1.845106,2.545902,1.845106,2.558716,1.835796,2.573779,1.830902,2.583089,1.818089,2.595902,1.808779,2.600796,1.793716,2.610106,1.780902,2.610106,1.765063,2.615000,1.750000,2.615000,0.550000,2.610106,0.534937,2.610106,0.519098,2.600796,0.506284,2.595902,0.491221,2.583089,0.481911,2.573779,0.469098,2.558716,0.464204,
2.545902,0.454894,2.530063,0.454894,2.515000,0.450000,0.885000,0.450000,0.885000,-2.035000,-0.885000,-2.035000,-0.885000,2.035000,0.885000,2.035000,0.885000,1.850000,0.885000,1.850000,$1*%
G04 Aperture macros list end*
%ADD10RoundRect,0.237500X-0.287500X-0.237500X0.287500X-0.237500X0.287500X0.237500X-0.287500X0.237500X0*%
%ADD11R,0.740000X3.250000*%
%ADD12RoundRect,0.237500X-0.237500X0.287500X-0.237500X-0.287500X0.237500X-0.287500X0.237500X0.287500X0*%
%ADD13RoundRect,0.250001X1.999999X0.799999X-1.999999X0.799999X-1.999999X-0.799999X1.999999X-0.799999X0*%
%ADD14RoundRect,0.237500X0.287500X0.237500X-0.287500X0.237500X-0.287500X-0.237500X0.287500X-0.237500X0*%
%ADD15R,1.050000X0.650000*%
%ADD16RoundRect,0.200000X-0.275000X0.200000X-0.275000X-0.200000X0.275000X-0.200000X0.275000X0.200000X0*%
%ADD17R,3.400000X2.600000*%
%ADD18R,1.500000X2.000000*%
%ADD19RoundRect,0.250000X0.250000X0.475000X-0.250000X0.475000X-0.250000X-0.475000X0.250000X-0.475000X0*%
%ADD20RoundRect,0.250000X-0.250000X-0.475000X0.250000X-0.475000X0.250000X0.475000X-0.250000X0.475000X0*%
%ADD21R,3.050000X2.750000*%
%ADD22R,2.200000X1.200000*%
%ADD23R,3.000000X1.200000*%
%ADD24FreePoly0,270.000000*%
%ADD25FreePoly1,0.000000*%
%ADD26FreePoly2,0.000000*%
%ADD27R,1.200000X3.000000*%
%ADD28R,1.500000X1.200000*%
%ADD29R,2.750000X3.050000*%
%ADD30R,1.200000X2.200000*%
%ADD31O,1.400000X0.900000*%
%ADD32O,0.900000X1.400000*%
%ADD33O,0.900000X1.200000*%
%ADD34RoundRect,0.250001X-0.799999X1.999999X-0.799999X-1.999999X0.799999X-1.999999X0.799999X1.999999X0*%
G04 APERTURE END LIST*
D10*
%TO.C,D26*%
X164425000Y-113070000D03*
X166175000Y-113070000D03*
%TD*%
D11*
%TO.C,J5*%
X186840000Y-128945000D03*
X186840000Y-133695000D03*
X185570000Y-128945000D03*
X185570000Y-133695000D03*
X184300000Y-128945000D03*
X184300000Y-133695000D03*
X183030000Y-128945000D03*
X183030000Y-133695000D03*
X181760000Y-128945000D03*
X181760000Y-133695000D03*
%TD*%
D10*
%TO.C,D6*%
X151515000Y-117290000D03*
X153265000Y-117290000D03*
%TD*%
D12*
%TO.C,D29*%
X158920000Y-132095000D03*
X158920000Y-133845000D03*
%TD*%
D13*
%TO.C,C21*%
X128350000Y-89820000D03*
X121150000Y-89820000D03*
%TD*%
D10*
%TO.C,D7*%
X151525000Y-119040000D03*
X153275000Y-119040000D03*
%TD*%
%TO.C,D3*%
X155815000Y-126230000D03*
X157565000Y-126230000D03*
%TD*%
D14*
%TO.C,D23*%
X169675000Y-113070000D03*
X167925000Y-113070000D03*
%TD*%
D10*
%TO.C,D8*%
X151525000Y-120790000D03*
X153275000Y-120790000D03*
%TD*%
D15*
%TO.C,SW2*%
X150225000Y-113245000D03*
X154375000Y-113245000D03*
X154350000Y-115395000D03*
X150225000Y-115395000D03*
%TD*%
D10*
%TO.C,D25*%
X164425000Y-111320000D03*
X166175000Y-111320000D03*
%TD*%
D16*
%TO.C,R64*%
X132740000Y-110965000D03*
X132740000Y-112615000D03*
%TD*%
D13*
%TO.C,C20*%
X118650000Y-102570000D03*
X111450000Y-102570000D03*
%TD*%
D17*
%TO.C,D4*%
X126010000Y-96820000D03*
D18*
X122790000Y-96820000D03*
%TD*%
D12*
%TO.C,D27*%
X155420000Y-132095000D03*
X155420000Y-133845000D03*
%TD*%
D19*
%TO.C,C10*%
X141185000Y-89920000D03*
X139285000Y-89920000D03*
%TD*%
D20*
%TO.C,C7*%
X134785000Y-89920000D03*
X136685000Y-89920000D03*
%TD*%
D12*
%TO.C,D28*%
X157170000Y-132095000D03*
X157170000Y-133845000D03*
%TD*%
D15*
%TO.C,SW6*%
X169125000Y-114825000D03*
X164975000Y-114825000D03*
X169100000Y-116975000D03*
X164975000Y-116975000D03*
%TD*%
D13*
%TO.C,C23*%
X152900000Y-90070000D03*
X145700000Y-90070000D03*
%TD*%
D21*
%TO.C,Q1*%
X123225000Y-112745000D03*
X119875000Y-112745000D03*
X123225000Y-115795000D03*
X119875000Y-115795000D03*
D22*
X127850000Y-116550000D03*
X127850000Y-111990000D03*
%TD*%
D23*
%TO.C,MD1*%
X131200000Y-98570000D03*
D24*
X133365000Y-93985000D03*
D25*
X137945000Y-93985000D03*
D26*
X141385000Y-95135000D03*
D23*
X142400000Y-98570000D03*
X142400000Y-103150000D03*
D27*
X136800000Y-104170000D03*
X134510000Y-104170000D03*
D23*
X131200000Y-103150000D03*
X131200000Y-100860000D03*
D28*
X143150000Y-100860000D03*
D27*
X139090000Y-104170000D03*
%TD*%
D15*
%TO.C,SW7*%
X164975000Y-121145000D03*
X169125000Y-121145000D03*
X165000000Y-118995000D03*
X169125000Y-118995000D03*
%TD*%
%TO.C,SW3*%
X154375000Y-111395000D03*
X150225000Y-111395000D03*
X150250000Y-109245000D03*
X154375000Y-109245000D03*
%TD*%
D29*
%TO.C,Q3*%
X126575000Y-101045000D03*
X126575000Y-104395000D03*
X123525000Y-101045000D03*
X123525000Y-104395000D03*
D30*
X122770000Y-109020000D03*
X127330000Y-109020000D03*
%TD*%
D31*
%TO.C,U2*%
X134565000Y-110375000D03*
X134565000Y-111645000D03*
X134565000Y-112915000D03*
X134565000Y-114185000D03*
X134565000Y-115455000D03*
X134565000Y-116725000D03*
X134565000Y-117995000D03*
X134565000Y-119265000D03*
D32*
X136855000Y-121555000D03*
X138125000Y-121555000D03*
X139395000Y-121555000D03*
X140665000Y-121555000D03*
X141935000Y-121555000D03*
X143205000Y-121555000D03*
X144475000Y-121555000D03*
X145745000Y-121555000D03*
D31*
X148035000Y-119265000D03*
X148035000Y-117995000D03*
X148035000Y-116725000D03*
X148035000Y-115455000D03*
X148035000Y-114185000D03*
X148035000Y-112915000D03*
X148035000Y-111645000D03*
X148035000Y-110375000D03*
D32*
X145745000Y-108085000D03*
X144475000Y-108085000D03*
X143205000Y-108085000D03*
X141935000Y-108085000D03*
X140665000Y-108085000D03*
X139395000Y-108085000D03*
D33*
X138125000Y-107985000D03*
X136855000Y-107985000D03*
%TD*%
D34*
%TO.C,C22*%
X149300000Y-97220000D03*
X149300000Y-104420000D03*
%TD*%
D29*
%TO.C,Q29*%
X116325000Y-91145000D03*
X113275000Y-91145000D03*
X113275000Y-87795000D03*
X116325000Y-87795000D03*
D30*
X112520000Y-95770000D03*
X117080000Y-95770000D03*
%TD*%
D12*
%TO.C,D30*%
X160670000Y-132095000D03*
X160670000Y-133845000D03*
%TD*%
D14*
%TO.C,D22*%
X169675000Y-111320000D03*
X167925000Y-111320000D03*
%TD*%
M02*
