M48
; DRILL file {KiCad (6.0.11)} date Thu Feb 29 08:23:56 2024
; FORMAT={-:-/ absolute / inch / decimal}
; #@! TF.CreationDate,2024-02-29T08:23:56+09:00
; #@! TF.GenerationSoftware,Kicad,Pcbnew,(6.0.11)
; #@! TF.FileFunction,Plated,1,2,PTH
FMAT,2
INCH
; #@! TA.AperFunction,Plated,PTH,ViaDrill
T1C0.0118
; #@! TA.AperFunction,Plated,PTH,ViaDrill
T2C0.0157
; #@! TA.AperFunction,Plated,PTH,ViaDrill
T3C0.0236
; #@! TA.AperFunction,Plated,PTH,ComponentDrill
T4C0.0236
; #@! TA.AperFunction,Plated,PTH,ComponentDrill
T5C0.0256
; #@! TA.AperFunction,Plated,PTH,ComponentDrill
T6C0.0300
; #@! TA.AperFunction,Plated,PTH,ComponentDrill
T7C0.0335
; #@! TA.AperFunction,Plated,PTH,ComponentDrill
T8C0.0354
; #@! TA.AperFunction,Plated,PTH,ComponentDrill
T9C0.0394
; #@! TA.AperFunction,Plated,PTH,ComponentDrill
T10C0.0433
; #@! TA.AperFunction,Plated,PTH,ComponentDrill
T11C0.0748
%
G90
G05
T1
X4.2634Y-3.9319
X4.2957Y-3.4122
X4.3307Y-5.022
X4.3315Y-3.365
X4.3382Y-3.8508
X4.3445Y-4.8563
X4.3768Y-3.7898
X4.3768Y-5.0638
X4.3772Y-3.3177
X4.4209Y-3.8457
X4.4291Y-3.7992
X4.4559Y-4.8913
X4.6866Y-3.1925
X4.8335Y-4.2921
X4.8343Y-3.8118
X4.9618Y-3.4654
X5.0335Y-4.4091
X5.0343Y-3.152
X5.0571Y-3.4618
X5.0642Y-3.2583
X5.0984Y-3.1762
X5.1307Y-4.9106
X5.1339Y-3.213
X5.1543Y-3.3488
X5.1551Y-3.4529
X5.1571Y-4.5386
X5.1634Y-4.6472
X5.1654Y-3.9709
X5.204Y-3.2863
X5.2197Y-4.5846
X5.222Y-4.5102
X5.2425Y-3.4529
X5.2465Y-4.7142
X5.2506Y-3.7002
X5.2728Y-4.7402
X5.2839Y-3.3545
X5.2988Y-4.6461
X5.3185Y-3.4038
X5.3428Y-4.5326
X5.3539Y-4.4909
X5.3871Y-4.0213
X5.4311Y-3.4037
X5.4327Y-4.0889
X5.4506Y-4.7898
X5.4839Y-3.3545
X5.4898Y-4.7874
X5.5135Y-4.6654
X5.5205Y-4.7343
X5.5217Y-4.1051
X5.5217Y-4.1287
X5.538Y-4.7856
X5.5453Y-4.1051
X5.5453Y-4.1287
X5.5453Y-4.1524
X5.5642Y-4.7346
X5.5689Y-4.1051
X5.5689Y-4.1287
X5.5689Y-4.1524
X5.5689Y-4.176
X5.5807Y-3.4038
X5.5881Y-3.9397
X5.5906Y-4.1642
X5.5906Y-4.1878
X5.5906Y-4.1169
X5.5906Y-4.1406
X5.6165Y-4.7287
X5.6264Y-4.5381
X5.6732Y-3.3545
X5.688Y-4.7852
X5.7157Y-3.4037
X5.7224Y-3.7469
X5.738Y-4.7856
X5.7835Y-4.6193
X5.7874Y-5.2709
X5.7887Y-4.4693
X5.7933Y-3.6839
X5.7933Y-3.7232
X5.8169Y-3.6839
X5.8169Y-3.7232
X5.8169Y-4.1835
X5.8346Y-3.4051
X5.8406Y-3.6839
X5.8512Y-3.3537
X5.8563Y-3.7035
X5.8706Y-4.4637
X5.8709Y-4.6209
X5.8752Y-3.2047
X5.8858Y-5.2717
X5.8888Y-3.0738
X5.8906Y-5.3246
X5.8975Y-4.5943
X5.9374Y-4.6854
X5.939Y-3.2106
X5.9394Y-3.2465
X5.9449Y-4.6228
X5.9738Y-4.4585
X5.9976Y-4.9366
X6.028Y-5.3246
X6.0344Y-4.6866
X6.0344Y-4.7555
X6.0364Y-4.6177
X6.0427Y-4.3856
X6.0614Y-3.2197
X6.0972Y-3.211
X6.1344Y-5.1131
X6.135Y-5.3246
X6.1445Y-4.7181
X6.1449Y-5.0906
X6.1459Y-4.5395
X6.1587Y-5.1106
X6.1638Y-4.9193
X6.1646Y-4.7579
X6.1691Y-5.0892
X6.1723Y-4.5223
X6.1791Y-3.8583
X6.1878Y-5.2695
X6.2028Y-4.9161
X6.2146Y-4.6213
X6.2165Y-3.8957
X6.2193Y-5.3246
X6.224Y-4.6811
X6.2315Y-3.3508
X6.2445Y-4.5524
X6.249Y-4.756
X6.2567Y-4.3547
X6.2567Y-5.2695
X6.2579Y-4.2854
X6.2594Y-4.2244
X6.2638Y-5.3114
X6.2701Y-3.8476
X6.2766Y-5.0898
X6.2827Y-3.3709
X6.2846Y-5.1122
X6.2906Y-3.135
X6.3009Y-5.0888
X6.3091Y-5.1114
X6.3123Y-4.9959
X6.315Y-4.3555
X6.3256Y-4.5783
X6.3283Y-4.6862
X6.3323Y-4.739
X6.3343Y-3.8476
X6.3402Y-4.25
X6.3406Y-4.0654
X6.3433Y-4.1386
X6.353Y-4.9858
X6.3587Y-3.1776
X6.3709Y-4.3965
X6.3846Y-3.898
X6.3866Y-3.1555
X6.387Y-3.3705
X6.3917Y-4.5795
X6.4035Y-4.1354
X6.4047Y-3.8488
X6.4055Y-4.2504
X6.4102Y-4.3579
X6.4138Y-4.0913
X6.4303Y-4.0228
X6.4319Y-3.9713
X6.4327Y-5.2846
X6.4469Y-4.3268
X6.4622Y-5.1598
X6.4689Y-3.8244
X6.4709Y-3.3693
X6.4768Y-3.9098
X6.4795Y-4.0516
X6.4819Y-4.015
X6.4882Y-4.6681
X6.4882Y-4.7331
X6.5052Y-4.3194
X6.5089Y-3.7821
X6.5264Y-3.984
X6.5311Y-4.3373
X6.5382Y-3.8913
X6.5386Y-4.4949
X6.5406Y-4.5787
X6.547Y-4.4132
X6.5526Y-5.1978
X6.5556Y-3.8362
X6.5669Y-4.6843
X6.5672Y-4.4374
X6.5673Y-4.7343
X6.576Y-3.1264
X6.5787Y-5.2799
X6.5858Y-4.4937
X6.5901Y-4.3438
X6.5921Y-4.4075
X6.6097Y-4.4336
X6.6114Y-4.5787
X6.6181Y-3.2993
X6.6299Y-4.0004
X6.6299Y-4.1717
X6.6371Y-4.4171
X6.6441Y-3.3693
X6.6447Y-4.0282
X6.6456Y-4.062
X6.6457Y-4.6846
X6.6579Y-4.768
X6.6654Y-4.3413
X6.6703Y-4.3827
X6.6725Y-4.1399
X6.6753Y-4.4899
X6.6813Y-5.3234
X6.6842Y-4.06
X6.689Y-4.4567
X6.69Y-3.6856
X6.6984Y-4.5795
X6.6998Y-4.6547
X6.7023Y-4.5078
X6.7162Y-4.241
X6.7213Y-3.8961
X6.7363Y-4.6134
X6.7392Y-4.4449
X6.7392Y-3.762
X6.7462Y-4.534
X6.7589Y-3.7942
X6.7618Y-4.6327
X6.7791Y-4.3985
X6.7856Y-4.7069
X6.7884Y-3.7832
X6.7906Y-4.578
X6.7913Y-4.4889
X6.8079Y-5.3234
X6.8106Y-4.6824
X6.813Y-4.2164
X6.8177Y-5.0335
X6.828Y-4.1665
X6.8304Y-4.4498
X6.835Y-4.0461
X6.8366Y-4.0992
X6.8376Y-4.241
X6.8386Y-4.5331
X6.8449Y-3.7626
X6.865Y-3.7488
X6.8671Y-3.7898
X6.8724Y-3.9709
X6.8772Y-4.3505
X6.8794Y-3.8924
X6.8815Y-4.0768
X6.882Y-4.3817
X6.8937Y-4.9642
X6.9084Y-4.3645
X6.9134Y-4.0457
X6.9207Y-4.4138
X6.9232Y-3.7252
X6.9244Y-4.1122
X6.9256Y-3.8921
X6.9346Y-3.9709
X6.9406Y-5.3234
X6.9476Y-4.6685
X6.9496Y-3.7059
X6.969Y-4.0627
X6.9738Y-4.1692
X6.9738Y-4.5012
X6.9738Y-4.6331
X6.9764Y-4.1013
X6.9772Y-4.0077
X6.9803Y-4.1326
X7.023Y-4.375
X7.023Y-4.4167
X7.023Y-4.5504
X7.023Y-4.6075
X7.0429Y-5.1299
X7.0646Y-3.6733
X7.0727Y-4.489
X7.0727Y-4.6224
X7.0728Y-3.9152
X7.0767Y-4.1513
X7.0798Y-4.0432
X7.0817Y-4.1042
X7.0843Y-4.2012
X7.0986Y-4.4689
X7.1012Y-5.3234
X7.1124Y-3.9147
X7.1138Y-3.6711
X7.1146Y-3.7583
X7.1157Y-3.947
X7.1185Y-4.3417
X7.1209Y-4.1398
X7.1232Y-4.4146
X7.1324Y-3.9742
X7.1654Y-4.0835
X7.1685Y-3.9742
X7.1716Y-4.6223
X7.1811Y-3.0819
X7.2004Y-4.1449
X7.2047Y-4.8252
X7.2059Y-3.0819
X7.2228Y-4.026
X7.2386Y-4.2091
X7.255Y-4.997
X7.2693Y-4.0831
X7.2886Y-4.1465
X7.289Y-4.2492
X7.2913Y-4.6039
X7.3087Y-4.026
X7.3484Y-5.0795
X7.3484Y-5.1031
X7.3543Y-4.5654
X7.3563Y-5.0559
X7.372Y-5.0756
X7.3724Y-5.0995
X7.3858Y-4.5972
X7.3901Y-5.2449
X7.3925Y-4.0256
X7.4224Y-5.0465
X7.4391Y-5.3243
X7.45Y-5.0244
X7.4555Y-4.6681
X7.4575Y-4.7441
X7.4579Y-4.8197
X7.4705Y-4.028
X7.4736Y-4.1591
X7.4783Y-3.8339
X7.5157Y-3.8654
X7.5502Y-3.9831
X7.5622Y-4.0559
X7.5752Y-4.65
X7.6775Y-4.0324
X7.7049Y-4.2841
X7.7272Y-4.3429
X7.75Y-4.3335
X7.7839Y-3.9236
X7.8043Y-3.8705
X7.8094Y-3.9268
X7.8232Y-3.9863
X7.8465Y-4.3008
X7.8819Y-4.4925
X7.8819Y-4.7031
T2
X4.0252Y-4.3772
X4.0268Y-4.6236
X4.0268Y-4.8925
X4.028Y-5.1346
X4.0303Y-3.9165
X4.0303Y-4.1425
X4.0327Y-3.4398
X4.0327Y-3.6929
X4.0445Y-3.1972
X4.0913Y-3.0819
X4.1071Y-5.2598
X4.1709Y-3.6154
X4.172Y-3.3059
X4.1724Y-3.4043
X4.1909Y-3.8441
X4.1913Y-3.0638
X4.1937Y-4.1079
X4.2016Y-4.4965
X4.2055Y-4.7031
X4.2094Y-4.3236
X4.2744Y-4.9138
X4.2819Y-5.085
X4.2913Y-3.2752
X4.2965Y-5.2799
X4.3031Y-3.1854
X4.335Y-3.0433
X4.3583Y-4.2268
X4.3724Y-4.0165
X4.387Y-4.7
X4.389Y-4.5327
X4.411Y-3.1252
X4.4323Y-3.2457
X4.4362Y-5.1953
X4.4567Y-4.7713
X4.4874Y-3.0366
X4.4906Y-3.9154
X4.4917Y-3.1898
X4.5094Y-5.3138
X4.5362Y-4.0315
X4.5449Y-3.7811
X4.5457Y-4.1992
X4.5634Y-5.1965
X4.5677Y-4.8776
X4.5764Y-4.9457
X4.5921Y-5.1098
X4.5961Y-3.1744
X4.6228Y-3.0315
X4.6236Y-4.9004
X4.6638Y-3.6815
X4.672Y-5.0224
X4.7012Y-3.585
X4.7173Y-3.6492
X4.7217Y-3.5236
X4.7465Y-3.3846
X4.7472Y-5.1579
X4.7622Y-3.4717
X4.7697Y-4.3276
X4.7717Y-4.2272
X4.7776Y-3.6846
X4.7815Y-4.9732
X4.7874Y-3.6134
X4.7953Y-3.5453
X4.7988Y-3.1776
X4.8016Y-3.0339
X4.8339Y-5.3142
X4.837Y-3.4764
X4.839Y-3.3823
X4.8524Y-3.6236
X4.8646Y-3.5287
X4.8661Y-3.0358
X4.8709Y-3.1146
X4.8846Y-5.0594
X4.8965Y-4.2197
X4.9043Y-4.2984
X4.9055Y-3.4819
X4.9618Y-4.8705
X4.9661Y-5.222
X4.9677Y-3.3819
X4.9772Y-4.5016
X4.9783Y-4.613
X5.0004Y-5.1236
X5.0039Y-3.3071
X5.0358Y-4.8681
X5.0516Y-3.3827
X5.0626Y-3.8862
X5.0697Y-4.2012
X5.0697Y-4.5902
X5.0748Y-4.978
X5.087Y-4.115
X5.1173Y-4.4843
X5.1551Y-4.2327
X5.1563Y-4.3902
X5.1571Y-5.1622
X5.1685Y-3.7768
X5.1693Y-5.3189
X5.1701Y-3.9047
X5.178Y-3.1122
X5.2043Y-5.024
X5.2094Y-4.1272
X5.2232Y-3.0335
X5.2406Y-4.298
X5.2465Y-4.8205
X5.2484Y-4.8815
X5.2531Y-4.0118
X5.2539Y-4.2157
X5.2614Y-3.1098
X5.2638Y-3.2173
X5.2689Y-3.8524
X5.2978Y-4.5455
X5.3065Y-3.5402
X5.3067Y-3.7902
X5.3236Y-3.2028
X5.3346Y-4.0161
X5.3346Y-4.7677
X5.3362Y-3.037
X5.3382Y-3.9311
X5.3421Y-5.1732
X5.3508Y-4.6217
X5.352Y-4.0701
X5.3642Y-4.6748
X5.3661Y-4.2461
X5.3764Y-3.5945
X5.3961Y-4.6382
X5.4039Y-5.0311
X5.4138Y-3.1059
X5.4154Y-4.7177
X5.4331Y-3.5307
X5.4354Y-3.578
X5.4382Y-4.2165
X5.4622Y-5.3079
X5.4783Y-3.5858
X5.4874Y-4.2236
X5.4925Y-3.037
X5.5209Y-4.439
X5.5209Y-5.1433
X5.524Y-4.3169
X5.5378Y-3.2256
X5.5555Y-3.0917
X5.5585Y-3.5402
X5.565Y-3.6445
X5.565Y-3.676
X5.565Y-3.7075
X5.565Y-3.739
X5.565Y-3.7705
X5.565Y-3.802
X5.565Y-3.8335
X5.5795Y-4.9953
X5.5807Y-3.6169
X5.5965Y-3.6445
X5.5965Y-3.676
X5.5965Y-3.7075
X5.5965Y-3.739
X5.5965Y-3.7705
X5.5965Y-3.802
X5.5965Y-3.8335
X5.6122Y-3.6169
X5.6228Y-3.0323
X5.628Y-3.6445
X5.628Y-3.676
X5.628Y-3.7075
X5.628Y-3.739
X5.628Y-3.7705
X5.628Y-3.802
X5.628Y-3.8335
X5.6449Y-5.0736
X5.6457Y-5.2992
X5.6555Y-3.5291
X5.6563Y-4.6988
X5.6677Y-3.0917
X5.6815Y-4.661
X5.7043Y-3.2909
X5.7083Y-3.6142
X5.7244Y-3.228
X5.7343Y-3.6878
X5.7343Y-3.7193
X5.7362Y-3.5327
X5.739Y-3.0386
X5.7413Y-5.1504
X5.7657Y-3.6878
X5.7657Y-3.7193
X5.7709Y-5.0307
X5.7834Y-4.5676
X5.7902Y-3.274
X5.8024Y-5.3169
X5.8157Y-3.6087
X5.8461Y-4.7744
X5.8476Y-5.0866
X5.8508Y-3.5323
X5.852Y-3.25
X5.8622Y-3.0319
X5.8669Y-3.2874
X5.8791Y-4.7744
X5.889Y-3.5717
X5.9116Y-4.7744
X5.9252Y-4.215
X5.9264Y-5.0106
X5.9327Y-3.3894
X5.9366Y-4.028
X5.9374Y-5.1642
X5.9484Y-4.1713
X5.9579Y-4.5035
X5.9803Y-5.2343
X6.002Y-4.3398
X6.0146Y-4.2618
X6.0165Y-3.9591
X6.0417Y-4.1697
X6.0429Y-4.0256
X6.0453Y-3.3811
X6.0657Y-3.0354
X6.074Y-3.8949
X6.085Y-4.924
X6.0854Y-4.9567
X6.0866Y-5.1339
X6.0909Y-4.6185
X6.0929Y-4.6862
X6.0953Y-4.7661
X6.1028Y-3.1189
X6.1173Y-4.924
X6.1193Y-3.0472
X6.1201Y-3.352
X6.1268Y-4.272
X6.1276Y-4.1244
X6.1315Y-4.3929
X6.1413Y-3.9681
X6.1543Y-5.2177
X6.1559Y-3.3858
X6.1882Y-5.163
X6.2043Y-4.2764
X6.2055Y-4.5504
X6.2071Y-4.3504
X6.2075Y-4.4685
X6.2106Y-3.4315
X6.2106Y-4.1583
X6.215Y-3.9673
X6.2201Y-4.0394
X6.2547Y-3.0476
X6.2815Y-3.4984
X6.2882Y-5.2118
X6.3224Y-4.399
X6.3252Y-4.4606
X6.328Y-3.0465
X6.3634Y-4.5031
X6.387Y-3.2996
X6.3913Y-3.2512
X6.4146Y-4.4516
X6.4378Y-4.5106
X6.4445Y-4.7575
X6.4496Y-3.0969
X6.4563Y-3.1563
X6.461Y-4.4051
X6.4618Y-3.0323
X6.4642Y-3.5571
X6.478Y-4.4768
X6.4866Y-3.2276
X6.5106Y-4.272
X6.5157Y-5.1154
X6.5224Y-3.1941
X6.5309Y-5.2827
X6.5381Y-4.2291
X6.5634Y-3.0402
X6.5832Y-5.1388
X6.5886Y-5.0626
X6.5894Y-5.2303
X6.5909Y-3.7201
X6.6441Y-3.5429
X6.6728Y-5.1752
X6.6827Y-5.0535
X6.6854Y-4.0992
X6.7063Y-3.039
X6.7248Y-4.7441
X6.7441Y-3.1185
X6.7472Y-5.0449
X6.7492Y-3.952
X6.7512Y-4.0323
X6.7583Y-5.1756
X6.7638Y-4.1669
X6.7823Y-3.9992
X6.7976Y-3.9075
X6.8043Y-4.7445
X6.8547Y-5.1752
X6.878Y-4.2031
X6.8791Y-3.0673
X6.9236Y-5.1343
X6.924Y-5.2413
X6.9287Y-3.3106
X6.9307Y-5.0311
X6.9709Y-3.8358
X6.9744Y-3.2756
X6.9854Y-3.7803
X6.9909Y-5.1319
X6.998Y-5.0323
X7.0016Y-3.1091
X7.0016Y-4.9535
X7.0063Y-5.2398
X7.0114Y-3.3087
X7.0236Y-3.7551
X7.0524Y-3.8197
X7.0709Y-3.0354
X7.0764Y-5.2409
X7.0835Y-4.4185
X7.085Y-5.028
X7.0909Y-4.3
X7.0925Y-4.952
X7.1315Y-4.2843
X7.2575Y-4.5866
X7.3354Y-3.5307
X7.3535Y-3.5575
X7.3559Y-4.815
X7.361Y-3.0724
X7.3685Y-4.0921
X7.3701Y-3.1728
X7.3744Y-4.2409
X7.3752Y-4.3287
X7.3752Y-4.424
X7.3858Y-4.802
X7.387Y-4.702
X7.4264Y-4.1618
X7.4346Y-3.5472
X7.4465Y-4.9701
X7.4587Y-4.087
X7.4614Y-3.7346
X7.4626Y-3.6957
X7.4902Y-5.176
X7.4937Y-3.1681
X7.4943Y-5.1443
X7.4957Y-3.3047
X7.5016Y-5.3181
X7.5039Y-4.644
X7.5157Y-4.126
X7.5181Y-3.5941
X7.5185Y-3.0736
X7.5516Y-5.1984
X7.5594Y-4.8902
X7.5614Y-4.1031
X7.5622Y-4.748
X7.565Y-3.8374
X7.5654Y-5.0945
X7.5673Y-3.7272
X7.5701Y-4.2646
X7.5709Y-4.9933
X7.574Y-4.3697
X7.5854Y-4.4642
X7.5937Y-5.3118
X7.6094Y-3.1882
X7.615Y-3.3894
X7.6157Y-5.2031
X7.6339Y-4.3185
X7.6654Y-4.5358
X7.6728Y-3.7244
X7.6803Y-4.9894
X7.6846Y-3.4189
X7.6929Y-4.6654
X7.6945Y-4.4724
X7.6961Y-4.1728
X7.6976Y-3.087
X7.6996Y-5.272
X7.7071Y-4.8902
X7.7094Y-3.565
X7.7142Y-4.7622
X7.7236Y-3.2984
X7.7236Y-5.0476
X7.7811Y-4.1028
X7.7846Y-4.9591
X7.7882Y-5.274
X7.7937Y-4.8039
X7.7976Y-4.676
X7.8004Y-4.5563
X7.8055Y-4.1378
X7.8228Y-3.5681
X7.8252Y-3.2063
X7.8264Y-3.337
X7.8299Y-3.4472
X7.8366Y-3.8228
X7.8394Y-3.728
X7.8598Y-5.1524
X7.8673Y-4.8827
X7.8673Y-5.0189
T3
X4.8795Y-3.1913
X6.059Y-3.1698
X6.2118Y-3.5065
X6.5949Y-3.7953
X6.5949Y-3.8368
T5
X6.2815Y-4.5106
X6.2815Y-4.6106
X6.2815Y-4.7106
T6
X7.1736Y-4.2327
X7.1736Y-4.3327
X7.1736Y-4.4327
X7.1736Y-4.5327
X7.4736Y-4.2327
X7.4736Y-4.3327
X7.4736Y-4.4327
X7.4736Y-4.5327
T7
X4.2697Y-3.4673
X4.2697Y-3.5657
X4.2697Y-3.6642
X4.2697Y-3.7626
X4.2697Y-3.861
X4.5492Y-3.2862
X4.6476Y-3.2862
X4.7461Y-3.2862
X4.8445Y-3.2862
X4.9429Y-3.2862
X5.3067Y-3.2799
X5.4051Y-3.2799
X5.5035Y-3.2799
X5.602Y-3.2799
X5.9957Y-3.278
X6.0941Y-3.278
X6.1925Y-3.278
X6.2909Y-3.278
X6.6693Y-3.2823
X6.7677Y-3.2823
X6.8661Y-3.2823
X7.2894Y-3.2823
X7.3878Y-3.2823
X7.624Y-3.4673
X7.624Y-3.5657
X7.624Y-3.6642
X7.624Y-3.9102
X7.624Y-4.0087
X7.624Y-4.1071
X7.624Y-4.2055
X7.624Y-4.5992
X7.624Y-4.6976
X7.624Y-4.7961
X7.624Y-4.8945
T8
X6.6563Y-5.1102
X6.6563Y-5.2402
X6.7547Y-5.1102
X6.7547Y-5.2402
X6.8531Y-5.1102
X6.8531Y-5.2402
T9
X4.1299Y-4.9594
X4.1329Y-4.2941
X4.1329Y-4.7272
X4.7165Y-4.9673
X5.1496Y-4.9673
X5.3307Y-4.9378
X5.4307Y-4.9378
X5.5307Y-4.9378
X5.6307Y-4.9378
X5.7307Y-4.9378
X5.7992Y-3.0829
X5.7992Y-3.1829
X5.8307Y-4.9378
X5.9307Y-4.9378
X6.3429Y-3.4673
X6.3429Y-3.6248
X6.3429Y-4.8846
X6.4429Y-3.4673
X6.4429Y-3.6248
X6.4429Y-4.8846
X6.5429Y-3.4673
X6.5429Y-3.6248
X6.5429Y-4.8846
X6.6429Y-3.4673
X6.6429Y-3.6248
X6.6429Y-4.8846
X6.7429Y-3.4673
X6.7429Y-3.6248
X6.7429Y-4.8846
X6.8429Y-3.4673
X6.8429Y-3.6248
X6.8429Y-4.8846
X6.9429Y-3.4673
X6.9429Y-3.6248
X6.9429Y-4.8846
X7.0429Y-3.4673
X7.0429Y-3.6248
X7.0429Y-4.8846
X7.1429Y-3.4673
X7.1429Y-3.6248
X7.1429Y-4.8846
X7.2429Y-3.4673
X7.2429Y-3.6248
X7.2429Y-4.8846
X7.3429Y-3.4673
X7.3429Y-3.6248
X7.3429Y-4.8846
X7.4429Y-3.4673
X7.4429Y-3.6248
X7.4429Y-4.8846
X7.7278Y-4.402
X7.8278Y-4.402
T10
X4.5Y-4.8421
X4.5Y-4.9421
X4.5Y-5.0421
X4.5Y-5.1421
X4.5Y-5.2421
T11
X4.5266Y-4.4122
X4.5266Y-4.6091
X4.8346Y-4.7705
X5.0315Y-4.7705
T4
G00X6.0524Y-5.0904
M15
G01X6.0524Y-5.047
M16
G05
G00X6.0524Y-5.2498
M15
G01X6.0524Y-5.2183
M16
G05
G00X6.3925Y-5.0904
M15
G01X6.3925Y-5.047
M16
G05
G00X6.3925Y-5.2498
M15
G01X6.3925Y-5.2183
M16
G05
T0
M30
