%TF.GenerationSoftware,KiCad,Pcbnew,(6.0.11)*%
%TF.CreationDate,2024-02-29T08:22:58+09:00*%
%TF.ProjectId,Panel,50616e65-6c2e-46b6-9963-61645f706362,rev?*%
%TF.SameCoordinates,Original*%
%TF.FileFunction,Paste,Top*%
%TF.FilePolarity,Positive*%
%FSLAX46Y46*%
G04 Gerber Fmt 4.6, Leading zero omitted, Abs format (unit mm)*
G04 Created by KiCad (PCBNEW (6.0.11)) date 2024-02-29 08:22:58*
%MOMM*%
%LPD*%
G01*
G04 APERTURE LIST*
G04 Aperture macros list*
%AMRoundRect*
0 Rectangle with rounded corners*
0 $1 Rounding radius*
0 $2 $3 $4 $5 $6 $7 $8 $9 X,Y pos of 4 corners*
0 Add a 4 corners polygon primitive as box body*
4,1,4,$2,$3,$4,$5,$6,$7,$8,$9,$2,$3,0*
0 Add four circle primitives for the rounded corners*
1,1,$1+$1,$2,$3*
1,1,$1+$1,$4,$5*
1,1,$1+$1,$6,$7*
1,1,$1+$1,$8,$9*
0 Add four rect primitives between the rounded corners*
20,1,$1+$1,$2,$3,$4,$5,0*
20,1,$1+$1,$4,$5,$6,$7,0*
20,1,$1+$1,$6,$7,$8,$9,0*
20,1,$1+$1,$8,$9,$2,$3,0*%
G04 Aperture macros list end*
%ADD10RoundRect,0.200000X0.275000X-0.200000X0.275000X0.200000X-0.275000X0.200000X-0.275000X-0.200000X0*%
%ADD11RoundRect,0.237500X0.287500X0.237500X-0.287500X0.237500X-0.287500X-0.237500X0.287500X-0.237500X0*%
%ADD12R,0.900000X1.200000*%
%ADD13R,0.900000X1.500000*%
%ADD14R,2.750000X3.050000*%
%ADD15R,1.200000X2.200000*%
%ADD16RoundRect,0.135000X0.135000X0.185000X-0.135000X0.185000X-0.135000X-0.185000X0.135000X-0.185000X0*%
%ADD17RoundRect,0.135000X-0.135000X-0.185000X0.135000X-0.185000X0.135000X0.185000X-0.135000X0.185000X0*%
%ADD18RoundRect,0.135000X0.185000X-0.135000X0.185000X0.135000X-0.185000X0.135000X-0.185000X-0.135000X0*%
%ADD19RoundRect,0.140000X-0.140000X-0.170000X0.140000X-0.170000X0.140000X0.170000X-0.140000X0.170000X0*%
%ADD20RoundRect,0.250001X-0.799999X1.999999X-0.799999X-1.999999X0.799999X-1.999999X0.799999X1.999999X0*%
%ADD21RoundRect,0.150000X0.150000X-0.587500X0.150000X0.587500X-0.150000X0.587500X-0.150000X-0.587500X0*%
%ADD22R,2.100000X1.800000*%
%ADD23RoundRect,0.125000X0.625000X0.125000X-0.625000X0.125000X-0.625000X-0.125000X0.625000X-0.125000X0*%
%ADD24RoundRect,0.125000X0.125000X0.625000X-0.125000X0.625000X-0.125000X-0.625000X0.125000X-0.625000X0*%
%ADD25RoundRect,0.225000X-0.225000X-0.250000X0.225000X-0.250000X0.225000X0.250000X-0.225000X0.250000X0*%
%ADD26R,3.250000X0.740000*%
%ADD27R,1.000000X1.000000*%
%ADD28RoundRect,0.140000X0.170000X-0.140000X0.170000X0.140000X-0.170000X0.140000X-0.170000X-0.140000X0*%
%ADD29RoundRect,0.200000X-0.275000X0.200000X-0.275000X-0.200000X0.275000X-0.200000X0.275000X0.200000X0*%
%ADD30RoundRect,0.250001X0.799999X-1.999999X0.799999X1.999999X-0.799999X1.999999X-0.799999X-1.999999X0*%
%ADD31RoundRect,0.250000X0.250000X0.475000X-0.250000X0.475000X-0.250000X-0.475000X0.250000X-0.475000X0*%
%ADD32R,3.050000X2.750000*%
%ADD33R,2.200000X1.200000*%
%ADD34RoundRect,0.150000X0.675000X0.150000X-0.675000X0.150000X-0.675000X-0.150000X0.675000X-0.150000X0*%
%ADD35RoundRect,0.225000X0.250000X-0.225000X0.250000X0.225000X-0.250000X0.225000X-0.250000X-0.225000X0*%
%ADD36RoundRect,0.150000X-0.150000X0.675000X-0.150000X-0.675000X0.150000X-0.675000X0.150000X0.675000X0*%
%ADD37RoundRect,0.237500X-0.287500X-0.237500X0.287500X-0.237500X0.287500X0.237500X-0.287500X0.237500X0*%
%ADD38RoundRect,0.225000X-0.250000X0.225000X-0.250000X-0.225000X0.250000X-0.225000X0.250000X0.225000X0*%
%ADD39RoundRect,0.150000X0.825000X0.150000X-0.825000X0.150000X-0.825000X-0.150000X0.825000X-0.150000X0*%
%ADD40RoundRect,0.225000X0.225000X0.250000X-0.225000X0.250000X-0.225000X-0.250000X0.225000X-0.250000X0*%
%ADD41R,1.150000X1.500000*%
%ADD42R,1.500000X1.500000*%
%ADD43RoundRect,0.140000X0.140000X0.170000X-0.140000X0.170000X-0.140000X-0.170000X0.140000X-0.170000X0*%
%ADD44RoundRect,0.150000X-0.587500X-0.150000X0.587500X-0.150000X0.587500X0.150000X-0.587500X0.150000X0*%
%ADD45RoundRect,0.150000X-0.150000X0.587500X-0.150000X-0.587500X0.150000X-0.587500X0.150000X0.587500X0*%
%ADD46RoundRect,0.200000X-0.200000X-0.275000X0.200000X-0.275000X0.200000X0.275000X-0.200000X0.275000X0*%
%ADD47R,2.413000X5.334000*%
%ADD48RoundRect,0.150000X0.150000X-0.675000X0.150000X0.675000X-0.150000X0.675000X-0.150000X-0.675000X0*%
%ADD49R,1.600000X1.400000*%
%ADD50RoundRect,0.250000X-0.475000X0.250000X-0.475000X-0.250000X0.475000X-0.250000X0.475000X0.250000X0*%
%ADD51RoundRect,0.200000X0.200000X0.275000X-0.200000X0.275000X-0.200000X-0.275000X0.200000X-0.275000X0*%
%ADD52R,1.200000X0.900000*%
%ADD53RoundRect,0.135000X-0.185000X0.135000X-0.185000X-0.135000X0.185000X-0.135000X0.185000X0.135000X0*%
G04 APERTURE END LIST*
D10*
%TO.C,R25*%
X135820000Y-78560000D03*
X135820000Y-76910000D03*
%TD*%
D11*
%TO.C,D2*%
X85345000Y-84500000D03*
X83595000Y-84500000D03*
%TD*%
D12*
%TO.C,D7*%
X129400000Y-70959999D03*
X132700000Y-70959999D03*
%TD*%
D13*
%TO.C,D16*%
X158470000Y-59910000D03*
X155170000Y-59910000D03*
X155170000Y-64810000D03*
X158470000Y-64810000D03*
%TD*%
D14*
%TO.C,Q4*%
X148555000Y-70325000D03*
X145505000Y-73675000D03*
X148555000Y-73675000D03*
X145505000Y-70325000D03*
D15*
X144750000Y-78300000D03*
X149310000Y-78300000D03*
%TD*%
D16*
%TO.C,R29*%
X141980000Y-62560000D03*
X140960000Y-62560000D03*
%TD*%
D17*
%TO.C,R36*%
X141422500Y-52510000D03*
X142442500Y-52510000D03*
%TD*%
D10*
%TO.C,R12*%
X118830000Y-77875000D03*
X118830000Y-76225000D03*
%TD*%
D18*
%TO.C,R20*%
X131310000Y-78220000D03*
X131310000Y-77200000D03*
%TD*%
D19*
%TO.C,C13*%
X104720000Y-75170000D03*
X105680000Y-75170000D03*
%TD*%
D10*
%TO.C,R11*%
X118830000Y-80955000D03*
X118830000Y-79305000D03*
%TD*%
D20*
%TO.C,C17*%
X148210000Y-57420000D03*
X148210000Y-64620000D03*
%TD*%
D21*
%TO.C,Q14*%
X101750000Y-67077500D03*
X103650000Y-67077500D03*
X102700000Y-65202500D03*
%TD*%
D22*
%TO.C,Y1*%
X108500000Y-76400000D03*
X111400000Y-76400000D03*
X111400000Y-74100000D03*
X108500000Y-74100000D03*
%TD*%
D23*
%TO.C,U6*%
X103145000Y-79170000D03*
X103145000Y-78370000D03*
X103145000Y-77570000D03*
X103145000Y-76770000D03*
X103145000Y-75970000D03*
X103145000Y-75170000D03*
X103145000Y-74370000D03*
X103145000Y-73570000D03*
D24*
X101770000Y-72195000D03*
X100970000Y-72195000D03*
X100170000Y-72195000D03*
X99370000Y-72195000D03*
X98570000Y-72195000D03*
X97770000Y-72195000D03*
X96970000Y-72195000D03*
X96170000Y-72195000D03*
D23*
X94795000Y-73570000D03*
X94795000Y-74370000D03*
X94795000Y-75170000D03*
X94795000Y-75970000D03*
X94795000Y-76770000D03*
X94795000Y-77570000D03*
X94795000Y-78370000D03*
X94795000Y-79170000D03*
D24*
X96170000Y-80545000D03*
X96970000Y-80545000D03*
X97770000Y-80545000D03*
X98570000Y-80545000D03*
X99370000Y-80545000D03*
X100170000Y-80545000D03*
X100970000Y-80545000D03*
X101770000Y-80545000D03*
%TD*%
D25*
%TO.C,C25*%
X144195000Y-94360000D03*
X145745000Y-94360000D03*
%TD*%
D18*
%TO.C,R27*%
X137110000Y-77690000D03*
X137110000Y-76670000D03*
%TD*%
D26*
%TO.C,J3*%
X86875000Y-69190000D03*
X82125000Y-69190000D03*
X86875000Y-67920000D03*
X82125000Y-67920000D03*
X86875000Y-66650000D03*
X82125000Y-66650000D03*
X86875000Y-65380000D03*
X82125000Y-65380000D03*
X86875000Y-64110000D03*
X82125000Y-64110000D03*
%TD*%
D16*
%TO.C,R5*%
X95980000Y-91950000D03*
X94960000Y-91950000D03*
%TD*%
%TO.C,R18*%
X95850000Y-99400000D03*
X94830000Y-99400000D03*
%TD*%
D27*
%TO.C,D11*%
X139580000Y-54930000D03*
X137080000Y-54930000D03*
%TD*%
D18*
%TO.C,R8*%
X112187500Y-91820000D03*
X112187500Y-90800000D03*
%TD*%
D28*
%TO.C,C9*%
X104710000Y-82370000D03*
X104710000Y-81410000D03*
%TD*%
D18*
%TO.C,R6*%
X80470000Y-95955000D03*
X80470000Y-94935000D03*
%TD*%
D29*
%TO.C,R28*%
X134220000Y-76910000D03*
X134220000Y-78560000D03*
%TD*%
D16*
%TO.C,R48*%
X141060000Y-78660001D03*
X140040000Y-78660001D03*
%TD*%
D17*
%TO.C,R41*%
X152800000Y-51750000D03*
X153820000Y-51750000D03*
%TD*%
D30*
%TO.C,C18*%
X124470000Y-62410000D03*
X124470000Y-55210000D03*
%TD*%
D31*
%TO.C,C7*%
X148970001Y-92360000D03*
X147070001Y-92360000D03*
%TD*%
D29*
%TO.C,R40*%
X100200000Y-66390000D03*
X100200000Y-68040000D03*
%TD*%
D32*
%TO.C,Q8*%
X134145000Y-84785000D03*
X137495000Y-84785000D03*
X137495000Y-87835000D03*
X134145000Y-87835000D03*
D33*
X129520000Y-84030000D03*
X129520000Y-88590000D03*
%TD*%
D16*
%TO.C,R13*%
X82230000Y-84500000D03*
X81210000Y-84500000D03*
%TD*%
D10*
%TO.C,R19*%
X124470000Y-92085000D03*
X124470000Y-90435000D03*
%TD*%
D32*
%TO.C,U2*%
X131015000Y-61075000D03*
X131015000Y-58025000D03*
X134365000Y-61075000D03*
X134365000Y-58025000D03*
D33*
X138990000Y-61830000D03*
X138990000Y-57270000D03*
%TD*%
D34*
%TO.C,U5*%
X111675000Y-82435000D03*
X111675000Y-81165000D03*
X111675000Y-79895000D03*
X111675000Y-78625000D03*
X106425000Y-78625000D03*
X106425000Y-79895000D03*
X106425000Y-81165000D03*
X106425000Y-82435000D03*
%TD*%
D35*
%TO.C,C23*%
X138170000Y-92245000D03*
X138170000Y-90695000D03*
%TD*%
D11*
%TO.C,D15*%
X135935000Y-52510000D03*
X134185000Y-52510000D03*
%TD*%
D27*
%TO.C,D1*%
X117770001Y-82610000D03*
X115270001Y-82610000D03*
%TD*%
D17*
%TO.C,R10*%
X112197500Y-86260000D03*
X113217500Y-86260000D03*
%TD*%
D36*
%TO.C,U3*%
X142460000Y-69675000D03*
X141190000Y-69675000D03*
X139920000Y-69675000D03*
X138650000Y-69675000D03*
X138650000Y-74925000D03*
X139920000Y-74925000D03*
X141190000Y-74925000D03*
X142460000Y-74925000D03*
%TD*%
D21*
%TO.C,Q5*%
X130420000Y-75147499D03*
X132320000Y-75147499D03*
X131370000Y-73272499D03*
%TD*%
D37*
%TO.C,D4*%
X87095000Y-84500000D03*
X88845000Y-84500000D03*
%TD*%
D19*
%TO.C,C19*%
X157190000Y-57940000D03*
X158150000Y-57940000D03*
%TD*%
D38*
%TO.C,C5*%
X135800000Y-64934999D03*
X135800000Y-66484999D03*
%TD*%
D39*
%TO.C,U1*%
X133775000Y-68665000D03*
X133775000Y-67395000D03*
X133775000Y-66125000D03*
X133775000Y-64855000D03*
X128825000Y-64855000D03*
X128825000Y-66125000D03*
X128825000Y-67395000D03*
X128825000Y-68665000D03*
%TD*%
D40*
%TO.C,C11*%
X125995000Y-93760000D03*
X124445000Y-93760000D03*
%TD*%
D41*
%TO.C,RV1*%
X136495000Y-71110000D03*
D42*
X135570000Y-74710000D03*
D41*
X134645000Y-71110000D03*
%TD*%
D18*
%TO.C,R9*%
X114177500Y-91830000D03*
X114177500Y-90810000D03*
%TD*%
D27*
%TO.C,D9*%
X151750000Y-77560000D03*
X151750000Y-75060000D03*
%TD*%
D19*
%TO.C,C12*%
X104710000Y-76780000D03*
X105670000Y-76780000D03*
%TD*%
D18*
%TO.C,R22*%
X130010000Y-78200000D03*
X130010000Y-77180000D03*
%TD*%
D43*
%TO.C,C20*%
X93430000Y-61890000D03*
X92470000Y-61890000D03*
%TD*%
D20*
%TO.C,C21*%
X157270000Y-72940000D03*
X157270000Y-80140000D03*
%TD*%
D29*
%TO.C,R38*%
X142580000Y-76825000D03*
X142580000Y-78475000D03*
%TD*%
D44*
%TO.C,Q2*%
X111770000Y-87610000D03*
X111770000Y-89510000D03*
X113645000Y-88560000D03*
%TD*%
D45*
%TO.C,Q15*%
X154680001Y-53312499D03*
X152780001Y-53312499D03*
X153730001Y-55187499D03*
%TD*%
D11*
%TO.C,D6*%
X85345000Y-82750000D03*
X83595000Y-82750000D03*
%TD*%
D30*
%TO.C,C16*%
X124220000Y-82660000D03*
X124220000Y-75460000D03*
%TD*%
D46*
%TO.C,R37*%
X147145000Y-94360000D03*
X148795000Y-94360000D03*
%TD*%
D18*
%TO.C,R4*%
X80470000Y-93455000D03*
X80470000Y-92435000D03*
%TD*%
%TO.C,R3*%
X111187500Y-91820000D03*
X111187500Y-90800000D03*
%TD*%
D17*
%TO.C,R14*%
X90210000Y-82750000D03*
X91230000Y-82750000D03*
%TD*%
D18*
%TO.C,R7*%
X80470000Y-98455000D03*
X80470000Y-97435000D03*
%TD*%
D14*
%TO.C,Q1*%
X121945000Y-104835000D03*
X121945000Y-101485000D03*
X124995000Y-101485000D03*
X124995000Y-104835000D03*
D15*
X125750000Y-96860000D03*
X121190000Y-96860000D03*
%TD*%
D17*
%TO.C,R15*%
X90210000Y-84500000D03*
X91230000Y-84500000D03*
%TD*%
D16*
%TO.C,R45*%
X96209999Y-60640000D03*
X95189999Y-60640000D03*
%TD*%
D28*
%TO.C,C22*%
X128170000Y-91440000D03*
X128170000Y-90480000D03*
%TD*%
D47*
%TO.C,L1*%
X142672250Y-86120000D03*
X149911250Y-86120000D03*
%TD*%
D16*
%TO.C,R43*%
X153770003Y-56830000D03*
X152750003Y-56830000D03*
%TD*%
D28*
%TO.C,C14*%
X141060000Y-56540000D03*
X141060000Y-55580000D03*
%TD*%
D16*
%TO.C,R39*%
X132572500Y-52530001D03*
X131552500Y-52530001D03*
%TD*%
D14*
%TO.C,Q3*%
X117615000Y-85445000D03*
X117615000Y-88795000D03*
X120665000Y-88795000D03*
X120665000Y-85445000D03*
D15*
X116860000Y-93420000D03*
X121420000Y-93420000D03*
%TD*%
D48*
%TO.C,U4*%
X94795000Y-67664999D03*
X96065000Y-67664999D03*
X97335000Y-67664999D03*
X98605000Y-67664999D03*
X98605000Y-62414999D03*
X97335000Y-62414999D03*
X96065000Y-62414999D03*
X94795000Y-62414999D03*
%TD*%
D17*
%TO.C,R46*%
X92440000Y-62890000D03*
X93460000Y-62890000D03*
%TD*%
D28*
%TO.C,C15*%
X135660000Y-55380000D03*
X135660000Y-54420000D03*
%TD*%
D31*
%TO.C,C3*%
X126620000Y-67660000D03*
X124720000Y-67660000D03*
%TD*%
D35*
%TO.C,C2*%
X138530000Y-78475001D03*
X138530000Y-76925001D03*
%TD*%
D49*
%TO.C,SW4*%
X90227500Y-79870000D03*
X82227500Y-79870000D03*
X90227500Y-75370000D03*
X82227500Y-75370000D03*
%TD*%
D18*
%TO.C,R2*%
X80470000Y-90955000D03*
X80470000Y-89935000D03*
%TD*%
%TO.C,R1*%
X80470000Y-88455000D03*
X80470000Y-87435000D03*
%TD*%
D19*
%TO.C,C4*%
X125990000Y-66060000D03*
X126950000Y-66060000D03*
%TD*%
D43*
%TO.C,C6*%
X141030000Y-76710000D03*
X140070000Y-76710000D03*
%TD*%
D37*
%TO.C,D12*%
X138057500Y-52510000D03*
X139807500Y-52510000D03*
%TD*%
D50*
%TO.C,C10*%
X126470000Y-90260000D03*
X126470000Y-92160000D03*
%TD*%
D27*
%TO.C,D13*%
X130200000Y-80440000D03*
X132700000Y-80440000D03*
%TD*%
D10*
%TO.C,R24*%
X140110000Y-92285000D03*
X140110000Y-90635000D03*
%TD*%
D28*
%TO.C,C1*%
X113187500Y-91790000D03*
X113187500Y-90830000D03*
%TD*%
D51*
%TO.C,R47*%
X140795000Y-67670000D03*
X139145000Y-67670000D03*
%TD*%
D37*
%TO.C,D3*%
X87095000Y-82750000D03*
X88845000Y-82750000D03*
%TD*%
D18*
%TO.C,R42*%
X100200000Y-65150000D03*
X100200000Y-64130000D03*
%TD*%
D16*
%TO.C,R16*%
X82230000Y-82750000D03*
X81210000Y-82750000D03*
%TD*%
D10*
%TO.C,R23*%
X132570000Y-78534999D03*
X132570000Y-76884999D03*
%TD*%
D18*
%TO.C,R17*%
X125380000Y-72160000D03*
X125380000Y-71140000D03*
%TD*%
D16*
%TO.C,R44*%
X98210000Y-60640000D03*
X97190000Y-60640000D03*
%TD*%
D52*
%TO.C,D10*%
X141670000Y-57890000D03*
X141670000Y-61190000D03*
%TD*%
D18*
%TO.C,R30*%
X142240000Y-56570000D03*
X142240000Y-55550000D03*
%TD*%
D52*
%TO.C,D5*%
X127270000Y-70410000D03*
X127270000Y-73710000D03*
%TD*%
D53*
%TO.C,R34*%
X134550000Y-54390000D03*
X134550000Y-55410000D03*
%TD*%
M02*
