%TF.GenerationSoftware,KiCad,Pcbnew,(6.0.11)*%
%TF.CreationDate,2024-02-29T08:22:58+09:00*%
%TF.ProjectId,Panel,50616e65-6c2e-46b6-9963-61645f706362,rev?*%
%TF.SameCoordinates,Original*%
%TF.FileFunction,Legend,Top*%
%TF.FilePolarity,Positive*%
%FSLAX46Y46*%
G04 Gerber Fmt 4.6, Leading zero omitted, Abs format (unit mm)*
G04 Created by KiCad (PCBNEW (6.0.11)) date 2024-02-29 08:22:58*
%MOMM*%
%LPD*%
G01*
G04 APERTURE LIST*
G04 Aperture macros list*
%AMRoundRect*
0 Rectangle with rounded corners*
0 $1 Rounding radius*
0 $2 $3 $4 $5 $6 $7 $8 $9 X,Y pos of 4 corners*
0 Add a 4 corners polygon primitive as box body*
4,1,4,$2,$3,$4,$5,$6,$7,$8,$9,$2,$3,0*
0 Add four circle primitives for the rounded corners*
1,1,$1+$1,$2,$3*
1,1,$1+$1,$4,$5*
1,1,$1+$1,$6,$7*
1,1,$1+$1,$8,$9*
0 Add four rect primitives between the rounded corners*
20,1,$1+$1,$2,$3,$4,$5,0*
20,1,$1+$1,$4,$5,$6,$7,0*
20,1,$1+$1,$6,$7,$8,$9,0*
20,1,$1+$1,$8,$9,$2,$3,0*%
%AMRotRect*
0 Rectangle, with rotation*
0 The origin of the aperture is its center*
0 $1 length*
0 $2 width*
0 $3 Rotation angle, in degrees counterclockwise*
0 Add horizontal line*
21,1,$1,$2,0,0,$3*%
%AMFreePoly0*
4,1,6,1.000000,0.000000,0.500000,-0.750000,-0.500000,-0.750000,-0.500000,0.750000,0.500000,0.750000,1.000000,0.000000,1.000000,0.000000,$1*%
%AMFreePoly1*
4,1,6,0.500000,-0.750000,-0.650000,-0.750000,-0.150000,0.000000,-0.650000,0.750000,0.500000,0.750000,0.500000,-0.750000,0.500000,-0.750000,$1*%
G04 Aperture macros list end*
%ADD10C,0.150000*%
%ADD11C,0.120000*%
%ADD12C,0.130000*%
%ADD13C,0.200000*%
%ADD14C,0.160000*%
%ADD15C,0.400000*%
%ADD16C,0.230000*%
%ADD17C,0.283607*%
%ADD18C,0.100000*%
%ADD19RoundRect,0.200000X0.275000X-0.200000X0.275000X0.200000X-0.275000X0.200000X-0.275000X-0.200000X0*%
%ADD20RoundRect,0.237500X0.287500X0.237500X-0.287500X0.237500X-0.287500X-0.237500X0.287500X-0.237500X0*%
%ADD21R,0.900000X1.200000*%
%ADD22R,0.900000X1.500000*%
%ADD23R,1.200000X2.200000*%
%ADD24R,5.800000X6.400000*%
%ADD25RoundRect,0.135000X0.135000X0.185000X-0.135000X0.185000X-0.135000X-0.185000X0.135000X-0.185000X0*%
%ADD26C,2.000000*%
%ADD27RoundRect,0.381000X-0.381000X0.381000X-0.381000X-0.381000X0.381000X-0.381000X0.381000X0.381000X0*%
%ADD28C,1.524000*%
%ADD29RoundRect,0.135000X-0.135000X-0.185000X0.135000X-0.185000X0.135000X0.185000X-0.135000X0.185000X0*%
%ADD30FreePoly0,90.000000*%
%ADD31FreePoly1,90.000000*%
%ADD32RoundRect,0.135000X0.185000X-0.135000X0.185000X0.135000X-0.185000X0.135000X-0.185000X-0.135000X0*%
%ADD33RoundRect,0.140000X-0.140000X-0.170000X0.140000X-0.170000X0.140000X0.170000X-0.140000X0.170000X0*%
%ADD34RoundRect,0.250001X-0.799999X1.999999X-0.799999X-1.999999X0.799999X-1.999999X0.799999X1.999999X0*%
%ADD35RoundRect,0.150000X0.150000X-0.587500X0.150000X0.587500X-0.150000X0.587500X-0.150000X-0.587500X0*%
%ADD36R,2.100000X1.800000*%
%ADD37RoundRect,0.125000X0.625000X0.125000X-0.625000X0.125000X-0.625000X-0.125000X0.625000X-0.125000X0*%
%ADD38RoundRect,0.125000X0.125000X0.625000X-0.125000X0.625000X-0.125000X-0.625000X0.125000X-0.625000X0*%
%ADD39RoundRect,0.225000X-0.225000X-0.250000X0.225000X-0.250000X0.225000X0.250000X-0.225000X0.250000X0*%
%ADD40R,3.250000X0.740000*%
%ADD41R,1.000000X1.000000*%
%ADD42C,3.000000*%
%ADD43RoundRect,0.140000X0.170000X-0.140000X0.170000X0.140000X-0.170000X0.140000X-0.170000X-0.140000X0*%
%ADD44RoundRect,0.200000X-0.275000X0.200000X-0.275000X-0.200000X0.275000X-0.200000X0.275000X0.200000X0*%
%ADD45RoundRect,0.250001X0.799999X-1.999999X0.799999X1.999999X-0.799999X1.999999X-0.799999X-1.999999X0*%
%ADD46RoundRect,0.250000X0.250000X0.475000X-0.250000X0.475000X-0.250000X-0.475000X0.250000X-0.475000X0*%
%ADD47R,2.200000X1.200000*%
%ADD48R,6.400000X5.800000*%
%ADD49R,1.600000X1.600000*%
%ADD50O,1.600000X1.600000*%
%ADD51RoundRect,0.150000X0.675000X0.150000X-0.675000X0.150000X-0.675000X-0.150000X0.675000X-0.150000X0*%
%ADD52RoundRect,0.225000X0.250000X-0.225000X0.250000X0.225000X-0.250000X0.225000X-0.250000X-0.225000X0*%
%ADD53RoundRect,0.381000X-0.381000X-0.381000X0.381000X-0.381000X0.381000X0.381000X-0.381000X0.381000X0*%
%ADD54RoundRect,0.150000X-0.150000X0.675000X-0.150000X-0.675000X0.150000X-0.675000X0.150000X0.675000X0*%
%ADD55RoundRect,0.250000X0.600000X0.675000X-0.600000X0.675000X-0.600000X-0.675000X0.600000X-0.675000X0*%
%ADD56O,1.700000X1.850000*%
%ADD57RoundRect,0.237500X-0.287500X-0.237500X0.287500X-0.237500X0.287500X0.237500X-0.287500X0.237500X0*%
%ADD58RoundRect,0.225000X-0.250000X0.225000X-0.250000X-0.225000X0.250000X-0.225000X0.250000X0.225000X0*%
%ADD59RoundRect,0.150000X0.825000X0.150000X-0.825000X0.150000X-0.825000X-0.150000X0.825000X-0.150000X0*%
%ADD60RoundRect,0.225000X0.225000X0.250000X-0.225000X0.250000X-0.225000X-0.250000X0.225000X-0.250000X0*%
%ADD61R,1.150000X1.500000*%
%ADD62R,1.500000X1.500000*%
%ADD63RoundRect,0.140000X0.140000X0.170000X-0.140000X0.170000X-0.140000X-0.170000X0.140000X-0.170000X0*%
%ADD64O,3.500000X3.500000*%
%ADD65R,1.905000X2.000000*%
%ADD66O,1.905000X2.000000*%
%ADD67RoundRect,0.150000X-0.587500X-0.150000X0.587500X-0.150000X0.587500X0.150000X-0.587500X0.150000X0*%
%ADD68RoundRect,0.150000X-0.150000X0.587500X-0.150000X-0.587500X0.150000X-0.587500X0.150000X0.587500X0*%
%ADD69RoundRect,0.200000X-0.200000X-0.275000X0.200000X-0.275000X0.200000X0.275000X-0.200000X0.275000X0*%
%ADD70R,2.413000X5.334000*%
%ADD71RoundRect,0.150000X0.150000X-0.675000X0.150000X0.675000X-0.150000X0.675000X-0.150000X-0.675000X0*%
%ADD72R,1.600000X1.400000*%
%ADD73C,1.400000*%
%ADD74R,3.500000X3.500000*%
%ADD75C,3.500000*%
%ADD76RotRect,1.600000X1.600000X225.000000*%
%ADD77C,1.600000*%
%ADD78RoundRect,0.250000X-0.475000X0.250000X-0.475000X-0.250000X0.475000X-0.250000X0.475000X0.250000X0*%
%ADD79RoundRect,0.250000X-0.600000X-0.675000X0.600000X-0.675000X0.600000X0.675000X-0.600000X0.675000X0*%
%ADD80RoundRect,0.200000X0.200000X0.275000X-0.200000X0.275000X-0.200000X-0.275000X0.200000X-0.275000X0*%
%ADD81R,1.200000X0.900000*%
%ADD82RoundRect,0.135000X-0.185000X0.135000X-0.185000X-0.135000X0.185000X-0.135000X0.185000X0.135000X0*%
G04 APERTURE END LIST*
D10*
X157220000Y-103360000D02*
X157220000Y-110760000D01*
X158020000Y-110060000D02*
X157220000Y-110060000D01*
X157220000Y-110060000D02*
X157220000Y-109260000D01*
X157220000Y-109260000D02*
X158020000Y-109260000D01*
X158020000Y-109260000D02*
X158020000Y-110060000D01*
X155120000Y-103360000D02*
G75*
G03*
X156120000Y-103360000I500000J0D01*
G01*
X154020000Y-110060000D02*
X153220000Y-110060000D01*
X153220000Y-110060000D02*
X153220000Y-109260000D01*
X153220000Y-109260000D02*
X154020000Y-109260000D01*
X154020000Y-109260000D02*
X154020000Y-110060000D01*
X115220000Y-67310000D02*
X115220000Y-72410000D01*
X158020000Y-107460000D02*
X157220000Y-107460000D01*
X157220000Y-107460000D02*
X157220000Y-106660000D01*
X157220000Y-106660000D02*
X158020000Y-106660000D01*
X158020000Y-106660000D02*
X158020000Y-107460000D01*
X158020000Y-106160000D02*
X157220000Y-106160000D01*
X157220000Y-106160000D02*
X157220000Y-105360000D01*
X157220000Y-105360000D02*
X158020000Y-105360000D01*
X158020000Y-105360000D02*
X158020000Y-106160000D01*
X154020000Y-103360000D02*
X155120000Y-103360000D01*
X158020000Y-104860000D02*
X157220000Y-104860000D01*
X157220000Y-104860000D02*
X157220000Y-104060000D01*
X157220000Y-104060000D02*
X158020000Y-104060000D01*
X158020000Y-104060000D02*
X158020000Y-104860000D01*
X123420000Y-67310000D02*
X123420000Y-72410000D01*
X154020000Y-110760000D02*
X157220000Y-110760000D01*
X154020000Y-104860000D02*
X153220000Y-104860000D01*
X153220000Y-104860000D02*
X153220000Y-104060000D01*
X153220000Y-104060000D02*
X154020000Y-104060000D01*
X154020000Y-104060000D02*
X154020000Y-104860000D01*
X113920000Y-67310000D02*
X113920000Y-72410000D01*
X154020000Y-106160000D02*
X153220000Y-106160000D01*
X153220000Y-106160000D02*
X153220000Y-105360000D01*
X153220000Y-105360000D02*
X154020000Y-105360000D01*
X154020000Y-105360000D02*
X154020000Y-106160000D01*
X158020000Y-108760000D02*
X157220000Y-108760000D01*
X157220000Y-108760000D02*
X157220000Y-107960000D01*
X157220000Y-107960000D02*
X158020000Y-107960000D01*
X158020000Y-107960000D02*
X158020000Y-108760000D01*
X154020000Y-108760000D02*
X153220000Y-108760000D01*
X153220000Y-108760000D02*
X153220000Y-107960000D01*
X153220000Y-107960000D02*
X154020000Y-107960000D01*
X154020000Y-107960000D02*
X154020000Y-108760000D01*
X156120000Y-103360000D02*
X157220000Y-103360000D01*
X105720000Y-67310000D02*
X105720000Y-72410000D01*
X154020000Y-107460000D02*
X153220000Y-107460000D01*
X153220000Y-107460000D02*
X153220000Y-106660000D01*
X153220000Y-106660000D02*
X154020000Y-106660000D01*
X154020000Y-106660000D02*
X154020000Y-107460000D01*
X154020000Y-103360000D02*
X154020000Y-110760000D01*
D11*
X116439047Y-69462380D02*
X117010476Y-69462380D01*
X116724761Y-70462380D02*
X116724761Y-69462380D01*
X117248571Y-69462380D02*
X117915238Y-70462380D01*
X117915238Y-69462380D02*
X117248571Y-70462380D01*
X118248571Y-69557619D02*
X118296190Y-69510000D01*
X118391428Y-69462380D01*
X118629523Y-69462380D01*
X118724761Y-69510000D01*
X118772380Y-69557619D01*
X118820000Y-69652857D01*
X118820000Y-69748095D01*
X118772380Y-69890952D01*
X118200952Y-70462380D01*
X118820000Y-70462380D01*
X119248571Y-70367142D02*
X119296190Y-70414761D01*
X119248571Y-70462380D01*
X119200952Y-70414761D01*
X119248571Y-70367142D01*
X119248571Y-70462380D01*
X119248571Y-69843333D02*
X119296190Y-69890952D01*
X119248571Y-69938571D01*
X119200952Y-69890952D01*
X119248571Y-69843333D01*
X119248571Y-69938571D01*
X119724761Y-70462380D02*
X119724761Y-69462380D01*
X120105714Y-69462380D01*
X120200952Y-69510000D01*
X120248571Y-69557619D01*
X120296190Y-69652857D01*
X120296190Y-69795714D01*
X120248571Y-69890952D01*
X120200952Y-69938571D01*
X120105714Y-69986190D01*
X119724761Y-69986190D01*
X120677142Y-70176666D02*
X121153333Y-70176666D01*
X120581904Y-70462380D02*
X120915238Y-69462380D01*
X121248571Y-70462380D01*
X121534285Y-69557619D02*
X121581904Y-69510000D01*
X121677142Y-69462380D01*
X121915238Y-69462380D01*
X122010476Y-69510000D01*
X122058095Y-69557619D01*
X122105714Y-69652857D01*
X122105714Y-69748095D01*
X122058095Y-69890952D01*
X121486666Y-70462380D01*
X122105714Y-70462380D01*
X95231904Y-84762380D02*
X95231904Y-83762380D01*
X95612857Y-83762380D01*
X95708095Y-83810000D01*
X95755714Y-83857619D01*
X95803333Y-83952857D01*
X95803333Y-84095714D01*
X95755714Y-84190952D01*
X95708095Y-84238571D01*
X95612857Y-84286190D01*
X95231904Y-84286190D01*
X96803333Y-84667142D02*
X96755714Y-84714761D01*
X96612857Y-84762380D01*
X96517619Y-84762380D01*
X96374761Y-84714761D01*
X96279523Y-84619523D01*
X96231904Y-84524285D01*
X96184285Y-84333809D01*
X96184285Y-84190952D01*
X96231904Y-84000476D01*
X96279523Y-83905238D01*
X96374761Y-83810000D01*
X96517619Y-83762380D01*
X96612857Y-83762380D01*
X96755714Y-83810000D01*
X96803333Y-83857619D01*
X97660476Y-83762380D02*
X97470000Y-83762380D01*
X97374761Y-83810000D01*
X97327142Y-83857619D01*
X97231904Y-84000476D01*
X97184285Y-84190952D01*
X97184285Y-84571904D01*
X97231904Y-84667142D01*
X97279523Y-84714761D01*
X97374761Y-84762380D01*
X97565238Y-84762380D01*
X97660476Y-84714761D01*
X97708095Y-84667142D01*
X97755714Y-84571904D01*
X97755714Y-84333809D01*
X97708095Y-84238571D01*
X97660476Y-84190952D01*
X97565238Y-84143333D01*
X97374761Y-84143333D01*
X97279523Y-84190952D01*
X97231904Y-84238571D01*
X97184285Y-84333809D01*
D12*
X141386666Y-108207380D02*
X141386666Y-107207380D01*
X141624761Y-107207380D01*
X141767619Y-107255000D01*
X141862857Y-107350238D01*
X141910476Y-107445476D01*
X141958095Y-107635952D01*
X141958095Y-107778809D01*
X141910476Y-107969285D01*
X141862857Y-108064523D01*
X141767619Y-108159761D01*
X141624761Y-108207380D01*
X141386666Y-108207380D01*
X142767619Y-108159761D02*
X142672380Y-108207380D01*
X142481904Y-108207380D01*
X142386666Y-108159761D01*
X142339047Y-108064523D01*
X142339047Y-107683571D01*
X142386666Y-107588333D01*
X142481904Y-107540714D01*
X142672380Y-107540714D01*
X142767619Y-107588333D01*
X142815238Y-107683571D01*
X142815238Y-107778809D01*
X142339047Y-107874047D01*
X143196190Y-108159761D02*
X143291428Y-108207380D01*
X143481904Y-108207380D01*
X143577142Y-108159761D01*
X143624761Y-108064523D01*
X143624761Y-108016904D01*
X143577142Y-107921666D01*
X143481904Y-107874047D01*
X143339047Y-107874047D01*
X143243809Y-107826428D01*
X143196190Y-107731190D01*
X143196190Y-107683571D01*
X143243809Y-107588333D01*
X143339047Y-107540714D01*
X143481904Y-107540714D01*
X143577142Y-107588333D01*
X144053333Y-108207380D02*
X144053333Y-107540714D01*
X144053333Y-107207380D02*
X144005714Y-107255000D01*
X144053333Y-107302619D01*
X144100952Y-107255000D01*
X144053333Y-107207380D01*
X144053333Y-107302619D01*
X144958095Y-107540714D02*
X144958095Y-108350238D01*
X144910476Y-108445476D01*
X144862857Y-108493095D01*
X144767619Y-108540714D01*
X144624761Y-108540714D01*
X144529523Y-108493095D01*
X144958095Y-108159761D02*
X144862857Y-108207380D01*
X144672380Y-108207380D01*
X144577142Y-108159761D01*
X144529523Y-108112142D01*
X144481904Y-108016904D01*
X144481904Y-107731190D01*
X144529523Y-107635952D01*
X144577142Y-107588333D01*
X144672380Y-107540714D01*
X144862857Y-107540714D01*
X144958095Y-107588333D01*
X145434285Y-107540714D02*
X145434285Y-108207380D01*
X145434285Y-107635952D02*
X145481904Y-107588333D01*
X145577142Y-107540714D01*
X145720000Y-107540714D01*
X145815238Y-107588333D01*
X145862857Y-107683571D01*
X145862857Y-108207380D01*
X146720000Y-108159761D02*
X146624761Y-108207380D01*
X146434285Y-108207380D01*
X146339047Y-108159761D01*
X146291428Y-108064523D01*
X146291428Y-107683571D01*
X146339047Y-107588333D01*
X146434285Y-107540714D01*
X146624761Y-107540714D01*
X146720000Y-107588333D01*
X146767619Y-107683571D01*
X146767619Y-107778809D01*
X146291428Y-107874047D01*
X147624761Y-108207380D02*
X147624761Y-107207380D01*
X147624761Y-108159761D02*
X147529523Y-108207380D01*
X147339047Y-108207380D01*
X147243809Y-108159761D01*
X147196190Y-108112142D01*
X147148571Y-108016904D01*
X147148571Y-107731190D01*
X147196190Y-107635952D01*
X147243809Y-107588333D01*
X147339047Y-107540714D01*
X147529523Y-107540714D01*
X147624761Y-107588333D01*
X148862857Y-108207380D02*
X148862857Y-107207380D01*
X148862857Y-107588333D02*
X148958095Y-107540714D01*
X149148571Y-107540714D01*
X149243809Y-107588333D01*
X149291428Y-107635952D01*
X149339047Y-107731190D01*
X149339047Y-108016904D01*
X149291428Y-108112142D01*
X149243809Y-108159761D01*
X149148571Y-108207380D01*
X148958095Y-108207380D01*
X148862857Y-108159761D01*
X149672380Y-107540714D02*
X149910476Y-108207380D01*
X150148571Y-107540714D02*
X149910476Y-108207380D01*
X149815238Y-108445476D01*
X149767619Y-108493095D01*
X149672380Y-108540714D01*
X140029523Y-109341190D02*
X139981904Y-109293571D01*
X139886666Y-109245952D01*
X139791428Y-109245952D01*
X139696190Y-109293571D01*
X139648571Y-109341190D01*
X139600952Y-109436428D01*
X139600952Y-109531666D01*
X139648571Y-109626904D01*
X139696190Y-109674523D01*
X139791428Y-109722142D01*
X139886666Y-109722142D01*
X139981904Y-109674523D01*
X140029523Y-109626904D01*
X140029523Y-109245952D02*
X140029523Y-109626904D01*
X140077142Y-109674523D01*
X140124761Y-109674523D01*
X140220000Y-109626904D01*
X140267619Y-109531666D01*
X140267619Y-109293571D01*
X140172380Y-109150714D01*
X140029523Y-109055476D01*
X139839047Y-109007857D01*
X139648571Y-109055476D01*
X139505714Y-109150714D01*
X139410476Y-109293571D01*
X139362857Y-109484047D01*
X139410476Y-109674523D01*
X139505714Y-109817380D01*
X139648571Y-109912619D01*
X139839047Y-109960238D01*
X140029523Y-109912619D01*
X140172380Y-109817380D01*
X141124761Y-109769761D02*
X141029523Y-109817380D01*
X140839047Y-109817380D01*
X140743809Y-109769761D01*
X140696190Y-109722142D01*
X140648571Y-109626904D01*
X140648571Y-109341190D01*
X140696190Y-109245952D01*
X140743809Y-109198333D01*
X140839047Y-109150714D01*
X141029523Y-109150714D01*
X141124761Y-109198333D01*
X141981904Y-109817380D02*
X141981904Y-109293571D01*
X141934285Y-109198333D01*
X141839047Y-109150714D01*
X141648571Y-109150714D01*
X141553333Y-109198333D01*
X141981904Y-109769761D02*
X141886666Y-109817380D01*
X141648571Y-109817380D01*
X141553333Y-109769761D01*
X141505714Y-109674523D01*
X141505714Y-109579285D01*
X141553333Y-109484047D01*
X141648571Y-109436428D01*
X141886666Y-109436428D01*
X141981904Y-109388809D01*
X142315238Y-109150714D02*
X142696190Y-109150714D01*
X142458095Y-108817380D02*
X142458095Y-109674523D01*
X142505714Y-109769761D01*
X142600952Y-109817380D01*
X142696190Y-109817380D01*
X142791428Y-109912619D02*
X143553333Y-109912619D01*
X143791428Y-109150714D02*
X143791428Y-109817380D01*
X143791428Y-109245952D02*
X143839047Y-109198333D01*
X143934285Y-109150714D01*
X144077142Y-109150714D01*
X144172380Y-109198333D01*
X144220000Y-109293571D01*
X144220000Y-109817380D01*
X145077142Y-109769761D02*
X144981904Y-109817380D01*
X144791428Y-109817380D01*
X144696190Y-109769761D01*
X144648571Y-109674523D01*
X144648571Y-109293571D01*
X144696190Y-109198333D01*
X144791428Y-109150714D01*
X144981904Y-109150714D01*
X145077142Y-109198333D01*
X145124761Y-109293571D01*
X145124761Y-109388809D01*
X144648571Y-109484047D01*
X145553333Y-109817380D02*
X145553333Y-108817380D01*
X145648571Y-109436428D02*
X145934285Y-109817380D01*
X145934285Y-109150714D02*
X145553333Y-109531666D01*
X146505714Y-109817380D02*
X146410476Y-109769761D01*
X146362857Y-109722142D01*
X146315238Y-109626904D01*
X146315238Y-109341190D01*
X146362857Y-109245952D01*
X146410476Y-109198333D01*
X146505714Y-109150714D01*
X146648571Y-109150714D01*
X146743809Y-109198333D01*
X146791428Y-109245952D01*
X146839047Y-109341190D01*
X146839047Y-109626904D01*
X146791428Y-109722142D01*
X146743809Y-109769761D01*
X146648571Y-109817380D01*
X146505714Y-109817380D01*
X147267619Y-109150714D02*
X147267619Y-109817380D01*
X147267619Y-109245952D02*
X147315238Y-109198333D01*
X147410476Y-109150714D01*
X147553333Y-109150714D01*
X147648571Y-109198333D01*
X147696190Y-109293571D01*
X147696190Y-109817380D01*
X148553333Y-109769761D02*
X148458095Y-109817380D01*
X148267619Y-109817380D01*
X148172380Y-109769761D01*
X148124761Y-109674523D01*
X148124761Y-109293571D01*
X148172380Y-109198333D01*
X148267619Y-109150714D01*
X148458095Y-109150714D01*
X148553333Y-109198333D01*
X148600952Y-109293571D01*
X148600952Y-109388809D01*
X148124761Y-109484047D01*
X149029523Y-109817380D02*
X149029523Y-108817380D01*
X149124761Y-109436428D02*
X149410476Y-109817380D01*
X149410476Y-109150714D02*
X149029523Y-109531666D01*
X149981904Y-109817380D02*
X149886666Y-109769761D01*
X149839047Y-109722142D01*
X149791428Y-109626904D01*
X149791428Y-109341190D01*
X149839047Y-109245952D01*
X149886666Y-109198333D01*
X149981904Y-109150714D01*
X150124761Y-109150714D01*
X150220000Y-109198333D01*
X150267619Y-109245952D01*
X150315238Y-109341190D01*
X150315238Y-109626904D01*
X150267619Y-109722142D01*
X150220000Y-109769761D01*
X150124761Y-109817380D01*
X149981904Y-109817380D01*
X150743809Y-109150714D02*
X150743809Y-109817380D01*
X150743809Y-109245952D02*
X150791428Y-109198333D01*
X150886666Y-109150714D01*
X151029523Y-109150714D01*
X151124761Y-109198333D01*
X151172380Y-109293571D01*
X151172380Y-109817380D01*
X152029523Y-109769761D02*
X151934285Y-109817380D01*
X151743809Y-109817380D01*
X151648571Y-109769761D01*
X151600952Y-109674523D01*
X151600952Y-109293571D01*
X151648571Y-109198333D01*
X151743809Y-109150714D01*
X151934285Y-109150714D01*
X152029523Y-109198333D01*
X152077142Y-109293571D01*
X152077142Y-109388809D01*
X151600952Y-109484047D01*
D11*
X158731904Y-107562380D02*
X158731904Y-106562380D01*
X159112857Y-106562380D01*
X159208095Y-106610000D01*
X159255714Y-106657619D01*
X159303333Y-106752857D01*
X159303333Y-106895714D01*
X159255714Y-106990952D01*
X159208095Y-107038571D01*
X159112857Y-107086190D01*
X158731904Y-107086190D01*
X160065238Y-107038571D02*
X160208095Y-107086190D01*
X160255714Y-107133809D01*
X160303333Y-107229047D01*
X160303333Y-107371904D01*
X160255714Y-107467142D01*
X160208095Y-107514761D01*
X160112857Y-107562380D01*
X159731904Y-107562380D01*
X159731904Y-106562380D01*
X160065238Y-106562380D01*
X160160476Y-106610000D01*
X160208095Y-106657619D01*
X160255714Y-106752857D01*
X160255714Y-106848095D01*
X160208095Y-106943333D01*
X160160476Y-106990952D01*
X160065238Y-107038571D01*
X159731904Y-107038571D01*
X161160476Y-106895714D02*
X161160476Y-107562380D01*
X160922380Y-106514761D02*
X160684285Y-107229047D01*
X161303333Y-107229047D01*
X91981904Y-83412380D02*
X91981904Y-82412380D01*
X92362857Y-82412380D01*
X92458095Y-82460000D01*
X92505714Y-82507619D01*
X92553333Y-82602857D01*
X92553333Y-82745714D01*
X92505714Y-82840952D01*
X92458095Y-82888571D01*
X92362857Y-82936190D01*
X91981904Y-82936190D01*
X93315238Y-82888571D02*
X93458095Y-82936190D01*
X93505714Y-82983809D01*
X93553333Y-83079047D01*
X93553333Y-83221904D01*
X93505714Y-83317142D01*
X93458095Y-83364761D01*
X93362857Y-83412380D01*
X92981904Y-83412380D01*
X92981904Y-82412380D01*
X93315238Y-82412380D01*
X93410476Y-82460000D01*
X93458095Y-82507619D01*
X93505714Y-82602857D01*
X93505714Y-82698095D01*
X93458095Y-82793333D01*
X93410476Y-82840952D01*
X93315238Y-82888571D01*
X92981904Y-82888571D01*
X93934285Y-82507619D02*
X93981904Y-82460000D01*
X94077142Y-82412380D01*
X94315238Y-82412380D01*
X94410476Y-82460000D01*
X94458095Y-82507619D01*
X94505714Y-82602857D01*
X94505714Y-82698095D01*
X94458095Y-82840952D01*
X93886666Y-83412380D01*
X94505714Y-83412380D01*
D13*
X93148571Y-80024285D02*
X91648571Y-80024285D01*
X93148571Y-79167142D01*
X91648571Y-79167142D01*
X93148571Y-77595714D02*
X92434285Y-78095714D01*
X93148571Y-78452857D02*
X91648571Y-78452857D01*
X91648571Y-77881428D01*
X91720000Y-77738571D01*
X91791428Y-77667142D01*
X91934285Y-77595714D01*
X92148571Y-77595714D01*
X92291428Y-77667142D01*
X92362857Y-77738571D01*
X92434285Y-77881428D01*
X92434285Y-78452857D01*
X93077142Y-77024285D02*
X93148571Y-76810000D01*
X93148571Y-76452857D01*
X93077142Y-76310000D01*
X93005714Y-76238571D01*
X92862857Y-76167142D01*
X92720000Y-76167142D01*
X92577142Y-76238571D01*
X92505714Y-76310000D01*
X92434285Y-76452857D01*
X92362857Y-76738571D01*
X92291428Y-76881428D01*
X92220000Y-76952857D01*
X92077142Y-77024285D01*
X91934285Y-77024285D01*
X91791428Y-76952857D01*
X91720000Y-76881428D01*
X91648571Y-76738571D01*
X91648571Y-76381428D01*
X91720000Y-76167142D01*
X91648571Y-75738571D02*
X91648571Y-74881428D01*
X93148571Y-75310000D02*
X91648571Y-75310000D01*
D11*
X158756904Y-106187380D02*
X158756904Y-105187380D01*
X159137857Y-105187380D01*
X159233095Y-105235000D01*
X159280714Y-105282619D01*
X159328333Y-105377857D01*
X159328333Y-105520714D01*
X159280714Y-105615952D01*
X159233095Y-105663571D01*
X159137857Y-105711190D01*
X158756904Y-105711190D01*
X160090238Y-105663571D02*
X160233095Y-105711190D01*
X160280714Y-105758809D01*
X160328333Y-105854047D01*
X160328333Y-105996904D01*
X160280714Y-106092142D01*
X160233095Y-106139761D01*
X160137857Y-106187380D01*
X159756904Y-106187380D01*
X159756904Y-105187380D01*
X160090238Y-105187380D01*
X160185476Y-105235000D01*
X160233095Y-105282619D01*
X160280714Y-105377857D01*
X160280714Y-105473095D01*
X160233095Y-105568333D01*
X160185476Y-105615952D01*
X160090238Y-105663571D01*
X159756904Y-105663571D01*
X160661666Y-105187380D02*
X161280714Y-105187380D01*
X160947380Y-105568333D01*
X161090238Y-105568333D01*
X161185476Y-105615952D01*
X161233095Y-105663571D01*
X161280714Y-105758809D01*
X161280714Y-105996904D01*
X161233095Y-106092142D01*
X161185476Y-106139761D01*
X161090238Y-106187380D01*
X160804523Y-106187380D01*
X160709285Y-106139761D01*
X160661666Y-106092142D01*
X92981904Y-94512380D02*
X92981904Y-93512380D01*
X93362857Y-93512380D01*
X93458095Y-93560000D01*
X93505714Y-93607619D01*
X93553333Y-93702857D01*
X93553333Y-93845714D01*
X93505714Y-93940952D01*
X93458095Y-93988571D01*
X93362857Y-94036190D01*
X92981904Y-94036190D01*
X94315238Y-93988571D02*
X94458095Y-94036190D01*
X94505714Y-94083809D01*
X94553333Y-94179047D01*
X94553333Y-94321904D01*
X94505714Y-94417142D01*
X94458095Y-94464761D01*
X94362857Y-94512380D01*
X93981904Y-94512380D01*
X93981904Y-93512380D01*
X94315238Y-93512380D01*
X94410476Y-93560000D01*
X94458095Y-93607619D01*
X94505714Y-93702857D01*
X94505714Y-93798095D01*
X94458095Y-93893333D01*
X94410476Y-93940952D01*
X94315238Y-93988571D01*
X93981904Y-93988571D01*
X95124761Y-93940952D02*
X95029523Y-93893333D01*
X94981904Y-93845714D01*
X94934285Y-93750476D01*
X94934285Y-93702857D01*
X94981904Y-93607619D01*
X95029523Y-93560000D01*
X95124761Y-93512380D01*
X95315238Y-93512380D01*
X95410476Y-93560000D01*
X95458095Y-93607619D01*
X95505714Y-93702857D01*
X95505714Y-93750476D01*
X95458095Y-93845714D01*
X95410476Y-93893333D01*
X95315238Y-93940952D01*
X95124761Y-93940952D01*
X95029523Y-93988571D01*
X94981904Y-94036190D01*
X94934285Y-94131428D01*
X94934285Y-94321904D01*
X94981904Y-94417142D01*
X95029523Y-94464761D01*
X95124761Y-94512380D01*
X95315238Y-94512380D01*
X95410476Y-94464761D01*
X95458095Y-94417142D01*
X95505714Y-94321904D01*
X95505714Y-94131428D01*
X95458095Y-94036190D01*
X95410476Y-93988571D01*
X95315238Y-93940952D01*
X158756904Y-108937380D02*
X158756904Y-107937380D01*
X159137857Y-107937380D01*
X159233095Y-107985000D01*
X159280714Y-108032619D01*
X159328333Y-108127857D01*
X159328333Y-108270714D01*
X159280714Y-108365952D01*
X159233095Y-108413571D01*
X159137857Y-108461190D01*
X158756904Y-108461190D01*
X160090238Y-108413571D02*
X160233095Y-108461190D01*
X160280714Y-108508809D01*
X160328333Y-108604047D01*
X160328333Y-108746904D01*
X160280714Y-108842142D01*
X160233095Y-108889761D01*
X160137857Y-108937380D01*
X159756904Y-108937380D01*
X159756904Y-107937380D01*
X160090238Y-107937380D01*
X160185476Y-107985000D01*
X160233095Y-108032619D01*
X160280714Y-108127857D01*
X160280714Y-108223095D01*
X160233095Y-108318333D01*
X160185476Y-108365952D01*
X160090238Y-108413571D01*
X159756904Y-108413571D01*
X161233095Y-107937380D02*
X160756904Y-107937380D01*
X160709285Y-108413571D01*
X160756904Y-108365952D01*
X160852142Y-108318333D01*
X161090238Y-108318333D01*
X161185476Y-108365952D01*
X161233095Y-108413571D01*
X161280714Y-108508809D01*
X161280714Y-108746904D01*
X161233095Y-108842142D01*
X161185476Y-108889761D01*
X161090238Y-108937380D01*
X160852142Y-108937380D01*
X160756904Y-108889761D01*
X160709285Y-108842142D01*
X158756904Y-110337380D02*
X158756904Y-109337380D01*
X159137857Y-109337380D01*
X159233095Y-109385000D01*
X159280714Y-109432619D01*
X159328333Y-109527857D01*
X159328333Y-109670714D01*
X159280714Y-109765952D01*
X159233095Y-109813571D01*
X159137857Y-109861190D01*
X158756904Y-109861190D01*
X160090238Y-109813571D02*
X160233095Y-109861190D01*
X160280714Y-109908809D01*
X160328333Y-110004047D01*
X160328333Y-110146904D01*
X160280714Y-110242142D01*
X160233095Y-110289761D01*
X160137857Y-110337380D01*
X159756904Y-110337380D01*
X159756904Y-109337380D01*
X160090238Y-109337380D01*
X160185476Y-109385000D01*
X160233095Y-109432619D01*
X160280714Y-109527857D01*
X160280714Y-109623095D01*
X160233095Y-109718333D01*
X160185476Y-109765952D01*
X160090238Y-109813571D01*
X159756904Y-109813571D01*
X161185476Y-109337380D02*
X160995000Y-109337380D01*
X160899761Y-109385000D01*
X160852142Y-109432619D01*
X160756904Y-109575476D01*
X160709285Y-109765952D01*
X160709285Y-110146904D01*
X160756904Y-110242142D01*
X160804523Y-110289761D01*
X160899761Y-110337380D01*
X161090238Y-110337380D01*
X161185476Y-110289761D01*
X161233095Y-110242142D01*
X161280714Y-110146904D01*
X161280714Y-109908809D01*
X161233095Y-109813571D01*
X161185476Y-109765952D01*
X161090238Y-109718333D01*
X160899761Y-109718333D01*
X160804523Y-109765952D01*
X160756904Y-109813571D01*
X160709285Y-109908809D01*
X95077142Y-83412380D02*
X95077142Y-82412380D01*
X95458095Y-82412380D01*
X95553333Y-82460000D01*
X95600952Y-82507619D01*
X95648571Y-82602857D01*
X95648571Y-82745714D01*
X95600952Y-82840952D01*
X95553333Y-82888571D01*
X95458095Y-82936190D01*
X95077142Y-82936190D01*
X96029523Y-83126666D02*
X96505714Y-83126666D01*
X95934285Y-83412380D02*
X96267619Y-82412380D01*
X96600952Y-83412380D01*
X97458095Y-83412380D02*
X96886666Y-83412380D01*
X97172380Y-83412380D02*
X97172380Y-82412380D01*
X97077142Y-82555238D01*
X96981904Y-82650476D01*
X96886666Y-82698095D01*
X98410476Y-83412380D02*
X97839047Y-83412380D01*
X98124761Y-83412380D02*
X98124761Y-82412380D01*
X98029523Y-82555238D01*
X97934285Y-82650476D01*
X97839047Y-82698095D01*
X116558095Y-71862380D02*
X116224761Y-71386190D01*
X115986666Y-71862380D02*
X115986666Y-70862380D01*
X116367619Y-70862380D01*
X116462857Y-70910000D01*
X116510476Y-70957619D01*
X116558095Y-71052857D01*
X116558095Y-71195714D01*
X116510476Y-71290952D01*
X116462857Y-71338571D01*
X116367619Y-71386190D01*
X115986666Y-71386190D01*
X116891428Y-70862380D02*
X117558095Y-71862380D01*
X117558095Y-70862380D02*
X116891428Y-71862380D01*
X117891428Y-70957619D02*
X117939047Y-70910000D01*
X118034285Y-70862380D01*
X118272380Y-70862380D01*
X118367619Y-70910000D01*
X118415238Y-70957619D01*
X118462857Y-71052857D01*
X118462857Y-71148095D01*
X118415238Y-71290952D01*
X117843809Y-71862380D01*
X118462857Y-71862380D01*
X118891428Y-71767142D02*
X118939047Y-71814761D01*
X118891428Y-71862380D01*
X118843809Y-71814761D01*
X118891428Y-71767142D01*
X118891428Y-71862380D01*
X118891428Y-71243333D02*
X118939047Y-71290952D01*
X118891428Y-71338571D01*
X118843809Y-71290952D01*
X118891428Y-71243333D01*
X118891428Y-71338571D01*
X119367619Y-71862380D02*
X119367619Y-70862380D01*
X119748571Y-70862380D01*
X119843809Y-70910000D01*
X119891428Y-70957619D01*
X119939047Y-71052857D01*
X119939047Y-71195714D01*
X119891428Y-71290952D01*
X119843809Y-71338571D01*
X119748571Y-71386190D01*
X119367619Y-71386190D01*
X120320000Y-71576666D02*
X120796190Y-71576666D01*
X120224761Y-71862380D02*
X120558095Y-70862380D01*
X120891428Y-71862380D01*
X121748571Y-71862380D02*
X121177142Y-71862380D01*
X121462857Y-71862380D02*
X121462857Y-70862380D01*
X121367619Y-71005238D01*
X121272380Y-71100476D01*
X121177142Y-71148095D01*
X122653333Y-70862380D02*
X122177142Y-70862380D01*
X122129523Y-71338571D01*
X122177142Y-71290952D01*
X122272380Y-71243333D01*
X122510476Y-71243333D01*
X122605714Y-71290952D01*
X122653333Y-71338571D01*
X122700952Y-71433809D01*
X122700952Y-71671904D01*
X122653333Y-71767142D01*
X122605714Y-71814761D01*
X122510476Y-71862380D01*
X122272380Y-71862380D01*
X122177142Y-71814761D01*
X122129523Y-71767142D01*
D14*
X167412857Y-90388571D02*
X166212857Y-90388571D01*
X166212857Y-90102857D01*
X166270000Y-89931428D01*
X166384285Y-89817142D01*
X166498571Y-89760000D01*
X166727142Y-89702857D01*
X166898571Y-89702857D01*
X167127142Y-89760000D01*
X167241428Y-89817142D01*
X167355714Y-89931428D01*
X167412857Y-90102857D01*
X167412857Y-90388571D01*
X167412857Y-89188571D02*
X166212857Y-89188571D01*
X167412857Y-88617142D02*
X166212857Y-88617142D01*
X167412857Y-87931428D01*
X166212857Y-87931428D01*
D11*
X106989047Y-69562380D02*
X107560476Y-69562380D01*
X107274761Y-70562380D02*
X107274761Y-69562380D01*
X107798571Y-69562380D02*
X108465238Y-70562380D01*
X108465238Y-69562380D02*
X107798571Y-70562380D01*
X109370000Y-70562380D02*
X108798571Y-70562380D01*
X109084285Y-70562380D02*
X109084285Y-69562380D01*
X108989047Y-69705238D01*
X108893809Y-69800476D01*
X108798571Y-69848095D01*
X109798571Y-70467142D02*
X109846190Y-70514761D01*
X109798571Y-70562380D01*
X109750952Y-70514761D01*
X109798571Y-70467142D01*
X109798571Y-70562380D01*
X109798571Y-69943333D02*
X109846190Y-69990952D01*
X109798571Y-70038571D01*
X109750952Y-69990952D01*
X109798571Y-69943333D01*
X109798571Y-70038571D01*
X110274761Y-70562380D02*
X110274761Y-69562380D01*
X110655714Y-69562380D01*
X110750952Y-69610000D01*
X110798571Y-69657619D01*
X110846190Y-69752857D01*
X110846190Y-69895714D01*
X110798571Y-69990952D01*
X110750952Y-70038571D01*
X110655714Y-70086190D01*
X110274761Y-70086190D01*
X111227142Y-70276666D02*
X111703333Y-70276666D01*
X111131904Y-70562380D02*
X111465238Y-69562380D01*
X111798571Y-70562380D01*
X112179523Y-70562380D02*
X112370000Y-70562380D01*
X112465238Y-70514761D01*
X112512857Y-70467142D01*
X112608095Y-70324285D01*
X112655714Y-70133809D01*
X112655714Y-69752857D01*
X112608095Y-69657619D01*
X112560476Y-69610000D01*
X112465238Y-69562380D01*
X112274761Y-69562380D01*
X112179523Y-69610000D01*
X112131904Y-69657619D01*
X112084285Y-69752857D01*
X112084285Y-69990952D01*
X112131904Y-70086190D01*
X112179523Y-70133809D01*
X112274761Y-70181428D01*
X112465238Y-70181428D01*
X112560476Y-70133809D01*
X112608095Y-70086190D01*
X112655714Y-69990952D01*
X107108095Y-72062380D02*
X106774761Y-71586190D01*
X106536666Y-72062380D02*
X106536666Y-71062380D01*
X106917619Y-71062380D01*
X107012857Y-71110000D01*
X107060476Y-71157619D01*
X107108095Y-71252857D01*
X107108095Y-71395714D01*
X107060476Y-71490952D01*
X107012857Y-71538571D01*
X106917619Y-71586190D01*
X106536666Y-71586190D01*
X107441428Y-71062380D02*
X108108095Y-72062380D01*
X108108095Y-71062380D02*
X107441428Y-72062380D01*
X109012857Y-72062380D02*
X108441428Y-72062380D01*
X108727142Y-72062380D02*
X108727142Y-71062380D01*
X108631904Y-71205238D01*
X108536666Y-71300476D01*
X108441428Y-71348095D01*
X109441428Y-71967142D02*
X109489047Y-72014761D01*
X109441428Y-72062380D01*
X109393809Y-72014761D01*
X109441428Y-71967142D01*
X109441428Y-72062380D01*
X109441428Y-71443333D02*
X109489047Y-71490952D01*
X109441428Y-71538571D01*
X109393809Y-71490952D01*
X109441428Y-71443333D01*
X109441428Y-71538571D01*
X109917619Y-72062380D02*
X109917619Y-71062380D01*
X110298571Y-71062380D01*
X110393809Y-71110000D01*
X110441428Y-71157619D01*
X110489047Y-71252857D01*
X110489047Y-71395714D01*
X110441428Y-71490952D01*
X110393809Y-71538571D01*
X110298571Y-71586190D01*
X109917619Y-71586190D01*
X110870000Y-71776666D02*
X111346190Y-71776666D01*
X110774761Y-72062380D02*
X111108095Y-71062380D01*
X111441428Y-72062380D01*
X112298571Y-72062380D02*
X111727142Y-72062380D01*
X112012857Y-72062380D02*
X112012857Y-71062380D01*
X111917619Y-71205238D01*
X111822380Y-71300476D01*
X111727142Y-71348095D01*
X112917619Y-71062380D02*
X113012857Y-71062380D01*
X113108095Y-71110000D01*
X113155714Y-71157619D01*
X113203333Y-71252857D01*
X113250952Y-71443333D01*
X113250952Y-71681428D01*
X113203333Y-71871904D01*
X113155714Y-71967142D01*
X113108095Y-72014761D01*
X113012857Y-72062380D01*
X112917619Y-72062380D01*
X112822380Y-72014761D01*
X112774761Y-71967142D01*
X112727142Y-71871904D01*
X112679523Y-71681428D01*
X112679523Y-71443333D01*
X112727142Y-71252857D01*
X112774761Y-71157619D01*
X112822380Y-71110000D01*
X112917619Y-71062380D01*
X92981904Y-87012380D02*
X92981904Y-86012380D01*
X93362857Y-86012380D01*
X93458095Y-86060000D01*
X93505714Y-86107619D01*
X93553333Y-86202857D01*
X93553333Y-86345714D01*
X93505714Y-86440952D01*
X93458095Y-86488571D01*
X93362857Y-86536190D01*
X92981904Y-86536190D01*
X94315238Y-86488571D02*
X94458095Y-86536190D01*
X94505714Y-86583809D01*
X94553333Y-86679047D01*
X94553333Y-86821904D01*
X94505714Y-86917142D01*
X94458095Y-86964761D01*
X94362857Y-87012380D01*
X93981904Y-87012380D01*
X93981904Y-86012380D01*
X94315238Y-86012380D01*
X94410476Y-86060000D01*
X94458095Y-86107619D01*
X94505714Y-86202857D01*
X94505714Y-86298095D01*
X94458095Y-86393333D01*
X94410476Y-86440952D01*
X94315238Y-86488571D01*
X93981904Y-86488571D01*
X94886666Y-86012380D02*
X95553333Y-86012380D01*
X95124761Y-87012380D01*
D10*
X86597619Y-88980952D02*
X85883333Y-88980952D01*
X85740476Y-88933333D01*
X85645238Y-88838095D01*
X85597619Y-88695238D01*
X85597619Y-88600000D01*
X85597619Y-89933333D02*
X85597619Y-89457142D01*
X86597619Y-89457142D01*
X85692857Y-90838095D02*
X85645238Y-90790476D01*
X85597619Y-90647619D01*
X85597619Y-90552380D01*
X85645238Y-90409523D01*
X85740476Y-90314285D01*
X85835714Y-90266666D01*
X86026190Y-90219047D01*
X86169047Y-90219047D01*
X86359523Y-90266666D01*
X86454761Y-90314285D01*
X86550000Y-90409523D01*
X86597619Y-90552380D01*
X86597619Y-90647619D01*
X86550000Y-90790476D01*
X86502380Y-90838095D01*
X86597619Y-91552380D02*
X85883333Y-91552380D01*
X85740476Y-91504761D01*
X85645238Y-91409523D01*
X85597619Y-91266666D01*
X85597619Y-91171428D01*
X85597619Y-92504761D02*
X85597619Y-92028571D01*
X86597619Y-92028571D01*
X85692857Y-93409523D02*
X85645238Y-93361904D01*
X85597619Y-93219047D01*
X85597619Y-93123809D01*
X85645238Y-92980952D01*
X85740476Y-92885714D01*
X85835714Y-92838095D01*
X86026190Y-92790476D01*
X86169047Y-92790476D01*
X86359523Y-92838095D01*
X86454761Y-92885714D01*
X86550000Y-92980952D01*
X86597619Y-93123809D01*
X86597619Y-93219047D01*
X86550000Y-93361904D01*
X86502380Y-93409523D01*
X86597619Y-94123809D02*
X85883333Y-94123809D01*
X85740476Y-94076190D01*
X85645238Y-93980952D01*
X85597619Y-93838095D01*
X85597619Y-93742857D01*
X85597619Y-95076190D02*
X85597619Y-94600000D01*
X86597619Y-94600000D01*
X85692857Y-95980952D02*
X85645238Y-95933333D01*
X85597619Y-95790476D01*
X85597619Y-95695238D01*
X85645238Y-95552380D01*
X85740476Y-95457142D01*
X85835714Y-95409523D01*
X86026190Y-95361904D01*
X86169047Y-95361904D01*
X86359523Y-95409523D01*
X86454761Y-95457142D01*
X86550000Y-95552380D01*
X86597619Y-95695238D01*
X86597619Y-95790476D01*
X86550000Y-95933333D01*
X86502380Y-95980952D01*
X86597619Y-96695238D02*
X85883333Y-96695238D01*
X85740476Y-96647619D01*
X85645238Y-96552380D01*
X85597619Y-96409523D01*
X85597619Y-96314285D01*
X85597619Y-97647619D02*
X85597619Y-97171428D01*
X86597619Y-97171428D01*
X85692857Y-98552380D02*
X85645238Y-98504761D01*
X85597619Y-98361904D01*
X85597619Y-98266666D01*
X85645238Y-98123809D01*
X85740476Y-98028571D01*
X85835714Y-97980952D01*
X86026190Y-97933333D01*
X86169047Y-97933333D01*
X86359523Y-97980952D01*
X86454761Y-98028571D01*
X86550000Y-98123809D01*
X86597619Y-98266666D01*
X86597619Y-98361904D01*
X86550000Y-98504761D01*
X86502380Y-98552380D01*
D11*
X92053333Y-84912380D02*
X92053333Y-83912380D01*
X92434285Y-83912380D01*
X92529523Y-83960000D01*
X92577142Y-84007619D01*
X92624761Y-84102857D01*
X92624761Y-84245714D01*
X92577142Y-84340952D01*
X92529523Y-84388571D01*
X92434285Y-84436190D01*
X92053333Y-84436190D01*
X93005714Y-84626666D02*
X93481904Y-84626666D01*
X92910476Y-84912380D02*
X93243809Y-83912380D01*
X93577142Y-84912380D01*
X94053333Y-84340952D02*
X93958095Y-84293333D01*
X93910476Y-84245714D01*
X93862857Y-84150476D01*
X93862857Y-84102857D01*
X93910476Y-84007619D01*
X93958095Y-83960000D01*
X94053333Y-83912380D01*
X94243809Y-83912380D01*
X94339047Y-83960000D01*
X94386666Y-84007619D01*
X94434285Y-84102857D01*
X94434285Y-84150476D01*
X94386666Y-84245714D01*
X94339047Y-84293333D01*
X94243809Y-84340952D01*
X94053333Y-84340952D01*
X93958095Y-84388571D01*
X93910476Y-84436190D01*
X93862857Y-84531428D01*
X93862857Y-84721904D01*
X93910476Y-84817142D01*
X93958095Y-84864761D01*
X94053333Y-84912380D01*
X94243809Y-84912380D01*
X94339047Y-84864761D01*
X94386666Y-84817142D01*
X94434285Y-84721904D01*
X94434285Y-84531428D01*
X94386666Y-84436190D01*
X94339047Y-84388571D01*
X94243809Y-84340952D01*
X137636666Y-50262380D02*
X137970000Y-51262380D01*
X138303333Y-50262380D01*
X139208095Y-51167142D02*
X139160476Y-51214761D01*
X139017619Y-51262380D01*
X138922380Y-51262380D01*
X138779523Y-51214761D01*
X138684285Y-51119523D01*
X138636666Y-51024285D01*
X138589047Y-50833809D01*
X138589047Y-50690952D01*
X138636666Y-50500476D01*
X138684285Y-50405238D01*
X138779523Y-50310000D01*
X138922380Y-50262380D01*
X139017619Y-50262380D01*
X139160476Y-50310000D01*
X139208095Y-50357619D01*
X140208095Y-51167142D02*
X140160476Y-51214761D01*
X140017619Y-51262380D01*
X139922380Y-51262380D01*
X139779523Y-51214761D01*
X139684285Y-51119523D01*
X139636666Y-51024285D01*
X139589047Y-50833809D01*
X139589047Y-50690952D01*
X139636666Y-50500476D01*
X139684285Y-50405238D01*
X139779523Y-50310000D01*
X139922380Y-50262380D01*
X140017619Y-50262380D01*
X140160476Y-50310000D01*
X140208095Y-50357619D01*
D12*
X107320000Y-69195714D02*
X107081904Y-69195714D01*
X107081904Y-67767142D01*
X107320000Y-67767142D01*
X107653333Y-68814761D02*
X107796190Y-68862380D01*
X108034285Y-68862380D01*
X108129523Y-68814761D01*
X108177142Y-68767142D01*
X108224761Y-68671904D01*
X108224761Y-68576666D01*
X108177142Y-68481428D01*
X108129523Y-68433809D01*
X108034285Y-68386190D01*
X107843809Y-68338571D01*
X107748571Y-68290952D01*
X107700952Y-68243333D01*
X107653333Y-68148095D01*
X107653333Y-68052857D01*
X107700952Y-67957619D01*
X107748571Y-67910000D01*
X107843809Y-67862380D01*
X108081904Y-67862380D01*
X108224761Y-67910000D01*
X108510476Y-67862380D02*
X109081904Y-67862380D01*
X108796190Y-68862380D02*
X108796190Y-67862380D01*
X109891428Y-68862380D02*
X109415238Y-68862380D01*
X109415238Y-67862380D01*
X110224761Y-68862380D02*
X110224761Y-68195714D01*
X110224761Y-67862380D02*
X110177142Y-67910000D01*
X110224761Y-67957619D01*
X110272380Y-67910000D01*
X110224761Y-67862380D01*
X110224761Y-67957619D01*
X110700952Y-68195714D02*
X110700952Y-68862380D01*
X110700952Y-68290952D02*
X110748571Y-68243333D01*
X110843809Y-68195714D01*
X110986666Y-68195714D01*
X111081904Y-68243333D01*
X111129523Y-68338571D01*
X111129523Y-68862380D01*
X111605714Y-68862380D02*
X111605714Y-67862380D01*
X111700952Y-68481428D02*
X111986666Y-68862380D01*
X111986666Y-68195714D02*
X111605714Y-68576666D01*
X112320000Y-69195714D02*
X112558095Y-69195714D01*
X112558095Y-67767142D01*
X112320000Y-67767142D01*
D13*
X104898571Y-98524285D02*
X103398571Y-98524285D01*
X103398571Y-97952857D01*
X103470000Y-97810000D01*
X103541428Y-97738571D01*
X103684285Y-97667142D01*
X103898571Y-97667142D01*
X104041428Y-97738571D01*
X104112857Y-97810000D01*
X104184285Y-97952857D01*
X104184285Y-98524285D01*
X103398571Y-96738571D02*
X103398571Y-96452857D01*
X103470000Y-96310000D01*
X103612857Y-96167142D01*
X103898571Y-96095714D01*
X104398571Y-96095714D01*
X104684285Y-96167142D01*
X104827142Y-96310000D01*
X104898571Y-96452857D01*
X104898571Y-96738571D01*
X104827142Y-96881428D01*
X104684285Y-97024285D01*
X104398571Y-97095714D01*
X103898571Y-97095714D01*
X103612857Y-97024285D01*
X103470000Y-96881428D01*
X103398571Y-96738571D01*
X103398571Y-95595714D02*
X104898571Y-95238571D01*
X103827142Y-94952857D01*
X104898571Y-94667142D01*
X103398571Y-94310000D01*
X104112857Y-93738571D02*
X104112857Y-93238571D01*
X104898571Y-93024285D02*
X104898571Y-93738571D01*
X103398571Y-93738571D01*
X103398571Y-93024285D01*
X104898571Y-91524285D02*
X104184285Y-92024285D01*
X104898571Y-92381428D02*
X103398571Y-92381428D01*
X103398571Y-91810000D01*
X103470000Y-91667142D01*
X103541428Y-91595714D01*
X103684285Y-91524285D01*
X103898571Y-91524285D01*
X104041428Y-91595714D01*
X104112857Y-91667142D01*
X104184285Y-91810000D01*
X104184285Y-92381428D01*
D14*
X166370000Y-82224285D02*
X166312857Y-82338571D01*
X166312857Y-82510000D01*
X166370000Y-82681428D01*
X166484285Y-82795714D01*
X166598571Y-82852857D01*
X166827142Y-82910000D01*
X166998571Y-82910000D01*
X167227142Y-82852857D01*
X167341428Y-82795714D01*
X167455714Y-82681428D01*
X167512857Y-82510000D01*
X167512857Y-82395714D01*
X167455714Y-82224285D01*
X167398571Y-82167142D01*
X166998571Y-82167142D01*
X166998571Y-82395714D01*
X167512857Y-81652857D02*
X166312857Y-81652857D01*
X167512857Y-80967142D01*
X166312857Y-80967142D01*
X167512857Y-80395714D02*
X166312857Y-80395714D01*
X166312857Y-80110000D01*
X166370000Y-79938571D01*
X166484285Y-79824285D01*
X166598571Y-79767142D01*
X166827142Y-79710000D01*
X166998571Y-79710000D01*
X167227142Y-79767142D01*
X167341428Y-79824285D01*
X167455714Y-79938571D01*
X167512857Y-80110000D01*
X167512857Y-80395714D01*
D12*
X116822380Y-69095714D02*
X116584285Y-69095714D01*
X116584285Y-67667142D01*
X116822380Y-67667142D01*
X117774761Y-68762380D02*
X117441428Y-68286190D01*
X117203333Y-68762380D02*
X117203333Y-67762380D01*
X117584285Y-67762380D01*
X117679523Y-67810000D01*
X117727142Y-67857619D01*
X117774761Y-67952857D01*
X117774761Y-68095714D01*
X117727142Y-68190952D01*
X117679523Y-68238571D01*
X117584285Y-68286190D01*
X117203333Y-68286190D01*
X118155714Y-68714761D02*
X118298571Y-68762380D01*
X118536666Y-68762380D01*
X118631904Y-68714761D01*
X118679523Y-68667142D01*
X118727142Y-68571904D01*
X118727142Y-68476666D01*
X118679523Y-68381428D01*
X118631904Y-68333809D01*
X118536666Y-68286190D01*
X118346190Y-68238571D01*
X118250952Y-68190952D01*
X118203333Y-68143333D01*
X118155714Y-68048095D01*
X118155714Y-67952857D01*
X118203333Y-67857619D01*
X118250952Y-67810000D01*
X118346190Y-67762380D01*
X118584285Y-67762380D01*
X118727142Y-67810000D01*
X119584285Y-68095714D02*
X119584285Y-68762380D01*
X119346190Y-67714761D02*
X119108095Y-68429047D01*
X119727142Y-68429047D01*
X120250952Y-68190952D02*
X120155714Y-68143333D01*
X120108095Y-68095714D01*
X120060476Y-68000476D01*
X120060476Y-67952857D01*
X120108095Y-67857619D01*
X120155714Y-67810000D01*
X120250952Y-67762380D01*
X120441428Y-67762380D01*
X120536666Y-67810000D01*
X120584285Y-67857619D01*
X120631904Y-67952857D01*
X120631904Y-68000476D01*
X120584285Y-68095714D01*
X120536666Y-68143333D01*
X120441428Y-68190952D01*
X120250952Y-68190952D01*
X120155714Y-68238571D01*
X120108095Y-68286190D01*
X120060476Y-68381428D01*
X120060476Y-68571904D01*
X120108095Y-68667142D01*
X120155714Y-68714761D01*
X120250952Y-68762380D01*
X120441428Y-68762380D01*
X120536666Y-68714761D01*
X120584285Y-68667142D01*
X120631904Y-68571904D01*
X120631904Y-68381428D01*
X120584285Y-68286190D01*
X120536666Y-68238571D01*
X120441428Y-68190952D01*
X121536666Y-67762380D02*
X121060476Y-67762380D01*
X121012857Y-68238571D01*
X121060476Y-68190952D01*
X121155714Y-68143333D01*
X121393809Y-68143333D01*
X121489047Y-68190952D01*
X121536666Y-68238571D01*
X121584285Y-68333809D01*
X121584285Y-68571904D01*
X121536666Y-68667142D01*
X121489047Y-68714761D01*
X121393809Y-68762380D01*
X121155714Y-68762380D01*
X121060476Y-68714761D01*
X121012857Y-68667142D01*
X121917619Y-69095714D02*
X122155714Y-69095714D01*
X122155714Y-67667142D01*
X121917619Y-67667142D01*
D14*
X167105714Y-74602857D02*
X167105714Y-73688571D01*
X167562857Y-74145714D02*
X166648571Y-74145714D01*
X166362857Y-72545714D02*
X166362857Y-73117142D01*
X166934285Y-73174285D01*
X166877142Y-73117142D01*
X166820000Y-73002857D01*
X166820000Y-72717142D01*
X166877142Y-72602857D01*
X166934285Y-72545714D01*
X167048571Y-72488571D01*
X167334285Y-72488571D01*
X167448571Y-72545714D01*
X167505714Y-72602857D01*
X167562857Y-72717142D01*
X167562857Y-73002857D01*
X167505714Y-73117142D01*
X167448571Y-73174285D01*
X166362857Y-72145714D02*
X167562857Y-71745714D01*
X166362857Y-71345714D01*
D11*
X158777142Y-104762380D02*
X158777142Y-103762380D01*
X159158095Y-103762380D01*
X159253333Y-103810000D01*
X159300952Y-103857619D01*
X159348571Y-103952857D01*
X159348571Y-104095714D01*
X159300952Y-104190952D01*
X159253333Y-104238571D01*
X159158095Y-104286190D01*
X158777142Y-104286190D01*
X159729523Y-104476666D02*
X160205714Y-104476666D01*
X159634285Y-104762380D02*
X159967619Y-103762380D01*
X160300952Y-104762380D01*
X161158095Y-104762380D02*
X160586666Y-104762380D01*
X160872380Y-104762380D02*
X160872380Y-103762380D01*
X160777142Y-103905238D01*
X160681904Y-104000476D01*
X160586666Y-104048095D01*
X161539047Y-103857619D02*
X161586666Y-103810000D01*
X161681904Y-103762380D01*
X161920000Y-103762380D01*
X162015238Y-103810000D01*
X162062857Y-103857619D01*
X162110476Y-103952857D01*
X162110476Y-104048095D01*
X162062857Y-104190952D01*
X161491428Y-104762380D01*
X162110476Y-104762380D01*
X133493809Y-50262380D02*
X134112857Y-50262380D01*
X133779523Y-50643333D01*
X133922380Y-50643333D01*
X134017619Y-50690952D01*
X134065238Y-50738571D01*
X134112857Y-50833809D01*
X134112857Y-51071904D01*
X134065238Y-51167142D01*
X134017619Y-51214761D01*
X133922380Y-51262380D01*
X133636666Y-51262380D01*
X133541428Y-51214761D01*
X133493809Y-51167142D01*
X134541428Y-51167142D02*
X134589047Y-51214761D01*
X134541428Y-51262380D01*
X134493809Y-51214761D01*
X134541428Y-51167142D01*
X134541428Y-51262380D01*
X134922380Y-50262380D02*
X135541428Y-50262380D01*
X135208095Y-50643333D01*
X135350952Y-50643333D01*
X135446190Y-50690952D01*
X135493809Y-50738571D01*
X135541428Y-50833809D01*
X135541428Y-51071904D01*
X135493809Y-51167142D01*
X135446190Y-51214761D01*
X135350952Y-51262380D01*
X135065238Y-51262380D01*
X134970000Y-51214761D01*
X134922380Y-51167142D01*
X135827142Y-50262380D02*
X136160476Y-51262380D01*
X136493809Y-50262380D01*
D15*
X157577142Y-87702857D02*
X159862857Y-87702857D01*
X157291428Y-90274285D02*
X160434285Y-90274285D01*
X156434285Y-92274285D02*
X161005714Y-92274285D01*
X157291428Y-88845714D02*
X157291428Y-90274285D01*
X157291428Y-88845714D02*
X160434285Y-88845714D01*
X160434285Y-90274285D01*
X155291428Y-85702857D02*
X155291428Y-89988571D01*
X156434285Y-91131428D01*
X159291428Y-86560000D02*
X161005714Y-88274285D01*
X161005714Y-86560000D02*
X159862857Y-87131428D01*
X157005714Y-86560000D02*
X157577142Y-87131428D01*
X156148571Y-88560000D01*
X160148571Y-85702857D02*
X159291428Y-86560000D01*
X157862857Y-90845714D02*
X157862857Y-91702857D01*
X159005714Y-85417142D02*
X159577142Y-87131428D01*
X159862857Y-90560000D02*
X159291428Y-91702857D01*
X156148571Y-86845714D02*
X155577142Y-87988571D01*
X155005714Y-89988571D02*
X154148571Y-92274285D01*
X156720000Y-85988571D02*
X158434285Y-85702857D01*
X157577142Y-87417142D01*
X154434285Y-87131428D02*
X153862857Y-88560000D01*
X155291428Y-88560000D02*
X154720000Y-91417142D01*
D16*
X150554285Y-93924761D02*
X151697142Y-93924761D01*
X151125714Y-95924761D02*
X151125714Y-93924761D01*
X152649523Y-95924761D02*
X152459047Y-95829523D01*
X152363809Y-95734285D01*
X152268571Y-95543809D01*
X152268571Y-94972380D01*
X152363809Y-94781904D01*
X152459047Y-94686666D01*
X152649523Y-94591428D01*
X152935238Y-94591428D01*
X153125714Y-94686666D01*
X153220952Y-94781904D01*
X153316190Y-94972380D01*
X153316190Y-95543809D01*
X153220952Y-95734285D01*
X153125714Y-95829523D01*
X152935238Y-95924761D01*
X152649523Y-95924761D01*
X154173333Y-95924761D02*
X154173333Y-94591428D01*
X154173333Y-94781904D02*
X154268571Y-94686666D01*
X154459047Y-94591428D01*
X154744761Y-94591428D01*
X154935238Y-94686666D01*
X155030476Y-94877142D01*
X155030476Y-95924761D01*
X155030476Y-94877142D02*
X155125714Y-94686666D01*
X155316190Y-94591428D01*
X155601904Y-94591428D01*
X155792380Y-94686666D01*
X155887619Y-94877142D01*
X155887619Y-95924761D01*
X157125714Y-95924761D02*
X156935238Y-95829523D01*
X156840000Y-95734285D01*
X156744761Y-95543809D01*
X156744761Y-94972380D01*
X156840000Y-94781904D01*
X156935238Y-94686666D01*
X157125714Y-94591428D01*
X157411428Y-94591428D01*
X157601904Y-94686666D01*
X157697142Y-94781904D01*
X157792380Y-94972380D01*
X157792380Y-95543809D01*
X157697142Y-95734285D01*
X157601904Y-95829523D01*
X157411428Y-95924761D01*
X157125714Y-95924761D01*
X158554285Y-95829523D02*
X158744761Y-95924761D01*
X159125714Y-95924761D01*
X159316190Y-95829523D01*
X159411428Y-95639047D01*
X159411428Y-95543809D01*
X159316190Y-95353333D01*
X159125714Y-95258095D01*
X158840000Y-95258095D01*
X158649523Y-95162857D01*
X158554285Y-94972380D01*
X158554285Y-94877142D01*
X158649523Y-94686666D01*
X158840000Y-94591428D01*
X159125714Y-94591428D01*
X159316190Y-94686666D01*
X160268571Y-95924761D02*
X160268571Y-93924761D01*
X161125714Y-95924761D02*
X161125714Y-94877142D01*
X161030476Y-94686666D01*
X160840000Y-94591428D01*
X160554285Y-94591428D01*
X160363809Y-94686666D01*
X160268571Y-94781904D01*
X162078095Y-95924761D02*
X162078095Y-94591428D01*
X162078095Y-93924761D02*
X161982857Y-94020000D01*
X162078095Y-94115238D01*
X162173333Y-94020000D01*
X162078095Y-93924761D01*
X162078095Y-94115238D01*
X163030476Y-95924761D02*
X163030476Y-93924761D01*
X163030476Y-94686666D02*
X163220952Y-94591428D01*
X163601904Y-94591428D01*
X163792380Y-94686666D01*
X163887619Y-94781904D01*
X163982857Y-94972380D01*
X163982857Y-95543809D01*
X163887619Y-95734285D01*
X163792380Y-95829523D01*
X163601904Y-95924761D01*
X163220952Y-95924761D01*
X163030476Y-95829523D01*
X164840000Y-95924761D02*
X164840000Y-94591428D01*
X164840000Y-93924761D02*
X164744761Y-94020000D01*
X164840000Y-94115238D01*
X164935238Y-94020000D01*
X164840000Y-93924761D01*
X164840000Y-94115238D01*
D14*
X167662857Y-67238571D02*
X166462857Y-67238571D01*
X166462857Y-66952857D01*
X166520000Y-66781428D01*
X166634285Y-66667142D01*
X166748571Y-66610000D01*
X166977142Y-66552857D01*
X167148571Y-66552857D01*
X167377142Y-66610000D01*
X167491428Y-66667142D01*
X167605714Y-66781428D01*
X167662857Y-66952857D01*
X167662857Y-67238571D01*
X166462857Y-65810000D02*
X166462857Y-65581428D01*
X166520000Y-65467142D01*
X166634285Y-65352857D01*
X166862857Y-65295714D01*
X167262857Y-65295714D01*
X167491428Y-65352857D01*
X167605714Y-65467142D01*
X167662857Y-65581428D01*
X167662857Y-65810000D01*
X167605714Y-65924285D01*
X167491428Y-66038571D01*
X167262857Y-66095714D01*
X166862857Y-66095714D01*
X166634285Y-66038571D01*
X166520000Y-65924285D01*
X166462857Y-65810000D01*
X166462857Y-64781428D02*
X167434285Y-64781428D01*
X167548571Y-64724285D01*
X167605714Y-64667142D01*
X167662857Y-64552857D01*
X167662857Y-64324285D01*
X167605714Y-64210000D01*
X167548571Y-64152857D01*
X167434285Y-64095714D01*
X166462857Y-64095714D01*
X166462857Y-63695714D02*
X166462857Y-63010000D01*
X167662857Y-63352857D02*
X166462857Y-63352857D01*
D10*
%TO.C,D16*%
X161072380Y-59594285D02*
X161072380Y-60165714D01*
X161072380Y-59880000D02*
X160072380Y-59880000D01*
X160215238Y-59975238D01*
X160310476Y-60070476D01*
X160358095Y-60165714D01*
%TO.C,J1*%
X117398571Y-97742142D02*
X118541428Y-97742142D01*
X117970000Y-98313571D02*
X117970000Y-97170714D01*
X106398571Y-97742142D02*
X107541428Y-97742142D01*
%TO.C,J2*%
X106398571Y-64317142D02*
X107541428Y-64317142D01*
X117398571Y-64317142D02*
X118541428Y-64317142D01*
X117970000Y-64888571D02*
X117970000Y-63745714D01*
D11*
%TO.C,R25*%
X136342500Y-77972258D02*
X136342500Y-77497742D01*
X135297500Y-77972258D02*
X135297500Y-77497742D01*
%TO.C,D2*%
X86130000Y-85235000D02*
X86130000Y-83765000D01*
X86130000Y-83765000D02*
X83670000Y-83765000D01*
X83670000Y-85235000D02*
X86130000Y-85235000D01*
%TO.C,D7*%
X128800000Y-69959999D02*
X132700000Y-69959999D01*
X128800000Y-71959999D02*
X132700000Y-71959999D01*
X128800000Y-69959999D02*
X128800000Y-71959999D01*
%TO.C,D16*%
X154070000Y-58710000D02*
X154070000Y-66010000D01*
X154070000Y-66010000D02*
X155220000Y-66010000D01*
X159570000Y-58710000D02*
X159570000Y-66010000D01*
%TO.C,Q4*%
X150210000Y-76570000D02*
X150210000Y-77670000D01*
X143850000Y-76570000D02*
X143850000Y-79400000D01*
X150480000Y-75070000D02*
X150480000Y-76570000D01*
X143580000Y-75070000D02*
X143580000Y-76570000D01*
X143580000Y-76570000D02*
X143850000Y-76570000D01*
X150480000Y-76570000D02*
X150210000Y-76570000D01*
%TO.C,R29*%
X141623641Y-62180000D02*
X141316359Y-62180000D01*
X141623641Y-62940000D02*
X141316359Y-62940000D01*
%TO.C,TP4*%
X104920000Y-61310000D02*
G75*
G03*
X104920000Y-61310000I-1200000J0D01*
G01*
%TO.C,SW5*%
X92402000Y-94922000D02*
X101038000Y-94922000D01*
X101038000Y-94922000D02*
X101038000Y-98478000D01*
X92402000Y-98478000D02*
X92402000Y-94922000D01*
X101038000Y-98478000D02*
X92402000Y-98478000D01*
G36*
X102816000Y-100256000D02*
G01*
X96720000Y-100256000D01*
X96720000Y-97970000D01*
X100530000Y-97970000D01*
X100530000Y-95430000D01*
X96720000Y-95430000D01*
X96720000Y-93144000D01*
X102816000Y-93144000D01*
X102816000Y-100256000D01*
G37*
X102816000Y-100256000D02*
X96720000Y-100256000D01*
X96720000Y-97970000D01*
X100530000Y-97970000D01*
X100530000Y-95430000D01*
X96720000Y-95430000D01*
X96720000Y-93144000D01*
X102816000Y-93144000D01*
X102816000Y-100256000D01*
%TO.C,R36*%
X141778859Y-52130000D02*
X142086141Y-52130000D01*
X141778859Y-52890000D02*
X142086141Y-52890000D01*
%TO.C,R12*%
X119352500Y-77287258D02*
X119352500Y-76812742D01*
X118307500Y-77287258D02*
X118307500Y-76812742D01*
%TO.C,JP1*%
X91500000Y-66540000D02*
X91500000Y-63740000D01*
X93500000Y-66540000D02*
X91500000Y-66540000D01*
X93500000Y-63740000D02*
X93500000Y-66540000D01*
X91500000Y-63740000D02*
X93500000Y-63740000D01*
%TO.C,R20*%
X130930000Y-77863641D02*
X130930000Y-77556359D01*
X131690000Y-77863641D02*
X131690000Y-77556359D01*
%TO.C,C13*%
X105092164Y-75530000D02*
X105307836Y-75530000D01*
X105092164Y-74810000D02*
X105307836Y-74810000D01*
%TO.C,R11*%
X118307500Y-80367258D02*
X118307500Y-79892742D01*
X119352500Y-80367258D02*
X119352500Y-79892742D01*
%TO.C,C17*%
X151405563Y-56760000D02*
X149520000Y-56760000D01*
X143950000Y-57824437D02*
X143950000Y-65280000D01*
X152470000Y-57824437D02*
X152470000Y-65280000D01*
X145014437Y-56760000D02*
X146900000Y-56760000D01*
X152470000Y-65280000D02*
X149520000Y-65280000D01*
X151405563Y-56760000D02*
X152470000Y-57824437D01*
X143950000Y-65280000D02*
X146900000Y-65280000D01*
X145014437Y-56760000D02*
X143950000Y-57824437D01*
%TO.C,Q14*%
X101140000Y-66140000D02*
X101140000Y-65490000D01*
X104260000Y-66140000D02*
X104260000Y-66790000D01*
X104260000Y-66140000D02*
X104260000Y-65490000D01*
X101140000Y-66140000D02*
X101140000Y-67815000D01*
%TO.C,Y1*%
X107250000Y-77500000D02*
X112650000Y-77500000D01*
X107250000Y-73000000D02*
X107250000Y-77500000D01*
%TO.C,U6*%
X95660000Y-79980000D02*
X95360000Y-79980000D01*
X95360000Y-79980000D02*
X95360000Y-79680000D01*
X102580000Y-72760000D02*
X102580000Y-73060000D01*
X95360000Y-72760000D02*
X95360000Y-73060000D01*
X102280000Y-79980000D02*
X102580000Y-79980000D01*
X102280000Y-72760000D02*
X102580000Y-72760000D01*
X102580000Y-79980000D02*
X102580000Y-79680000D01*
X95660000Y-72760000D02*
X95360000Y-72760000D01*
X102580000Y-79680000D02*
X103895000Y-79680000D01*
%TO.C,C25*%
X144829420Y-94870000D02*
X145110580Y-94870000D01*
X144829420Y-93850000D02*
X145110580Y-93850000D01*
%TO.C,SW2*%
X101038000Y-90978000D02*
X92402000Y-90978000D01*
X92402000Y-90978000D02*
X92402000Y-87422000D01*
X92402000Y-87422000D02*
X101038000Y-87422000D01*
X101038000Y-87422000D02*
X101038000Y-90978000D01*
G36*
X102816000Y-92756000D02*
G01*
X96720000Y-92756000D01*
X96720000Y-90470000D01*
X100530000Y-90470000D01*
X100530000Y-87930000D01*
X96720000Y-87930000D01*
X96720000Y-85644000D01*
X102816000Y-85644000D01*
X102816000Y-92756000D01*
G37*
X102816000Y-92756000D02*
X96720000Y-92756000D01*
X96720000Y-90470000D01*
X100530000Y-90470000D01*
X100530000Y-87930000D01*
X96720000Y-87930000D01*
X96720000Y-85644000D01*
X102816000Y-85644000D01*
X102816000Y-92756000D01*
%TO.C,R27*%
X137490000Y-77333641D02*
X137490000Y-77026359D01*
X136730000Y-77333641D02*
X136730000Y-77026359D01*
%TO.C,J3*%
X87000000Y-64850000D02*
X87000000Y-64650000D01*
X87000000Y-66150000D02*
X87000000Y-65900000D01*
X82800000Y-67400000D02*
X82800000Y-67200000D01*
X86200000Y-68650000D02*
X86200000Y-68450000D01*
X87000000Y-60300000D02*
X82000000Y-60300000D01*
X87000000Y-67400000D02*
X87000000Y-67150000D01*
X82800000Y-64850000D02*
X82800000Y-64650000D01*
X86200000Y-63600000D02*
X86200000Y-61100000D01*
X82800000Y-66150000D02*
X82800000Y-65900000D01*
X82000000Y-63600000D02*
X82000000Y-60300000D01*
X82800000Y-68650000D02*
X82800000Y-68450000D01*
X86200000Y-67400000D02*
X86200000Y-67300000D01*
X87000000Y-68650000D02*
X87000000Y-68450000D01*
X86200000Y-64850000D02*
X86200000Y-64650000D01*
X86200000Y-67300000D02*
X87000000Y-67300000D01*
X82000000Y-66150000D02*
X82000000Y-65900000D01*
X86200000Y-61100000D02*
X82800000Y-61100000D01*
X82800000Y-63600000D02*
X82800000Y-61100000D01*
X82000000Y-64850000D02*
X82000000Y-64650000D01*
X87000000Y-66050000D02*
X86200000Y-66050000D01*
X87000000Y-63600000D02*
X87000000Y-60300000D01*
X82000000Y-73000000D02*
X82000000Y-69750000D01*
X82000000Y-68650000D02*
X82000000Y-68450000D01*
X86200000Y-72200000D02*
X86200000Y-69750000D01*
X87000000Y-73000000D02*
X87000000Y-69750000D01*
X82800000Y-72200000D02*
X82800000Y-69750000D01*
X82000000Y-67400000D02*
X82000000Y-67200000D01*
X86200000Y-72200000D02*
X82800000Y-72200000D01*
X86200000Y-66050000D02*
X86200000Y-65900000D01*
X87000000Y-73000000D02*
X82000000Y-73000000D01*
D17*
X87941803Y-70450000D02*
G75*
G03*
X87941803Y-70450000I-141803J0D01*
G01*
D11*
%TO.C,R5*%
X95623641Y-92330000D02*
X95316359Y-92330000D01*
X95623641Y-91570000D02*
X95316359Y-91570000D01*
%TO.C,R18*%
X95493641Y-99780000D02*
X95186359Y-99780000D01*
X95493641Y-99020000D02*
X95186359Y-99020000D01*
%TO.C,D11*%
X140230000Y-54080000D02*
X137080000Y-54080000D01*
X140230000Y-55780000D02*
X140230000Y-54080000D01*
X140230000Y-55780000D02*
X137080000Y-55780000D01*
%TO.C,R8*%
X112567500Y-91463641D02*
X112567500Y-91156359D01*
X111807500Y-91463641D02*
X111807500Y-91156359D01*
%TO.C,H5*%
X165620000Y-65130000D02*
G75*
G03*
X165620000Y-65130000I-1750000J0D01*
G01*
%TO.C,C9*%
X104350000Y-81997836D02*
X104350000Y-81782164D01*
X105070000Y-81997836D02*
X105070000Y-81782164D01*
%TO.C,R6*%
X80090000Y-95598641D02*
X80090000Y-95291359D01*
X80850000Y-95598641D02*
X80850000Y-95291359D01*
%TO.C,R28*%
X133697500Y-77497742D02*
X133697500Y-77972258D01*
X134742500Y-77497742D02*
X134742500Y-77972258D01*
%TO.C,R48*%
X140703641Y-78280001D02*
X140396359Y-78280001D01*
X140703641Y-79040001D02*
X140396359Y-79040001D01*
%TO.C,R41*%
X153156359Y-52130000D02*
X153463641Y-52130000D01*
X153156359Y-51370000D02*
X153463641Y-51370000D01*
%TO.C,C18*%
X120210000Y-62005563D02*
X120210000Y-54550000D01*
X120210000Y-54550000D02*
X123160000Y-54550000D01*
X121274437Y-63070000D02*
X120210000Y-62005563D01*
X128730000Y-62005563D02*
X128730000Y-54550000D01*
X128730000Y-54550000D02*
X125780000Y-54550000D01*
X127665563Y-63070000D02*
X125780000Y-63070000D01*
X121274437Y-63070000D02*
X123160000Y-63070000D01*
X127665563Y-63070000D02*
X128730000Y-62005563D01*
%TO.C,C7*%
X148281253Y-93095000D02*
X147758749Y-93095000D01*
X148281253Y-91625000D02*
X147758749Y-91625000D01*
%TO.C,R40*%
X99677500Y-66977742D02*
X99677500Y-67452258D01*
X100722500Y-66977742D02*
X100722500Y-67452258D01*
%TO.C,Q8*%
X131250000Y-89760000D02*
X131250000Y-89490000D01*
X131250000Y-89490000D02*
X130150000Y-89490000D01*
X131250000Y-83130000D02*
X128420000Y-83130000D01*
X132750000Y-82860000D02*
X131250000Y-82860000D01*
X131250000Y-82860000D02*
X131250000Y-83130000D01*
X132750000Y-89760000D02*
X131250000Y-89760000D01*
%TO.C,R13*%
X81873641Y-84120000D02*
X81566359Y-84120000D01*
X81873641Y-84880000D02*
X81566359Y-84880000D01*
%TO.C,R19*%
X123947500Y-91497258D02*
X123947500Y-91022742D01*
X124992500Y-91497258D02*
X124992500Y-91022742D01*
%TO.C,U2*%
X137260000Y-63000000D02*
X137260000Y-62730000D01*
X137260000Y-62730000D02*
X140090000Y-62730000D01*
X135760000Y-56100000D02*
X137260000Y-56100000D01*
X137260000Y-56100000D02*
X137260000Y-56370000D01*
X135760000Y-63000000D02*
X137260000Y-63000000D01*
X137260000Y-56370000D02*
X138360000Y-56370000D01*
%TO.C,SW1*%
X83580000Y-99360000D02*
X88880000Y-99360000D01*
X85230000Y-86540000D02*
X83580000Y-86540000D01*
X88880000Y-86540000D02*
X87230000Y-86540000D01*
X88880000Y-99360000D02*
X88880000Y-86540000D01*
X83580000Y-86540000D02*
X83580000Y-99360000D01*
X85230000Y-86540000D02*
G75*
G03*
X87230000Y-86540000I1000000J0D01*
G01*
%TO.C,U5*%
X109050000Y-83090000D02*
X112500000Y-83090000D01*
X109050000Y-77970000D02*
X107100000Y-77970000D01*
X109050000Y-83090000D02*
X107100000Y-83090000D01*
X109050000Y-77970000D02*
X111000000Y-77970000D01*
%TO.C,C23*%
X138680000Y-91610580D02*
X138680000Y-91329420D01*
X137660000Y-91610580D02*
X137660000Y-91329420D01*
%TO.C,SW3*%
X108748000Y-94628000D02*
X108748000Y-93815200D01*
X105192000Y-85992000D02*
X108748000Y-85992000D01*
X108748000Y-89548000D02*
X108748000Y-91783200D01*
X105192000Y-94628000D02*
X105192000Y-91326000D01*
X108748000Y-94628000D02*
X105192000Y-94628000D01*
G36*
X110526000Y-90310000D02*
G01*
X108240000Y-90310000D01*
X108240000Y-88836800D01*
X109306800Y-88836800D01*
X109560800Y-88582800D01*
X109560800Y-87058800D01*
X109306800Y-86804800D01*
X108240000Y-86804800D01*
X108240000Y-86500000D01*
X105700000Y-86500000D01*
X105700000Y-89294000D01*
X105039600Y-89294000D01*
X104480800Y-89751200D01*
X104328400Y-90310000D01*
X103414000Y-90310000D01*
X103414000Y-84214000D01*
X110526000Y-84214000D01*
X110526000Y-90310000D01*
G37*
X110526000Y-90310000D02*
X108240000Y-90310000D01*
X108240000Y-88836800D01*
X109306800Y-88836800D01*
X109560800Y-88582800D01*
X109560800Y-87058800D01*
X109306800Y-86804800D01*
X108240000Y-86804800D01*
X108240000Y-86500000D01*
X105700000Y-86500000D01*
X105700000Y-89294000D01*
X105039600Y-89294000D01*
X104480800Y-89751200D01*
X104328400Y-90310000D01*
X103414000Y-90310000D01*
X103414000Y-84214000D01*
X110526000Y-84214000D01*
X110526000Y-90310000D01*
%TO.C,D15*%
X134260000Y-53245000D02*
X136720000Y-53245000D01*
X136720000Y-53245000D02*
X136720000Y-51775000D01*
X136720000Y-51775000D02*
X134260000Y-51775000D01*
%TO.C,D1*%
X118420001Y-83460000D02*
X115270001Y-83460000D01*
X118420001Y-83460000D02*
X118420001Y-81760000D01*
X118420001Y-81760000D02*
X115270001Y-81760000D01*
%TO.C,R10*%
X112553859Y-85880000D02*
X112861141Y-85880000D01*
X112553859Y-86640000D02*
X112861141Y-86640000D01*
%TO.C,U3*%
X137995000Y-72300000D02*
X137995000Y-70350000D01*
X143115000Y-72300000D02*
X143115000Y-74250000D01*
X143115000Y-72300000D02*
X143115000Y-68850000D01*
X137995000Y-72300000D02*
X137995000Y-74250000D01*
%TO.C,Q5*%
X129810000Y-74209999D02*
X129810000Y-75884999D01*
X129810000Y-74209999D02*
X129810000Y-73559999D01*
X132930000Y-74209999D02*
X132930000Y-73559999D01*
X132930000Y-74209999D02*
X132930000Y-74859999D01*
%TO.C,J4*%
X103080000Y-57259999D02*
X103080000Y-59669999D01*
X90160000Y-59369999D02*
X102780000Y-59369999D01*
X90160000Y-51249999D02*
X90160000Y-59369999D01*
X102780000Y-59369999D02*
X102780000Y-51249999D01*
X103080000Y-59669999D02*
X100670000Y-59669999D01*
X102780000Y-51249999D02*
X90160000Y-51249999D01*
%TO.C,H6*%
X165550000Y-73180000D02*
G75*
G03*
X165550000Y-73180000I-1750000J0D01*
G01*
%TO.C,D4*%
X88770000Y-83765000D02*
X86310000Y-83765000D01*
X86310000Y-85235000D02*
X88770000Y-85235000D01*
X86310000Y-83765000D02*
X86310000Y-85235000D01*
%TO.C,C19*%
X157562164Y-57580000D02*
X157777836Y-57580000D01*
X157562164Y-58300000D02*
X157777836Y-58300000D01*
%TO.C,C5*%
X136310000Y-65569419D02*
X136310000Y-65850579D01*
X135290000Y-65569419D02*
X135290000Y-65850579D01*
%TO.C,U1*%
X131300000Y-64200000D02*
X133250000Y-64200000D01*
X131300000Y-69320000D02*
X134750000Y-69320000D01*
X131300000Y-69320000D02*
X129350000Y-69320000D01*
X131300000Y-64200000D02*
X129350000Y-64200000D01*
%TO.C,C11*%
X125360580Y-93250000D02*
X125079420Y-93250000D01*
X125360580Y-94270000D02*
X125079420Y-94270000D01*
%TO.C,RV1*%
X133870000Y-74760000D02*
X133870000Y-71160000D01*
X136470000Y-74760000D02*
X137270000Y-74760000D01*
X135370000Y-71160000D02*
X135770000Y-71160000D01*
X137270000Y-74760000D02*
X137270000Y-71160000D01*
X133870000Y-74760000D02*
X134670000Y-74760000D01*
%TO.C,R9*%
X113797500Y-91473641D02*
X113797500Y-91166359D01*
X114557500Y-91473641D02*
X114557500Y-91166359D01*
%TO.C,D9*%
X152600000Y-78210000D02*
X152600000Y-75060000D01*
X150900000Y-78210000D02*
X150900000Y-75060000D01*
X150900000Y-78210000D02*
X152600000Y-78210000D01*
%TO.C,C12*%
X105082164Y-77140000D02*
X105297836Y-77140000D01*
X105082164Y-76420000D02*
X105297836Y-76420000D01*
%TO.C,R22*%
X130390000Y-77843641D02*
X130390000Y-77536359D01*
X129630000Y-77843641D02*
X129630000Y-77536359D01*
%TO.C,C20*%
X93057836Y-61530000D02*
X92842164Y-61530000D01*
X93057836Y-62250000D02*
X92842164Y-62250000D01*
%TO.C,C21*%
X153010000Y-80800000D02*
X155960000Y-80800000D01*
X154074437Y-72280000D02*
X155960000Y-72280000D01*
X153010000Y-73344437D02*
X153010000Y-80800000D01*
X160465563Y-72280000D02*
X161530000Y-73344437D01*
X160465563Y-72280000D02*
X158580000Y-72280000D01*
X161530000Y-80800000D02*
X158580000Y-80800000D01*
X154074437Y-72280000D02*
X153010000Y-73344437D01*
X161530000Y-73344437D02*
X161530000Y-80800000D01*
%TO.C,D8*%
X133270000Y-95120000D02*
X133270000Y-92580000D01*
X130730000Y-95120000D02*
X130730000Y-92580000D01*
X138390000Y-111010000D02*
X128150000Y-111010000D01*
X135810000Y-95120000D02*
X135810000Y-92580000D01*
X138390000Y-95120000D02*
X128150000Y-95120000D01*
X128150000Y-111010000D02*
X128150000Y-95120000D01*
X138390000Y-111010000D02*
X138390000Y-95120000D01*
%TO.C,R38*%
X142057500Y-77412742D02*
X142057500Y-77887258D01*
X143102500Y-77412742D02*
X143102500Y-77887258D01*
%TO.C,Q2*%
X112707500Y-87000000D02*
X111032500Y-87000000D01*
X112707500Y-90120000D02*
X112057500Y-90120000D01*
X112707500Y-90120000D02*
X113357500Y-90120000D01*
X112707500Y-87000000D02*
X113357500Y-87000000D01*
%TO.C,Q15*%
X152170001Y-54249999D02*
X152170001Y-53599999D01*
X152170001Y-54249999D02*
X152170001Y-54899999D01*
X155290001Y-54249999D02*
X155290001Y-54899999D01*
X155290001Y-54249999D02*
X155290001Y-52574999D01*
%TO.C,D6*%
X86130000Y-83485000D02*
X86130000Y-82015000D01*
X83670000Y-83485000D02*
X86130000Y-83485000D01*
X86130000Y-82015000D02*
X83670000Y-82015000D01*
%TO.C,C16*%
X121024437Y-83320000D02*
X119960000Y-82255563D01*
X128480000Y-82255563D02*
X128480000Y-74800000D01*
X128480000Y-74800000D02*
X125530000Y-74800000D01*
X121024437Y-83320000D02*
X122910000Y-83320000D01*
X119960000Y-74800000D02*
X122910000Y-74800000D01*
X127415563Y-83320000D02*
X128480000Y-82255563D01*
X127415563Y-83320000D02*
X125530000Y-83320000D01*
X119960000Y-82255563D02*
X119960000Y-74800000D01*
%TO.C,R37*%
X147732742Y-93837500D02*
X148207258Y-93837500D01*
X147732742Y-94882500D02*
X148207258Y-94882500D01*
%TO.C,TP2*%
X154420000Y-70560000D02*
G75*
G03*
X154420000Y-70560000I-1200000J0D01*
G01*
%TO.C,R4*%
X80090000Y-93098641D02*
X80090000Y-92791359D01*
X80850000Y-93098641D02*
X80850000Y-92791359D01*
%TO.C,R3*%
X111567500Y-91463641D02*
X111567500Y-91156359D01*
X110807500Y-91463641D02*
X110807500Y-91156359D01*
%TO.C,R14*%
X90566359Y-83130000D02*
X90873641Y-83130000D01*
X90566359Y-82370000D02*
X90873641Y-82370000D01*
%TO.C,R7*%
X80850000Y-98098641D02*
X80850000Y-97791359D01*
X80090000Y-98098641D02*
X80090000Y-97791359D01*
%TO.C,Q1*%
X126920000Y-100090000D02*
X126920000Y-98590000D01*
X126650000Y-98590000D02*
X126650000Y-95760000D01*
X120290000Y-98590000D02*
X120290000Y-97490000D01*
X120020000Y-98590000D02*
X120290000Y-98590000D01*
X120020000Y-100090000D02*
X120020000Y-98590000D01*
X126920000Y-98590000D02*
X126650000Y-98590000D01*
%TO.C,R15*%
X90566359Y-84120000D02*
X90873641Y-84120000D01*
X90566359Y-84880000D02*
X90873641Y-84880000D01*
%TO.C,R45*%
X95853640Y-60260000D02*
X95546358Y-60260000D01*
X95853640Y-61020000D02*
X95546358Y-61020000D01*
%TO.C,C22*%
X127810000Y-91067836D02*
X127810000Y-90852164D01*
X128530000Y-91067836D02*
X128530000Y-90852164D01*
D18*
%TO.C,L1*%
X142041750Y-81870000D02*
X150541750Y-81870000D01*
X150541750Y-90370000D02*
X142041750Y-90370000D01*
D13*
X140872250Y-86120000D02*
G75*
G03*
X140872250Y-86120000I-50000J0D01*
G01*
D11*
%TO.C,R43*%
X153413644Y-56450000D02*
X153106362Y-56450000D01*
X153413644Y-57210000D02*
X153106362Y-57210000D01*
%TO.C,C14*%
X141420000Y-56167836D02*
X141420000Y-55952164D01*
X140700000Y-56167836D02*
X140700000Y-55952164D01*
%TO.C,R39*%
X132216141Y-52150001D02*
X131908859Y-52150001D01*
X132216141Y-52910001D02*
X131908859Y-52910001D01*
%TO.C,Q3*%
X122320000Y-91690000D02*
X122320000Y-92790000D01*
X115690000Y-90190000D02*
X115690000Y-91690000D01*
X115690000Y-91690000D02*
X115960000Y-91690000D01*
X115960000Y-91690000D02*
X115960000Y-94520000D01*
X122590000Y-91690000D02*
X122320000Y-91690000D01*
X122590000Y-90190000D02*
X122590000Y-91690000D01*
%TO.C,U4*%
X94140000Y-65039999D02*
X94140000Y-68489999D01*
X94140000Y-65039999D02*
X94140000Y-63089999D01*
X99260000Y-65039999D02*
X99260000Y-63089999D01*
X99260000Y-65039999D02*
X99260000Y-66989999D01*
%TO.C,R46*%
X92796359Y-62510000D02*
X93103641Y-62510000D01*
X92796359Y-63270000D02*
X93103641Y-63270000D01*
%TO.C,C15*%
X136020000Y-55007836D02*
X136020000Y-54792164D01*
X135300000Y-55007836D02*
X135300000Y-54792164D01*
%TO.C,C3*%
X125931252Y-68395000D02*
X125408748Y-68395000D01*
X125931252Y-66925000D02*
X125408748Y-66925000D01*
%TO.C,C2*%
X138020000Y-77840581D02*
X138020000Y-77559421D01*
X139040000Y-77840581D02*
X139040000Y-77559421D01*
%TO.C,SW4*%
X89327500Y-78920000D02*
X89327500Y-76320000D01*
X91327500Y-79920000D02*
X91327500Y-80920000D01*
X83327500Y-80870000D02*
X89127500Y-80870000D01*
X83227500Y-74370000D02*
X89227500Y-74370000D01*
X91327500Y-80920000D02*
X90327500Y-80920000D01*
X83127500Y-78920000D02*
X83127500Y-76320000D01*
%TO.C,R2*%
X80090000Y-90598641D02*
X80090000Y-90291359D01*
X80850000Y-90598641D02*
X80850000Y-90291359D01*
%TO.C,J1*%
X107410000Y-106525000D02*
X107410000Y-101625000D01*
X117530000Y-110845000D02*
X117530000Y-108745000D01*
X107410000Y-108745000D02*
X106820000Y-108745000D01*
X107410000Y-106525000D02*
X106820000Y-106525000D01*
X117530000Y-101625000D02*
X107410000Y-101625000D01*
X118120000Y-106525000D02*
X117530000Y-106525000D01*
X117530000Y-106525000D02*
X117530000Y-101625000D01*
X118120000Y-108745000D02*
X117530000Y-108745000D01*
X117530000Y-110845000D02*
X107410000Y-110845000D01*
X107410000Y-110845000D02*
X107410000Y-108745000D01*
X118120000Y-108745000D02*
G75*
G03*
X118120000Y-106525000I0J1110000D01*
G01*
X106820000Y-106525000D02*
G75*
G03*
X106820000Y-108745000I0J-1110000D01*
G01*
%TO.C,R1*%
X80850000Y-88098641D02*
X80850000Y-87791359D01*
X80090000Y-88098641D02*
X80090000Y-87791359D01*
%TO.C,C4*%
X126362164Y-65700000D02*
X126577836Y-65700000D01*
X126362164Y-66420000D02*
X126577836Y-66420000D01*
%TO.C,TP3*%
X145920000Y-55060000D02*
G75*
G03*
X145920000Y-55060000I-1200000J0D01*
G01*
%TO.C,C6*%
X140657836Y-76350000D02*
X140442164Y-76350000D01*
X140657836Y-77070000D02*
X140442164Y-77070000D01*
%TO.C,C8*%
X147331021Y-105845308D02*
X143088380Y-101602667D01*
X144248035Y-100952129D02*
X143130099Y-99834193D01*
X146964032Y-100498873D02*
X144132070Y-97666911D01*
X148607349Y-105877128D02*
X143056560Y-100326339D01*
X145435975Y-99764190D02*
X143804679Y-98132894D01*
X149508910Y-105703887D02*
X145973376Y-102168353D01*
X144417741Y-100782423D02*
X143193739Y-99558421D01*
X149973479Y-105546202D02*
X147415874Y-102988596D01*
X147162022Y-100300884D02*
X144312382Y-97451243D01*
X144842005Y-100358159D02*
X143403750Y-98919904D01*
X144502594Y-100697570D02*
X143229801Y-99424778D01*
X150365216Y-105372253D02*
X147698716Y-102705754D01*
X149552750Y-105691159D02*
X146001660Y-102140068D01*
X147713566Y-105888441D02*
X143045247Y-101220122D01*
X144530878Y-100669286D02*
X143242529Y-99380938D01*
X150730790Y-105172142D02*
X147981559Y-102422911D01*
X151005855Y-104994658D02*
X148207833Y-102196637D01*
X145577396Y-99622768D02*
X143915695Y-97961067D01*
X144446025Y-100754139D02*
X143205053Y-99513167D01*
X145853168Y-105385688D02*
X143548000Y-103080520D01*
X144757152Y-100443012D02*
X143356374Y-99042234D01*
X149238795Y-105773183D02*
X145803670Y-102338058D01*
X151072323Y-104947989D02*
X148264402Y-102140068D01*
X144644015Y-100556149D02*
X143296977Y-99209111D01*
X150938680Y-105040620D02*
X148151265Y-102253205D01*
X150972621Y-105017993D02*
X148179549Y-102224921D01*
X148067119Y-105902584D02*
X143031104Y-100866569D01*
X149932467Y-105561758D02*
X147387589Y-103016881D01*
X146765335Y-100697570D02*
X143962364Y-97894599D01*
X144785436Y-100414728D02*
X143371930Y-99001221D01*
X146878472Y-100584433D02*
X144057116Y-97763077D01*
X144870289Y-100329875D02*
X143420720Y-98880306D01*
X145549112Y-99651052D02*
X143893068Y-97995008D01*
X146062471Y-105481855D02*
X143451833Y-102871217D01*
X147020601Y-100442305D02*
X144182274Y-97603978D01*
X145124848Y-100075317D02*
X143580526Y-98530995D01*
X147048885Y-100414021D02*
X144207730Y-97572866D01*
X145605680Y-99594484D02*
X143939030Y-97927833D01*
X147893878Y-105899048D02*
X143034640Y-101039810D01*
X147077169Y-100385736D02*
X144233186Y-97541753D01*
X146254097Y-105560344D02*
X143373344Y-102679591D01*
X144474309Y-100725855D02*
X143217781Y-99469326D01*
X145153132Y-100047032D02*
X143599618Y-98493519D01*
X151234957Y-104826367D02*
X148406530Y-101997940D01*
X145039995Y-100160169D02*
X143524665Y-98644840D01*
X147125960Y-105809953D02*
X143123735Y-101807728D01*
X145379406Y-99820758D02*
X143761546Y-98202898D01*
X149639017Y-105664289D02*
X146058229Y-102083500D01*
X147105454Y-100357452D02*
X144259349Y-97511347D01*
X147218591Y-100244315D02*
X144365415Y-97391139D01*
X149192833Y-105783790D02*
X145775386Y-102366343D01*
X149724577Y-105636711D02*
X147246168Y-103158302D01*
X149004035Y-105821266D02*
X145662249Y-102479480D01*
X150766146Y-105150929D02*
X148009843Y-102394627D01*
X145168688Y-104984052D02*
X143949636Y-103765000D01*
X149052119Y-105812781D02*
X145690533Y-102451195D01*
X146907464Y-100555442D02*
X144082572Y-97730550D01*
X148398045Y-105894098D02*
X143039590Y-100535643D01*
X151360822Y-104725958D02*
X148519667Y-101884803D01*
X144191467Y-101008697D02*
X143112422Y-99929653D01*
X151391935Y-104700502D02*
X148547952Y-101856519D01*
X151105557Y-104924655D02*
X148292686Y-102111784D01*
X146344607Y-105594285D02*
X143339403Y-102589081D01*
X149464362Y-105715907D02*
X145945092Y-102196637D01*
X145011711Y-100188454D02*
X143506987Y-98683730D01*
X145209700Y-99990464D02*
X143638509Y-98419272D01*
X145464259Y-99735905D02*
X143826600Y-98098246D01*
X144304604Y-100895560D02*
X143149898Y-99740855D01*
X144898573Y-100301591D02*
X143436984Y-98840001D01*
X144926858Y-100273306D02*
X143453954Y-98800403D01*
X150695435Y-105193355D02*
X147953275Y-102451195D01*
X150013784Y-105529938D02*
X147444158Y-102960312D01*
X151482445Y-104621306D02*
X148632804Y-101771666D01*
X144728868Y-100471296D02*
X143340817Y-99083246D01*
X150659372Y-105213862D02*
X147924991Y-102479480D01*
X145407690Y-99792474D02*
X143782759Y-98167542D01*
X148451078Y-105890563D02*
X143043125Y-100482610D01*
X151512850Y-104595143D02*
X148661089Y-101743381D01*
X150551185Y-105275380D02*
X147840138Y-102564332D01*
X144615731Y-100584433D02*
X143282834Y-99251537D01*
X150211774Y-105445085D02*
X147585579Y-102818891D01*
X151630230Y-104486249D02*
X144447439Y-97303458D01*
X151542549Y-104568273D02*
X148689373Y-101715097D01*
X150587248Y-105254874D02*
X147868422Y-102536048D01*
X150440169Y-105334070D02*
X147755285Y-102649185D01*
X148009843Y-105901876D02*
X143031812Y-100923845D01*
X148289858Y-105899048D02*
X143034640Y-100643830D01*
X144163182Y-101036982D02*
X143103936Y-99977736D01*
X145294553Y-99905611D02*
X143698613Y-98309671D01*
X147055249Y-105795810D02*
X143137878Y-101878439D01*
X146517141Y-105653682D02*
X143280006Y-102416547D01*
X150477646Y-105314978D02*
X147783569Y-102620901D01*
X151422341Y-104674339D02*
X148576236Y-101828234D01*
X150835442Y-105107088D02*
X148066412Y-102338058D01*
X151203138Y-104851116D02*
X148378246Y-102026224D01*
X148709172Y-105865814D02*
X143067874Y-100224516D01*
X145322838Y-99877327D02*
X143719826Y-98274316D01*
X149420521Y-105728635D02*
X145916807Y-102224921D01*
X145338394Y-105097189D02*
X143836499Y-103595294D01*
X149146164Y-105793689D02*
X145747102Y-102394627D01*
X151138084Y-104900613D02*
X148320970Y-102083500D01*
X148555730Y-105882077D02*
X143051611Y-100377958D01*
X150800794Y-105129009D02*
X148038128Y-102366343D01*
X144219751Y-100980413D02*
X143120907Y-99881569D01*
X150514416Y-105295179D02*
X147811853Y-102592617D01*
X147462543Y-105863693D02*
X143069995Y-101471145D01*
X148858371Y-105845308D02*
X143088380Y-100075317D01*
X151715790Y-104402103D02*
X144531585Y-97217898D01*
X150172176Y-105462056D02*
X147557295Y-102847175D01*
X146599165Y-105679138D02*
X143254550Y-102334523D01*
X151298597Y-104776870D02*
X148463099Y-101941371D01*
X149330012Y-105751263D02*
X145860239Y-102281490D01*
X147652047Y-105883492D02*
X143050196Y-101281641D01*
X146935748Y-100527158D02*
X144107321Y-97698731D01*
X150288848Y-105409023D02*
X147642148Y-102762322D01*
X145266269Y-99933895D02*
X143678814Y-98346440D01*
X146821904Y-100641002D02*
X144009033Y-97828131D01*
X147190307Y-100272599D02*
X144338545Y-97420838D01*
X149099495Y-105803589D02*
X145718817Y-102422911D01*
X146432288Y-105625398D02*
X143308290Y-102501400D01*
X145618408Y-105264066D02*
X143669622Y-103315280D01*
X147834481Y-105896220D02*
X143037468Y-101099207D01*
X149682151Y-105650854D02*
X146086513Y-102055216D01*
X151452746Y-104648176D02*
X148604520Y-101799950D01*
X146679775Y-105703179D02*
X143230509Y-102253913D01*
X146850188Y-100612718D02*
X144033075Y-97795604D01*
X147526182Y-105870764D02*
X143062924Y-101407506D01*
X145492543Y-99707621D02*
X143848520Y-98063598D01*
X146910292Y-105763991D02*
X143169697Y-102023396D01*
X146793620Y-100669286D02*
X143985699Y-97861365D01*
X150402693Y-105353162D02*
X147727001Y-102677469D01*
X150624017Y-105235075D02*
X147896706Y-102507764D01*
X146758264Y-105725100D02*
X143208588Y-102175424D01*
X147774377Y-105892684D02*
X143041004Y-101159311D01*
X148759377Y-105859450D02*
X143074238Y-100174311D01*
X145068279Y-100131885D02*
X143543050Y-98606656D01*
X150053382Y-105512968D02*
X147472442Y-102932028D01*
X148808874Y-105852379D02*
X143081309Y-100124814D01*
X150133285Y-105479734D02*
X147529011Y-102875459D01*
X144700584Y-100499581D02*
X143325968Y-99124965D01*
X148179549Y-105901876D02*
X143031812Y-100754139D01*
X146983831Y-105780961D02*
X143152727Y-101949857D01*
X148344305Y-105896927D02*
X143036761Y-100589383D01*
X144672299Y-100527865D02*
X143311826Y-99167391D01*
X144955142Y-100245022D02*
X143471632Y-98761512D01*
X150904738Y-105063248D02*
X148122980Y-102281490D01*
X148907869Y-105838237D02*
X143095451Y-100025819D01*
X147589822Y-105877835D02*
X143055853Y-101343866D01*
X145520827Y-99679337D02*
X143870440Y-98028950D01*
X150249958Y-105426701D02*
X147613864Y-102790607D01*
X145485472Y-105187699D02*
X143745989Y-103448216D01*
X148503404Y-105886320D02*
X143047368Y-100430284D01*
X148658260Y-105871471D02*
X143062217Y-100275428D01*
X144276320Y-100923845D02*
X143139999Y-99787524D01*
X151659221Y-104458671D02*
X144475017Y-97274467D01*
X145351122Y-99849042D02*
X143740333Y-98238253D01*
X151687506Y-104430387D02*
X144503301Y-97246182D01*
X145740031Y-105329120D02*
X143604568Y-103193657D01*
X149808723Y-105607720D02*
X147302737Y-103101734D01*
X146160052Y-105522867D02*
X143410821Y-102773636D01*
X144587447Y-100612718D02*
X143269399Y-99294671D01*
X145181416Y-100018748D02*
X143618710Y-98456042D01*
X147195963Y-105823388D02*
X143110300Y-101737725D01*
X144559162Y-100641002D02*
X143255964Y-99337804D01*
X149284757Y-105762576D02*
X145831954Y-102309774D01*
X147133738Y-100329168D02*
X144285512Y-97480942D01*
X144332888Y-100867276D02*
X143160505Y-99694893D01*
X154031314Y-99675344D02*
X153324208Y-98968238D01*
X148235410Y-105901169D02*
X143032519Y-100698278D01*
X151601239Y-104513826D02*
X144419862Y-97332449D01*
X150327032Y-105390638D02*
X147670432Y-102734038D01*
X154031314Y-98968238D02*
X153324208Y-99675344D01*
X145960648Y-105436600D02*
X143497088Y-102973040D01*
X144813721Y-100386444D02*
X143387486Y-98960209D01*
X147263846Y-105834701D02*
X143098987Y-101669842D01*
X149891454Y-105577314D02*
X147359305Y-103045165D01*
X145237985Y-99962179D02*
X143658308Y-98382503D01*
X144361172Y-100838992D02*
X143171112Y-99648931D01*
X149850442Y-105592871D02*
X147331021Y-103073449D01*
X148955952Y-105829752D02*
X145633965Y-102507764D01*
X149766297Y-105621862D02*
X147274452Y-103130018D01*
X151329710Y-104751414D02*
X148491383Y-101913087D01*
X149375267Y-105739949D02*
X145888523Y-102253205D01*
X151572247Y-104541403D02*
X144392285Y-97361441D01*
X151170611Y-104876572D02*
X148349255Y-102055216D01*
X151266777Y-104801618D02*
X148434815Y-101969656D01*
X148123688Y-105902584D02*
X143031104Y-100810000D01*
X147397489Y-105855207D02*
X143078481Y-101536199D01*
X151039089Y-104971324D02*
X148236118Y-102168353D01*
X145096563Y-100103601D02*
X143561435Y-98568472D01*
X149595884Y-105677724D02*
X146029944Y-102111784D01*
X146835339Y-105745606D02*
X143188082Y-102098349D01*
X144954435Y-104826367D02*
X144107321Y-103979253D01*
X147951861Y-105900462D02*
X143033226Y-100981827D01*
X146992317Y-100470589D02*
X144156818Y-97635091D01*
X144983426Y-100216738D02*
X143488603Y-98721914D01*
X144389457Y-100810708D02*
X143182425Y-99603676D01*
X150870090Y-105085168D02*
X148094696Y-102309774D01*
X150093687Y-105496704D02*
X147500726Y-102903744D01*
X153243688Y-100810000D02*
G75*
G03*
X153243688Y-100810000I-5120000J0D01*
G01*
%TO.C,J2*%
X107410000Y-56050000D02*
X107940000Y-56050000D01*
X117530000Y-58100000D02*
X118230000Y-58100000D01*
X106710000Y-60320000D02*
X118230000Y-60320000D01*
X117530000Y-56050000D02*
X117530000Y-58100000D01*
X107410000Y-56050000D02*
X107410000Y-58100000D01*
X117000000Y-56050000D02*
X117530000Y-56050000D01*
X106710000Y-58100000D02*
X107410000Y-58100000D01*
X107940000Y-50050000D02*
X107940000Y-56050000D01*
X117000000Y-50050000D02*
X117000000Y-56050000D01*
X107940000Y-50050000D02*
X116970000Y-50050000D01*
X106820000Y-58100000D02*
G75*
G03*
X106648271Y-60306635I1J-1110000D01*
G01*
X118120000Y-60320000D02*
G75*
G03*
X118120000Y-58100000I0J1110000D01*
G01*
%TO.C,D12*%
X139732500Y-51775000D02*
X137272500Y-51775000D01*
X137272500Y-53245000D02*
X139732500Y-53245000D01*
X137272500Y-51775000D02*
X137272500Y-53245000D01*
%TO.C,C10*%
X125735000Y-90948748D02*
X125735000Y-91471252D01*
X127205000Y-90948748D02*
X127205000Y-91471252D01*
%TO.C,H7*%
X165640000Y-81210000D02*
G75*
G03*
X165640000Y-81210000I-1750000J0D01*
G01*
%TO.C,D13*%
X129550000Y-79590000D02*
X132700000Y-79590000D01*
X129550000Y-79590000D02*
X129550000Y-81290000D01*
X129550000Y-81290000D02*
X132700000Y-81290000D01*
%TO.C,R24*%
X140632500Y-91697258D02*
X140632500Y-91222742D01*
X139587500Y-91697258D02*
X139587500Y-91222742D01*
%TO.C,J5*%
X90160000Y-110620000D02*
X102780000Y-110620000D01*
X102780000Y-102500000D02*
X90160000Y-102500000D01*
X90160000Y-102500000D02*
X90160000Y-110620000D01*
X102780000Y-110620000D02*
X102780000Y-102500000D01*
X89860000Y-104610000D02*
X89860000Y-102200000D01*
X89860000Y-102200000D02*
X92270000Y-102200000D01*
%TO.C,C1*%
X112827500Y-91417836D02*
X112827500Y-91202164D01*
X113547500Y-91417836D02*
X113547500Y-91202164D01*
%TO.C,R47*%
X140207258Y-67147500D02*
X139732742Y-67147500D01*
X140207258Y-68192500D02*
X139732742Y-68192500D01*
%TO.C,D3*%
X86310000Y-82015000D02*
X86310000Y-83485000D01*
X86310000Y-83485000D02*
X88770000Y-83485000D01*
X88770000Y-82015000D02*
X86310000Y-82015000D01*
%TO.C,R42*%
X100580000Y-64793641D02*
X100580000Y-64486359D01*
X99820000Y-64793641D02*
X99820000Y-64486359D01*
%TO.C,R16*%
X81873641Y-83130000D02*
X81566359Y-83130000D01*
X81873641Y-82370000D02*
X81566359Y-82370000D01*
%TO.C,TP5*%
X163420000Y-99810000D02*
G75*
G03*
X163420000Y-99810000I-1200000J0D01*
G01*
%TO.C,TP1*%
X127020000Y-87340000D02*
G75*
G03*
X127020000Y-87340000I-1200000J0D01*
G01*
%TO.C,R23*%
X132047500Y-77947257D02*
X132047500Y-77472741D01*
X133092500Y-77947257D02*
X133092500Y-77472741D01*
%TO.C,R17*%
X125760000Y-71803641D02*
X125760000Y-71496359D01*
X125000000Y-71803641D02*
X125000000Y-71496359D01*
%TO.C,R44*%
X97853641Y-60260000D02*
X97546359Y-60260000D01*
X97853641Y-61020000D02*
X97546359Y-61020000D01*
%TO.C,D10*%
X140670000Y-57290000D02*
X140670000Y-61190000D01*
X142670000Y-57290000D02*
X140670000Y-57290000D01*
X142670000Y-57290000D02*
X142670000Y-61190000D01*
%TO.C,H8*%
X165590000Y-89170000D02*
G75*
G03*
X165590000Y-89170000I-1750000J0D01*
G01*
%TO.C,R30*%
X141860000Y-56213641D02*
X141860000Y-55906359D01*
X142620000Y-56213641D02*
X142620000Y-55906359D01*
%TO.C,D5*%
X128270000Y-69810000D02*
X126270000Y-69810000D01*
X128270000Y-69810000D02*
X128270000Y-73710000D01*
X126270000Y-69810000D02*
X126270000Y-73710000D01*
%TO.C,R34*%
X134930000Y-54746359D02*
X134930000Y-55053641D01*
X134170000Y-54746359D02*
X134170000Y-55053641D01*
%TD*%
%LPC*%
D19*
%TO.C,R25*%
X135820000Y-78560000D03*
X135820000Y-76910000D03*
%TD*%
D20*
%TO.C,D2*%
X85345000Y-84500000D03*
X83595000Y-84500000D03*
%TD*%
D21*
%TO.C,D7*%
X129400000Y-70959999D03*
X132700000Y-70959999D03*
%TD*%
D22*
%TO.C,D16*%
X158470000Y-59910000D03*
X155170000Y-59910000D03*
X155170000Y-64810000D03*
X158470000Y-64810000D03*
%TD*%
D23*
%TO.C,Q4*%
X144750000Y-78300000D03*
D24*
X147030000Y-72000000D03*
D23*
X149310000Y-78300000D03*
%TD*%
D25*
%TO.C,R29*%
X141980000Y-62560000D03*
X140960000Y-62560000D03*
%TD*%
D26*
%TO.C,TP4*%
X103720000Y-61310000D03*
%TD*%
D27*
%TO.C,SW5*%
X99260000Y-96700000D03*
D28*
X96720000Y-96700000D03*
X94180000Y-96700000D03*
%TD*%
D29*
%TO.C,R36*%
X141422500Y-52510000D03*
X142442500Y-52510000D03*
%TD*%
D19*
%TO.C,R12*%
X118830000Y-77875000D03*
X118830000Y-76225000D03*
%TD*%
D30*
%TO.C,JP1*%
X92500000Y-65865000D03*
D31*
X92500000Y-64415000D03*
%TD*%
D32*
%TO.C,R20*%
X131310000Y-78220000D03*
X131310000Y-77200000D03*
%TD*%
D33*
%TO.C,C13*%
X104720000Y-75170000D03*
X105680000Y-75170000D03*
%TD*%
D19*
%TO.C,R11*%
X118830000Y-80955000D03*
X118830000Y-79305000D03*
%TD*%
D34*
%TO.C,C17*%
X148210000Y-57420000D03*
X148210000Y-64620000D03*
%TD*%
D35*
%TO.C,Q14*%
X101750000Y-67077500D03*
X103650000Y-67077500D03*
X102700000Y-65202500D03*
%TD*%
D36*
%TO.C,Y1*%
X108500000Y-76400000D03*
X111400000Y-76400000D03*
X111400000Y-74100000D03*
X108500000Y-74100000D03*
%TD*%
D37*
%TO.C,U6*%
X103145000Y-79170000D03*
X103145000Y-78370000D03*
X103145000Y-77570000D03*
X103145000Y-76770000D03*
X103145000Y-75970000D03*
X103145000Y-75170000D03*
X103145000Y-74370000D03*
X103145000Y-73570000D03*
D38*
X101770000Y-72195000D03*
X100970000Y-72195000D03*
X100170000Y-72195000D03*
X99370000Y-72195000D03*
X98570000Y-72195000D03*
X97770000Y-72195000D03*
X96970000Y-72195000D03*
X96170000Y-72195000D03*
D37*
X94795000Y-73570000D03*
X94795000Y-74370000D03*
X94795000Y-75170000D03*
X94795000Y-75970000D03*
X94795000Y-76770000D03*
X94795000Y-77570000D03*
X94795000Y-78370000D03*
X94795000Y-79170000D03*
D38*
X96170000Y-80545000D03*
X96970000Y-80545000D03*
X97770000Y-80545000D03*
X98570000Y-80545000D03*
X99370000Y-80545000D03*
X100170000Y-80545000D03*
X100970000Y-80545000D03*
X101770000Y-80545000D03*
%TD*%
D39*
%TO.C,C25*%
X144195000Y-94360000D03*
X145745000Y-94360000D03*
%TD*%
D27*
%TO.C,SW2*%
X99260000Y-89200000D03*
D28*
X96720000Y-89200000D03*
X94180000Y-89200000D03*
%TD*%
D32*
%TO.C,R27*%
X137110000Y-77690000D03*
X137110000Y-76670000D03*
%TD*%
D40*
%TO.C,J3*%
X86875000Y-69190000D03*
X82125000Y-69190000D03*
X86875000Y-67920000D03*
X82125000Y-67920000D03*
X86875000Y-66650000D03*
X82125000Y-66650000D03*
X86875000Y-65380000D03*
X82125000Y-65380000D03*
X86875000Y-64110000D03*
X82125000Y-64110000D03*
%TD*%
D25*
%TO.C,R5*%
X95980000Y-91950000D03*
X94960000Y-91950000D03*
%TD*%
%TO.C,R18*%
X95850000Y-99400000D03*
X94830000Y-99400000D03*
%TD*%
D41*
%TO.C,D11*%
X139580000Y-54930000D03*
X137080000Y-54930000D03*
%TD*%
D32*
%TO.C,R8*%
X112187500Y-91820000D03*
X112187500Y-90800000D03*
%TD*%
D42*
%TO.C,H5*%
X163870000Y-65130000D03*
%TD*%
D43*
%TO.C,C9*%
X104710000Y-82370000D03*
X104710000Y-81410000D03*
%TD*%
D32*
%TO.C,R6*%
X80470000Y-95955000D03*
X80470000Y-94935000D03*
%TD*%
D44*
%TO.C,R28*%
X134220000Y-76910000D03*
X134220000Y-78560000D03*
%TD*%
D25*
%TO.C,R48*%
X141060000Y-78660001D03*
X140040000Y-78660001D03*
%TD*%
D29*
%TO.C,R41*%
X152800000Y-51750000D03*
X153820000Y-51750000D03*
%TD*%
D45*
%TO.C,C18*%
X124470000Y-62410000D03*
X124470000Y-55210000D03*
%TD*%
D46*
%TO.C,C7*%
X148970001Y-92360000D03*
X147070001Y-92360000D03*
%TD*%
D44*
%TO.C,R40*%
X100200000Y-66390000D03*
X100200000Y-68040000D03*
%TD*%
D47*
%TO.C,Q8*%
X129520000Y-84030000D03*
D48*
X135820000Y-86310000D03*
D47*
X129520000Y-88590000D03*
%TD*%
D25*
%TO.C,R13*%
X82230000Y-84500000D03*
X81210000Y-84500000D03*
%TD*%
D19*
%TO.C,R19*%
X124470000Y-92085000D03*
X124470000Y-90435000D03*
%TD*%
D47*
%TO.C,U2*%
X138990000Y-61830000D03*
D48*
X132690000Y-59550000D03*
D47*
X138990000Y-57270000D03*
%TD*%
D49*
%TO.C,SW1*%
X82420000Y-87870000D03*
D50*
X82420000Y-90410000D03*
X82420000Y-92950000D03*
X82420000Y-95490000D03*
X82420000Y-98030000D03*
X90040000Y-98030000D03*
X90040000Y-95490000D03*
X90040000Y-92950000D03*
X90040000Y-90410000D03*
X90040000Y-87870000D03*
%TD*%
D51*
%TO.C,U5*%
X111675000Y-82435000D03*
X111675000Y-81165000D03*
X111675000Y-79895000D03*
X111675000Y-78625000D03*
X106425000Y-78625000D03*
X106425000Y-79895000D03*
X106425000Y-81165000D03*
X106425000Y-82435000D03*
%TD*%
D52*
%TO.C,C23*%
X138170000Y-92245000D03*
X138170000Y-90695000D03*
%TD*%
D53*
%TO.C,SW3*%
X108570000Y-87810000D03*
D28*
X105370000Y-90310000D03*
X108570000Y-92810000D03*
%TD*%
D20*
%TO.C,D15*%
X135935000Y-52510000D03*
X134185000Y-52510000D03*
%TD*%
D41*
%TO.C,D1*%
X117770001Y-82610000D03*
X115270001Y-82610000D03*
%TD*%
D29*
%TO.C,R10*%
X112197500Y-86260000D03*
X113217500Y-86260000D03*
%TD*%
D54*
%TO.C,U3*%
X142460000Y-69675000D03*
X141190000Y-69675000D03*
X139920000Y-69675000D03*
X138650000Y-69675000D03*
X138650000Y-74925000D03*
X139920000Y-74925000D03*
X141190000Y-74925000D03*
X142460000Y-74925000D03*
%TD*%
D35*
%TO.C,Q5*%
X130420000Y-75147499D03*
X132320000Y-75147499D03*
X131370000Y-73272499D03*
%TD*%
D55*
%TO.C,J4*%
X100220000Y-57959999D03*
D56*
X97720000Y-57959999D03*
X95220000Y-57959999D03*
X92720000Y-57959999D03*
%TD*%
D42*
%TO.C,H6*%
X163800000Y-73180000D03*
%TD*%
D57*
%TO.C,D4*%
X87095000Y-84500000D03*
X88845000Y-84500000D03*
%TD*%
D33*
%TO.C,C19*%
X157190000Y-57940000D03*
X158150000Y-57940000D03*
%TD*%
D58*
%TO.C,C5*%
X135800000Y-64934999D03*
X135800000Y-66484999D03*
%TD*%
D59*
%TO.C,U1*%
X133775000Y-68665000D03*
X133775000Y-67395000D03*
X133775000Y-66125000D03*
X133775000Y-64855000D03*
X128825000Y-64855000D03*
X128825000Y-66125000D03*
X128825000Y-67395000D03*
X128825000Y-68665000D03*
%TD*%
D60*
%TO.C,C11*%
X125995000Y-93760000D03*
X124445000Y-93760000D03*
%TD*%
D61*
%TO.C,RV1*%
X136495000Y-71110000D03*
D62*
X135570000Y-74710000D03*
D61*
X134645000Y-71110000D03*
%TD*%
D32*
%TO.C,R9*%
X114177500Y-91830000D03*
X114177500Y-90810000D03*
%TD*%
D41*
%TO.C,D9*%
X151750000Y-77560000D03*
X151750000Y-75060000D03*
%TD*%
D33*
%TO.C,C12*%
X104710000Y-76780000D03*
X105670000Y-76780000D03*
%TD*%
D32*
%TO.C,R22*%
X130010000Y-78200000D03*
X130010000Y-77180000D03*
%TD*%
D63*
%TO.C,C20*%
X93430000Y-61890000D03*
X92470000Y-61890000D03*
%TD*%
D34*
%TO.C,C21*%
X157270000Y-72940000D03*
X157270000Y-80140000D03*
%TD*%
D64*
%TO.C,D8*%
X133270000Y-108090000D03*
D65*
X135810000Y-91430000D03*
D66*
X133270000Y-91430000D03*
X130730000Y-91430000D03*
%TD*%
D44*
%TO.C,R38*%
X142580000Y-76825000D03*
X142580000Y-78475000D03*
%TD*%
D67*
%TO.C,Q2*%
X111770000Y-87610000D03*
X111770000Y-89510000D03*
X113645000Y-88560000D03*
%TD*%
D68*
%TO.C,Q15*%
X154680001Y-53312499D03*
X152780001Y-53312499D03*
X153730001Y-55187499D03*
%TD*%
D20*
%TO.C,D6*%
X85345000Y-82750000D03*
X83595000Y-82750000D03*
%TD*%
D45*
%TO.C,C16*%
X124220000Y-82660000D03*
X124220000Y-75460000D03*
%TD*%
D69*
%TO.C,R37*%
X147145000Y-94360000D03*
X148795000Y-94360000D03*
%TD*%
D26*
%TO.C,TP2*%
X153220000Y-70560000D03*
%TD*%
D32*
%TO.C,R4*%
X80470000Y-93455000D03*
X80470000Y-92435000D03*
%TD*%
%TO.C,R3*%
X111187500Y-91820000D03*
X111187500Y-90800000D03*
%TD*%
D29*
%TO.C,R14*%
X90210000Y-82750000D03*
X91230000Y-82750000D03*
%TD*%
D32*
%TO.C,R7*%
X80470000Y-98455000D03*
X80470000Y-97435000D03*
%TD*%
D23*
%TO.C,Q1*%
X125750000Y-96860000D03*
D24*
X123470000Y-103160000D03*
D23*
X121190000Y-96860000D03*
%TD*%
D29*
%TO.C,R15*%
X90210000Y-84500000D03*
X91230000Y-84500000D03*
%TD*%
D25*
%TO.C,R45*%
X96209999Y-60640000D03*
X95189999Y-60640000D03*
%TD*%
D43*
%TO.C,C22*%
X128170000Y-91440000D03*
X128170000Y-90480000D03*
%TD*%
D70*
%TO.C,L1*%
X142672250Y-86120000D03*
X149911250Y-86120000D03*
%TD*%
D25*
%TO.C,R43*%
X153770003Y-56830000D03*
X152750003Y-56830000D03*
%TD*%
D43*
%TO.C,C14*%
X141060000Y-56540000D03*
X141060000Y-55580000D03*
%TD*%
D25*
%TO.C,R39*%
X132572500Y-52530001D03*
X131552500Y-52530001D03*
%TD*%
D23*
%TO.C,Q3*%
X116860000Y-93420000D03*
D24*
X119140000Y-87120000D03*
D23*
X121420000Y-93420000D03*
%TD*%
D71*
%TO.C,U4*%
X94795000Y-67664999D03*
X96065000Y-67664999D03*
X97335000Y-67664999D03*
X98605000Y-67664999D03*
X98605000Y-62414999D03*
X97335000Y-62414999D03*
X96065000Y-62414999D03*
X94795000Y-62414999D03*
%TD*%
D29*
%TO.C,R46*%
X92440000Y-62890000D03*
X93460000Y-62890000D03*
%TD*%
D43*
%TO.C,C15*%
X135660000Y-55380000D03*
X135660000Y-54420000D03*
%TD*%
D46*
%TO.C,C3*%
X126620000Y-67660000D03*
X124720000Y-67660000D03*
%TD*%
D52*
%TO.C,C2*%
X138530000Y-78475001D03*
X138530000Y-76925001D03*
%TD*%
D72*
%TO.C,SW4*%
X90227500Y-79870000D03*
X82227500Y-79870000D03*
X90227500Y-75370000D03*
X82227500Y-75370000D03*
%TD*%
D32*
%TO.C,R2*%
X80470000Y-90955000D03*
X80470000Y-89935000D03*
%TD*%
D73*
%TO.C,J1*%
X106970000Y-107635000D03*
X117970000Y-107635000D03*
D74*
X109970000Y-97635000D03*
D75*
X114970000Y-97635000D03*
%TD*%
D32*
%TO.C,R1*%
X80470000Y-88455000D03*
X80470000Y-87435000D03*
%TD*%
D33*
%TO.C,C4*%
X125990000Y-66060000D03*
X126950000Y-66060000D03*
%TD*%
D26*
%TO.C,TP3*%
X144720000Y-55060000D03*
%TD*%
D63*
%TO.C,C6*%
X141030000Y-76710000D03*
X140070000Y-76710000D03*
%TD*%
D76*
%TO.C,C8*%
X149007571Y-99926117D03*
X150613366Y-100583064D03*
D77*
X145634009Y-101036937D03*
X147239804Y-101693884D03*
%TD*%
D73*
%TO.C,J2*%
X106970000Y-59210000D03*
X117970000Y-59210000D03*
D74*
X109970000Y-64210000D03*
D75*
X114970000Y-64210000D03*
%TD*%
D57*
%TO.C,D12*%
X138057500Y-52510000D03*
X139807500Y-52510000D03*
%TD*%
D78*
%TO.C,C10*%
X126470000Y-90260000D03*
X126470000Y-92160000D03*
%TD*%
D42*
%TO.C,H7*%
X163890000Y-81210000D03*
%TD*%
D41*
%TO.C,D13*%
X130200000Y-80440000D03*
X132700000Y-80440000D03*
%TD*%
D19*
%TO.C,R24*%
X140110000Y-92285000D03*
X140110000Y-90635000D03*
%TD*%
D79*
%TO.C,J5*%
X92720000Y-103910000D03*
D56*
X95220000Y-103910000D03*
X97720000Y-103910000D03*
X100220000Y-103910000D03*
%TD*%
D43*
%TO.C,C1*%
X113187500Y-91790000D03*
X113187500Y-90830000D03*
%TD*%
D80*
%TO.C,R47*%
X140795000Y-67670000D03*
X139145000Y-67670000D03*
%TD*%
D57*
%TO.C,D3*%
X87095000Y-82750000D03*
X88845000Y-82750000D03*
%TD*%
D32*
%TO.C,R42*%
X100200000Y-65150000D03*
X100200000Y-64130000D03*
%TD*%
D25*
%TO.C,R16*%
X82230000Y-82750000D03*
X81210000Y-82750000D03*
%TD*%
D26*
%TO.C,TP5*%
X162220000Y-99810000D03*
%TD*%
%TO.C,TP1*%
X125820000Y-87340000D03*
%TD*%
D19*
%TO.C,R23*%
X132570000Y-78534999D03*
X132570000Y-76884999D03*
%TD*%
D32*
%TO.C,R17*%
X125380000Y-72160000D03*
X125380000Y-71140000D03*
%TD*%
D25*
%TO.C,R44*%
X98210000Y-60640000D03*
X97190000Y-60640000D03*
%TD*%
D81*
%TO.C,D10*%
X141670000Y-57890000D03*
X141670000Y-61190000D03*
%TD*%
D42*
%TO.C,H8*%
X163840000Y-89170000D03*
%TD*%
D32*
%TO.C,R30*%
X142240000Y-56570000D03*
X142240000Y-55550000D03*
%TD*%
D81*
%TO.C,D5*%
X127270000Y-70410000D03*
X127270000Y-73710000D03*
%TD*%
D82*
%TO.C,R34*%
X134550000Y-54390000D03*
X134550000Y-55410000D03*
%TD*%
M02*
