%TF.GenerationSoftware,KiCad,Pcbnew,(6.0.11)*%
%TF.CreationDate,2024-02-29T08:22:58+09:00*%
%TF.ProjectId,Panel,50616e65-6c2e-46b6-9963-61645f706362,rev?*%
%TF.SameCoordinates,Original*%
%TF.FileFunction,Soldermask,Bot*%
%TF.FilePolarity,Negative*%
%FSLAX46Y46*%
G04 Gerber Fmt 4.6, Leading zero omitted, Abs format (unit mm)*
G04 Created by KiCad (PCBNEW (6.0.11)) date 2024-02-29 08:22:58*
%MOMM*%
%LPD*%
G01*
G04 APERTURE LIST*
G04 Aperture macros list*
%AMRoundRect*
0 Rectangle with rounded corners*
0 $1 Rounding radius*
0 $2 $3 $4 $5 $6 $7 $8 $9 X,Y pos of 4 corners*
0 Add a 4 corners polygon primitive as box body*
4,1,4,$2,$3,$4,$5,$6,$7,$8,$9,$2,$3,0*
0 Add four circle primitives for the rounded corners*
1,1,$1+$1,$2,$3*
1,1,$1+$1,$4,$5*
1,1,$1+$1,$6,$7*
1,1,$1+$1,$8,$9*
0 Add four rect primitives between the rounded corners*
20,1,$1+$1,$2,$3,$4,$5,0*
20,1,$1+$1,$4,$5,$6,$7,0*
20,1,$1+$1,$6,$7,$8,$9,0*
20,1,$1+$1,$8,$9,$2,$3,0*%
%AMRotRect*
0 Rectangle, with rotation*
0 The origin of the aperture is its center*
0 $1 length*
0 $2 width*
0 $3 Rotation angle, in degrees counterclockwise*
0 Add horizontal line*
21,1,$1,$2,0,0,$3*%
G04 Aperture macros list end*
%ADD10C,2.000000*%
%ADD11RoundRect,0.381000X-0.381000X0.381000X-0.381000X-0.381000X0.381000X-0.381000X0.381000X0.381000X0*%
%ADD12C,1.524000*%
%ADD13C,3.000000*%
%ADD14R,1.600000X1.600000*%
%ADD15O,1.600000X1.600000*%
%ADD16RoundRect,0.381000X-0.381000X-0.381000X0.381000X-0.381000X0.381000X0.381000X-0.381000X0.381000X0*%
%ADD17RoundRect,0.250000X0.600000X0.675000X-0.600000X0.675000X-0.600000X-0.675000X0.600000X-0.675000X0*%
%ADD18O,1.700000X1.850000*%
%ADD19O,3.500000X3.500000*%
%ADD20R,1.905000X2.000000*%
%ADD21O,1.905000X2.000000*%
%ADD22C,1.400000*%
%ADD23R,3.500000X3.500000*%
%ADD24C,3.500000*%
%ADD25RotRect,1.600000X1.600000X225.000000*%
%ADD26C,1.600000*%
%ADD27RoundRect,0.250000X-0.600000X-0.675000X0.600000X-0.675000X0.600000X0.675000X-0.600000X0.675000X0*%
%ADD28R,1.500000X1.500000*%
G04 APERTURE END LIST*
D10*
%TO.C,TP4*%
X103720000Y-61310000D03*
%TD*%
D11*
%TO.C,SW5*%
X99260000Y-96700000D03*
D12*
X96720000Y-96700000D03*
X94180000Y-96700000D03*
%TD*%
D11*
%TO.C,SW2*%
X99260000Y-89200000D03*
D12*
X96720000Y-89200000D03*
X94180000Y-89200000D03*
%TD*%
D13*
%TO.C,H5*%
X163870000Y-65130000D03*
%TD*%
D14*
%TO.C,SW1*%
X82420000Y-87870000D03*
D15*
X82420000Y-90410000D03*
X82420000Y-92950000D03*
X82420000Y-95490000D03*
X82420000Y-98030000D03*
X90040000Y-98030000D03*
X90040000Y-95490000D03*
X90040000Y-92950000D03*
X90040000Y-90410000D03*
X90040000Y-87870000D03*
%TD*%
D16*
%TO.C,SW3*%
X108570000Y-87810000D03*
D12*
X105370000Y-90310000D03*
X108570000Y-92810000D03*
%TD*%
D17*
%TO.C,J4*%
X100220000Y-57959999D03*
D18*
X97720000Y-57959999D03*
X95220000Y-57959999D03*
X92720000Y-57959999D03*
%TD*%
D13*
%TO.C,H6*%
X163800000Y-73180000D03*
%TD*%
D19*
%TO.C,D8*%
X133270000Y-108090000D03*
D20*
X135810000Y-91430000D03*
D21*
X133270000Y-91430000D03*
X130730000Y-91430000D03*
%TD*%
D10*
%TO.C,TP2*%
X153220000Y-70560000D03*
%TD*%
D22*
%TO.C,J1*%
X106970000Y-107635000D03*
X117970000Y-107635000D03*
D23*
X109970000Y-97635000D03*
D24*
X114970000Y-97635000D03*
%TD*%
D10*
%TO.C,TP3*%
X144720000Y-55060000D03*
%TD*%
D25*
%TO.C,C8*%
X149007571Y-99926117D03*
X150613366Y-100583064D03*
D26*
X145634009Y-101036937D03*
X147239804Y-101693884D03*
%TD*%
D22*
%TO.C,J2*%
X106970000Y-59210000D03*
X117970000Y-59210000D03*
D23*
X109970000Y-64210000D03*
D24*
X114970000Y-64210000D03*
%TD*%
D13*
%TO.C,H7*%
X163890000Y-81210000D03*
%TD*%
D27*
%TO.C,J5*%
X92720000Y-103910000D03*
D18*
X95220000Y-103910000D03*
X97720000Y-103910000D03*
X100220000Y-103910000D03*
%TD*%
D10*
%TO.C,TP5*%
X162220000Y-99810000D03*
%TD*%
%TO.C,TP1*%
X125820000Y-87340000D03*
%TD*%
D13*
%TO.C,H8*%
X163840000Y-89170000D03*
%TD*%
D28*
%TO.C,H3*%
X94970000Y-82310000D03*
%TD*%
%TO.C,H1*%
X153220000Y-59810000D03*
%TD*%
M02*
