M48
; DRILL file {KiCad (6.0.11)} date Thu Feb 29 08:22:58 2024
; FORMAT={-:-/ absolute / inch / decimal}
; #@! TF.CreationDate,2024-02-29T08:22:58+09:00
; #@! TF.GenerationSoftware,Kicad,Pcbnew,(6.0.11)
; #@! TF.FileFunction,Plated,1,2,PTH
FMAT,2
INCH
; #@! TA.AperFunction,Plated,PTH,ViaDrill
T1C0.0118
; #@! TA.AperFunction,Plated,PTH,ViaDrill
T2C0.0157
; #@! TA.AperFunction,Plated,PTH,ViaDrill
T3C0.0236
; #@! TA.AperFunction,Plated,PTH,ComponentDrill
T4C0.0256
; #@! TA.AperFunction,Plated,PTH,ComponentDrill
T5C0.0315
; #@! TA.AperFunction,Plated,PTH,ComponentDrill
T6C0.0335
; #@! TA.AperFunction,Plated,PTH,ComponentDrill
T7C0.0394
; #@! TA.AperFunction,Plated,PTH,ComponentDrill
T8C0.0433
; #@! TA.AperFunction,Plated,PTH,ComponentDrill
T9C0.0591
; #@! TA.AperFunction,Plated,PTH,ComponentDrill
T10C0.0748
%
G90
G05
T1
X3.1209Y-2.9559
X3.1213Y-2.8008
X3.1213Y-3.7406
X3.1217Y-2.5858
X3.1217Y-3.1035
X3.1217Y-3.2575
X3.1217Y-3.4031
X3.1217Y-3.5705
X3.122Y-2.4374
X3.1224Y-2.6783
X3.3937Y-3.2909
X3.4416Y-3.0048
X3.4621Y-3.174
X3.4711Y-3.3607
X3.4972Y-3.174
X3.5059Y-2.5972
X3.5232Y-3.1917
X3.5568Y-3.1938
X3.5673Y-2.6602
X3.5681Y-3.0402
X3.622Y-2.9571
X3.6261Y-3.0048
X3.6287Y-2.7236
X3.6311Y-2.8067
X3.6319Y-2.8957
X3.637Y-3.1823
X3.678Y-3.2071
X3.6862Y-3.1472
X3.6902Y-3.0854
X3.6916Y-2.9
X3.6929Y-2.9315
X3.6933Y-2.9909
X3.6974Y-3.0532
X3.7315Y-2.7165
X3.7496Y-3.1484
X3.7795Y-3.0055
X3.7807Y-3.0661
X3.7815Y-2.9465
X3.7831Y-2.9035
X3.8008Y-3.2307
X3.8177Y-3.0917
X3.9821Y-2.7533
X4.035Y-3.2102
X4.0358Y-3.2646
X4.0421Y-2.6248
X4.1213Y-3.1819
X4.1438Y-2.6594
X4.2402Y-2.7811
X4.3012Y-3.0709
X4.3327Y-3.4945
X4.3807Y-2.7811
X4.385Y-3.4945
X4.9354Y-2.624
X5.135Y-2.6795
X5.137Y-2.622
X5.1386Y-2.6516
X5.1673Y-2.6559
X5.174Y-3.5276
X5.1756Y-3.2795
X5.1756Y-3.3472
X5.176Y-3.4087
X5.176Y-3.4705
X5.198Y-3.2378
X5.2724Y-2.1083
X5.3154Y-3.0602
X5.3161Y-2.6634
X5.3213Y-2.0343
X5.3354Y-2.6992
X5.3457Y-2.6717
X5.35Y-2.7441
X5.3504Y-2.7189
X5.4181Y-3.0894
X5.4245Y-2.9526
X5.4343Y-3.065
X5.4642Y-3.0669
X5.4657Y-2.0335
X5.5445Y-3.0358
X5.5732Y-3.0087
X5.5744Y-3.0339
X5.8965Y-3.0035
X5.9961Y-3.0043
X6.0717Y-2.3547
X6.5402Y-2.9626
X6.5421Y-2.7504
X6.5421Y-2.8429
X6.5992Y-3.0811
X6.6Y-2.7866
X6.6Y-2.9016
X6.6Y-3.0311
X6.6Y-3.2543
X6.6Y-3.3315
X6.6Y-3.422
X6.6004Y-2.5386
X6.6004Y-2.6657
X6.6004Y-3.1705
T2
X3.1421Y-3.9327
X3.161Y-4.1878
X3.1622Y-4.0823
X3.1622Y-4.2957
X3.1681Y-2.0299
X3.1681Y-2.148
X3.1681Y-2.2661
X3.1681Y-2.3646
X3.1976Y-4.3331
X3.2094Y-2.8535
X3.2126Y-3.198
X3.2134Y-3.0102
X3.2142Y-3.3819
X3.2469Y-2.463
X3.2591Y-3.0724
X3.2598Y-2.7791
X3.2642Y-4.0697
X3.2657Y-2.9378
X3.2862Y-2.0299
X3.2862Y-2.2661
X3.2941Y-4.3146
X3.3035Y-3.9059
X3.3106Y-3.4984
X3.3118Y-3.4154
X3.3118Y-3.8299
X3.3256Y-2.3843
X3.3256Y-2.5575
X3.3327Y-2.4768
X3.3567Y-3.6524
X3.3614Y-2.989
X3.3787Y-2.7642
X3.3846Y-4.3528
X3.389Y-3.0862
X3.3957Y-2.8803
X3.4008Y-4.2051
X3.4016Y-3.7472
X3.402Y-3.3748
X3.4043Y-2.0299
X3.4043Y-2.1283
X3.4043Y-2.2268
X3.4197Y-3.9457
X3.4539Y-4.3094
X3.4559Y-2.7835
X3.4634Y-2.2661
X3.4673Y-2.9516
X3.4807Y-3.8106
X3.4819Y-3.7083
X3.4846Y-4.0874
X3.4854Y-3.6063
X3.4874Y-2.3835
X3.4941Y-3.5118
X3.5028Y-4.0181
X3.5098Y-3.0803
X3.5173Y-2.4807
X3.5224Y-2.0299
X3.5224Y-2.1283
X3.5224Y-2.2268
X3.5319Y-3.9335
X3.5421Y-4.3429
X3.5441Y-4.2272
X3.5453Y-2.7382
X3.5472Y-2.8217
X3.548Y-2.9075
X3.5744Y-2.5689
X3.5815Y-2.2661
X3.5886Y-2.4831
X3.5984Y-3.6118
X3.6004Y-3.5067
X3.6063Y-3.7098
X3.6083Y-3.8071
X3.6083Y-4.3071
X3.6307Y-3.2941
X3.6406Y-2.0299
X3.6406Y-2.1283
X3.6417Y-2.3783
X3.6437Y-3.9638
X3.6563Y-3.4583
X3.6689Y-3.739
X3.6799Y-4.3429
X3.6846Y-2.676
X3.6862Y-4.235
X3.6913Y-3.6102
X3.6996Y-2.2268
X3.6996Y-3.3071
X3.7063Y-2.8445
X3.7087Y-2.4185
X3.7161Y-2.3693
X3.7177Y-2.5949
X3.7358Y-2.7898
X3.7396Y-3.2406
X3.7437Y-2.8488
X3.7587Y-2.0299
X3.7587Y-2.1283
X3.7591Y-4.311
X3.7634Y-3.861
X3.765Y-3.4504
X3.7957Y-3.9835
X3.8201Y-2.7339
X3.824Y-2.5579
X3.8276Y-4.3429
X3.8323Y-4.235
X3.8507Y-3.4167
X3.8508Y-3.748
X3.8551Y-3.0555
X3.8567Y-3.6299
X3.861Y-2.9102
X3.8638Y-3.3425
X3.8661Y-2.9811
X3.8669Y-3.9591
X3.8768Y-2.0299
X3.8768Y-2.1283
X3.8768Y-2.2268
X3.8957Y-4.0173
X3.9051Y-3.8909
X3.911Y-2.7189
X3.915Y-4.3059
X3.9185Y-2.4689
X3.9382Y-4.1736
X3.9409Y-3.1051
X3.9563Y-3.3421
X3.9564Y-2.4176
X3.9583Y-3.2709
X3.9598Y-3.6878
X3.9626Y-2.9476
X3.9654Y-4.2543
X3.9669Y-3.4709
X3.9752Y-3.9787
X3.985Y-3.9
X3.9882Y-2.9047
X3.9917Y-3.8094
X3.9929Y-3.0567
X3.9949Y-2.0299
X3.9949Y-2.1283
X3.9949Y-2.2268
X3.9949Y-2.522
X4.0016Y-3.1094
X4.0146Y-4.3528
X4.0177Y-2.3571
X4.0193Y-2.9594
X4.0244Y-4.1264
X4.0354Y-2.7012
X4.0441Y-3.8114
X4.0441Y-3.9398
X4.0441Y-4.028
X4.0469Y-2.7953
X4.052Y-4.3059
X4.0539Y-4.2051
X4.0598Y-3.3878
X4.0685Y-3.7437
X4.0689Y-3.5559
X4.0736Y-3.6638
X4.0835Y-2.8386
X4.0843Y-4.111
X4.0933Y-3.8508
X4.0992Y-2.4898
X4.113Y-2.0299
X4.113Y-2.1283
X4.113Y-2.2268
X4.113Y-3.9295
X4.115Y-2.3315
X4.1217Y-3.137
X4.1228Y-4.2543
X4.1228Y-4.3429
X4.1307Y-2.7417
X4.1327Y-4.028
X4.1425Y-4.1756
X4.1512Y-3.3016
X4.1524Y-3.7228
X4.1531Y-3.6291
X4.1646Y-3.8047
X4.172Y-3.8803
X4.174Y-2.8268
X4.1862Y-2.526
X4.187Y-2.3972
X4.1913Y-2.6807
X4.1933Y-2.9276
X4.1937Y-3.0469
X4.2024Y-3.4854
X4.2075Y-4.3169
X4.2083Y-4.1039
X4.2106Y-3.952
X4.2114Y-3.8311
X4.2114Y-4.0181
X4.2205Y-3.5602
X4.2213Y-4.1657
X4.2311Y-2.0299
X4.2311Y-2.1283
X4.2311Y-2.2268
X4.2409Y-3.7327
X4.2472Y-3.387
X4.2508Y-4.3528
X4.2551Y-3.2
X4.2618Y-3.1429
X4.265Y-2.8512
X4.2783Y-2.3028
X4.2874Y-2.6823
X4.2902Y-3.9984
X4.2902Y-4.0772
X4.2902Y-4.1559
X4.2902Y-4.2346
X4.2902Y-4.3134
X4.326Y-3.2071
X4.3295Y-3.9591
X4.3295Y-4.0378
X4.3295Y-4.1165
X4.3295Y-4.1953
X4.3295Y-4.274
X4.3295Y-4.3528
X4.3413Y-3.5673
X4.3492Y-2.0299
X4.3492Y-2.1283
X4.3492Y-2.2268
X4.3492Y-2.3732
X4.3492Y-3.7327
X4.3543Y-3.6665
X4.361Y-3.3984
X4.3685Y-2.8472
X4.3689Y-3.9984
X4.3689Y-4.0772
X4.3689Y-4.1559
X4.3689Y-4.2346
X4.3689Y-4.3134
X4.3744Y-2.7008
X4.3756Y-3.0638
X4.3764Y-3.3031
X4.4083Y-4.1953
X4.4083Y-4.274
X4.4083Y-4.3528
X4.4476Y-2.1283
X4.4476Y-4.2346
X4.4476Y-4.3134
X4.4587Y-2.2732
X4.4673Y-2.0299
X4.487Y-4.274
X4.487Y-4.3528
X4.5264Y-4.2346
X4.5264Y-4.3134
X4.5291Y-2.3669
X4.5453Y-2.1764
X4.5657Y-1.9906
X4.5657Y-4.274
X4.5657Y-4.3528
X4.6012Y-2.2579
X4.6051Y-4.3134
X4.6445Y-4.3528
X4.6661Y-2.0465
X4.6807Y-2.3929
X4.6839Y-4.3134
X4.7Y-2.1602
X4.7232Y-4.274
X4.7232Y-4.3528
X4.7626Y-4.2346
X4.7642Y-2.4827
X4.776Y-2.2307
X4.802Y-4.274
X4.802Y-4.3528
X4.8118Y-2.4248
X4.8181Y-2.0689
X4.8272Y-2.3232
X4.8413Y-4.2346
X4.8413Y-4.3134
X4.8535Y-2.5768
X4.8807Y-4.274
X4.8807Y-4.3528
X4.8898Y-2.8295
X4.8933Y-2.7193
X4.898Y-2.7969
X4.8984Y-2.7638
X4.8984Y-3.75
X4.9Y-3.8579
X4.9004Y-2.5811
X4.9004Y-2.8764
X4.9004Y-2.9157
X4.9004Y-2.9551
X4.9004Y-2.9945
X4.9004Y-3.0339
X4.9004Y-3.0732
X4.9004Y-3.1126
X4.9201Y-4.2346
X4.9201Y-4.3134
X4.9299Y-2.7252
X4.9323Y-2.7642
X4.935Y-2.1961
X4.9378Y-2.3248
X4.9398Y-2.8961
X4.9398Y-2.9354
X4.9398Y-2.9748
X4.9398Y-3.0142
X4.9398Y-3.0535
X4.9398Y-3.0929
X4.9594Y-4.274
X4.9594Y-4.3528
X4.9791Y-2.5122
X4.9827Y-2.0677
X4.9862Y-2.4587
X4.9988Y-4.2346
X4.9988Y-4.3134
X5.0039Y-2.8268
X5.0382Y-3.8803
X5.0382Y-3.9591
X5.0382Y-4.0378
X5.0382Y-4.1165
X5.0382Y-4.1953
X5.0382Y-4.274
X5.0382Y-4.3528
X5.0484Y-2.2811
X5.0539Y-2.4094
X5.0579Y-2.8579
X5.072Y-3.0386
X5.0728Y-2.1921
X5.0756Y-2.4945
X5.0776Y-3.8409
X5.0776Y-3.9197
X5.0776Y-3.9984
X5.0776Y-4.0772
X5.0776Y-4.1559
X5.0776Y-4.2346
X5.0776Y-4.3134
X5.1075Y-2.8362
X5.1097Y-2.9605
X5.1098Y-2.128
X5.1169Y-3.8016
X5.1169Y-3.8803
X5.1169Y-3.9591
X5.1169Y-4.0378
X5.1169Y-4.1165
X5.1169Y-4.1953
X5.1169Y-4.274
X5.1169Y-4.3528
X5.1232Y-2.0508
X5.1283Y-2.5539
X5.1563Y-3.7622
X5.1563Y-3.8409
X5.1563Y-3.9197
X5.1563Y-3.9984
X5.1563Y-4.0772
X5.1563Y-4.1559
X5.1563Y-4.3134
X5.1957Y-3.8016
X5.1957Y-3.8803
X5.1957Y-3.9591
X5.1957Y-4.0378
X5.1957Y-4.1165
X5.1957Y-4.3528
X5.198Y-2.5579
X5.2012Y-2.4992
X5.2205Y-2.1728
X5.235Y-3.7622
X5.235Y-3.8409
X5.235Y-3.9197
X5.235Y-3.9984
X5.235Y-4.0772
X5.2547Y-3.211
X5.2744Y-3.8016
X5.2744Y-3.8803
X5.2744Y-3.9591
X5.2744Y-4.0378
X5.2744Y-4.1165
X5.2941Y-3.1717
X5.3022Y-2.7386
X5.3138Y-3.7622
X5.3138Y-3.8409
X5.3138Y-3.9197
X5.3138Y-3.9984
X5.3138Y-4.0772
X5.3138Y-4.1559
X5.3335Y-3.211
X5.3531Y-3.8016
X5.3531Y-3.8803
X5.3531Y-3.9591
X5.3531Y-4.0378
X5.3531Y-4.1165
X5.3531Y-4.1953
X5.3531Y-4.274
X5.3531Y-4.3528
X5.3657Y-2.1091
X5.372Y-2.5008
X5.3728Y-3.1717
X5.3925Y-3.7622
X5.3925Y-3.8409
X5.3925Y-3.9197
X5.3925Y-3.9984
X5.3925Y-4.0772
X5.3925Y-4.1559
X5.3925Y-4.2346
X5.3925Y-4.3134
X5.3941Y-2.039
X5.4Y-2.3654
X5.4016Y-2.7295
X5.4118Y-2.6335
X5.4122Y-3.211
X5.4319Y-3.8016
X5.4319Y-3.8803
X5.4319Y-3.9591
X5.4319Y-4.0378
X5.4319Y-4.1165
X5.4319Y-4.1953
X5.4319Y-4.274
X5.4319Y-4.3528
X5.4413Y-2.8563
X5.4421Y-2.1106
X5.4516Y-3.1717
X5.4713Y-3.7622
X5.4713Y-3.8409
X5.4713Y-3.9197
X5.4713Y-3.9984
X5.4713Y-4.0772
X5.4713Y-4.1559
X5.4713Y-4.2346
X5.4713Y-4.3134
X5.4724Y-2.8028
X5.474Y-2.5496
X5.4909Y-3.211
X5.5106Y-3.8016
X5.5106Y-3.8803
X5.5106Y-3.9591
X5.5106Y-4.0378
X5.5106Y-4.1165
X5.5106Y-4.1953
X5.5106Y-4.274
X5.5106Y-4.3528
X5.5228Y-2.3594
X5.5303Y-3.1717
X5.5362Y-2.8319
X5.5406Y-2.6035
X5.5427Y-2.9053
X5.55Y-3.7622
X5.55Y-3.8409
X5.55Y-3.9197
X5.55Y-3.9984
X5.55Y-4.0772
X5.55Y-4.1559
X5.55Y-4.2346
X5.55Y-4.3134
X5.5571Y-2.5154
X5.5697Y-3.211
X5.5736Y-3.6453
X5.585Y-2.1539
X5.5894Y-3.8016
X5.5894Y-3.8803
X5.5894Y-3.9591
X5.5894Y-4.0378
X5.5894Y-4.1165
X5.5894Y-4.1953
X5.5894Y-4.274
X5.5894Y-4.3528
X5.602Y-2.6685
X5.6091Y-3.1717
X5.6287Y-3.7622
X5.6287Y-3.8409
X5.6287Y-3.9197
X5.6287Y-3.9984
X5.6287Y-4.0772
X5.6287Y-4.1559
X5.6287Y-4.2346
X5.6287Y-4.3134
X5.6315Y-2.8157
X5.639Y-2.8866
X5.6445Y-2.3646
X5.6484Y-3.211
X5.6504Y-2.6776
X5.6531Y-2.0457
X5.6575Y-2.6012
X5.6614Y-2.9988
X5.6681Y-3.8016
X5.6681Y-3.8803
X5.6681Y-3.9591
X5.6681Y-4.0378
X5.6681Y-4.1165
X5.6681Y-4.1953
X5.6681Y-4.274
X5.6681Y-4.3528
X5.6878Y-3.1913
X5.7075Y-3.7622
X5.7075Y-3.8409
X5.7075Y-3.9197
X5.7075Y-4.0772
X5.7075Y-4.1559
X5.7075Y-4.2346
X5.7075Y-4.3134
X5.722Y-2.3654
X5.7224Y-3.5795
X5.7272Y-3.211
X5.7469Y-3.8016
X5.7469Y-3.8803
X5.7469Y-4.0378
X5.7469Y-4.1165
X5.7469Y-4.1953
X5.7469Y-4.274
X5.7469Y-4.3528
X5.7563Y-2.4657
X5.7614Y-2.0567
X5.7665Y-3.1913
X5.7693Y-3.0913
X5.7713Y-2.152
X5.7862Y-3.7622
X5.7862Y-3.8409
X5.7862Y-3.9197
X5.7862Y-4.0772
X5.7862Y-4.1559
X5.7862Y-4.2346
X5.7862Y-4.3134
X5.7929Y-2.4028
X5.7933Y-3.5807
X5.7949Y-3.0118
X5.8059Y-3.211
X5.813Y-2.6417
X5.8217Y-2.5362
X5.8256Y-4.1165
X5.8256Y-4.1953
X5.8256Y-4.274
X5.8256Y-4.3528
X5.865Y-4.0772
X5.865Y-4.1559
X5.865Y-4.2346
X5.865Y-4.3134
X5.889Y-2.1299
X5.8917Y-2.0555
X5.9043Y-2.5362
X5.9043Y-4.1165
X5.9043Y-4.1953
X5.9043Y-4.274
X5.9043Y-4.3528
X5.9055Y-2.4087
X5.9122Y-2.6386
X5.9177Y-2.2638
X5.9437Y-4.0772
X5.9437Y-4.1559
X5.9437Y-4.2346
X5.9437Y-4.3134
X5.9591Y-2.339
X5.9618Y-2.1402
X5.9654Y-2.048
X5.9831Y-4.1165
X5.9831Y-4.1953
X5.9831Y-4.274
X5.9831Y-4.3528
X6.0012Y-2.4268
X6.0063Y-2.2917
X6.0224Y-4.0772
X6.0224Y-4.1559
X6.0224Y-4.2346
X6.0224Y-4.3134
X6.0331Y-2.5441
X6.0417Y-2.6402
X6.0618Y-4.1165
X6.0618Y-4.1953
X6.0618Y-4.274
X6.0618Y-4.3528
X6.0728Y-2.422
X6.0984Y-1.9992
X6.1008Y-3.013
X6.1012Y-2.1969
X6.1012Y-4.0772
X6.1012Y-4.1559
X6.1012Y-4.2346
X6.1012Y-4.3134
X6.1406Y-3.0929
X6.1406Y-3.1717
X6.1406Y-3.2504
X6.1406Y-3.3291
X6.1406Y-3.4079
X6.1406Y-3.4866
X6.1406Y-3.5654
X6.1406Y-3.6441
X6.1406Y-3.7228
X6.1406Y-3.8016
X6.1406Y-3.8803
X6.1406Y-3.9591
X6.1406Y-4.0378
X6.1406Y-4.1165
X6.1406Y-4.1953
X6.1406Y-4.274
X6.1406Y-4.3528
X6.15Y-2.4303
X6.1535Y-2.6417
X6.1547Y-2.5228
X6.165Y-2.1004
X6.1657Y-2.3559
X6.1799Y-3.1323
X6.1799Y-3.211
X6.1799Y-3.2898
X6.1799Y-3.3685
X6.1799Y-3.4472
X6.1799Y-3.526
X6.1799Y-3.6047
X6.1799Y-3.6835
X6.1799Y-3.7622
X6.1799Y-3.8409
X6.1799Y-3.9197
X6.1799Y-3.9984
X6.1799Y-4.0772
X6.1799Y-4.1559
X6.1799Y-4.2346
X6.1799Y-4.3134
X6.2185Y-2.1937
X6.2193Y-3.0929
X6.2193Y-3.1717
X6.2193Y-3.2504
X6.2193Y-3.3291
X6.2193Y-3.4079
X6.2193Y-3.4866
X6.2193Y-3.5654
X6.2193Y-3.6441
X6.2193Y-3.7228
X6.2193Y-3.8016
X6.2193Y-3.8803
X6.2193Y-3.9591
X6.2193Y-4.0378
X6.2193Y-4.1165
X6.2193Y-4.1953
X6.2193Y-4.274
X6.2193Y-4.3528
X6.2205Y-2.0181
X6.2504Y-3.0209
X6.2528Y-2.2866
X6.2531Y-2.4339
X6.2587Y-3.1323
X6.2587Y-3.211
X6.2587Y-3.2898
X6.2587Y-3.3685
X6.2587Y-3.4472
X6.2587Y-3.526
X6.2587Y-3.6047
X6.2587Y-3.6835
X6.2587Y-3.7622
X6.2587Y-3.8409
X6.2587Y-3.9197
X6.2587Y-3.9984
X6.2587Y-4.0772
X6.2587Y-4.1559
X6.2587Y-4.2346
X6.2587Y-4.3134
X6.2614Y-2.6327
X6.2772Y-2.1043
X6.2843Y-2.4913
X6.298Y-3.0929
X6.298Y-3.1717
X6.298Y-3.2504
X6.298Y-3.3291
X6.298Y-3.4079
X6.298Y-3.4866
X6.298Y-3.5654
X6.298Y-3.6441
X6.298Y-3.7228
X6.298Y-3.8016
X6.298Y-3.8803
X6.298Y-3.9591
X6.298Y-4.0378
X6.298Y-4.1165
X6.298Y-4.1953
X6.298Y-4.274
X6.298Y-4.3528
X6.3197Y-2.028
X6.3197Y-2.1831
X6.3244Y-2.3882
X6.3323Y-2.2988
X6.3374Y-3.1323
X6.3374Y-3.211
X6.3374Y-3.2898
X6.3374Y-3.3685
X6.3374Y-3.4472
X6.3374Y-3.526
X6.3374Y-3.6047
X6.3374Y-3.6835
X6.3374Y-3.7622
X6.3374Y-3.8409
X6.3374Y-3.9984
X6.3374Y-4.0772
X6.3374Y-4.1559
X6.3374Y-4.2346
X6.3374Y-4.3134
X6.3693Y-2.6319
X6.3709Y-2.5047
X6.3768Y-3.0929
X6.3768Y-3.2504
X6.3768Y-3.3291
X6.3768Y-3.4079
X6.3768Y-3.6441
X6.3768Y-3.7228
X6.3768Y-3.8016
X6.3768Y-4.0378
X6.3768Y-4.1165
X6.3768Y-4.274
X6.3768Y-4.3528
X6.378Y-3.0209
X6.4161Y-3.2898
X6.4161Y-3.3685
X6.4161Y-3.6047
X6.4161Y-3.6835
X6.4161Y-3.7622
X6.4161Y-3.8409
X6.4161Y-3.9984
X6.4161Y-4.0772
X6.4161Y-4.3134
X6.4177Y-2.3882
X6.4193Y-2.024
X6.4555Y-3.0929
X6.4555Y-3.3291
X6.4555Y-3.4079
X6.4555Y-3.6441
X6.4555Y-3.7228
X6.4555Y-3.8016
X6.4555Y-3.8803
X6.4555Y-3.9591
X6.4555Y-4.0378
X6.4555Y-4.3528
X6.4571Y-2.2713
X6.4949Y-3.2898
X6.4949Y-3.3685
X6.4949Y-3.6047
X6.4949Y-3.6835
X6.4949Y-3.7622
X6.4949Y-3.8409
X6.4949Y-3.9197
X6.4949Y-3.9984
X6.4949Y-4.0772
X6.4949Y-4.3134
X6.5138Y-3.0217
X6.5283Y-2.6484
X6.5343Y-2.4921
X6.5343Y-3.0929
X6.5343Y-3.1717
X6.5343Y-3.2504
X6.5343Y-3.3291
X6.5343Y-3.5654
X6.5343Y-3.6441
X6.5343Y-3.7228
X6.5343Y-3.8016
X6.5343Y-3.8803
X6.5343Y-3.9591
X6.5343Y-4.0378
X6.5343Y-4.1165
X6.5343Y-4.1953
X6.5343Y-4.274
X6.5343Y-4.3528
X6.5433Y-2.0319
X6.5736Y-2.1598
X6.5736Y-2.2693
X6.5736Y-3.4472
X6.5736Y-3.526
X6.5736Y-3.6047
X6.5736Y-3.6835
X6.5736Y-3.7622
X6.5736Y-3.8409
X6.5736Y-3.9197
X6.5736Y-3.9984
X6.5736Y-4.0772
X6.5736Y-4.1559
X6.5736Y-4.2346
X6.5736Y-4.3134
X6.5811Y-2.4094
T3
X4.0685Y-3.3028
X4.1295Y-2.8748
X4.1295Y-3.0567
X4.586Y-3.0813
X4.5874Y-2.8657
T4
X3.7079Y-3.5118
X3.7079Y-3.8071
X3.8079Y-3.5118
X3.8079Y-3.8071
X3.9079Y-3.5118
X3.9079Y-3.8071
X4.1484Y-3.5555
X4.2744Y-3.4571
X4.2744Y-3.6539
T5
X3.2449Y-3.4594
X3.2449Y-3.5594
X3.2449Y-3.6594
X3.2449Y-3.7594
X3.2449Y-3.8594
X3.5449Y-3.4594
X3.5449Y-3.5594
X3.5449Y-3.6594
X3.5449Y-3.7594
X3.5449Y-3.8594
X5.7336Y-3.9778
X5.7968Y-4.0037
X5.8664Y-3.9341
X5.9297Y-3.96
T6
X3.6504Y-2.2819
X3.6504Y-4.0909
X3.7488Y-2.2819
X3.7488Y-4.0909
X3.8472Y-2.2819
X3.8472Y-4.0909
X3.9457Y-2.2819
X3.9457Y-4.0909
T7
X4.0835Y-2.4138
X4.2114Y-2.3311
X4.2114Y-4.2376
X4.6445Y-2.3311
X4.6445Y-4.2376
X4.9535Y-3.4386
X5.6976Y-2.1677
X6.0323Y-2.778
X6.3866Y-3.9295
T8
X5.1469Y-3.5996
X5.2469Y-3.5996
X5.3469Y-3.5996
T9
X6.4488Y-2.8811
X6.4504Y-3.5106
X6.4516Y-2.5642
X6.4524Y-3.1972
T10
X4.3295Y-2.528
X4.3295Y-3.8439
X4.5264Y-2.528
X4.5264Y-3.8439
T0
M30
