%TF.GenerationSoftware,KiCad,Pcbnew,(6.0.11)*%
%TF.CreationDate,2024-02-29T08:25:03+09:00*%
%TF.ProjectId,Mother_UI,4d6f7468-6572-45f5-9549-2e6b69636164,rev?*%
%TF.SameCoordinates,Original*%
%TF.FileFunction,Paste,Top*%
%TF.FilePolarity,Positive*%
%FSLAX46Y46*%
G04 Gerber Fmt 4.6, Leading zero omitted, Abs format (unit mm)*
G04 Created by KiCad (PCBNEW (6.0.11)) date 2024-02-29 08:25:03*
%MOMM*%
%LPD*%
G01*
G04 APERTURE LIST*
G04 Aperture macros list*
%AMRoundRect*
0 Rectangle with rounded corners*
0 $1 Rounding radius*
0 $2 $3 $4 $5 $6 $7 $8 $9 X,Y pos of 4 corners*
0 Add a 4 corners polygon primitive as box body*
4,1,4,$2,$3,$4,$5,$6,$7,$8,$9,$2,$3,0*
0 Add four circle primitives for the rounded corners*
1,1,$1+$1,$2,$3*
1,1,$1+$1,$4,$5*
1,1,$1+$1,$6,$7*
1,1,$1+$1,$8,$9*
0 Add four rect primitives between the rounded corners*
20,1,$1+$1,$2,$3,$4,$5,0*
20,1,$1+$1,$4,$5,$6,$7,0*
20,1,$1+$1,$6,$7,$8,$9,0*
20,1,$1+$1,$8,$9,$2,$3,0*%
G04 Aperture macros list end*
%ADD10RoundRect,0.250000X-0.250000X-0.475000X0.250000X-0.475000X0.250000X0.475000X-0.250000X0.475000X0*%
%ADD11RoundRect,0.200000X-0.275000X0.200000X-0.275000X-0.200000X0.275000X-0.200000X0.275000X0.200000X0*%
%ADD12R,1.400000X1.600000*%
%ADD13RoundRect,0.140000X0.170000X-0.140000X0.170000X0.140000X-0.170000X0.140000X-0.170000X-0.140000X0*%
%ADD14R,4.000000X1.200000*%
%ADD15RoundRect,0.250000X-0.475000X0.250000X-0.475000X-0.250000X0.475000X-0.250000X0.475000X0.250000X0*%
%ADD16RoundRect,0.200000X0.275000X-0.200000X0.275000X0.200000X-0.275000X0.200000X-0.275000X-0.200000X0*%
%ADD17R,0.700000X0.900000*%
%ADD18RoundRect,0.135000X0.185000X-0.135000X0.185000X0.135000X-0.185000X0.135000X-0.185000X-0.135000X0*%
%ADD19RoundRect,0.135000X0.135000X0.185000X-0.135000X0.185000X-0.135000X-0.185000X0.135000X-0.185000X0*%
%ADD20RoundRect,0.140000X0.140000X0.170000X-0.140000X0.170000X-0.140000X-0.170000X0.140000X-0.170000X0*%
%ADD21RoundRect,0.140000X-0.140000X-0.170000X0.140000X-0.170000X0.140000X0.170000X-0.140000X0.170000X0*%
%ADD22RoundRect,0.250000X0.250000X0.475000X-0.250000X0.475000X-0.250000X-0.475000X0.250000X-0.475000X0*%
%ADD23RoundRect,0.237500X-0.287500X-0.237500X0.287500X-0.237500X0.287500X0.237500X-0.287500X0.237500X0*%
%ADD24RoundRect,0.135000X-0.135000X-0.185000X0.135000X-0.185000X0.135000X0.185000X-0.135000X0.185000X0*%
%ADD25RoundRect,0.237500X-0.237500X0.250000X-0.237500X-0.250000X0.237500X-0.250000X0.237500X0.250000X0*%
%ADD26RoundRect,0.150000X0.150000X-0.587500X0.150000X0.587500X-0.150000X0.587500X-0.150000X-0.587500X0*%
%ADD27RoundRect,0.237500X0.287500X0.237500X-0.287500X0.237500X-0.287500X-0.237500X0.287500X-0.237500X0*%
%ADD28R,0.700000X1.000000*%
%ADD29RoundRect,0.135000X-0.185000X0.135000X-0.185000X-0.135000X0.185000X-0.135000X0.185000X0.135000X0*%
%ADD30RoundRect,0.150000X0.675000X0.150000X-0.675000X0.150000X-0.675000X-0.150000X0.675000X-0.150000X0*%
G04 APERTURE END LIST*
D10*
%TO.C,C22*%
X146050000Y-108930000D03*
X147950000Y-108930000D03*
%TD*%
D11*
%TO.C,R16*%
X146330000Y-105465000D03*
X146330000Y-107115000D03*
%TD*%
D12*
%TO.C,SW8*%
X101850000Y-106350000D03*
X101850000Y-98350000D03*
X106350000Y-98350000D03*
X106350000Y-106350000D03*
%TD*%
D13*
%TO.C,C5*%
X95100000Y-106230000D03*
X95100000Y-105270000D03*
%TD*%
D14*
%TO.C,LS1*%
X165190000Y-114050000D03*
X165190000Y-102850000D03*
%TD*%
D15*
%TO.C,C16*%
X146730000Y-96680000D03*
X146730000Y-98580000D03*
%TD*%
D16*
%TO.C,R12*%
X158010000Y-106595000D03*
X158010000Y-104945000D03*
%TD*%
D17*
%TO.C,D3*%
X96550000Y-82865000D03*
X97650000Y-82865000D03*
X97650000Y-81035000D03*
X96550000Y-81035000D03*
%TD*%
D18*
%TO.C,R5*%
X145130000Y-95950000D03*
X145130000Y-94930000D03*
%TD*%
D13*
%TO.C,C3*%
X95100000Y-109630000D03*
X95100000Y-108670000D03*
%TD*%
D19*
%TO.C,R4*%
X106840000Y-79850000D03*
X105820000Y-79850000D03*
%TD*%
D12*
%TO.C,SW4*%
X129100000Y-107330000D03*
X129100000Y-115330000D03*
X133600000Y-115330000D03*
X133600000Y-107330000D03*
%TD*%
D17*
%TO.C,D18*%
X93650000Y-81035000D03*
X92550000Y-81035000D03*
X92550000Y-82865000D03*
X93650000Y-82865000D03*
%TD*%
D18*
%TO.C,R7*%
X82850000Y-95960000D03*
X82850000Y-94940000D03*
%TD*%
D20*
%TO.C,C14*%
X141830000Y-115580000D03*
X140870000Y-115580000D03*
%TD*%
D17*
%TO.C,D16*%
X96550000Y-110065000D03*
X97650000Y-110065000D03*
X97650000Y-108235000D03*
X96550000Y-108235000D03*
%TD*%
D21*
%TO.C,C20*%
X103620000Y-117400000D03*
X104580000Y-117400000D03*
%TD*%
D17*
%TO.C,D8*%
X96550000Y-103265000D03*
X97650000Y-103265000D03*
X97650000Y-101435000D03*
X96550000Y-101435000D03*
%TD*%
D15*
%TO.C,C21*%
X153710000Y-109650000D03*
X153710000Y-111550000D03*
%TD*%
D18*
%TO.C,R6*%
X145140000Y-98890000D03*
X145140000Y-97870000D03*
%TD*%
D16*
%TO.C,R11*%
X157030000Y-109635000D03*
X157030000Y-107985000D03*
%TD*%
D22*
%TO.C,C19*%
X152019999Y-102260000D03*
X150119999Y-102260000D03*
%TD*%
D13*
%TO.C,C7*%
X95100000Y-102830000D03*
X95100000Y-101870000D03*
%TD*%
D17*
%TO.C,D10*%
X93650000Y-87835000D03*
X92550000Y-87835000D03*
X92550000Y-89665000D03*
X93650000Y-89665000D03*
%TD*%
D18*
%TO.C,R8*%
X82850000Y-91960000D03*
X82850000Y-90940000D03*
%TD*%
D17*
%TO.C,D19*%
X96550000Y-96465000D03*
X97650000Y-96465000D03*
X97650000Y-94635000D03*
X96550000Y-94635000D03*
%TD*%
D20*
%TO.C,C12*%
X131830000Y-115580000D03*
X130870000Y-115580000D03*
%TD*%
D12*
%TO.C,SW11*%
X101850000Y-117200000D03*
X101850000Y-109200000D03*
X106350000Y-117200000D03*
X106350000Y-109200000D03*
%TD*%
D13*
%TO.C,C1*%
X95100000Y-113030000D03*
X95100000Y-112070000D03*
%TD*%
D11*
%TO.C,R15*%
X155490000Y-109565000D03*
X155490000Y-111215000D03*
%TD*%
D15*
%TO.C,C15*%
X146740000Y-93170000D03*
X146740000Y-95070000D03*
%TD*%
D23*
%TO.C,D22*%
X105455000Y-81250000D03*
X107205000Y-81250000D03*
%TD*%
D24*
%TO.C,R3*%
X102220000Y-79850000D03*
X103240000Y-79850000D03*
%TD*%
D13*
%TO.C,C10*%
X95100000Y-82430000D03*
X95100000Y-81470000D03*
%TD*%
D18*
%TO.C,R9*%
X156740000Y-105730000D03*
X156740000Y-104710000D03*
%TD*%
D13*
%TO.C,C2*%
X95100000Y-96030000D03*
X95100000Y-95070000D03*
%TD*%
D17*
%TO.C,D11*%
X96550000Y-89665000D03*
X97650000Y-89665000D03*
X97650000Y-87835000D03*
X96550000Y-87835000D03*
%TD*%
%TO.C,D2*%
X93650000Y-94635000D03*
X92550000Y-94635000D03*
X92550000Y-96465000D03*
X93650000Y-96465000D03*
%TD*%
D25*
%TO.C,R2*%
X135150000Y-75287500D03*
X135150000Y-77112500D03*
%TD*%
D12*
%TO.C,SW6*%
X139100000Y-115330000D03*
X139100000Y-107330000D03*
X143600000Y-107330000D03*
X143600000Y-115330000D03*
%TD*%
D17*
%TO.C,D12*%
X96550000Y-106665000D03*
X97650000Y-106665000D03*
X97650000Y-104835000D03*
X96550000Y-104835000D03*
%TD*%
%TO.C,D17*%
X93650000Y-98035000D03*
X92550000Y-98035000D03*
X92550000Y-99865000D03*
X93650000Y-99865000D03*
%TD*%
%TO.C,D13*%
X93650000Y-101435000D03*
X92550000Y-101435000D03*
X92550000Y-103265000D03*
X93650000Y-103265000D03*
%TD*%
D13*
%TO.C,C6*%
X95100000Y-89230000D03*
X95100000Y-88270000D03*
%TD*%
D17*
%TO.C,D6*%
X93650000Y-91235000D03*
X92550000Y-91235000D03*
X92550000Y-93065000D03*
X93650000Y-93065000D03*
%TD*%
%TO.C,D4*%
X96550000Y-99865000D03*
X97650000Y-99865000D03*
X97650000Y-98035000D03*
X96550000Y-98035000D03*
%TD*%
D21*
%TO.C,C17*%
X103620000Y-106550000D03*
X104580000Y-106550000D03*
%TD*%
D26*
%TO.C,Q1*%
X84150000Y-96387500D03*
X86050000Y-96387500D03*
X85100000Y-94512500D03*
%TD*%
D12*
%TO.C,SW3*%
X119100000Y-107330000D03*
X119100000Y-115330000D03*
X123600000Y-107330000D03*
X123600000Y-115330000D03*
%TD*%
D18*
%TO.C,R17*%
X158310000Y-114030000D03*
X158310000Y-113010000D03*
%TD*%
D17*
%TO.C,D7*%
X96550000Y-86265000D03*
X97650000Y-86265000D03*
X97650000Y-84435000D03*
X96550000Y-84435000D03*
%TD*%
D15*
%TO.C,C18*%
X157240000Y-101530000D03*
X157240000Y-103430000D03*
%TD*%
D16*
%TO.C,R14*%
X146870000Y-103975000D03*
X146870000Y-102325000D03*
%TD*%
D27*
%TO.C,D21*%
X103605000Y-81250000D03*
X101855000Y-81250000D03*
%TD*%
D28*
%TO.C,Q2*%
X89800000Y-90250000D03*
X87900000Y-90250000D03*
X88850000Y-92650000D03*
%TD*%
D13*
%TO.C,C8*%
X95100000Y-85830000D03*
X95100000Y-84870000D03*
%TD*%
%TO.C,C4*%
X95100000Y-92630000D03*
X95100000Y-91670000D03*
%TD*%
%TO.C,C9*%
X95100000Y-99430000D03*
X95100000Y-98470000D03*
%TD*%
D17*
%TO.C,D5*%
X93650000Y-108235000D03*
X92550000Y-108235000D03*
X92550000Y-110065000D03*
X93650000Y-110065000D03*
%TD*%
D26*
%TO.C,Q3*%
X84150000Y-92387500D03*
X86050000Y-92387500D03*
X85100000Y-90512500D03*
%TD*%
D17*
%TO.C,D20*%
X96550000Y-113465000D03*
X97650000Y-113465000D03*
X97650000Y-111635000D03*
X96550000Y-111635000D03*
%TD*%
D29*
%TO.C,R10*%
X148160000Y-103160000D03*
X148160000Y-104180000D03*
%TD*%
D17*
%TO.C,D1*%
X93650000Y-111635000D03*
X92550000Y-111635000D03*
X92550000Y-113465000D03*
X93650000Y-113465000D03*
%TD*%
D12*
%TO.C,SW10*%
X110350000Y-111200000D03*
X110350000Y-119200000D03*
X114850000Y-119200000D03*
X114850000Y-111200000D03*
%TD*%
D24*
%TO.C,R18*%
X149210000Y-109380000D03*
X150230000Y-109380000D03*
%TD*%
D20*
%TO.C,C11*%
X121830000Y-115580000D03*
X120870000Y-115580000D03*
%TD*%
D25*
%TO.C,R1*%
X132750000Y-75287500D03*
X132750000Y-77112500D03*
%TD*%
D12*
%TO.C,SW9*%
X110350000Y-100450000D03*
X110350000Y-108450000D03*
X114850000Y-100450000D03*
X114850000Y-108450000D03*
%TD*%
D17*
%TO.C,D9*%
X93650000Y-104835000D03*
X92550000Y-104835000D03*
X92550000Y-106665000D03*
X93650000Y-106665000D03*
%TD*%
%TO.C,D14*%
X93650000Y-84435000D03*
X92550000Y-84435000D03*
X92550000Y-86265000D03*
X93650000Y-86265000D03*
%TD*%
%TO.C,D15*%
X96550000Y-93065000D03*
X97650000Y-93065000D03*
X97650000Y-91235000D03*
X96550000Y-91235000D03*
%TD*%
D20*
%TO.C,C13*%
X129960000Y-77700000D03*
X129000000Y-77700000D03*
%TD*%
D30*
%TO.C,U2*%
X155115000Y-108005000D03*
X155115000Y-106735000D03*
X155115000Y-105465000D03*
X155115000Y-104195000D03*
X149865000Y-104195000D03*
X149865000Y-105465000D03*
X149865000Y-106735000D03*
X149865000Y-108005000D03*
%TD*%
D16*
%TO.C,R13*%
X147930000Y-107075000D03*
X147930000Y-105425000D03*
%TD*%
M02*
