%TF.GenerationSoftware,KiCad,Pcbnew,(6.0.11)*%
%TF.CreationDate,2024-02-29T08:25:03+09:00*%
%TF.ProjectId,Mother_UI,4d6f7468-6572-45f5-9549-2e6b69636164,rev?*%
%TF.SameCoordinates,Original*%
%TF.FileFunction,Legend,Top*%
%TF.FilePolarity,Positive*%
%FSLAX46Y46*%
G04 Gerber Fmt 4.6, Leading zero omitted, Abs format (unit mm)*
G04 Created by KiCad (PCBNEW (6.0.11)) date 2024-02-29 08:25:03*
%MOMM*%
%LPD*%
G01*
G04 APERTURE LIST*
G04 Aperture macros list*
%AMRoundRect*
0 Rectangle with rounded corners*
0 $1 Rounding radius*
0 $2 $3 $4 $5 $6 $7 $8 $9 X,Y pos of 4 corners*
0 Add a 4 corners polygon primitive as box body*
4,1,4,$2,$3,$4,$5,$6,$7,$8,$9,$2,$3,0*
0 Add four circle primitives for the rounded corners*
1,1,$1+$1,$2,$3*
1,1,$1+$1,$4,$5*
1,1,$1+$1,$6,$7*
1,1,$1+$1,$8,$9*
0 Add four rect primitives between the rounded corners*
20,1,$1+$1,$2,$3,$4,$5,0*
20,1,$1+$1,$4,$5,$6,$7,0*
20,1,$1+$1,$6,$7,$8,$9,0*
20,1,$1+$1,$8,$9,$2,$3,0*%
%AMFreePoly0*
4,1,6,1.000000,0.000000,0.500000,-0.750000,-0.500000,-0.750000,-0.500000,0.750000,0.500000,0.750000,1.000000,0.000000,1.000000,0.000000,$1*%
%AMFreePoly1*
4,1,6,0.500000,-0.750000,-0.650000,-0.750000,-0.150000,0.000000,-0.650000,0.750000,0.500000,0.750000,0.500000,-0.750000,0.500000,-0.750000,$1*%
G04 Aperture macros list end*
%ADD10C,0.150000*%
%ADD11C,0.575000*%
%ADD12C,0.130000*%
%ADD13C,0.200000*%
%ADD14C,0.160000*%
%ADD15C,0.300000*%
%ADD16C,0.350000*%
%ADD17C,0.120000*%
%ADD18C,0.110000*%
%ADD19C,0.210000*%
%ADD20C,0.152000*%
%ADD21C,0.254000*%
%ADD22RoundRect,0.250000X-0.250000X-0.475000X0.250000X-0.475000X0.250000X0.475000X-0.250000X0.475000X0*%
%ADD23RoundRect,0.381000X-0.381000X0.381000X-0.381000X-0.381000X0.381000X-0.381000X0.381000X0.381000X0*%
%ADD24C,1.524000*%
%ADD25RoundRect,0.200000X-0.275000X0.200000X-0.275000X-0.200000X0.275000X-0.200000X0.275000X0.200000X0*%
%ADD26R,1.400000X1.600000*%
%ADD27RoundRect,0.140000X0.170000X-0.140000X0.170000X0.140000X-0.170000X0.140000X-0.170000X-0.140000X0*%
%ADD28RoundRect,0.250000X0.675000X-0.600000X0.675000X0.600000X-0.675000X0.600000X-0.675000X-0.600000X0*%
%ADD29O,1.850000X1.700000*%
%ADD30R,4.000000X1.200000*%
%ADD31RoundRect,0.425000X-0.425000X-0.425000X0.425000X-0.425000X0.425000X0.425000X-0.425000X0.425000X0*%
%ADD32C,1.700000*%
%ADD33RoundRect,0.250000X-0.475000X0.250000X-0.475000X-0.250000X0.475000X-0.250000X0.475000X0.250000X0*%
%ADD34RoundRect,0.200000X0.275000X-0.200000X0.275000X0.200000X-0.275000X0.200000X-0.275000X-0.200000X0*%
%ADD35R,0.700000X0.900000*%
%ADD36RoundRect,0.135000X0.185000X-0.135000X0.185000X0.135000X-0.185000X0.135000X-0.185000X-0.135000X0*%
%ADD37RoundRect,0.135000X0.135000X0.185000X-0.135000X0.185000X-0.135000X-0.185000X0.135000X-0.185000X0*%
%ADD38RoundRect,0.140000X0.140000X0.170000X-0.140000X0.170000X-0.140000X-0.170000X0.140000X-0.170000X0*%
%ADD39RoundRect,0.381000X-0.381000X-0.381000X0.381000X-0.381000X0.381000X0.381000X-0.381000X0.381000X0*%
%ADD40FreePoly0,180.000000*%
%ADD41FreePoly1,180.000000*%
%ADD42RoundRect,0.140000X-0.140000X-0.170000X0.140000X-0.170000X0.140000X0.170000X-0.140000X0.170000X0*%
%ADD43R,1.500000X1.500000*%
%ADD44RoundRect,0.250000X0.250000X0.475000X-0.250000X0.475000X-0.250000X-0.475000X0.250000X-0.475000X0*%
%ADD45RoundRect,0.250000X-0.600000X-0.675000X0.600000X-0.675000X0.600000X0.675000X-0.600000X0.675000X0*%
%ADD46O,1.700000X1.850000*%
%ADD47C,1.000000*%
%ADD48R,1.900000X1.900000*%
%ADD49C,1.900000*%
%ADD50RoundRect,0.237500X-0.287500X-0.237500X0.287500X-0.237500X0.287500X0.237500X-0.287500X0.237500X0*%
%ADD51RoundRect,0.135000X-0.135000X-0.185000X0.135000X-0.185000X0.135000X0.185000X-0.135000X0.185000X0*%
%ADD52C,1.440000*%
%ADD53RoundRect,0.237500X-0.237500X0.250000X-0.237500X-0.250000X0.237500X-0.250000X0.237500X0.250000X0*%
%ADD54RoundRect,0.150000X0.150000X-0.587500X0.150000X0.587500X-0.150000X0.587500X-0.150000X-0.587500X0*%
%ADD55RoundRect,0.237500X0.287500X0.237500X-0.287500X0.237500X-0.287500X-0.237500X0.287500X-0.237500X0*%
%ADD56RoundRect,0.250000X-0.675000X0.600000X-0.675000X-0.600000X0.675000X-0.600000X0.675000X0.600000X0*%
%ADD57R,0.700000X1.000000*%
%ADD58R,1.600000X1.600000*%
%ADD59O,1.600000X1.600000*%
%ADD60RoundRect,0.135000X-0.185000X0.135000X-0.185000X-0.135000X0.185000X-0.135000X0.185000X0.135000X0*%
%ADD61RoundRect,0.150000X0.675000X0.150000X-0.675000X0.150000X-0.675000X-0.150000X0.675000X-0.150000X0*%
%ADD62R,1.700000X1.700000*%
%ADD63O,1.700000X1.700000*%
G04 APERTURE END LIST*
D10*
X160750000Y-86050000D02*
X160200000Y-86050000D01*
X160200000Y-86050000D02*
X160200000Y-85850000D01*
X160200000Y-85850000D02*
X160750000Y-85850000D01*
X160750000Y-85850000D02*
X160750000Y-86050000D01*
G36*
X160750000Y-86050000D02*
G01*
X160200000Y-86050000D01*
X160200000Y-85850000D01*
X160750000Y-85850000D01*
X160750000Y-86050000D01*
G37*
X89704400Y-104750000D02*
G75*
G03*
X89704400Y-104750000I-854400J0D01*
G01*
X142950000Y-118250000D02*
X142400000Y-118250000D01*
X142400000Y-118250000D02*
X142400000Y-118050000D01*
X142400000Y-118050000D02*
X142950000Y-118050000D01*
X142950000Y-118050000D02*
X142950000Y-118250000D01*
G36*
X142950000Y-118250000D02*
G01*
X142400000Y-118250000D01*
X142400000Y-118050000D01*
X142950000Y-118050000D01*
X142950000Y-118250000D01*
G37*
X87350000Y-106000000D02*
G75*
G03*
X87600000Y-106250000I250000J0D01*
G01*
X148050000Y-118250000D02*
X147500000Y-118250000D01*
X147500000Y-118250000D02*
X147500000Y-118050000D01*
X147500000Y-118050000D02*
X148050000Y-118050000D01*
X148050000Y-118050000D02*
X148050000Y-118250000D01*
G36*
X148050000Y-118250000D02*
G01*
X147500000Y-118250000D01*
X147500000Y-118050000D01*
X148050000Y-118050000D01*
X148050000Y-118250000D01*
G37*
X145500000Y-118250000D02*
X144950000Y-118250000D01*
X144950000Y-118250000D02*
X144950000Y-118050000D01*
X144950000Y-118050000D02*
X145500000Y-118050000D01*
X145500000Y-118050000D02*
X145500000Y-118250000D01*
G36*
X145500000Y-118250000D02*
G01*
X144950000Y-118250000D01*
X144950000Y-118050000D01*
X145500000Y-118050000D01*
X145500000Y-118250000D01*
G37*
X158200000Y-86050000D02*
X157650000Y-86050000D01*
X157650000Y-86050000D02*
X157650000Y-85850000D01*
X157650000Y-85850000D02*
X158200000Y-85850000D01*
X158200000Y-85850000D02*
X158200000Y-86050000D01*
G36*
X158200000Y-86050000D02*
G01*
X157650000Y-86050000D01*
X157650000Y-85850000D01*
X158200000Y-85850000D01*
X158200000Y-86050000D01*
G37*
X86350000Y-101500000D02*
G75*
G03*
X86100000Y-101250000I-250000J0D01*
G01*
X90350000Y-108850000D02*
X90350000Y-110650000D01*
X83350000Y-108650000D02*
X83350000Y-106850000D01*
X86100000Y-109250000D02*
G75*
G03*
X86350000Y-109000000I0J250000D01*
G01*
X85750000Y-104250000D02*
X83950000Y-104250000D01*
X90350000Y-103500000D02*
G75*
G03*
X90100000Y-103250000I-250000J0D01*
G01*
X150600000Y-118250000D02*
X150050000Y-118250000D01*
X150050000Y-118250000D02*
X150050000Y-118050000D01*
X150050000Y-118050000D02*
X150600000Y-118050000D01*
X150600000Y-118050000D02*
X150600000Y-118250000D01*
G36*
X150600000Y-118250000D02*
G01*
X150050000Y-118250000D01*
X150050000Y-118050000D01*
X150600000Y-118050000D01*
X150600000Y-118250000D01*
G37*
D11*
X89137500Y-109750000D02*
G75*
G03*
X89137500Y-109750000I-287500J0D01*
G01*
D10*
X86350000Y-106850000D02*
X86350000Y-108650000D01*
X83350000Y-103650000D02*
X83350000Y-101850000D01*
X87350000Y-105650000D02*
X87350000Y-103850000D01*
X87350000Y-110650000D02*
X87350000Y-108850000D01*
X85850000Y-100950000D02*
X85350000Y-100950000D01*
X85350000Y-100950000D02*
X85350000Y-100700000D01*
X85350000Y-100700000D02*
X85850000Y-100700000D01*
X85850000Y-100700000D02*
X85850000Y-100950000D01*
G36*
X85850000Y-100950000D02*
G01*
X85350000Y-100950000D01*
X85350000Y-100700000D01*
X85850000Y-100700000D01*
X85850000Y-100950000D01*
G37*
X142950000Y-82050000D02*
X142400000Y-82050000D01*
X142400000Y-82050000D02*
X142400000Y-81850000D01*
X142400000Y-81850000D02*
X142950000Y-81850000D01*
X142950000Y-81850000D02*
X142950000Y-82050000D01*
G36*
X142950000Y-82050000D02*
G01*
X142400000Y-82050000D01*
X142400000Y-81850000D01*
X142950000Y-81850000D01*
X142950000Y-82050000D01*
G37*
X140400000Y-86050000D02*
X139850000Y-86050000D01*
X139850000Y-86050000D02*
X139850000Y-85850000D01*
X139850000Y-85850000D02*
X140400000Y-85850000D01*
X140400000Y-85850000D02*
X140400000Y-86050000D01*
G36*
X140400000Y-86050000D02*
G01*
X139850000Y-86050000D01*
X139850000Y-85850000D01*
X140400000Y-85850000D01*
X140400000Y-86050000D01*
G37*
X85850000Y-105950000D02*
X85350000Y-105950000D01*
X85350000Y-105950000D02*
X85350000Y-105700000D01*
X85350000Y-105700000D02*
X85850000Y-105700000D01*
X85850000Y-105700000D02*
X85850000Y-105950000D01*
G36*
X85850000Y-105950000D02*
G01*
X85350000Y-105950000D01*
X85350000Y-105700000D01*
X85850000Y-105700000D01*
X85850000Y-105950000D01*
G37*
X155650000Y-82050000D02*
X155100000Y-82050000D01*
X155100000Y-82050000D02*
X155100000Y-81850000D01*
X155100000Y-81850000D02*
X155650000Y-81850000D01*
X155650000Y-81850000D02*
X155650000Y-82050000D01*
G36*
X155650000Y-82050000D02*
G01*
X155100000Y-82050000D01*
X155100000Y-81850000D01*
X155650000Y-81850000D01*
X155650000Y-82050000D01*
G37*
X148050000Y-86050000D02*
X147500000Y-86050000D01*
X147500000Y-86050000D02*
X147500000Y-85850000D01*
X147500000Y-85850000D02*
X148050000Y-85850000D01*
X148050000Y-85850000D02*
X148050000Y-86050000D01*
G36*
X148050000Y-86050000D02*
G01*
X147500000Y-86050000D01*
X147500000Y-85850000D01*
X148050000Y-85850000D01*
X148050000Y-86050000D01*
G37*
X83950000Y-101250000D02*
X85750000Y-101250000D01*
X84350000Y-105950000D02*
X83850000Y-105950000D01*
X83850000Y-105950000D02*
X83850000Y-105700000D01*
X83850000Y-105700000D02*
X84350000Y-105700000D01*
X84350000Y-105700000D02*
X84350000Y-105950000D01*
G36*
X84350000Y-105950000D02*
G01*
X83850000Y-105950000D01*
X83850000Y-105700000D01*
X84350000Y-105700000D01*
X84350000Y-105950000D01*
G37*
X153100000Y-82050000D02*
X152550000Y-82050000D01*
X152550000Y-82050000D02*
X152550000Y-81850000D01*
X152550000Y-81850000D02*
X153100000Y-81850000D01*
X153100000Y-81850000D02*
X153100000Y-82050000D01*
G36*
X153100000Y-82050000D02*
G01*
X152550000Y-82050000D01*
X152550000Y-81850000D01*
X153100000Y-81850000D01*
X153100000Y-82050000D01*
G37*
X83950000Y-106250000D02*
X85750000Y-106250000D01*
X150600000Y-82050000D02*
X150050000Y-82050000D01*
X150050000Y-82050000D02*
X150050000Y-81850000D01*
X150050000Y-81850000D02*
X150600000Y-81850000D01*
X150600000Y-81850000D02*
X150600000Y-82050000D01*
G36*
X150600000Y-82050000D02*
G01*
X150050000Y-82050000D01*
X150050000Y-81850000D01*
X150600000Y-81850000D01*
X150600000Y-82050000D01*
G37*
X84350000Y-100950000D02*
X83850000Y-100950000D01*
X83850000Y-100950000D02*
X83850000Y-100700000D01*
X83850000Y-100700000D02*
X84350000Y-100700000D01*
X84350000Y-100700000D02*
X84350000Y-100950000D01*
G36*
X84350000Y-100950000D02*
G01*
X83850000Y-100950000D01*
X83850000Y-100700000D01*
X84350000Y-100700000D01*
X84350000Y-100950000D01*
G37*
X88350000Y-106850000D02*
X87850000Y-106850000D01*
X87850000Y-106850000D02*
X87850000Y-106600000D01*
X87850000Y-106600000D02*
X88350000Y-106600000D01*
X88350000Y-106600000D02*
X88350000Y-106850000D01*
G36*
X88350000Y-106850000D02*
G01*
X87850000Y-106850000D01*
X87850000Y-106600000D01*
X88350000Y-106600000D01*
X88350000Y-106850000D01*
G37*
X85704400Y-107750000D02*
G75*
G03*
X85704400Y-107750000I-854400J0D01*
G01*
X90350000Y-108500000D02*
G75*
G03*
X90100000Y-108250000I-250000J0D01*
G01*
X83600000Y-106250000D02*
G75*
G03*
X83350000Y-106500000I0J-250000D01*
G01*
X86100000Y-104250000D02*
G75*
G03*
X86350000Y-104000000I0J250000D01*
G01*
X89850000Y-111850000D02*
X89350000Y-111850000D01*
X89350000Y-111850000D02*
X89350000Y-111600000D01*
X89350000Y-111600000D02*
X89850000Y-111600000D01*
X89850000Y-111600000D02*
X89850000Y-111850000D01*
G36*
X89850000Y-111850000D02*
G01*
X89350000Y-111850000D01*
X89350000Y-111600000D01*
X89850000Y-111600000D01*
X89850000Y-111850000D01*
G37*
X88350000Y-111850000D02*
X87850000Y-111850000D01*
X87850000Y-111850000D02*
X87850000Y-111600000D01*
X87850000Y-111600000D02*
X88350000Y-111600000D01*
X88350000Y-111600000D02*
X88350000Y-111850000D01*
G36*
X88350000Y-111850000D02*
G01*
X87850000Y-111850000D01*
X87850000Y-111600000D01*
X88350000Y-111600000D01*
X88350000Y-111850000D01*
G37*
X170350000Y-81850000D02*
X170900000Y-81850000D01*
X170900000Y-81850000D02*
X170900000Y-82050000D01*
X170900000Y-82050000D02*
X170350000Y-82050000D01*
X170350000Y-82050000D02*
X170350000Y-81850000D01*
G36*
X170350000Y-81850000D02*
G01*
X170900000Y-81850000D01*
X170900000Y-82050000D01*
X170350000Y-82050000D01*
X170350000Y-81850000D01*
G37*
X155650000Y-86050000D02*
X155100000Y-86050000D01*
X155100000Y-86050000D02*
X155100000Y-85850000D01*
X155100000Y-85850000D02*
X155650000Y-85850000D01*
X155650000Y-85850000D02*
X155650000Y-86050000D01*
G36*
X155650000Y-86050000D02*
G01*
X155100000Y-86050000D01*
X155100000Y-85850000D01*
X155650000Y-85850000D01*
X155650000Y-86050000D01*
G37*
X167800000Y-85850000D02*
X168350000Y-85850000D01*
X168350000Y-85850000D02*
X168350000Y-86050000D01*
X168350000Y-86050000D02*
X167800000Y-86050000D01*
X167800000Y-86050000D02*
X167800000Y-85850000D01*
G36*
X167800000Y-85850000D02*
G01*
X168350000Y-85850000D01*
X168350000Y-86050000D01*
X167800000Y-86050000D01*
X167800000Y-85850000D01*
G37*
X89850000Y-106850000D02*
X89350000Y-106850000D01*
X89350000Y-106850000D02*
X89350000Y-106600000D01*
X89350000Y-106600000D02*
X89850000Y-106600000D01*
X89850000Y-106600000D02*
X89850000Y-106850000D01*
G36*
X89850000Y-106850000D02*
G01*
X89350000Y-106850000D01*
X89350000Y-106600000D01*
X89850000Y-106600000D01*
X89850000Y-106850000D01*
G37*
X90100000Y-111250000D02*
G75*
G03*
X90350000Y-111000000I0J250000D01*
G01*
D11*
X89137500Y-104750000D02*
G75*
G03*
X89137500Y-104750000I-287500J0D01*
G01*
D10*
X163250000Y-82050000D02*
X162700000Y-82050000D01*
X162700000Y-82050000D02*
X162700000Y-81850000D01*
X162700000Y-81850000D02*
X163250000Y-81850000D01*
X163250000Y-81850000D02*
X163250000Y-82050000D01*
G36*
X163250000Y-82050000D02*
G01*
X162700000Y-82050000D01*
X162700000Y-81850000D01*
X163250000Y-81850000D01*
X163250000Y-82050000D01*
G37*
X86350000Y-106500000D02*
G75*
G03*
X86100000Y-106250000I-250000J0D01*
G01*
X163250000Y-86050000D02*
X162700000Y-86050000D01*
X162700000Y-86050000D02*
X162700000Y-85850000D01*
X162700000Y-85850000D02*
X163250000Y-85850000D01*
X163250000Y-85850000D02*
X163250000Y-86050000D01*
G36*
X163250000Y-86050000D02*
G01*
X162700000Y-86050000D01*
X162700000Y-85850000D01*
X163250000Y-85850000D01*
X163250000Y-86050000D01*
G37*
X83600000Y-101250000D02*
G75*
G03*
X83350000Y-101500000I0J-250000D01*
G01*
X89850000Y-107950000D02*
X89350000Y-107950000D01*
X89350000Y-107950000D02*
X89350000Y-107700000D01*
X89350000Y-107700000D02*
X89850000Y-107700000D01*
X89850000Y-107700000D02*
X89850000Y-107950000D01*
G36*
X89850000Y-107950000D02*
G01*
X89350000Y-107950000D01*
X89350000Y-107700000D01*
X89850000Y-107700000D01*
X89850000Y-107950000D01*
G37*
X87950000Y-103250000D02*
X89750000Y-103250000D01*
X88350000Y-102950000D02*
X87850000Y-102950000D01*
X87850000Y-102950000D02*
X87850000Y-102700000D01*
X87850000Y-102700000D02*
X88350000Y-102700000D01*
X88350000Y-102700000D02*
X88350000Y-102950000D01*
G36*
X88350000Y-102950000D02*
G01*
X87850000Y-102950000D01*
X87850000Y-102700000D01*
X88350000Y-102700000D01*
X88350000Y-102950000D01*
G37*
X86350000Y-101850000D02*
X86350000Y-103650000D01*
X85704400Y-102750000D02*
G75*
G03*
X85704400Y-102750000I-854400J0D01*
G01*
X145500000Y-86050000D02*
X144950000Y-86050000D01*
X144950000Y-86050000D02*
X144950000Y-85850000D01*
X144950000Y-85850000D02*
X145500000Y-85850000D01*
X145500000Y-85850000D02*
X145500000Y-86050000D01*
G36*
X145500000Y-86050000D02*
G01*
X144950000Y-86050000D01*
X144950000Y-85850000D01*
X145500000Y-85850000D01*
X145500000Y-86050000D01*
G37*
D11*
X85137500Y-102750000D02*
G75*
G03*
X85137500Y-102750000I-287500J0D01*
G01*
D10*
X84350000Y-104850000D02*
X83850000Y-104850000D01*
X83850000Y-104850000D02*
X83850000Y-104600000D01*
X83850000Y-104600000D02*
X84350000Y-104600000D01*
X84350000Y-104600000D02*
X84350000Y-104850000D01*
G36*
X84350000Y-104850000D02*
G01*
X83850000Y-104850000D01*
X83850000Y-104600000D01*
X84350000Y-104600000D01*
X84350000Y-104850000D01*
G37*
X90350000Y-103850000D02*
X90350000Y-105650000D01*
X158200000Y-82050000D02*
X157650000Y-82050000D01*
X157650000Y-82050000D02*
X157650000Y-81850000D01*
X157650000Y-81850000D02*
X158200000Y-81850000D01*
X158200000Y-81850000D02*
X158200000Y-82050000D01*
G36*
X158200000Y-82050000D02*
G01*
X157650000Y-82050000D01*
X157650000Y-81850000D01*
X158200000Y-81850000D01*
X158200000Y-82050000D01*
G37*
X142950000Y-86050000D02*
X142400000Y-86050000D01*
X142400000Y-86050000D02*
X142400000Y-85850000D01*
X142400000Y-85850000D02*
X142950000Y-85850000D01*
X142950000Y-85850000D02*
X142950000Y-86050000D01*
G36*
X142950000Y-86050000D02*
G01*
X142400000Y-86050000D01*
X142400000Y-85850000D01*
X142950000Y-85850000D01*
X142950000Y-86050000D01*
G37*
X145500000Y-82050000D02*
X144950000Y-82050000D01*
X144950000Y-82050000D02*
X144950000Y-81850000D01*
X144950000Y-81850000D02*
X145500000Y-81850000D01*
X145500000Y-81850000D02*
X145500000Y-82050000D01*
G36*
X145500000Y-82050000D02*
G01*
X144950000Y-82050000D01*
X144950000Y-81850000D01*
X145500000Y-81850000D01*
X145500000Y-82050000D01*
G37*
X90100000Y-106250000D02*
G75*
G03*
X90350000Y-106000000I0J250000D01*
G01*
X89850000Y-102950000D02*
X89350000Y-102950000D01*
X89350000Y-102950000D02*
X89350000Y-102700000D01*
X89350000Y-102700000D02*
X89850000Y-102700000D01*
X89850000Y-102700000D02*
X89850000Y-102950000D01*
G36*
X89850000Y-102950000D02*
G01*
X89350000Y-102950000D01*
X89350000Y-102700000D01*
X89850000Y-102700000D01*
X89850000Y-102950000D01*
G37*
X83350000Y-109000000D02*
G75*
G03*
X83600000Y-109250000I250000J0D01*
G01*
X87350000Y-111000000D02*
G75*
G03*
X87600000Y-111250000I250000J0D01*
G01*
X170350000Y-85850000D02*
X170900000Y-85850000D01*
X170900000Y-85850000D02*
X170900000Y-86050000D01*
X170900000Y-86050000D02*
X170350000Y-86050000D01*
X170350000Y-86050000D02*
X170350000Y-85850000D01*
G36*
X170350000Y-85850000D02*
G01*
X170900000Y-85850000D01*
X170900000Y-86050000D01*
X170350000Y-86050000D01*
X170350000Y-85850000D01*
G37*
X150600000Y-86050000D02*
X150050000Y-86050000D01*
X150050000Y-86050000D02*
X150050000Y-85850000D01*
X150050000Y-85850000D02*
X150600000Y-85850000D01*
X150600000Y-85850000D02*
X150600000Y-86050000D01*
G36*
X150600000Y-86050000D02*
G01*
X150050000Y-86050000D01*
X150050000Y-85850000D01*
X150600000Y-85850000D01*
X150600000Y-86050000D01*
G37*
X87600000Y-108250000D02*
G75*
G03*
X87350000Y-108500000I0J-250000D01*
G01*
X167800000Y-118050000D02*
X168350000Y-118050000D01*
X168350000Y-118050000D02*
X168350000Y-118250000D01*
X168350000Y-118250000D02*
X167800000Y-118250000D01*
X167800000Y-118250000D02*
X167800000Y-118050000D01*
G36*
X167800000Y-118050000D02*
G01*
X168350000Y-118050000D01*
X168350000Y-118250000D01*
X167800000Y-118250000D01*
X167800000Y-118050000D01*
G37*
X153100000Y-86050000D02*
X152550000Y-86050000D01*
X152550000Y-86050000D02*
X152550000Y-85850000D01*
X152550000Y-85850000D02*
X153100000Y-85850000D01*
X153100000Y-85850000D02*
X153100000Y-86050000D01*
G36*
X153100000Y-86050000D02*
G01*
X152550000Y-86050000D01*
X152550000Y-85850000D01*
X153100000Y-85850000D01*
X153100000Y-86050000D01*
G37*
X89750000Y-106250000D02*
X87950000Y-106250000D01*
X88350000Y-107950000D02*
X87850000Y-107950000D01*
X87850000Y-107950000D02*
X87850000Y-107700000D01*
X87850000Y-107700000D02*
X88350000Y-107700000D01*
X88350000Y-107700000D02*
X88350000Y-107950000D01*
G36*
X88350000Y-107950000D02*
G01*
X87850000Y-107950000D01*
X87850000Y-107700000D01*
X88350000Y-107700000D01*
X88350000Y-107950000D01*
G37*
X89750000Y-111250000D02*
X87950000Y-111250000D01*
X85850000Y-104850000D02*
X85350000Y-104850000D01*
X85350000Y-104850000D02*
X85350000Y-104600000D01*
X85350000Y-104600000D02*
X85850000Y-104600000D01*
X85850000Y-104600000D02*
X85850000Y-104850000D01*
G36*
X85850000Y-104850000D02*
G01*
X85350000Y-104850000D01*
X85350000Y-104600000D01*
X85850000Y-104600000D01*
X85850000Y-104850000D01*
G37*
X85750000Y-109250000D02*
X83950000Y-109250000D01*
X148050000Y-82050000D02*
X147500000Y-82050000D01*
X147500000Y-82050000D02*
X147500000Y-81850000D01*
X147500000Y-81850000D02*
X148050000Y-81850000D01*
X148050000Y-81850000D02*
X148050000Y-82050000D01*
G36*
X148050000Y-82050000D02*
G01*
X147500000Y-82050000D01*
X147500000Y-81850000D01*
X148050000Y-81850000D01*
X148050000Y-82050000D01*
G37*
D11*
X85137500Y-107750000D02*
G75*
G03*
X85137500Y-107750000I-287500J0D01*
G01*
D10*
X89704400Y-109750000D02*
G75*
G03*
X89704400Y-109750000I-854400J0D01*
G01*
X155650000Y-118250000D02*
X155100000Y-118250000D01*
X155100000Y-118250000D02*
X155100000Y-118050000D01*
X155100000Y-118050000D02*
X155650000Y-118050000D01*
X155650000Y-118050000D02*
X155650000Y-118250000D01*
G36*
X155650000Y-118250000D02*
G01*
X155100000Y-118250000D01*
X155100000Y-118050000D01*
X155650000Y-118050000D01*
X155650000Y-118250000D01*
G37*
X165800000Y-118250000D02*
X165250000Y-118250000D01*
X165250000Y-118250000D02*
X165250000Y-118050000D01*
X165250000Y-118050000D02*
X165800000Y-118050000D01*
X165800000Y-118050000D02*
X165800000Y-118250000D01*
G36*
X165800000Y-118250000D02*
G01*
X165250000Y-118250000D01*
X165250000Y-118050000D01*
X165800000Y-118050000D01*
X165800000Y-118250000D01*
G37*
X158200000Y-118250000D02*
X157650000Y-118250000D01*
X157650000Y-118250000D02*
X157650000Y-118050000D01*
X157650000Y-118050000D02*
X158200000Y-118050000D01*
X158200000Y-118050000D02*
X158200000Y-118250000D01*
G36*
X158200000Y-118250000D02*
G01*
X157650000Y-118250000D01*
X157650000Y-118050000D01*
X158200000Y-118050000D01*
X158200000Y-118250000D01*
G37*
X153100000Y-118250000D02*
X152550000Y-118250000D01*
X152550000Y-118250000D02*
X152550000Y-118050000D01*
X152550000Y-118050000D02*
X153100000Y-118050000D01*
X153100000Y-118050000D02*
X153100000Y-118250000D01*
G36*
X153100000Y-118250000D02*
G01*
X152550000Y-118250000D01*
X152550000Y-118050000D01*
X153100000Y-118050000D01*
X153100000Y-118250000D01*
G37*
X140400000Y-118250000D02*
X119600000Y-118250000D01*
X119600000Y-118250000D02*
X119600000Y-118050000D01*
X119600000Y-118050000D02*
X140400000Y-118050000D01*
X140400000Y-118050000D02*
X140400000Y-118250000D01*
G36*
X140400000Y-118250000D02*
G01*
X119600000Y-118250000D01*
X119600000Y-118050000D01*
X140400000Y-118050000D01*
X140400000Y-118250000D01*
G37*
X140400000Y-82050000D02*
X139850000Y-82050000D01*
X139850000Y-82050000D02*
X139850000Y-81850000D01*
X139850000Y-81850000D02*
X140400000Y-81850000D01*
X140400000Y-81850000D02*
X140400000Y-82050000D01*
G36*
X140400000Y-82050000D02*
G01*
X139850000Y-82050000D01*
X139850000Y-81850000D01*
X140400000Y-81850000D01*
X140400000Y-82050000D01*
G37*
X84350000Y-109850000D02*
X83850000Y-109850000D01*
X83850000Y-109850000D02*
X83850000Y-109600000D01*
X83850000Y-109600000D02*
X84350000Y-109600000D01*
X84350000Y-109600000D02*
X84350000Y-109850000D01*
G36*
X84350000Y-109850000D02*
G01*
X83850000Y-109850000D01*
X83850000Y-109600000D01*
X84350000Y-109600000D01*
X84350000Y-109850000D01*
G37*
X83350000Y-104000000D02*
G75*
G03*
X83600000Y-104250000I250000J0D01*
G01*
X170350000Y-118050000D02*
X170900000Y-118050000D01*
X170900000Y-118050000D02*
X170900000Y-118250000D01*
X170900000Y-118250000D02*
X170350000Y-118250000D01*
X170350000Y-118250000D02*
X170350000Y-118050000D01*
G36*
X170350000Y-118050000D02*
G01*
X170900000Y-118050000D01*
X170900000Y-118250000D01*
X170350000Y-118250000D01*
X170350000Y-118050000D01*
G37*
X160750000Y-82050000D02*
X160200000Y-82050000D01*
X160200000Y-82050000D02*
X160200000Y-81850000D01*
X160200000Y-81850000D02*
X160750000Y-81850000D01*
X160750000Y-81850000D02*
X160750000Y-82050000D01*
G36*
X160750000Y-82050000D02*
G01*
X160200000Y-82050000D01*
X160200000Y-81850000D01*
X160750000Y-81850000D01*
X160750000Y-82050000D01*
G37*
X163250000Y-118250000D02*
X162700000Y-118250000D01*
X162700000Y-118250000D02*
X162700000Y-118050000D01*
X162700000Y-118050000D02*
X163250000Y-118050000D01*
X163250000Y-118050000D02*
X163250000Y-118250000D01*
G36*
X163250000Y-118250000D02*
G01*
X162700000Y-118250000D01*
X162700000Y-118050000D01*
X163250000Y-118050000D01*
X163250000Y-118250000D01*
G37*
X87950000Y-108250000D02*
X89750000Y-108250000D01*
X167800000Y-81850000D02*
X168350000Y-81850000D01*
X168350000Y-81850000D02*
X168350000Y-82050000D01*
X168350000Y-82050000D02*
X167800000Y-82050000D01*
X167800000Y-82050000D02*
X167800000Y-81850000D01*
G36*
X167800000Y-81850000D02*
G01*
X168350000Y-81850000D01*
X168350000Y-82050000D01*
X167800000Y-82050000D01*
X167800000Y-81850000D01*
G37*
X165800000Y-86050000D02*
X165250000Y-86050000D01*
X165250000Y-86050000D02*
X165250000Y-85850000D01*
X165250000Y-85850000D02*
X165800000Y-85850000D01*
X165800000Y-85850000D02*
X165800000Y-86050000D01*
G36*
X165800000Y-86050000D02*
G01*
X165250000Y-86050000D01*
X165250000Y-85850000D01*
X165800000Y-85850000D01*
X165800000Y-86050000D01*
G37*
X87600000Y-103250000D02*
G75*
G03*
X87350000Y-103500000I0J-250000D01*
G01*
X165800000Y-82050000D02*
X165250000Y-82050000D01*
X165250000Y-82050000D02*
X165250000Y-81850000D01*
X165250000Y-81850000D02*
X165800000Y-81850000D01*
X165800000Y-81850000D02*
X165800000Y-82050000D01*
G36*
X165800000Y-82050000D02*
G01*
X165250000Y-82050000D01*
X165250000Y-81850000D01*
X165800000Y-81850000D01*
X165800000Y-82050000D01*
G37*
X85850000Y-109850000D02*
X85350000Y-109850000D01*
X85350000Y-109850000D02*
X85350000Y-109600000D01*
X85350000Y-109600000D02*
X85850000Y-109600000D01*
X85850000Y-109600000D02*
X85850000Y-109850000D01*
G36*
X85850000Y-109850000D02*
G01*
X85350000Y-109850000D01*
X85350000Y-109600000D01*
X85850000Y-109600000D01*
X85850000Y-109850000D01*
G37*
X160750000Y-118250000D02*
X160200000Y-118250000D01*
X160200000Y-118250000D02*
X160200000Y-118050000D01*
X160200000Y-118050000D02*
X160750000Y-118050000D01*
X160750000Y-118050000D02*
X160750000Y-118250000D01*
G36*
X160750000Y-118250000D02*
G01*
X160200000Y-118250000D01*
X160200000Y-118050000D01*
X160750000Y-118050000D01*
X160750000Y-118250000D01*
G37*
D12*
X162516666Y-101235714D02*
X162278571Y-101235714D01*
X162278571Y-99807142D01*
X162516666Y-99807142D01*
X162754761Y-99902380D02*
X163088095Y-100902380D01*
X163421428Y-99902380D01*
X163897619Y-100902380D02*
X163802380Y-100854761D01*
X163754761Y-100807142D01*
X163707142Y-100711904D01*
X163707142Y-100426190D01*
X163754761Y-100330952D01*
X163802380Y-100283333D01*
X163897619Y-100235714D01*
X164040476Y-100235714D01*
X164135714Y-100283333D01*
X164183333Y-100330952D01*
X164230952Y-100426190D01*
X164230952Y-100711904D01*
X164183333Y-100807142D01*
X164135714Y-100854761D01*
X164040476Y-100902380D01*
X163897619Y-100902380D01*
X164802380Y-100902380D02*
X164707142Y-100854761D01*
X164659523Y-100759523D01*
X164659523Y-99902380D01*
X165611904Y-100235714D02*
X165611904Y-100902380D01*
X165183333Y-100235714D02*
X165183333Y-100759523D01*
X165230952Y-100854761D01*
X165326190Y-100902380D01*
X165469047Y-100902380D01*
X165564285Y-100854761D01*
X165611904Y-100807142D01*
X166088095Y-100902380D02*
X166088095Y-100235714D01*
X166088095Y-100330952D02*
X166135714Y-100283333D01*
X166230952Y-100235714D01*
X166373809Y-100235714D01*
X166469047Y-100283333D01*
X166516666Y-100378571D01*
X166516666Y-100902380D01*
X166516666Y-100378571D02*
X166564285Y-100283333D01*
X166659523Y-100235714D01*
X166802380Y-100235714D01*
X166897619Y-100283333D01*
X166945238Y-100378571D01*
X166945238Y-100902380D01*
X167802380Y-100854761D02*
X167707142Y-100902380D01*
X167516666Y-100902380D01*
X167421428Y-100854761D01*
X167373809Y-100759523D01*
X167373809Y-100378571D01*
X167421428Y-100283333D01*
X167516666Y-100235714D01*
X167707142Y-100235714D01*
X167802380Y-100283333D01*
X167850000Y-100378571D01*
X167850000Y-100473809D01*
X167373809Y-100569047D01*
X168183333Y-101235714D02*
X168421428Y-101235714D01*
X168421428Y-99807142D01*
X168183333Y-99807142D01*
X117552380Y-115164285D02*
X116552380Y-115164285D01*
X116552380Y-114783333D01*
X116600000Y-114688095D01*
X116647619Y-114640476D01*
X116742857Y-114592857D01*
X116885714Y-114592857D01*
X116980952Y-114640476D01*
X117028571Y-114688095D01*
X117076190Y-114783333D01*
X117076190Y-115164285D01*
X117028571Y-113830952D02*
X117076190Y-113688095D01*
X117123809Y-113640476D01*
X117219047Y-113592857D01*
X117361904Y-113592857D01*
X117457142Y-113640476D01*
X117504761Y-113688095D01*
X117552380Y-113783333D01*
X117552380Y-114164285D01*
X116552380Y-114164285D01*
X116552380Y-113830952D01*
X116600000Y-113735714D01*
X116647619Y-113688095D01*
X116742857Y-113640476D01*
X116838095Y-113640476D01*
X116933333Y-113688095D01*
X116980952Y-113735714D01*
X117028571Y-113830952D01*
X117028571Y-114164285D01*
X117552380Y-112640476D02*
X117552380Y-113211904D01*
X117552380Y-112926190D02*
X116552380Y-112926190D01*
X116695238Y-113021428D01*
X116790476Y-113116666D01*
X116838095Y-113211904D01*
X116885714Y-111783333D02*
X117552380Y-111783333D01*
X116504761Y-112021428D02*
X117219047Y-112259523D01*
X117219047Y-111640476D01*
D13*
X91135714Y-118128571D02*
X91135714Y-116628571D01*
X91707142Y-116628571D01*
X91850000Y-116700000D01*
X91921428Y-116771428D01*
X91992857Y-116914285D01*
X91992857Y-117128571D01*
X91921428Y-117271428D01*
X91850000Y-117342857D01*
X91707142Y-117414285D01*
X91135714Y-117414285D01*
X92921428Y-116628571D02*
X93207142Y-116628571D01*
X93350000Y-116700000D01*
X93492857Y-116842857D01*
X93564285Y-117128571D01*
X93564285Y-117628571D01*
X93492857Y-117914285D01*
X93350000Y-118057142D01*
X93207142Y-118128571D01*
X92921428Y-118128571D01*
X92778571Y-118057142D01*
X92635714Y-117914285D01*
X92564285Y-117628571D01*
X92564285Y-117128571D01*
X92635714Y-116842857D01*
X92778571Y-116700000D01*
X92921428Y-116628571D01*
X94064285Y-116628571D02*
X94421428Y-118128571D01*
X94707142Y-117057142D01*
X94992857Y-118128571D01*
X95350000Y-116628571D01*
X95921428Y-117342857D02*
X96421428Y-117342857D01*
X96635714Y-118128571D02*
X95921428Y-118128571D01*
X95921428Y-116628571D01*
X96635714Y-116628571D01*
X98135714Y-118128571D02*
X97635714Y-117414285D01*
X97278571Y-118128571D02*
X97278571Y-116628571D01*
X97850000Y-116628571D01*
X97992857Y-116700000D01*
X98064285Y-116771428D01*
X98135714Y-116914285D01*
X98135714Y-117128571D01*
X98064285Y-117271428D01*
X97992857Y-117342857D01*
X97850000Y-117414285D01*
X97278571Y-117414285D01*
D14*
X87325714Y-102002857D02*
X87325714Y-100802857D01*
X87782857Y-100802857D01*
X87897142Y-100860000D01*
X87954285Y-100917142D01*
X88011428Y-101031428D01*
X88011428Y-101202857D01*
X87954285Y-101317142D01*
X87897142Y-101374285D01*
X87782857Y-101431428D01*
X87325714Y-101431428D01*
X89211428Y-102002857D02*
X88811428Y-101431428D01*
X88525714Y-102002857D02*
X88525714Y-100802857D01*
X88982857Y-100802857D01*
X89097142Y-100860000D01*
X89154285Y-100917142D01*
X89211428Y-101031428D01*
X89211428Y-101202857D01*
X89154285Y-101317142D01*
X89097142Y-101374285D01*
X88982857Y-101431428D01*
X88525714Y-101431428D01*
X90354285Y-100860000D02*
X90240000Y-100802857D01*
X90068571Y-100802857D01*
X89897142Y-100860000D01*
X89782857Y-100974285D01*
X89725714Y-101088571D01*
X89668571Y-101317142D01*
X89668571Y-101488571D01*
X89725714Y-101717142D01*
X89782857Y-101831428D01*
X89897142Y-101945714D01*
X90068571Y-102002857D01*
X90182857Y-102002857D01*
X90354285Y-101945714D01*
X90411428Y-101888571D01*
X90411428Y-101488571D01*
X90182857Y-101488571D01*
D12*
X103835714Y-128052857D02*
X103835714Y-128290952D01*
X102407142Y-128290952D01*
X102407142Y-128052857D01*
X103454761Y-127719523D02*
X103502380Y-127576666D01*
X103502380Y-127338571D01*
X103454761Y-127243333D01*
X103407142Y-127195714D01*
X103311904Y-127148095D01*
X103216666Y-127148095D01*
X103121428Y-127195714D01*
X103073809Y-127243333D01*
X103026190Y-127338571D01*
X102978571Y-127529047D01*
X102930952Y-127624285D01*
X102883333Y-127671904D01*
X102788095Y-127719523D01*
X102692857Y-127719523D01*
X102597619Y-127671904D01*
X102550000Y-127624285D01*
X102502380Y-127529047D01*
X102502380Y-127290952D01*
X102550000Y-127148095D01*
X103454761Y-126338571D02*
X103502380Y-126433809D01*
X103502380Y-126624285D01*
X103454761Y-126719523D01*
X103359523Y-126767142D01*
X102978571Y-126767142D01*
X102883333Y-126719523D01*
X102835714Y-126624285D01*
X102835714Y-126433809D01*
X102883333Y-126338571D01*
X102978571Y-126290952D01*
X103073809Y-126290952D01*
X103169047Y-126767142D01*
X102835714Y-125862380D02*
X103502380Y-125862380D01*
X102930952Y-125862380D02*
X102883333Y-125814761D01*
X102835714Y-125719523D01*
X102835714Y-125576666D01*
X102883333Y-125481428D01*
X102978571Y-125433809D01*
X103502380Y-125433809D01*
X103454761Y-125005238D02*
X103502380Y-124910000D01*
X103502380Y-124719523D01*
X103454761Y-124624285D01*
X103359523Y-124576666D01*
X103311904Y-124576666D01*
X103216666Y-124624285D01*
X103169047Y-124719523D01*
X103169047Y-124862380D01*
X103121428Y-124957619D01*
X103026190Y-125005238D01*
X102978571Y-125005238D01*
X102883333Y-124957619D01*
X102835714Y-124862380D01*
X102835714Y-124719523D01*
X102883333Y-124624285D01*
X103502380Y-124005238D02*
X103454761Y-124100476D01*
X103407142Y-124148095D01*
X103311904Y-124195714D01*
X103026190Y-124195714D01*
X102930952Y-124148095D01*
X102883333Y-124100476D01*
X102835714Y-124005238D01*
X102835714Y-123862380D01*
X102883333Y-123767142D01*
X102930952Y-123719523D01*
X103026190Y-123671904D01*
X103311904Y-123671904D01*
X103407142Y-123719523D01*
X103454761Y-123767142D01*
X103502380Y-123862380D01*
X103502380Y-124005238D01*
X103502380Y-123243333D02*
X102835714Y-123243333D01*
X103026190Y-123243333D02*
X102930952Y-123195714D01*
X102883333Y-123148095D01*
X102835714Y-123052857D01*
X102835714Y-122957619D01*
X103502380Y-122100476D02*
X103502380Y-122671904D01*
X103502380Y-122386190D02*
X102502380Y-122386190D01*
X102645238Y-122481428D01*
X102740476Y-122576666D01*
X102788095Y-122671904D01*
X103835714Y-121767142D02*
X103835714Y-121529047D01*
X102407142Y-121529047D01*
X102407142Y-121767142D01*
D15*
X124291428Y-88078571D02*
X124291428Y-89150000D01*
X124220000Y-89364285D01*
X124077142Y-89507142D01*
X123862857Y-89578571D01*
X123720000Y-89578571D01*
X125720000Y-89578571D02*
X125005714Y-89578571D01*
X125005714Y-88078571D01*
X127077142Y-89435714D02*
X127005714Y-89507142D01*
X126791428Y-89578571D01*
X126648571Y-89578571D01*
X126434285Y-89507142D01*
X126291428Y-89364285D01*
X126220000Y-89221428D01*
X126148571Y-88935714D01*
X126148571Y-88721428D01*
X126220000Y-88435714D01*
X126291428Y-88292857D01*
X126434285Y-88150000D01*
X126648571Y-88078571D01*
X126791428Y-88078571D01*
X127005714Y-88150000D01*
X127077142Y-88221428D01*
X128148571Y-88078571D02*
X128148571Y-89150000D01*
X128077142Y-89364285D01*
X127934285Y-89507142D01*
X127720000Y-89578571D01*
X127577142Y-89578571D01*
X129577142Y-89578571D02*
X128862857Y-89578571D01*
X128862857Y-88078571D01*
X130934285Y-89435714D02*
X130862857Y-89507142D01*
X130648571Y-89578571D01*
X130505714Y-89578571D01*
X130291428Y-89507142D01*
X130148571Y-89364285D01*
X130077142Y-89221428D01*
X130005714Y-88935714D01*
X130005714Y-88721428D01*
X130077142Y-88435714D01*
X130148571Y-88292857D01*
X130291428Y-88150000D01*
X130505714Y-88078571D01*
X130648571Y-88078571D01*
X130862857Y-88150000D01*
X130934285Y-88221428D01*
X132005714Y-88078571D02*
X132005714Y-89150000D01*
X131934285Y-89364285D01*
X131791428Y-89507142D01*
X131577142Y-89578571D01*
X131434285Y-89578571D01*
X133434285Y-89578571D02*
X132720000Y-89578571D01*
X132720000Y-88078571D01*
X134791428Y-89435714D02*
X134720000Y-89507142D01*
X134505714Y-89578571D01*
X134362857Y-89578571D01*
X134148571Y-89507142D01*
X134005714Y-89364285D01*
X133934285Y-89221428D01*
X133862857Y-88935714D01*
X133862857Y-88721428D01*
X133934285Y-88435714D01*
X134005714Y-88292857D01*
X134148571Y-88150000D01*
X134362857Y-88078571D01*
X134505714Y-88078571D01*
X134720000Y-88150000D01*
X134791428Y-88221428D01*
X135862857Y-88078571D02*
X135862857Y-89150000D01*
X135791428Y-89364285D01*
X135648571Y-89507142D01*
X135434285Y-89578571D01*
X135291428Y-89578571D01*
X137291428Y-89578571D02*
X136577142Y-89578571D01*
X136577142Y-88078571D01*
X138648571Y-89435714D02*
X138577142Y-89507142D01*
X138362857Y-89578571D01*
X138220000Y-89578571D01*
X138005714Y-89507142D01*
X137862857Y-89364285D01*
X137791428Y-89221428D01*
X137720000Y-88935714D01*
X137720000Y-88721428D01*
X137791428Y-88435714D01*
X137862857Y-88292857D01*
X138005714Y-88150000D01*
X138220000Y-88078571D01*
X138362857Y-88078571D01*
X138577142Y-88150000D01*
X138648571Y-88221428D01*
D14*
X86350000Y-113164285D02*
X86521428Y-113221428D01*
X86578571Y-113278571D01*
X86635714Y-113392857D01*
X86635714Y-113564285D01*
X86578571Y-113678571D01*
X86521428Y-113735714D01*
X86407142Y-113792857D01*
X85950000Y-113792857D01*
X85950000Y-112592857D01*
X86350000Y-112592857D01*
X86464285Y-112650000D01*
X86521428Y-112707142D01*
X86578571Y-112821428D01*
X86578571Y-112935714D01*
X86521428Y-113050000D01*
X86464285Y-113107142D01*
X86350000Y-113164285D01*
X85950000Y-113164285D01*
X87378571Y-112592857D02*
X87607142Y-112592857D01*
X87721428Y-112650000D01*
X87835714Y-112764285D01*
X87892857Y-112992857D01*
X87892857Y-113392857D01*
X87835714Y-113621428D01*
X87721428Y-113735714D01*
X87607142Y-113792857D01*
X87378571Y-113792857D01*
X87264285Y-113735714D01*
X87150000Y-113621428D01*
X87092857Y-113392857D01*
X87092857Y-112992857D01*
X87150000Y-112764285D01*
X87264285Y-112650000D01*
X87378571Y-112592857D01*
X88635714Y-112592857D02*
X88864285Y-112592857D01*
X88978571Y-112650000D01*
X89092857Y-112764285D01*
X89150000Y-112992857D01*
X89150000Y-113392857D01*
X89092857Y-113621428D01*
X88978571Y-113735714D01*
X88864285Y-113792857D01*
X88635714Y-113792857D01*
X88521428Y-113735714D01*
X88407142Y-113621428D01*
X88350000Y-113392857D01*
X88350000Y-112992857D01*
X88407142Y-112764285D01*
X88521428Y-112650000D01*
X88635714Y-112592857D01*
X89492857Y-112592857D02*
X90178571Y-112592857D01*
X89835714Y-113792857D02*
X89835714Y-112592857D01*
X90807142Y-112592857D02*
X90921428Y-112592857D01*
X91035714Y-112650000D01*
X91092857Y-112707142D01*
X91150000Y-112821428D01*
X91207142Y-113050000D01*
X91207142Y-113335714D01*
X91150000Y-113564285D01*
X91092857Y-113678571D01*
X91035714Y-113735714D01*
X90921428Y-113792857D01*
X90807142Y-113792857D01*
X90692857Y-113735714D01*
X90635714Y-113678571D01*
X90578571Y-113564285D01*
X90521428Y-113335714D01*
X90521428Y-113050000D01*
X90578571Y-112821428D01*
X90635714Y-112707142D01*
X90692857Y-112650000D01*
X90807142Y-112592857D01*
D16*
X157530952Y-73252380D02*
X159435714Y-73252380D01*
X157292857Y-75395238D02*
X159911904Y-75395238D01*
X156578571Y-77061904D02*
X160388095Y-77061904D01*
X157292857Y-74204761D02*
X157292857Y-75395238D01*
X157292857Y-74204761D02*
X159911904Y-74204761D01*
X159911904Y-75395238D01*
X155626190Y-71585714D02*
X155626190Y-75157142D01*
X156578571Y-76109523D01*
X158959523Y-72300000D02*
X160388095Y-73728571D01*
X160388095Y-72300000D02*
X159435714Y-72776190D01*
X157054761Y-72300000D02*
X157530952Y-72776190D01*
X156340476Y-73966666D01*
X159673809Y-71585714D02*
X158959523Y-72300000D01*
X157769047Y-75871428D02*
X157769047Y-76585714D01*
X158721428Y-71347619D02*
X159197619Y-72776190D01*
X159435714Y-75633333D02*
X158959523Y-76585714D01*
X156340476Y-72538095D02*
X155864285Y-73490476D01*
X155388095Y-75157142D02*
X154673809Y-77061904D01*
X156816666Y-71823809D02*
X158245238Y-71585714D01*
X157530952Y-73014285D01*
X154911904Y-72776190D02*
X154435714Y-73966666D01*
X155626190Y-73966666D02*
X155150000Y-76347619D01*
D14*
X82628571Y-111792857D02*
X82628571Y-110592857D01*
X83314285Y-111792857D01*
X83314285Y-110592857D01*
X84571428Y-111792857D02*
X84171428Y-111221428D01*
X83885714Y-111792857D02*
X83885714Y-110592857D01*
X84342857Y-110592857D01*
X84457142Y-110650000D01*
X84514285Y-110707142D01*
X84571428Y-110821428D01*
X84571428Y-110992857D01*
X84514285Y-111107142D01*
X84457142Y-111164285D01*
X84342857Y-111221428D01*
X83885714Y-111221428D01*
X85028571Y-111735714D02*
X85200000Y-111792857D01*
X85485714Y-111792857D01*
X85600000Y-111735714D01*
X85657142Y-111678571D01*
X85714285Y-111564285D01*
X85714285Y-111450000D01*
X85657142Y-111335714D01*
X85600000Y-111278571D01*
X85485714Y-111221428D01*
X85257142Y-111164285D01*
X85142857Y-111107142D01*
X85085714Y-111050000D01*
X85028571Y-110935714D01*
X85028571Y-110821428D01*
X85085714Y-110707142D01*
X85142857Y-110650000D01*
X85257142Y-110592857D01*
X85542857Y-110592857D01*
X85714285Y-110650000D01*
X86057142Y-110592857D02*
X86742857Y-110592857D01*
X86400000Y-111792857D02*
X86400000Y-110592857D01*
D12*
X105183333Y-78902380D02*
X105183333Y-77902380D01*
X105564285Y-77902380D01*
X105659523Y-77950000D01*
X105707142Y-77997619D01*
X105754761Y-78092857D01*
X105754761Y-78235714D01*
X105707142Y-78330952D01*
X105659523Y-78378571D01*
X105564285Y-78426190D01*
X105183333Y-78426190D01*
X106135714Y-78616666D02*
X106611904Y-78616666D01*
X106040476Y-78902380D02*
X106373809Y-77902380D01*
X106707142Y-78902380D01*
X107516666Y-77902380D02*
X107040476Y-77902380D01*
X106992857Y-78378571D01*
X107040476Y-78330952D01*
X107135714Y-78283333D01*
X107373809Y-78283333D01*
X107469047Y-78330952D01*
X107516666Y-78378571D01*
X107564285Y-78473809D01*
X107564285Y-78711904D01*
X107516666Y-78807142D01*
X107469047Y-78854761D01*
X107373809Y-78902380D01*
X107135714Y-78902380D01*
X107040476Y-78854761D01*
X106992857Y-78807142D01*
X111552380Y-98164285D02*
X110552380Y-98164285D01*
X110552380Y-97783333D01*
X110600000Y-97688095D01*
X110647619Y-97640476D01*
X110742857Y-97592857D01*
X110885714Y-97592857D01*
X110980952Y-97640476D01*
X111028571Y-97688095D01*
X111076190Y-97783333D01*
X111076190Y-98164285D01*
X111028571Y-96830952D02*
X111076190Y-96688095D01*
X111123809Y-96640476D01*
X111219047Y-96592857D01*
X111361904Y-96592857D01*
X111457142Y-96640476D01*
X111504761Y-96688095D01*
X111552380Y-96783333D01*
X111552380Y-97164285D01*
X110552380Y-97164285D01*
X110552380Y-96830952D01*
X110600000Y-96735714D01*
X110647619Y-96688095D01*
X110742857Y-96640476D01*
X110838095Y-96640476D01*
X110933333Y-96688095D01*
X110980952Y-96735714D01*
X111028571Y-96830952D01*
X111028571Y-97164285D01*
X111552380Y-95640476D02*
X111552380Y-96211904D01*
X111552380Y-95926190D02*
X110552380Y-95926190D01*
X110695238Y-96021428D01*
X110790476Y-96116666D01*
X110838095Y-96211904D01*
X110552380Y-95307142D02*
X110552380Y-94688095D01*
X110933333Y-95021428D01*
X110933333Y-94878571D01*
X110980952Y-94783333D01*
X111028571Y-94735714D01*
X111123809Y-94688095D01*
X111361904Y-94688095D01*
X111457142Y-94735714D01*
X111504761Y-94783333D01*
X111552380Y-94878571D01*
X111552380Y-95164285D01*
X111504761Y-95259523D01*
X111457142Y-95307142D01*
X130765714Y-128072857D02*
X130765714Y-128310952D01*
X129337142Y-128310952D01*
X129337142Y-128072857D01*
X130384761Y-127739523D02*
X130432380Y-127596666D01*
X130432380Y-127358571D01*
X130384761Y-127263333D01*
X130337142Y-127215714D01*
X130241904Y-127168095D01*
X130146666Y-127168095D01*
X130051428Y-127215714D01*
X130003809Y-127263333D01*
X129956190Y-127358571D01*
X129908571Y-127549047D01*
X129860952Y-127644285D01*
X129813333Y-127691904D01*
X129718095Y-127739523D01*
X129622857Y-127739523D01*
X129527619Y-127691904D01*
X129480000Y-127644285D01*
X129432380Y-127549047D01*
X129432380Y-127310952D01*
X129480000Y-127168095D01*
X130384761Y-126358571D02*
X130432380Y-126453809D01*
X130432380Y-126644285D01*
X130384761Y-126739523D01*
X130289523Y-126787142D01*
X129908571Y-126787142D01*
X129813333Y-126739523D01*
X129765714Y-126644285D01*
X129765714Y-126453809D01*
X129813333Y-126358571D01*
X129908571Y-126310952D01*
X130003809Y-126310952D01*
X130099047Y-126787142D01*
X129765714Y-125882380D02*
X130432380Y-125882380D01*
X129860952Y-125882380D02*
X129813333Y-125834761D01*
X129765714Y-125739523D01*
X129765714Y-125596666D01*
X129813333Y-125501428D01*
X129908571Y-125453809D01*
X130432380Y-125453809D01*
X130384761Y-125025238D02*
X130432380Y-124930000D01*
X130432380Y-124739523D01*
X130384761Y-124644285D01*
X130289523Y-124596666D01*
X130241904Y-124596666D01*
X130146666Y-124644285D01*
X130099047Y-124739523D01*
X130099047Y-124882380D01*
X130051428Y-124977619D01*
X129956190Y-125025238D01*
X129908571Y-125025238D01*
X129813333Y-124977619D01*
X129765714Y-124882380D01*
X129765714Y-124739523D01*
X129813333Y-124644285D01*
X130432380Y-124025238D02*
X130384761Y-124120476D01*
X130337142Y-124168095D01*
X130241904Y-124215714D01*
X129956190Y-124215714D01*
X129860952Y-124168095D01*
X129813333Y-124120476D01*
X129765714Y-124025238D01*
X129765714Y-123882380D01*
X129813333Y-123787142D01*
X129860952Y-123739523D01*
X129956190Y-123691904D01*
X130241904Y-123691904D01*
X130337142Y-123739523D01*
X130384761Y-123787142D01*
X130432380Y-123882380D01*
X130432380Y-124025238D01*
X130432380Y-123263333D02*
X129765714Y-123263333D01*
X129956190Y-123263333D02*
X129860952Y-123215714D01*
X129813333Y-123168095D01*
X129765714Y-123072857D01*
X129765714Y-122977619D01*
X129432380Y-122739523D02*
X129432380Y-122120476D01*
X129813333Y-122453809D01*
X129813333Y-122310952D01*
X129860952Y-122215714D01*
X129908571Y-122168095D01*
X130003809Y-122120476D01*
X130241904Y-122120476D01*
X130337142Y-122168095D01*
X130384761Y-122215714D01*
X130432380Y-122310952D01*
X130432380Y-122596666D01*
X130384761Y-122691904D01*
X130337142Y-122739523D01*
X130765714Y-121787142D02*
X130765714Y-121549047D01*
X129337142Y-121549047D01*
X129337142Y-121787142D01*
X111552380Y-87414285D02*
X110552380Y-87414285D01*
X110552380Y-87033333D01*
X110600000Y-86938095D01*
X110647619Y-86890476D01*
X110742857Y-86842857D01*
X110885714Y-86842857D01*
X110980952Y-86890476D01*
X111028571Y-86938095D01*
X111076190Y-87033333D01*
X111076190Y-87414285D01*
X111028571Y-86080952D02*
X111076190Y-85938095D01*
X111123809Y-85890476D01*
X111219047Y-85842857D01*
X111361904Y-85842857D01*
X111457142Y-85890476D01*
X111504761Y-85938095D01*
X111552380Y-86033333D01*
X111552380Y-86414285D01*
X110552380Y-86414285D01*
X110552380Y-86080952D01*
X110600000Y-85985714D01*
X110647619Y-85938095D01*
X110742857Y-85890476D01*
X110838095Y-85890476D01*
X110933333Y-85938095D01*
X110980952Y-85985714D01*
X111028571Y-86080952D01*
X111028571Y-86414285D01*
X111552380Y-84890476D02*
X111552380Y-85461904D01*
X111552380Y-85176190D02*
X110552380Y-85176190D01*
X110695238Y-85271428D01*
X110790476Y-85366666D01*
X110838095Y-85461904D01*
X110552380Y-83985714D02*
X110552380Y-84461904D01*
X111028571Y-84509523D01*
X110980952Y-84461904D01*
X110933333Y-84366666D01*
X110933333Y-84128571D01*
X110980952Y-84033333D01*
X111028571Y-83985714D01*
X111123809Y-83938095D01*
X111361904Y-83938095D01*
X111457142Y-83985714D01*
X111504761Y-84033333D01*
X111552380Y-84128571D01*
X111552380Y-84366666D01*
X111504761Y-84461904D01*
X111457142Y-84509523D01*
X117235714Y-128072857D02*
X117235714Y-128310952D01*
X115807142Y-128310952D01*
X115807142Y-128072857D01*
X116854761Y-127739523D02*
X116902380Y-127596666D01*
X116902380Y-127358571D01*
X116854761Y-127263333D01*
X116807142Y-127215714D01*
X116711904Y-127168095D01*
X116616666Y-127168095D01*
X116521428Y-127215714D01*
X116473809Y-127263333D01*
X116426190Y-127358571D01*
X116378571Y-127549047D01*
X116330952Y-127644285D01*
X116283333Y-127691904D01*
X116188095Y-127739523D01*
X116092857Y-127739523D01*
X115997619Y-127691904D01*
X115950000Y-127644285D01*
X115902380Y-127549047D01*
X115902380Y-127310952D01*
X115950000Y-127168095D01*
X116854761Y-126358571D02*
X116902380Y-126453809D01*
X116902380Y-126644285D01*
X116854761Y-126739523D01*
X116759523Y-126787142D01*
X116378571Y-126787142D01*
X116283333Y-126739523D01*
X116235714Y-126644285D01*
X116235714Y-126453809D01*
X116283333Y-126358571D01*
X116378571Y-126310952D01*
X116473809Y-126310952D01*
X116569047Y-126787142D01*
X116235714Y-125882380D02*
X116902380Y-125882380D01*
X116330952Y-125882380D02*
X116283333Y-125834761D01*
X116235714Y-125739523D01*
X116235714Y-125596666D01*
X116283333Y-125501428D01*
X116378571Y-125453809D01*
X116902380Y-125453809D01*
X116854761Y-125025238D02*
X116902380Y-124930000D01*
X116902380Y-124739523D01*
X116854761Y-124644285D01*
X116759523Y-124596666D01*
X116711904Y-124596666D01*
X116616666Y-124644285D01*
X116569047Y-124739523D01*
X116569047Y-124882380D01*
X116521428Y-124977619D01*
X116426190Y-125025238D01*
X116378571Y-125025238D01*
X116283333Y-124977619D01*
X116235714Y-124882380D01*
X116235714Y-124739523D01*
X116283333Y-124644285D01*
X116902380Y-124025238D02*
X116854761Y-124120476D01*
X116807142Y-124168095D01*
X116711904Y-124215714D01*
X116426190Y-124215714D01*
X116330952Y-124168095D01*
X116283333Y-124120476D01*
X116235714Y-124025238D01*
X116235714Y-123882380D01*
X116283333Y-123787142D01*
X116330952Y-123739523D01*
X116426190Y-123691904D01*
X116711904Y-123691904D01*
X116807142Y-123739523D01*
X116854761Y-123787142D01*
X116902380Y-123882380D01*
X116902380Y-124025238D01*
X116902380Y-123263333D02*
X116235714Y-123263333D01*
X116426190Y-123263333D02*
X116330952Y-123215714D01*
X116283333Y-123168095D01*
X116235714Y-123072857D01*
X116235714Y-122977619D01*
X115997619Y-122691904D02*
X115950000Y-122644285D01*
X115902380Y-122549047D01*
X115902380Y-122310952D01*
X115950000Y-122215714D01*
X115997619Y-122168095D01*
X116092857Y-122120476D01*
X116188095Y-122120476D01*
X116330952Y-122168095D01*
X116902380Y-122739523D01*
X116902380Y-122120476D01*
X117235714Y-121787142D02*
X117235714Y-121549047D01*
X115807142Y-121549047D01*
X115807142Y-121787142D01*
X172849523Y-82325714D02*
X172611428Y-82325714D01*
X172611428Y-80897142D01*
X172849523Y-80897142D01*
X173706666Y-81992380D02*
X173230476Y-81992380D01*
X173230476Y-80992380D01*
X174040000Y-81468571D02*
X174373333Y-81468571D01*
X174516190Y-81992380D02*
X174040000Y-81992380D01*
X174040000Y-80992380D01*
X174516190Y-80992380D01*
X174944761Y-81992380D02*
X174944761Y-80992380D01*
X175182857Y-80992380D01*
X175325714Y-81040000D01*
X175420952Y-81135238D01*
X175468571Y-81230476D01*
X175516190Y-81420952D01*
X175516190Y-81563809D01*
X175468571Y-81754285D01*
X175420952Y-81849523D01*
X175325714Y-81944761D01*
X175182857Y-81992380D01*
X174944761Y-81992380D01*
X175801904Y-80992380D02*
X176373333Y-80992380D01*
X176087619Y-81992380D02*
X176087619Y-80992380D01*
X177135238Y-81992380D02*
X177135238Y-81468571D01*
X177087619Y-81373333D01*
X176992380Y-81325714D01*
X176801904Y-81325714D01*
X176706666Y-81373333D01*
X177135238Y-81944761D02*
X177040000Y-81992380D01*
X176801904Y-81992380D01*
X176706666Y-81944761D01*
X176659047Y-81849523D01*
X176659047Y-81754285D01*
X176706666Y-81659047D01*
X176801904Y-81611428D01*
X177040000Y-81611428D01*
X177135238Y-81563809D01*
X177611428Y-81325714D02*
X177611428Y-82325714D01*
X177611428Y-81373333D02*
X177706666Y-81325714D01*
X177897142Y-81325714D01*
X177992380Y-81373333D01*
X178040000Y-81420952D01*
X178087619Y-81516190D01*
X178087619Y-81801904D01*
X178040000Y-81897142D01*
X177992380Y-81944761D01*
X177897142Y-81992380D01*
X177706666Y-81992380D01*
X177611428Y-81944761D01*
X178897142Y-81944761D02*
X178801904Y-81992380D01*
X178611428Y-81992380D01*
X178516190Y-81944761D01*
X178468571Y-81849523D01*
X178468571Y-81468571D01*
X178516190Y-81373333D01*
X178611428Y-81325714D01*
X178801904Y-81325714D01*
X178897142Y-81373333D01*
X178944761Y-81468571D01*
X178944761Y-81563809D01*
X178468571Y-81659047D01*
X179897142Y-81992380D02*
X179325714Y-81992380D01*
X179611428Y-81992380D02*
X179611428Y-80992380D01*
X179516190Y-81135238D01*
X179420952Y-81230476D01*
X179325714Y-81278095D01*
X180230476Y-82325714D02*
X180468571Y-82325714D01*
X180468571Y-80897142D01*
X180230476Y-80897142D01*
D17*
X152296190Y-89131428D02*
X151343809Y-89131428D01*
X152296190Y-89502857D02*
X151343809Y-89502857D01*
X152105714Y-89007619D02*
X152581904Y-89317142D01*
X152105714Y-89626666D01*
X151534285Y-89626666D02*
X151058095Y-89317142D01*
X151534285Y-89007619D01*
D12*
X172879523Y-95305714D02*
X172641428Y-95305714D01*
X172641428Y-93877142D01*
X172879523Y-93877142D01*
X173736666Y-94972380D02*
X173260476Y-94972380D01*
X173260476Y-93972380D01*
X174070000Y-94448571D02*
X174403333Y-94448571D01*
X174546190Y-94972380D02*
X174070000Y-94972380D01*
X174070000Y-93972380D01*
X174546190Y-93972380D01*
X174974761Y-94972380D02*
X174974761Y-93972380D01*
X175212857Y-93972380D01*
X175355714Y-94020000D01*
X175450952Y-94115238D01*
X175498571Y-94210476D01*
X175546190Y-94400952D01*
X175546190Y-94543809D01*
X175498571Y-94734285D01*
X175450952Y-94829523D01*
X175355714Y-94924761D01*
X175212857Y-94972380D01*
X174974761Y-94972380D01*
X175831904Y-93972380D02*
X176403333Y-93972380D01*
X176117619Y-94972380D02*
X176117619Y-93972380D01*
X177165238Y-94972380D02*
X177165238Y-94448571D01*
X177117619Y-94353333D01*
X177022380Y-94305714D01*
X176831904Y-94305714D01*
X176736666Y-94353333D01*
X177165238Y-94924761D02*
X177070000Y-94972380D01*
X176831904Y-94972380D01*
X176736666Y-94924761D01*
X176689047Y-94829523D01*
X176689047Y-94734285D01*
X176736666Y-94639047D01*
X176831904Y-94591428D01*
X177070000Y-94591428D01*
X177165238Y-94543809D01*
X177641428Y-94305714D02*
X177641428Y-95305714D01*
X177641428Y-94353333D02*
X177736666Y-94305714D01*
X177927142Y-94305714D01*
X178022380Y-94353333D01*
X178070000Y-94400952D01*
X178117619Y-94496190D01*
X178117619Y-94781904D01*
X178070000Y-94877142D01*
X178022380Y-94924761D01*
X177927142Y-94972380D01*
X177736666Y-94972380D01*
X177641428Y-94924761D01*
X178927142Y-94924761D02*
X178831904Y-94972380D01*
X178641428Y-94972380D01*
X178546190Y-94924761D01*
X178498571Y-94829523D01*
X178498571Y-94448571D01*
X178546190Y-94353333D01*
X178641428Y-94305714D01*
X178831904Y-94305714D01*
X178927142Y-94353333D01*
X178974761Y-94448571D01*
X178974761Y-94543809D01*
X178498571Y-94639047D01*
X179355714Y-94067619D02*
X179403333Y-94020000D01*
X179498571Y-93972380D01*
X179736666Y-93972380D01*
X179831904Y-94020000D01*
X179879523Y-94067619D01*
X179927142Y-94162857D01*
X179927142Y-94258095D01*
X179879523Y-94400952D01*
X179308095Y-94972380D01*
X179927142Y-94972380D01*
X180260476Y-95305714D02*
X180498571Y-95305714D01*
X180498571Y-93877142D01*
X180260476Y-93877142D01*
X137552380Y-115188095D02*
X136552380Y-115188095D01*
X136552380Y-114807142D01*
X136600000Y-114711904D01*
X136647619Y-114664285D01*
X136742857Y-114616666D01*
X136885714Y-114616666D01*
X136980952Y-114664285D01*
X137028571Y-114711904D01*
X137076190Y-114807142D01*
X137076190Y-115188095D01*
X137457142Y-113616666D02*
X137504761Y-113664285D01*
X137552380Y-113807142D01*
X137552380Y-113902380D01*
X137504761Y-114045238D01*
X137409523Y-114140476D01*
X137314285Y-114188095D01*
X137123809Y-114235714D01*
X136980952Y-114235714D01*
X136790476Y-114188095D01*
X136695238Y-114140476D01*
X136600000Y-114045238D01*
X136552380Y-113902380D01*
X136552380Y-113807142D01*
X136600000Y-113664285D01*
X136647619Y-113616666D01*
X136980952Y-113045238D02*
X136933333Y-113140476D01*
X136885714Y-113188095D01*
X136790476Y-113235714D01*
X136742857Y-113235714D01*
X136647619Y-113188095D01*
X136600000Y-113140476D01*
X136552380Y-113045238D01*
X136552380Y-112854761D01*
X136600000Y-112759523D01*
X136647619Y-112711904D01*
X136742857Y-112664285D01*
X136790476Y-112664285D01*
X136885714Y-112711904D01*
X136933333Y-112759523D01*
X136980952Y-112854761D01*
X136980952Y-113045238D01*
X137028571Y-113140476D01*
X137076190Y-113188095D01*
X137171428Y-113235714D01*
X137361904Y-113235714D01*
X137457142Y-113188095D01*
X137504761Y-113140476D01*
X137552380Y-113045238D01*
X137552380Y-112854761D01*
X137504761Y-112759523D01*
X137457142Y-112711904D01*
X137361904Y-112664285D01*
X137171428Y-112664285D01*
X137076190Y-112711904D01*
X137028571Y-112759523D01*
X136980952Y-112854761D01*
D14*
X84212857Y-100022857D02*
X83812857Y-99451428D01*
X83527142Y-100022857D02*
X83527142Y-98822857D01*
X83984285Y-98822857D01*
X84098571Y-98880000D01*
X84155714Y-98937142D01*
X84212857Y-99051428D01*
X84212857Y-99222857D01*
X84155714Y-99337142D01*
X84098571Y-99394285D01*
X83984285Y-99451428D01*
X83527142Y-99451428D01*
X84670000Y-99965714D02*
X84841428Y-100022857D01*
X85127142Y-100022857D01*
X85241428Y-99965714D01*
X85298571Y-99908571D01*
X85355714Y-99794285D01*
X85355714Y-99680000D01*
X85298571Y-99565714D01*
X85241428Y-99508571D01*
X85127142Y-99451428D01*
X84898571Y-99394285D01*
X84784285Y-99337142D01*
X84727142Y-99280000D01*
X84670000Y-99165714D01*
X84670000Y-99051428D01*
X84727142Y-98937142D01*
X84784285Y-98880000D01*
X84898571Y-98822857D01*
X85184285Y-98822857D01*
X85355714Y-98880000D01*
X85698571Y-98822857D02*
X86384285Y-98822857D01*
X86041428Y-100022857D02*
X86041428Y-98822857D01*
D12*
X83473809Y-80435714D02*
X83235714Y-80435714D01*
X83235714Y-79007142D01*
X83473809Y-79007142D01*
X84330952Y-79102380D02*
X83854761Y-79102380D01*
X83807142Y-79578571D01*
X83854761Y-79530952D01*
X83950000Y-79483333D01*
X84188095Y-79483333D01*
X84283333Y-79530952D01*
X84330952Y-79578571D01*
X84378571Y-79673809D01*
X84378571Y-79911904D01*
X84330952Y-80007142D01*
X84283333Y-80054761D01*
X84188095Y-80102380D01*
X83950000Y-80102380D01*
X83854761Y-80054761D01*
X83807142Y-80007142D01*
X84664285Y-79102380D02*
X84997619Y-80102380D01*
X85330952Y-79102380D01*
X85854761Y-79102380D02*
X86045238Y-79102380D01*
X86140476Y-79150000D01*
X86235714Y-79245238D01*
X86283333Y-79435714D01*
X86283333Y-79769047D01*
X86235714Y-79959523D01*
X86140476Y-80054761D01*
X86045238Y-80102380D01*
X85854761Y-80102380D01*
X85759523Y-80054761D01*
X85664285Y-79959523D01*
X85616666Y-79769047D01*
X85616666Y-79435714D01*
X85664285Y-79245238D01*
X85759523Y-79150000D01*
X85854761Y-79102380D01*
X86711904Y-79102380D02*
X86711904Y-79911904D01*
X86759523Y-80007142D01*
X86807142Y-80054761D01*
X86902380Y-80102380D01*
X87092857Y-80102380D01*
X87188095Y-80054761D01*
X87235714Y-80007142D01*
X87283333Y-79911904D01*
X87283333Y-79102380D01*
X87616666Y-79102380D02*
X88188095Y-79102380D01*
X87902380Y-80102380D02*
X87902380Y-79102380D01*
X88426190Y-80435714D02*
X88664285Y-80435714D01*
X88664285Y-79007142D01*
X88426190Y-79007142D01*
X146290476Y-89985714D02*
X146052380Y-89985714D01*
X146052380Y-88557142D01*
X146290476Y-88557142D01*
X146957142Y-88652380D02*
X146957142Y-89366666D01*
X146909523Y-89509523D01*
X146814285Y-89604761D01*
X146671428Y-89652380D01*
X146576190Y-89652380D01*
X147861904Y-89652380D02*
X147861904Y-89128571D01*
X147814285Y-89033333D01*
X147719047Y-88985714D01*
X147528571Y-88985714D01*
X147433333Y-89033333D01*
X147861904Y-89604761D02*
X147766666Y-89652380D01*
X147528571Y-89652380D01*
X147433333Y-89604761D01*
X147385714Y-89509523D01*
X147385714Y-89414285D01*
X147433333Y-89319047D01*
X147528571Y-89271428D01*
X147766666Y-89271428D01*
X147861904Y-89223809D01*
X148766666Y-89604761D02*
X148671428Y-89652380D01*
X148480952Y-89652380D01*
X148385714Y-89604761D01*
X148338095Y-89557142D01*
X148290476Y-89461904D01*
X148290476Y-89176190D01*
X148338095Y-89080952D01*
X148385714Y-89033333D01*
X148480952Y-88985714D01*
X148671428Y-88985714D01*
X148766666Y-89033333D01*
X149195238Y-89652380D02*
X149195238Y-88652380D01*
X149290476Y-89271428D02*
X149576190Y-89652380D01*
X149576190Y-88985714D02*
X149195238Y-89366666D01*
X149909523Y-89985714D02*
X150147619Y-89985714D01*
X150147619Y-88557142D01*
X149909523Y-88557142D01*
X127552380Y-115164285D02*
X126552380Y-115164285D01*
X126552380Y-114783333D01*
X126600000Y-114688095D01*
X126647619Y-114640476D01*
X126742857Y-114592857D01*
X126885714Y-114592857D01*
X126980952Y-114640476D01*
X127028571Y-114688095D01*
X127076190Y-114783333D01*
X127076190Y-115164285D01*
X127028571Y-113830952D02*
X127076190Y-113688095D01*
X127123809Y-113640476D01*
X127219047Y-113592857D01*
X127361904Y-113592857D01*
X127457142Y-113640476D01*
X127504761Y-113688095D01*
X127552380Y-113783333D01*
X127552380Y-114164285D01*
X126552380Y-114164285D01*
X126552380Y-113830952D01*
X126600000Y-113735714D01*
X126647619Y-113688095D01*
X126742857Y-113640476D01*
X126838095Y-113640476D01*
X126933333Y-113688095D01*
X126980952Y-113735714D01*
X127028571Y-113830952D01*
X127028571Y-114164285D01*
X127552380Y-112640476D02*
X127552380Y-113211904D01*
X127552380Y-112926190D02*
X126552380Y-112926190D01*
X126695238Y-113021428D01*
X126790476Y-113116666D01*
X126838095Y-113211904D01*
X126647619Y-112259523D02*
X126600000Y-112211904D01*
X126552380Y-112116666D01*
X126552380Y-111878571D01*
X126600000Y-111783333D01*
X126647619Y-111735714D01*
X126742857Y-111688095D01*
X126838095Y-111688095D01*
X126980952Y-111735714D01*
X127552380Y-112307142D01*
X127552380Y-111688095D01*
X101611904Y-78902380D02*
X101611904Y-77902380D01*
X101992857Y-77902380D01*
X102088095Y-77950000D01*
X102135714Y-77997619D01*
X102183333Y-78092857D01*
X102183333Y-78235714D01*
X102135714Y-78330952D01*
X102088095Y-78378571D01*
X101992857Y-78426190D01*
X101611904Y-78426190D01*
X102945238Y-78378571D02*
X103088095Y-78426190D01*
X103135714Y-78473809D01*
X103183333Y-78569047D01*
X103183333Y-78711904D01*
X103135714Y-78807142D01*
X103088095Y-78854761D01*
X102992857Y-78902380D01*
X102611904Y-78902380D01*
X102611904Y-77902380D01*
X102945238Y-77902380D01*
X103040476Y-77950000D01*
X103088095Y-77997619D01*
X103135714Y-78092857D01*
X103135714Y-78188095D01*
X103088095Y-78283333D01*
X103040476Y-78330952D01*
X102945238Y-78378571D01*
X102611904Y-78378571D01*
X103564285Y-77997619D02*
X103611904Y-77950000D01*
X103707142Y-77902380D01*
X103945238Y-77902380D01*
X104040476Y-77950000D01*
X104088095Y-77997619D01*
X104135714Y-78092857D01*
X104135714Y-78188095D01*
X104088095Y-78330952D01*
X103516666Y-78902380D01*
X104135714Y-78902380D01*
D18*
X90700000Y-126632642D02*
X90700000Y-125732642D01*
X90914285Y-125732642D01*
X91042857Y-125775500D01*
X91128571Y-125861214D01*
X91171428Y-125946928D01*
X91214285Y-126118357D01*
X91214285Y-126246928D01*
X91171428Y-126418357D01*
X91128571Y-126504071D01*
X91042857Y-126589785D01*
X90914285Y-126632642D01*
X90700000Y-126632642D01*
X91942857Y-126589785D02*
X91857142Y-126632642D01*
X91685714Y-126632642D01*
X91600000Y-126589785D01*
X91557142Y-126504071D01*
X91557142Y-126161214D01*
X91600000Y-126075500D01*
X91685714Y-126032642D01*
X91857142Y-126032642D01*
X91942857Y-126075500D01*
X91985714Y-126161214D01*
X91985714Y-126246928D01*
X91557142Y-126332642D01*
X92328571Y-126589785D02*
X92414285Y-126632642D01*
X92585714Y-126632642D01*
X92671428Y-126589785D01*
X92714285Y-126504071D01*
X92714285Y-126461214D01*
X92671428Y-126375500D01*
X92585714Y-126332642D01*
X92457142Y-126332642D01*
X92371428Y-126289785D01*
X92328571Y-126204071D01*
X92328571Y-126161214D01*
X92371428Y-126075500D01*
X92457142Y-126032642D01*
X92585714Y-126032642D01*
X92671428Y-126075500D01*
X93100000Y-126632642D02*
X93100000Y-126032642D01*
X93100000Y-125732642D02*
X93057142Y-125775500D01*
X93100000Y-125818357D01*
X93142857Y-125775500D01*
X93100000Y-125732642D01*
X93100000Y-125818357D01*
X93914285Y-126032642D02*
X93914285Y-126761214D01*
X93871428Y-126846928D01*
X93828571Y-126889785D01*
X93742857Y-126932642D01*
X93614285Y-126932642D01*
X93528571Y-126889785D01*
X93914285Y-126589785D02*
X93828571Y-126632642D01*
X93657142Y-126632642D01*
X93571428Y-126589785D01*
X93528571Y-126546928D01*
X93485714Y-126461214D01*
X93485714Y-126204071D01*
X93528571Y-126118357D01*
X93571428Y-126075500D01*
X93657142Y-126032642D01*
X93828571Y-126032642D01*
X93914285Y-126075500D01*
X94342857Y-126032642D02*
X94342857Y-126632642D01*
X94342857Y-126118357D02*
X94385714Y-126075500D01*
X94471428Y-126032642D01*
X94600000Y-126032642D01*
X94685714Y-126075500D01*
X94728571Y-126161214D01*
X94728571Y-126632642D01*
X95500000Y-126589785D02*
X95414285Y-126632642D01*
X95242857Y-126632642D01*
X95157142Y-126589785D01*
X95114285Y-126504071D01*
X95114285Y-126161214D01*
X95157142Y-126075500D01*
X95242857Y-126032642D01*
X95414285Y-126032642D01*
X95500000Y-126075500D01*
X95542857Y-126161214D01*
X95542857Y-126246928D01*
X95114285Y-126332642D01*
X96314285Y-126632642D02*
X96314285Y-125732642D01*
X96314285Y-126589785D02*
X96228571Y-126632642D01*
X96057142Y-126632642D01*
X95971428Y-126589785D01*
X95928571Y-126546928D01*
X95885714Y-126461214D01*
X95885714Y-126204071D01*
X95928571Y-126118357D01*
X95971428Y-126075500D01*
X96057142Y-126032642D01*
X96228571Y-126032642D01*
X96314285Y-126075500D01*
X97428571Y-126632642D02*
X97428571Y-125732642D01*
X97428571Y-126075500D02*
X97514285Y-126032642D01*
X97685714Y-126032642D01*
X97771428Y-126075500D01*
X97814285Y-126118357D01*
X97857142Y-126204071D01*
X97857142Y-126461214D01*
X97814285Y-126546928D01*
X97771428Y-126589785D01*
X97685714Y-126632642D01*
X97514285Y-126632642D01*
X97428571Y-126589785D01*
X98157142Y-126032642D02*
X98371428Y-126632642D01*
X98585714Y-126032642D02*
X98371428Y-126632642D01*
X98285714Y-126846928D01*
X98242857Y-126889785D01*
X98157142Y-126932642D01*
X89478571Y-127653071D02*
X89435714Y-127610214D01*
X89350000Y-127567357D01*
X89264285Y-127567357D01*
X89178571Y-127610214D01*
X89135714Y-127653071D01*
X89092857Y-127738785D01*
X89092857Y-127824500D01*
X89135714Y-127910214D01*
X89178571Y-127953071D01*
X89264285Y-127995928D01*
X89350000Y-127995928D01*
X89435714Y-127953071D01*
X89478571Y-127910214D01*
X89478571Y-127567357D02*
X89478571Y-127910214D01*
X89521428Y-127953071D01*
X89564285Y-127953071D01*
X89650000Y-127910214D01*
X89692857Y-127824500D01*
X89692857Y-127610214D01*
X89607142Y-127481642D01*
X89478571Y-127395928D01*
X89307142Y-127353071D01*
X89135714Y-127395928D01*
X89007142Y-127481642D01*
X88921428Y-127610214D01*
X88878571Y-127781642D01*
X88921428Y-127953071D01*
X89007142Y-128081642D01*
X89135714Y-128167357D01*
X89307142Y-128210214D01*
X89478571Y-128167357D01*
X89607142Y-128081642D01*
X90464285Y-128038785D02*
X90378571Y-128081642D01*
X90207142Y-128081642D01*
X90121428Y-128038785D01*
X90078571Y-127995928D01*
X90035714Y-127910214D01*
X90035714Y-127653071D01*
X90078571Y-127567357D01*
X90121428Y-127524500D01*
X90207142Y-127481642D01*
X90378571Y-127481642D01*
X90464285Y-127524500D01*
X91235714Y-128081642D02*
X91235714Y-127610214D01*
X91192857Y-127524500D01*
X91107142Y-127481642D01*
X90935714Y-127481642D01*
X90850000Y-127524500D01*
X91235714Y-128038785D02*
X91150000Y-128081642D01*
X90935714Y-128081642D01*
X90850000Y-128038785D01*
X90807142Y-127953071D01*
X90807142Y-127867357D01*
X90850000Y-127781642D01*
X90935714Y-127738785D01*
X91150000Y-127738785D01*
X91235714Y-127695928D01*
X91535714Y-127481642D02*
X91878571Y-127481642D01*
X91664285Y-127181642D02*
X91664285Y-127953071D01*
X91707142Y-128038785D01*
X91792857Y-128081642D01*
X91878571Y-128081642D01*
X91964285Y-128167357D02*
X92650000Y-128167357D01*
X92864285Y-127481642D02*
X92864285Y-128081642D01*
X92864285Y-127567357D02*
X92907142Y-127524500D01*
X92992857Y-127481642D01*
X93121428Y-127481642D01*
X93207142Y-127524500D01*
X93250000Y-127610214D01*
X93250000Y-128081642D01*
X94021428Y-128038785D02*
X93935714Y-128081642D01*
X93764285Y-128081642D01*
X93678571Y-128038785D01*
X93635714Y-127953071D01*
X93635714Y-127610214D01*
X93678571Y-127524500D01*
X93764285Y-127481642D01*
X93935714Y-127481642D01*
X94021428Y-127524500D01*
X94064285Y-127610214D01*
X94064285Y-127695928D01*
X93635714Y-127781642D01*
X94450000Y-128081642D02*
X94450000Y-127181642D01*
X94535714Y-127738785D02*
X94792857Y-128081642D01*
X94792857Y-127481642D02*
X94450000Y-127824500D01*
X95307142Y-128081642D02*
X95221428Y-128038785D01*
X95178571Y-127995928D01*
X95135714Y-127910214D01*
X95135714Y-127653071D01*
X95178571Y-127567357D01*
X95221428Y-127524500D01*
X95307142Y-127481642D01*
X95435714Y-127481642D01*
X95521428Y-127524500D01*
X95564285Y-127567357D01*
X95607142Y-127653071D01*
X95607142Y-127910214D01*
X95564285Y-127995928D01*
X95521428Y-128038785D01*
X95435714Y-128081642D01*
X95307142Y-128081642D01*
X95992857Y-127481642D02*
X95992857Y-128081642D01*
X95992857Y-127567357D02*
X96035714Y-127524500D01*
X96121428Y-127481642D01*
X96250000Y-127481642D01*
X96335714Y-127524500D01*
X96378571Y-127610214D01*
X96378571Y-128081642D01*
X97150000Y-128038785D02*
X97064285Y-128081642D01*
X96892857Y-128081642D01*
X96807142Y-128038785D01*
X96764285Y-127953071D01*
X96764285Y-127610214D01*
X96807142Y-127524500D01*
X96892857Y-127481642D01*
X97064285Y-127481642D01*
X97150000Y-127524500D01*
X97192857Y-127610214D01*
X97192857Y-127695928D01*
X96764285Y-127781642D01*
X97578571Y-128081642D02*
X97578571Y-127181642D01*
X97664285Y-127738785D02*
X97921428Y-128081642D01*
X97921428Y-127481642D02*
X97578571Y-127824500D01*
X98435714Y-128081642D02*
X98350000Y-128038785D01*
X98307142Y-127995928D01*
X98264285Y-127910214D01*
X98264285Y-127653071D01*
X98307142Y-127567357D01*
X98350000Y-127524500D01*
X98435714Y-127481642D01*
X98564285Y-127481642D01*
X98650000Y-127524500D01*
X98692857Y-127567357D01*
X98735714Y-127653071D01*
X98735714Y-127910214D01*
X98692857Y-127995928D01*
X98650000Y-128038785D01*
X98564285Y-128081642D01*
X98435714Y-128081642D01*
X99121428Y-127481642D02*
X99121428Y-128081642D01*
X99121428Y-127567357D02*
X99164285Y-127524500D01*
X99250000Y-127481642D01*
X99378571Y-127481642D01*
X99464285Y-127524500D01*
X99507142Y-127610214D01*
X99507142Y-128081642D01*
X100278571Y-128038785D02*
X100192857Y-128081642D01*
X100021428Y-128081642D01*
X99935714Y-128038785D01*
X99892857Y-127953071D01*
X99892857Y-127610214D01*
X99935714Y-127524500D01*
X100021428Y-127481642D01*
X100192857Y-127481642D01*
X100278571Y-127524500D01*
X100321428Y-127610214D01*
X100321428Y-127695928D01*
X99892857Y-127781642D01*
D12*
X153653333Y-90025714D02*
X153415238Y-90025714D01*
X153415238Y-88597142D01*
X153653333Y-88597142D01*
X154034285Y-89692380D02*
X154034285Y-88692380D01*
X154415238Y-88692380D01*
X154510476Y-88740000D01*
X154558095Y-88787619D01*
X154605714Y-88882857D01*
X154605714Y-89025714D01*
X154558095Y-89120952D01*
X154510476Y-89168571D01*
X154415238Y-89216190D01*
X154034285Y-89216190D01*
X155034285Y-89692380D02*
X155034285Y-89025714D01*
X155034285Y-88692380D02*
X154986666Y-88740000D01*
X155034285Y-88787619D01*
X155081904Y-88740000D01*
X155034285Y-88692380D01*
X155034285Y-88787619D01*
X155891428Y-89644761D02*
X155796190Y-89692380D01*
X155605714Y-89692380D01*
X155510476Y-89644761D01*
X155462857Y-89549523D01*
X155462857Y-89168571D01*
X155510476Y-89073333D01*
X155605714Y-89025714D01*
X155796190Y-89025714D01*
X155891428Y-89073333D01*
X155939047Y-89168571D01*
X155939047Y-89263809D01*
X155462857Y-89359047D01*
X156272380Y-89025714D02*
X156796190Y-89025714D01*
X156272380Y-89692380D01*
X156796190Y-89692380D01*
X157320000Y-89692380D02*
X157224761Y-89644761D01*
X157177142Y-89597142D01*
X157129523Y-89501904D01*
X157129523Y-89216190D01*
X157177142Y-89120952D01*
X157224761Y-89073333D01*
X157320000Y-89025714D01*
X157462857Y-89025714D01*
X157558095Y-89073333D01*
X157605714Y-89120952D01*
X157653333Y-89216190D01*
X157653333Y-89501904D01*
X157605714Y-89597142D01*
X157558095Y-89644761D01*
X157462857Y-89692380D01*
X157320000Y-89692380D01*
X157986666Y-90025714D02*
X158224761Y-90025714D01*
X158224761Y-88597142D01*
X157986666Y-88597142D01*
X82520000Y-116365714D02*
X82281904Y-116365714D01*
X82281904Y-114937142D01*
X82520000Y-114937142D01*
X83234285Y-115508571D02*
X82900952Y-115508571D01*
X82900952Y-116032380D02*
X82900952Y-115032380D01*
X83377142Y-115032380D01*
X84186666Y-115365714D02*
X84186666Y-116032380D01*
X83948571Y-114984761D02*
X83710476Y-115699047D01*
X84329523Y-115699047D01*
X85139047Y-115365714D02*
X85139047Y-116032380D01*
X84900952Y-114984761D02*
X84662857Y-115699047D01*
X85281904Y-115699047D01*
X86091428Y-115032380D02*
X85900952Y-115032380D01*
X85805714Y-115080000D01*
X85758095Y-115127619D01*
X85662857Y-115270476D01*
X85615238Y-115460952D01*
X85615238Y-115841904D01*
X85662857Y-115937142D01*
X85710476Y-115984761D01*
X85805714Y-116032380D01*
X85996190Y-116032380D01*
X86091428Y-115984761D01*
X86139047Y-115937142D01*
X86186666Y-115841904D01*
X86186666Y-115603809D01*
X86139047Y-115508571D01*
X86091428Y-115460952D01*
X85996190Y-115413333D01*
X85805714Y-115413333D01*
X85710476Y-115460952D01*
X85662857Y-115508571D01*
X85615238Y-115603809D01*
X86520000Y-116365714D02*
X86758095Y-116365714D01*
X86758095Y-114937142D01*
X86520000Y-114937142D01*
X172919523Y-108305714D02*
X172681428Y-108305714D01*
X172681428Y-106877142D01*
X172919523Y-106877142D01*
X173776666Y-107972380D02*
X173300476Y-107972380D01*
X173300476Y-106972380D01*
X174110000Y-107448571D02*
X174443333Y-107448571D01*
X174586190Y-107972380D02*
X174110000Y-107972380D01*
X174110000Y-106972380D01*
X174586190Y-106972380D01*
X175014761Y-107972380D02*
X175014761Y-106972380D01*
X175252857Y-106972380D01*
X175395714Y-107020000D01*
X175490952Y-107115238D01*
X175538571Y-107210476D01*
X175586190Y-107400952D01*
X175586190Y-107543809D01*
X175538571Y-107734285D01*
X175490952Y-107829523D01*
X175395714Y-107924761D01*
X175252857Y-107972380D01*
X175014761Y-107972380D01*
X175871904Y-106972380D02*
X176443333Y-106972380D01*
X176157619Y-107972380D02*
X176157619Y-106972380D01*
X177205238Y-107972380D02*
X177205238Y-107448571D01*
X177157619Y-107353333D01*
X177062380Y-107305714D01*
X176871904Y-107305714D01*
X176776666Y-107353333D01*
X177205238Y-107924761D02*
X177110000Y-107972380D01*
X176871904Y-107972380D01*
X176776666Y-107924761D01*
X176729047Y-107829523D01*
X176729047Y-107734285D01*
X176776666Y-107639047D01*
X176871904Y-107591428D01*
X177110000Y-107591428D01*
X177205238Y-107543809D01*
X177681428Y-107305714D02*
X177681428Y-108305714D01*
X177681428Y-107353333D02*
X177776666Y-107305714D01*
X177967142Y-107305714D01*
X178062380Y-107353333D01*
X178110000Y-107400952D01*
X178157619Y-107496190D01*
X178157619Y-107781904D01*
X178110000Y-107877142D01*
X178062380Y-107924761D01*
X177967142Y-107972380D01*
X177776666Y-107972380D01*
X177681428Y-107924761D01*
X178967142Y-107924761D02*
X178871904Y-107972380D01*
X178681428Y-107972380D01*
X178586190Y-107924761D01*
X178538571Y-107829523D01*
X178538571Y-107448571D01*
X178586190Y-107353333D01*
X178681428Y-107305714D01*
X178871904Y-107305714D01*
X178967142Y-107353333D01*
X179014761Y-107448571D01*
X179014761Y-107543809D01*
X178538571Y-107639047D01*
X179348095Y-106972380D02*
X179967142Y-106972380D01*
X179633809Y-107353333D01*
X179776666Y-107353333D01*
X179871904Y-107400952D01*
X179919523Y-107448571D01*
X179967142Y-107543809D01*
X179967142Y-107781904D01*
X179919523Y-107877142D01*
X179871904Y-107924761D01*
X179776666Y-107972380D01*
X179490952Y-107972380D01*
X179395714Y-107924761D01*
X179348095Y-107877142D01*
X180300476Y-108305714D02*
X180538571Y-108305714D01*
X180538571Y-106877142D01*
X180300476Y-106877142D01*
X145725714Y-126486666D02*
X145725714Y-126724761D01*
X144297142Y-126724761D01*
X144297142Y-126486666D01*
X145106666Y-126153333D02*
X145106666Y-125677142D01*
X145392380Y-126248571D02*
X144392380Y-125915238D01*
X145392380Y-125581904D01*
X144725714Y-124820000D02*
X145392380Y-124820000D01*
X144725714Y-125248571D02*
X145249523Y-125248571D01*
X145344761Y-125200952D01*
X145392380Y-125105714D01*
X145392380Y-124962857D01*
X145344761Y-124867619D01*
X145297142Y-124820000D01*
X145392380Y-123915238D02*
X144392380Y-123915238D01*
X145344761Y-123915238D02*
X145392380Y-124010476D01*
X145392380Y-124200952D01*
X145344761Y-124296190D01*
X145297142Y-124343809D01*
X145201904Y-124391428D01*
X144916190Y-124391428D01*
X144820952Y-124343809D01*
X144773333Y-124296190D01*
X144725714Y-124200952D01*
X144725714Y-124010476D01*
X144773333Y-123915238D01*
X145392380Y-123439047D02*
X144725714Y-123439047D01*
X144392380Y-123439047D02*
X144440000Y-123486666D01*
X144487619Y-123439047D01*
X144440000Y-123391428D01*
X144392380Y-123439047D01*
X144487619Y-123439047D01*
X145392380Y-122820000D02*
X145344761Y-122915238D01*
X145297142Y-122962857D01*
X145201904Y-123010476D01*
X144916190Y-123010476D01*
X144820952Y-122962857D01*
X144773333Y-122915238D01*
X144725714Y-122820000D01*
X144725714Y-122677142D01*
X144773333Y-122581904D01*
X144820952Y-122534285D01*
X144916190Y-122486666D01*
X145201904Y-122486666D01*
X145297142Y-122534285D01*
X145344761Y-122581904D01*
X145392380Y-122677142D01*
X145392380Y-122820000D01*
X145725714Y-122153333D02*
X145725714Y-121915238D01*
X144297142Y-121915238D01*
X144297142Y-122153333D01*
D19*
X151921428Y-78173809D02*
X152835714Y-78173809D01*
X152378571Y-79773809D02*
X152378571Y-78173809D01*
X153597619Y-79773809D02*
X153445238Y-79697619D01*
X153369047Y-79621428D01*
X153292857Y-79469047D01*
X153292857Y-79011904D01*
X153369047Y-78859523D01*
X153445238Y-78783333D01*
X153597619Y-78707142D01*
X153826190Y-78707142D01*
X153978571Y-78783333D01*
X154054761Y-78859523D01*
X154130952Y-79011904D01*
X154130952Y-79469047D01*
X154054761Y-79621428D01*
X153978571Y-79697619D01*
X153826190Y-79773809D01*
X153597619Y-79773809D01*
X154816666Y-79773809D02*
X154816666Y-78707142D01*
X154816666Y-78859523D02*
X154892857Y-78783333D01*
X155045238Y-78707142D01*
X155273809Y-78707142D01*
X155426190Y-78783333D01*
X155502380Y-78935714D01*
X155502380Y-79773809D01*
X155502380Y-78935714D02*
X155578571Y-78783333D01*
X155730952Y-78707142D01*
X155959523Y-78707142D01*
X156111904Y-78783333D01*
X156188095Y-78935714D01*
X156188095Y-79773809D01*
X157178571Y-79773809D02*
X157026190Y-79697619D01*
X156950000Y-79621428D01*
X156873809Y-79469047D01*
X156873809Y-79011904D01*
X156950000Y-78859523D01*
X157026190Y-78783333D01*
X157178571Y-78707142D01*
X157407142Y-78707142D01*
X157559523Y-78783333D01*
X157635714Y-78859523D01*
X157711904Y-79011904D01*
X157711904Y-79469047D01*
X157635714Y-79621428D01*
X157559523Y-79697619D01*
X157407142Y-79773809D01*
X157178571Y-79773809D01*
X158321428Y-79697619D02*
X158473809Y-79773809D01*
X158778571Y-79773809D01*
X158930952Y-79697619D01*
X159007142Y-79545238D01*
X159007142Y-79469047D01*
X158930952Y-79316666D01*
X158778571Y-79240476D01*
X158550000Y-79240476D01*
X158397619Y-79164285D01*
X158321428Y-79011904D01*
X158321428Y-78935714D01*
X158397619Y-78783333D01*
X158550000Y-78707142D01*
X158778571Y-78707142D01*
X158930952Y-78783333D01*
X159692857Y-79773809D02*
X159692857Y-78173809D01*
X160378571Y-79773809D02*
X160378571Y-78935714D01*
X160302380Y-78783333D01*
X160150000Y-78707142D01*
X159921428Y-78707142D01*
X159769047Y-78783333D01*
X159692857Y-78859523D01*
X161140476Y-79773809D02*
X161140476Y-78707142D01*
X161140476Y-78173809D02*
X161064285Y-78250000D01*
X161140476Y-78326190D01*
X161216666Y-78250000D01*
X161140476Y-78173809D01*
X161140476Y-78326190D01*
X161902380Y-79773809D02*
X161902380Y-78173809D01*
X161902380Y-78783333D02*
X162054761Y-78707142D01*
X162359523Y-78707142D01*
X162511904Y-78783333D01*
X162588095Y-78859523D01*
X162664285Y-79011904D01*
X162664285Y-79469047D01*
X162588095Y-79621428D01*
X162511904Y-79697619D01*
X162359523Y-79773809D01*
X162054761Y-79773809D01*
X161902380Y-79697619D01*
X163350000Y-79773809D02*
X163350000Y-78707142D01*
X163350000Y-78173809D02*
X163273809Y-78250000D01*
X163350000Y-78326190D01*
X163426190Y-78250000D01*
X163350000Y-78173809D01*
X163350000Y-78326190D01*
D12*
X87473809Y-99095714D02*
X87235714Y-99095714D01*
X87235714Y-97667142D01*
X87473809Y-97667142D01*
X87711904Y-97762380D02*
X88283333Y-97762380D01*
X87997619Y-98762380D02*
X87997619Y-97762380D01*
X88521428Y-98095714D02*
X88711904Y-98762380D01*
X88902380Y-98286190D01*
X89092857Y-98762380D01*
X89283333Y-98095714D01*
X90045238Y-98714761D02*
X89950000Y-98762380D01*
X89759523Y-98762380D01*
X89664285Y-98714761D01*
X89616666Y-98619523D01*
X89616666Y-98238571D01*
X89664285Y-98143333D01*
X89759523Y-98095714D01*
X89950000Y-98095714D01*
X90045238Y-98143333D01*
X90092857Y-98238571D01*
X90092857Y-98333809D01*
X89616666Y-98429047D01*
X90426190Y-99095714D02*
X90664285Y-99095714D01*
X90664285Y-97667142D01*
X90426190Y-97667142D01*
D10*
%TO.C,U1*%
X127989805Y-81212698D02*
X127956133Y-81111683D01*
X127855118Y-81010668D01*
X127720431Y-80943324D01*
X127585744Y-80943324D01*
X127484729Y-80976996D01*
X127316370Y-81078011D01*
X127215355Y-81179026D01*
X127114339Y-81347385D01*
X127080668Y-81448400D01*
X127080668Y-81583087D01*
X127148011Y-81717774D01*
X127215355Y-81785118D01*
X127350042Y-81852461D01*
X127417385Y-81852461D01*
X127653087Y-81616759D01*
X127518400Y-81482072D01*
X127653087Y-82222851D02*
X128360194Y-81515744D01*
X128057148Y-82626912D01*
X128764255Y-81919805D01*
X128393866Y-82963629D02*
X129100973Y-82256522D01*
X129269331Y-82424881D01*
X129336675Y-82559568D01*
X129336675Y-82694255D01*
X129303003Y-82795270D01*
X129201988Y-82963629D01*
X129100973Y-83064644D01*
X128932614Y-83165660D01*
X128831599Y-83199331D01*
X128696912Y-83199331D01*
X128562225Y-83131988D01*
X128393866Y-82963629D01*
X130159416Y-80774965D02*
X129688011Y-81717774D01*
X130630820Y-81246370D01*
X130630820Y-82525896D02*
X130563477Y-82525896D01*
X130428790Y-82458553D01*
X130361446Y-82391209D01*
X130294103Y-82256522D01*
X130294103Y-82121835D01*
X130327774Y-82020820D01*
X130428790Y-81852461D01*
X130529805Y-81751446D01*
X130698164Y-81650431D01*
X130799179Y-81616759D01*
X130933866Y-81616759D01*
X131068553Y-81684103D01*
X131135896Y-81751446D01*
X131203240Y-81886133D01*
X131203240Y-81953477D01*
X131337927Y-83233003D02*
X131270583Y-83233003D01*
X131135896Y-83165660D01*
X131068553Y-83098316D01*
X131001209Y-82963629D01*
X131001209Y-82828942D01*
X131034881Y-82727927D01*
X131135896Y-82559568D01*
X131236912Y-82458553D01*
X131405270Y-82357538D01*
X131506286Y-82323866D01*
X131640973Y-82323866D01*
X131775660Y-82391209D01*
X131843003Y-82458553D01*
X131910347Y-82593240D01*
X131910347Y-82660583D01*
X132126996Y-81549416D02*
X132194339Y-81684103D01*
X132362698Y-81852461D01*
X132463713Y-81886133D01*
X132531057Y-81886133D01*
X132632072Y-81852461D01*
X132699416Y-81785118D01*
X132733087Y-81684103D01*
X132733087Y-81616759D01*
X132699416Y-81515744D01*
X132598400Y-81347385D01*
X132564729Y-81246370D01*
X132564729Y-81179026D01*
X132598400Y-81078011D01*
X132665744Y-81010668D01*
X132766759Y-80976996D01*
X132834103Y-80976996D01*
X132935118Y-81010668D01*
X133103477Y-81179026D01*
X133170820Y-81313713D01*
X133271835Y-82626912D02*
X133204492Y-82626912D01*
X133069805Y-82559568D01*
X133002461Y-82492225D01*
X132935118Y-82357538D01*
X132935118Y-82222851D01*
X132968790Y-82121835D01*
X133069805Y-81953477D01*
X133170820Y-81852461D01*
X133339179Y-81751446D01*
X133440194Y-81717774D01*
X133574881Y-81717774D01*
X133709568Y-81785118D01*
X133776912Y-81852461D01*
X133844255Y-81987148D01*
X133844255Y-82054492D01*
X133844255Y-83334018D02*
X133507538Y-82997301D01*
X134214644Y-82290194D01*
X134650160Y-81532580D02*
X134717503Y-81667267D01*
X134885862Y-81835625D01*
X134986877Y-81869297D01*
X135054221Y-81869297D01*
X135155236Y-81835625D01*
X135222580Y-81768282D01*
X135256251Y-81667267D01*
X135256251Y-81599923D01*
X135222580Y-81498908D01*
X135121564Y-81330549D01*
X135087893Y-81229534D01*
X135087893Y-81162190D01*
X135121564Y-81061175D01*
X135188908Y-80993832D01*
X135289923Y-80960160D01*
X135357267Y-80960160D01*
X135458282Y-80993832D01*
X135626641Y-81162190D01*
X135693984Y-81296877D01*
X135323595Y-82273358D02*
X136030702Y-81566251D01*
X136199061Y-81734610D01*
X136266404Y-81869297D01*
X136266404Y-82003984D01*
X136232732Y-82104999D01*
X136131717Y-82273358D01*
X136030702Y-82374374D01*
X135862343Y-82475389D01*
X135761328Y-82509061D01*
X135626641Y-82509061D01*
X135491954Y-82441717D01*
X135323595Y-82273358D01*
X136199061Y-82744763D02*
X136535778Y-83081480D01*
X135929687Y-82879450D02*
X136872496Y-82408045D01*
X136401091Y-83350854D01*
D17*
%TO.C,C22*%
X146738748Y-108195000D02*
X147261252Y-108195000D01*
X146738748Y-109665000D02*
X147261252Y-109665000D01*
%TO.C,SW7*%
X148342000Y-96218000D02*
X149154800Y-96218000D01*
X153422000Y-96218000D02*
X151186800Y-96218000D01*
X148342000Y-96218000D02*
X148342000Y-92662000D01*
X156978000Y-92662000D02*
X156978000Y-96218000D01*
X148342000Y-92662000D02*
X151644000Y-92662000D01*
G36*
X158756000Y-97996000D02*
G01*
X152660000Y-97996000D01*
X152660000Y-95710000D01*
X154133200Y-95710000D01*
X154133200Y-96776800D01*
X154387200Y-97030800D01*
X155911200Y-97030800D01*
X156165200Y-96776800D01*
X156165200Y-95710000D01*
X156470000Y-95710000D01*
X156470000Y-93170000D01*
X153676000Y-93170000D01*
X153676000Y-92509600D01*
X153218800Y-91950800D01*
X152660000Y-91798400D01*
X152660000Y-90884000D01*
X158756000Y-90884000D01*
X158756000Y-97996000D01*
G37*
X158756000Y-97996000D02*
X152660000Y-97996000D01*
X152660000Y-95710000D01*
X154133200Y-95710000D01*
X154133200Y-96776800D01*
X154387200Y-97030800D01*
X155911200Y-97030800D01*
X156165200Y-96776800D01*
X156165200Y-95710000D01*
X156470000Y-95710000D01*
X156470000Y-93170000D01*
X153676000Y-93170000D01*
X153676000Y-92509600D01*
X153218800Y-91950800D01*
X152660000Y-91798400D01*
X152660000Y-90884000D01*
X158756000Y-90884000D01*
X158756000Y-97996000D01*
%TO.C,R16*%
X145807500Y-106052742D02*
X145807500Y-106527258D01*
X146852500Y-106052742D02*
X146852500Y-106527258D01*
%TO.C,SW8*%
X100850000Y-99450000D02*
X100850000Y-105250000D01*
X107350000Y-99350000D02*
X107350000Y-105350000D01*
X102800000Y-105450000D02*
X105400000Y-105450000D01*
X102800000Y-99250000D02*
X105400000Y-99250000D01*
X101800000Y-107450000D02*
X100800000Y-107450000D01*
X100800000Y-107450000D02*
X100800000Y-106450000D01*
%TO.C,C5*%
X95460000Y-105857836D02*
X95460000Y-105642164D01*
X94740000Y-105857836D02*
X94740000Y-105642164D01*
%TO.C,J7*%
X172540000Y-108890000D02*
X172540000Y-119010000D01*
X174650000Y-119310000D02*
X172240000Y-119310000D01*
X180660000Y-108890000D02*
X172540000Y-108890000D01*
X172540000Y-119010000D02*
X180660000Y-119010000D01*
X180660000Y-119010000D02*
X180660000Y-108890000D01*
X172240000Y-119310000D02*
X172240000Y-116900000D01*
%TO.C,LS1*%
X162930000Y-114570000D02*
X162930000Y-114870000D01*
X171310000Y-114570000D02*
X167450000Y-114570000D01*
X159070000Y-114570000D02*
X159070000Y-102330000D01*
X159070000Y-102330000D02*
X162930000Y-102330000D01*
X162930000Y-114570000D02*
X159070000Y-114570000D01*
X167450000Y-102330000D02*
X171310000Y-102330000D01*
X171310000Y-102330000D02*
X171310000Y-114570000D01*
%TO.C,U1*%
X118650000Y-78295000D02*
X144050000Y-78295000D01*
X144050000Y-78295000D02*
X144050000Y-104295000D01*
X144050000Y-104295000D02*
X118650000Y-104295000D01*
X118650000Y-104295000D02*
X118650000Y-78295000D01*
%TO.C,C16*%
X145995000Y-97368748D02*
X145995000Y-97891252D01*
X147465000Y-97368748D02*
X147465000Y-97891252D01*
%TO.C,R12*%
X158532500Y-106007258D02*
X158532500Y-105532742D01*
X157487500Y-106007258D02*
X157487500Y-105532742D01*
D20*
%TO.C,D3*%
X98200000Y-82950000D02*
X98200000Y-80950000D01*
X96350000Y-82050000D02*
X97750000Y-82050000D01*
X97800000Y-82050000D02*
X97800000Y-82200000D01*
X97750000Y-82050000D02*
X97800000Y-82050000D01*
X96000000Y-80950000D02*
X96000000Y-82950000D01*
X96350000Y-82200000D02*
X97800000Y-82200000D01*
D21*
X95950000Y-83250000D02*
X95962000Y-83250000D01*
D20*
X96350000Y-82200000D02*
X96350000Y-82050000D01*
D17*
%TO.C,J6*%
X180660000Y-95890000D02*
X172540000Y-95890000D01*
X172540000Y-106010000D02*
X180660000Y-106010000D01*
X180660000Y-106010000D02*
X180660000Y-95890000D01*
X172540000Y-95890000D02*
X172540000Y-106010000D01*
X172240000Y-106310000D02*
X172240000Y-103900000D01*
X174650000Y-106310000D02*
X172240000Y-106310000D01*
%TO.C,R5*%
X145510000Y-95593641D02*
X145510000Y-95286359D01*
X144750000Y-95593641D02*
X144750000Y-95286359D01*
%TO.C,C3*%
X95460000Y-109257836D02*
X95460000Y-109042164D01*
X94740000Y-109257836D02*
X94740000Y-109042164D01*
%TO.C,R4*%
X106483641Y-79470000D02*
X106176359Y-79470000D01*
X106483641Y-80230000D02*
X106176359Y-80230000D01*
%TO.C,SW4*%
X134600000Y-108330000D02*
X134600000Y-114330000D01*
X128050000Y-116430000D02*
X128050000Y-115430000D01*
X130050000Y-114430000D02*
X132650000Y-114430000D01*
X130050000Y-108230000D02*
X132650000Y-108230000D01*
X129050000Y-116430000D02*
X128050000Y-116430000D01*
X128100000Y-108430000D02*
X128100000Y-114230000D01*
D20*
%TO.C,D18*%
X93850000Y-81850000D02*
X92450000Y-81850000D01*
X92400000Y-81850000D02*
X92400000Y-81700000D01*
X93850000Y-81700000D02*
X93850000Y-81850000D01*
X92000000Y-80950000D02*
X92000000Y-82950000D01*
X92450000Y-81850000D02*
X92400000Y-81850000D01*
D21*
X94250000Y-80650000D02*
X94238000Y-80650000D01*
D20*
X93850000Y-81700000D02*
X92400000Y-81700000D01*
X94200000Y-82950000D02*
X94200000Y-80950000D01*
D17*
%TO.C,R7*%
X82470000Y-95603641D02*
X82470000Y-95296359D01*
X83230000Y-95603641D02*
X83230000Y-95296359D01*
%TO.C,C14*%
X141457836Y-115940000D02*
X141242164Y-115940000D01*
X141457836Y-115220000D02*
X141242164Y-115220000D01*
%TO.C,SW2*%
X112032000Y-87778000D02*
X112032000Y-79142000D01*
X115588000Y-79142000D02*
X115588000Y-87778000D01*
X112032000Y-79142000D02*
X115588000Y-79142000D01*
X115588000Y-87778000D02*
X112032000Y-87778000D01*
G36*
X117366000Y-83460000D02*
G01*
X115080000Y-83460000D01*
X115080000Y-79650000D01*
X112540000Y-79650000D01*
X112540000Y-83460000D01*
X110254000Y-83460000D01*
X110254000Y-77364000D01*
X117366000Y-77364000D01*
X117366000Y-83460000D01*
G37*
X117366000Y-83460000D02*
X115080000Y-83460000D01*
X115080000Y-79650000D01*
X112540000Y-79650000D01*
X112540000Y-83460000D01*
X110254000Y-83460000D01*
X110254000Y-77364000D01*
X117366000Y-77364000D01*
X117366000Y-83460000D01*
D20*
%TO.C,D16*%
X97750000Y-109250000D02*
X97800000Y-109250000D01*
X96000000Y-108150000D02*
X96000000Y-110150000D01*
X96350000Y-109400000D02*
X96350000Y-109250000D01*
X97800000Y-109250000D02*
X97800000Y-109400000D01*
X96350000Y-109250000D02*
X97750000Y-109250000D01*
X96350000Y-109400000D02*
X97800000Y-109400000D01*
D21*
X95950000Y-110450000D02*
X95962000Y-110450000D01*
D20*
X98200000Y-110150000D02*
X98200000Y-108150000D01*
D17*
%TO.C,JP1*%
X153100000Y-101030000D02*
X155900000Y-101030000D01*
X153100000Y-103030000D02*
X153100000Y-101030000D01*
X155900000Y-101030000D02*
X155900000Y-103030000D01*
X155900000Y-103030000D02*
X153100000Y-103030000D01*
%TO.C,C20*%
X103992164Y-117040000D02*
X104207836Y-117040000D01*
X103992164Y-117760000D02*
X104207836Y-117760000D01*
D20*
%TO.C,D8*%
X96350000Y-102600000D02*
X97800000Y-102600000D01*
X97800000Y-102450000D02*
X97800000Y-102600000D01*
X96350000Y-102450000D02*
X97750000Y-102450000D01*
D21*
X95950000Y-103650000D02*
X95962000Y-103650000D01*
D20*
X97750000Y-102450000D02*
X97800000Y-102450000D01*
X98200000Y-103350000D02*
X98200000Y-101350000D01*
X96000000Y-101350000D02*
X96000000Y-103350000D01*
X96350000Y-102600000D02*
X96350000Y-102450000D01*
D17*
%TO.C,H4*%
X148380000Y-112380000D02*
X146480000Y-112380000D01*
X146480000Y-112380000D02*
X146480000Y-110480000D01*
X148380000Y-110480000D02*
X148380000Y-112380000D01*
X146480000Y-110480000D02*
X148380000Y-110480000D01*
%TO.C,C21*%
X152975000Y-110338748D02*
X152975000Y-110861252D01*
X154445000Y-110338748D02*
X154445000Y-110861252D01*
%TO.C,R6*%
X145520000Y-98533641D02*
X145520000Y-98226359D01*
X144760000Y-98533641D02*
X144760000Y-98226359D01*
%TO.C,R11*%
X156507500Y-109047258D02*
X156507500Y-108572742D01*
X157552500Y-109047258D02*
X157552500Y-108572742D01*
%TO.C,C19*%
X151331251Y-102995000D02*
X150808747Y-102995000D01*
X151331251Y-101525000D02*
X150808747Y-101525000D01*
%TO.C,C7*%
X94740000Y-102457836D02*
X94740000Y-102242164D01*
X95460000Y-102457836D02*
X95460000Y-102242164D01*
D20*
%TO.C,D10*%
X92000000Y-87750000D02*
X92000000Y-89750000D01*
X94200000Y-89750000D02*
X94200000Y-87750000D01*
X93850000Y-88500000D02*
X93850000Y-88650000D01*
X93850000Y-88650000D02*
X92450000Y-88650000D01*
D21*
X94250000Y-87450000D02*
X94238000Y-87450000D01*
D20*
X92400000Y-88650000D02*
X92400000Y-88500000D01*
X93850000Y-88500000D02*
X92400000Y-88500000D01*
X92450000Y-88650000D02*
X92400000Y-88650000D01*
D17*
%TO.C,R8*%
X82470000Y-91603641D02*
X82470000Y-91296359D01*
X83230000Y-91603641D02*
X83230000Y-91296359D01*
D20*
%TO.C,D19*%
X98200000Y-96550000D02*
X98200000Y-94550000D01*
D21*
X95950000Y-96850000D02*
X95962000Y-96850000D01*
D20*
X97800000Y-95650000D02*
X97800000Y-95800000D01*
X96350000Y-95800000D02*
X96350000Y-95650000D01*
X96350000Y-95650000D02*
X97750000Y-95650000D01*
X96000000Y-94550000D02*
X96000000Y-96550000D01*
X97750000Y-95650000D02*
X97800000Y-95650000D01*
X96350000Y-95800000D02*
X97800000Y-95800000D01*
D17*
%TO.C,C12*%
X131457836Y-115220000D02*
X131242164Y-115220000D01*
X131457836Y-115940000D02*
X131242164Y-115940000D01*
%TO.C,J2*%
X114560000Y-120890000D02*
X104440000Y-120890000D01*
X114560000Y-129010000D02*
X114560000Y-120890000D01*
X104440000Y-129010000D02*
X114560000Y-129010000D01*
X104440000Y-120890000D02*
X104440000Y-129010000D01*
X104140000Y-123000000D02*
X104140000Y-120590000D01*
X104140000Y-120590000D02*
X106550000Y-120590000D01*
%TO.C,SW11*%
X101800000Y-118300000D02*
X100800000Y-118300000D01*
X100850000Y-110300000D02*
X100850000Y-116100000D01*
X102800000Y-116300000D02*
X105400000Y-116300000D01*
X107350000Y-110200000D02*
X107350000Y-116200000D01*
X100800000Y-118300000D02*
X100800000Y-117300000D01*
X102800000Y-110100000D02*
X105400000Y-110100000D01*
%TO.C,J8*%
X146900000Y-121880000D02*
X146900000Y-119080000D01*
X153800000Y-124280000D02*
X153800000Y-126780000D01*
X153800000Y-126780000D02*
X153050000Y-126780000D01*
X146900000Y-126780000D02*
X146900000Y-124280000D01*
X153850000Y-116830000D02*
X153850000Y-114805000D01*
X153800000Y-121880000D02*
X153800000Y-119080000D01*
X149300000Y-114880000D02*
X151400000Y-114880000D01*
X147650000Y-126780000D02*
X146900000Y-126780000D01*
%TO.C,C1*%
X94740000Y-112657836D02*
X94740000Y-112442164D01*
X95460000Y-112657836D02*
X95460000Y-112442164D01*
%TO.C,R15*%
X154967500Y-110152742D02*
X154967500Y-110627258D01*
X156012500Y-110152742D02*
X156012500Y-110627258D01*
%TO.C,C15*%
X146005000Y-93858748D02*
X146005000Y-94381252D01*
X147475000Y-93858748D02*
X147475000Y-94381252D01*
%TO.C,D22*%
X107130000Y-80515000D02*
X104670000Y-80515000D01*
X104670000Y-80515000D02*
X104670000Y-81985000D01*
X104670000Y-81985000D02*
X107130000Y-81985000D01*
%TO.C,J3*%
X127960000Y-129010000D02*
X127960000Y-120890000D01*
X127960000Y-120890000D02*
X117840000Y-120890000D01*
X117540000Y-123000000D02*
X117540000Y-120590000D01*
X117540000Y-120590000D02*
X119950000Y-120590000D01*
X117840000Y-120890000D02*
X117840000Y-129010000D01*
X117840000Y-129010000D02*
X127960000Y-129010000D01*
%TO.C,R3*%
X102576359Y-79470000D02*
X102883641Y-79470000D01*
X102576359Y-80230000D02*
X102883641Y-80230000D01*
%TO.C,C10*%
X94740000Y-82057836D02*
X94740000Y-81842164D01*
X95460000Y-82057836D02*
X95460000Y-81842164D01*
%TO.C,R9*%
X156360000Y-105373641D02*
X156360000Y-105066359D01*
X157120000Y-105373641D02*
X157120000Y-105066359D01*
%TO.C,C2*%
X95460000Y-95657836D02*
X95460000Y-95442164D01*
X94740000Y-95657836D02*
X94740000Y-95442164D01*
%TO.C,RV1*%
X170235000Y-99090000D02*
X170235000Y-89320000D01*
X160465000Y-89320000D02*
X170235000Y-89320000D01*
X160465000Y-99090000D02*
X160465000Y-89320000D01*
X160465000Y-99090000D02*
X170235000Y-99090000D01*
D20*
%TO.C,D11*%
X96350000Y-88850000D02*
X97750000Y-88850000D01*
X96350000Y-89000000D02*
X97800000Y-89000000D01*
X98200000Y-89750000D02*
X98200000Y-87750000D01*
X96000000Y-87750000D02*
X96000000Y-89750000D01*
D21*
X95950000Y-90050000D02*
X95962000Y-90050000D01*
D20*
X96350000Y-89000000D02*
X96350000Y-88850000D01*
X97750000Y-88850000D02*
X97800000Y-88850000D01*
X97800000Y-88850000D02*
X97800000Y-89000000D01*
%TO.C,D2*%
X93850000Y-95300000D02*
X92400000Y-95300000D01*
X93850000Y-95300000D02*
X93850000Y-95450000D01*
X92450000Y-95450000D02*
X92400000Y-95450000D01*
X92000000Y-94550000D02*
X92000000Y-96550000D01*
X93850000Y-95450000D02*
X92450000Y-95450000D01*
X92400000Y-95450000D02*
X92400000Y-95300000D01*
X94200000Y-96550000D02*
X94200000Y-94550000D01*
D21*
X94250000Y-94250000D02*
X94238000Y-94250000D01*
D17*
%TO.C,R2*%
X134627500Y-75945276D02*
X134627500Y-76454724D01*
X135672500Y-75945276D02*
X135672500Y-76454724D01*
%TO.C,SW6*%
X138050000Y-116430000D02*
X138050000Y-115430000D01*
X140050000Y-114430000D02*
X142650000Y-114430000D01*
X144600000Y-108330000D02*
X144600000Y-114330000D01*
X139050000Y-116430000D02*
X138050000Y-116430000D01*
X140050000Y-108230000D02*
X142650000Y-108230000D01*
X138100000Y-108430000D02*
X138100000Y-114230000D01*
D20*
%TO.C,D12*%
X98200000Y-106750000D02*
X98200000Y-104750000D01*
D21*
X95950000Y-107050000D02*
X95962000Y-107050000D01*
D20*
X96000000Y-104750000D02*
X96000000Y-106750000D01*
X97800000Y-105850000D02*
X97800000Y-106000000D01*
X96350000Y-106000000D02*
X97800000Y-106000000D01*
X96350000Y-106000000D02*
X96350000Y-105850000D01*
X97750000Y-105850000D02*
X97800000Y-105850000D01*
X96350000Y-105850000D02*
X97750000Y-105850000D01*
%TO.C,D17*%
X93850000Y-98850000D02*
X92450000Y-98850000D01*
X92400000Y-98850000D02*
X92400000Y-98700000D01*
X92450000Y-98850000D02*
X92400000Y-98850000D01*
X93850000Y-98700000D02*
X93850000Y-98850000D01*
X94200000Y-99950000D02*
X94200000Y-97950000D01*
X93850000Y-98700000D02*
X92400000Y-98700000D01*
D21*
X94250000Y-97650000D02*
X94238000Y-97650000D01*
D20*
X92000000Y-97950000D02*
X92000000Y-99950000D01*
%TO.C,D13*%
X92000000Y-101350000D02*
X92000000Y-103350000D01*
X92400000Y-102250000D02*
X92400000Y-102100000D01*
X93850000Y-102100000D02*
X92400000Y-102100000D01*
D21*
X94250000Y-101050000D02*
X94238000Y-101050000D01*
D20*
X93850000Y-102100000D02*
X93850000Y-102250000D01*
X93850000Y-102250000D02*
X92450000Y-102250000D01*
X92450000Y-102250000D02*
X92400000Y-102250000D01*
X94200000Y-103350000D02*
X94200000Y-101350000D01*
D17*
%TO.C,C6*%
X95460000Y-88857836D02*
X95460000Y-88642164D01*
X94740000Y-88857836D02*
X94740000Y-88642164D01*
D21*
%TO.C,D6*%
X94250000Y-90850000D02*
X94238000Y-90850000D01*
D20*
X93850000Y-91900000D02*
X93850000Y-92050000D01*
X92400000Y-92050000D02*
X92400000Y-91900000D01*
X93850000Y-91900000D02*
X92400000Y-91900000D01*
X92000000Y-91150000D02*
X92000000Y-93150000D01*
X92450000Y-92050000D02*
X92400000Y-92050000D01*
X93850000Y-92050000D02*
X92450000Y-92050000D01*
X94200000Y-93150000D02*
X94200000Y-91150000D01*
%TO.C,D4*%
X98200000Y-99950000D02*
X98200000Y-97950000D01*
X97750000Y-99050000D02*
X97800000Y-99050000D01*
X96350000Y-99200000D02*
X97800000Y-99200000D01*
D21*
X95950000Y-100250000D02*
X95962000Y-100250000D01*
D20*
X96000000Y-97950000D02*
X96000000Y-99950000D01*
X97800000Y-99050000D02*
X97800000Y-99200000D01*
X96350000Y-99200000D02*
X96350000Y-99050000D01*
X96350000Y-99050000D02*
X97750000Y-99050000D01*
D17*
%TO.C,C17*%
X103992164Y-106190000D02*
X104207836Y-106190000D01*
X103992164Y-106910000D02*
X104207836Y-106910000D01*
%TO.C,Q1*%
X86660000Y-95450000D02*
X86660000Y-94800000D01*
X83540000Y-95450000D02*
X83540000Y-97125000D01*
X86660000Y-95450000D02*
X86660000Y-96100000D01*
X83540000Y-95450000D02*
X83540000Y-94800000D01*
%TO.C,SW3*%
X118050000Y-116430000D02*
X118050000Y-115430000D01*
X120050000Y-114430000D02*
X122650000Y-114430000D01*
X120050000Y-108230000D02*
X122650000Y-108230000D01*
X124600000Y-108330000D02*
X124600000Y-114330000D01*
X118100000Y-108430000D02*
X118100000Y-114230000D01*
X119050000Y-116430000D02*
X118050000Y-116430000D01*
%TO.C,R17*%
X158690000Y-113673641D02*
X158690000Y-113366359D01*
X157930000Y-113673641D02*
X157930000Y-113366359D01*
D21*
%TO.C,D7*%
X95950000Y-86650000D02*
X95962000Y-86650000D01*
D20*
X96350000Y-85450000D02*
X97750000Y-85450000D01*
X97800000Y-85450000D02*
X97800000Y-85600000D01*
X96350000Y-85600000D02*
X96350000Y-85450000D01*
X97750000Y-85450000D02*
X97800000Y-85450000D01*
X98200000Y-86350000D02*
X98200000Y-84350000D01*
X96000000Y-84350000D02*
X96000000Y-86350000D01*
X96350000Y-85600000D02*
X97800000Y-85600000D01*
D17*
%TO.C,C18*%
X156505000Y-102218748D02*
X156505000Y-102741252D01*
X157975000Y-102218748D02*
X157975000Y-102741252D01*
%TO.C,R14*%
X146347500Y-103387258D02*
X146347500Y-102912742D01*
X147392500Y-103387258D02*
X147392500Y-102912742D01*
%TO.C,J5*%
X172240000Y-93310000D02*
X172240000Y-90900000D01*
X174650000Y-93310000D02*
X172240000Y-93310000D01*
X180660000Y-82890000D02*
X172540000Y-82890000D01*
X172540000Y-93010000D02*
X180660000Y-93010000D01*
X172540000Y-82890000D02*
X172540000Y-93010000D01*
X180660000Y-93010000D02*
X180660000Y-82890000D01*
%TO.C,D21*%
X104390000Y-81985000D02*
X104390000Y-80515000D01*
X101930000Y-81985000D02*
X104390000Y-81985000D01*
X104390000Y-80515000D02*
X101930000Y-80515000D01*
%TO.C,J1*%
X90160000Y-81140000D02*
X82040000Y-81140000D01*
X90460000Y-80840000D02*
X90460000Y-83250000D01*
X90160000Y-88760000D02*
X90160000Y-81140000D01*
X88050000Y-80840000D02*
X90460000Y-80840000D01*
X82040000Y-81140000D02*
X82040000Y-88760000D01*
X82040000Y-88760000D02*
X90160000Y-88760000D01*
%TO.C,Q2*%
X87240000Y-90375000D02*
X87240000Y-92525000D01*
X90460000Y-89950000D02*
X90460000Y-92525000D01*
X88150000Y-92525000D02*
X87240000Y-92525000D01*
X90460000Y-92525000D02*
X89550000Y-92525000D01*
%TO.C,C8*%
X94740000Y-85457836D02*
X94740000Y-85242164D01*
X95460000Y-85457836D02*
X95460000Y-85242164D01*
%TO.C,C4*%
X95460000Y-92257836D02*
X95460000Y-92042164D01*
X94740000Y-92257836D02*
X94740000Y-92042164D01*
%TO.C,J4*%
X131040000Y-123000000D02*
X131040000Y-120590000D01*
X131040000Y-120590000D02*
X133450000Y-120590000D01*
X141460000Y-120890000D02*
X131340000Y-120890000D01*
X131340000Y-129010000D02*
X141460000Y-129010000D01*
X141460000Y-129010000D02*
X141460000Y-120890000D01*
X131340000Y-120890000D02*
X131340000Y-129010000D01*
%TO.C,C9*%
X95460000Y-99057836D02*
X95460000Y-98842164D01*
X94740000Y-99057836D02*
X94740000Y-98842164D01*
D20*
%TO.C,D5*%
X92450000Y-109050000D02*
X92400000Y-109050000D01*
X92000000Y-108150000D02*
X92000000Y-110150000D01*
X94200000Y-110150000D02*
X94200000Y-108150000D01*
X93850000Y-108900000D02*
X93850000Y-109050000D01*
X93850000Y-109050000D02*
X92450000Y-109050000D01*
D21*
X94250000Y-107850000D02*
X94238000Y-107850000D01*
D20*
X93850000Y-108900000D02*
X92400000Y-108900000D01*
X92400000Y-109050000D02*
X92400000Y-108900000D01*
D17*
%TO.C,SW1*%
X101930000Y-96215000D02*
X107230000Y-96215000D01*
X107230000Y-83395000D02*
X105580000Y-83395000D01*
X101930000Y-83395000D02*
X101930000Y-96215000D01*
X103580000Y-83395000D02*
X101930000Y-83395000D01*
X107230000Y-96215000D02*
X107230000Y-83395000D01*
X103580000Y-83395000D02*
G75*
G03*
X105580000Y-83395000I1000000J0D01*
G01*
%TO.C,Q3*%
X86660000Y-91450000D02*
X86660000Y-92100000D01*
X83540000Y-91450000D02*
X83540000Y-93125000D01*
X86660000Y-91450000D02*
X86660000Y-90800000D01*
X83540000Y-91450000D02*
X83540000Y-90800000D01*
D20*
%TO.C,D20*%
X96350000Y-112800000D02*
X97800000Y-112800000D01*
D21*
X95950000Y-113850000D02*
X95962000Y-113850000D01*
D20*
X97750000Y-112650000D02*
X97800000Y-112650000D01*
X96350000Y-112800000D02*
X96350000Y-112650000D01*
X97800000Y-112650000D02*
X97800000Y-112800000D01*
X96350000Y-112650000D02*
X97750000Y-112650000D01*
X98200000Y-113550000D02*
X98200000Y-111550000D01*
X96000000Y-111550000D02*
X96000000Y-113550000D01*
D17*
%TO.C,R10*%
X147780000Y-103516359D02*
X147780000Y-103823641D01*
X148540000Y-103516359D02*
X148540000Y-103823641D01*
D21*
%TO.C,D1*%
X94250000Y-111250000D02*
X94238000Y-111250000D01*
D20*
X92450000Y-112450000D02*
X92400000Y-112450000D01*
X92000000Y-111550000D02*
X92000000Y-113550000D01*
X93850000Y-112450000D02*
X92450000Y-112450000D01*
X94200000Y-113550000D02*
X94200000Y-111550000D01*
X93850000Y-112300000D02*
X92400000Y-112300000D01*
X93850000Y-112300000D02*
X93850000Y-112450000D01*
X92400000Y-112450000D02*
X92400000Y-112300000D01*
D17*
%TO.C,SW10*%
X111300000Y-118300000D02*
X113900000Y-118300000D01*
X110300000Y-120300000D02*
X109300000Y-120300000D01*
X111300000Y-112100000D02*
X113900000Y-112100000D01*
X109350000Y-112300000D02*
X109350000Y-118100000D01*
X115850000Y-112200000D02*
X115850000Y-118200000D01*
X109300000Y-120300000D02*
X109300000Y-119300000D01*
%TO.C,R18*%
X149566359Y-109760000D02*
X149873641Y-109760000D01*
X149566359Y-109000000D02*
X149873641Y-109000000D01*
%TO.C,C11*%
X121457836Y-115220000D02*
X121242164Y-115220000D01*
X121457836Y-115940000D02*
X121242164Y-115940000D01*
%TO.C,R1*%
X133272500Y-75945276D02*
X133272500Y-76454724D01*
X132227500Y-75945276D02*
X132227500Y-76454724D01*
%TO.C,SW5*%
X112032000Y-98407000D02*
X112032000Y-89771000D01*
X115588000Y-89771000D02*
X115588000Y-98407000D01*
X112032000Y-89771000D02*
X115588000Y-89771000D01*
X115588000Y-98407000D02*
X112032000Y-98407000D01*
G36*
X117366000Y-94089000D02*
G01*
X115080000Y-94089000D01*
X115080000Y-90279000D01*
X112540000Y-90279000D01*
X112540000Y-94089000D01*
X110254000Y-94089000D01*
X110254000Y-87993000D01*
X117366000Y-87993000D01*
X117366000Y-94089000D01*
G37*
X117366000Y-94089000D02*
X115080000Y-94089000D01*
X115080000Y-90279000D01*
X112540000Y-90279000D01*
X112540000Y-94089000D01*
X110254000Y-94089000D01*
X110254000Y-87993000D01*
X117366000Y-87993000D01*
X117366000Y-94089000D01*
%TO.C,SW9*%
X115850000Y-101450000D02*
X115850000Y-107450000D01*
X109300000Y-109550000D02*
X109300000Y-108550000D01*
X110300000Y-109550000D02*
X109300000Y-109550000D01*
X109350000Y-101550000D02*
X109350000Y-107350000D01*
X111300000Y-101350000D02*
X113900000Y-101350000D01*
X111300000Y-107550000D02*
X113900000Y-107550000D01*
D20*
%TO.C,D9*%
X93850000Y-105650000D02*
X92450000Y-105650000D01*
X93850000Y-105500000D02*
X93850000Y-105650000D01*
X92450000Y-105650000D02*
X92400000Y-105650000D01*
D21*
X94250000Y-104450000D02*
X94238000Y-104450000D01*
D20*
X92000000Y-104750000D02*
X92000000Y-106750000D01*
X92400000Y-105650000D02*
X92400000Y-105500000D01*
X93850000Y-105500000D02*
X92400000Y-105500000D01*
X94200000Y-106750000D02*
X94200000Y-104750000D01*
%TO.C,D14*%
X93850000Y-85250000D02*
X92450000Y-85250000D01*
X92400000Y-85250000D02*
X92400000Y-85100000D01*
X94200000Y-86350000D02*
X94200000Y-84350000D01*
D21*
X94250000Y-84050000D02*
X94238000Y-84050000D01*
D20*
X93850000Y-85100000D02*
X92400000Y-85100000D01*
X92000000Y-84350000D02*
X92000000Y-86350000D01*
X92450000Y-85250000D02*
X92400000Y-85250000D01*
X93850000Y-85100000D02*
X93850000Y-85250000D01*
%TO.C,D15*%
X97750000Y-92250000D02*
X97800000Y-92250000D01*
X97800000Y-92250000D02*
X97800000Y-92400000D01*
X96350000Y-92400000D02*
X96350000Y-92250000D01*
X96350000Y-92250000D02*
X97750000Y-92250000D01*
X98200000Y-93150000D02*
X98200000Y-91150000D01*
X96350000Y-92400000D02*
X97800000Y-92400000D01*
X96000000Y-91150000D02*
X96000000Y-93150000D01*
D21*
X95950000Y-93450000D02*
X95962000Y-93450000D01*
D17*
%TO.C,C13*%
X129587836Y-78060000D02*
X129372164Y-78060000D01*
X129587836Y-77340000D02*
X129372164Y-77340000D01*
%TO.C,U2*%
X152490000Y-108660000D02*
X155940000Y-108660000D01*
X152490000Y-103540000D02*
X154440000Y-103540000D01*
X152490000Y-108660000D02*
X150540000Y-108660000D01*
X152490000Y-103540000D02*
X150540000Y-103540000D01*
%TO.C,R13*%
X147407500Y-106487258D02*
X147407500Y-106012742D01*
X148452500Y-106487258D02*
X148452500Y-106012742D01*
%TD*%
%LPC*%
D22*
%TO.C,C22*%
X146050000Y-108930000D03*
X147950000Y-108930000D03*
%TD*%
D23*
%TO.C,SW7*%
X155160000Y-96040000D03*
D24*
X152660000Y-92840000D03*
X150160000Y-96040000D03*
%TD*%
D25*
%TO.C,R16*%
X146330000Y-105465000D03*
X146330000Y-107115000D03*
%TD*%
D26*
%TO.C,SW8*%
X101850000Y-106350000D03*
X101850000Y-98350000D03*
X106350000Y-98350000D03*
X106350000Y-106350000D03*
%TD*%
D27*
%TO.C,C5*%
X95100000Y-106230000D03*
X95100000Y-105270000D03*
%TD*%
D28*
%TO.C,J7*%
X173950000Y-116450000D03*
D29*
X173950000Y-113950000D03*
X173950000Y-111450000D03*
%TD*%
D30*
%TO.C,LS1*%
X165190000Y-114050000D03*
X165190000Y-102850000D03*
%TD*%
D31*
%TO.C,U1*%
X127540000Y-79565000D03*
D32*
X130080000Y-79565000D03*
X132620000Y-79565000D03*
X135160000Y-79565000D03*
%TD*%
D33*
%TO.C,C16*%
X146730000Y-96680000D03*
X146730000Y-98580000D03*
%TD*%
D34*
%TO.C,R12*%
X158010000Y-106595000D03*
X158010000Y-104945000D03*
%TD*%
D35*
%TO.C,D3*%
X96550000Y-82865000D03*
X97650000Y-82865000D03*
X97650000Y-81035000D03*
X96550000Y-81035000D03*
%TD*%
D28*
%TO.C,J6*%
X173950000Y-103450000D03*
D29*
X173950000Y-100950000D03*
X173950000Y-98450000D03*
%TD*%
D36*
%TO.C,R5*%
X145130000Y-95950000D03*
X145130000Y-94930000D03*
%TD*%
D27*
%TO.C,C3*%
X95100000Y-109630000D03*
X95100000Y-108670000D03*
%TD*%
D37*
%TO.C,R4*%
X106840000Y-79850000D03*
X105820000Y-79850000D03*
%TD*%
D26*
%TO.C,SW4*%
X129100000Y-107330000D03*
X129100000Y-115330000D03*
X133600000Y-115330000D03*
X133600000Y-107330000D03*
%TD*%
D35*
%TO.C,D18*%
X93650000Y-81035000D03*
X92550000Y-81035000D03*
X92550000Y-82865000D03*
X93650000Y-82865000D03*
%TD*%
D36*
%TO.C,R7*%
X82850000Y-95960000D03*
X82850000Y-94940000D03*
%TD*%
D38*
%TO.C,C14*%
X141830000Y-115580000D03*
X140870000Y-115580000D03*
%TD*%
D39*
%TO.C,SW2*%
X113810000Y-80920000D03*
D24*
X113810000Y-83460000D03*
X113810000Y-86000000D03*
%TD*%
D35*
%TO.C,D16*%
X96550000Y-110065000D03*
X97650000Y-110065000D03*
X97650000Y-108235000D03*
X96550000Y-108235000D03*
%TD*%
D40*
%TO.C,JP1*%
X155225000Y-102030000D03*
D41*
X153775000Y-102030000D03*
%TD*%
D42*
%TO.C,C20*%
X103620000Y-117400000D03*
X104580000Y-117400000D03*
%TD*%
D35*
%TO.C,D8*%
X96550000Y-103265000D03*
X97650000Y-103265000D03*
X97650000Y-101435000D03*
X96550000Y-101435000D03*
%TD*%
D43*
%TO.C,H4*%
X147430000Y-111430000D03*
%TD*%
D33*
%TO.C,C21*%
X153710000Y-109650000D03*
X153710000Y-111550000D03*
%TD*%
D36*
%TO.C,R6*%
X145140000Y-98890000D03*
X145140000Y-97870000D03*
%TD*%
D34*
%TO.C,R11*%
X157030000Y-109635000D03*
X157030000Y-107985000D03*
%TD*%
D44*
%TO.C,C19*%
X152019999Y-102260000D03*
X150119999Y-102260000D03*
%TD*%
D27*
%TO.C,C7*%
X95100000Y-102830000D03*
X95100000Y-101870000D03*
%TD*%
D35*
%TO.C,D10*%
X93650000Y-87835000D03*
X92550000Y-87835000D03*
X92550000Y-89665000D03*
X93650000Y-89665000D03*
%TD*%
D36*
%TO.C,R8*%
X82850000Y-91960000D03*
X82850000Y-90940000D03*
%TD*%
D35*
%TO.C,D19*%
X96550000Y-96465000D03*
X97650000Y-96465000D03*
X97650000Y-94635000D03*
X96550000Y-94635000D03*
%TD*%
D38*
%TO.C,C12*%
X131830000Y-115580000D03*
X130870000Y-115580000D03*
%TD*%
D45*
%TO.C,J2*%
X107000000Y-122300000D03*
D46*
X109500000Y-122300000D03*
X112000000Y-122300000D03*
%TD*%
D26*
%TO.C,SW11*%
X101850000Y-117200000D03*
X101850000Y-109200000D03*
X106350000Y-117200000D03*
X106350000Y-109200000D03*
%TD*%
D47*
%TO.C,J8*%
X152850000Y-119580000D03*
X147850000Y-119580000D03*
D48*
X148100000Y-115580000D03*
D49*
X152600000Y-115580000D03*
X153250000Y-123080000D03*
X147450000Y-123080000D03*
%TD*%
D27*
%TO.C,C1*%
X95100000Y-113030000D03*
X95100000Y-112070000D03*
%TD*%
D25*
%TO.C,R15*%
X155490000Y-109565000D03*
X155490000Y-111215000D03*
%TD*%
D33*
%TO.C,C15*%
X146740000Y-93170000D03*
X146740000Y-95070000D03*
%TD*%
D50*
%TO.C,D22*%
X105455000Y-81250000D03*
X107205000Y-81250000D03*
%TD*%
D45*
%TO.C,J3*%
X120400000Y-122300000D03*
D46*
X122900000Y-122300000D03*
X125400000Y-122300000D03*
%TD*%
D51*
%TO.C,R3*%
X102220000Y-79850000D03*
X103240000Y-79850000D03*
%TD*%
D27*
%TO.C,C10*%
X95100000Y-82430000D03*
X95100000Y-81470000D03*
%TD*%
D36*
%TO.C,R9*%
X156740000Y-105730000D03*
X156740000Y-104710000D03*
%TD*%
D27*
%TO.C,C2*%
X95100000Y-96030000D03*
X95100000Y-95070000D03*
%TD*%
D52*
%TO.C,RV1*%
X163553950Y-94190000D03*
X165350000Y-92393950D03*
X167146050Y-94190000D03*
%TD*%
D35*
%TO.C,D11*%
X96550000Y-89665000D03*
X97650000Y-89665000D03*
X97650000Y-87835000D03*
X96550000Y-87835000D03*
%TD*%
%TO.C,D2*%
X93650000Y-94635000D03*
X92550000Y-94635000D03*
X92550000Y-96465000D03*
X93650000Y-96465000D03*
%TD*%
D53*
%TO.C,R2*%
X135150000Y-75287500D03*
X135150000Y-77112500D03*
%TD*%
D26*
%TO.C,SW6*%
X139100000Y-115330000D03*
X139100000Y-107330000D03*
X143600000Y-107330000D03*
X143600000Y-115330000D03*
%TD*%
D35*
%TO.C,D12*%
X96550000Y-106665000D03*
X97650000Y-106665000D03*
X97650000Y-104835000D03*
X96550000Y-104835000D03*
%TD*%
%TO.C,D17*%
X93650000Y-98035000D03*
X92550000Y-98035000D03*
X92550000Y-99865000D03*
X93650000Y-99865000D03*
%TD*%
%TO.C,D13*%
X93650000Y-101435000D03*
X92550000Y-101435000D03*
X92550000Y-103265000D03*
X93650000Y-103265000D03*
%TD*%
D27*
%TO.C,C6*%
X95100000Y-89230000D03*
X95100000Y-88270000D03*
%TD*%
D35*
%TO.C,D6*%
X93650000Y-91235000D03*
X92550000Y-91235000D03*
X92550000Y-93065000D03*
X93650000Y-93065000D03*
%TD*%
%TO.C,D4*%
X96550000Y-99865000D03*
X97650000Y-99865000D03*
X97650000Y-98035000D03*
X96550000Y-98035000D03*
%TD*%
D42*
%TO.C,C17*%
X103620000Y-106550000D03*
X104580000Y-106550000D03*
%TD*%
D54*
%TO.C,Q1*%
X84150000Y-96387500D03*
X86050000Y-96387500D03*
X85100000Y-94512500D03*
%TD*%
D26*
%TO.C,SW3*%
X119100000Y-107330000D03*
X119100000Y-115330000D03*
X123600000Y-107330000D03*
X123600000Y-115330000D03*
%TD*%
D36*
%TO.C,R17*%
X158310000Y-114030000D03*
X158310000Y-113010000D03*
%TD*%
D35*
%TO.C,D7*%
X96550000Y-86265000D03*
X97650000Y-86265000D03*
X97650000Y-84435000D03*
X96550000Y-84435000D03*
%TD*%
D33*
%TO.C,C18*%
X157240000Y-101530000D03*
X157240000Y-103430000D03*
%TD*%
D34*
%TO.C,R14*%
X146870000Y-103975000D03*
X146870000Y-102325000D03*
%TD*%
D28*
%TO.C,J5*%
X173950000Y-90450000D03*
D29*
X173950000Y-87950000D03*
X173950000Y-85450000D03*
%TD*%
D55*
%TO.C,D21*%
X103605000Y-81250000D03*
X101855000Y-81250000D03*
%TD*%
D56*
%TO.C,J1*%
X88750000Y-83700000D03*
D29*
X88750000Y-86200000D03*
%TD*%
D57*
%TO.C,Q2*%
X89800000Y-90250000D03*
X87900000Y-90250000D03*
X88850000Y-92650000D03*
%TD*%
D27*
%TO.C,C8*%
X95100000Y-85830000D03*
X95100000Y-84870000D03*
%TD*%
%TO.C,C4*%
X95100000Y-92630000D03*
X95100000Y-91670000D03*
%TD*%
D45*
%TO.C,J4*%
X133900000Y-122300000D03*
D46*
X136400000Y-122300000D03*
X138900000Y-122300000D03*
%TD*%
D27*
%TO.C,C9*%
X95100000Y-99430000D03*
X95100000Y-98470000D03*
%TD*%
D35*
%TO.C,D5*%
X93650000Y-108235000D03*
X92550000Y-108235000D03*
X92550000Y-110065000D03*
X93650000Y-110065000D03*
%TD*%
D58*
%TO.C,SW1*%
X100770000Y-84725000D03*
D59*
X100770000Y-87265000D03*
X100770000Y-89805000D03*
X100770000Y-92345000D03*
X100770000Y-94885000D03*
X108390000Y-94885000D03*
X108390000Y-92345000D03*
X108390000Y-89805000D03*
X108390000Y-87265000D03*
X108390000Y-84725000D03*
%TD*%
D54*
%TO.C,Q3*%
X84150000Y-92387500D03*
X86050000Y-92387500D03*
X85100000Y-90512500D03*
%TD*%
D35*
%TO.C,D20*%
X96550000Y-113465000D03*
X97650000Y-113465000D03*
X97650000Y-111635000D03*
X96550000Y-111635000D03*
%TD*%
D60*
%TO.C,R10*%
X148160000Y-103160000D03*
X148160000Y-104180000D03*
%TD*%
D35*
%TO.C,D1*%
X93650000Y-111635000D03*
X92550000Y-111635000D03*
X92550000Y-113465000D03*
X93650000Y-113465000D03*
%TD*%
D26*
%TO.C,SW10*%
X110350000Y-111200000D03*
X110350000Y-119200000D03*
X114850000Y-119200000D03*
X114850000Y-111200000D03*
%TD*%
D51*
%TO.C,R18*%
X149210000Y-109380000D03*
X150230000Y-109380000D03*
%TD*%
D38*
%TO.C,C11*%
X121830000Y-115580000D03*
X120870000Y-115580000D03*
%TD*%
D53*
%TO.C,R1*%
X132750000Y-75287500D03*
X132750000Y-77112500D03*
%TD*%
D39*
%TO.C,SW5*%
X113810000Y-91549000D03*
D24*
X113810000Y-94089000D03*
X113810000Y-96629000D03*
%TD*%
D26*
%TO.C,SW9*%
X110350000Y-100450000D03*
X110350000Y-108450000D03*
X114850000Y-100450000D03*
X114850000Y-108450000D03*
%TD*%
D35*
%TO.C,D9*%
X93650000Y-104835000D03*
X92550000Y-104835000D03*
X92550000Y-106665000D03*
X93650000Y-106665000D03*
%TD*%
%TO.C,D14*%
X93650000Y-84435000D03*
X92550000Y-84435000D03*
X92550000Y-86265000D03*
X93650000Y-86265000D03*
%TD*%
%TO.C,D15*%
X96550000Y-93065000D03*
X97650000Y-93065000D03*
X97650000Y-91235000D03*
X96550000Y-91235000D03*
%TD*%
D38*
%TO.C,C13*%
X129960000Y-77700000D03*
X129000000Y-77700000D03*
%TD*%
D61*
%TO.C,U2*%
X155115000Y-108005000D03*
X155115000Y-106735000D03*
X155115000Y-105465000D03*
X155115000Y-104195000D03*
X149865000Y-104195000D03*
X149865000Y-105465000D03*
X149865000Y-106735000D03*
X149865000Y-108005000D03*
%TD*%
D34*
%TO.C,R13*%
X147930000Y-107075000D03*
X147930000Y-105425000D03*
%TD*%
D62*
%TO.C,J10*%
X169350000Y-85950000D03*
D63*
X166810000Y-85950000D03*
X164270000Y-85950000D03*
X161730000Y-85950000D03*
X159190000Y-85950000D03*
X156650000Y-85950000D03*
X154110000Y-85950000D03*
X151570000Y-85950000D03*
X149030000Y-85950000D03*
X146490000Y-85950000D03*
X143950000Y-85950000D03*
X141410000Y-85950000D03*
%TD*%
D62*
%TO.C,J9*%
X169350000Y-81950000D03*
D63*
X166810000Y-81950000D03*
X164270000Y-81950000D03*
X161730000Y-81950000D03*
X159190000Y-81950000D03*
X156650000Y-81950000D03*
X154110000Y-81950000D03*
X151570000Y-81950000D03*
X149030000Y-81950000D03*
X146490000Y-81950000D03*
X143950000Y-81950000D03*
X141410000Y-81950000D03*
%TD*%
D62*
%TO.C,J11*%
X169350000Y-117950000D03*
D63*
X166810000Y-117950000D03*
X164270000Y-117950000D03*
X161730000Y-117950000D03*
X159190000Y-117950000D03*
X156650000Y-117950000D03*
X154110000Y-117950000D03*
X151570000Y-117950000D03*
X149030000Y-117950000D03*
X146490000Y-117950000D03*
X143950000Y-117950000D03*
X141410000Y-117950000D03*
%TD*%
M02*
