M48
; DRILL file {KiCad (6.0.11)} date Thu Feb 29 08:25:03 2024
; FORMAT={-:-/ absolute / inch / decimal}
; #@! TF.CreationDate,2024-02-29T08:25:03+09:00
; #@! TF.GenerationSoftware,Kicad,Pcbnew,(6.0.11)
; #@! TF.FileFunction,Plated,1,2,PTH
FMAT,2
INCH
; #@! TA.AperFunction,Plated,PTH,ViaDrill
T1C0.0118
; #@! TA.AperFunction,Plated,PTH,ViaDrill
T2C0.0157
; #@! TA.AperFunction,Plated,PTH,ViaDrill
T3C0.0236
; #@! TA.AperFunction,Plated,PTH,ComponentDrill
T4C0.0256
; #@! TA.AperFunction,Plated,PTH,ComponentDrill
T5C0.0315
; #@! TA.AperFunction,Plated,PTH,ComponentDrill
T6C0.0335
; #@! TA.AperFunction,Plated,PTH,ComponentDrill
T7C0.0394
; #@! TA.AperFunction,Plated,PTH,ComponentDrill
T8C0.0472
%
G90
G05
T1
X3.2346Y-3.8
X3.2358Y-3.6307
X3.2358Y-3.7008
X3.2685Y-3.6713
X3.3059Y-3.5406
X3.3898Y-3.5709
X3.6209Y-3.465
X3.6213Y-3.3535
X3.6224Y-3.3028
X3.6224Y-3.5717
X3.6232Y-3.1878
X3.6248Y-3.4362
X3.6461Y-3.2185
X3.6535Y-3.3539
X3.6963Y-3.212
X3.7213Y-3.1819
X3.8075Y-4.4933
X3.8315Y-4.3016
X3.8335Y-4.1713
X3.8335Y-3.2147
X3.8339Y-3.9024
X3.8358Y-3.7689
X3.8362Y-4.0382
X3.837Y-3.3657
X3.839Y-3.635
X3.8402Y-3.5024
X3.8815Y-5.0831
X4.0803Y-5.0827
X4.2181Y-3.0406
X4.2751Y-5.0827
X4.3035Y-2.9524
X4.3835Y-4.5083
X4.4492Y-5.0811
X4.4827Y-4.9087
X4.6055Y-4.9091
X4.6649Y-5.0811
X4.6713Y-5.0106
X4.689Y-4.2272
X4.689Y-4.5406
X4.7067Y-3.9945
X4.7516Y-4.9091
X4.8676Y-5.0811
X4.8717Y-4.9087
X4.9012Y-4.4035
X4.902Y-4.1268
X4.9024Y-4.2882
X4.9031Y-4.1673
X4.9409Y-5.0114
X4.9945Y-4.9094
X5.0742Y-5.0811
X5.0827Y-4.2197
X5.0827Y-4.5406
X5.1039Y-4.9091
X5.2047Y-4.9094
X5.2382Y-3.411
X5.2575Y-5.0079
X5.2874Y-3.4665
X5.2886Y-5.0811
X5.3453Y-3.5205
X5.35Y-3.2516
X5.3823Y-3.2669
X5.386Y-2.9212
X5.3886Y-3.3102
X5.4018Y-3.5754
X5.4094Y-4.2256
X5.4094Y-4.5208
X5.4141Y-2.9425
X5.4287Y-3.3138
X5.4362Y-3.3693
X5.4598Y-3.7862
X5.4724Y-3.363
X5.4898Y-3.4213
X5.4959Y-3.7547
X5.5067Y-4.7016
X5.5122Y-5.0811
X5.5165Y-4.7591
X5.5168Y-3.4003
X5.5204Y-3.7256
X5.6287Y-3.6531
X5.6772Y-3.7031
X5.6862Y-3.5953
X5.6939Y-3.5522
X5.6953Y-4.2909
X5.7138Y-4.235
X5.715Y-4.1811
X5.726Y-3.65
X5.7393Y-3.5975
X5.7457Y-3.6283
X5.7496Y-3.926
X5.7681Y-3.5268
X5.774Y-3.9457
X5.7907Y-5.0811
X5.7921Y-3.9701
X5.8508Y-3.4909
X5.8646Y-4.8866
X5.8657Y-3.7327
X5.8661Y-3.8929
X5.924Y-3.4913
X5.9398Y-3.965
X6.0035Y-3.2803
X6.0211Y-3.3553
X6.0211Y-3.4116
X6.0211Y-3.4923
X6.0528Y-3.028
X6.0563Y-3.2972
X6.0669Y-4.0913
X6.076Y-2.9921
X6.1106Y-3.4854
X6.1138Y-2.9921
X6.1161Y-3.2972
X6.1382Y-4.0669
X6.2484Y-3.1661
X6.3051Y-3.1098
X6.3087Y-4.3327
X6.3559Y-3.1618
X6.3587Y-3.324
X6.3598Y-4.385
X6.3819Y-3.0925
X6.4126Y-4.437
X6.4134Y-3.4791
X6.4433Y-3.4476
X6.45Y-3.1626
X6.5299Y-4.5528
T2
X3.2421Y-3.5217
X3.2437Y-3.9146
X3.2437Y-4.3122
X3.2496Y-4.1173
X3.2618Y-2.9508
X3.2618Y-3.2067
X3.2618Y-4.5256
X3.2618Y-4.7224
X3.2618Y-4.9193
X3.3012Y-2.8524
X3.3012Y-3.0492
X3.3012Y-4.8209
X3.3012Y-5.0177
X3.3465Y-3.3575
X3.3492Y-3.8488
X3.3996Y-2.813
X3.3996Y-3.0886
X3.3996Y-4.7815
X3.3996Y-5.0571
X3.4406Y-3.7752
X3.4587Y-3.9154
X3.4587Y-4.5256
X3.4587Y-4.7224
X3.498Y-2.8524
X3.498Y-3.0492
X3.498Y-4.8209
X3.498Y-5.0177
X3.5177Y-3.187
X3.5374Y-2.9508
X3.5374Y-5.0768
X3.5799Y-4.7882
X3.5835Y-4.5969
X3.585Y-3.6748
X3.5858Y-4.9937
X3.5972Y-3.7492
X3.6004Y-4.4075
X3.6028Y-3.8654
X3.6028Y-4.1315
X3.6035Y-3.9984
X3.6035Y-4.2657
X3.6949Y-2.7933
X3.702Y-2.9402
X3.7091Y-4.6516
X3.7248Y-3.3346
X3.7248Y-3.461
X3.7252Y-3.5945
X3.7252Y-3.8634
X3.7252Y-3.9921
X3.7252Y-4.2673
X3.7252Y-4.4079
X3.7252Y-4.9508
X3.7256Y-3.7311
X3.7256Y-4.1295
X3.7256Y-4.522
X3.7343Y-3.0492
X3.8272Y-4.65
X3.8425Y-2.9311
X3.8567Y-4.5394
X3.8705Y-4.8524
X3.872Y-5.0067
X3.874Y-3.3957
X3.8748Y-3.5272
X3.8752Y-3.2591
X3.876Y-3.6657
X3.876Y-3.7941
X3.876Y-4.0634
X3.8776Y-4.4496
X3.8787Y-4.1945
X3.8815Y-4.3291
X3.8819Y-3.9287
X3.8835Y-3.1406
X3.9079Y-3.5854
X3.9197Y-3.8587
X3.9236Y-4.1319
X3.9433Y-4.6224
X3.9535Y-4.3858
X3.9669Y-3.0638
X3.9705Y-2.7933
X3.9823Y-3.2602
X4.0004Y-4.998
X4.0039Y-4.6122
X4.0087Y-4.8307
X4.0098Y-4.2992
X4.0291Y-3.774
X4.0413Y-3.3787
X4.0504Y-3.0803
X4.0575Y-4.489
X4.061Y-4.6803
X4.0673Y-3.9303
X4.0709Y-4.128
X4.0709Y-4.5614
X4.0791Y-2.9465
X4.0961Y-3.6177
X4.0996Y-3.4386
X4.111Y-3.8591
X4.115Y-3.2417
X4.1165Y-4.2378
X4.1173Y-3.1524
X4.1583Y-4.5437
X4.1752Y-4.0177
X4.1791Y-4.9996
X4.1953Y-3.8744
X4.1961Y-4.6728
X4.1996Y-2.9394
X4.2024Y-3.7205
X4.2051Y-3.587
X4.2051Y-4.3189
X4.2098Y-3.487
X4.2118Y-3.3862
X4.237Y-4.9146
X4.2535Y-3.263
X4.2563Y-3.1169
X4.2713Y-4.6598
X4.2795Y-3.9445
X4.2807Y-4.1929
X4.2819Y-4.4063
X4.2846Y-2.7913
X4.3205Y-3.3846
X4.324Y-3.4866
X4.3252Y-3.5843
X4.3268Y-3.7768
X4.3276Y-4.9154
X4.3433Y-4.6654
X4.3453Y-3.6547
X4.3465Y-4.3846
X4.3571Y-4.7673
X4.3945Y-2.9768
X4.4059Y-3.8142
X4.4189Y-3.2315
X4.4189Y-5.0071
X4.4209Y-3.3366
X4.422Y-3.752
X4.4232Y-3.6547
X4.4512Y-4.5551
X4.452Y-3.448
X4.4583Y-4.663
X4.4807Y-3.5295
X4.4827Y-4.7551
X4.4846Y-4.8165
X4.4862Y-3.0437
X4.511Y-4.2795
X4.5118Y-4.1996
X4.5122Y-3.9098
X4.5138Y-4.0709
X4.5323Y-3.335
X4.5394Y-3.239
X4.5433Y-3.8386
X4.5437Y-3.1354
X4.5472Y-3.6618
X4.5714Y-2.7914
X4.5846Y-4.7185
X4.5862Y-4.4008
X4.5866Y-4.2248
X4.6173Y-4.8189
X4.6354Y-3.3642
X4.6386Y-3.9421
X4.6409Y-3.789
X4.6409Y-4.402
X4.6417Y-4.1575
X4.6425Y-4.0713
X4.6457Y-4.3004
X4.6571Y-2.9823
X4.6642Y-3.628
X4.6803Y-3.4913
X4.7161Y-3.8622
X4.7299Y-4.3988
X4.7339Y-4.2917
X4.7402Y-4.0913
X4.7465Y-3.0606
X4.7705Y-3.9311
X4.7846Y-3.2339
X4.7972Y-4.2161
X4.802Y-3.615
X4.8106Y-4.348
X4.8114Y-4.402
X4.8173Y-4.1126
X4.8193Y-4.7134
X4.8209Y-3.1406
X4.837Y-3.4642
X4.8382Y-3.7445
X4.8394Y-3.9854
X4.85Y-3.3228
X4.8614Y-4.5421
X4.8614Y-4.6712
X4.8661Y-4.2256
X4.8713Y-4.7496
X4.8762Y-2.7914
X4.8874Y-4.035
X4.8906Y-3.928
X4.8961Y-3.8067
X4.9335Y-2.9984
X4.9343Y-3.2185
X4.9677Y-3.6138
X4.9795Y-4.4016
X4.9807Y-4.137
X4.9839Y-3.4358
X4.9839Y-4.0413
X4.9839Y-4.2937
X4.987Y-3.9516
X5.0071Y-4.6846
X5.0106Y-4.8217
X5.0126Y-4.2177
X5.0264Y-3.785
X5.0311Y-3.6685
X5.0339Y-3.2583
X5.0366Y-3.9012
X5.0366Y-4.0382
X5.0398Y-4.1378
X5.0406Y-4.2949
X5.0417Y-4.4028
X5.0823Y-3.4969
X5.1268Y-4.1606
X5.1295Y-4.3949
X5.1299Y-4.2929
X5.1303Y-3.9161
X5.1319Y-2.9772
X5.1496Y-4.8232
X5.1531Y-3.6575
X5.1555Y-3.5461
X5.1555Y-3.7693
X5.161Y-4.6882
X5.1634Y-4.0374
X5.1677Y-3.2618
X5.1717Y-3.1878
X5.172Y-2.7914
X5.1974Y-3.3133
X5.1976Y-4.2287
X5.2094Y-4.4016
X5.2098Y-4.2886
X5.2201Y-3.3591
X5.2268Y-3.8528
X5.2346Y-4.135
X5.2488Y-3.5618
X5.2598Y-4.2256
X5.2598Y-4.5406
X5.2669Y-3.1835
X5.2748Y-3.6492
X5.2799Y-4.0374
X5.2843Y-3.298
X5.2866Y-3.4146
X5.3059Y-4.6886
X5.3075Y-4.3961
X5.3091Y-3.9634
X5.3094Y-3.826
X5.3098Y-4.2909
X5.311Y-4.1551
X5.3114Y-3.7382
X5.3382Y-3.4717
X5.3402Y-3.3606
X5.3579Y-4.9126
X5.3781Y-3.1632
X5.3858Y-3.2141
X5.3949Y-3.4157
X5.3949Y-3.528
X5.4047Y-3.1244
X5.4311Y-2.9894
X5.4483Y-2.7909
X5.45Y-3.4677
X5.4516Y-3.6008
X5.4591Y-4.0409
X5.4606Y-3.9382
X5.4626Y-3.0197
X5.463Y-3.8382
X5.4634Y-4.1449
X5.4634Y-4.4012
X5.4646Y-4.2933
X5.5118Y-5.0035
X5.5138Y-3.5386
X5.515Y-4.9161
X5.5457Y-2.8701
X5.5563Y-4.7378
X5.5654Y-3.9382
X5.5661Y-3.8244
X5.5673Y-4.061
X5.5701Y-3.7102
X5.5724Y-4.2201
X5.5776Y-3.474
X5.5811Y-4.3945
X5.5846Y-4.3067
X5.6012Y-4.8417
X5.6142Y-3.8713
X5.6209Y-3.3335
X5.6272Y-3.761
X5.6331Y-3.976
X5.6496Y-4.1496
X5.6531Y-4.2256
X5.6535Y-4.5406
X5.6539Y-4.0689
X5.6579Y-4.9264
X5.6661Y-3.8012
X5.6685Y-2.9996
X5.6724Y-3.313
X5.715Y-4.3961
X5.7173Y-2.8693
X5.7185Y-2.7965
X5.7248Y-4.8409
X5.728Y-4.0598
X5.7331Y-4.7307
X5.7339Y-4.3559
X5.7386Y-3.898
X5.7394Y-5.0039
X5.7539Y-3.002
X5.7756Y-3.9118
X5.819Y-3.9357
X5.8234Y-3.7002
X5.8303Y-3.5468
X5.8343Y-3.9984
X5.8642Y-4.0614
X5.8643Y-4.0283
X5.8661Y-4.7382
X5.8772Y-3.6083
X5.8772Y-4.3898
X5.8839Y-2.8705
X5.8913Y-4.9823
X5.9028Y-4.3591
X5.9154Y-4.6972
X5.9161Y-3.5669
X5.9256Y-3.6543
X5.9295Y-3.3228
X5.935Y-4.3063
X5.9417Y-4.4
X5.9437Y-4.2516
X5.9472Y-5.0693
X5.9547Y-2.7957
X5.9551Y-4.4874
X5.9594Y-3.8535
X5.9657Y-4.8933
X5.9748Y-4.739
X5.976Y-3.7512
X5.9921Y-4.1311
X5.9921Y-4.2748
X5.9937Y-4.2161
X6.011Y-3.9134
X6.0185Y-3.5717
X6.0323Y-4.1866
X6.0354Y-3.7488
X6.037Y-4.4508
X6.0398Y-4.2551
X6.0421Y-3.148
X6.0776Y-3.9476
X6.0803Y-3.8528
X6.0815Y-4.9228
X6.0831Y-5.0657
X6.0957Y-4.7874
X6.1122Y-3.561
X6.1134Y-3.6551
X6.1213Y-3.1551
X6.1244Y-4.5315
X6.1476Y-3.4567
X6.1528Y-4.4264
X6.1756Y-3.7504
X6.178Y-3.9378
X6.2031Y-3.0142
X6.2051Y-2.7906
X6.2181Y-4.5835
X6.2228Y-3.4409
X6.239Y-3.648
X6.2406Y-3.5618
X6.2563Y-4.3984
X6.2579Y-4.0728
X6.2622Y-3.9673
X6.2681Y-4.5421
X6.2689Y-3.8555
X6.2929Y-3.476
X6.2996Y-4.4406
X6.3217Y-4.1366
X6.3236Y-4.5835
X6.3343Y-4.2394
X6.3417Y-3.7524
X6.3654Y-3.652
X6.3693Y-3.5661
X6.3835Y-3.45
X6.3969Y-3.9157
X6.4043Y-3.0154
X6.4043Y-4.05
X6.4071Y-3.8067
X6.4079Y-4.552
X6.4094Y-4.3173
X6.4281Y-2.7914
X6.4394Y-3.3008
X6.4559Y-4.1728
X6.4843Y-3.5398
X6.4945Y-3.0169
X6.5047Y-4.0287
X6.5114Y-3.7063
X6.5185Y-4.4177
X6.5461Y-4.2795
X6.5484Y-3.0992
X6.5602Y-3.1551
X6.5606Y-3.5453
X6.5634Y-3.8039
X6.5677Y-3.4598
X6.5736Y-3.9059
X6.5776Y-3.637
X6.5854Y-3.3039
X6.6102Y-4.1429
X6.6248Y-4.4488
X6.626Y-4.5382
X6.628Y-2.7933
X6.6362Y-3.1528
X6.6406Y-3.7386
X6.6642Y-3.848
X6.6654Y-3.628
X6.6661Y-3.4591
X6.6693Y-4.015
X6.6697Y-3.3071
X6.6728Y-4.2783
X6.7087Y-2.8862
X6.7264Y-4.5846
X6.7276Y-3.4496
X6.7382Y-4.1579
X6.7406Y-3.252
X6.7409Y-3.5429
X6.7461Y-4.6831
X6.7516Y-3.7031
X6.7606Y-4.4031
X6.772Y-3.863
X6.7756Y-4.5256
X6.7819Y-3.4102
X6.7858Y-3.9157
X6.7906Y-3.315
X6.7921Y-2.7988
X6.8051Y-2.9508
X6.8406Y-3.7984
X6.8445Y-2.8524
X6.8535Y-3.6972
X6.8535Y-4.1906
X6.8539Y-4.3165
X6.8594Y-4.7189
X6.8638Y-4.8567
X6.8642Y-3.0295
X6.8642Y-5.0177
X6.9429Y-2.813
X6.9429Y-3.0886
X6.9429Y-4.7815
X6.9429Y-5.0571
X6.9724Y-4.5748
X6.9748Y-4.672
X7.0413Y-2.8524
X7.0413Y-3.0492
X7.0413Y-4.8209
X7.0413Y-5.0177
X7.0583Y-3.1512
X7.0807Y-2.9508
X7.0807Y-3.2657
X7.0807Y-3.5413
X7.0807Y-3.8169
X7.0807Y-4.0728
X7.0807Y-4.3484
X7.0807Y-4.5256
X7.0807Y-4.9193
X7.0906Y-4.6831
T3
X5.4677Y-3.6838
X5.6409Y-3.5103
X6.166Y-4.3592
X6.1933Y-4.3898
T4
X4.4807Y-3.1858
X4.4807Y-3.2858
X4.4807Y-3.3858
X4.4807Y-3.6043
X4.4807Y-3.7043
X4.4807Y-3.8043
X5.9118Y-3.7811
X6.0102Y-3.6551
X6.1087Y-3.7811
T5
X3.9673Y-3.3356
X3.9673Y-3.4356
X3.9673Y-3.5356
X3.9673Y-3.6356
X3.9673Y-3.7356
X4.2673Y-3.3356
X4.2673Y-3.4356
X4.2673Y-3.5356
X4.2673Y-3.6356
X4.2673Y-3.7356
X6.4391Y-3.7083
X6.5098Y-3.6376
X6.5806Y-3.7083
T6
X3.4941Y-3.2953
X3.4941Y-3.3937
X4.2126Y-4.815
X4.311Y-4.815
X4.4094Y-4.815
X4.7402Y-4.815
X4.8386Y-4.815
X4.937Y-4.815
X5.2717Y-4.815
X5.3701Y-4.815
X5.4685Y-4.815
X6.8484Y-3.3642
X6.8484Y-3.4626
X6.8484Y-3.561
X6.8484Y-3.876
X6.8484Y-3.9744
X6.8484Y-4.0728
X6.8484Y-4.3878
X6.8484Y-4.4862
X6.8484Y-4.5846
T7
X5.0213Y-3.1325
X5.1213Y-3.1325
X5.2213Y-3.1325
X5.3213Y-3.1325
X5.5673Y-3.2264
X5.5673Y-3.3839
X5.5673Y-4.6437
X5.6673Y-3.2264
X5.6673Y-3.3839
X5.6673Y-4.6437
X5.7673Y-3.2264
X5.7673Y-3.3839
X5.7673Y-4.6437
X5.8673Y-3.2264
X5.8673Y-3.3839
X5.8673Y-4.6437
X5.9673Y-3.2264
X5.9673Y-3.3839
X5.9673Y-4.6437
X6.0673Y-3.2264
X6.0673Y-3.3839
X6.0673Y-4.6437
X6.1673Y-3.2264
X6.1673Y-3.3839
X6.1673Y-4.6437
X6.2673Y-3.2264
X6.2673Y-3.3839
X6.2673Y-4.6437
X6.3673Y-3.2264
X6.3673Y-3.3839
X6.3673Y-4.6437
X6.4673Y-3.2264
X6.4673Y-3.3839
X6.4673Y-4.6437
X6.5673Y-3.2264
X6.5673Y-3.3839
X6.5673Y-4.6437
X6.6673Y-3.2264
X6.6673Y-3.3839
X6.6673Y-4.6437
T8
X5.8051Y-4.8457
X5.8307Y-4.5504
X6.0079Y-4.5504
X6.0335Y-4.8457
T0
M30
