%TF.GenerationSoftware,KiCad,Pcbnew,(6.0.11)*%
%TF.CreationDate,2024-02-29T08:25:03+09:00*%
%TF.ProjectId,Mother_UI,4d6f7468-6572-45f5-9549-2e6b69636164,rev?*%
%TF.SameCoordinates,Original*%
%TF.FileFunction,Legend,Bot*%
%TF.FilePolarity,Positive*%
%FSLAX46Y46*%
G04 Gerber Fmt 4.6, Leading zero omitted, Abs format (unit mm)*
G04 Created by KiCad (PCBNEW (6.0.11)) date 2024-02-29 08:25:03*
%MOMM*%
%LPD*%
G01*
G04 APERTURE LIST*
G04 Aperture macros list*
%AMRoundRect*
0 Rectangle with rounded corners*
0 $1 Rounding radius*
0 $2 $3 $4 $5 $6 $7 $8 $9 X,Y pos of 4 corners*
0 Add a 4 corners polygon primitive as box body*
4,1,4,$2,$3,$4,$5,$6,$7,$8,$9,$2,$3,0*
0 Add four circle primitives for the rounded corners*
1,1,$1+$1,$2,$3*
1,1,$1+$1,$4,$5*
1,1,$1+$1,$6,$7*
1,1,$1+$1,$8,$9*
0 Add four rect primitives between the rounded corners*
20,1,$1+$1,$2,$3,$4,$5,0*
20,1,$1+$1,$4,$5,$6,$7,0*
20,1,$1+$1,$6,$7,$8,$9,0*
20,1,$1+$1,$8,$9,$2,$3,0*%
G04 Aperture macros list end*
%ADD10C,0.120000*%
%ADD11RoundRect,0.381000X-0.381000X0.381000X-0.381000X-0.381000X0.381000X-0.381000X0.381000X0.381000X0*%
%ADD12C,1.524000*%
%ADD13RoundRect,0.250000X0.675000X-0.600000X0.675000X0.600000X-0.675000X0.600000X-0.675000X-0.600000X0*%
%ADD14O,1.850000X1.700000*%
%ADD15RoundRect,0.425000X-0.425000X-0.425000X0.425000X-0.425000X0.425000X0.425000X-0.425000X0.425000X0*%
%ADD16C,1.700000*%
%ADD17RoundRect,0.381000X-0.381000X-0.381000X0.381000X-0.381000X0.381000X0.381000X-0.381000X0.381000X0*%
%ADD18RoundRect,0.250000X-0.600000X-0.675000X0.600000X-0.675000X0.600000X0.675000X-0.600000X0.675000X0*%
%ADD19O,1.700000X1.850000*%
%ADD20C,1.000000*%
%ADD21R,1.900000X1.900000*%
%ADD22C,1.900000*%
%ADD23C,1.440000*%
%ADD24RoundRect,0.250000X-0.675000X0.600000X-0.675000X-0.600000X0.675000X-0.600000X0.675000X0.600000X0*%
%ADD25R,1.600000X1.600000*%
%ADD26O,1.600000X1.600000*%
%ADD27R,1.700000X1.700000*%
%ADD28O,1.700000X1.700000*%
%ADD29R,1.500000X1.500000*%
G04 APERTURE END LIST*
D10*
%TO.C,J10*%
X170680000Y-87280000D02*
X170680000Y-85950000D01*
X168080000Y-87280000D02*
X140080000Y-87280000D01*
X169350000Y-87280000D02*
X170680000Y-87280000D01*
X140080000Y-87280000D02*
X140080000Y-84620000D01*
X168080000Y-84620000D02*
X140080000Y-84620000D01*
X168080000Y-87280000D02*
X168080000Y-84620000D01*
%TO.C,H6*%
X124480000Y-118820000D02*
X124480000Y-120720000D01*
X124480000Y-120720000D02*
X126380000Y-120720000D01*
X126380000Y-120720000D02*
X126380000Y-118820000D01*
X126380000Y-118820000D02*
X124480000Y-118820000D01*
%TO.C,H3*%
X111350000Y-116200000D02*
X109450000Y-116200000D01*
X109450000Y-116200000D02*
X109450000Y-118100000D01*
X109450000Y-118100000D02*
X111350000Y-118100000D01*
X111350000Y-118100000D02*
X111350000Y-116200000D01*
%TO.C,H5*%
X112950000Y-118850000D02*
X111050000Y-118850000D01*
X111050000Y-120750000D02*
X112950000Y-120750000D01*
X112950000Y-120750000D02*
X112950000Y-118850000D01*
X111050000Y-118850000D02*
X111050000Y-120750000D01*
%TO.C,H7*%
X137320000Y-118490000D02*
X137320000Y-120390000D01*
X137320000Y-120390000D02*
X139220000Y-120390000D01*
X139220000Y-118490000D02*
X137320000Y-118490000D01*
X139220000Y-120390000D02*
X139220000Y-118490000D01*
%TO.C,H2*%
X102650000Y-116200000D02*
X100750000Y-116200000D01*
X100750000Y-116200000D02*
X100750000Y-118100000D01*
X102650000Y-118100000D02*
X102650000Y-116200000D01*
X100750000Y-118100000D02*
X102650000Y-118100000D01*
%TO.C,J9*%
X169350000Y-83280000D02*
X170680000Y-83280000D01*
X168080000Y-83280000D02*
X168080000Y-80620000D01*
X140080000Y-83280000D02*
X140080000Y-80620000D01*
X170680000Y-83280000D02*
X170680000Y-81950000D01*
X168080000Y-83280000D02*
X140080000Y-83280000D01*
X168080000Y-80620000D02*
X140080000Y-80620000D01*
%TO.C,J11*%
X168080000Y-116620000D02*
X140080000Y-116620000D01*
X168080000Y-119280000D02*
X168080000Y-116620000D01*
X169350000Y-119280000D02*
X170680000Y-119280000D01*
X168080000Y-119280000D02*
X140080000Y-119280000D01*
X170680000Y-119280000D02*
X170680000Y-117950000D01*
X140080000Y-119280000D02*
X140080000Y-116620000D01*
%TO.C,H1*%
X97650000Y-114700000D02*
X97650000Y-112800000D01*
X95750000Y-112800000D02*
X95750000Y-114700000D01*
X95750000Y-114700000D02*
X97650000Y-114700000D01*
X97650000Y-112800000D02*
X95750000Y-112800000D01*
%TD*%
%LPC*%
D11*
%TO.C,SW7*%
X155160000Y-96040000D03*
D12*
X152660000Y-92840000D03*
X150160000Y-96040000D03*
%TD*%
D13*
%TO.C,J7*%
X173950000Y-116450000D03*
D14*
X173950000Y-113950000D03*
X173950000Y-111450000D03*
%TD*%
D15*
%TO.C,U1*%
X127540000Y-79565000D03*
D16*
X130080000Y-79565000D03*
X132620000Y-79565000D03*
X135160000Y-79565000D03*
%TD*%
D13*
%TO.C,J6*%
X173950000Y-103450000D03*
D14*
X173950000Y-100950000D03*
X173950000Y-98450000D03*
%TD*%
D17*
%TO.C,SW2*%
X113810000Y-80920000D03*
D12*
X113810000Y-83460000D03*
X113810000Y-86000000D03*
%TD*%
D18*
%TO.C,J2*%
X107000000Y-122300000D03*
D19*
X109500000Y-122300000D03*
X112000000Y-122300000D03*
%TD*%
D20*
%TO.C,J8*%
X152850000Y-119580000D03*
X147850000Y-119580000D03*
D21*
X148100000Y-115580000D03*
D22*
X152600000Y-115580000D03*
X153250000Y-123080000D03*
X147450000Y-123080000D03*
%TD*%
D18*
%TO.C,J3*%
X120400000Y-122300000D03*
D19*
X122900000Y-122300000D03*
X125400000Y-122300000D03*
%TD*%
D23*
%TO.C,RV1*%
X163553950Y-94190000D03*
X165350000Y-92393950D03*
X167146050Y-94190000D03*
%TD*%
D13*
%TO.C,J5*%
X173950000Y-90450000D03*
D14*
X173950000Y-87950000D03*
X173950000Y-85450000D03*
%TD*%
D24*
%TO.C,J1*%
X88750000Y-83700000D03*
D14*
X88750000Y-86200000D03*
%TD*%
D18*
%TO.C,J4*%
X133900000Y-122300000D03*
D19*
X136400000Y-122300000D03*
X138900000Y-122300000D03*
%TD*%
D25*
%TO.C,SW1*%
X100770000Y-84725000D03*
D26*
X100770000Y-87265000D03*
X100770000Y-89805000D03*
X100770000Y-92345000D03*
X100770000Y-94885000D03*
X108390000Y-94885000D03*
X108390000Y-92345000D03*
X108390000Y-89805000D03*
X108390000Y-87265000D03*
X108390000Y-84725000D03*
%TD*%
D17*
%TO.C,SW5*%
X113810000Y-91549000D03*
D12*
X113810000Y-94089000D03*
X113810000Y-96629000D03*
%TD*%
D27*
%TO.C,J10*%
X169350000Y-85950000D03*
D28*
X166810000Y-85950000D03*
X164270000Y-85950000D03*
X161730000Y-85950000D03*
X159190000Y-85950000D03*
X156650000Y-85950000D03*
X154110000Y-85950000D03*
X151570000Y-85950000D03*
X149030000Y-85950000D03*
X146490000Y-85950000D03*
X143950000Y-85950000D03*
X141410000Y-85950000D03*
%TD*%
D29*
%TO.C,H6*%
X125430000Y-119770000D03*
%TD*%
%TO.C,H3*%
X110400000Y-117150000D03*
%TD*%
%TO.C,H5*%
X112000000Y-119800000D03*
%TD*%
%TO.C,H7*%
X138270000Y-119440000D03*
%TD*%
%TO.C,H2*%
X101700000Y-117150000D03*
%TD*%
D27*
%TO.C,J9*%
X169350000Y-81950000D03*
D28*
X166810000Y-81950000D03*
X164270000Y-81950000D03*
X161730000Y-81950000D03*
X159190000Y-81950000D03*
X156650000Y-81950000D03*
X154110000Y-81950000D03*
X151570000Y-81950000D03*
X149030000Y-81950000D03*
X146490000Y-81950000D03*
X143950000Y-81950000D03*
X141410000Y-81950000D03*
%TD*%
D27*
%TO.C,J11*%
X169350000Y-117950000D03*
D28*
X166810000Y-117950000D03*
X164270000Y-117950000D03*
X161730000Y-117950000D03*
X159190000Y-117950000D03*
X156650000Y-117950000D03*
X154110000Y-117950000D03*
X151570000Y-117950000D03*
X149030000Y-117950000D03*
X146490000Y-117950000D03*
X143950000Y-117950000D03*
X141410000Y-117950000D03*
%TD*%
D29*
%TO.C,H1*%
X96700000Y-113750000D03*
%TD*%
M02*
