0
SECTION
2
HEADER
9
$INSUNITS
70
4
9
$ACADVER
1
AC1014
9
$HANDSEED
5
FFFF
0
ENDSEC
0
SECTION
2
TABLES
0
TABLE
2
VPORT
5
8
100
AcDbSymbolTable
0
ENDTAB
0
TABLE
2
LTYPE
5
5
100
AcDbSymbolTable
0
LTYPE
5
14
100
AcDbSymbolTableRecord
100
AcDbLinetypeTableRecord
2
BYBLOCK
70
0
0
LTYPE
5
15
100
AcDbSymbolTableRecord
100
AcDbLinetypeTableRecord
2
BYLAYER
70
0
0
ENDTAB
0
TABLE
2
LAYER
5
2
100
AcDbSymbolTable
70
2
0
LAYER
5
50
100
AcDbSymbolTableRecord
100
AcDbLayerTableRecord
2
0
70
0
6
CONTINUOUS
0
ENDTAB
0
TABLE
2
STYLE
5
3
100
AcDbSymbolTable
70
1
0
STYLE
5
11
100
AcDbSymbolTableRecord
100
AcDbTextStyleTableRecord
2
STANDARD
70
0
0
ENDTAB
0
TABLE
2
VIEW
5
6
100
AcDbSymbolTable
70
0
0
ENDTAB
0
TABLE
2
UCS
5
7
100
AcDbSymbolTable
70
0
0
ENDTAB
0
TABLE
2
APPID
5
9
100
AcDbSymbolTable
70
2
0
APPID
5
12
100
AcDbSymbolTableRecord
100
AcDbRegAppTableRecord
2
ACAD
70
0
0
ENDTAB
0
TABLE
2
DIMSTYLE
5
A
100
AcDbSymbolTable
70
1
0
ENDTAB
0
TABLE
2
BLOCK_RECORD
5
1
100
AcDbSymbolTable
70
1
0
BLOCK_RECORD
5
1F
100
AcDbSymbolTableRecord
100
AcDbBlockTableRecord
2
*MODEL_SPACE
0
BLOCK_RECORD
5
1B
100
AcDbSymbolTableRecord
100
AcDbBlockTableRecord
2
*PAPER_SPACE
0
ENDTAB
0
ENDSEC
0
SECTION
2
BLOCKS
0
BLOCK
5
20
100
AcDbEntity
100
AcDbBlockBegin
2
*MODEL_SPACE
0
ENDBLK
5
21
100
AcDbEntity
100
AcDbBlockEnd
0
BLOCK
5
1C
100
AcDbEntity
100
AcDbBlockBegin
2
*PAPER_SPACE
0
ENDBLK
5
1D
100
AcDbEntity
100
AcDbBlockEnd
0
ENDSEC
0
SECTION
2
ENTITIES
0
CIRCLE
5
100
100
AcDbEntity
8
0
100
AcDbCircle
10
0
20
0
30
0
40
48.000000000000007
210
0
220
0
230
1
0
LWPOLYLINE
5
101
100
AcDbEntity
8
0
100
AcDbPolyline
90
12
70
1
43
0.0
10
33.000000491738319
20
4.5
10
37.732611889451817
20
4.5000000000000009
42
0.50075193786540062
10
-14.96919162769592
20
34.927400447404018
10
-12.602885928712164
20
30.828838750524369
42
-1.0000001092469626
10
-20.39711456289913
20
26.328838750744357
10
-22.763420261755876
20
30.427400447404025
42
0.50075193786540073
10
-22.763420261755883
20
-30.427400447404004
10
-20.397114562772124
20
-26.328838750524355
42
-1.0000001092469626
10
-12.602885928839193
20
-30.828838750744346
10
-14.969191627695944
20
-34.927400447404011
42
0.50075193786540084
10
37.73261188945181
20
-4.5
10
33.000000489195067
20
-4.5
42
-1.0000001089926034
0
LINE
5
102
100
AcDbEntity
8
0
100
AcDbLine
10
-40.975602497095764
20
25
30
0
11
-87
21
25
31
0
0
LINE
5
103
100
AcDbEntity
8
0
100
AcDbLine
10
-90
20
22
30
0
11
-90
21
-22
31
0
0
LINE
5
104
100
AcDbEntity
8
0
100
AcDbLine
10
-87
20
-25
30
0
11
-40.975602497095764
21
-25
31
0
0
CIRCLE
5
105
100
AcDbEntity
8
0
100
AcDbCircle
10
33
20
0
30
0
40
1.6999999999999993
210
0
220
0
230
1
0
CIRCLE
5
106
100
AcDbEntity
8
0
100
AcDbCircle
10
-16.499999999999993
20
28.578838324886483
30
0
40
1.6999999999999993
210
0
220
0
230
1
0
CIRCLE
5
107
100
AcDbEntity
8
0
100
AcDbCircle
10
-16.500000000000007
20
-28.578838324886469
30
0
40
1.6999999999999993
210
0
220
0
230
1
0
CIRCLE
5
108
100
AcDbEntity
8
0
100
AcDbCircle
10
-85.000001266598701
20
20.000000298023224
30
0
40
1.6999999999999993
210
0
220
0
230
1
0
CIRCLE
5
109
100
AcDbEntity
8
0
100
AcDbCircle
10
-85.000001266598701
20
-20.000000298023224
30
0
40
1.6999999999999993
210
0
220
0
230
1
0
LINE
5
110
100
AcDbEntity
8
0
100
AcDbLine
10
0
20
0
30
0
11
-38
21
0
31
0
0
CIRCLE
5
111
100
AcDbEntity
8
0
100
AcDbCircle
10
-85.000001266598701
20
20.000000298023224
30
0
40
3.0000000447034836
210
0
220
0
230
1
0
CIRCLE
5
112
100
AcDbEntity
8
0
100
AcDbCircle
10
-85.000001266598701
20
-20.000000298023224
30
0
40
3.0000000447034836
210
0
220
0
230
1
0
CIRCLE
5
113
100
AcDbEntity
8
0
100
AcDbCircle
10
33
20
0
30
0
40
3.0000000000000018
210
0
220
0
230
1
0
CIRCLE
5
114
100
AcDbEntity
8
0
100
AcDbCircle
10
-16.499999999999993
20
28.578838324886483
30
0
40
3.0000000000000018
210
0
220
0
230
1
0
CIRCLE
5
115
100
AcDbEntity
8
0
100
AcDbCircle
10
-16.500000000000007
20
-28.578838324886469
30
0
40
3.0000000000000018
210
0
220
0
230
1
0
CIRCLE
5
116
100
AcDbEntity
8
0
100
AcDbCircle
10
-85.000001266598701
20
20.000000298023224
30
0
40
4.4999999999999929
210
0
220
0
230
1
0
CIRCLE
5
117
100
AcDbEntity
8
0
100
AcDbCircle
10
-85.000001266598701
20
-20.000000298023224
30
0
40
4.4999999999999929
210
0
220
0
230
1
0
ARC
5
118
100
AcDbEntity
8
0
100
AcDbCircle
10
-86.999999999999972
20
21.999999999999975
30
0
40
3.0000000000000249
210
0
220
0
230
1
100
AcDbArc
50
90.00000000000054
51
180
0
ARC
5
119
100
AcDbEntity
8
0
100
AcDbCircle
10
-86.999999999999972
20
-21.999999999999975
30
0
40
3.0000000000000249
210
0
220
0
230
1
100
AcDbArc
50
180
51
269.99999999999943
0
LINE
5
120
100
AcDbEntity
8
0
100
AcDbLine
10
0
20
0
30
0
11
-48.000000715255737
21
0
31
0
0
LINE
5
121
100
AcDbEntity
8
0
100
AcDbLine
10
-47.872225768184215
20
3.5000000000000004
30
0
11
-42.000000715255737
21
3.5000000000000004
31
0
0
LINE
5
122
100
AcDbEntity
8
0
100
AcDbLine
10
-42.000000715255737
20
3.5000000000000004
30
0
11
-42.000000715255737
21
-3.5000000000000004
31
0
0
LINE
5
123
100
AcDbEntity
8
0
100
AcDbLine
10
-42.000000715255737
20
-3.5000000000000004
30
0
11
-47.872225768184215
21
-3.5000000000000004
31
0
0
LINE
5
124
100
AcDbEntity
8
0
100
AcDbLine
10
0
20
0
30
0
11
-47.077693459355068
21
9.3643354567741568
31
0
0
LINE
5
125
100
AcDbEntity
8
0
100
AcDbLine
10
0
20
0
30
0
11
-48.000000000000007
21
0
31
0
0
LINE
5
126
100
AcDbEntity
8
0
100
AcDbLine
10
-46.526071083893314
20
11.803588839692264
30
0
11
-38.743685411088904
21
10.255576081653208
31
0
0
LINE
5
127
100
AcDbEntity
8
0
100
AcDbLine
10
-38.743685411088904
20
10.255576081653208
30
0
11
-39.719137021169544
21
5.3516496796370561
31
0
0
LINE
5
128
100
AcDbEntity
8
0
100
AcDbLine
10
-39.719137021169544
20
5.3516496796370561
30
0
11
-47.501522693973953
21
6.8996624376761098
31
0
0
LINE
5
129
100
AcDbEntity
8
0
100
AcDbLine
10
-40.142333039561997
20
-12.839126069260786
30
0
11
-37.463549013006372
21
-19.306282796839795
31
0
0
LINE
5
130
100
AcDbEntity
8
0
100
AcDbLine
10
-37.463549013006372
20
-19.306282796839795
30
0
11
-42.888777549706987
21
-21.553486035714734
31
0
0
LINE
5
131
100
AcDbEntity
8
0
100
AcDbLine
10
-45.567561576262619
20
-15.086329308135724
30
0
11
-40.142333039561997
21
-12.839126069260786
31
0
0
LINE
5
132
100
AcDbEntity
8
0
100
AcDbLine
10
-38.743685411088904
20
-10.255576081653206
30
0
11
-46.526071083893299
21
-11.803588839692267
31
0
0
LINE
5
133
100
AcDbEntity
8
0
100
AcDbLine
10
-39.719137021169544
20
-5.3516496796370552
30
0
11
-38.743685411088904
21
-10.255576081653206
31
0
0
LINE
5
134
100
AcDbEntity
8
0
100
AcDbLine
10
-47.501522693973953
20
-6.8996624376761151
30
0
11
-39.719137021169544
21
-5.3516496796370552
31
0
0
LINE
5
135
100
AcDbEntity
8
0
100
AcDbLine
10
-32.173359049750097
20
-27.223611581444267
30
0
11
-27.223611581444263
21
-32.173359049750097
31
0
0
LINE
5
136
100
AcDbEntity
8
0
100
AcDbLine
10
-27.223611581444263
20
-32.173359049750097
30
0
11
-31.375901737023518
21
-36.325649205329356
31
0
0
LINE
5
137
100
AcDbEntity
8
0
100
AcDbLine
10
-36.325649205329348
20
-31.375901737023526
30
0
11
-32.173359049750097
21
-27.223611581444267
31
0
0
LINE
5
138
100
AcDbEntity
8
0
100
AcDbLine
10
-31.869858909552807
20
-24.301483351540458
30
0
11
-38.467446911174541
21
-28.709850716016781
31
0
0
LINE
5
139
100
AcDbEntity
8
0
100
AcDbLine
10
-34.647710074650824
20
-20.144135290027734
30
0
11
-31.869858909552807
21
-24.301483351540458
31
0
0
LINE
5
140
100
AcDbEntity
8
0
100
AcDbLine
10
-41.245298076272547
20
-24.552502654504053
30
0
11
-34.647710074650824
21
-20.144135290027734
31
0
0
LINE
5
141
100
AcDbEntity
8
0
100
AcDbLine
10
-19.306282796839799
20
-37.463549013006364
30
0
11
-12.839126069260791
21
-40.142333039561997
31
0
0
LINE
5
142
100
AcDbEntity
8
0
100
AcDbLine
10
-12.839126069260791
20
-40.142333039561997
30
0
11
-15.086329308135733
21
-45.567561576262619
31
0
0
LINE
5
143
100
AcDbEntity
8
0
100
AcDbLine
10
-21.553486035714737
20
-42.888777549706987
30
0
11
-19.306282796839799
21
-37.463549013006364
31
0
0
LINE
5
144
100
AcDbEntity
8
0
100
AcDbLine
10
-20.14413529002773
20
-34.647710074650817
30
0
11
-24.552502654504046
21
-41.245298076272555
31
0
0
LINE
5
145
100
AcDbEntity
8
0
100
AcDbLine
10
-24.301483351540458
20
-31.869858909552807
30
0
11
-20.14413529002773
21
-34.647710074650817
31
0
0
LINE
5
146
100
AcDbEntity
8
0
100
AcDbLine
10
-28.709850716016774
20
-38.467446911174541
30
0
11
-24.301483351540458
21
-31.869858909552807
31
0
0
LINE
5
147
100
AcDbEntity
8
0
100
AcDbLine
10
-3.4999999999999916
20
-42.000000715255752
30
0
11
3.5000000000000102
21
-42.000000715255752
31
0
0
LINE
5
148
100
AcDbEntity
8
0
100
AcDbLine
10
3.5000000000000102
20
-42.000000715255752
30
0
11
3.5000000000000115
21
-47.872225768184222
31
0
0
LINE
5
149
100
AcDbEntity
8
0
100
AcDbLine
10
-3.4999999999999902
20
-47.872225768184222
30
0
11
-3.4999999999999916
21
-42.000000715255752
31
0
0
LINE
5
150
100
AcDbEntity
8
0
100
AcDbLine
10
-5.3516496796370481
20
-39.719137021169558
30
0
11
-6.8996624376760991
21
-47.501522693973961
31
0
0
LINE
5
151
100
AcDbEntity
8
0
100
AcDbLine
10
-10.255576081653201
20
-38.743685411088919
30
0
11
-5.3516496796370481
21
-39.719137021169558
31
0
0
LINE
5
152
100
AcDbEntity
8
0
100
AcDbLine
10
-11.803588839692253
20
-46.526071083893321
30
0
11
-10.255576081653201
21
-38.743685411088919
31
0
0
LINE
5
153
100
AcDbEntity
8
0
100
AcDbLine
10
12.839126069260791
20
-40.142333039562004
30
0
11
19.306282796839799
21
-37.463549013006372
31
0
0
LINE
5
154
100
AcDbEntity
8
0
100
AcDbLine
10
19.306282796839799
20
-37.463549013006372
30
0
11
21.553486035714737
21
-42.888777549706994
31
0
0
LINE
5
155
100
AcDbEntity
8
0
100
AcDbLine
10
15.086329308135731
20
-45.567561576262634
30
0
11
12.839126069260791
21
-40.142333039562004
31
0
0
LINE
5
156
100
AcDbEntity
8
0
100
AcDbLine
10
10.255576081653208
20
-38.743685411088904
30
0
11
11.803588839692269
21
-46.526071083893314
31
0
0
LINE
5
157
100
AcDbEntity
8
0
100
AcDbLine
10
5.3516496796370578
20
-39.719137021169551
30
0
11
10.255576081653208
21
-38.743685411088904
31
0
0
LINE
5
158
100
AcDbEntity
8
0
100
AcDbLine
10
6.8996624376761169
20
-47.501522693973961
30
0
11
5.3516496796370578
21
-39.719137021169551
31
0
0
LINE
5
159
100
AcDbEntity
8
0
100
AcDbLine
10
27.223611581444263
20
-32.173359049750104
30
0
11
32.173359049750097
21
-27.223611581444271
31
0
0
LINE
5
160
100
AcDbEntity
8
0
100
AcDbLine
10
32.173359049750097
20
-27.223611581444271
30
0
11
36.325649205329348
21
-31.375901737023529
31
0
0
LINE
5
161
100
AcDbEntity
8
0
100
AcDbLine
10
31.375901737023518
20
-36.325649205329363
30
0
11
27.223611581444263
21
-32.173359049750104
31
0
0
LINE
5
162
100
AcDbEntity
8
0
100
AcDbLine
10
24.301483351540455
20
-31.869858909552814
30
0
11
28.709850716016774
21
-38.467446911174548
31
0
0
LINE
5
163
100
AcDbEntity
8
0
100
AcDbLine
10
20.14413529002773
20
-34.647710074650831
30
0
11
24.301483351540455
21
-31.869858909552814
31
0
0
LINE
5
164
100
AcDbEntity
8
0
100
AcDbLine
10
24.552502654504046
20
-41.245298076272555
30
0
11
20.14413529002773
21
-34.647710074650831
31
0
0
LINE
5
165
100
AcDbEntity
8
0
100
AcDbLine
10
37.463549013006372
20
-19.306282796839803
30
0
11
40.142333039561997
21
-12.839126069260793
31
0
0
LINE
5
166
100
AcDbEntity
8
0
100
AcDbLine
10
40.142333039561997
20
-12.839126069260793
30
0
11
45.567561576262619
21
-15.086329308135733
31
0
0
LINE
5
167
100
AcDbEntity
8
0
100
AcDbLine
10
42.888777549706987
20
-21.553486035714741
30
0
11
37.463549013006372
21
-19.306282796839803
31
0
0
LINE
5
168
100
AcDbEntity
8
0
100
AcDbLine
10
34.647710074650817
20
-20.144135290027734
30
0
11
41.245298076272547
21
-24.552502654504053
31
0
0
LINE
5
169
100
AcDbEntity
8
0
100
AcDbLine
10
31.869858909552811
20
-24.301483351540462
30
0
11
34.647710074650817
21
-20.144135290027734
31
0
0
LINE
5
170
100
AcDbEntity
8
0
100
AcDbLine
10
38.467446911174541
20
-28.709850716016774
30
0
11
31.869858909552811
21
-24.301483351540462
31
0
0
LINE
5
171
100
AcDbEntity
8
0
100
AcDbLine
10
42.000000715255737
20
-3.5000000000000053
30
0
11
42.000000715255737
21
3.4999999999999956
31
0
0
LINE
5
172
100
AcDbEntity
8
0
100
AcDbLine
10
42.000000715255737
20
3.4999999999999956
30
0
11
47.872225768184215
21
3.4999999999999942
31
0
0
LINE
5
173
100
AcDbEntity
8
0
100
AcDbLine
10
47.872225768184215
20
-3.5000000000000062
30
0
11
42.000000715255737
21
-3.5000000000000053
31
0
0
LINE
5
174
100
AcDbEntity
8
0
100
AcDbLine
10
39.719137021169544
20
-5.3516496796370605
30
0
11
47.501522693973953
21
-6.8996624376761151
31
0
0
LINE
5
175
100
AcDbEntity
8
0
100
AcDbLine
10
38.743685411088904
20
-10.255576081653214
30
0
11
39.719137021169544
21
-5.3516496796370605
31
0
0
LINE
5
176
100
AcDbEntity
8
0
100
AcDbLine
10
46.526071083893314
20
-11.803588839692269
30
0
11
38.743685411088904
21
-10.255576081653214
31
0
0
LINE
5
177
100
AcDbEntity
8
0
100
AcDbLine
10
40.142333039561997
20
12.839126069260782
30
0
11
37.463549013006372
21
19.306282796839792
31
0
0
LINE
5
178
100
AcDbEntity
8
0
100
AcDbLine
10
37.463549013006372
20
19.306282796839792
30
0
11
42.888777549706987
21
21.553486035714727
31
0
0
LINE
5
179
100
AcDbEntity
8
0
100
AcDbLine
10
45.567561576262619
20
15.086329308135721
30
0
11
40.142333039561997
21
12.839126069260782
31
0
0
LINE
5
180
100
AcDbEntity
8
0
100
AcDbLine
10
38.743685411088904
20
10.255576081653201
30
0
11
46.526071083893299
21
11.803588839692264
31
0
0
LINE
5
181
100
AcDbEntity
8
0
100
AcDbLine
10
39.719137021169544
20
5.3516496796370507
30
0
11
38.743685411088904
21
10.255576081653201
31
0
0
LINE
5
182
100
AcDbEntity
8
0
100
AcDbLine
10
47.501522693973953
20
6.899662437676108
30
0
11
39.719137021169544
21
5.3516496796370507
31
0
0
LINE
5
183
100
AcDbEntity
8
0
100
AcDbLine
10
32.173359049750097
20
27.223611581444263
30
0
11
27.223611581444263
21
32.173359049750097
31
0
0
LINE
5
184
100
AcDbEntity
8
0
100
AcDbLine
10
27.223611581444263
20
32.173359049750097
30
0
11
31.375901737023518
21
36.325649205329348
31
0
0
LINE
5
185
100
AcDbEntity
8
0
100
AcDbLine
10
36.325649205329348
20
31.375901737023518
30
0
11
32.173359049750097
21
27.223611581444263
31
0
0
LINE
5
186
100
AcDbEntity
8
0
100
AcDbLine
10
31.869858909552807
20
24.301483351540455
30
0
11
38.467446911174541
21
28.709850716016774
31
0
0
LINE
5
187
100
AcDbEntity
8
0
100
AcDbLine
10
34.647710074650824
20
20.14413529002773
30
0
11
31.869858909552807
21
24.301483351540455
31
0
0
LINE
5
188
100
AcDbEntity
8
0
100
AcDbLine
10
41.245298076272547
20
24.552502654504053
30
0
11
34.647710074650824
21
20.14413529002773
31
0
0
LINE
5
189
100
AcDbEntity
8
0
100
AcDbLine
10
19.306282796839806
20
37.463549013006357
30
0
11
12.839126069260802
21
40.14233303956199
31
0
0
LINE
5
190
100
AcDbEntity
8
0
100
AcDbLine
10
12.839126069260802
20
40.14233303956199
30
0
11
15.086329308135742
21
45.567561576262605
31
0
0
LINE
5
191
100
AcDbEntity
8
0
100
AcDbLine
10
21.553486035714748
20
42.888777549706973
30
0
11
19.306282796839806
21
37.463549013006357
31
0
0
LINE
5
192
100
AcDbEntity
8
0
100
AcDbLine
10
20.144135290027737
20
34.647710074650803
30
0
11
24.552502654504057
21
41.245298076272533
31
0
0
LINE
5
193
100
AcDbEntity
8
0
100
AcDbLine
10
24.301483351540469
20
31.869858909552793
30
0
11
20.144135290027737
21
34.647710074650803
31
0
0
LINE
5
194
100
AcDbEntity
8
0
100
AcDbLine
10
28.709850716016785
20
38.46744691117452
30
0
11
24.301483351540469
21
31.869858909552793
31
0
0
LINE
5
195
100
AcDbEntity
8
0
100
AcDbLine
10
3.5000000000000098
20
42.000000715255737
30
0
11
-3.4999999999999911
21
42.000000715255737
31
0
0
LINE
5
196
100
AcDbEntity
8
0
100
AcDbLine
10
-3.4999999999999911
20
42.000000715255737
30
0
11
-3.4999999999999898
21
47.872225768184215
31
0
0
LINE
5
197
100
AcDbEntity
8
0
100
AcDbLine
10
3.5000000000000107
20
47.872225768184215
30
0
11
3.5000000000000098
21
42.000000715255737
31
0
0
LINE
5
198
100
AcDbEntity
8
0
100
AcDbLine
10
5.3516496796370649
20
39.719137021169544
30
0
11
6.8996624376761204
21
47.501522693973953
31
0
0
LINE
5
199
100
AcDbEntity
8
0
100
AcDbLine
10
10.255576081653217
20
38.743685411088904
30
0
11
5.3516496796370649
21
39.719137021169544
31
0
0
LINE
5
200
100
AcDbEntity
8
0
100
AcDbLine
10
11.803588839692274
20
46.526071083893314
30
0
11
10.255576081653217
21
38.743685411088904
31
0
0
LINE
5
201
100
AcDbEntity
8
0
100
AcDbLine
10
-12.839126069260791
20
40.142333039562004
30
0
11
-19.306282796839799
21
37.463549013006372
31
0
0
LINE
5
202
100
AcDbEntity
8
0
100
AcDbLine
10
-19.306282796839799
20
37.463549013006372
30
0
11
-21.553486035714737
21
42.888777549706994
31
0
0
LINE
5
203
100
AcDbEntity
8
0
100
AcDbLine
10
-15.086329308135731
20
45.567561576262634
30
0
11
-12.839126069260791
21
40.142333039562004
31
0
0
LINE
5
204
100
AcDbEntity
8
0
100
AcDbLine
10
-10.255576081653208
20
38.743685411088904
30
0
11
-11.803588839692269
21
46.526071083893314
31
0
0
LINE
5
205
100
AcDbEntity
8
0
100
AcDbLine
10
-5.3516496796370578
20
39.719137021169551
30
0
11
-10.255576081653208
21
38.743685411088904
31
0
0
LINE
5
206
100
AcDbEntity
8
0
100
AcDbLine
10
-6.8996624376761169
20
47.501522693973961
30
0
11
-5.3516496796370578
21
39.719137021169551
31
0
0
LINE
5
207
100
AcDbEntity
8
0
100
AcDbLine
10
-27.22361158144426
20
32.173359049750104
30
0
11
-32.17335904975009
21
27.223611581444271
31
0
0
LINE
5
208
100
AcDbEntity
8
0
100
AcDbLine
10
-32.17335904975009
20
27.223611581444271
30
0
11
-36.325649205329341
21
31.375901737023529
31
0
0
LINE
5
209
100
AcDbEntity
8
0
100
AcDbLine
10
-31.375901737023511
20
36.325649205329363
30
0
11
-27.22361158144426
21
32.173359049750104
31
0
0
LINE
5
210
100
AcDbEntity
8
0
100
AcDbLine
10
-24.301483351540448
20
31.869858909552814
30
0
11
-28.709850716016767
21
38.467446911174548
31
0
0
LINE
5
211
100
AcDbEntity
8
0
100
AcDbLine
10
-20.144135290027727
20
34.647710074650824
30
0
11
-24.301483351540448
21
31.869858909552814
31
0
0
LINE
5
212
100
AcDbEntity
8
0
100
AcDbLine
10
-24.552502654504043
20
41.245298076272555
30
0
11
-20.144135290027727
21
34.647710074650824
31
0
0
LINE
5
213
100
AcDbEntity
8
0
100
AcDbLine
10
-37.463549013006357
20
19.306282796839824
30
0
11
-40.14233303956199
21
12.839126069260818
31
0
0
LINE
5
214
100
AcDbEntity
8
0
100
AcDbLine
10
-40.14233303956199
20
12.839126069260818
30
0
11
-45.567561576262612
21
15.08632930813576
31
0
0
LINE
5
215
100
AcDbEntity
8
0
100
AcDbLine
10
-42.88877754970698
20
21.553486035714769
30
0
11
-37.463549013006357
21
19.306282796839824
31
0
0
LINE
5
216
100
AcDbEntity
8
0
100
AcDbLine
10
-34.64771007465081
20
20.144135290027755
30
0
11
-41.24529807627254
21
24.552502654504078
31
0
0
LINE
5
217
100
AcDbEntity
8
0
100
AcDbLine
10
-31.869858909552793
20
24.30148335154048
30
0
11
-34.64771007465081
21
20.144135290027755
31
0
0
LINE
5
218
100
AcDbEntity
8
0
100
AcDbLine
10
-38.467446911174527
20
28.709850716016803
30
0
11
-31.869858909552793
21
24.30148335154048
31
0
0
ENDSEC
0
SECTION
2
OBJECTS
0
DICTIONARY
5
C
100
AcDbDictionary
3
ACAD_GROUP
350
D
3
ACAD_MLINESTYLE
350
17
0
DICTIONARY
5
D
100
AcDbDictionary
0
DICTIONARY
5
1A
330
C
100
AcDbDictionary
0
DICTIONARY
5
17
100
AcDbDictionary
0
ENDSEC
0
EOF
