0
SECTION
2
HEADER
9
$INSUNITS
70
4
9
$ACADVER
1
AC1014
9
$HANDSEED
5
FFFF
0
ENDSEC
0
SECTION
2
TABLES
0
TABLE
2
VPORT
5
8
100
AcDbSymbolTable
0
ENDTAB
0
TABLE
2
LTYPE
5
5
100
AcDbSymbolTable
0
LTYPE
5
14
100
AcDbSymbolTableRecord
100
AcDbLinetypeTableRecord
2
BYBLOCK
70
0
0
LTYPE
5
15
100
AcDbSymbolTableRecord
100
AcDbLinetypeTableRecord
2
BYLAYER
70
0
0
ENDTAB
0
TABLE
2
LAYER
5
2
100
AcDbSymbolTable
70
2
0
LAYER
5
50
100
AcDbSymbolTableRecord
100
AcDbLayerTableRecord
2
0
70
0
6
CONTINUOUS
0
ENDTAB
0
TABLE
2
STYLE
5
3
100
AcDbSymbolTable
70
1
0
STYLE
5
11
100
AcDbSymbolTableRecord
100
AcDbTextStyleTableRecord
2
STANDARD
70
0
0
ENDTAB
0
TABLE
2
VIEW
5
6
100
AcDbSymbolTable
70
0
0
ENDTAB
0
TABLE
2
UCS
5
7
100
AcDbSymbolTable
70
0
0
ENDTAB
0
TABLE
2
APPID
5
9
100
AcDbSymbolTable
70
2
0
APPID
5
12
100
AcDbSymbolTableRecord
100
AcDbRegAppTableRecord
2
ACAD
70
0
0
ENDTAB
0
TABLE
2
DIMSTYLE
5
A
100
AcDbSymbolTable
70
1
0
ENDTAB
0
TABLE
2
BLOCK_RECORD
5
1
100
AcDbSymbolTable
70
1
0
BLOCK_RECORD
5
1F
100
AcDbSymbolTableRecord
100
AcDbBlockTableRecord
2
*MODEL_SPACE
0
BLOCK_RECORD
5
1B
100
AcDbSymbolTableRecord
100
AcDbBlockTableRecord
2
*PAPER_SPACE
0
ENDTAB
0
ENDSEC
0
SECTION
2
BLOCKS
0
BLOCK
5
20
100
AcDbEntity
100
AcDbBlockBegin
2
*MODEL_SPACE
0
ENDBLK
5
21
100
AcDbEntity
100
AcDbBlockEnd
0
BLOCK
5
1C
100
AcDbEntity
100
AcDbBlockBegin
2
*PAPER_SPACE
0
ENDBLK
5
1D
100
AcDbEntity
100
AcDbBlockEnd
0
ENDSEC
0
SECTION
2
ENTITIES
0
CIRCLE
5
100
100
AcDbEntity
8
0
100
AcDbCircle
10
0
20
0
30
0
40
48.000000000000007
210
0
220
0
230
1
0
LINE
5
101
100
AcDbEntity
8
0
100
AcDbLine
10
-39
20
3.4999999999999987
30
0
11
-47.872225768184215
21
3.4999999999999987
31
0
0
LINE
5
102
100
AcDbEntity
8
0
100
AcDbLine
10
-47.872225768184215
20
-3.5000000000000027
30
0
11
-39
21
-3.5000000000000027
31
0
0
LINE
5
103
100
AcDbEntity
8
0
100
AcDbLine
10
-39
20
-3.5000000000000027
30
0
11
-39
21
3.4999999999999987
31
0
0
ARC
5
104
100
AcDbEntity
8
0
100
AcDbCircle
10
-45.116122898548603
20
8.9741548127419009
30
0
40
2.2499999999999938
210
0
220
0
230
1
100
AcDbArc
50
-163.34882559637123
51
140.8488255963714
0
ARC
5
105
100
AcDbEntity
8
0
100
AcDbCircle
10
-45.116122898548603
20
-8.9741548127419009
30
0
40
2.2499999999999902
210
0
220
0
230
1
100
AcDbArc
50
-140.84882559637131
51
163.34882559637123
0
LINE
5
106
100
AcDbEntity
8
0
100
AcDbLine
10
-37.370693781218002
20
-11.691075498448999
30
0
11
-45.567561576262619
21
-15.086329308135726
31
0
0
LINE
5
107
100
AcDbEntity
8
0
100
AcDbLine
10
-34.691909754662376
20
-18.158232226028009
30
0
11
-37.370693781218002
21
-11.691075498448999
31
0
0
LINE
5
108
100
AcDbEntity
8
0
100
AcDbLine
10
-42.888777549706987
20
-21.553486035714734
30
0
11
-34.691909754662376
21
-18.158232226028009
31
0
0
ARC
5
109
100
AcDbEntity
8
0
100
AcDbCircle
10
-38.24760216591708
20
-25.556230718901709
30
0
40
2.2499999999999947
210
0
220
0
230
1
100
AcDbArc
50
-118.34882559637134
51
185.84882559637123
0
LINE
5
110
100
AcDbEntity
8
0
100
AcDbLine
10
-30.052038200428267
20
-25.102290732122441
30
0
11
-36.325649205329348
21
-31.375901737023526
31
0
0
LINE
5
111
100
AcDbEntity
8
0
100
AcDbLine
10
-25.102290732122434
20
-30.052038200428271
30
0
11
-30.052038200428267
21
-25.102290732122441
31
0
0
LINE
5
112
100
AcDbEntity
8
0
100
AcDbLine
10
-31.375901737023515
20
-36.325649205329356
30
0
11
-25.102290732122434
21
-30.052038200428271
31
0
0
ARC
5
113
100
AcDbEntity
8
0
100
AcDbCircle
10
-25.556230718901706
20
-38.247602165917073
30
0
40
2.2500000000000009
210
0
220
0
230
1
100
AcDbArc
50
-95.848825596371199
51
208.34882559637131
0
LINE
5
114
100
AcDbEntity
8
0
100
AcDbLine
10
-18.158232226028009
20
-34.691909754662369
30
0
11
-21.553486035714737
21
-42.888777549706987
31
0
0
LINE
5
115
100
AcDbEntity
8
0
100
AcDbLine
10
-11.691075498449003
20
-37.370693781217994
30
0
11
-18.158232226028009
21
-34.691909754662369
31
0
0
LINE
5
116
100
AcDbEntity
8
0
100
AcDbLine
10
-15.086329308135728
20
-45.567561576262619
30
0
11
-11.691075498449003
21
-37.370693781217994
31
0
0
ARC
5
117
100
AcDbEntity
8
0
100
AcDbCircle
10
-8.974154812741892
20
-45.11612289854861
30
0
40
2.2499999999999938
210
0
220
0
230
1
100
AcDbArc
50
-73.348825596371341
51
230.84882559637134
0
LINE
5
118
100
AcDbEntity
8
0
100
AcDbLine
10
-3.4999999999999902
20
-39.000000000000014
30
0
11
-3.4999999999999885
21
-47.872225768184222
31
0
0
LINE
5
119
100
AcDbEntity
8
0
100
AcDbLine
10
3.500000000000012
20
-39.000000000000014
30
0
11
-3.4999999999999902
21
-39.000000000000014
31
0
0
LINE
5
120
100
AcDbEntity
8
0
100
AcDbLine
10
3.5000000000000138
20
-47.872225768184222
30
0
11
3.500000000000012
21
-39.000000000000014
31
0
0
ARC
5
121
100
AcDbEntity
8
0
100
AcDbCircle
10
8.9741548127419044
20
-45.116122898548603
30
0
40
2.2499999999999973
210
0
220
0
230
1
100
AcDbArc
50
-50.848825596371356
51
253.34882559637137
0
LINE
5
122
100
AcDbEntity
8
0
100
AcDbLine
10
11.691075498449004
20
-37.370693781218009
30
0
11
15.086329308135733
21
-45.567561576262634
31
0
0
LINE
5
123
100
AcDbEntity
8
0
100
AcDbLine
10
18.158232226028012
20
-34.691909754662376
30
0
11
11.691075498449004
21
-37.370693781218009
31
0
0
LINE
5
124
100
AcDbEntity
8
0
100
AcDbLine
10
21.553486035714741
20
-42.888777549706994
30
0
11
18.158232226028012
21
-34.691909754662376
31
0
0
ARC
5
125
100
AcDbEntity
8
0
100
AcDbCircle
10
25.556230718901702
20
-38.247602165917087
30
0
40
2.2499999999999947
210
0
220
0
230
1
100
AcDbArc
50
-28.348825596371384
51
275.84882559637128
0
LINE
5
126
100
AcDbEntity
8
0
100
AcDbLine
10
25.102290732122437
20
-30.052038200428278
30
0
11
31.375901737023518
21
-36.325649205329363
31
0
0
LINE
5
127
100
AcDbEntity
8
0
100
AcDbLine
10
30.052038200428271
20
-25.102290732122444
30
0
11
25.102290732122437
21
-30.052038200428278
31
0
0
LINE
5
128
100
AcDbEntity
8
0
100
AcDbLine
10
36.325649205329356
20
-31.375901737023529
30
0
11
30.052038200428271
21
-25.102290732122444
31
0
0
ARC
5
129
100
AcDbEntity
8
0
100
AcDbCircle
10
38.247602165917087
20
-25.556230718901709
30
0
40
2.249999999999992
210
0
220
0
230
1
100
AcDbArc
50
-5.8488255963712064
51
298.34882559637123
0
LINE
5
130
100
AcDbEntity
8
0
100
AcDbLine
10
34.691909754662376
20
-18.158232226028009
30
0
11
42.888777549706987
21
-21.553486035714737
31
0
0
LINE
5
131
100
AcDbEntity
8
0
100
AcDbLine
10
37.370693781218002
20
-11.691075498448999
30
0
11
34.691909754662376
21
-18.158232226028009
31
0
0
LINE
5
132
100
AcDbEntity
8
0
100
AcDbLine
10
45.567561576262619
20
-15.086329308135731
30
0
11
37.370693781218002
21
-11.691075498448999
31
0
0
ARC
5
133
100
AcDbEntity
8
0
100
AcDbCircle
10
45.116122898548603
20
-8.9741548127419062
30
0
40
2.2499999999999938
210
0
220
-0
230
1
100
AcDbArc
50
16.651174403628762
51
320.8488255963714
0
LINE
5
134
100
AcDbEntity
8
0
100
AcDbLine
10
39
20
-3.5000000000000036
30
0
11
47.872225768184215
21
-3.5000000000000049
31
0
0
LINE
5
135
100
AcDbEntity
8
0
100
AcDbLine
10
39
20
3.4999999999999973
30
0
11
39
21
-3.5000000000000036
31
0
0
LINE
5
136
100
AcDbEntity
8
0
100
AcDbLine
10
47.872225768184215
20
3.4999999999999964
30
0
11
39
21
3.4999999999999973
31
0
0
ARC
5
137
100
AcDbEntity
8
0
100
AcDbCircle
10
45.116122898548603
20
8.9741548127418937
30
0
40
2.2499999999999916
210
0
220
-0
230
1
100
AcDbArc
50
39.151174403628779
51
343.34882559637128
0
LINE
5
138
100
AcDbEntity
8
0
100
AcDbLine
10
37.370693781218002
20
11.691075498448996
30
0
11
45.567561576262612
21
15.086329308135722
31
0
0
LINE
5
139
100
AcDbEntity
8
0
100
AcDbLine
10
34.691909754662376
20
18.158232226028005
30
0
11
37.370693781218002
21
11.691075498448996
31
0
0
LINE
5
140
100
AcDbEntity
8
0
100
AcDbLine
10
42.888777549706987
20
21.553486035714727
30
0
11
34.691909754662376
21
18.158232226028005
31
0
0
ARC
5
141
100
AcDbEntity
8
0
100
AcDbCircle
10
38.24760216591708
20
25.556230718901706
30
0
40
2.2499999999999911
210
0
220
-0
230
1
100
AcDbArc
50
-298.34882559637146
51
5.8488255963712259
0
LINE
5
142
100
AcDbEntity
8
0
100
AcDbLine
10
30.052038200428267
20
25.102290732122437
30
0
11
36.325649205329348
21
31.375901737023518
31
0
0
LINE
5
143
100
AcDbEntity
8
0
100
AcDbLine
10
25.102290732122437
20
30.052038200428267
30
0
11
30.052038200428267
21
25.102290732122437
31
0
0
LINE
5
144
100
AcDbEntity
8
0
100
AcDbLine
10
31.375901737023518
20
36.325649205329348
30
0
11
25.102290732122437
21
30.052038200428267
31
0
0
ARC
5
145
100
AcDbEntity
8
0
100
AcDbCircle
10
25.556230718901713
20
38.247602165917066
30
0
40
2.249999999999992
210
0
220
-0
230
1
100
AcDbArc
50
-275.84882559637128
51
28.348825596371267
0
LINE
5
146
100
AcDbEntity
8
0
100
AcDbLine
10
18.158232226028016
20
34.691909754662362
30
0
11
21.553486035714748
21
42.888777549706973
31
0
0
LINE
5
147
100
AcDbEntity
8
0
100
AcDbLine
10
11.691075498449008
20
37.370693781217994
30
0
11
18.158232226028016
21
34.691909754662362
31
0
0
LINE
5
148
100
AcDbEntity
8
0
100
AcDbLine
10
15.08632930813574
20
45.567561576262605
30
0
11
11.691075498449008
21
37.370693781217994
31
0
0
ARC
5
149
100
AcDbEntity
8
0
100
AcDbCircle
10
8.9741548127419097
20
45.116122898548603
30
0
40
2.2499999999999938
210
0
220
0
230
1
100
AcDbArc
50
-253.34882559637128
51
50.848825596371334
0
LINE
5
150
100
AcDbEntity
8
0
100
AcDbLine
10
3.5000000000000075
20
39
30
0
11
3.5000000000000093
21
47.872225768184215
31
0
0
LINE
5
151
100
AcDbEntity
8
0
100
AcDbLine
10
-3.4999999999999938
20
39
30
0
11
3.5000000000000075
21
39
31
0
0
LINE
5
152
100
AcDbEntity
8
0
100
AcDbLine
10
-3.499999999999992
20
47.872225768184215
30
0
11
-3.4999999999999938
21
39
31
0
0
ARC
5
153
100
AcDbEntity
8
0
100
AcDbCircle
10
-8.9741548127419044
20
45.116122898548603
30
0
40
2.2499999999999973
210
0
220
0
230
1
100
AcDbArc
50
-230.84882559637134
51
73.34882559637137
0
LINE
5
154
100
AcDbEntity
8
0
100
AcDbLine
10
-11.691075498449004
20
37.370693781218009
30
0
11
-15.086329308135733
21
45.567561576262634
31
0
0
LINE
5
155
100
AcDbEntity
8
0
100
AcDbLine
10
-18.158232226028012
20
34.691909754662376
30
0
11
-11.691075498449004
21
37.370693781218009
31
0
0
LINE
5
156
100
AcDbEntity
8
0
100
AcDbLine
10
-21.553486035714741
20
42.888777549706994
30
0
11
-18.158232226028012
21
34.691909754662376
31
0
0
ARC
5
157
100
AcDbEntity
8
0
100
AcDbCircle
10
-25.556230718901702
20
38.247602165917087
30
0
40
2.2499999999999889
210
0
220
0
230
1
100
AcDbArc
50
-208.34882559637126
51
95.848825596371071
0
LINE
5
158
100
AcDbEntity
8
0
100
AcDbLine
10
-25.102290732122434
20
30.052038200428278
30
0
11
-31.375901737023511
21
36.325649205329363
31
0
0
LINE
5
159
100
AcDbEntity
8
0
100
AcDbLine
10
-30.052038200428267
20
25.102290732122444
30
0
11
-25.102290732122434
21
30.052038200428278
31
0
0
LINE
5
160
100
AcDbEntity
8
0
100
AcDbLine
10
-36.325649205329348
20
31.375901737023529
30
0
11
-30.052038200428267
21
25.102290732122444
31
0
0
ARC
5
161
100
AcDbEntity
8
0
100
AcDbCircle
10
-38.247602165917073
20
25.55623071890173
30
0
40
2.249999999999988
210
0
220
0
230
1
100
AcDbArc
50
-185.8488255963714
51
118.34882559637134
0
LINE
5
162
100
AcDbEntity
8
0
100
AcDbLine
10
-34.691909754662362
20
18.15823222602803
30
0
11
-42.88877754970698
21
21.553486035714762
31
0
0
LINE
5
163
100
AcDbEntity
8
0
100
AcDbLine
10
-37.370693781217994
20
11.691075498449024
30
0
11
-34.691909754662362
21
18.15823222602803
31
0
0
LINE
5
164
100
AcDbEntity
8
0
100
AcDbLine
10
-45.567561576262612
20
15.08632930813576
30
0
11
-37.370693781217994
21
11.691075498449024
31
0
0
LWPOLYLINE
5
165
100
AcDbEntity
8
0
100
AcDbPolyline
90
12
70
1
43
0.0
10
33.000000491738319
20
4.5
10
37.732611889451817
20
4.5000000000000009
42
0.50075193786540062
10
-14.96919162769592
20
34.927400447404018
10
-12.602885928712164
20
30.828838750524369
42
-1.0000001092469626
10
-20.39711456289913
20
26.328838750744357
10
-22.763420261755876
20
30.427400447404025
42
0.50075193786540073
10
-22.763420261755883
20
-30.427400447404004
10
-20.397114562772124
20
-26.328838750524355
42
-1.0000001092469626
10
-12.602885928839193
20
-30.828838750744346
10
-14.969191627695944
20
-34.927400447404011
42
0.50075193786540084
10
37.73261188945181
20
-4.5
10
33.000000489195067
20
-4.5
42
-1.0000001089926034
0
LINE
5
166
100
AcDbEntity
8
0
100
AcDbLine
10
-40.975602497095764
20
25
30
0
11
-90
21
25
31
0
0
LINE
5
167
100
AcDbEntity
8
0
100
AcDbLine
10
-90
20
25
30
0
11
-90
21
-25
31
0
0
LINE
5
168
100
AcDbEntity
8
0
100
AcDbLine
10
-90
20
-25
30
0
11
-40.975602497095764
21
-25
31
0
0
CIRCLE
5
169
100
AcDbEntity
8
0
100
AcDbCircle
10
33
20
0
30
0
40
1.6999999999999993
210
0
220
0
230
1
0
CIRCLE
5
170
100
AcDbEntity
8
0
100
AcDbCircle
10
-16.499999999999993
20
28.578838324886483
30
0
40
1.6999999999999993
210
0
220
0
230
1
0
CIRCLE
5
171
100
AcDbEntity
8
0
100
AcDbCircle
10
-16.500000000000007
20
-28.578838324886469
30
0
40
1.6999999999999993
210
0
220
0
230
1
0
CIRCLE
5
172
100
AcDbEntity
8
0
100
AcDbCircle
10
-85.000001266598701
20
20.000000298023224
30
0
40
1.6999999999999993
210
0
220
0
230
1
0
CIRCLE
5
173
100
AcDbEntity
8
0
100
AcDbCircle
10
-85.000001266598701
20
-20.000000298023224
30
0
40
1.6999999999999993
210
0
220
0
230
1
0
LINE
5
174
100
AcDbEntity
8
0
100
AcDbLine
10
0
20
0
30
0
11
-38
21
0
31
0
0
LINE
5
175
100
AcDbEntity
8
0
100
AcDbLine
10
-39
20
0
30
0
11
-46.000000000000007
21
0
31
0
0
ENDSEC
0
SECTION
2
OBJECTS
0
DICTIONARY
5
C
100
AcDbDictionary
3
ACAD_GROUP
350
D
3
ACAD_MLINESTYLE
350
17
0
DICTIONARY
5
D
100
AcDbDictionary
0
DICTIONARY
5
1A
330
C
100
AcDbDictionary
0
DICTIONARY
5
17
100
AcDbDictionary
0
ENDSEC
0
EOF
