0
SECTION
2
HEADER
9
$INSUNITS
70
4
9
$ACADVER
1
AC1014
9
$HANDSEED
5
FFFF
0
ENDSEC
0
SECTION
2
TABLES
0
TABLE
2
VPORT
5
8
100
AcDbSymbolTable
0
ENDTAB
0
TABLE
2
LTYPE
5
5
100
AcDbSymbolTable
0
LTYPE
5
14
100
AcDbSymbolTableRecord
100
AcDbLinetypeTableRecord
2
BYBLOCK
70
0
0
LTYPE
5
15
100
AcDbSymbolTableRecord
100
AcDbLinetypeTableRecord
2
BYLAYER
70
0
0
ENDTAB
0
TABLE
2
LAYER
5
2
100
AcDbSymbolTable
70
2
0
LAYER
5
50
100
AcDbSymbolTableRecord
100
AcDbLayerTableRecord
2
0
70
0
6
CONTINUOUS
0
ENDTAB
0
TABLE
2
STYLE
5
3
100
AcDbSymbolTable
70
1
0
STYLE
5
11
100
AcDbSymbolTableRecord
100
AcDbTextStyleTableRecord
2
STANDARD
70
0
0
ENDTAB
0
TABLE
2
VIEW
5
6
100
AcDbSymbolTable
70
0
0
ENDTAB
0
TABLE
2
UCS
5
7
100
AcDbSymbolTable
70
0
0
ENDTAB
0
TABLE
2
APPID
5
9
100
AcDbSymbolTable
70
2
0
APPID
5
12
100
AcDbSymbolTableRecord
100
AcDbRegAppTableRecord
2
ACAD
70
0
0
ENDTAB
0
TABLE
2
DIMSTYLE
5
A
100
AcDbSymbolTable
70
1
0
ENDTAB
0
TABLE
2
BLOCK_RECORD
5
1
100
AcDbSymbolTable
70
1
0
BLOCK_RECORD
5
1F
100
AcDbSymbolTableRecord
100
AcDbBlockTableRecord
2
*MODEL_SPACE
0
BLOCK_RECORD
5
1B
100
AcDbSymbolTableRecord
100
AcDbBlockTableRecord
2
*PAPER_SPACE
0
ENDTAB
0
ENDSEC
0
SECTION
2
BLOCKS
0
BLOCK
5
20
100
AcDbEntity
100
AcDbBlockBegin
2
*MODEL_SPACE
0
ENDBLK
5
21
100
AcDbEntity
100
AcDbBlockEnd
0
BLOCK
5
1C
100
AcDbEntity
100
AcDbBlockBegin
2
*PAPER_SPACE
0
ENDBLK
5
1D
100
AcDbEntity
100
AcDbBlockEnd
0
ENDSEC
0
SECTION
2
ENTITIES
0
LWPOLYLINE
5
100
100
AcDbEntity
8
0
100
AcDbPolyline
90
4
70
1
43
0.0
10
37.319427250207383
20
-3.6756427623585401
10
45.778497426921064
20
-4.5087884551597881
42
0.049126849769466852
10
45.778497426921064
20
4.5087884551597899
10
37.31942725020739
20
3.6756427623585348
42
-0.049126849769467421
0
LINE
5
101
100
AcDbEntity
8
0
100
AcDbLine
10
37.499999999999993
20
0
30
0
11
46.000000000000007
21
0
31
0
0
LWPOLYLINE
5
102
100
AcDbEntity
8
0
100
AcDbPolyline
90
4
70
1
43
0.0
10
36.999124953182971
20
6.1085802522970418
10
45.385593275904426
20
7.4931917761510816
42
0.016363922135310838
10
44.798341046757351
20
10.445508099581167
10
36.520386722900014
20
8.515359863789044
42
-0.016363922135312119
0
LWPOLYLINE
5
103
100
AcDbEntity
8
0
100
AcDbPolyline
90
4
70
1
43
0.0
10
35.885262589957819
20
10.88567539704232
10
44.019255443681622
20
13.353095153705272
42
0.049126849769467136
10
40.568378160024338
20
21.684249893995897
10
33.072047413063281
20
17.677377630974931
42
-0.049126849769467532
0
LWPOLYLINE
5
104
100
AcDbEntity
8
0
100
AcDbPolyline
90
4
70
1
43
0.0
10
31.845081807246736
20
19.802544399388779
10
39.063300350222633
20
24.291121129916931
42
0.016363922135312112
10
37.390947491214305
20
26.793974055918895
10
30.481750672185555
20
21.842913632542636
42
-0.016363922135312119
0
LWPOLYLINE
5
105
100
AcDbEntity
8
0
100
AcDbPolyline
90
4
70
1
43
0.0
10
28.987892001102608
20
23.789748156136703
10
35.558480854685918
20
29.182091071527708
42
0.049126849769467282
10
29.182091071527694
20
35.558480854685911
10
23.789748156136696
20
28.987892001102615
42
-0.049126849769467087
0
LWPOLYLINE
5
106
100
AcDbEntity
8
0
100
AcDbPolyline
90
4
70
1
43
0.0
10
21.842913632542601
20
30.481750672185548
10
26.793974055918895
20
37.390947491214298
42
0.016363922135311688
10
24.291121129916924
20
39.063300350222633
10
19.802544399388864
20
31.845081807246665
42
-0.01636392213531123
0
LWPOLYLINE
5
107
100
AcDbEntity
8
0
100
AcDbPolyline
90
4
70
1
43
0.0
10
17.677377630974934
20
33.072047413063274
10
21.684249893995901
20
40.568378160024345
42
0.049126849769467136
10
13.353095153705274
20
44.019255443681615
10
10.885675397042295
20
35.885262589957819
42
-0.049126849769467754
0
LWPOLYLINE
5
108
100
AcDbEntity
8
0
100
AcDbPolyline
90
4
70
1
43
0.0
10
8.5153598637890155
20
36.520386722900042
10
10.445508099581172
20
44.798341046757344
42
0.016363922135311688
10
7.4931917761510878
20
45.385593275904426
10
6.1085802522971431
20
36.999124953182985
42
-0.01636392213531123
0
LWPOLYLINE
5
109
100
AcDbEntity
8
0
100
AcDbPolyline
90
4
70
1
43
0.0
10
3.675642762358529
20
37.319427250207369
10
4.5087884551597792
20
45.778497426921078
42
0.049126849769467282
10
-4.5087884551598005
20
45.778497426921078
10
-3.6756427623585424
20
37.319427250207369
42
-0.049126849769467421
0
LWPOLYLINE
5
110
100
AcDbEntity
8
0
100
AcDbPolyline
90
4
70
1
43
0.0
10
-6.1085802522970623
20
36.999124953182971
10
-7.4931917761510913
20
45.385593275904441
42
0.016363922135310838
10
-10.445508099581177
20
44.798341046757358
10
-8.5153598637889338
20
36.520386722900035
42
-0.01636392213531123
0
LWPOLYLINE
5
111
100
AcDbEntity
8
0
100
AcDbPolyline
90
4
70
1
43
0.0
10
-10.885675397042329
20
35.88526258995784
10
-13.353095153705274
20
44.019255443681622
42
0.049126849769467282
10
-21.684249893995901
20
40.568378160024345
10
-17.677377630974931
20
33.072047413063316
42
-0.049126849769467421
0
LWPOLYLINE
5
112
100
AcDbEntity
8
0
100
AcDbPolyline
90
4
70
1
43
0.0
10
-19.802544399388772
20
31.845081807246732
10
-24.291121129916924
20
39.063300350222619
42
0.016363922135310838
10
-26.793974055918902
20
37.390947491214305
10
-21.842913632542516
20
30.481750672185623
42
-0.01636392213531123
0
LWPOLYLINE
5
113
100
AcDbEntity
8
0
100
AcDbPolyline
90
4
70
1
43
0.0
10
-23.789748156136696
20
28.98789200110263
10
-29.182091071527697
20
35.558480854685918
42
0.049126849769467705
10
-35.558480854685904
20
29.182091071527701
10
-28.987892001102612
20
23.789748156136721
42
-0.049126849769467087
0
LWPOLYLINE
5
114
100
AcDbEntity
8
0
100
AcDbPolyline
90
4
70
1
43
0.0
10
-30.481750672185544
20
21.842913632542601
10
-37.390947491214291
20
26.793974055918905
42
0.016363922135310838
10
-39.063300350222633
20
24.291121129916938
10
-31.845081807246661
20
19.802544399388864
42
-0.01636392213531123
0
LWPOLYLINE
5
115
100
AcDbEntity
8
0
100
AcDbPolyline
90
4
70
1
43
0.0
10
-33.072047413063302
20
17.677377630974927
10
-40.568378160024338
20
21.684249893995901
42
0.049126849769467136
10
-44.019255443681615
20
13.353095153705276
10
-35.88526258995784
20
10.885675397042327
42
-0.049126849769467421
0
LWPOLYLINE
5
116
100
AcDbEntity
8
0
100
AcDbPolyline
90
4
70
1
43
0.0
10
-36.520386722900035
20
8.5153598637890369
10
-44.798341046757344
20
10.445508099581172
42
0.016363922135310838
10
-45.385593275904441
20
7.4931917761510896
10
-36.999124953183014
20
6.1085802522970356
42
-0.016363922135312119
0
LWPOLYLINE
5
117
100
AcDbEntity
8
0
100
AcDbPolyline
90
4
70
1
43
0.0
10
-37.319427250207355
20
3.6756427623585388
10
-45.778497426921078
20
4.5087884551597952
42
0.049126849769467136
10
-45.778497426921064
20
-4.5087884551597837
10
-37.319427250207362
20
-3.6756427623585304
42
-0.049126849769467421
0
LWPOLYLINE
5
118
100
AcDbEntity
8
0
100
AcDbPolyline
90
4
70
1
43
0.0
10
-36.999124953182964
20
-6.1085802522970587
10
-45.385593275904441
20
-7.4931917761510771
42
0.016363922135310838
10
-44.798341046757351
20
-10.445508099581161
10
-36.520386722900042
20
-8.5153598637888646
42
-0.016363922135310786
0
LWPOLYLINE
5
119
100
AcDbEntity
8
0
100
AcDbPolyline
90
4
70
1
43
0.0
10
-35.885262589957819
20
-10.885675397042323
10
-44.019255443681622
20
-13.353095153705265
42
0.049126849769467136
10
-40.568378160024338
20
-21.68424989399589
10
-33.072047413063295
20
-17.677377630974902
42
-0.04912684976946731
0
LWPOLYLINE
5
120
100
AcDbEntity
8
0
100
AcDbPolyline
90
4
70
1
43
0.0
10
-31.845081807246707
20
-19.802544399388793
10
-39.06330035022264
20
-24.291121129916924
42
0.016363922135312112
10
-37.390947491214305
20
-26.793974055918891
10
-30.481750672185633
20
-21.84291363254248
42
-0.016363922135310786
0
LWPOLYLINE
5
121
100
AcDbEntity
8
0
100
AcDbPolyline
90
4
70
1
43
0.0
10
-28.987892001102594
20
-23.789748156136703
10
-35.558480854685904
20
-29.18209107152769
42
0.049126849769467282
10
-29.182091071527694
20
-35.558480854685904
10
-23.789748156136699
20
-28.987892001102608
42
-0.049126849769466976
0
LWPOLYLINE
5
122
100
AcDbEntity
8
0
100
AcDbPolyline
90
4
70
1
43
0.0
10
-21.842913632542604
20
-30.481750672185576
10
-26.793974055918902
20
-37.390947491214305
42
0.016363922135311688
10
-24.291121129916927
20
-39.063300350222626
10
-19.802544399388754
20
-31.845081807246764
42
-0.016363922135312119
0
LWPOLYLINE
5
123
100
AcDbEntity
8
0
100
AcDbPolyline
90
4
70
1
43
0.0
10
-17.677377630974934
20
-33.072047413063295
10
-21.684249893995904
20
-40.568378160024324
42
0.049126849769467136
10
-13.353095153705286
20
-44.019255443681608
10
-10.885675397042354
20
-35.885262589957833
42
-0.04912684976946731
0
LWPOLYLINE
5
124
100
AcDbEntity
8
0
100
AcDbPolyline
90
4
70
1
43
0.0
10
-8.5153598637889374
20
-36.520386722900007
10
-10.445508099581184
20
-44.798341046757344
42
0.016363922135311688
10
-7.4931917761511011
20
-45.385593275904419
10
-6.1085802522971839
20
-36.999124953182928
42
-0.016363922135310453
0
LWPOLYLINE
5
125
100
AcDbEntity
8
0
100
AcDbPolyline
90
4
70
1
43
0.0
10
-3.6756427623585211
20
-37.319427250207369
10
-4.5087884551598005
20
-45.778497426921078
42
0.049126849769467136
10
4.5087884551597792
20
-45.778497426921064
10
3.6756427623585508
20
-37.319427250207369
42
-0.049126849769467421
0
LWPOLYLINE
5
126
100
AcDbEntity
8
0
100
AcDbPolyline
90
4
70
1
43
0.0
10
6.1085802522970587
20
-36.999124953182957
10
7.4931917761510727
20
-45.385593275904441
42
0.016363922135310838
10
10.445508099581158
20
-44.798341046757351
10
8.5153598637889303
20
-36.520386722900028
42
-0.01636392213531123
0
LWPOLYLINE
5
127
100
AcDbEntity
8
0
100
AcDbPolyline
90
4
70
1
43
0.0
10
10.885675397042352
20
-35.885262589957826
10
13.353095153705274
20
-44.019255443681622
42
0.049126849769467282
10
21.684249893995901
20
-40.568378160024345
10
17.677377630974949
20
-33.072047413063295
42
-0.049126849769467421
0
LWPOLYLINE
5
128
100
AcDbEntity
8
0
100
AcDbPolyline
90
4
70
1
43
0.0
10
19.802544399388783
20
-31.845081807246732
10
24.291121129916924
20
-39.063300350222619
42
0.016363922135310838
10
26.793974055918902
20
-37.390947491214305
10
21.842913632542693
20
-30.481750672185512
42
-0.016363922135312563
0
LWPOLYLINE
5
129
100
AcDbEntity
8
0
100
AcDbPolyline
90
4
70
1
43
0.0
10
23.789748156136689
20
-28.987892001102644
10
29.182091071527697
20
-35.558480854685925
42
0.049126849769467282
10
35.558480854685904
20
-29.182091071527701
10
28.987892001102651
20
-23.789748156136682
42
-0.049126849769467532
0
LWPOLYLINE
5
130
100
AcDbEntity
8
0
100
AcDbPolyline
90
4
70
1
43
0.0
10
30.481750672185598
20
-21.842913632542633
10
37.390947491214284
20
-26.793974055918905
42
0.016363922135312112
10
39.063300350222626
20
-24.291121129916938
10
31.845081807246824
20
-19.802544399388722
42
-0.016363922135312563
0
LWPOLYLINE
5
131
100
AcDbEntity
8
0
100
AcDbPolyline
90
4
70
1
43
0.0
10
33.072047413063295
20
-17.677377630974966
10
40.568378160024338
20
-21.684249893995929
42
0.049126849769467136
10
44.019255443681608
20
-13.353095153705301
10
35.885262589957854
20
-10.885675397042323
42
-0.049126849769467754
0
LWPOLYLINE
5
132
100
AcDbEntity
8
0
100
AcDbPolyline
90
4
70
1
43
0.0
10
36.520386722900042
20
-8.5153598637890298
10
44.798341046757344
20
-10.4455080995812
42
0.016363922135311688
10
45.385593275904441
20
-7.493191776151118
10
36.999124953183021
20
-6.1085802522970276
42
-0.016363922135312119
0
ENDSEC
0
SECTION
2
OBJECTS
0
DICTIONARY
5
C
100
AcDbDictionary
3
ACAD_GROUP
350
D
3
ACAD_MLINESTYLE
350
17
0
DICTIONARY
5
D
100
AcDbDictionary
0
DICTIONARY
5
1A
330
C
100
AcDbDictionary
0
DICTIONARY
5
17
100
AcDbDictionary
0
ENDSEC
0
EOF
