%TF.GenerationSoftware,KiCad,Pcbnew,(6.0.11)*%
%TF.CreationDate,2024-02-10T16:45:40+09:00*%
%TF.ProjectId,SmallMD,536d616c-6c4d-4442-9e6b-696361645f70,rev?*%
%TF.SameCoordinates,Original*%
%TF.FileFunction,Soldermask,Top*%
%TF.FilePolarity,Negative*%
%FSLAX46Y46*%
G04 Gerber Fmt 4.6, Leading zero omitted, Abs format (unit mm)*
G04 Created by KiCad (PCBNEW (6.0.11)) date 2024-02-10 16:45:40*
%MOMM*%
%LPD*%
G01*
G04 APERTURE LIST*
G04 Aperture macros list*
%AMRoundRect*
0 Rectangle with rounded corners*
0 $1 Rounding radius*
0 $2 $3 $4 $5 $6 $7 $8 $9 X,Y pos of 4 corners*
0 Add a 4 corners polygon primitive as box body*
4,1,4,$2,$3,$4,$5,$6,$7,$8,$9,$2,$3,0*
0 Add four circle primitives for the rounded corners*
1,1,$1+$1,$2,$3*
1,1,$1+$1,$4,$5*
1,1,$1+$1,$6,$7*
1,1,$1+$1,$8,$9*
0 Add four rect primitives between the rounded corners*
20,1,$1+$1,$2,$3,$4,$5,0*
20,1,$1+$1,$4,$5,$6,$7,0*
20,1,$1+$1,$6,$7,$8,$9,0*
20,1,$1+$1,$8,$9,$2,$3,0*%
%AMFreePoly0*
4,1,6,1.000000,0.000000,0.500000,-0.750000,-0.500000,-0.750000,-0.500000,0.750000,0.500000,0.750000,1.000000,0.000000,1.000000,0.000000,$1*%
G04 Aperture macros list end*
%ADD10RoundRect,0.381000X-0.381000X-0.381000X0.381000X-0.381000X0.381000X0.381000X-0.381000X0.381000X0*%
%ADD11C,1.524000*%
%ADD12R,0.740000X3.250000*%
%ADD13R,3.800000X3.800000*%
%ADD14C,3.800000*%
%ADD15RoundRect,0.250001X1.999999X0.799999X-1.999999X0.799999X-1.999999X-0.799999X1.999999X-0.799999X0*%
%ADD16R,1.500000X1.500000*%
%ADD17FreePoly0,270.000000*%
%ADD18FreePoly0,90.000000*%
%ADD19RoundRect,0.237500X0.287500X0.237500X-0.287500X0.237500X-0.287500X-0.237500X0.287500X-0.237500X0*%
%ADD20C,2.000000*%
%ADD21RoundRect,0.237500X-0.287500X-0.237500X0.287500X-0.237500X0.287500X0.237500X-0.287500X0.237500X0*%
%ADD22R,0.575000X0.620000*%
%ADD23RoundRect,0.250000X1.425000X-0.362500X1.425000X0.362500X-1.425000X0.362500X-1.425000X-0.362500X0*%
%ADD24RoundRect,0.250001X-1.999999X-0.799999X1.999999X-0.799999X1.999999X0.799999X-1.999999X0.799999X0*%
%ADD25R,0.620000X0.575000*%
%ADD26R,1.200000X0.900000*%
%ADD27RoundRect,0.150000X-0.675000X-0.150000X0.675000X-0.150000X0.675000X0.150000X-0.675000X0.150000X0*%
%ADD28R,1.700000X1.700000*%
%ADD29O,1.700000X1.700000*%
%ADD30C,1.600000*%
%ADD31O,1.600000X1.600000*%
%ADD32R,1.600000X1.600000*%
%ADD33R,0.650000X1.050000*%
%ADD34RoundRect,0.250000X-0.600000X-0.675000X0.600000X-0.675000X0.600000X0.675000X-0.600000X0.675000X0*%
%ADD35O,1.700000X1.850000*%
%ADD36C,4.000000*%
%ADD37RoundRect,0.250000X0.600000X-0.600000X0.600000X0.600000X-0.600000X0.600000X-0.600000X-0.600000X0*%
%ADD38C,1.700000*%
%ADD39RoundRect,0.250000X-0.625000X0.350000X-0.625000X-0.350000X0.625000X-0.350000X0.625000X0.350000X0*%
%ADD40O,1.750000X1.200000*%
G04 APERTURE END LIST*
D10*
%TO.C,SW3*%
X147200000Y-61690000D03*
D11*
X144000000Y-64190000D03*
X147200000Y-66690000D03*
%TD*%
D12*
%TO.C,J3*%
X100420000Y-64065000D03*
X100420000Y-59315000D03*
X101690000Y-64065000D03*
X101690000Y-59315000D03*
X102960000Y-64065000D03*
X102960000Y-59315000D03*
X104230000Y-64065000D03*
X104230000Y-59315000D03*
X105500000Y-64065000D03*
X105500000Y-59315000D03*
%TD*%
D13*
%TO.C,J1*%
X167070000Y-65740000D03*
D14*
X167070000Y-60740000D03*
%TD*%
D15*
%TO.C,C14*%
X129710000Y-74750000D03*
X122510000Y-74750000D03*
%TD*%
D16*
%TO.C,JP5*%
X112190000Y-91490000D03*
X112190000Y-93890000D03*
D17*
X112190000Y-90690000D03*
D18*
X112190000Y-94690000D03*
%TD*%
D19*
%TO.C,D5*%
X112775000Y-64600000D03*
X111025000Y-64600000D03*
%TD*%
D16*
%TO.C,JP6*%
X125230000Y-93470000D03*
X125230000Y-91070000D03*
D17*
X125230000Y-90270000D03*
D18*
X125230000Y-94270000D03*
%TD*%
D20*
%TO.C,TP5*%
X115300000Y-66600000D03*
%TD*%
D21*
%TO.C,D13*%
X133505001Y-68946385D03*
X135255001Y-68946385D03*
%TD*%
D22*
%TO.C,Q1*%
X162938001Y-59840001D03*
X162938001Y-58890001D03*
X162938001Y-57940001D03*
X160162001Y-57940001D03*
X160162001Y-58890001D03*
X160162001Y-59840001D03*
%TD*%
D23*
%TO.C,R39*%
X157310000Y-69112500D03*
X157310000Y-63187500D03*
%TD*%
D19*
%TO.C,D6*%
X112795000Y-59100000D03*
X111045000Y-59100000D03*
%TD*%
D24*
%TO.C,C13*%
X138180000Y-74710000D03*
X145380000Y-74710000D03*
%TD*%
D21*
%TO.C,D17*%
X167945000Y-81330000D03*
X169695000Y-81330000D03*
%TD*%
D25*
%TO.C,Q3*%
X156600000Y-60278000D03*
X157550000Y-60278000D03*
X158500000Y-60278000D03*
X158500000Y-57502000D03*
X157550000Y-57502000D03*
X156600000Y-57502000D03*
%TD*%
D23*
%TO.C,R46*%
X161310000Y-69112500D03*
X161310000Y-63187500D03*
%TD*%
D26*
%TO.C,D2*%
X134000000Y-76310000D03*
X134000000Y-73010000D03*
%TD*%
D16*
%TO.C,H2*%
X93360000Y-65860000D03*
%TD*%
D27*
%TO.C,Q18*%
X153755000Y-74083797D03*
X153755000Y-75353797D03*
X153755000Y-76623797D03*
X153755000Y-77893797D03*
X159005000Y-77893797D03*
X159005000Y-76623797D03*
X159005000Y-75353797D03*
X159005000Y-74083797D03*
%TD*%
D19*
%TO.C,D3*%
X112795000Y-60940000D03*
X111045000Y-60940000D03*
%TD*%
D10*
%TO.C,SW2*%
X94960000Y-70710000D03*
D11*
X94960000Y-73250000D03*
X94960000Y-75790000D03*
%TD*%
D28*
%TO.C,JP3*%
X116050000Y-60335000D03*
D29*
X116050000Y-62875000D03*
%TD*%
D19*
%TO.C,D18*%
X169672500Y-79690000D03*
X167922500Y-79690000D03*
%TD*%
%TO.C,D4*%
X112785000Y-62810000D03*
X111035000Y-62810000D03*
%TD*%
D30*
%TO.C,R67*%
X164930000Y-87270000D03*
D31*
X152230000Y-87270000D03*
%TD*%
D32*
%TO.C,SW1*%
X92740000Y-83345000D03*
D31*
X92740000Y-85885000D03*
X92740000Y-88425000D03*
X92740000Y-90965000D03*
X92740000Y-93505000D03*
X100360000Y-93505000D03*
X100360000Y-90965000D03*
X100360000Y-88425000D03*
X100360000Y-85885000D03*
X100360000Y-83345000D03*
%TD*%
D21*
%TO.C,D10*%
X133535001Y-67183884D03*
X135285001Y-67183884D03*
%TD*%
D27*
%TO.C,Q19*%
X162705000Y-74065000D03*
X162705000Y-75335000D03*
X162705000Y-76605000D03*
X162705000Y-77875000D03*
X167955000Y-77875000D03*
X167955000Y-76605000D03*
X167955000Y-75335000D03*
X167955000Y-74065000D03*
%TD*%
D33*
%TO.C,SW4*%
X92475000Y-59505000D03*
X92475000Y-63655000D03*
X94625000Y-63655000D03*
X94625000Y-59530000D03*
%TD*%
D34*
%TO.C,J5*%
X119860000Y-59720000D03*
D35*
X122360000Y-59720000D03*
X124860000Y-59720000D03*
X127360000Y-59720000D03*
%TD*%
D34*
%TO.C,J6*%
X119860000Y-65620000D03*
D35*
X122360000Y-65620000D03*
X124860000Y-65620000D03*
X127360000Y-65620000D03*
%TD*%
D13*
%TO.C,J4*%
X159030000Y-83110000D03*
D36*
X164030000Y-83110000D03*
%TD*%
D37*
%TO.C,J7*%
X164760000Y-92830000D03*
D38*
X164760000Y-90290000D03*
X162220000Y-92830000D03*
X162220000Y-90290000D03*
X159680000Y-92830000D03*
X159680000Y-90290000D03*
X157140000Y-92830000D03*
X157140000Y-90290000D03*
X154600000Y-92830000D03*
X154600000Y-90290000D03*
%TD*%
D39*
%TO.C,J8*%
X167660000Y-83090000D03*
D40*
X167660000Y-85090000D03*
X167660000Y-87090000D03*
X167660000Y-89090000D03*
X167660000Y-91090000D03*
X167660000Y-93090000D03*
%TD*%
M02*
