%TF.GenerationSoftware,KiCad,Pcbnew,(6.0.11)*%
%TF.CreationDate,2024-02-10T16:45:40+09:00*%
%TF.ProjectId,SmallMD,536d616c-6c4d-4442-9e6b-696361645f70,rev?*%
%TF.SameCoordinates,Original*%
%TF.FileFunction,Paste,Top*%
%TF.FilePolarity,Positive*%
%FSLAX46Y46*%
G04 Gerber Fmt 4.6, Leading zero omitted, Abs format (unit mm)*
G04 Created by KiCad (PCBNEW (6.0.11)) date 2024-02-10 16:45:40*
%MOMM*%
%LPD*%
G01*
G04 APERTURE LIST*
G04 Aperture macros list*
%AMRoundRect*
0 Rectangle with rounded corners*
0 $1 Rounding radius*
0 $2 $3 $4 $5 $6 $7 $8 $9 X,Y pos of 4 corners*
0 Add a 4 corners polygon primitive as box body*
4,1,4,$2,$3,$4,$5,$6,$7,$8,$9,$2,$3,0*
0 Add four circle primitives for the rounded corners*
1,1,$1+$1,$2,$3*
1,1,$1+$1,$4,$5*
1,1,$1+$1,$6,$7*
1,1,$1+$1,$8,$9*
0 Add four rect primitives between the rounded corners*
20,1,$1+$1,$2,$3,$4,$5,0*
20,1,$1+$1,$4,$5,$6,$7,0*
20,1,$1+$1,$6,$7,$8,$9,0*
20,1,$1+$1,$8,$9,$2,$3,0*%
G04 Aperture macros list end*
%ADD10R,0.740000X3.250000*%
%ADD11RoundRect,0.250001X1.999999X0.799999X-1.999999X0.799999X-1.999999X-0.799999X1.999999X-0.799999X0*%
%ADD12RoundRect,0.237500X0.287500X0.237500X-0.287500X0.237500X-0.287500X-0.237500X0.287500X-0.237500X0*%
%ADD13RoundRect,0.237500X-0.287500X-0.237500X0.287500X-0.237500X0.287500X0.237500X-0.287500X0.237500X0*%
%ADD14R,0.575000X0.620000*%
%ADD15RoundRect,0.250000X1.425000X-0.362500X1.425000X0.362500X-1.425000X0.362500X-1.425000X-0.362500X0*%
%ADD16RoundRect,0.250001X-1.999999X-0.799999X1.999999X-0.799999X1.999999X0.799999X-1.999999X0.799999X0*%
%ADD17R,0.620000X0.575000*%
%ADD18R,1.200000X0.900000*%
%ADD19RoundRect,0.150000X-0.675000X-0.150000X0.675000X-0.150000X0.675000X0.150000X-0.675000X0.150000X0*%
%ADD20R,0.650000X1.050000*%
G04 APERTURE END LIST*
D10*
%TO.C,J3*%
X100420000Y-64065000D03*
X100420000Y-59315000D03*
X101690000Y-64065000D03*
X101690000Y-59315000D03*
X102960000Y-64065000D03*
X102960000Y-59315000D03*
X104230000Y-64065000D03*
X104230000Y-59315000D03*
X105500000Y-64065000D03*
X105500000Y-59315000D03*
%TD*%
D11*
%TO.C,C14*%
X129710000Y-74750000D03*
X122510000Y-74750000D03*
%TD*%
D12*
%TO.C,D5*%
X112775000Y-64600000D03*
X111025000Y-64600000D03*
%TD*%
D13*
%TO.C,D13*%
X133505001Y-68946385D03*
X135255001Y-68946385D03*
%TD*%
D14*
%TO.C,Q1*%
X162938001Y-59840001D03*
X162938001Y-58890001D03*
X162938001Y-57940001D03*
X160162001Y-57940001D03*
X160162001Y-58890001D03*
X160162001Y-59840001D03*
%TD*%
D15*
%TO.C,R39*%
X157310000Y-69112500D03*
X157310000Y-63187500D03*
%TD*%
D12*
%TO.C,D6*%
X112795000Y-59100000D03*
X111045000Y-59100000D03*
%TD*%
D16*
%TO.C,C13*%
X138180000Y-74710000D03*
X145380000Y-74710000D03*
%TD*%
D13*
%TO.C,D17*%
X167945000Y-81330000D03*
X169695000Y-81330000D03*
%TD*%
D17*
%TO.C,Q3*%
X156600000Y-60278000D03*
X157550000Y-60278000D03*
X158500000Y-60278000D03*
X158500000Y-57502000D03*
X157550000Y-57502000D03*
X156600000Y-57502000D03*
%TD*%
D15*
%TO.C,R46*%
X161310000Y-69112500D03*
X161310000Y-63187500D03*
%TD*%
D18*
%TO.C,D2*%
X134000000Y-76310000D03*
X134000000Y-73010000D03*
%TD*%
D19*
%TO.C,Q18*%
X153755000Y-74083797D03*
X153755000Y-75353797D03*
X153755000Y-76623797D03*
X153755000Y-77893797D03*
X159005000Y-77893797D03*
X159005000Y-76623797D03*
X159005000Y-75353797D03*
X159005000Y-74083797D03*
%TD*%
D12*
%TO.C,D3*%
X112795000Y-60940000D03*
X111045000Y-60940000D03*
%TD*%
%TO.C,D18*%
X169672500Y-79690000D03*
X167922500Y-79690000D03*
%TD*%
%TO.C,D4*%
X112785000Y-62810000D03*
X111035000Y-62810000D03*
%TD*%
D13*
%TO.C,D10*%
X133535001Y-67183884D03*
X135285001Y-67183884D03*
%TD*%
D19*
%TO.C,Q19*%
X162705000Y-74065000D03*
X162705000Y-75335000D03*
X162705000Y-76605000D03*
X162705000Y-77875000D03*
X167955000Y-77875000D03*
X167955000Y-76605000D03*
X167955000Y-75335000D03*
X167955000Y-74065000D03*
%TD*%
D20*
%TO.C,SW4*%
X92475000Y-59505000D03*
X92475000Y-63655000D03*
X94625000Y-63655000D03*
X94625000Y-59530000D03*
%TD*%
M02*
