M48
; DRILL file {KiCad (6.0.11)} date Sat Feb 10 16:45:40 2024
; FORMAT={-:-/ absolute / inch / decimal}
; #@! TF.CreationDate,2024-02-10T16:45:40+09:00
; #@! TF.GenerationSoftware,Kicad,Pcbnew,(6.0.11)
; #@! TF.FileFunction,Plated,1,2,PTH
FMAT,2
INCH
; #@! TA.AperFunction,Plated,PTH,ViaDrill
T1C0.0118
; #@! TA.AperFunction,Plated,PTH,ViaDrill
T2C0.0157
; #@! TA.AperFunction,Plated,PTH,ViaDrill
T3C0.0236
; #@! TA.AperFunction,Plated,PTH,ComponentDrill
T4C0.0256
; #@! TA.AperFunction,Plated,PTH,ComponentDrill
T5C0.0295
; #@! TA.AperFunction,Plated,PTH,ComponentDrill
T6C0.0315
; #@! TA.AperFunction,Plated,PTH,ComponentDrill
T7C0.0335
; #@! TA.AperFunction,Plated,PTH,ComponentDrill
T8C0.0394
; #@! TA.AperFunction,Plated,PTH,ComponentDrill
T9C0.1063
%
G90
G05
T1
X3.7988Y-3.3717
X3.8035Y-3.4689
X3.8142Y-3.5626
X3.828Y-2.661
X3.828Y-2.7661
X3.8335Y-3.3362
X3.8362Y-2.4736
X3.8364Y-2.5185
X3.8364Y-2.5504
X3.8488Y-3.4205
X3.8634Y-2.4341
X3.8681Y-3.5067
X3.8714Y-2.3596
X3.8856Y-2.5217
X3.8856Y-2.5591
X3.8856Y-2.5905
X3.8876Y-2.4811
X3.8978Y-2.9459
X3.9984Y-2.9256
X4.0043Y-3.5382
X4.0142Y-3.4201
X4.0157Y-3.1107
X4.0185Y-3.161
X4.0235Y-3.075
X4.024Y-3.6661
X4.0408Y-3.1297
X4.0697Y-2.798
X4.0819Y-2.6272
X4.0921Y-2.7724
X4.1091Y-3.1134
X4.1303Y-2.6748
X4.1323Y-3.676
X4.1409Y-2.772
X4.1478Y-3.0628
X4.1748Y-3.0382
X4.1913Y-3.6858
X4.1965Y-2.8295
X4.2138Y-2.522
X4.2138Y-2.9909
X4.2528Y-2.7146
X4.2594Y-2.8913
X4.2606Y-3.2846
X4.2705Y-3.3476
X4.2791Y-2.5866
X4.2859Y-2.324
X4.2874Y-2.2907
X4.2965Y-2.7614
X4.3094Y-2.8984
X4.318Y-2.2832
X4.3232Y-2.7791
X4.3339Y-3.3488
X4.3413Y-3.4791
X4.3539Y-2.8591
X4.3587Y-2.6602
X4.3656Y-2.778
X4.4031Y-2.8142
X4.4059Y-2.7091
X4.4095Y-2.751
X4.4102Y-3.4008
X4.4126Y-3.2665
X4.4138Y-3.3449
X4.415Y-3.2055
X4.4161Y-3.0665
X4.4224Y-3.1535
X4.4484Y-3.4059
X4.4512Y-2.7827
X4.4567Y-3.0657
X4.4661Y-3.7303
X4.4806Y-2.9979
X4.4937Y-3.3579
X4.5008Y-3.3189
X4.5031Y-3.6996
X4.5217Y-3.7248
X4.526Y-3.0224
X4.5319Y-2.7819
X4.5366Y-3.3547
X4.5445Y-3.2232
X4.5531Y-3.0591
X4.5626Y-3.6488
X4.563Y-2.9622
X4.5642Y-2.9138
X4.5724Y-3.1783
X4.5732Y-3.6047
X4.6051Y-2.7827
X4.6256Y-3.1264
X4.6681Y-3.1669
X4.6752Y-3.2819
X4.7272Y-2.7807
X4.7673Y-2.7811
X4.8004Y-2.7811
X4.8362Y-3.3417
X4.9004Y-3.3571
X4.9608Y-3.3081
X4.963Y-3.426
X4.9705Y-3.2264
X4.9795Y-3.6931
X4.9953Y-2.8303
X4.9996Y-3.1067
X5.0008Y-3.178
X5.0181Y-3.5823
X5.0346Y-3.4579
X5.0535Y-3.1799
X5.0539Y-3.1071
X5.0642Y-3.6303
X5.0647Y-2.7888
X5.0819Y-3.5634
X5.1614Y-3.1075
X5.198Y-2.55
X5.2736Y-3.1067
X5.2921Y-3.4551
X5.3488Y-2.6446
X5.3488Y-2.7139
X5.407Y-3.1813
X5.4713Y-3.6402
X5.5024Y-3.228
X5.5271Y-3.1813
X5.5657Y-3.1291
X5.889Y-2.3697
X5.9134Y-2.2972
X5.9413Y-2.2969
X6.0051Y-2.2969
X6.0579Y-2.298
X6.0941Y-2.326
X6.0945Y-2.8476
X6.1138Y-2.822
X6.1185Y-2.8457
X6.1205Y-2.8984
X6.1205Y-2.9378
X6.1205Y-2.9772
X6.1205Y-3.0165
X6.1205Y-3.0559
X6.1205Y-3.0953
X6.1205Y-3.1346
X6.1366Y-2.8295
X6.1402Y-3.1543
X6.1524Y-2.8469
X6.1598Y-2.8984
X6.1598Y-2.9378
X6.1598Y-2.9772
X6.1598Y-3.0165
X6.1598Y-3.0559
X6.1598Y-3.0953
X6.1598Y-3.1346
X6.1598Y-3.174
X6.1992Y-3.0165
X6.1992Y-3.0559
X6.1992Y-3.0953
X6.1992Y-3.1346
X6.1992Y-3.174
X6.2189Y-3.0362
X6.2287Y-2.9181
X6.2287Y-2.9575
X6.2386Y-3.0953
X6.2386Y-3.1346
X6.2386Y-3.174
X6.2484Y-2.8984
X6.2484Y-2.9378
X6.2484Y-2.9772
X6.2681Y-2.9181
X6.2681Y-2.9575
X6.269Y-2.3733
X6.274Y-2.6898
X6.2748Y-2.5146
X6.278Y-3.0953
X6.278Y-3.1346
X6.278Y-3.174
X6.2803Y-2.2508
X6.2878Y-2.8984
X6.2878Y-2.9378
X6.2878Y-2.9772
X6.3173Y-3.0087
X6.3173Y-3.0323
X6.3173Y-3.0559
X6.3173Y-3.0795
X6.3173Y-3.1346
X6.3173Y-3.174
X6.3311Y-2.9575
X6.3331Y-3.0972
X6.3409Y-2.9791
X6.3409Y-3.0028
X6.3409Y-3.0264
X6.3409Y-3.05
X6.3409Y-3.0736
X6.3567Y-3.0913
X6.3626Y-2.9929
X6.3626Y-3.0165
X6.3626Y-3.0402
X6.3862Y-3.0087
X6.3862Y-3.0323
X6.3886Y-2.2669
X6.3961Y-3.174
X6.4079Y-2.9988
X6.4079Y-3.0224
X6.4295Y-3.0087
X6.4295Y-3.0323
X6.4354Y-3.1346
X6.4354Y-3.174
X6.4748Y-2.8984
X6.4748Y-2.9378
X6.4748Y-2.9772
X6.4748Y-3.0165
X6.4748Y-3.0559
X6.4748Y-3.0953
X6.4748Y-3.1346
X6.4748Y-3.174
X6.5142Y-2.8984
X6.5142Y-2.9378
X6.5142Y-2.9772
X6.5142Y-3.0165
X6.5142Y-3.0559
X6.5142Y-3.0953
X6.5142Y-3.1346
X6.5142Y-3.174
X6.5535Y-3.0165
X6.5535Y-3.0559
X6.5535Y-3.0953
X6.5535Y-3.1346
X6.5535Y-3.174
X6.5535Y-3.2134
X6.5732Y-3.0362
X6.5831Y-2.9181
X6.5831Y-2.9575
X6.5929Y-3.0953
X6.5929Y-3.1346
X6.5929Y-3.174
X6.5929Y-3.2134
X6.6028Y-2.8984
X6.6028Y-2.9378
X6.6028Y-2.9772
X6.6224Y-2.9181
X6.6224Y-2.9575
X6.6323Y-3.0953
X6.6323Y-3.1346
X6.6323Y-3.174
X6.6323Y-3.2134
X6.6421Y-2.8984
X6.6421Y-2.9378
X6.6421Y-2.9772
X6.6673Y-3.0807
X6.6988Y-2.9043
X6.6996Y-2.8102
T2
X3.2661Y-2.3079
X3.2661Y-2.426
X3.2661Y-2.5441
X3.2661Y-2.6622
X3.2661Y-2.7803
X3.2661Y-2.8984
X3.2661Y-3.0165
X3.2661Y-3.1346
X3.2661Y-3.2528
X3.2661Y-3.3709
X3.2661Y-3.489
X3.2661Y-3.6071
X3.2661Y-3.7252
X3.3843Y-2.3079
X3.3843Y-2.5441
X3.3843Y-2.6622
X3.3843Y-2.7803
X3.3843Y-2.8984
X3.3843Y-3.0165
X3.3843Y-3.1346
X3.3843Y-3.2528
X3.3843Y-3.3709
X3.3843Y-3.489
X3.3843Y-3.7252
X3.5024Y-2.3079
X3.5024Y-2.426
X3.5024Y-2.5441
X3.5024Y-2.6622
X3.5024Y-2.7803
X3.5024Y-2.8984
X3.5024Y-3.0165
X3.5024Y-3.1346
X3.5024Y-3.2528
X3.5024Y-3.3709
X3.5024Y-3.489
X3.5024Y-3.6071
X3.5024Y-3.7252
X3.5811Y-3.3413
X3.5815Y-2.5622
X3.5902Y-2.2819
X3.5909Y-3.4299
X3.5909Y-3.5382
X3.5909Y-3.6366
X3.5909Y-3.7547
X3.5949Y-2.411
X3.6071Y-2.639
X3.6205Y-2.7803
X3.6205Y-2.8984
X3.6205Y-3.0165
X3.6205Y-3.1346
X3.6823Y-2.8366
X3.6846Y-2.9323
X3.6878Y-2.2894
X3.6894Y-3.2035
X3.7051Y-3.7406
X3.7087Y-3.4327
X3.7091Y-3.0953
X3.7091Y-3.6366
X3.7098Y-3.5311
X3.7106Y-2.4969
X3.7244Y-2.6594
X3.778Y-2.2803
X3.7819Y-2.5728
X3.7878Y-3.1543
X3.7878Y-3.2429
X3.7976Y-3.0165
X3.8366Y-3.7217
X3.8461Y-2.8193
X3.8469Y-3.174
X3.8665Y-3.0953
X3.8764Y-3.6169
X3.8961Y-3.1248
X3.9067Y-2.8882
X3.9354Y-3.7547
X3.9638Y-3.0039
X4.0142Y-3.3217
X4.0339Y-3.2724
X4.0508Y-2.8559
X4.0535Y-2.9287
X4.0701Y-3.3622
X4.0713Y-2.985
X4.1004Y-2.8906
X4.1028Y-3.3118
X4.1524Y-2.9469
X4.161Y-2.6134
X4.1717Y-3.2921
X4.1717Y-3.3413
X4.213Y-2.6441
X4.25Y-3.2142
X4.2575Y-3.7681
X4.2602Y-3.5283
X4.2717Y-3.4028
X4.2835Y-2.6866
X4.2996Y-3.5677
X4.3177Y-3.3961
X4.3197Y-3.1763
X4.3453Y-3.1189
X4.3469Y-3.6768
X4.348Y-3.7654
X4.3768Y-2.2705
X4.437Y-2.5972
X4.4646Y-2.9433
X4.4677Y-2.8638
X4.4882Y-2.522
X4.4917Y-2.3665
X4.5161Y-2.2724
X4.5854Y-3.5197
X4.5925Y-2.5453
X4.6154Y-2.7219
X4.6358Y-2.6299
X4.6461Y-2.4709
X4.664Y-2.7789
X4.6717Y-3.3701
X4.6772Y-2.2717
X4.6819Y-2.7028
X4.6823Y-3.4575
X4.698Y-3.5193
X4.7764Y-3.5874
X4.813Y-2.6937
X4.8543Y-3.5508
X4.8591Y-3.5898
X4.8594Y-2.2854
X4.8594Y-2.4673
X4.8606Y-2.5232
X4.8898Y-2.898
X4.8906Y-2.8591
X4.8933Y-3.1453
X4.9299Y-2.7228
X4.9398Y-3.1118
X4.9626Y-2.4535
X4.965Y-2.5185
X4.9673Y-2.2843
X5.017Y-2.66
X5.022Y-3.6988
X5.0736Y-2.7354
X5.078Y-2.4126
X5.0795Y-2.2819
X5.0797Y-3.7009
X5.0925Y-2.5807
X5.1287Y-2.6862
X5.1587Y-2.8024
X5.163Y-2.4902
X5.1972Y-2.3839
X5.202Y-2.7626
X5.2346Y-2.8
X5.2504Y-2.5945
X5.2508Y-3.5413
X5.265Y-3.7116
X5.2748Y-2.5047
X5.285Y-2.2748
X5.3535Y-3.5335
X5.3654Y-2.322
X5.3776Y-2.5937
X5.3961Y-3.3246
X5.4106Y-2.6618
X5.4154Y-3.4457
X5.4292Y-2.8715
X5.4362Y-2.7205
X5.4569Y-3.2935
X5.4626Y-3.0528
X5.463Y-2.4098
X5.4646Y-2.5031
X5.4744Y-2.2803
X5.4791Y-3.535
X5.4894Y-3.378
X5.4902Y-2.6031
X5.4961Y-3.0528
X5.5039Y-3.2988
X5.5059Y-3.4402
X5.5089Y-3.0226
X5.5102Y-3.1248
X5.5177Y-3.5728
X5.5181Y-2.3508
X5.5252Y-3.6161
X5.5283Y-3.0528
X5.5343Y-2.6594
X5.5508Y-3.026
X5.5579Y-3.3819
X5.5654Y-3.5335
X5.5659Y-3.6697
X5.585Y-2.5244
X5.5961Y-3.0217
X5.5969Y-2.276
X5.6122Y-2.5776
X5.6185Y-3.1248
X5.6283Y-2.3508
X5.6362Y-3.4406
X5.6382Y-2.9476
X5.6409Y-2.4571
X5.6413Y-3.0299
X5.6811Y-2.4094
X5.6917Y-3.5248
X5.7008Y-2.865
X5.7173Y-2.9425
X5.7295Y-2.4752
X5.7366Y-3.0362
X5.7366Y-3.1346
X5.7461Y-3.2559
X5.7531Y-2.3209
X5.7563Y-3.3807
X5.7571Y-3.4413
X5.7685Y-2.8087
X5.7736Y-3.6685
X5.7783Y-3.0862
X5.7894Y-2.9437
X5.7929Y-2.8764
X5.8063Y-2.2776
X5.8339Y-3.0209
X5.8358Y-2.7677
X5.8563Y-2.9102
X5.8591Y-2.8295
X5.8705Y-2.7016
X5.8705Y-3.6606
X5.8752Y-2.4228
X5.8752Y-3.4413
X5.8963Y-2.5927
X5.8984Y-2.9583
X5.9193Y-3.6134
X5.9201Y-2.569
X5.9272Y-3.0933
X5.9287Y-2.422
X5.9295Y-2.8469
X5.9303Y-3.4106
X5.9417Y-2.7299
X5.9433Y-2.6228
X5.9551Y-3.6594
X5.9705Y-2.9146
X5.974Y-3.6035
X5.9839Y-3.035
X5.998Y-2.6823
X6.0035Y-2.8083
X6.0197Y-3.6677
X6.0283Y-2.3831
X6.0432Y-3.2444
X6.0451Y-3.1185
X6.0583Y-2.7449
X6.0768Y-2.65
X6.1008Y-2.5835
X6.1402Y-2.9181
X6.1402Y-2.9575
X6.1402Y-2.9969
X6.1402Y-3.0362
X6.1402Y-3.0756
X6.1402Y-3.115
X6.1598Y-2.6425
X6.1795Y-2.9181
X6.1795Y-2.9575
X6.1795Y-2.9969
X6.1795Y-3.0362
X6.1795Y-3.0756
X6.1795Y-3.115
X6.1795Y-3.1543
X6.2189Y-3.0756
X6.2189Y-3.115
X6.2189Y-3.1543
X6.2366Y-2.5677
X6.2583Y-3.115
X6.2583Y-3.1543
X6.2976Y-3.115
X6.2976Y-3.1543
X6.3047Y-2.6378
X6.3276Y-2.5496
X6.3311Y-2.908
X6.4035Y-2.6453
X6.4059Y-3.0953
X6.4157Y-3.1543
X6.4441Y-2.5402
X6.4551Y-3.115
X6.4551Y-3.1543
X6.4661Y-2.2661
X6.4709Y-2.6366
X6.4945Y-2.9181
X6.4945Y-2.9575
X6.4945Y-2.9969
X6.4945Y-3.0362
X6.4945Y-3.0756
X6.4945Y-3.115
X6.4945Y-3.1543
X6.5102Y-2.2669
X6.5339Y-2.9181
X6.5339Y-2.9575
X6.5339Y-2.9969
X6.5339Y-3.0362
X6.5339Y-3.0756
X6.5339Y-3.115
X6.5339Y-3.1543
X6.5339Y-3.1937
X6.5575Y-2.2669
X6.5732Y-3.0756
X6.5732Y-3.115
X6.5732Y-3.1543
X6.5732Y-3.1937
X6.6126Y-3.115
X6.6126Y-3.1543
X6.6126Y-3.1937
X6.6142Y-3.7681
X6.6244Y-2.2669
X6.661Y-3.3886
X6.6874Y-3.7575
X6.6894Y-3.5484
X6.6894Y-3.6047
X6.6917Y-3.6921
X6.6921Y-3.3232
X6.6929Y-2.9866
X6.6937Y-3.0236
X6.6941Y-2.5051
X6.6941Y-2.5992
X6.6941Y-2.7185
X6.6941Y-3.2705
X6.6957Y-3.4406
T3
X5.0858Y-3.3646
X5.1067Y-3.3276
T4
X3.7386Y-2.7839
X3.7386Y-2.8839
X3.7386Y-2.9839
X5.6693Y-2.5272
X5.7953Y-2.4287
X5.7953Y-2.6256
T5
X6.6008Y-3.2713
X6.6008Y-3.35
X6.6008Y-3.4287
X6.6008Y-3.5075
X6.6008Y-3.5862
X6.6008Y-3.665
T6
X3.6512Y-3.2813
X3.6512Y-3.3813
X3.6512Y-3.4813
X3.6512Y-3.5813
X3.6512Y-3.6813
X3.9512Y-3.2813
X3.9512Y-3.3813
X3.9512Y-3.4813
X3.9512Y-3.5813
X3.9512Y-3.6813
X5.9933Y-3.4358
X6.4933Y-3.4358
T7
X4.7189Y-2.3512
X4.7189Y-2.5835
X4.8173Y-2.3512
X4.8173Y-2.5835
X4.9157Y-2.3512
X4.9157Y-2.5835
X5.0142Y-2.3512
X5.0142Y-2.5835
T8
X4.5394Y-2.622
X4.5689Y-2.3754
X4.5689Y-2.4754
X6.0866Y-3.5547
X6.0866Y-3.6547
X6.1866Y-3.5547
X6.1866Y-3.6547
X6.2866Y-3.5547
X6.2866Y-3.6547
X6.3866Y-3.5547
X6.3866Y-3.6547
X6.4866Y-3.5547
X6.4866Y-3.6547
T9
X6.261Y-3.272
X6.4579Y-3.272
X6.5776Y-2.3913
X6.5776Y-2.5882
T0
M30
