%TF.GenerationSoftware,KiCad,Pcbnew,(6.0.11)*%
%TF.CreationDate,2024-02-10T16:45:40+09:00*%
%TF.ProjectId,SmallMD,536d616c-6c4d-4442-9e6b-696361645f70,rev?*%
%TF.SameCoordinates,Original*%
%TF.FileFunction,Paste,Bot*%
%TF.FilePolarity,Positive*%
%FSLAX46Y46*%
G04 Gerber Fmt 4.6, Leading zero omitted, Abs format (unit mm)*
G04 Created by KiCad (PCBNEW (6.0.11)) date 2024-02-10 16:45:40*
%MOMM*%
%LPD*%
G01*
G04 APERTURE LIST*
G04 Aperture macros list*
%AMRoundRect*
0 Rectangle with rounded corners*
0 $1 Rounding radius*
0 $2 $3 $4 $5 $6 $7 $8 $9 X,Y pos of 4 corners*
0 Add a 4 corners polygon primitive as box body*
4,1,4,$2,$3,$4,$5,$6,$7,$8,$9,$2,$3,0*
0 Add four circle primitives for the rounded corners*
1,1,$1+$1,$2,$3*
1,1,$1+$1,$4,$5*
1,1,$1+$1,$6,$7*
1,1,$1+$1,$8,$9*
0 Add four rect primitives between the rounded corners*
20,1,$1+$1,$2,$3,$4,$5,0*
20,1,$1+$1,$4,$5,$6,$7,0*
20,1,$1+$1,$6,$7,$8,$9,0*
20,1,$1+$1,$8,$9,$2,$3,0*%
G04 Aperture macros list end*
%ADD10R,0.900000X1.200000*%
%ADD11RoundRect,0.135000X0.135000X0.185000X-0.135000X0.185000X-0.135000X-0.185000X0.135000X-0.185000X0*%
%ADD12RoundRect,0.150000X-0.675000X-0.150000X0.675000X-0.150000X0.675000X0.150000X-0.675000X0.150000X0*%
%ADD13RoundRect,0.250000X-0.475000X0.250000X-0.475000X-0.250000X0.475000X-0.250000X0.475000X0.250000X0*%
%ADD14RoundRect,0.135000X-0.185000X0.135000X-0.185000X-0.135000X0.185000X-0.135000X0.185000X0.135000X0*%
%ADD15RoundRect,0.140000X0.170000X-0.140000X0.170000X0.140000X-0.170000X0.140000X-0.170000X-0.140000X0*%
%ADD16R,1.000000X1.000000*%
%ADD17RoundRect,0.140000X-0.170000X0.140000X-0.170000X-0.140000X0.170000X-0.140000X0.170000X0.140000X0*%
%ADD18RoundRect,0.237500X0.237500X-0.250000X0.237500X0.250000X-0.237500X0.250000X-0.237500X-0.250000X0*%
%ADD19R,2.000000X0.640000*%
%ADD20R,3.050000X2.750000*%
%ADD21R,2.200000X1.200000*%
%ADD22RoundRect,0.200000X-0.200000X-0.275000X0.200000X-0.275000X0.200000X0.275000X-0.200000X0.275000X0*%
%ADD23RoundRect,0.200000X-0.275000X0.200000X-0.275000X-0.200000X0.275000X-0.200000X0.275000X0.200000X0*%
%ADD24RoundRect,0.135000X0.185000X-0.135000X0.185000X0.135000X-0.185000X0.135000X-0.185000X-0.135000X0*%
%ADD25R,2.100000X1.800000*%
%ADD26RoundRect,0.135000X-0.135000X-0.185000X0.135000X-0.185000X0.135000X0.185000X-0.135000X0.185000X0*%
%ADD27RoundRect,0.150000X-0.150000X0.512500X-0.150000X-0.512500X0.150000X-0.512500X0.150000X0.512500X0*%
%ADD28RoundRect,0.140000X-0.140000X-0.170000X0.140000X-0.170000X0.140000X0.170000X-0.140000X0.170000X0*%
%ADD29RoundRect,0.150000X0.150000X-0.675000X0.150000X0.675000X-0.150000X0.675000X-0.150000X-0.675000X0*%
%ADD30RoundRect,0.250000X0.250000X0.475000X-0.250000X0.475000X-0.250000X-0.475000X0.250000X-0.475000X0*%
%ADD31RoundRect,0.200000X0.200000X0.275000X-0.200000X0.275000X-0.200000X-0.275000X0.200000X-0.275000X0*%
%ADD32RoundRect,0.140000X-0.021213X0.219203X-0.219203X0.021213X0.021213X-0.219203X0.219203X-0.021213X0*%
%ADD33RoundRect,0.150000X-0.587500X-0.150000X0.587500X-0.150000X0.587500X0.150000X-0.587500X0.150000X0*%
%ADD34RoundRect,0.140000X0.140000X0.170000X-0.140000X0.170000X-0.140000X-0.170000X0.140000X-0.170000X0*%
%ADD35RoundRect,0.237500X-0.237500X0.250000X-0.237500X-0.250000X0.237500X-0.250000X0.237500X0.250000X0*%
%ADD36RoundRect,0.250000X1.100000X-0.412500X1.100000X0.412500X-1.100000X0.412500X-1.100000X-0.412500X0*%
%ADD37RoundRect,0.150000X0.587500X0.150000X-0.587500X0.150000X-0.587500X-0.150000X0.587500X-0.150000X0*%
%ADD38RoundRect,0.200000X0.275000X-0.200000X0.275000X0.200000X-0.275000X0.200000X-0.275000X-0.200000X0*%
%ADD39RoundRect,0.125000X-0.353553X-0.530330X0.530330X0.353553X0.353553X0.530330X-0.530330X-0.353553X0*%
%ADD40RoundRect,0.125000X0.353553X-0.530330X0.530330X-0.353553X-0.353553X0.530330X-0.530330X0.353553X0*%
G04 APERTURE END LIST*
D10*
%TO.C,D19*%
X159010000Y-74720000D03*
X155710000Y-74720000D03*
%TD*%
D11*
%TO.C,R1*%
X95930000Y-83440000D03*
X94910000Y-83440000D03*
%TD*%
D12*
%TO.C,U10*%
X127644072Y-85340315D03*
X127644072Y-84070315D03*
X127644072Y-82800315D03*
X127644072Y-81530315D03*
X132894072Y-81530315D03*
X132894072Y-82800315D03*
X132894072Y-84070315D03*
X132894072Y-85340315D03*
%TD*%
D13*
%TO.C,C7*%
X115110000Y-72770000D03*
X115110000Y-74670000D03*
%TD*%
D14*
%TO.C,R16*%
X94600000Y-61060000D03*
X94600000Y-62080000D03*
%TD*%
D15*
%TO.C,C23*%
X125160000Y-84230000D03*
X125160000Y-83270000D03*
%TD*%
D12*
%TO.C,U11*%
X142345000Y-84190000D03*
X142345000Y-82920000D03*
X142345000Y-81650000D03*
X142345000Y-80380000D03*
X147595000Y-80380000D03*
X147595000Y-81650000D03*
X147595000Y-82920000D03*
X147595000Y-84190000D03*
%TD*%
D16*
%TO.C,D8*%
X142082000Y-76022000D03*
X142082000Y-73522000D03*
%TD*%
D11*
%TO.C,R34*%
X134877500Y-68916385D03*
X133857500Y-68916385D03*
%TD*%
D14*
%TO.C,R38*%
X132055000Y-92218249D03*
X132055000Y-93238249D03*
%TD*%
%TO.C,R43*%
X133090525Y-92218249D03*
X133090525Y-93238249D03*
%TD*%
D12*
%TO.C,U12*%
X137605000Y-93345000D03*
X137605000Y-92075000D03*
X137605000Y-90805000D03*
X137605000Y-89535000D03*
X142855000Y-89535000D03*
X142855000Y-90805000D03*
X142855000Y-92075000D03*
X142855000Y-93345000D03*
%TD*%
D15*
%TO.C,C22*%
X125140000Y-88225000D03*
X125140000Y-87265000D03*
%TD*%
D17*
%TO.C,C3*%
X129170000Y-77370001D03*
X129170000Y-78330001D03*
%TD*%
D11*
%TO.C,R6*%
X95890000Y-93620000D03*
X94870000Y-93620000D03*
%TD*%
D14*
%TO.C,R74*%
X144560000Y-91510000D03*
X144560000Y-92530000D03*
%TD*%
D18*
%TO.C,R45*%
X151760000Y-60180000D03*
X151760000Y-58355000D03*
%TD*%
D17*
%TO.C,C1*%
X158510000Y-57870000D03*
X158510000Y-58830000D03*
%TD*%
%TO.C,C8*%
X108710000Y-81640000D03*
X108710000Y-82600000D03*
%TD*%
D19*
%TO.C,U9*%
X116929999Y-83960001D03*
X116929999Y-82690001D03*
X116929999Y-81420001D03*
X123229999Y-81420001D03*
X123229999Y-82690001D03*
X123229999Y-83960001D03*
%TD*%
D14*
%TO.C,R15*%
X97820000Y-61070000D03*
X97820000Y-62090000D03*
%TD*%
D20*
%TO.C,U2*%
X131625000Y-76784999D03*
X131625000Y-73734999D03*
X134975000Y-76784999D03*
X134975000Y-73734999D03*
D21*
X139600000Y-72979999D03*
X139600000Y-75259999D03*
X139600000Y-77539999D03*
%TD*%
D10*
%TO.C,D15*%
X133010000Y-87515000D03*
X129710000Y-87515000D03*
%TD*%
D22*
%TO.C,R66*%
X149525000Y-80085000D03*
X151175000Y-80085000D03*
%TD*%
D14*
%TO.C,R71*%
X152460000Y-79025000D03*
X152460000Y-80045000D03*
%TD*%
D23*
%TO.C,R41*%
X110880000Y-82430000D03*
X110880000Y-84080000D03*
%TD*%
D16*
%TO.C,D7*%
X128620000Y-76070000D03*
X128620000Y-73570000D03*
%TD*%
D14*
%TO.C,R14*%
X96760000Y-61060000D03*
X96760000Y-62080000D03*
%TD*%
%TO.C,R37*%
X132055000Y-90228249D03*
X132055000Y-91248249D03*
%TD*%
D24*
%TO.C,R17*%
X141590000Y-78330000D03*
X141590000Y-77310000D03*
%TD*%
D25*
%TO.C,Y1*%
X106700000Y-91828928D03*
X103800000Y-91828928D03*
X103800000Y-89528928D03*
X106700000Y-89528928D03*
%TD*%
D10*
%TO.C,D20*%
X155710000Y-77260000D03*
X159010000Y-77260000D03*
%TD*%
D24*
%TO.C,R59*%
X125180000Y-82230000D03*
X125180000Y-81210000D03*
%TD*%
D26*
%TO.C,R7*%
X160600000Y-57810000D03*
X161620000Y-57810000D03*
%TD*%
D14*
%TO.C,R8*%
X159560000Y-57820000D03*
X159560000Y-58840000D03*
%TD*%
%TO.C,R42*%
X120330000Y-93400000D03*
X120330000Y-94420000D03*
%TD*%
D26*
%TO.C,R48*%
X112170000Y-80745000D03*
X113190000Y-80745000D03*
%TD*%
%TO.C,R54*%
X101900000Y-64900000D03*
X102920000Y-64900000D03*
%TD*%
D14*
%TO.C,R72*%
X169330000Y-78730000D03*
X169330000Y-79750000D03*
%TD*%
D24*
%TO.C,R19*%
X128140000Y-78370000D03*
X128140000Y-77350000D03*
%TD*%
D27*
%TO.C,U6*%
X151770000Y-61970000D03*
X152720000Y-61970000D03*
X153670000Y-61970000D03*
X153670000Y-64245000D03*
X151770000Y-64245000D03*
%TD*%
D20*
%TO.C,U1*%
X121545000Y-73725000D03*
X118195000Y-73725000D03*
X118195000Y-76775000D03*
X121545000Y-76775000D03*
D21*
X126170000Y-72970000D03*
X126170000Y-75250000D03*
X126170000Y-77530000D03*
%TD*%
D28*
%TO.C,C6*%
X141580000Y-72210000D03*
X142540000Y-72210000D03*
%TD*%
%TO.C,C24*%
X109930000Y-65210000D03*
X110890000Y-65210000D03*
%TD*%
D29*
%TO.C,U13*%
X107285000Y-86903929D03*
X106015000Y-86903929D03*
X104745000Y-86903929D03*
X103475000Y-86903929D03*
X103475000Y-81653929D03*
X104745000Y-81653929D03*
X106015000Y-81653929D03*
X107285000Y-81653929D03*
%TD*%
D30*
%TO.C,C17*%
X168160000Y-72120000D03*
X166260000Y-72120000D03*
%TD*%
D23*
%TO.C,R40*%
X110860000Y-85580000D03*
X110860000Y-87230000D03*
%TD*%
D14*
%TO.C,R73*%
X145620000Y-89530000D03*
X145620000Y-90550000D03*
%TD*%
D30*
%TO.C,C18*%
X159160000Y-72120000D03*
X157260000Y-72120000D03*
%TD*%
D14*
%TO.C,R13*%
X95680000Y-61060000D03*
X95680000Y-62080000D03*
%TD*%
%TO.C,R56*%
X111770000Y-60130000D03*
X111770000Y-61150000D03*
%TD*%
D31*
%TO.C,R49*%
X102584048Y-59720000D03*
X100934048Y-59720000D03*
%TD*%
D12*
%TO.C,U5*%
X125050000Y-94003249D03*
X125050000Y-92733249D03*
X125050000Y-91463249D03*
X125050000Y-90193249D03*
X130300000Y-90193249D03*
X130300000Y-91463249D03*
X130300000Y-92733249D03*
X130300000Y-94003249D03*
%TD*%
D31*
%TO.C,R12*%
X124510000Y-70810000D03*
X122860000Y-70810000D03*
%TD*%
D12*
%TO.C,U7*%
X104825000Y-63575000D03*
X104825000Y-62305000D03*
X104825000Y-61035000D03*
X104825000Y-59765000D03*
X110075000Y-59765000D03*
X110075000Y-61035000D03*
X110075000Y-62305000D03*
X110075000Y-63575000D03*
%TD*%
D22*
%TO.C,R64*%
X134735000Y-81555000D03*
X136385000Y-81555000D03*
%TD*%
D26*
%TO.C,R47*%
X112190000Y-88890000D03*
X113210000Y-88890000D03*
%TD*%
D32*
%TO.C,C11*%
X100199411Y-76780589D03*
X99520589Y-77459411D03*
%TD*%
D31*
%TO.C,R11*%
X127845000Y-70800000D03*
X126195000Y-70800000D03*
%TD*%
D28*
%TO.C,C29*%
X154250000Y-86010000D03*
X155210000Y-86010000D03*
%TD*%
D16*
%TO.C,D14*%
X131700000Y-68500000D03*
X131700000Y-66000000D03*
%TD*%
D28*
%TO.C,C30*%
X144530000Y-93480000D03*
X145490000Y-93480000D03*
%TD*%
D33*
%TO.C,Q15*%
X112732500Y-83990000D03*
X112732500Y-82090000D03*
X114607500Y-83040000D03*
%TD*%
D19*
%TO.C,U8*%
X116920000Y-88225000D03*
X116920000Y-86955000D03*
X116920000Y-85685000D03*
X123220000Y-85685000D03*
X123220000Y-86955000D03*
X123220000Y-88225000D03*
%TD*%
D10*
%TO.C,D22*%
X164710000Y-77120000D03*
X168010000Y-77120000D03*
%TD*%
D14*
%TO.C,R75*%
X145630000Y-91510000D03*
X145630000Y-92530000D03*
%TD*%
D30*
%TO.C,C2*%
X136240000Y-70650000D03*
X134340000Y-70650000D03*
%TD*%
D17*
%TO.C,C4*%
X142670000Y-77350000D03*
X142670000Y-78310000D03*
%TD*%
D32*
%TO.C,C12*%
X101279411Y-77950589D03*
X100600589Y-78629411D03*
%TD*%
D28*
%TO.C,C21*%
X132025000Y-94298249D03*
X132985000Y-94298249D03*
%TD*%
D33*
%TO.C,Q14*%
X112712500Y-87565000D03*
X112712500Y-85665000D03*
X114587500Y-86615000D03*
%TD*%
D28*
%TO.C,C20*%
X119254476Y-95427895D03*
X120214476Y-95427895D03*
%TD*%
D34*
%TO.C,C26*%
X143020000Y-85755000D03*
X142060000Y-85755000D03*
%TD*%
D14*
%TO.C,R57*%
X111780000Y-62060000D03*
X111780000Y-63080000D03*
%TD*%
%TO.C,R68*%
X137860000Y-82545000D03*
X137860000Y-83565000D03*
%TD*%
D35*
%TO.C,R44*%
X155390000Y-61785000D03*
X155390000Y-63610000D03*
%TD*%
D11*
%TO.C,R50*%
X115150000Y-88890000D03*
X114130000Y-88890000D03*
%TD*%
%TO.C,R3*%
X95890000Y-88500000D03*
X94870000Y-88500000D03*
%TD*%
%TO.C,R2*%
X95890000Y-85960000D03*
X94870000Y-85960000D03*
%TD*%
D33*
%TO.C,Q2*%
X154902500Y-60240000D03*
X154902500Y-58340000D03*
X156777500Y-59290000D03*
%TD*%
D24*
%TO.C,R60*%
X112790000Y-63070000D03*
X112790000Y-62050000D03*
%TD*%
%TO.C,R10*%
X153180000Y-59240000D03*
X153180000Y-58220000D03*
%TD*%
D36*
%TO.C,C28*%
X150460000Y-85057500D03*
X150460000Y-81932500D03*
%TD*%
D16*
%TO.C,D1*%
X138500000Y-70620000D03*
X141000000Y-70620000D03*
%TD*%
D11*
%TO.C,R4*%
X94830000Y-68630000D03*
X93810000Y-68630000D03*
%TD*%
D14*
%TO.C,R35*%
X119260000Y-91370000D03*
X119260000Y-92390000D03*
%TD*%
D37*
%TO.C,Q16*%
X102577500Y-61300000D03*
X102577500Y-63200000D03*
X100702500Y-62250000D03*
%TD*%
D14*
%TO.C,R36*%
X119270000Y-93390000D03*
X119270000Y-94410000D03*
%TD*%
D11*
%TO.C,R31*%
X134930000Y-67173884D03*
X133910000Y-67173884D03*
%TD*%
D14*
%TO.C,R58*%
X125150000Y-85225000D03*
X125150000Y-86245000D03*
%TD*%
D38*
%TO.C,R65*%
X152960000Y-84920000D03*
X152960000Y-83270000D03*
%TD*%
D36*
%TO.C,C27*%
X135670000Y-86407500D03*
X135670000Y-83282500D03*
%TD*%
D39*
%TO.C,U3*%
X104246089Y-78386745D03*
X103680404Y-77821059D03*
X103114718Y-77255374D03*
X102549033Y-76689689D03*
X101983347Y-76124003D03*
X101417662Y-75558318D03*
X100851977Y-74992632D03*
X100286291Y-74426947D03*
D40*
X100286291Y-72482403D03*
X100851977Y-71916718D03*
X101417662Y-71351032D03*
X101983347Y-70785347D03*
X102549033Y-70219661D03*
X103114718Y-69653976D03*
X103680404Y-69088291D03*
X104246089Y-68522605D03*
D39*
X106190633Y-68522605D03*
X106756318Y-69088291D03*
X107322004Y-69653976D03*
X107887689Y-70219661D03*
X108453375Y-70785347D03*
X109019060Y-71351032D03*
X109584745Y-71916718D03*
X110150431Y-72482403D03*
D40*
X110150431Y-74426947D03*
X109584745Y-74992632D03*
X109019060Y-75558318D03*
X108453375Y-76124003D03*
X107887689Y-76689689D03*
X107322004Y-77255374D03*
X106756318Y-77821059D03*
X106190633Y-78386745D03*
%TD*%
D10*
%TO.C,D16*%
X147870000Y-86275000D03*
X144570000Y-86275000D03*
%TD*%
D12*
%TO.C,U4*%
X112245000Y-95055000D03*
X112245000Y-93785000D03*
X112245000Y-92515000D03*
X112245000Y-91245000D03*
X117495000Y-91245000D03*
X117495000Y-92515000D03*
X117495000Y-93785000D03*
X117495000Y-95055000D03*
%TD*%
D11*
%TO.C,R5*%
X95870000Y-91040000D03*
X94850000Y-91040000D03*
%TD*%
D14*
%TO.C,R70*%
X152730000Y-81055000D03*
X152730000Y-82075000D03*
%TD*%
D11*
%TO.C,R51*%
X115180000Y-80765000D03*
X114160000Y-80765000D03*
%TD*%
%TO.C,R69*%
X139130000Y-81510000D03*
X138110000Y-81510000D03*
%TD*%
%TO.C,R9*%
X159500000Y-59950000D03*
X158480000Y-59950000D03*
%TD*%
D28*
%TO.C,C5*%
X128140000Y-72230000D03*
X129100000Y-72230000D03*
%TD*%
D38*
%TO.C,R63*%
X138150000Y-86390000D03*
X138150000Y-84740000D03*
%TD*%
D34*
%TO.C,C19*%
X153090000Y-65837500D03*
X152130000Y-65837500D03*
%TD*%
%TO.C,C25*%
X128340000Y-86845000D03*
X127380000Y-86845000D03*
%TD*%
D10*
%TO.C,D21*%
X168010000Y-74640000D03*
X164710000Y-74640000D03*
%TD*%
D26*
%TO.C,R18*%
X117680000Y-71110000D03*
X118700000Y-71110000D03*
%TD*%
M02*
