%TF.GenerationSoftware,KiCad,Pcbnew,(6.0.11)*%
%TF.CreationDate,2024-02-29T08:20:34+09:00*%
%TF.ProjectId,Pole,506f6c65-2e6b-4696-9361-645f70636258,rev?*%
%TF.SameCoordinates,Original*%
%TF.FileFunction,Legend,Top*%
%TF.FilePolarity,Positive*%
%FSLAX46Y46*%
G04 Gerber Fmt 4.6, Leading zero omitted, Abs format (unit mm)*
G04 Created by KiCad (PCBNEW (6.0.11)) date 2024-02-29 08:20:34*
%MOMM*%
%LPD*%
G01*
G04 APERTURE LIST*
G04 Aperture macros list*
%AMRoundRect*
0 Rectangle with rounded corners*
0 $1 Rounding radius*
0 $2 $3 $4 $5 $6 $7 $8 $9 X,Y pos of 4 corners*
0 Add a 4 corners polygon primitive as box body*
4,1,4,$2,$3,$4,$5,$6,$7,$8,$9,$2,$3,0*
0 Add four circle primitives for the rounded corners*
1,1,$1+$1,$2,$3*
1,1,$1+$1,$4,$5*
1,1,$1+$1,$6,$7*
1,1,$1+$1,$8,$9*
0 Add four rect primitives between the rounded corners*
20,1,$1+$1,$2,$3,$4,$5,0*
20,1,$1+$1,$4,$5,$6,$7,0*
20,1,$1+$1,$6,$7,$8,$9,0*
20,1,$1+$1,$8,$9,$2,$3,0*%
%AMFreePoly0*
4,1,6,1.000000,0.000000,0.500000,-0.750000,-0.500000,-0.750000,-0.500000,0.750000,0.500000,0.750000,1.000000,0.000000,1.000000,0.000000,$1*%
%AMFreePoly1*
4,1,6,0.500000,-0.750000,-0.650000,-0.750000,-0.150000,0.000000,-0.650000,0.750000,0.500000,0.750000,0.500000,-0.750000,0.500000,-0.750000,$1*%
G04 Aperture macros list end*
%ADD10C,0.130000*%
%ADD11C,0.150000*%
%ADD12C,0.200000*%
%ADD13C,0.320000*%
%ADD14C,0.170000*%
%ADD15C,0.120000*%
%ADD16C,0.152000*%
%ADD17C,0.254000*%
%ADD18C,0.100000*%
%ADD19RoundRect,0.135000X0.135000X0.185000X-0.135000X0.185000X-0.135000X-0.185000X0.135000X-0.185000X0*%
%ADD20R,0.700000X0.900000*%
%ADD21R,1.000000X1.000000*%
%ADD22RoundRect,0.135000X-0.135000X-0.185000X0.135000X-0.185000X0.135000X0.185000X-0.135000X0.185000X0*%
%ADD23C,1.700000*%
%ADD24RoundRect,0.425000X0.425000X0.425000X-0.425000X0.425000X-0.425000X-0.425000X0.425000X-0.425000X0*%
%ADD25RoundRect,0.140000X-0.170000X0.140000X-0.170000X-0.140000X0.170000X-0.140000X0.170000X0.140000X0*%
%ADD26R,0.700000X1.000000*%
%ADD27RoundRect,0.250000X0.475000X-0.250000X0.475000X0.250000X-0.475000X0.250000X-0.475000X-0.250000X0*%
%ADD28RoundRect,0.237500X0.287500X0.237500X-0.287500X0.237500X-0.287500X-0.237500X0.287500X-0.237500X0*%
%ADD29RoundRect,0.250000X-0.250000X-0.475000X0.250000X-0.475000X0.250000X0.475000X-0.250000X0.475000X0*%
%ADD30RoundRect,0.250000X0.600000X0.675000X-0.600000X0.675000X-0.600000X-0.675000X0.600000X-0.675000X0*%
%ADD31O,1.700000X1.850000*%
%ADD32RoundRect,0.200000X0.200000X0.275000X-0.200000X0.275000X-0.200000X-0.275000X0.200000X-0.275000X0*%
%ADD33RoundRect,0.135000X-0.185000X0.135000X-0.185000X-0.135000X0.185000X-0.135000X0.185000X0.135000X0*%
%ADD34C,1.000000*%
%ADD35R,1.900000X1.900000*%
%ADD36C,1.900000*%
%ADD37RoundRect,0.140000X-0.140000X-0.170000X0.140000X-0.170000X0.140000X0.170000X-0.140000X0.170000X0*%
%ADD38RoundRect,0.225000X0.225000X0.250000X-0.225000X0.250000X-0.225000X-0.250000X0.225000X-0.250000X0*%
%ADD39R,1.000000X0.700000*%
%ADD40RoundRect,0.150000X-0.587500X-0.150000X0.587500X-0.150000X0.587500X0.150000X-0.587500X0.150000X0*%
%ADD41RoundRect,0.150000X0.150000X-0.825000X0.150000X0.825000X-0.150000X0.825000X-0.150000X-0.825000X0*%
%ADD42RoundRect,0.225000X-0.250000X0.225000X-0.250000X-0.225000X0.250000X-0.225000X0.250000X0.225000X0*%
%ADD43RoundRect,0.200000X-0.275000X0.200000X-0.275000X-0.200000X0.275000X-0.200000X0.275000X0.200000X0*%
%ADD44C,0.650000*%
%ADD45R,1.240000X0.600000*%
%ADD46R,1.240000X0.300000*%
%ADD47O,2.100000X1.000000*%
%ADD48O,1.800000X1.000000*%
%ADD49C,2.000000*%
%ADD50R,1.400000X1.600000*%
%ADD51RoundRect,0.150000X0.150000X-0.587500X0.150000X0.587500X-0.150000X0.587500X-0.150000X-0.587500X0*%
%ADD52RoundRect,0.237500X-0.287500X-0.237500X0.287500X-0.237500X0.287500X0.237500X-0.287500X0.237500X0*%
%ADD53RoundRect,0.140000X0.170000X-0.140000X0.170000X0.140000X-0.170000X0.140000X-0.170000X-0.140000X0*%
%ADD54RoundRect,0.135000X0.185000X-0.135000X0.185000X0.135000X-0.185000X0.135000X-0.185000X-0.135000X0*%
%ADD55R,1.200000X2.200000*%
%ADD56R,5.800000X6.400000*%
%ADD57RoundRect,0.150000X0.150000X-0.675000X0.150000X0.675000X-0.150000X0.675000X-0.150000X-0.675000X0*%
%ADD58RoundRect,0.381000X-0.381000X0.381000X-0.381000X-0.381000X0.381000X-0.381000X0.381000X0.381000X0*%
%ADD59C,1.524000*%
%ADD60RoundRect,0.150000X-0.150000X0.587500X-0.150000X-0.587500X0.150000X-0.587500X0.150000X0.587500X0*%
%ADD61R,0.900000X1.200000*%
%ADD62RoundRect,0.237500X0.237500X-0.300000X0.237500X0.300000X-0.237500X0.300000X-0.237500X-0.300000X0*%
%ADD63RoundRect,0.250001X0.799999X-1.999999X0.799999X1.999999X-0.799999X1.999999X-0.799999X-1.999999X0*%
%ADD64RoundRect,0.250000X0.250000X0.475000X-0.250000X0.475000X-0.250000X-0.475000X0.250000X-0.475000X0*%
%ADD65RoundRect,0.200000X-0.200000X-0.275000X0.200000X-0.275000X0.200000X0.275000X-0.200000X0.275000X0*%
%ADD66R,0.600000X1.500000*%
%ADD67R,2.800000X2.400000*%
%ADD68FreePoly0,0.000000*%
%ADD69FreePoly1,0.000000*%
%ADD70R,1.500000X1.500000*%
%ADD71RoundRect,0.250000X-0.675000X0.600000X-0.675000X-0.600000X0.675000X-0.600000X0.675000X0.600000X0*%
%ADD72O,1.850000X1.700000*%
%ADD73RoundRect,0.250001X-1.999999X-0.799999X1.999999X-0.799999X1.999999X0.799999X-1.999999X0.799999X0*%
%ADD74RoundRect,0.225000X-0.225000X-0.250000X0.225000X-0.250000X0.225000X0.250000X-0.225000X0.250000X0*%
%ADD75R,2.413000X5.334000*%
%ADD76RoundRect,0.150000X0.587500X0.150000X-0.587500X0.150000X-0.587500X-0.150000X0.587500X-0.150000X0*%
%ADD77RoundRect,0.250000X-0.475000X0.250000X-0.475000X-0.250000X0.475000X-0.250000X0.475000X0.250000X0*%
%ADD78RoundRect,0.200000X0.275000X-0.200000X0.275000X0.200000X-0.275000X0.200000X-0.275000X-0.200000X0*%
%ADD79R,1.600000X1.600000*%
%ADD80C,1.600000*%
%ADD81C,1.400000*%
%ADD82R,3.500000X3.500000*%
%ADD83C,3.500000*%
%ADD84C,3.000000*%
%ADD85O,1.600000X1.600000*%
%ADD86R,2.200000X1.200000*%
%ADD87R,6.400000X5.800000*%
%ADD88O,3.500000X3.500000*%
%ADD89R,1.905000X2.000000*%
%ADD90O,1.905000X2.000000*%
%ADD91RoundRect,0.250000X-0.600000X-0.675000X0.600000X-0.675000X0.600000X0.675000X-0.600000X0.675000X0*%
%ADD92R,1.700000X1.700000*%
%ADD93O,1.700000X1.700000*%
%ADD94RoundRect,0.140000X0.140000X0.170000X-0.140000X0.170000X-0.140000X-0.170000X0.140000X-0.170000X0*%
%ADD95R,1.150000X1.500000*%
%ADD96R,1.500000X0.900000*%
%ADD97R,0.900000X1.500000*%
%ADD98RoundRect,1.625000X1.625000X1.625000X-1.625000X1.625000X-1.625000X-1.625000X1.625000X-1.625000X0*%
%ADD99R,1.200000X0.900000*%
G04 APERTURE END LIST*
D10*
X203550000Y-113621428D02*
X204311904Y-113621428D01*
X203930952Y-114002380D02*
X203930952Y-113240476D01*
X204692857Y-113002380D02*
X205311904Y-113002380D01*
X204978571Y-113383333D01*
X205121428Y-113383333D01*
X205216666Y-113430952D01*
X205264285Y-113478571D01*
X205311904Y-113573809D01*
X205311904Y-113811904D01*
X205264285Y-113907142D01*
X205216666Y-113954761D01*
X205121428Y-114002380D01*
X204835714Y-114002380D01*
X204740476Y-113954761D01*
X204692857Y-113907142D01*
X205740476Y-113907142D02*
X205788095Y-113954761D01*
X205740476Y-114002380D01*
X205692857Y-113954761D01*
X205740476Y-113907142D01*
X205740476Y-114002380D01*
X206121428Y-113002380D02*
X206740476Y-113002380D01*
X206407142Y-113383333D01*
X206550000Y-113383333D01*
X206645238Y-113430952D01*
X206692857Y-113478571D01*
X206740476Y-113573809D01*
X206740476Y-113811904D01*
X206692857Y-113907142D01*
X206645238Y-113954761D01*
X206550000Y-114002380D01*
X206264285Y-114002380D01*
X206169047Y-113954761D01*
X206121428Y-113907142D01*
X207026190Y-113002380D02*
X207359523Y-114002380D01*
X207692857Y-113002380D01*
X155550000Y-105102380D02*
X155550000Y-104102380D01*
X156216666Y-104102380D02*
X156407142Y-104102380D01*
X156502380Y-104150000D01*
X156597619Y-104245238D01*
X156645238Y-104435714D01*
X156645238Y-104769047D01*
X156597619Y-104959523D01*
X156502380Y-105054761D01*
X156407142Y-105102380D01*
X156216666Y-105102380D01*
X156121428Y-105054761D01*
X156026190Y-104959523D01*
X155978571Y-104769047D01*
X155978571Y-104435714D01*
X156026190Y-104245238D01*
X156121428Y-104150000D01*
X156216666Y-104102380D01*
X157026190Y-104197619D02*
X157073809Y-104150000D01*
X157169047Y-104102380D01*
X157407142Y-104102380D01*
X157502380Y-104150000D01*
X157550000Y-104197619D01*
X157597619Y-104292857D01*
X157597619Y-104388095D01*
X157550000Y-104530952D01*
X156978571Y-105102380D01*
X157597619Y-105102380D01*
X203564285Y-111771428D02*
X204326190Y-111771428D01*
X203945238Y-112152380D02*
X203945238Y-111390476D01*
X205278571Y-111152380D02*
X204802380Y-111152380D01*
X204754761Y-111628571D01*
X204802380Y-111580952D01*
X204897619Y-111533333D01*
X205135714Y-111533333D01*
X205230952Y-111580952D01*
X205278571Y-111628571D01*
X205326190Y-111723809D01*
X205326190Y-111961904D01*
X205278571Y-112057142D01*
X205230952Y-112104761D01*
X205135714Y-112152380D01*
X204897619Y-112152380D01*
X204802380Y-112104761D01*
X204754761Y-112057142D01*
X205611904Y-111152380D02*
X205945238Y-112152380D01*
X206278571Y-111152380D01*
X204228571Y-107702380D02*
X203752380Y-107702380D01*
X203704761Y-108178571D01*
X203752380Y-108130952D01*
X203847619Y-108083333D01*
X204085714Y-108083333D01*
X204180952Y-108130952D01*
X204228571Y-108178571D01*
X204276190Y-108273809D01*
X204276190Y-108511904D01*
X204228571Y-108607142D01*
X204180952Y-108654761D01*
X204085714Y-108702380D01*
X203847619Y-108702380D01*
X203752380Y-108654761D01*
X203704761Y-108607142D01*
X204561904Y-107702380D02*
X204895238Y-108702380D01*
X205228571Y-107702380D01*
X205514285Y-108654761D02*
X205657142Y-108702380D01*
X205895238Y-108702380D01*
X205990476Y-108654761D01*
X206038095Y-108607142D01*
X206085714Y-108511904D01*
X206085714Y-108416666D01*
X206038095Y-108321428D01*
X205990476Y-108273809D01*
X205895238Y-108226190D01*
X205704761Y-108178571D01*
X205609523Y-108130952D01*
X205561904Y-108083333D01*
X205514285Y-107988095D01*
X205514285Y-107892857D01*
X205561904Y-107797619D01*
X205609523Y-107750000D01*
X205704761Y-107702380D01*
X205942857Y-107702380D01*
X206085714Y-107750000D01*
X206704761Y-108226190D02*
X206704761Y-108702380D01*
X206371428Y-107702380D02*
X206704761Y-108226190D01*
X207038095Y-107702380D01*
X207323809Y-108654761D02*
X207466666Y-108702380D01*
X207704761Y-108702380D01*
X207800000Y-108654761D01*
X207847619Y-108607142D01*
X207895238Y-108511904D01*
X207895238Y-108416666D01*
X207847619Y-108321428D01*
X207800000Y-108273809D01*
X207704761Y-108226190D01*
X207514285Y-108178571D01*
X207419047Y-108130952D01*
X207371428Y-108083333D01*
X207323809Y-107988095D01*
X207323809Y-107892857D01*
X207371428Y-107797619D01*
X207419047Y-107750000D01*
X207514285Y-107702380D01*
X207752380Y-107702380D01*
X207895238Y-107750000D01*
X162623809Y-103302380D02*
X162623809Y-102302380D01*
X163290476Y-102302380D02*
X163480952Y-102302380D01*
X163576190Y-102350000D01*
X163671428Y-102445238D01*
X163719047Y-102635714D01*
X163719047Y-102969047D01*
X163671428Y-103159523D01*
X163576190Y-103254761D01*
X163480952Y-103302380D01*
X163290476Y-103302380D01*
X163195238Y-103254761D01*
X163100000Y-103159523D01*
X163052380Y-102969047D01*
X163052380Y-102635714D01*
X163100000Y-102445238D01*
X163195238Y-102350000D01*
X163290476Y-102302380D01*
X164671428Y-103302380D02*
X164100000Y-103302380D01*
X164385714Y-103302380D02*
X164385714Y-102302380D01*
X164290476Y-102445238D01*
X164195238Y-102540476D01*
X164100000Y-102588095D01*
X165528571Y-102635714D02*
X165528571Y-103302380D01*
X165290476Y-102254761D02*
X165052380Y-102969047D01*
X165671428Y-102969047D01*
X126802380Y-71635714D02*
X126564285Y-71635714D01*
X126564285Y-70207142D01*
X126802380Y-70207142D01*
X127754761Y-71302380D02*
X127421428Y-70826190D01*
X127183333Y-71302380D02*
X127183333Y-70302380D01*
X127564285Y-70302380D01*
X127659523Y-70350000D01*
X127707142Y-70397619D01*
X127754761Y-70492857D01*
X127754761Y-70635714D01*
X127707142Y-70730952D01*
X127659523Y-70778571D01*
X127564285Y-70826190D01*
X127183333Y-70826190D01*
X128135714Y-71254761D02*
X128278571Y-71302380D01*
X128516666Y-71302380D01*
X128611904Y-71254761D01*
X128659523Y-71207142D01*
X128707142Y-71111904D01*
X128707142Y-71016666D01*
X128659523Y-70921428D01*
X128611904Y-70873809D01*
X128516666Y-70826190D01*
X128326190Y-70778571D01*
X128230952Y-70730952D01*
X128183333Y-70683333D01*
X128135714Y-70588095D01*
X128135714Y-70492857D01*
X128183333Y-70397619D01*
X128230952Y-70350000D01*
X128326190Y-70302380D01*
X128564285Y-70302380D01*
X128707142Y-70350000D01*
X129564285Y-70635714D02*
X129564285Y-71302380D01*
X129326190Y-70254761D02*
X129088095Y-70969047D01*
X129707142Y-70969047D01*
X130230952Y-70730952D02*
X130135714Y-70683333D01*
X130088095Y-70635714D01*
X130040476Y-70540476D01*
X130040476Y-70492857D01*
X130088095Y-70397619D01*
X130135714Y-70350000D01*
X130230952Y-70302380D01*
X130421428Y-70302380D01*
X130516666Y-70350000D01*
X130564285Y-70397619D01*
X130611904Y-70492857D01*
X130611904Y-70540476D01*
X130564285Y-70635714D01*
X130516666Y-70683333D01*
X130421428Y-70730952D01*
X130230952Y-70730952D01*
X130135714Y-70778571D01*
X130088095Y-70826190D01*
X130040476Y-70921428D01*
X130040476Y-71111904D01*
X130088095Y-71207142D01*
X130135714Y-71254761D01*
X130230952Y-71302380D01*
X130421428Y-71302380D01*
X130516666Y-71254761D01*
X130564285Y-71207142D01*
X130611904Y-71111904D01*
X130611904Y-70921428D01*
X130564285Y-70826190D01*
X130516666Y-70778571D01*
X130421428Y-70730952D01*
X131516666Y-70302380D02*
X131040476Y-70302380D01*
X130992857Y-70778571D01*
X131040476Y-70730952D01*
X131135714Y-70683333D01*
X131373809Y-70683333D01*
X131469047Y-70730952D01*
X131516666Y-70778571D01*
X131564285Y-70873809D01*
X131564285Y-71111904D01*
X131516666Y-71207142D01*
X131469047Y-71254761D01*
X131373809Y-71302380D01*
X131135714Y-71302380D01*
X131040476Y-71254761D01*
X130992857Y-71207142D01*
X131897619Y-71635714D02*
X132135714Y-71635714D01*
X132135714Y-70207142D01*
X131897619Y-70207142D01*
D11*
X140147619Y-113080952D02*
X139433333Y-113080952D01*
X139290476Y-113033333D01*
X139195238Y-112938095D01*
X139147619Y-112795238D01*
X139147619Y-112700000D01*
X139147619Y-114033333D02*
X139147619Y-113557142D01*
X140147619Y-113557142D01*
X139242857Y-114938095D02*
X139195238Y-114890476D01*
X139147619Y-114747619D01*
X139147619Y-114652380D01*
X139195238Y-114509523D01*
X139290476Y-114414285D01*
X139385714Y-114366666D01*
X139576190Y-114319047D01*
X139719047Y-114319047D01*
X139909523Y-114366666D01*
X140004761Y-114414285D01*
X140100000Y-114509523D01*
X140147619Y-114652380D01*
X140147619Y-114747619D01*
X140100000Y-114890476D01*
X140052380Y-114938095D01*
X140147619Y-115652380D02*
X139433333Y-115652380D01*
X139290476Y-115604761D01*
X139195238Y-115509523D01*
X139147619Y-115366666D01*
X139147619Y-115271428D01*
X139147619Y-116604761D02*
X139147619Y-116128571D01*
X140147619Y-116128571D01*
X139242857Y-117509523D02*
X139195238Y-117461904D01*
X139147619Y-117319047D01*
X139147619Y-117223809D01*
X139195238Y-117080952D01*
X139290476Y-116985714D01*
X139385714Y-116938095D01*
X139576190Y-116890476D01*
X139719047Y-116890476D01*
X139909523Y-116938095D01*
X140004761Y-116985714D01*
X140100000Y-117080952D01*
X140147619Y-117223809D01*
X140147619Y-117319047D01*
X140100000Y-117461904D01*
X140052380Y-117509523D01*
X140147619Y-118223809D02*
X139433333Y-118223809D01*
X139290476Y-118176190D01*
X139195238Y-118080952D01*
X139147619Y-117938095D01*
X139147619Y-117842857D01*
X139147619Y-119176190D02*
X139147619Y-118700000D01*
X140147619Y-118700000D01*
X139242857Y-120080952D02*
X139195238Y-120033333D01*
X139147619Y-119890476D01*
X139147619Y-119795238D01*
X139195238Y-119652380D01*
X139290476Y-119557142D01*
X139385714Y-119509523D01*
X139576190Y-119461904D01*
X139719047Y-119461904D01*
X139909523Y-119509523D01*
X140004761Y-119557142D01*
X140100000Y-119652380D01*
X140147619Y-119795238D01*
X140147619Y-119890476D01*
X140100000Y-120033333D01*
X140052380Y-120080952D01*
X140147619Y-120795238D02*
X139433333Y-120795238D01*
X139290476Y-120747619D01*
X139195238Y-120652380D01*
X139147619Y-120509523D01*
X139147619Y-120414285D01*
X139147619Y-121747619D02*
X139147619Y-121271428D01*
X140147619Y-121271428D01*
X139242857Y-122652380D02*
X139195238Y-122604761D01*
X139147619Y-122461904D01*
X139147619Y-122366666D01*
X139195238Y-122223809D01*
X139290476Y-122128571D01*
X139385714Y-122080952D01*
X139576190Y-122033333D01*
X139719047Y-122033333D01*
X139909523Y-122080952D01*
X140004761Y-122128571D01*
X140100000Y-122223809D01*
X140147619Y-122366666D01*
X140147619Y-122461904D01*
X140100000Y-122604761D01*
X140052380Y-122652380D01*
D12*
X213735714Y-122828571D02*
X213735714Y-121328571D01*
X214307142Y-121328571D01*
X214450000Y-121400000D01*
X214521428Y-121471428D01*
X214592857Y-121614285D01*
X214592857Y-121828571D01*
X214521428Y-121971428D01*
X214450000Y-122042857D01*
X214307142Y-122114285D01*
X213735714Y-122114285D01*
X215521428Y-121328571D02*
X215807142Y-121328571D01*
X215950000Y-121400000D01*
X216092857Y-121542857D01*
X216164285Y-121828571D01*
X216164285Y-122328571D01*
X216092857Y-122614285D01*
X215950000Y-122757142D01*
X215807142Y-122828571D01*
X215521428Y-122828571D01*
X215378571Y-122757142D01*
X215235714Y-122614285D01*
X215164285Y-122328571D01*
X215164285Y-121828571D01*
X215235714Y-121542857D01*
X215378571Y-121400000D01*
X215521428Y-121328571D01*
X216664285Y-121328571D02*
X217021428Y-122828571D01*
X217307142Y-121757142D01*
X217592857Y-122828571D01*
X217950000Y-121328571D01*
X218521428Y-122042857D02*
X219021428Y-122042857D01*
X219235714Y-122828571D02*
X218521428Y-122828571D01*
X218521428Y-121328571D01*
X219235714Y-121328571D01*
X220735714Y-122828571D02*
X220235714Y-122114285D01*
X219878571Y-122828571D02*
X219878571Y-121328571D01*
X220450000Y-121328571D01*
X220592857Y-121400000D01*
X220664285Y-121471428D01*
X220735714Y-121614285D01*
X220735714Y-121828571D01*
X220664285Y-121971428D01*
X220592857Y-122042857D01*
X220450000Y-122114285D01*
X219878571Y-122114285D01*
D10*
X204247619Y-109402380D02*
X203771428Y-109402380D01*
X203723809Y-109878571D01*
X203771428Y-109830952D01*
X203866666Y-109783333D01*
X204104761Y-109783333D01*
X204200000Y-109830952D01*
X204247619Y-109878571D01*
X204295238Y-109973809D01*
X204295238Y-110211904D01*
X204247619Y-110307142D01*
X204200000Y-110354761D01*
X204104761Y-110402380D01*
X203866666Y-110402380D01*
X203771428Y-110354761D01*
X203723809Y-110307142D01*
X204580952Y-109402380D02*
X204914285Y-110402380D01*
X205247619Y-109402380D01*
X205580952Y-110402380D02*
X205580952Y-109402380D01*
X206057142Y-110402380D02*
X206057142Y-109402380D01*
X206628571Y-110402380D01*
X206628571Y-109402380D01*
X207104761Y-110402380D02*
X207104761Y-109402380D01*
X207342857Y-109402380D01*
X207485714Y-109450000D01*
X207580952Y-109545238D01*
X207628571Y-109640476D01*
X207676190Y-109830952D01*
X207676190Y-109973809D01*
X207628571Y-110164285D01*
X207580952Y-110259523D01*
X207485714Y-110354761D01*
X207342857Y-110402380D01*
X207104761Y-110402380D01*
X171573809Y-112652380D02*
X171573809Y-111652380D01*
X172240476Y-111652380D02*
X172430952Y-111652380D01*
X172526190Y-111700000D01*
X172621428Y-111795238D01*
X172669047Y-111985714D01*
X172669047Y-112319047D01*
X172621428Y-112509523D01*
X172526190Y-112604761D01*
X172430952Y-112652380D01*
X172240476Y-112652380D01*
X172145238Y-112604761D01*
X172050000Y-112509523D01*
X172002380Y-112319047D01*
X172002380Y-111985714D01*
X172050000Y-111795238D01*
X172145238Y-111700000D01*
X172240476Y-111652380D01*
X173050000Y-111747619D02*
X173097619Y-111700000D01*
X173192857Y-111652380D01*
X173430952Y-111652380D01*
X173526190Y-111700000D01*
X173573809Y-111747619D01*
X173621428Y-111842857D01*
X173621428Y-111938095D01*
X173573809Y-112080952D01*
X173002380Y-112652380D01*
X173621428Y-112652380D01*
X174002380Y-111747619D02*
X174050000Y-111700000D01*
X174145238Y-111652380D01*
X174383333Y-111652380D01*
X174478571Y-111700000D01*
X174526190Y-111747619D01*
X174573809Y-111842857D01*
X174573809Y-111938095D01*
X174526190Y-112080952D01*
X173954761Y-112652380D01*
X174573809Y-112652380D01*
X190959523Y-73135714D02*
X190721428Y-73135714D01*
X190721428Y-71707142D01*
X190959523Y-71707142D01*
X191816666Y-72802380D02*
X191340476Y-72802380D01*
X191340476Y-71802380D01*
X192150000Y-72278571D02*
X192483333Y-72278571D01*
X192626190Y-72802380D02*
X192150000Y-72802380D01*
X192150000Y-71802380D01*
X192626190Y-71802380D01*
X193054761Y-72802380D02*
X193054761Y-71802380D01*
X193292857Y-71802380D01*
X193435714Y-71850000D01*
X193530952Y-71945238D01*
X193578571Y-72040476D01*
X193626190Y-72230952D01*
X193626190Y-72373809D01*
X193578571Y-72564285D01*
X193530952Y-72659523D01*
X193435714Y-72754761D01*
X193292857Y-72802380D01*
X193054761Y-72802380D01*
X193911904Y-71802380D02*
X194483333Y-71802380D01*
X194197619Y-72802380D02*
X194197619Y-71802380D01*
X195245238Y-72802380D02*
X195245238Y-72278571D01*
X195197619Y-72183333D01*
X195102380Y-72135714D01*
X194911904Y-72135714D01*
X194816666Y-72183333D01*
X195245238Y-72754761D02*
X195150000Y-72802380D01*
X194911904Y-72802380D01*
X194816666Y-72754761D01*
X194769047Y-72659523D01*
X194769047Y-72564285D01*
X194816666Y-72469047D01*
X194911904Y-72421428D01*
X195150000Y-72421428D01*
X195245238Y-72373809D01*
X195721428Y-72135714D02*
X195721428Y-73135714D01*
X195721428Y-72183333D02*
X195816666Y-72135714D01*
X196007142Y-72135714D01*
X196102380Y-72183333D01*
X196150000Y-72230952D01*
X196197619Y-72326190D01*
X196197619Y-72611904D01*
X196150000Y-72707142D01*
X196102380Y-72754761D01*
X196007142Y-72802380D01*
X195816666Y-72802380D01*
X195721428Y-72754761D01*
X197007142Y-72754761D02*
X196911904Y-72802380D01*
X196721428Y-72802380D01*
X196626190Y-72754761D01*
X196578571Y-72659523D01*
X196578571Y-72278571D01*
X196626190Y-72183333D01*
X196721428Y-72135714D01*
X196911904Y-72135714D01*
X197007142Y-72183333D01*
X197054761Y-72278571D01*
X197054761Y-72373809D01*
X196578571Y-72469047D01*
X197673809Y-71802380D02*
X197769047Y-71802380D01*
X197864285Y-71850000D01*
X197911904Y-71897619D01*
X197959523Y-71992857D01*
X198007142Y-72183333D01*
X198007142Y-72421428D01*
X197959523Y-72611904D01*
X197911904Y-72707142D01*
X197864285Y-72754761D01*
X197769047Y-72802380D01*
X197673809Y-72802380D01*
X197578571Y-72754761D01*
X197530952Y-72707142D01*
X197483333Y-72611904D01*
X197435714Y-72421428D01*
X197435714Y-72183333D01*
X197483333Y-71992857D01*
X197530952Y-71897619D01*
X197578571Y-71850000D01*
X197673809Y-71802380D01*
X198340476Y-73135714D02*
X198578571Y-73135714D01*
X198578571Y-71707142D01*
X198340476Y-71707142D01*
X185609523Y-69385714D02*
X185371428Y-69385714D01*
X185371428Y-67957142D01*
X185609523Y-67957142D01*
X186466666Y-69052380D02*
X185990476Y-69052380D01*
X185990476Y-68052380D01*
X186800000Y-68528571D02*
X187133333Y-68528571D01*
X187276190Y-69052380D02*
X186800000Y-69052380D01*
X186800000Y-68052380D01*
X187276190Y-68052380D01*
X187704761Y-69052380D02*
X187704761Y-68052380D01*
X187942857Y-68052380D01*
X188085714Y-68100000D01*
X188180952Y-68195238D01*
X188228571Y-68290476D01*
X188276190Y-68480952D01*
X188276190Y-68623809D01*
X188228571Y-68814285D01*
X188180952Y-68909523D01*
X188085714Y-69004761D01*
X187942857Y-69052380D01*
X187704761Y-69052380D01*
X188561904Y-68052380D02*
X189133333Y-68052380D01*
X188847619Y-69052380D02*
X188847619Y-68052380D01*
X189895238Y-69052380D02*
X189895238Y-68528571D01*
X189847619Y-68433333D01*
X189752380Y-68385714D01*
X189561904Y-68385714D01*
X189466666Y-68433333D01*
X189895238Y-69004761D02*
X189800000Y-69052380D01*
X189561904Y-69052380D01*
X189466666Y-69004761D01*
X189419047Y-68909523D01*
X189419047Y-68814285D01*
X189466666Y-68719047D01*
X189561904Y-68671428D01*
X189800000Y-68671428D01*
X189895238Y-68623809D01*
X190371428Y-68385714D02*
X190371428Y-69385714D01*
X190371428Y-68433333D02*
X190466666Y-68385714D01*
X190657142Y-68385714D01*
X190752380Y-68433333D01*
X190800000Y-68480952D01*
X190847619Y-68576190D01*
X190847619Y-68861904D01*
X190800000Y-68957142D01*
X190752380Y-69004761D01*
X190657142Y-69052380D01*
X190466666Y-69052380D01*
X190371428Y-69004761D01*
X191657142Y-69004761D02*
X191561904Y-69052380D01*
X191371428Y-69052380D01*
X191276190Y-69004761D01*
X191228571Y-68909523D01*
X191228571Y-68528571D01*
X191276190Y-68433333D01*
X191371428Y-68385714D01*
X191561904Y-68385714D01*
X191657142Y-68433333D01*
X191704761Y-68528571D01*
X191704761Y-68623809D01*
X191228571Y-68719047D01*
X192085714Y-68147619D02*
X192133333Y-68100000D01*
X192228571Y-68052380D01*
X192466666Y-68052380D01*
X192561904Y-68100000D01*
X192609523Y-68147619D01*
X192657142Y-68242857D01*
X192657142Y-68338095D01*
X192609523Y-68480952D01*
X192038095Y-69052380D01*
X192657142Y-69052380D01*
X192990476Y-69385714D02*
X193228571Y-69385714D01*
X193228571Y-67957142D01*
X192990476Y-67957142D01*
D13*
X218135714Y-70814285D02*
X219964285Y-70814285D01*
X217907142Y-72871428D02*
X220421428Y-72871428D01*
X217221428Y-74471428D02*
X220878571Y-74471428D01*
X217907142Y-71728571D02*
X217907142Y-72871428D01*
X217907142Y-71728571D02*
X220421428Y-71728571D01*
X220421428Y-72871428D01*
X216307142Y-69214285D02*
X216307142Y-72642857D01*
X217221428Y-73557142D01*
X219507142Y-69900000D02*
X220878571Y-71271428D01*
X220878571Y-69900000D02*
X219964285Y-70357142D01*
X217678571Y-69900000D02*
X218135714Y-70357142D01*
X216992857Y-71500000D01*
X220192857Y-69214285D02*
X219507142Y-69900000D01*
X218364285Y-73328571D02*
X218364285Y-74014285D01*
X219278571Y-68985714D02*
X219735714Y-70357142D01*
X219964285Y-73100000D02*
X219507142Y-74014285D01*
X216992857Y-70128571D02*
X216535714Y-71042857D01*
X216078571Y-72642857D02*
X215392857Y-74471428D01*
X217450000Y-69442857D02*
X218821428Y-69214285D01*
X218135714Y-70585714D01*
X215621428Y-70357142D02*
X215164285Y-71500000D01*
X216307142Y-71500000D02*
X215850000Y-73785714D01*
D14*
X213270000Y-75533333D02*
X214070000Y-75533333D01*
X213670000Y-76933333D02*
X213670000Y-75533333D01*
X214736666Y-76933333D02*
X214603333Y-76866666D01*
X214536666Y-76800000D01*
X214470000Y-76666666D01*
X214470000Y-76266666D01*
X214536666Y-76133333D01*
X214603333Y-76066666D01*
X214736666Y-76000000D01*
X214936666Y-76000000D01*
X215070000Y-76066666D01*
X215136666Y-76133333D01*
X215203333Y-76266666D01*
X215203333Y-76666666D01*
X215136666Y-76800000D01*
X215070000Y-76866666D01*
X214936666Y-76933333D01*
X214736666Y-76933333D01*
X215803333Y-76933333D02*
X215803333Y-76000000D01*
X215803333Y-76133333D02*
X215870000Y-76066666D01*
X216003333Y-76000000D01*
X216203333Y-76000000D01*
X216336666Y-76066666D01*
X216403333Y-76200000D01*
X216403333Y-76933333D01*
X216403333Y-76200000D02*
X216470000Y-76066666D01*
X216603333Y-76000000D01*
X216803333Y-76000000D01*
X216936666Y-76066666D01*
X217003333Y-76200000D01*
X217003333Y-76933333D01*
X217870000Y-76933333D02*
X217736666Y-76866666D01*
X217670000Y-76800000D01*
X217603333Y-76666666D01*
X217603333Y-76266666D01*
X217670000Y-76133333D01*
X217736666Y-76066666D01*
X217870000Y-76000000D01*
X218070000Y-76000000D01*
X218203333Y-76066666D01*
X218270000Y-76133333D01*
X218336666Y-76266666D01*
X218336666Y-76666666D01*
X218270000Y-76800000D01*
X218203333Y-76866666D01*
X218070000Y-76933333D01*
X217870000Y-76933333D01*
X218870000Y-76866666D02*
X219003333Y-76933333D01*
X219270000Y-76933333D01*
X219403333Y-76866666D01*
X219470000Y-76733333D01*
X219470000Y-76666666D01*
X219403333Y-76533333D01*
X219270000Y-76466666D01*
X219070000Y-76466666D01*
X218936666Y-76400000D01*
X218870000Y-76266666D01*
X218870000Y-76200000D01*
X218936666Y-76066666D01*
X219070000Y-76000000D01*
X219270000Y-76000000D01*
X219403333Y-76066666D01*
X220070000Y-76933333D02*
X220070000Y-75533333D01*
X220670000Y-76933333D02*
X220670000Y-76200000D01*
X220603333Y-76066666D01*
X220470000Y-76000000D01*
X220270000Y-76000000D01*
X220136666Y-76066666D01*
X220070000Y-76133333D01*
X221336666Y-76933333D02*
X221336666Y-76000000D01*
X221336666Y-75533333D02*
X221270000Y-75600000D01*
X221336666Y-75666666D01*
X221403333Y-75600000D01*
X221336666Y-75533333D01*
X221336666Y-75666666D01*
X222003333Y-76933333D02*
X222003333Y-75533333D01*
X222003333Y-76066666D02*
X222136666Y-76000000D01*
X222403333Y-76000000D01*
X222536666Y-76066666D01*
X222603333Y-76133333D01*
X222670000Y-76266666D01*
X222670000Y-76666666D01*
X222603333Y-76800000D01*
X222536666Y-76866666D01*
X222403333Y-76933333D01*
X222136666Y-76933333D01*
X222003333Y-76866666D01*
X223270000Y-76933333D02*
X223270000Y-76000000D01*
X223270000Y-75533333D02*
X223203333Y-75600000D01*
X223270000Y-75666666D01*
X223336666Y-75600000D01*
X223270000Y-75533333D01*
X223270000Y-75666666D01*
D12*
X146628571Y-101021428D02*
X145914285Y-101521428D01*
X146628571Y-101878571D02*
X145128571Y-101878571D01*
X145128571Y-101307142D01*
X145200000Y-101164285D01*
X145271428Y-101092857D01*
X145414285Y-101021428D01*
X145628571Y-101021428D01*
X145771428Y-101092857D01*
X145842857Y-101164285D01*
X145914285Y-101307142D01*
X145914285Y-101878571D01*
X146557142Y-100450000D02*
X146628571Y-100235714D01*
X146628571Y-99878571D01*
X146557142Y-99735714D01*
X146485714Y-99664285D01*
X146342857Y-99592857D01*
X146200000Y-99592857D01*
X146057142Y-99664285D01*
X145985714Y-99735714D01*
X145914285Y-99878571D01*
X145842857Y-100164285D01*
X145771428Y-100307142D01*
X145700000Y-100378571D01*
X145557142Y-100450000D01*
X145414285Y-100450000D01*
X145271428Y-100378571D01*
X145200000Y-100307142D01*
X145128571Y-100164285D01*
X145128571Y-99807142D01*
X145200000Y-99592857D01*
X145128571Y-99164285D02*
X145128571Y-98307142D01*
X146628571Y-98735714D02*
X145128571Y-98735714D01*
D10*
X154973809Y-106752380D02*
X154973809Y-105752380D01*
X155640476Y-105752380D02*
X155830952Y-105752380D01*
X155926190Y-105800000D01*
X156021428Y-105895238D01*
X156069047Y-106085714D01*
X156069047Y-106419047D01*
X156021428Y-106609523D01*
X155926190Y-106704761D01*
X155830952Y-106752380D01*
X155640476Y-106752380D01*
X155545238Y-106704761D01*
X155450000Y-106609523D01*
X155402380Y-106419047D01*
X155402380Y-106085714D01*
X155450000Y-105895238D01*
X155545238Y-105800000D01*
X155640476Y-105752380D01*
X157021428Y-106752380D02*
X156450000Y-106752380D01*
X156735714Y-106752380D02*
X156735714Y-105752380D01*
X156640476Y-105895238D01*
X156545238Y-105990476D01*
X156450000Y-106038095D01*
X157354761Y-105752380D02*
X157973809Y-105752380D01*
X157640476Y-106133333D01*
X157783333Y-106133333D01*
X157878571Y-106180952D01*
X157926190Y-106228571D01*
X157973809Y-106323809D01*
X157973809Y-106561904D01*
X157926190Y-106657142D01*
X157878571Y-106704761D01*
X157783333Y-106752380D01*
X157497619Y-106752380D01*
X157402380Y-106704761D01*
X157354761Y-106657142D01*
X195135714Y-129892857D02*
X195135714Y-130130952D01*
X193707142Y-130130952D01*
X193707142Y-129892857D01*
X194754761Y-129559523D02*
X194802380Y-129416666D01*
X194802380Y-129178571D01*
X194754761Y-129083333D01*
X194707142Y-129035714D01*
X194611904Y-128988095D01*
X194516666Y-128988095D01*
X194421428Y-129035714D01*
X194373809Y-129083333D01*
X194326190Y-129178571D01*
X194278571Y-129369047D01*
X194230952Y-129464285D01*
X194183333Y-129511904D01*
X194088095Y-129559523D01*
X193992857Y-129559523D01*
X193897619Y-129511904D01*
X193850000Y-129464285D01*
X193802380Y-129369047D01*
X193802380Y-129130952D01*
X193850000Y-128988095D01*
X194754761Y-128178571D02*
X194802380Y-128273809D01*
X194802380Y-128464285D01*
X194754761Y-128559523D01*
X194659523Y-128607142D01*
X194278571Y-128607142D01*
X194183333Y-128559523D01*
X194135714Y-128464285D01*
X194135714Y-128273809D01*
X194183333Y-128178571D01*
X194278571Y-128130952D01*
X194373809Y-128130952D01*
X194469047Y-128607142D01*
X194135714Y-127702380D02*
X194802380Y-127702380D01*
X194230952Y-127702380D02*
X194183333Y-127654761D01*
X194135714Y-127559523D01*
X194135714Y-127416666D01*
X194183333Y-127321428D01*
X194278571Y-127273809D01*
X194802380Y-127273809D01*
X194754761Y-126845238D02*
X194802380Y-126750000D01*
X194802380Y-126559523D01*
X194754761Y-126464285D01*
X194659523Y-126416666D01*
X194611904Y-126416666D01*
X194516666Y-126464285D01*
X194469047Y-126559523D01*
X194469047Y-126702380D01*
X194421428Y-126797619D01*
X194326190Y-126845238D01*
X194278571Y-126845238D01*
X194183333Y-126797619D01*
X194135714Y-126702380D01*
X194135714Y-126559523D01*
X194183333Y-126464285D01*
X194802380Y-125845238D02*
X194754761Y-125940476D01*
X194707142Y-125988095D01*
X194611904Y-126035714D01*
X194326190Y-126035714D01*
X194230952Y-125988095D01*
X194183333Y-125940476D01*
X194135714Y-125845238D01*
X194135714Y-125702380D01*
X194183333Y-125607142D01*
X194230952Y-125559523D01*
X194326190Y-125511904D01*
X194611904Y-125511904D01*
X194707142Y-125559523D01*
X194754761Y-125607142D01*
X194802380Y-125702380D01*
X194802380Y-125845238D01*
X194802380Y-125083333D02*
X194135714Y-125083333D01*
X194326190Y-125083333D02*
X194230952Y-125035714D01*
X194183333Y-124988095D01*
X194135714Y-124892857D01*
X194135714Y-124797619D01*
X194802380Y-123940476D02*
X194802380Y-124511904D01*
X194802380Y-124226190D02*
X193802380Y-124226190D01*
X193945238Y-124321428D01*
X194040476Y-124416666D01*
X194088095Y-124511904D01*
X195135714Y-123607142D02*
X195135714Y-123369047D01*
X193707142Y-123369047D01*
X193707142Y-123607142D01*
X169423809Y-114402380D02*
X169423809Y-113402380D01*
X170090476Y-113402380D02*
X170280952Y-113402380D01*
X170376190Y-113450000D01*
X170471428Y-113545238D01*
X170519047Y-113735714D01*
X170519047Y-114069047D01*
X170471428Y-114259523D01*
X170376190Y-114354761D01*
X170280952Y-114402380D01*
X170090476Y-114402380D01*
X169995238Y-114354761D01*
X169900000Y-114259523D01*
X169852380Y-114069047D01*
X169852380Y-113735714D01*
X169900000Y-113545238D01*
X169995238Y-113450000D01*
X170090476Y-113402380D01*
X170900000Y-113497619D02*
X170947619Y-113450000D01*
X171042857Y-113402380D01*
X171280952Y-113402380D01*
X171376190Y-113450000D01*
X171423809Y-113497619D01*
X171471428Y-113592857D01*
X171471428Y-113688095D01*
X171423809Y-113830952D01*
X170852380Y-114402380D01*
X171471428Y-114402380D01*
X171804761Y-113402380D02*
X172423809Y-113402380D01*
X172090476Y-113783333D01*
X172233333Y-113783333D01*
X172328571Y-113830952D01*
X172376190Y-113878571D01*
X172423809Y-113973809D01*
X172423809Y-114211904D01*
X172376190Y-114307142D01*
X172328571Y-114354761D01*
X172233333Y-114402380D01*
X171947619Y-114402380D01*
X171852380Y-114354761D01*
X171804761Y-114307142D01*
D12*
X162892857Y-97985714D02*
X162964285Y-97771428D01*
X163035714Y-97700000D01*
X163178571Y-97628571D01*
X163392857Y-97628571D01*
X163535714Y-97700000D01*
X163607142Y-97771428D01*
X163678571Y-97914285D01*
X163678571Y-98485714D01*
X162178571Y-98485714D01*
X162178571Y-97985714D01*
X162250000Y-97842857D01*
X162321428Y-97771428D01*
X162464285Y-97700000D01*
X162607142Y-97700000D01*
X162750000Y-97771428D01*
X162821428Y-97842857D01*
X162892857Y-97985714D01*
X162892857Y-98485714D01*
X162178571Y-96700000D02*
X162178571Y-96414285D01*
X162250000Y-96271428D01*
X162392857Y-96128571D01*
X162678571Y-96057142D01*
X163178571Y-96057142D01*
X163464285Y-96128571D01*
X163607142Y-96271428D01*
X163678571Y-96414285D01*
X163678571Y-96700000D01*
X163607142Y-96842857D01*
X163464285Y-96985714D01*
X163178571Y-97057142D01*
X162678571Y-97057142D01*
X162392857Y-96985714D01*
X162250000Y-96842857D01*
X162178571Y-96700000D01*
X162178571Y-95128571D02*
X162178571Y-94842857D01*
X162250000Y-94700000D01*
X162392857Y-94557142D01*
X162678571Y-94485714D01*
X163178571Y-94485714D01*
X163464285Y-94557142D01*
X163607142Y-94700000D01*
X163678571Y-94842857D01*
X163678571Y-95128571D01*
X163607142Y-95271428D01*
X163464285Y-95414285D01*
X163178571Y-95485714D01*
X162678571Y-95485714D01*
X162392857Y-95414285D01*
X162250000Y-95271428D01*
X162178571Y-95128571D01*
X162178571Y-94057142D02*
X162178571Y-93200000D01*
X163678571Y-93628571D02*
X162178571Y-93628571D01*
D10*
X188059523Y-71235714D02*
X187821428Y-71235714D01*
X187821428Y-69807142D01*
X188059523Y-69807142D01*
X188916666Y-70902380D02*
X188440476Y-70902380D01*
X188440476Y-69902380D01*
X189250000Y-70378571D02*
X189583333Y-70378571D01*
X189726190Y-70902380D02*
X189250000Y-70902380D01*
X189250000Y-69902380D01*
X189726190Y-69902380D01*
X190154761Y-70902380D02*
X190154761Y-69902380D01*
X190392857Y-69902380D01*
X190535714Y-69950000D01*
X190630952Y-70045238D01*
X190678571Y-70140476D01*
X190726190Y-70330952D01*
X190726190Y-70473809D01*
X190678571Y-70664285D01*
X190630952Y-70759523D01*
X190535714Y-70854761D01*
X190392857Y-70902380D01*
X190154761Y-70902380D01*
X191011904Y-69902380D02*
X191583333Y-69902380D01*
X191297619Y-70902380D02*
X191297619Y-69902380D01*
X192345238Y-70902380D02*
X192345238Y-70378571D01*
X192297619Y-70283333D01*
X192202380Y-70235714D01*
X192011904Y-70235714D01*
X191916666Y-70283333D01*
X192345238Y-70854761D02*
X192250000Y-70902380D01*
X192011904Y-70902380D01*
X191916666Y-70854761D01*
X191869047Y-70759523D01*
X191869047Y-70664285D01*
X191916666Y-70569047D01*
X192011904Y-70521428D01*
X192250000Y-70521428D01*
X192345238Y-70473809D01*
X192821428Y-70235714D02*
X192821428Y-71235714D01*
X192821428Y-70283333D02*
X192916666Y-70235714D01*
X193107142Y-70235714D01*
X193202380Y-70283333D01*
X193250000Y-70330952D01*
X193297619Y-70426190D01*
X193297619Y-70711904D01*
X193250000Y-70807142D01*
X193202380Y-70854761D01*
X193107142Y-70902380D01*
X192916666Y-70902380D01*
X192821428Y-70854761D01*
X194107142Y-70854761D02*
X194011904Y-70902380D01*
X193821428Y-70902380D01*
X193726190Y-70854761D01*
X193678571Y-70759523D01*
X193678571Y-70378571D01*
X193726190Y-70283333D01*
X193821428Y-70235714D01*
X194011904Y-70235714D01*
X194107142Y-70283333D01*
X194154761Y-70378571D01*
X194154761Y-70473809D01*
X193678571Y-70569047D01*
X195107142Y-70902380D02*
X194535714Y-70902380D01*
X194821428Y-70902380D02*
X194821428Y-69902380D01*
X194726190Y-70045238D01*
X194630952Y-70140476D01*
X194535714Y-70188095D01*
X195440476Y-71235714D02*
X195678571Y-71235714D01*
X195678571Y-69807142D01*
X195440476Y-69807142D01*
X180435714Y-129942857D02*
X180435714Y-130180952D01*
X179007142Y-130180952D01*
X179007142Y-129942857D01*
X180054761Y-129609523D02*
X180102380Y-129466666D01*
X180102380Y-129228571D01*
X180054761Y-129133333D01*
X180007142Y-129085714D01*
X179911904Y-129038095D01*
X179816666Y-129038095D01*
X179721428Y-129085714D01*
X179673809Y-129133333D01*
X179626190Y-129228571D01*
X179578571Y-129419047D01*
X179530952Y-129514285D01*
X179483333Y-129561904D01*
X179388095Y-129609523D01*
X179292857Y-129609523D01*
X179197619Y-129561904D01*
X179150000Y-129514285D01*
X179102380Y-129419047D01*
X179102380Y-129180952D01*
X179150000Y-129038095D01*
X180054761Y-128228571D02*
X180102380Y-128323809D01*
X180102380Y-128514285D01*
X180054761Y-128609523D01*
X179959523Y-128657142D01*
X179578571Y-128657142D01*
X179483333Y-128609523D01*
X179435714Y-128514285D01*
X179435714Y-128323809D01*
X179483333Y-128228571D01*
X179578571Y-128180952D01*
X179673809Y-128180952D01*
X179769047Y-128657142D01*
X179435714Y-127752380D02*
X180102380Y-127752380D01*
X179530952Y-127752380D02*
X179483333Y-127704761D01*
X179435714Y-127609523D01*
X179435714Y-127466666D01*
X179483333Y-127371428D01*
X179578571Y-127323809D01*
X180102380Y-127323809D01*
X180054761Y-126895238D02*
X180102380Y-126800000D01*
X180102380Y-126609523D01*
X180054761Y-126514285D01*
X179959523Y-126466666D01*
X179911904Y-126466666D01*
X179816666Y-126514285D01*
X179769047Y-126609523D01*
X179769047Y-126752380D01*
X179721428Y-126847619D01*
X179626190Y-126895238D01*
X179578571Y-126895238D01*
X179483333Y-126847619D01*
X179435714Y-126752380D01*
X179435714Y-126609523D01*
X179483333Y-126514285D01*
X180102380Y-125895238D02*
X180054761Y-125990476D01*
X180007142Y-126038095D01*
X179911904Y-126085714D01*
X179626190Y-126085714D01*
X179530952Y-126038095D01*
X179483333Y-125990476D01*
X179435714Y-125895238D01*
X179435714Y-125752380D01*
X179483333Y-125657142D01*
X179530952Y-125609523D01*
X179626190Y-125561904D01*
X179911904Y-125561904D01*
X180007142Y-125609523D01*
X180054761Y-125657142D01*
X180102380Y-125752380D01*
X180102380Y-125895238D01*
X180102380Y-125133333D02*
X179435714Y-125133333D01*
X179626190Y-125133333D02*
X179530952Y-125085714D01*
X179483333Y-125038095D01*
X179435714Y-124942857D01*
X179435714Y-124847619D01*
X179102380Y-124323809D02*
X179102380Y-124228571D01*
X179150000Y-124133333D01*
X179197619Y-124085714D01*
X179292857Y-124038095D01*
X179483333Y-123990476D01*
X179721428Y-123990476D01*
X179911904Y-124038095D01*
X180007142Y-124085714D01*
X180054761Y-124133333D01*
X180102380Y-124228571D01*
X180102380Y-124323809D01*
X180054761Y-124419047D01*
X180007142Y-124466666D01*
X179911904Y-124514285D01*
X179721428Y-124561904D01*
X179483333Y-124561904D01*
X179292857Y-124514285D01*
X179197619Y-124466666D01*
X179150000Y-124419047D01*
X179102380Y-124323809D01*
X180435714Y-123657142D02*
X180435714Y-123419047D01*
X179007142Y-123419047D01*
X179007142Y-123657142D01*
X208116666Y-127797380D02*
X208116666Y-126797380D01*
X208354761Y-126797380D01*
X208497619Y-126845000D01*
X208592857Y-126940238D01*
X208640476Y-127035476D01*
X208688095Y-127225952D01*
X208688095Y-127368809D01*
X208640476Y-127559285D01*
X208592857Y-127654523D01*
X208497619Y-127749761D01*
X208354761Y-127797380D01*
X208116666Y-127797380D01*
X209497619Y-127749761D02*
X209402380Y-127797380D01*
X209211904Y-127797380D01*
X209116666Y-127749761D01*
X209069047Y-127654523D01*
X209069047Y-127273571D01*
X209116666Y-127178333D01*
X209211904Y-127130714D01*
X209402380Y-127130714D01*
X209497619Y-127178333D01*
X209545238Y-127273571D01*
X209545238Y-127368809D01*
X209069047Y-127464047D01*
X209926190Y-127749761D02*
X210021428Y-127797380D01*
X210211904Y-127797380D01*
X210307142Y-127749761D01*
X210354761Y-127654523D01*
X210354761Y-127606904D01*
X210307142Y-127511666D01*
X210211904Y-127464047D01*
X210069047Y-127464047D01*
X209973809Y-127416428D01*
X209926190Y-127321190D01*
X209926190Y-127273571D01*
X209973809Y-127178333D01*
X210069047Y-127130714D01*
X210211904Y-127130714D01*
X210307142Y-127178333D01*
X210783333Y-127797380D02*
X210783333Y-127130714D01*
X210783333Y-126797380D02*
X210735714Y-126845000D01*
X210783333Y-126892619D01*
X210830952Y-126845000D01*
X210783333Y-126797380D01*
X210783333Y-126892619D01*
X211688095Y-127130714D02*
X211688095Y-127940238D01*
X211640476Y-128035476D01*
X211592857Y-128083095D01*
X211497619Y-128130714D01*
X211354761Y-128130714D01*
X211259523Y-128083095D01*
X211688095Y-127749761D02*
X211592857Y-127797380D01*
X211402380Y-127797380D01*
X211307142Y-127749761D01*
X211259523Y-127702142D01*
X211211904Y-127606904D01*
X211211904Y-127321190D01*
X211259523Y-127225952D01*
X211307142Y-127178333D01*
X211402380Y-127130714D01*
X211592857Y-127130714D01*
X211688095Y-127178333D01*
X212164285Y-127130714D02*
X212164285Y-127797380D01*
X212164285Y-127225952D02*
X212211904Y-127178333D01*
X212307142Y-127130714D01*
X212450000Y-127130714D01*
X212545238Y-127178333D01*
X212592857Y-127273571D01*
X212592857Y-127797380D01*
X213450000Y-127749761D02*
X213354761Y-127797380D01*
X213164285Y-127797380D01*
X213069047Y-127749761D01*
X213021428Y-127654523D01*
X213021428Y-127273571D01*
X213069047Y-127178333D01*
X213164285Y-127130714D01*
X213354761Y-127130714D01*
X213450000Y-127178333D01*
X213497619Y-127273571D01*
X213497619Y-127368809D01*
X213021428Y-127464047D01*
X214354761Y-127797380D02*
X214354761Y-126797380D01*
X214354761Y-127749761D02*
X214259523Y-127797380D01*
X214069047Y-127797380D01*
X213973809Y-127749761D01*
X213926190Y-127702142D01*
X213878571Y-127606904D01*
X213878571Y-127321190D01*
X213926190Y-127225952D01*
X213973809Y-127178333D01*
X214069047Y-127130714D01*
X214259523Y-127130714D01*
X214354761Y-127178333D01*
X215592857Y-127797380D02*
X215592857Y-126797380D01*
X215592857Y-127178333D02*
X215688095Y-127130714D01*
X215878571Y-127130714D01*
X215973809Y-127178333D01*
X216021428Y-127225952D01*
X216069047Y-127321190D01*
X216069047Y-127606904D01*
X216021428Y-127702142D01*
X215973809Y-127749761D01*
X215878571Y-127797380D01*
X215688095Y-127797380D01*
X215592857Y-127749761D01*
X216402380Y-127130714D02*
X216640476Y-127797380D01*
X216878571Y-127130714D02*
X216640476Y-127797380D01*
X216545238Y-128035476D01*
X216497619Y-128083095D01*
X216402380Y-128130714D01*
X206759523Y-128931190D02*
X206711904Y-128883571D01*
X206616666Y-128835952D01*
X206521428Y-128835952D01*
X206426190Y-128883571D01*
X206378571Y-128931190D01*
X206330952Y-129026428D01*
X206330952Y-129121666D01*
X206378571Y-129216904D01*
X206426190Y-129264523D01*
X206521428Y-129312142D01*
X206616666Y-129312142D01*
X206711904Y-129264523D01*
X206759523Y-129216904D01*
X206759523Y-128835952D02*
X206759523Y-129216904D01*
X206807142Y-129264523D01*
X206854761Y-129264523D01*
X206950000Y-129216904D01*
X206997619Y-129121666D01*
X206997619Y-128883571D01*
X206902380Y-128740714D01*
X206759523Y-128645476D01*
X206569047Y-128597857D01*
X206378571Y-128645476D01*
X206235714Y-128740714D01*
X206140476Y-128883571D01*
X206092857Y-129074047D01*
X206140476Y-129264523D01*
X206235714Y-129407380D01*
X206378571Y-129502619D01*
X206569047Y-129550238D01*
X206759523Y-129502619D01*
X206902380Y-129407380D01*
X207854761Y-129359761D02*
X207759523Y-129407380D01*
X207569047Y-129407380D01*
X207473809Y-129359761D01*
X207426190Y-129312142D01*
X207378571Y-129216904D01*
X207378571Y-128931190D01*
X207426190Y-128835952D01*
X207473809Y-128788333D01*
X207569047Y-128740714D01*
X207759523Y-128740714D01*
X207854761Y-128788333D01*
X208711904Y-129407380D02*
X208711904Y-128883571D01*
X208664285Y-128788333D01*
X208569047Y-128740714D01*
X208378571Y-128740714D01*
X208283333Y-128788333D01*
X208711904Y-129359761D02*
X208616666Y-129407380D01*
X208378571Y-129407380D01*
X208283333Y-129359761D01*
X208235714Y-129264523D01*
X208235714Y-129169285D01*
X208283333Y-129074047D01*
X208378571Y-129026428D01*
X208616666Y-129026428D01*
X208711904Y-128978809D01*
X209045238Y-128740714D02*
X209426190Y-128740714D01*
X209188095Y-128407380D02*
X209188095Y-129264523D01*
X209235714Y-129359761D01*
X209330952Y-129407380D01*
X209426190Y-129407380D01*
X209521428Y-129502619D02*
X210283333Y-129502619D01*
X210521428Y-128740714D02*
X210521428Y-129407380D01*
X210521428Y-128835952D02*
X210569047Y-128788333D01*
X210664285Y-128740714D01*
X210807142Y-128740714D01*
X210902380Y-128788333D01*
X210950000Y-128883571D01*
X210950000Y-129407380D01*
X211807142Y-129359761D02*
X211711904Y-129407380D01*
X211521428Y-129407380D01*
X211426190Y-129359761D01*
X211378571Y-129264523D01*
X211378571Y-128883571D01*
X211426190Y-128788333D01*
X211521428Y-128740714D01*
X211711904Y-128740714D01*
X211807142Y-128788333D01*
X211854761Y-128883571D01*
X211854761Y-128978809D01*
X211378571Y-129074047D01*
X212283333Y-129407380D02*
X212283333Y-128407380D01*
X212378571Y-129026428D02*
X212664285Y-129407380D01*
X212664285Y-128740714D02*
X212283333Y-129121666D01*
X213235714Y-129407380D02*
X213140476Y-129359761D01*
X213092857Y-129312142D01*
X213045238Y-129216904D01*
X213045238Y-128931190D01*
X213092857Y-128835952D01*
X213140476Y-128788333D01*
X213235714Y-128740714D01*
X213378571Y-128740714D01*
X213473809Y-128788333D01*
X213521428Y-128835952D01*
X213569047Y-128931190D01*
X213569047Y-129216904D01*
X213521428Y-129312142D01*
X213473809Y-129359761D01*
X213378571Y-129407380D01*
X213235714Y-129407380D01*
X213997619Y-128740714D02*
X213997619Y-129407380D01*
X213997619Y-128835952D02*
X214045238Y-128788333D01*
X214140476Y-128740714D01*
X214283333Y-128740714D01*
X214378571Y-128788333D01*
X214426190Y-128883571D01*
X214426190Y-129407380D01*
X215283333Y-129359761D02*
X215188095Y-129407380D01*
X214997619Y-129407380D01*
X214902380Y-129359761D01*
X214854761Y-129264523D01*
X214854761Y-128883571D01*
X214902380Y-128788333D01*
X214997619Y-128740714D01*
X215188095Y-128740714D01*
X215283333Y-128788333D01*
X215330952Y-128883571D01*
X215330952Y-128978809D01*
X214854761Y-129074047D01*
X215759523Y-129407380D02*
X215759523Y-128407380D01*
X215854761Y-129026428D02*
X216140476Y-129407380D01*
X216140476Y-128740714D02*
X215759523Y-129121666D01*
X216711904Y-129407380D02*
X216616666Y-129359761D01*
X216569047Y-129312142D01*
X216521428Y-129216904D01*
X216521428Y-128931190D01*
X216569047Y-128835952D01*
X216616666Y-128788333D01*
X216711904Y-128740714D01*
X216854761Y-128740714D01*
X216950000Y-128788333D01*
X216997619Y-128835952D01*
X217045238Y-128931190D01*
X217045238Y-129216904D01*
X216997619Y-129312142D01*
X216950000Y-129359761D01*
X216854761Y-129407380D01*
X216711904Y-129407380D01*
X217473809Y-128740714D02*
X217473809Y-129407380D01*
X217473809Y-128835952D02*
X217521428Y-128788333D01*
X217616666Y-128740714D01*
X217759523Y-128740714D01*
X217854761Y-128788333D01*
X217902380Y-128883571D01*
X217902380Y-129407380D01*
X218759523Y-129359761D02*
X218664285Y-129407380D01*
X218473809Y-129407380D01*
X218378571Y-129359761D01*
X218330952Y-129264523D01*
X218330952Y-128883571D01*
X218378571Y-128788333D01*
X218473809Y-128740714D01*
X218664285Y-128740714D01*
X218759523Y-128788333D01*
X218807142Y-128883571D01*
X218807142Y-128978809D01*
X218330952Y-129074047D01*
X197635714Y-125016666D02*
X197635714Y-125254761D01*
X196207142Y-125254761D01*
X196207142Y-125016666D01*
X197016666Y-124683333D02*
X197016666Y-124207142D01*
X197302380Y-124778571D02*
X196302380Y-124445238D01*
X197302380Y-124111904D01*
X196635714Y-123350000D02*
X197302380Y-123350000D01*
X196635714Y-123778571D02*
X197159523Y-123778571D01*
X197254761Y-123730952D01*
X197302380Y-123635714D01*
X197302380Y-123492857D01*
X197254761Y-123397619D01*
X197207142Y-123350000D01*
X197302380Y-122445238D02*
X196302380Y-122445238D01*
X197254761Y-122445238D02*
X197302380Y-122540476D01*
X197302380Y-122730952D01*
X197254761Y-122826190D01*
X197207142Y-122873809D01*
X197111904Y-122921428D01*
X196826190Y-122921428D01*
X196730952Y-122873809D01*
X196683333Y-122826190D01*
X196635714Y-122730952D01*
X196635714Y-122540476D01*
X196683333Y-122445238D01*
X197302380Y-121969047D02*
X196635714Y-121969047D01*
X196302380Y-121969047D02*
X196350000Y-122016666D01*
X196397619Y-121969047D01*
X196350000Y-121921428D01*
X196302380Y-121969047D01*
X196397619Y-121969047D01*
X197302380Y-121350000D02*
X197254761Y-121445238D01*
X197207142Y-121492857D01*
X197111904Y-121540476D01*
X196826190Y-121540476D01*
X196730952Y-121492857D01*
X196683333Y-121445238D01*
X196635714Y-121350000D01*
X196635714Y-121207142D01*
X196683333Y-121111904D01*
X196730952Y-121064285D01*
X196826190Y-121016666D01*
X197111904Y-121016666D01*
X197207142Y-121064285D01*
X197254761Y-121111904D01*
X197302380Y-121207142D01*
X197302380Y-121350000D01*
X197635714Y-120683333D02*
X197635714Y-120445238D01*
X196207142Y-120445238D01*
X196207142Y-120683333D01*
X162223809Y-101892380D02*
X162223809Y-100892380D01*
X162890476Y-100892380D02*
X163080952Y-100892380D01*
X163176190Y-100940000D01*
X163271428Y-101035238D01*
X163319047Y-101225714D01*
X163319047Y-101559047D01*
X163271428Y-101749523D01*
X163176190Y-101844761D01*
X163080952Y-101892380D01*
X162890476Y-101892380D01*
X162795238Y-101844761D01*
X162700000Y-101749523D01*
X162652380Y-101559047D01*
X162652380Y-101225714D01*
X162700000Y-101035238D01*
X162795238Y-100940000D01*
X162890476Y-100892380D01*
X164271428Y-101892380D02*
X163700000Y-101892380D01*
X163985714Y-101892380D02*
X163985714Y-100892380D01*
X163890476Y-101035238D01*
X163795238Y-101130476D01*
X163700000Y-101178095D01*
X164652380Y-100987619D02*
X164700000Y-100940000D01*
X164795238Y-100892380D01*
X165033333Y-100892380D01*
X165128571Y-100940000D01*
X165176190Y-100987619D01*
X165223809Y-101082857D01*
X165223809Y-101178095D01*
X165176190Y-101320952D01*
X164604761Y-101892380D01*
X165223809Y-101892380D01*
D11*
%TO.C,J1*%
X198698571Y-75062142D02*
X199841428Y-75062142D01*
X199270000Y-75633571D02*
X199270000Y-74490714D01*
X209698571Y-75062142D02*
X210841428Y-75062142D01*
%TO.C,J3*%
X209897141Y-81801428D02*
X209897141Y-80658571D01*
X209897141Y-92801428D02*
X209897141Y-91658571D01*
X210468570Y-92230000D02*
X209325713Y-92230000D01*
%TO.C,J2*%
X209877141Y-98411428D02*
X209877141Y-97268571D01*
X209877141Y-109411428D02*
X209877141Y-108268571D01*
X210448570Y-108840000D02*
X209305713Y-108840000D01*
D15*
%TO.C,R29*%
X159563641Y-104120000D02*
X159256359Y-104120000D01*
X159563641Y-104880000D02*
X159256359Y-104880000D01*
D16*
%TO.C,D24*%
X141999999Y-75900000D02*
X141949999Y-75900000D01*
X143399999Y-75900000D02*
X141999999Y-75900000D01*
X143399999Y-75750000D02*
X141949999Y-75750000D01*
D17*
X143799999Y-74700000D02*
X143787999Y-74700000D01*
D16*
X141549999Y-75000000D02*
X141549999Y-77000000D01*
X143399999Y-75750000D02*
X143399999Y-75900000D01*
X143749999Y-77000000D02*
X143749999Y-75000000D01*
X141949999Y-75900000D02*
X141949999Y-75750000D01*
D15*
%TO.C,D29*%
X169170001Y-101530001D02*
X169170001Y-99830001D01*
X169170001Y-101530001D02*
X166020001Y-101530001D01*
X169170001Y-99830001D02*
X166020001Y-99830001D01*
%TO.C,R53*%
X153846359Y-61780000D02*
X154153641Y-61780000D01*
X153846359Y-62540000D02*
X154153641Y-62540000D01*
%TO.C,R56*%
X139296260Y-70858465D02*
X138988978Y-70858465D01*
X139296260Y-70098465D02*
X138988978Y-70098465D01*
%TO.C,SW2*%
X212660000Y-114590000D02*
X212660000Y-124750000D01*
X211288400Y-114590000D02*
X212660000Y-114590000D01*
X207580000Y-124750000D02*
X207580000Y-114590000D01*
X211288400Y-124750000D02*
X212660000Y-124750000D01*
X207580000Y-114590000D02*
X208951600Y-114590000D01*
X207580000Y-124750000D02*
X208951600Y-124750000D01*
X207580000Y-124750000D02*
X207580000Y-114590000D01*
%TO.C,R22*%
X159553641Y-106630000D02*
X159246359Y-106630000D01*
X159553641Y-105870000D02*
X159246359Y-105870000D01*
%TO.C,C16*%
X153880000Y-122522164D02*
X153880000Y-122737836D01*
X154600000Y-122522164D02*
X154600000Y-122737836D01*
%TO.C,Q4*%
X135920000Y-96725000D02*
X135010000Y-96725000D01*
X138230000Y-96725000D02*
X137320000Y-96725000D01*
X138230000Y-94150000D02*
X138230000Y-96725000D01*
X135010000Y-94575000D02*
X135010000Y-96725000D01*
%TO.C,C8*%
X186005000Y-87781252D02*
X186005000Y-87258748D01*
X187475000Y-87781252D02*
X187475000Y-87258748D01*
%TO.C,C24*%
X144290000Y-78142164D02*
X144290000Y-78357836D01*
X145010000Y-78142164D02*
X145010000Y-78357836D01*
%TO.C,D14*%
X203160000Y-112485000D02*
X203160000Y-111015000D01*
X203160000Y-111015000D02*
X200700000Y-111015000D01*
X200700000Y-112485000D02*
X203160000Y-112485000D01*
%TO.C,C34*%
X168738749Y-86065001D02*
X169261253Y-86065001D01*
X168738749Y-87535001D02*
X169261253Y-87535001D01*
%TO.C,D7*%
X161360000Y-105235000D02*
X163820000Y-105235000D01*
X163820000Y-105235000D02*
X163820000Y-103765000D01*
X163820000Y-103765000D02*
X161360000Y-103765000D01*
%TO.C,J13*%
X138062619Y-61368465D02*
X138062619Y-69488465D01*
X150682619Y-61368465D02*
X138062619Y-61368465D01*
X150982619Y-69788465D02*
X148572619Y-69788465D01*
X138062619Y-69488465D02*
X150682619Y-69488465D01*
X150982619Y-67378465D02*
X150982619Y-69788465D01*
X150682619Y-69488465D02*
X150682619Y-61368465D01*
%TO.C,R26*%
X126806359Y-111270000D02*
X127113641Y-111270000D01*
X126806359Y-112030000D02*
X127113641Y-112030000D01*
%TO.C,R33*%
X157913641Y-66660000D02*
X157606359Y-66660000D01*
X157913641Y-67420000D02*
X157606359Y-67420000D01*
%TO.C,R67*%
X169239640Y-88119036D02*
X168765124Y-88119036D01*
X169239640Y-89164036D02*
X168765124Y-89164036D01*
%TO.C,R32*%
X178730001Y-100216360D02*
X178730001Y-100523642D01*
X179490001Y-100216360D02*
X179490001Y-100523642D01*
%TO.C,J6*%
X205350000Y-127740000D02*
X204600000Y-127740000D01*
X198450000Y-122840000D02*
X198450000Y-117740000D01*
X198450000Y-127740000D02*
X198450000Y-125240000D01*
X205350000Y-125240000D02*
X205350000Y-127740000D01*
X205350000Y-122840000D02*
X205350000Y-115840000D01*
X200850000Y-115840000D02*
X202950000Y-115840000D01*
X199200000Y-127740000D02*
X198450000Y-127740000D01*
%TO.C,C31*%
X183632165Y-89970001D02*
X183847837Y-89970001D01*
X183632165Y-90690001D02*
X183847837Y-90690001D01*
%TO.C,D9*%
X160760000Y-71630000D02*
X162460000Y-71630000D01*
X162460000Y-71630000D02*
X162460000Y-68480000D01*
X160760000Y-71630000D02*
X160760000Y-68480000D01*
%TO.C,C36*%
X172162961Y-89141537D02*
X171881801Y-89141537D01*
X172162961Y-88121537D02*
X171881801Y-88121537D01*
%TO.C,Q12*%
X157186545Y-68693690D02*
X157186545Y-67783690D01*
X159761545Y-71003690D02*
X157186545Y-71003690D01*
X157186545Y-71003690D02*
X157186545Y-70093690D01*
X159336545Y-67783690D02*
X157186545Y-67783690D01*
%TO.C,R14*%
X133860000Y-96426359D02*
X133860000Y-96733641D01*
X134620000Y-96426359D02*
X134620000Y-96733641D01*
%TO.C,Q2*%
X217550000Y-118380000D02*
X216900000Y-118380000D01*
X217550000Y-115260000D02*
X218200000Y-115260000D01*
X217550000Y-118380000D02*
X218200000Y-118380000D01*
X217550000Y-115260000D02*
X215875000Y-115260000D01*
%TO.C,R13*%
X173893641Y-106370000D02*
X173586359Y-106370000D01*
X173893641Y-107130000D02*
X173586359Y-107130000D01*
%TO.C,R50*%
X153893641Y-66680000D02*
X153586359Y-66680000D01*
X153893641Y-67440000D02*
X153586359Y-67440000D01*
%TO.C,R18*%
X138463641Y-89160000D02*
X138156359Y-89160000D01*
X138463641Y-89920000D02*
X138156359Y-89920000D01*
%TO.C,C14*%
X154592164Y-120460000D02*
X154807836Y-120460000D01*
X154592164Y-119740000D02*
X154807836Y-119740000D01*
%TO.C,U6*%
X182250001Y-108765001D02*
X182250001Y-112215001D01*
X182250001Y-108765001D02*
X182250001Y-106815001D01*
X187370001Y-108765001D02*
X187370001Y-106815001D01*
X187370001Y-108765001D02*
X187370001Y-110715001D01*
%TO.C,C9*%
X184380001Y-87599420D02*
X184380001Y-87880580D01*
X185400001Y-87599420D02*
X185400001Y-87880580D01*
%TO.C,Q14*%
X151400000Y-75645000D02*
X152310000Y-75645000D01*
X152310000Y-77795000D02*
X152310000Y-75645000D01*
X149090000Y-78220000D02*
X149090000Y-75645000D01*
X149090000Y-75645000D02*
X150000000Y-75645000D01*
%TO.C,J11*%
X162940000Y-62840000D02*
X162940000Y-66960000D01*
X162940000Y-66960000D02*
X173060000Y-66960000D01*
X173360000Y-61540000D02*
X170950000Y-61540000D01*
X163940000Y-61840000D02*
X162940000Y-62840000D01*
X173360000Y-63950000D02*
X173360000Y-61540000D01*
X173060000Y-66960000D02*
X173060000Y-61840000D01*
X173060000Y-61840000D02*
X163940000Y-61840000D01*
%TO.C,R59*%
X186227500Y-99422743D02*
X186227500Y-99897259D01*
X187272500Y-99422743D02*
X187272500Y-99897259D01*
%TO.C,J4*%
X124915000Y-99920000D02*
X124915000Y-90760000D01*
X130550000Y-90760000D02*
X128630000Y-90760000D01*
X126620000Y-99920000D02*
X124915000Y-99920000D01*
X128630000Y-99920000D02*
X130550000Y-99920000D01*
X124915000Y-90760000D02*
X126620000Y-90760000D01*
%TO.C,C32*%
X173842620Y-87747886D02*
X173842620Y-88029046D01*
X174862620Y-87747886D02*
X174862620Y-88029046D01*
%TO.C,TP5*%
X129320000Y-87970000D02*
G75*
G03*
X129320000Y-87970000I-1200000J0D01*
G01*
%TO.C,SW4*%
X147000000Y-100250000D02*
X147000000Y-94250000D01*
X151550000Y-100350000D02*
X148950000Y-100350000D01*
X151550000Y-94150000D02*
X148950000Y-94150000D01*
X152550000Y-92150000D02*
X153550000Y-92150000D01*
X153550000Y-92150000D02*
X153550000Y-93150000D01*
X153500000Y-100150000D02*
X153500000Y-94350000D01*
%TO.C,Q18*%
X151700000Y-64600000D02*
X151700000Y-63950000D01*
X154820000Y-64600000D02*
X154820000Y-63950000D01*
X154820000Y-64600000D02*
X154820000Y-65250000D01*
X151700000Y-64600000D02*
X151700000Y-66275000D01*
%TO.C,D5*%
X164250000Y-103765000D02*
X164250000Y-105235000D01*
X164250000Y-105235000D02*
X166710000Y-105235000D01*
X166710000Y-103765000D02*
X164250000Y-103765000D01*
%TO.C,C1*%
X214660000Y-119707836D02*
X214660000Y-119492164D01*
X215380000Y-119707836D02*
X215380000Y-119492164D01*
%TO.C,R16*%
X134620000Y-98733641D02*
X134620000Y-98426359D01*
X133860000Y-98733641D02*
X133860000Y-98426359D01*
%TO.C,R52*%
X155903641Y-66670000D02*
X155596359Y-66670000D01*
X155903641Y-67430000D02*
X155596359Y-67430000D01*
%TO.C,C21*%
X144290000Y-71357836D02*
X144290000Y-71142164D01*
X145010000Y-71357836D02*
X145010000Y-71142164D01*
%TO.C,U3*%
X155808926Y-81825000D02*
X155538926Y-81825000D01*
X155808926Y-83325000D02*
X155808926Y-81825000D01*
X149178926Y-81825000D02*
X149178926Y-80725000D01*
X148908926Y-83325000D02*
X148908926Y-81825000D01*
X155538926Y-81825000D02*
X155538926Y-78995000D01*
X148908926Y-81825000D02*
X149178926Y-81825000D01*
%TO.C,U5*%
X135232619Y-74778465D02*
X135232619Y-72828465D01*
X140352619Y-74778465D02*
X140352619Y-72828465D01*
X140352619Y-74778465D02*
X140352619Y-76728465D01*
X135232619Y-74778465D02*
X135232619Y-78228465D01*
%TO.C,R73*%
X163620000Y-71653641D02*
X163620000Y-71346359D01*
X164380000Y-71653641D02*
X164380000Y-71346359D01*
%TO.C,SW6*%
X170682000Y-114862000D02*
X179318000Y-114862000D01*
X179318000Y-114862000D02*
X179318000Y-118418000D01*
X179318000Y-118418000D02*
X170682000Y-118418000D01*
X170682000Y-118418000D02*
X170682000Y-114862000D01*
G36*
X181096000Y-120196000D02*
G01*
X175000000Y-120196000D01*
X175000000Y-117910000D01*
X178810000Y-117910000D01*
X178810000Y-115370000D01*
X175000000Y-115370000D01*
X175000000Y-113084000D01*
X181096000Y-113084000D01*
X181096000Y-120196000D01*
G37*
X181096000Y-120196000D02*
X175000000Y-120196000D01*
X175000000Y-117910000D01*
X178810000Y-117910000D01*
X178810000Y-115370000D01*
X175000000Y-115370000D01*
X175000000Y-113084000D01*
X181096000Y-113084000D01*
X181096000Y-120196000D01*
%TO.C,Q11*%
X142550000Y-95710000D02*
X142550000Y-96360000D01*
X145670000Y-95710000D02*
X145670000Y-94035000D01*
X145670000Y-95710000D02*
X145670000Y-96360000D01*
X142550000Y-95710000D02*
X142550000Y-95060000D01*
%TO.C,U1*%
X162290000Y-85970000D02*
X162290000Y-84020000D01*
X162290000Y-85970000D02*
X162290000Y-87920000D01*
X157170000Y-85970000D02*
X157170000Y-84020000D01*
X157170000Y-85970000D02*
X157170000Y-89420000D01*
%TO.C,R4*%
X214630000Y-117713641D02*
X214630000Y-117406359D01*
X215390000Y-117713641D02*
X215390000Y-117406359D01*
%TO.C,R1*%
X198636260Y-92218465D02*
X198328978Y-92218465D01*
X198636260Y-91458465D02*
X198328978Y-91458465D01*
%TO.C,D8*%
X178520001Y-104750001D02*
X182420001Y-104750001D01*
X178520001Y-102750001D02*
X182420001Y-102750001D01*
X178520001Y-102750001D02*
X178520001Y-104750001D01*
%TO.C,R19*%
X198296359Y-93260000D02*
X198603641Y-93260000D01*
X198296359Y-92500000D02*
X198603641Y-92500000D01*
%TO.C,C17*%
X150760000Y-102496267D02*
X150760000Y-102203733D01*
X149740000Y-102496267D02*
X149740000Y-102203733D01*
%TO.C,R5*%
X157870000Y-109653641D02*
X157870000Y-109346359D01*
X158630000Y-109653641D02*
X158630000Y-109346359D01*
%TO.C,C18*%
X194480001Y-75560001D02*
X191530001Y-75560001D01*
X187024438Y-84080001D02*
X188910001Y-84080001D01*
X193415564Y-84080001D02*
X194480001Y-83015564D01*
X193415564Y-84080001D02*
X191530001Y-84080001D01*
X194480001Y-83015564D02*
X194480001Y-75560001D01*
X187024438Y-84080001D02*
X185960001Y-83015564D01*
X185960001Y-75560001D02*
X188910001Y-75560001D01*
X185960001Y-83015564D02*
X185960001Y-75560001D01*
%TO.C,D16*%
X170600000Y-121350000D02*
X173750000Y-121350000D01*
X170600000Y-119650000D02*
X170600000Y-121350000D01*
X170600000Y-119650000D02*
X173750000Y-119650000D01*
%TO.C,R58*%
X137038978Y-70098465D02*
X137346260Y-70098465D01*
X137038978Y-70858465D02*
X137346260Y-70858465D01*
%TO.C,C19*%
X149951252Y-91745000D02*
X149428748Y-91745000D01*
X149951252Y-90275000D02*
X149428748Y-90275000D01*
%TO.C,C22*%
X144890000Y-85072164D02*
X144890000Y-85287836D01*
X144170000Y-85072164D02*
X144170000Y-85287836D01*
%TO.C,R27*%
X168506359Y-106630000D02*
X168813641Y-106630000D01*
X168506359Y-105870000D02*
X168813641Y-105870000D01*
%TO.C,C11*%
X152261090Y-80225000D02*
X152476762Y-80225000D01*
X152261090Y-80945000D02*
X152476762Y-80945000D01*
%TO.C,R46*%
X139446359Y-82970000D02*
X139753641Y-82970000D01*
X139446359Y-83730000D02*
X139753641Y-83730000D01*
%TO.C,R20*%
X186012743Y-90592501D02*
X186487259Y-90592501D01*
X186012743Y-89547501D02*
X186487259Y-89547501D01*
D16*
%TO.C,D21*%
X147300001Y-76100000D02*
X147350001Y-76100000D01*
X147350001Y-76100000D02*
X147350001Y-76250000D01*
X145900001Y-76250000D02*
X147350001Y-76250000D01*
X145550001Y-75000000D02*
X145550001Y-77000000D01*
X145900001Y-76100000D02*
X147300001Y-76100000D01*
D17*
X145500001Y-77300000D02*
X145512001Y-77300000D01*
D16*
X147750001Y-77000000D02*
X147750001Y-75000000D01*
X145900001Y-76250000D02*
X145900001Y-76100000D01*
D17*
%TO.C,U2*%
X131740000Y-104283000D02*
X131740000Y-105606000D01*
X131740000Y-106690000D02*
X131740000Y-108057000D01*
X126740000Y-108170000D02*
X126740000Y-104170000D01*
X131740583Y-105605996D02*
G75*
G03*
X131740000Y-106690000I3417J-542004D01*
G01*
X132181000Y-103380000D02*
G75*
G03*
X132181000Y-103380000I-171000J0D01*
G01*
D15*
%TO.C,JP3*%
X137640000Y-93350000D02*
X137640000Y-91350000D01*
X137640000Y-91350000D02*
X140440000Y-91350000D01*
X140440000Y-91350000D02*
X140440000Y-93350000D01*
X140440000Y-93350000D02*
X137640000Y-93350000D01*
%TO.C,R60*%
X185153641Y-98970001D02*
X184846359Y-98970001D01*
X185153641Y-98210001D02*
X184846359Y-98210001D01*
%TO.C,H5*%
X147600000Y-90450000D02*
X145700000Y-90450000D01*
X147600000Y-88550000D02*
X147600000Y-90450000D01*
X145700000Y-90450000D02*
X145700000Y-88550000D01*
X145700000Y-88550000D02*
X147600000Y-88550000D01*
%TO.C,Q7*%
X141870000Y-97070000D02*
X139295000Y-97070000D01*
X139295000Y-97070000D02*
X139295000Y-96160000D01*
X139295000Y-94760000D02*
X139295000Y-93850000D01*
X141445000Y-93850000D02*
X139295000Y-93850000D01*
%TO.C,D10*%
X141400000Y-89700000D02*
X141400000Y-91400000D01*
X141400000Y-89700000D02*
X144550000Y-89700000D01*
X141400000Y-91400000D02*
X144550000Y-91400000D01*
%TO.C,C26*%
X134080000Y-72117836D02*
X134080000Y-71902164D01*
X134800000Y-72117836D02*
X134800000Y-71902164D01*
%TO.C,R51*%
X159903641Y-66660000D02*
X159596359Y-66660000D01*
X159903641Y-67420000D02*
X159596359Y-67420000D01*
%TO.C,D11*%
X141400000Y-93400000D02*
X144550000Y-93400000D01*
X141400000Y-91700000D02*
X141400000Y-93400000D01*
X141400000Y-91700000D02*
X144550000Y-91700000D01*
%TO.C,R9*%
X170807500Y-101282742D02*
X170807500Y-101757258D01*
X171852500Y-101282742D02*
X171852500Y-101757258D01*
%TO.C,J12*%
X125202619Y-84928465D02*
X133322619Y-84928465D01*
X131212619Y-72008465D02*
X133622619Y-72008465D01*
X133322619Y-84928465D02*
X133322619Y-72308465D01*
X133322619Y-72308465D02*
X125202619Y-72308465D01*
X125202619Y-72308465D02*
X125202619Y-84928465D01*
X133622619Y-72008465D02*
X133622619Y-74418465D01*
%TO.C,R40*%
X153246359Y-74650000D02*
X153553641Y-74650000D01*
X153246359Y-73890000D02*
X153553641Y-73890000D01*
%TO.C,C28*%
X195010000Y-112740000D02*
X195010000Y-115690000D01*
X186490000Y-120195563D02*
X186490000Y-118310000D01*
X195010000Y-121260000D02*
X195010000Y-118310000D01*
X187554437Y-121260000D02*
X195010000Y-121260000D01*
X187554437Y-112740000D02*
X195010000Y-112740000D01*
X186490000Y-113804437D02*
X187554437Y-112740000D01*
X186490000Y-113804437D02*
X186490000Y-115690000D01*
X186490000Y-120195563D02*
X187554437Y-121260000D01*
%TO.C,C2*%
X160599420Y-81990000D02*
X160880580Y-81990000D01*
X160599420Y-80970000D02*
X160880580Y-80970000D01*
D17*
%TO.C,D18*%
X143800000Y-85200000D02*
X143788000Y-85200000D01*
D16*
X141550000Y-85500000D02*
X141550000Y-87500000D01*
X142000000Y-86400000D02*
X141950000Y-86400000D01*
X143400000Y-86250000D02*
X141950000Y-86250000D01*
X143400000Y-86250000D02*
X143400000Y-86400000D01*
X143750000Y-87500000D02*
X143750000Y-85500000D01*
X141950000Y-86400000D02*
X141950000Y-86250000D01*
X143400000Y-86400000D02*
X142000000Y-86400000D01*
D15*
%TO.C,Q9*%
X127980000Y-115572500D02*
X127330000Y-115572500D01*
X127980000Y-112452500D02*
X128630000Y-112452500D01*
X127980000Y-112452500D02*
X126305000Y-112452500D01*
X127980000Y-115572500D02*
X128630000Y-115572500D01*
D18*
%TO.C,L1*%
X164770870Y-90248466D02*
X173270870Y-90248466D01*
X173270870Y-98748466D02*
X164770870Y-98748466D01*
D12*
X174540370Y-94498466D02*
G75*
G03*
X174540370Y-94498466I-50000J0D01*
G01*
D15*
%TO.C,Q13*%
X156337500Y-71360000D02*
X156987500Y-71360000D01*
X156337500Y-71360000D02*
X155687500Y-71360000D01*
X156337500Y-74480000D02*
X158012500Y-74480000D01*
X156337500Y-74480000D02*
X155687500Y-74480000D01*
%TO.C,C3*%
X135495000Y-91608748D02*
X135495000Y-92131252D01*
X134025000Y-91608748D02*
X134025000Y-92131252D01*
%TO.C,R68*%
X160567500Y-78997258D02*
X160567500Y-78522742D01*
X161612500Y-78997258D02*
X161612500Y-78522742D01*
%TO.C,R42*%
X198953641Y-110170000D02*
X198646359Y-110170000D01*
X198953641Y-110930000D02*
X198646359Y-110930000D01*
%TO.C,R72*%
X158797258Y-89997500D02*
X158322742Y-89997500D01*
X158797258Y-91042500D02*
X158322742Y-91042500D01*
D16*
%TO.C,D26*%
X141950000Y-72400000D02*
X141950000Y-72250000D01*
X143400000Y-72250000D02*
X141950000Y-72250000D01*
X143750000Y-73500000D02*
X143750000Y-71500000D01*
X143400000Y-72250000D02*
X143400000Y-72400000D01*
X141550000Y-71500000D02*
X141550000Y-73500000D01*
X143400000Y-72400000D02*
X142000000Y-72400000D01*
X142000000Y-72400000D02*
X141950000Y-72400000D01*
D17*
X143800000Y-71200000D02*
X143788000Y-71200000D01*
D15*
%TO.C,Q3*%
X194800000Y-94210001D02*
X194530000Y-94210001D01*
X187900000Y-92710001D02*
X187900000Y-94210001D01*
X194800000Y-92710001D02*
X194800000Y-94210001D01*
X188170000Y-94210001D02*
X188170000Y-97040001D01*
X187900000Y-94210001D02*
X188170000Y-94210001D01*
X194530000Y-94210001D02*
X194530000Y-95310001D01*
%TO.C,J10*%
X174540000Y-62840000D02*
X174540000Y-66960000D01*
X175540000Y-61840000D02*
X174540000Y-62840000D01*
X184660000Y-61840000D02*
X175540000Y-61840000D01*
X174540000Y-66960000D02*
X184660000Y-66960000D01*
X184660000Y-66960000D02*
X184660000Y-61840000D01*
X184960000Y-63950000D02*
X184960000Y-61540000D01*
X184960000Y-61540000D02*
X182550000Y-61540000D01*
%TO.C,C7*%
X136050000Y-91969420D02*
X136050000Y-92250580D01*
X137070000Y-91969420D02*
X137070000Y-92250580D01*
%TO.C,R55*%
X157346359Y-62530000D02*
X157653641Y-62530000D01*
X157346359Y-61770000D02*
X157653641Y-61770000D01*
%TO.C,C35*%
X171651001Y-82960000D02*
X171651001Y-84643000D01*
X172091001Y-76300000D02*
X172091001Y-84340000D01*
X171571001Y-75949000D02*
X171571001Y-80880000D01*
X170171001Y-82960000D02*
X170171001Y-85258000D01*
X169931001Y-75330000D02*
X169931001Y-79280000D01*
X169450001Y-81360000D02*
X169450001Y-85378000D01*
X169530001Y-75270000D02*
X169530001Y-79280000D01*
X169650001Y-75285000D02*
X169650001Y-79280000D01*
X173331001Y-77675000D02*
X173331001Y-82965000D01*
X172491001Y-76641000D02*
X172491001Y-83999000D01*
X170211001Y-75392000D02*
X170211001Y-79280000D01*
X171971001Y-76210000D02*
X171971001Y-84430000D01*
X171171001Y-82960000D02*
X171171001Y-84904000D01*
X171571001Y-82960000D02*
X171571001Y-84691000D01*
X169050001Y-75240000D02*
X169050001Y-85400000D01*
X169971001Y-75338000D02*
X169971001Y-79280000D01*
X172331001Y-76496000D02*
X172331001Y-84144000D01*
X170171001Y-75382000D02*
X170171001Y-79280000D01*
X170691001Y-82960000D02*
X170691001Y-85103000D01*
X170491001Y-82960000D02*
X170491001Y-85170000D01*
X171291001Y-82960000D02*
X171291001Y-84845000D01*
X169851001Y-75316000D02*
X169851001Y-79280000D01*
X172731001Y-76884000D02*
X172731001Y-83756000D01*
X171091001Y-82960000D02*
X171091001Y-84941000D01*
X171851001Y-82960000D02*
X171851001Y-84514000D01*
X170891001Y-75613000D02*
X170891001Y-79280000D01*
X170251001Y-75402000D02*
X170251001Y-79280000D01*
X171051001Y-75681000D02*
X171051001Y-79280000D01*
X170331001Y-82960000D02*
X170331001Y-85217000D01*
X169450001Y-75262000D02*
X169450001Y-79280000D01*
X172691001Y-76842000D02*
X172691001Y-83798000D01*
X172291001Y-76462000D02*
X172291001Y-84178000D01*
X171691001Y-82960000D02*
X171691001Y-84618000D01*
X169290001Y-75250000D02*
X169290001Y-79280000D01*
X169330001Y-75252000D02*
X169330001Y-79280000D01*
X173131001Y-77375000D02*
X173131001Y-83265000D01*
X171091001Y-75699000D02*
X171091001Y-79280000D01*
X170651001Y-75523000D02*
X170651001Y-79280000D01*
X171291001Y-75795000D02*
X171291001Y-80880000D01*
X171611001Y-75973000D02*
X171611001Y-80880000D01*
X173691001Y-78376000D02*
X173691001Y-82264000D01*
X171331001Y-82960000D02*
X171331001Y-84824000D01*
X170971001Y-75646000D02*
X170971001Y-79280000D01*
X173291001Y-77611000D02*
X173291001Y-83029000D01*
X173771001Y-78578000D02*
X173771001Y-82062000D01*
X170411001Y-75446000D02*
X170411001Y-79280000D01*
X173851001Y-78810000D02*
X173851001Y-81830000D01*
X171531001Y-75925000D02*
X171531001Y-80880000D01*
X169410001Y-81360000D02*
X169410001Y-85382000D01*
X173491001Y-77955000D02*
X173491001Y-82685000D01*
X173171001Y-77431000D02*
X173171001Y-83209000D01*
X171131001Y-82960000D02*
X171131001Y-84923000D01*
X171011001Y-75663000D02*
X171011001Y-79280000D01*
X169130001Y-75242000D02*
X169130001Y-85398000D01*
X169250001Y-75247000D02*
X169250001Y-79280000D01*
X169330001Y-81360000D02*
X169330001Y-85388000D01*
X169610001Y-81360000D02*
X169610001Y-85360000D01*
X173371001Y-77741000D02*
X173371001Y-82899000D01*
X170731001Y-75552000D02*
X170731001Y-79280000D01*
X170931001Y-75630000D02*
X170931001Y-79280000D01*
X171891001Y-82960000D02*
X171891001Y-84486000D01*
X169691001Y-81360000D02*
X169691001Y-85350000D01*
X170851001Y-75597000D02*
X170851001Y-79280000D01*
X172451001Y-76604000D02*
X172451001Y-84036000D01*
X170851001Y-82960000D02*
X170851001Y-85043000D01*
X173051001Y-77266000D02*
X173051001Y-83374000D01*
X169490001Y-81360000D02*
X169490001Y-85374000D01*
X170651001Y-82960000D02*
X170651001Y-85117000D01*
X170931001Y-82960000D02*
X170931001Y-85010000D01*
X170611001Y-75509000D02*
X170611001Y-79280000D01*
X171251001Y-75775000D02*
X171251001Y-79280000D01*
X172371001Y-76531000D02*
X172371001Y-84109000D01*
X169731001Y-75296000D02*
X169731001Y-79280000D01*
X170011001Y-82960000D02*
X170011001Y-85294000D01*
X169650001Y-81360000D02*
X169650001Y-85355000D01*
X171891001Y-76154000D02*
X171891001Y-80880000D01*
X172891001Y-77066000D02*
X172891001Y-83574000D01*
X163990355Y-76945000D02*
X163990355Y-77945000D01*
X173931001Y-79090000D02*
X173931001Y-81550000D01*
X171851001Y-76126000D02*
X171851001Y-80880000D01*
X170091001Y-82960000D02*
X170091001Y-85276000D01*
X169370001Y-75255000D02*
X169370001Y-79280000D01*
X174051001Y-79721000D02*
X174051001Y-80919000D01*
X171651001Y-75997000D02*
X171651001Y-80880000D01*
X172811001Y-76973000D02*
X172811001Y-83667000D01*
X170771001Y-75566000D02*
X170771001Y-79280000D01*
X171211001Y-82960000D02*
X171211001Y-84884000D01*
X173971001Y-79258000D02*
X173971001Y-81382000D01*
X172531001Y-76680000D02*
X172531001Y-83960000D01*
X170451001Y-75458000D02*
X170451001Y-79280000D01*
X173251001Y-77550000D02*
X173251001Y-83090000D01*
X171931001Y-82960000D02*
X171931001Y-84458000D01*
X170971001Y-82960000D02*
X170971001Y-84994000D01*
X171411001Y-82960000D02*
X171411001Y-84782000D01*
X174011001Y-79458000D02*
X174011001Y-81182000D01*
X170051001Y-75355000D02*
X170051001Y-79280000D01*
X169851001Y-81360000D02*
X169851001Y-85324000D01*
X172251001Y-76428000D02*
X172251001Y-84212000D01*
X170891001Y-82960000D02*
X170891001Y-85027000D01*
X170691001Y-75537000D02*
X170691001Y-79280000D01*
X171611001Y-82960000D02*
X171611001Y-84667000D01*
X169891001Y-82960000D02*
X169891001Y-85317000D01*
X169010001Y-75240000D02*
X169010001Y-85400000D01*
X172411001Y-76567000D02*
X172411001Y-84073000D01*
X171371001Y-82960000D02*
X171371001Y-84803000D01*
X170131001Y-75373000D02*
X170131001Y-79280000D01*
X172011001Y-76240000D02*
X172011001Y-84400000D01*
X170611001Y-82960000D02*
X170611001Y-85131000D01*
X171811001Y-76099000D02*
X171811001Y-80880000D01*
X169731001Y-81360000D02*
X169731001Y-85344000D01*
X171531001Y-82960000D02*
X171531001Y-84715000D01*
X172931001Y-77114000D02*
X172931001Y-83526000D01*
X173891001Y-78942000D02*
X173891001Y-81698000D01*
X171491001Y-75903000D02*
X171491001Y-80880000D01*
X171011001Y-82960000D02*
X171011001Y-84977000D01*
X171931001Y-76182000D02*
X171931001Y-80880000D01*
X172051001Y-76270000D02*
X172051001Y-84370000D01*
X173731001Y-78474000D02*
X173731001Y-82166000D01*
X171131001Y-75717000D02*
X171131001Y-79280000D01*
X168970001Y-75240000D02*
X168970001Y-85400000D01*
X170731001Y-82960000D02*
X170731001Y-85088000D01*
X172771001Y-76928000D02*
X172771001Y-83712000D01*
X170411001Y-82960000D02*
X170411001Y-85194000D01*
X169290001Y-81360000D02*
X169290001Y-85390000D01*
X170251001Y-82960000D02*
X170251001Y-85238000D01*
X170531001Y-82960000D02*
X170531001Y-85157000D01*
X169090001Y-75241000D02*
X169090001Y-85399000D01*
X170571001Y-75496000D02*
X170571001Y-79280000D01*
X171411001Y-75858000D02*
X171411001Y-80880000D01*
X171371001Y-75837000D02*
X171371001Y-80880000D01*
X171691001Y-76022000D02*
X171691001Y-80880000D01*
X169891001Y-75323000D02*
X169891001Y-79280000D01*
X173531001Y-78031000D02*
X173531001Y-82609000D01*
X169410001Y-75258000D02*
X169410001Y-79280000D01*
X170811001Y-75582000D02*
X170811001Y-79280000D01*
X169250001Y-81360000D02*
X169250001Y-85393000D01*
X169811001Y-81360000D02*
X169811001Y-85331000D01*
X173091001Y-77320000D02*
X173091001Y-83320000D01*
X172211001Y-76395000D02*
X172211001Y-84245000D01*
X173011001Y-77214000D02*
X173011001Y-83426000D01*
X171811001Y-82960000D02*
X171811001Y-84541000D01*
X169170001Y-75243000D02*
X169170001Y-85397000D01*
X172651001Y-76800000D02*
X172651001Y-83840000D01*
X169570001Y-81360000D02*
X169570001Y-85365000D01*
X172171001Y-76363000D02*
X172171001Y-84277000D01*
X173411001Y-77810000D02*
X173411001Y-82830000D01*
X169971001Y-82960000D02*
X169971001Y-85302000D01*
X171171001Y-75736000D02*
X171171001Y-79280000D01*
X171051001Y-82960000D02*
X171051001Y-84959000D01*
X170131001Y-82960000D02*
X170131001Y-85267000D01*
X169771001Y-81360000D02*
X169771001Y-85338000D01*
X172851001Y-77019000D02*
X172851001Y-83621000D01*
X169210001Y-81360000D02*
X169210001Y-85395000D01*
X169210001Y-75245000D02*
X169210001Y-79280000D01*
X170531001Y-75483000D02*
X170531001Y-79280000D01*
X163490355Y-77445000D02*
X164490355Y-77445000D01*
X170291001Y-75413000D02*
X170291001Y-79280000D01*
X171251001Y-82960000D02*
X171251001Y-84865000D01*
X170491001Y-75470000D02*
X170491001Y-79280000D01*
X169570001Y-75275000D02*
X169570001Y-79280000D01*
X169811001Y-75309000D02*
X169811001Y-79280000D01*
X172971001Y-77164000D02*
X172971001Y-83476000D01*
X171451001Y-75880000D02*
X171451001Y-80880000D01*
X173211001Y-77490000D02*
X173211001Y-83150000D01*
X169771001Y-75302000D02*
X169771001Y-79280000D01*
X173611001Y-78195000D02*
X173611001Y-82445000D01*
X169370001Y-81360000D02*
X169370001Y-85385000D01*
X170771001Y-82960000D02*
X170771001Y-85074000D01*
X169931001Y-82960000D02*
X169931001Y-85310000D01*
X171771001Y-76073000D02*
X171771001Y-80880000D01*
X169530001Y-81360000D02*
X169530001Y-85370000D01*
X170211001Y-82960000D02*
X170211001Y-85248000D01*
X169691001Y-75290000D02*
X169691001Y-79280000D01*
X173451001Y-77881000D02*
X173451001Y-82759000D01*
X172571001Y-76719000D02*
X172571001Y-83921000D01*
X173571001Y-78111000D02*
X173571001Y-82529000D01*
X170011001Y-75346000D02*
X170011001Y-79280000D01*
X170331001Y-75423000D02*
X170331001Y-79280000D01*
X169490001Y-75266000D02*
X169490001Y-79280000D01*
X170091001Y-75364000D02*
X170091001Y-79280000D01*
X171211001Y-75756000D02*
X171211001Y-79280000D01*
X171771001Y-82960000D02*
X171771001Y-84567000D01*
X170051001Y-82960000D02*
X170051001Y-85285000D01*
X169610001Y-75280000D02*
X169610001Y-79280000D01*
X170811001Y-82960000D02*
X170811001Y-85058000D01*
X170291001Y-82960000D02*
X170291001Y-85227000D01*
X171451001Y-82960000D02*
X171451001Y-84760000D01*
X170571001Y-82960000D02*
X170571001Y-85144000D01*
X171731001Y-82960000D02*
X171731001Y-84593000D01*
X170371001Y-75435000D02*
X170371001Y-79280000D01*
X170451001Y-82960000D02*
X170451001Y-85182000D01*
X173651001Y-78283000D02*
X173651001Y-82357000D01*
X170371001Y-82960000D02*
X170371001Y-85205000D01*
X172131001Y-76331000D02*
X172131001Y-84309000D01*
X173811001Y-78690000D02*
X173811001Y-81950000D01*
X171491001Y-82960000D02*
X171491001Y-84737000D01*
X172611001Y-76759000D02*
X172611001Y-83881000D01*
X171731001Y-76047000D02*
X171731001Y-80880000D01*
X171331001Y-75816000D02*
X171331001Y-80880000D01*
X174090001Y-80320000D02*
G75*
G03*
X174090001Y-80320000I-5120000J0D01*
G01*
%TO.C,C25*%
X145010000Y-74642165D02*
X145010000Y-74857837D01*
X144290000Y-74642165D02*
X144290000Y-74857837D01*
%TO.C,R43*%
X198953641Y-111930000D02*
X198646359Y-111930000D01*
X198953641Y-111170000D02*
X198646359Y-111170000D01*
%TO.C,R11*%
X157870000Y-117153641D02*
X157870000Y-116846359D01*
X158630000Y-117153641D02*
X158630000Y-116846359D01*
%TO.C,R69*%
X161433641Y-76330000D02*
X161126359Y-76330000D01*
X161433641Y-77090000D02*
X161126359Y-77090000D01*
%TO.C,D1*%
X202792619Y-91103465D02*
X200332619Y-91103465D01*
X202792619Y-92573465D02*
X202792619Y-91103465D01*
X200332619Y-92573465D02*
X202792619Y-92573465D01*
%TO.C,C6*%
X130890000Y-111072164D02*
X130890000Y-111287836D01*
X131610000Y-111072164D02*
X131610000Y-111287836D01*
%TO.C,C27*%
X185895001Y-102968749D02*
X185895001Y-103491253D01*
X187365001Y-102968749D02*
X187365001Y-103491253D01*
%TO.C,Q1*%
X187780001Y-104130000D02*
X187780001Y-102630000D01*
X188050001Y-102630000D02*
X188050001Y-101530000D01*
X194410001Y-102630000D02*
X194410001Y-99800000D01*
X187780001Y-102630000D02*
X188050001Y-102630000D01*
X194680001Y-102630000D02*
X194410001Y-102630000D01*
X194680001Y-104130000D02*
X194680001Y-102630000D01*
%TO.C,SW3*%
X170682000Y-107722000D02*
X179318000Y-107722000D01*
X179318000Y-107722000D02*
X179318000Y-111278000D01*
X170682000Y-111278000D02*
X170682000Y-107722000D01*
X179318000Y-111278000D02*
X170682000Y-111278000D01*
G36*
X181096000Y-113056000D02*
G01*
X175000000Y-113056000D01*
X175000000Y-110770000D01*
X178810000Y-110770000D01*
X178810000Y-108230000D01*
X175000000Y-108230000D01*
X175000000Y-105944000D01*
X181096000Y-105944000D01*
X181096000Y-113056000D01*
G37*
X181096000Y-113056000D02*
X175000000Y-113056000D01*
X175000000Y-110770000D01*
X178810000Y-110770000D01*
X178810000Y-108230000D01*
X175000000Y-108230000D01*
X175000000Y-105944000D01*
X181096000Y-105944000D01*
X181096000Y-113056000D01*
%TO.C,C4*%
X157982164Y-82090000D02*
X158197836Y-82090000D01*
X157982164Y-81370000D02*
X158197836Y-81370000D01*
%TO.C,D17*%
X182350000Y-122850000D02*
X182350000Y-126000000D01*
X182350000Y-122850000D02*
X180650000Y-122850000D01*
X180650000Y-122850000D02*
X180650000Y-126000000D01*
D16*
%TO.C,D22*%
X143750000Y-80500000D02*
X143750000Y-78500000D01*
D17*
X143800000Y-78200000D02*
X143788000Y-78200000D01*
D16*
X143400000Y-79250000D02*
X141950000Y-79250000D01*
X141550000Y-78500000D02*
X141550000Y-80500000D01*
X143400000Y-79400000D02*
X142000000Y-79400000D01*
X141950000Y-79400000D02*
X141950000Y-79250000D01*
X143400000Y-79250000D02*
X143400000Y-79400000D01*
X142000000Y-79400000D02*
X141950000Y-79400000D01*
D15*
%TO.C,J9*%
X196560000Y-61540000D02*
X194150000Y-61540000D01*
X196260000Y-66960000D02*
X196260000Y-61840000D01*
X196260000Y-61840000D02*
X187140000Y-61840000D01*
X186140000Y-66960000D02*
X196260000Y-66960000D01*
X186140000Y-62840000D02*
X186140000Y-66960000D01*
X187140000Y-61840000D02*
X186140000Y-62840000D01*
X196560000Y-63950000D02*
X196560000Y-61540000D01*
D16*
%TO.C,D23*%
X147300000Y-79600000D02*
X147350000Y-79600000D01*
X147750000Y-80500000D02*
X147750000Y-78500000D01*
X145900000Y-79600000D02*
X147300000Y-79600000D01*
X147350000Y-79600000D02*
X147350000Y-79750000D01*
X145550000Y-78500000D02*
X145550000Y-80500000D01*
D17*
X145500000Y-80800000D02*
X145512000Y-80800000D01*
D16*
X145900000Y-79750000D02*
X147350000Y-79750000D01*
X145900000Y-79750000D02*
X145900000Y-79600000D01*
D15*
%TO.C,R10*%
X170787500Y-104342742D02*
X170787500Y-104817258D01*
X171832500Y-104342742D02*
X171832500Y-104817258D01*
%TO.C,J1*%
X199710000Y-61745000D02*
X209830000Y-61745000D01*
X199710000Y-66065000D02*
X199710000Y-70965000D01*
X209830000Y-66065000D02*
X210420000Y-66065000D01*
X209830000Y-63845000D02*
X210420000Y-63845000D01*
X199710000Y-70965000D02*
X209830000Y-70965000D01*
X199120000Y-63845000D02*
X199710000Y-63845000D01*
X209830000Y-66065000D02*
X209830000Y-70965000D01*
X199120000Y-66065000D02*
X199710000Y-66065000D01*
X209830000Y-61745000D02*
X209830000Y-63845000D01*
X199710000Y-61745000D02*
X199710000Y-63845000D01*
X199120000Y-63845000D02*
G75*
G03*
X199120000Y-66065000I0J-1110000D01*
G01*
X210420000Y-66065000D02*
G75*
G03*
X210420000Y-63845000I0J1110000D01*
G01*
%TO.C,R48*%
X139080119Y-80295723D02*
X139080119Y-79821207D01*
X140125119Y-80295723D02*
X140125119Y-79821207D01*
%TO.C,F1*%
X197322619Y-88838465D02*
X204942619Y-88838465D01*
X204942619Y-88838465D02*
X204942619Y-78838465D01*
X204942619Y-78838465D02*
X197322619Y-78838465D01*
X197322619Y-78838465D02*
X197322619Y-88838465D01*
X197322619Y-104838465D02*
X204942619Y-104838465D01*
X204942619Y-104838465D02*
X204942619Y-94838465D01*
X204942619Y-94838465D02*
X197322619Y-94838465D01*
X197322619Y-94838465D02*
X197322619Y-104838465D01*
%TO.C,D12*%
X200700000Y-108985000D02*
X203160000Y-108985000D01*
X203160000Y-107515000D02*
X200700000Y-107515000D01*
X203160000Y-108985000D02*
X203160000Y-107515000D01*
%TO.C,R3*%
X215730000Y-119753641D02*
X215730000Y-119446359D01*
X216490000Y-119753641D02*
X216490000Y-119446359D01*
%TO.C,C30*%
X184890580Y-112850000D02*
X184609420Y-112850000D01*
X184890580Y-113870000D02*
X184609420Y-113870000D01*
%TO.C,R35*%
X159116359Y-73120000D02*
X159423641Y-73120000D01*
X159116359Y-72360000D02*
X159423641Y-72360000D01*
%TO.C,R21*%
X173893641Y-114290000D02*
X173586359Y-114290000D01*
X173893641Y-113530000D02*
X173586359Y-113530000D01*
%TO.C,SW1*%
X161360000Y-108055000D02*
X161360000Y-120875000D01*
X163010000Y-108055000D02*
X161360000Y-108055000D01*
X161360000Y-120875000D02*
X166660000Y-120875000D01*
X166660000Y-108055000D02*
X165010000Y-108055000D01*
X166660000Y-120875000D02*
X166660000Y-108055000D01*
X163010000Y-108055000D02*
G75*
G03*
X165010000Y-108055000I1000000J0D01*
G01*
%TO.C,R37*%
X153470000Y-72566359D02*
X153470000Y-72873641D01*
X154230000Y-72566359D02*
X154230000Y-72873641D01*
%TO.C,J3*%
X217949999Y-91790000D02*
X215899999Y-91790000D01*
X215899999Y-91790000D02*
X215899999Y-92490000D01*
X213679999Y-80970000D02*
X213679999Y-92490000D01*
X223949999Y-82200000D02*
X217949999Y-82200000D01*
X217949999Y-81670000D02*
X215899999Y-81670000D01*
X217949999Y-91260000D02*
X217949999Y-91790000D01*
X223949999Y-82200000D02*
X223949999Y-91230000D01*
X217949999Y-81670000D02*
X217949999Y-82200000D01*
X215899999Y-80970000D02*
X215899999Y-81670000D01*
X223949999Y-91260000D02*
X217949999Y-91260000D01*
X213679999Y-92380000D02*
G75*
G03*
X215899999Y-92380000I1110000J0D01*
G01*
X215899999Y-81080000D02*
G75*
G03*
X213693364Y-80908271I-1110000J-1D01*
G01*
%TO.C,Q8*%
X184600001Y-97600001D02*
X187430001Y-97600001D01*
X183100001Y-90970001D02*
X184600001Y-90970001D01*
X184600001Y-97870001D02*
X184600001Y-97600001D01*
X184600001Y-90970001D02*
X184600001Y-91240001D01*
X184600001Y-91240001D02*
X185700001Y-91240001D01*
X183100001Y-97870001D02*
X184600001Y-97870001D01*
%TO.C,R45*%
X198953641Y-113170000D02*
X198646359Y-113170000D01*
X198953641Y-113930000D02*
X198646359Y-113930000D01*
D16*
%TO.C,D19*%
X145900000Y-72750000D02*
X145900000Y-72600000D01*
X147350000Y-72600000D02*
X147350000Y-72750000D01*
X145550000Y-71500000D02*
X145550000Y-73500000D01*
X145900000Y-72750000D02*
X147350000Y-72750000D01*
D17*
X145500000Y-73800000D02*
X145512000Y-73800000D01*
D16*
X147750000Y-73500000D02*
X147750000Y-71500000D01*
X147300000Y-72600000D02*
X147350000Y-72600000D01*
X145900000Y-72600000D02*
X147300000Y-72600000D01*
D15*
%TO.C,D28*%
X174480000Y-68400000D02*
X184720000Y-68400000D01*
X182140000Y-84290000D02*
X182140000Y-86830000D01*
X177060000Y-84290000D02*
X177060000Y-86830000D01*
X174480000Y-68400000D02*
X174480000Y-84290000D01*
X174480000Y-84290000D02*
X184720000Y-84290000D01*
X179600000Y-84290000D02*
X179600000Y-86830000D01*
X184720000Y-68400000D02*
X184720000Y-84290000D01*
%TO.C,Q20*%
X155170000Y-64590000D02*
X155170000Y-63940000D01*
X155170000Y-64590000D02*
X155170000Y-66265000D01*
X158290000Y-64590000D02*
X158290000Y-65240000D01*
X158290000Y-64590000D02*
X158290000Y-63940000D01*
%TO.C,R71*%
X161382742Y-91042500D02*
X161857258Y-91042500D01*
X161382742Y-89997500D02*
X161857258Y-89997500D01*
%TO.C,Q5*%
X179840001Y-100530001D02*
X179840001Y-99880001D01*
X182960001Y-100530001D02*
X182960001Y-99880001D01*
X182960001Y-100530001D02*
X182960001Y-101180001D01*
X179840001Y-100530001D02*
X179840001Y-102205001D01*
%TO.C,D2*%
X199200000Y-89100000D02*
X199200000Y-90800000D01*
X199200000Y-90800000D02*
X202350000Y-90800000D01*
X199200000Y-89100000D02*
X202350000Y-89100000D01*
%TO.C,R44*%
X198953641Y-112170000D02*
X198646359Y-112170000D01*
X198953641Y-112930000D02*
X198646359Y-112930000D01*
%TO.C,J8*%
X193310000Y-122090000D02*
X183190000Y-122090000D01*
X183190000Y-122090000D02*
X183190000Y-130210000D01*
X182890000Y-124200000D02*
X182890000Y-121790000D01*
X182890000Y-121790000D02*
X185300000Y-121790000D01*
X183190000Y-130210000D02*
X193310000Y-130210000D01*
X193310000Y-130210000D02*
X193310000Y-122090000D01*
%TO.C,JP2*%
X134382619Y-66768465D02*
X134382619Y-69368465D01*
X134382619Y-66768465D02*
X137042619Y-66768465D01*
X134382619Y-65498465D02*
X134382619Y-64168465D01*
X134382619Y-69368465D02*
X137042619Y-69368465D01*
X137042619Y-66768465D02*
X137042619Y-69368465D01*
X134382619Y-64168465D02*
X135712619Y-64168465D01*
%TO.C,C23*%
X144200000Y-81562164D02*
X144200000Y-81777836D01*
X144920000Y-81562164D02*
X144920000Y-81777836D01*
%TO.C,J2*%
X217929999Y-108400000D02*
X215879999Y-108400000D01*
X223929999Y-98810000D02*
X223929999Y-107840000D01*
X217929999Y-107870000D02*
X217929999Y-108400000D01*
X223929999Y-107870000D02*
X217929999Y-107870000D01*
X215879999Y-108400000D02*
X215879999Y-109100000D01*
X217929999Y-98280000D02*
X217929999Y-98810000D01*
X213659999Y-97580000D02*
X213659999Y-109100000D01*
X223929999Y-98810000D02*
X217929999Y-98810000D01*
X217929999Y-98280000D02*
X215879999Y-98280000D01*
X215879999Y-97580000D02*
X215879999Y-98280000D01*
X213659999Y-108990000D02*
G75*
G03*
X215879999Y-108990000I1110000J0D01*
G01*
X215879999Y-97690000D02*
G75*
G03*
X213673364Y-97518271I-1110000J-1D01*
G01*
%TO.C,R47*%
X142496359Y-88570000D02*
X142803641Y-88570000D01*
X142496359Y-89330000D02*
X142803641Y-89330000D01*
%TO.C,Q16*%
X137540000Y-85950000D02*
X137540000Y-85300000D01*
X137540000Y-85950000D02*
X137540000Y-86600000D01*
X140660000Y-85950000D02*
X140660000Y-86600000D01*
X140660000Y-85950000D02*
X140660000Y-84275000D01*
%TO.C,R54*%
X159643641Y-62520000D02*
X159336359Y-62520000D01*
X159643641Y-61760000D02*
X159336359Y-61760000D01*
%TO.C,C29*%
X184727837Y-104110001D02*
X184512165Y-104110001D01*
X184727837Y-104830001D02*
X184512165Y-104830001D01*
%TO.C,R39*%
X150096359Y-92620000D02*
X150403641Y-92620000D01*
X150096359Y-93380000D02*
X150403641Y-93380000D01*
%TO.C,Q21*%
X165760000Y-74940000D02*
X165760000Y-74670000D01*
X165760000Y-74670000D02*
X164660000Y-74670000D01*
X167260000Y-68040000D02*
X165760000Y-68040000D01*
X165760000Y-68310000D02*
X162930000Y-68310000D01*
X165760000Y-68040000D02*
X165760000Y-68310000D01*
X167260000Y-74940000D02*
X165760000Y-74940000D01*
%TO.C,Q10*%
X127980000Y-116042500D02*
X128630000Y-116042500D01*
X127980000Y-119162500D02*
X128630000Y-119162500D01*
X127980000Y-116042500D02*
X126305000Y-116042500D01*
X127980000Y-119162500D02*
X127330000Y-119162500D01*
%TO.C,C15*%
X158092164Y-92690000D02*
X158307836Y-92690000D01*
X158092164Y-93410000D02*
X158307836Y-93410000D01*
%TO.C,R7*%
X213530000Y-117406359D02*
X213530000Y-117713641D01*
X214290000Y-117406359D02*
X214290000Y-117713641D01*
%TO.C,R36*%
X159433641Y-73400000D02*
X159126359Y-73400000D01*
X159433641Y-74160000D02*
X159126359Y-74160000D01*
%TO.C,C5*%
X127732164Y-110130000D02*
X127947836Y-110130000D01*
X127732164Y-110850000D02*
X127947836Y-110850000D01*
%TO.C,D4*%
X163820000Y-106985000D02*
X163820000Y-105515000D01*
X161360000Y-106985000D02*
X163820000Y-106985000D01*
X163820000Y-105515000D02*
X161360000Y-105515000D01*
%TO.C,RV1*%
X159130000Y-79490000D02*
X159930000Y-79490000D01*
X156530000Y-79490000D02*
X157330000Y-79490000D01*
X158030000Y-75890000D02*
X158430000Y-75890000D01*
X156530000Y-79490000D02*
X156530000Y-75890000D01*
X159930000Y-79490000D02*
X159930000Y-75890000D01*
D16*
%TO.C,D27*%
X147300000Y-86600000D02*
X147350000Y-86600000D01*
X145900000Y-86750000D02*
X145900000Y-86600000D01*
X145900000Y-86750000D02*
X147350000Y-86750000D01*
X145900000Y-86600000D02*
X147300000Y-86600000D01*
D17*
X145500000Y-87800000D02*
X145512000Y-87800000D01*
D16*
X147750000Y-87500000D02*
X147750000Y-85500000D01*
X147350000Y-86600000D02*
X147350000Y-86750000D01*
X145550000Y-85500000D02*
X145550000Y-87500000D01*
%TO.C,D25*%
X147300000Y-83100000D02*
X147350000Y-83100000D01*
X145550000Y-82000000D02*
X145550000Y-84000000D01*
X147750000Y-84000000D02*
X147750000Y-82000000D01*
X145900000Y-83250000D02*
X145900000Y-83100000D01*
X147350000Y-83100000D02*
X147350000Y-83250000D01*
X145900000Y-83100000D02*
X147300000Y-83100000D01*
D17*
X145500000Y-84300000D02*
X145512000Y-84300000D01*
D16*
X145900000Y-83250000D02*
X147350000Y-83250000D01*
D15*
%TO.C,R30*%
X152522567Y-79905000D02*
X152215285Y-79905000D01*
X152522567Y-79145000D02*
X152215285Y-79145000D01*
D17*
%TO.C,D20*%
X143800000Y-81700000D02*
X143788000Y-81700000D01*
D16*
X142000000Y-82900000D02*
X141950000Y-82900000D01*
X141550000Y-82000000D02*
X141550000Y-84000000D01*
X143750000Y-84000000D02*
X143750000Y-82000000D01*
X143400000Y-82750000D02*
X141950000Y-82750000D01*
X141950000Y-82900000D02*
X141950000Y-82750000D01*
X143400000Y-82900000D02*
X142000000Y-82900000D01*
X143400000Y-82750000D02*
X143400000Y-82900000D01*
D15*
%TO.C,Q15*%
X152640000Y-76757500D02*
X152640000Y-77407500D01*
X155760000Y-76757500D02*
X155760000Y-75082500D01*
X152640000Y-76757500D02*
X152640000Y-76107500D01*
X155760000Y-76757500D02*
X155760000Y-77407500D01*
%TO.C,C10*%
X159183709Y-72073690D02*
X159399381Y-72073690D01*
X159183709Y-71353690D02*
X159399381Y-71353690D01*
%TO.C,R31*%
X158403641Y-101120000D02*
X158096359Y-101120000D01*
X158403641Y-101880000D02*
X158096359Y-101880000D01*
%TO.C,C13*%
X156505000Y-122188748D02*
X156505000Y-122711252D01*
X155035000Y-122188748D02*
X155035000Y-122711252D01*
%TO.C,D13*%
X200700000Y-110735000D02*
X203160000Y-110735000D01*
X203160000Y-109265000D02*
X200700000Y-109265000D01*
X203160000Y-110735000D02*
X203160000Y-109265000D01*
%TO.C,R17*%
X138453641Y-90920000D02*
X138146359Y-90920000D01*
X138453641Y-90160000D02*
X138146359Y-90160000D01*
%TO.C,Q17*%
X138372619Y-80518465D02*
X138372619Y-78843465D01*
X135252619Y-80518465D02*
X135252619Y-79868465D01*
X138372619Y-80518465D02*
X138372619Y-81168465D01*
X135252619Y-80518465D02*
X135252619Y-81168465D01*
%TO.C,R23*%
X168506359Y-104120000D02*
X168813641Y-104120000D01*
X168506359Y-104880000D02*
X168813641Y-104880000D01*
%TO.C,R2*%
X214290000Y-119763641D02*
X214290000Y-119456359D01*
X213530000Y-119763641D02*
X213530000Y-119456359D01*
%TO.C,R8*%
X157870000Y-114653641D02*
X157870000Y-114346359D01*
X158630000Y-114653641D02*
X158630000Y-114346359D01*
%TO.C,R61*%
X176262501Y-90762743D02*
X176262501Y-91237259D01*
X175217501Y-90762743D02*
X175217501Y-91237259D01*
%TO.C,J7*%
X178560000Y-122090000D02*
X168440000Y-122090000D01*
X168440000Y-122090000D02*
X168440000Y-130210000D01*
X178560000Y-130210000D02*
X178560000Y-122090000D01*
X168140000Y-121790000D02*
X170550000Y-121790000D01*
X168440000Y-130210000D02*
X178560000Y-130210000D01*
X168140000Y-124200000D02*
X168140000Y-121790000D01*
%TO.C,D6*%
X164250000Y-105515000D02*
X164250000Y-106985000D01*
X164250000Y-106985000D02*
X166710000Y-106985000D01*
X166710000Y-105515000D02*
X164250000Y-105515000D01*
%TO.C,R28*%
X142273641Y-98530000D02*
X141966359Y-98530000D01*
X142273641Y-97770000D02*
X141966359Y-97770000D01*
%TO.C,R38*%
X156820000Y-84303641D02*
X156820000Y-83996359D01*
X156060000Y-84303641D02*
X156060000Y-83996359D01*
%TO.C,R24*%
X136990000Y-98793641D02*
X136990000Y-98486359D01*
X136230000Y-98793641D02*
X136230000Y-98486359D01*
%TO.C,Q19*%
X158680000Y-64590000D02*
X158680000Y-63940000D01*
X161800000Y-64590000D02*
X161800000Y-65240000D01*
X158680000Y-64590000D02*
X158680000Y-66265000D01*
X161800000Y-64590000D02*
X161800000Y-63940000D01*
%TO.C,U4*%
X153080000Y-124120000D02*
X153460000Y-124120000D01*
X153080000Y-130535000D02*
X153080000Y-124120000D01*
X153080000Y-104795000D02*
X152080000Y-104795000D01*
X134840000Y-104795000D02*
X135840000Y-104795000D01*
X153080000Y-105575000D02*
X153080000Y-104795000D01*
X134840000Y-130535000D02*
X134840000Y-124120000D01*
X134840000Y-105575000D02*
X134840000Y-104795000D01*
X153080000Y-130535000D02*
X134840000Y-130535000D01*
%TO.C,R57*%
X135006260Y-70848465D02*
X134698978Y-70848465D01*
X135006260Y-70088465D02*
X134698978Y-70088465D01*
%TO.C,R15*%
X133870000Y-94753641D02*
X133870000Y-94446359D01*
X134630000Y-94753641D02*
X134630000Y-94446359D01*
%TO.C,Q6*%
X139150000Y-97850000D02*
X138500000Y-97850000D01*
X139150000Y-100970000D02*
X140825000Y-100970000D01*
X139150000Y-100970000D02*
X138500000Y-100970000D01*
X139150000Y-97850000D02*
X139800000Y-97850000D01*
%TO.C,R49*%
X139438978Y-81758465D02*
X139746260Y-81758465D01*
X139438978Y-82518465D02*
X139746260Y-82518465D01*
%TO.C,R70*%
X161738807Y-73514018D02*
X161738807Y-73039502D01*
X160693807Y-73514018D02*
X160693807Y-73039502D01*
%TO.C,R12*%
X158630000Y-119653641D02*
X158630000Y-119346359D01*
X157870000Y-119653641D02*
X157870000Y-119346359D01*
%TO.C,C12*%
X156810000Y-82327836D02*
X156810000Y-82112164D01*
X156090000Y-82327836D02*
X156090000Y-82112164D01*
%TO.C,SW5*%
X155950000Y-102350000D02*
X154950000Y-102350000D01*
X156950000Y-94150000D02*
X159550000Y-94150000D01*
X155000000Y-94350000D02*
X155000000Y-100150000D01*
X156950000Y-100350000D02*
X159550000Y-100350000D01*
X154950000Y-102350000D02*
X154950000Y-101350000D01*
X161500000Y-94250000D02*
X161500000Y-100250000D01*
%TO.C,D15*%
X203160000Y-114235000D02*
X203160000Y-112765000D01*
X203160000Y-112765000D02*
X200700000Y-112765000D01*
X200700000Y-114235000D02*
X203160000Y-114235000D01*
%TO.C,R25*%
X143916359Y-98540000D02*
X144223641Y-98540000D01*
X143916359Y-97780000D02*
X144223641Y-97780000D01*
%TO.C,R6*%
X158630000Y-112153641D02*
X158630000Y-111846359D01*
X157870000Y-112153641D02*
X157870000Y-111846359D01*
%TO.C,D3*%
X183380001Y-103790001D02*
X185380001Y-103790001D01*
X185380001Y-103790001D02*
X185380001Y-99890001D01*
X183380001Y-103790001D02*
X183380001Y-99890001D01*
%TD*%
%LPC*%
D19*
%TO.C,R29*%
X159920000Y-104500000D03*
X158900000Y-104500000D03*
%TD*%
D20*
%TO.C,D24*%
X143199999Y-75085000D03*
X142099999Y-75085000D03*
X142099999Y-76915000D03*
X143199999Y-76915000D03*
%TD*%
D21*
%TO.C,D29*%
X168520001Y-100680001D03*
X166020001Y-100680001D03*
%TD*%
D22*
%TO.C,R53*%
X153490000Y-62160000D03*
X154510000Y-62160000D03*
%TD*%
D19*
%TO.C,R56*%
X139652619Y-70478465D03*
X138632619Y-70478465D03*
%TD*%
D23*
%TO.C,SW2*%
X210120000Y-114590000D03*
X210120000Y-124750000D03*
D24*
X210120000Y-122210000D03*
D23*
X210120000Y-119670000D03*
X210120000Y-117130000D03*
%TD*%
D19*
%TO.C,R22*%
X159910000Y-106250000D03*
X158890000Y-106250000D03*
%TD*%
D25*
%TO.C,C16*%
X154240000Y-122150000D03*
X154240000Y-123110000D03*
%TD*%
D26*
%TO.C,Q4*%
X137570000Y-94450000D03*
X135670000Y-94450000D03*
X136620000Y-96850000D03*
%TD*%
D27*
%TO.C,C8*%
X186740000Y-88470000D03*
X186740000Y-86570000D03*
%TD*%
D25*
%TO.C,C24*%
X144650000Y-77770000D03*
X144650000Y-78730000D03*
%TD*%
D28*
%TO.C,D14*%
X202375000Y-111750000D03*
X200625000Y-111750000D03*
%TD*%
D29*
%TO.C,C34*%
X168050001Y-86800001D03*
X169950001Y-86800001D03*
%TD*%
D28*
%TO.C,D7*%
X163035000Y-104500000D03*
X161285000Y-104500000D03*
%TD*%
D30*
%TO.C,J13*%
X148122619Y-68078465D03*
D31*
X145622619Y-68078465D03*
X143122619Y-68078465D03*
X140622619Y-68078465D03*
%TD*%
D22*
%TO.C,R26*%
X126450000Y-111650000D03*
X127470000Y-111650000D03*
%TD*%
D19*
%TO.C,R33*%
X158270000Y-67040000D03*
X157250000Y-67040000D03*
%TD*%
D32*
%TO.C,R67*%
X169827382Y-88641536D03*
X168177382Y-88641536D03*
%TD*%
D33*
%TO.C,R32*%
X179110001Y-99860001D03*
X179110001Y-100880001D03*
%TD*%
D34*
%TO.C,J6*%
X199400000Y-120540000D03*
X204400000Y-120540000D03*
D35*
X199650000Y-116540000D03*
D36*
X204150000Y-116540000D03*
X199000000Y-124040000D03*
X204800000Y-124040000D03*
%TD*%
D37*
%TO.C,C31*%
X183260001Y-90330001D03*
X184220001Y-90330001D03*
%TD*%
D21*
%TO.C,D9*%
X161610000Y-70980000D03*
X161610000Y-68480000D03*
%TD*%
D38*
%TO.C,C36*%
X172797381Y-88631537D03*
X171247381Y-88631537D03*
%TD*%
D39*
%TO.C,Q12*%
X159461545Y-70343690D03*
X159461545Y-68443690D03*
X157061545Y-69393690D03*
%TD*%
D33*
%TO.C,R14*%
X134240000Y-96070000D03*
X134240000Y-97090000D03*
%TD*%
D40*
%TO.C,Q2*%
X216612500Y-115870000D03*
X216612500Y-117770000D03*
X218487500Y-116820000D03*
%TD*%
D19*
%TO.C,R13*%
X174250000Y-106750000D03*
X173230000Y-106750000D03*
%TD*%
%TO.C,R50*%
X154250000Y-67060000D03*
X153230000Y-67060000D03*
%TD*%
%TO.C,R18*%
X138820000Y-89540000D03*
X137800000Y-89540000D03*
%TD*%
D37*
%TO.C,C14*%
X154220000Y-120100000D03*
X155180000Y-120100000D03*
%TD*%
D41*
%TO.C,U6*%
X182905001Y-111240001D03*
X184175001Y-111240001D03*
X185445001Y-111240001D03*
X186715001Y-111240001D03*
X186715001Y-106290001D03*
X185445001Y-106290001D03*
X184175001Y-106290001D03*
X182905001Y-106290001D03*
%TD*%
D42*
%TO.C,C9*%
X184890001Y-86965000D03*
X184890001Y-88515000D03*
%TD*%
D26*
%TO.C,Q14*%
X149750000Y-77920000D03*
X151650000Y-77920000D03*
X150700000Y-75520000D03*
%TD*%
D30*
%TO.C,J11*%
X170500000Y-63750000D03*
D31*
X168000000Y-63750000D03*
X165500000Y-63750000D03*
%TD*%
D43*
%TO.C,R59*%
X186750000Y-98835001D03*
X186750000Y-100485001D03*
%TD*%
D44*
%TO.C,J4*%
X131305000Y-98230000D03*
X131305000Y-92450000D03*
D45*
X132425000Y-92140000D03*
X132425000Y-92940000D03*
D46*
X132425000Y-94090000D03*
X132425000Y-95090000D03*
X132425000Y-95590000D03*
X132425000Y-96590000D03*
D45*
X132425000Y-97740000D03*
X132425000Y-98540000D03*
X132425000Y-98540000D03*
X132425000Y-97740000D03*
D46*
X132425000Y-97090000D03*
X132425000Y-96090000D03*
X132425000Y-94590000D03*
X132425000Y-93590000D03*
D45*
X132425000Y-92940000D03*
X132425000Y-92140000D03*
D47*
X131825000Y-91020000D03*
D48*
X127625000Y-99660000D03*
X127625000Y-91020000D03*
D47*
X131825000Y-99660000D03*
%TD*%
D42*
%TO.C,C32*%
X174352620Y-87113466D03*
X174352620Y-88663466D03*
%TD*%
D49*
%TO.C,TP5*%
X128120000Y-87970000D03*
%TD*%
D50*
%TO.C,SW4*%
X152500000Y-93250000D03*
X152500000Y-101250000D03*
X148000000Y-101250000D03*
X148000000Y-93250000D03*
%TD*%
D51*
%TO.C,Q18*%
X152310000Y-65537500D03*
X154210000Y-65537500D03*
X153260000Y-63662500D03*
%TD*%
D52*
%TO.C,D5*%
X165035000Y-104500000D03*
X166785000Y-104500000D03*
%TD*%
D53*
%TO.C,C1*%
X215020000Y-120080000D03*
X215020000Y-119120000D03*
%TD*%
D54*
%TO.C,R16*%
X134240000Y-99090000D03*
X134240000Y-98070000D03*
%TD*%
D19*
%TO.C,R52*%
X156260000Y-67050000D03*
X155240000Y-67050000D03*
%TD*%
D53*
%TO.C,C21*%
X144650000Y-71730000D03*
X144650000Y-70770000D03*
%TD*%
D55*
%TO.C,U3*%
X154638926Y-80095000D03*
D56*
X152358926Y-86395000D03*
D55*
X150078926Y-80095000D03*
%TD*%
D57*
%TO.C,U5*%
X135887619Y-77403465D03*
X137157619Y-77403465D03*
X138427619Y-77403465D03*
X139697619Y-77403465D03*
X139697619Y-72153465D03*
X138427619Y-72153465D03*
X137157619Y-72153465D03*
X135887619Y-72153465D03*
%TD*%
D54*
%TO.C,R73*%
X164000000Y-72010000D03*
X164000000Y-70990000D03*
%TD*%
D58*
%TO.C,SW6*%
X177540000Y-116640000D03*
D59*
X175000000Y-116640000D03*
X172460000Y-116640000D03*
%TD*%
D60*
%TO.C,Q11*%
X145060000Y-94772500D03*
X143160000Y-94772500D03*
X144110000Y-96647500D03*
%TD*%
D57*
%TO.C,U1*%
X157825000Y-88595000D03*
X159095000Y-88595000D03*
X160365000Y-88595000D03*
X161635000Y-88595000D03*
X161635000Y-83345000D03*
X160365000Y-83345000D03*
X159095000Y-83345000D03*
X157825000Y-83345000D03*
%TD*%
D54*
%TO.C,R4*%
X215010000Y-118070000D03*
X215010000Y-117050000D03*
%TD*%
D19*
%TO.C,R1*%
X198992619Y-91838465D03*
X197972619Y-91838465D03*
%TD*%
D61*
%TO.C,D8*%
X179120001Y-103750001D03*
X182420001Y-103750001D03*
%TD*%
D22*
%TO.C,R19*%
X197940000Y-92880000D03*
X198960000Y-92880000D03*
%TD*%
D62*
%TO.C,C17*%
X150250000Y-103212500D03*
X150250000Y-101487500D03*
%TD*%
D54*
%TO.C,R5*%
X158250000Y-110010000D03*
X158250000Y-108990000D03*
%TD*%
D63*
%TO.C,C18*%
X190220001Y-83420001D03*
X190220001Y-76220001D03*
%TD*%
D21*
%TO.C,D16*%
X171250000Y-120500000D03*
X173750000Y-120500000D03*
%TD*%
D22*
%TO.C,R58*%
X136682619Y-70478465D03*
X137702619Y-70478465D03*
%TD*%
D64*
%TO.C,C19*%
X150640000Y-91010000D03*
X148740000Y-91010000D03*
%TD*%
D25*
%TO.C,C22*%
X144530000Y-84700000D03*
X144530000Y-85660000D03*
%TD*%
D22*
%TO.C,R27*%
X168150000Y-106250000D03*
X169170000Y-106250000D03*
%TD*%
D37*
%TO.C,C11*%
X151888926Y-80585000D03*
X152848926Y-80585000D03*
%TD*%
D22*
%TO.C,R46*%
X139090000Y-83350000D03*
X140110000Y-83350000D03*
%TD*%
D65*
%TO.C,R20*%
X185425001Y-90070001D03*
X187075001Y-90070001D03*
%TD*%
D20*
%TO.C,D21*%
X146100001Y-76915000D03*
X147200001Y-76915000D03*
X147200001Y-75085000D03*
X146100001Y-75085000D03*
%TD*%
D66*
%TO.C,U2*%
X131240000Y-103420000D03*
X130240000Y-103420000D03*
X129240000Y-103420000D03*
X128240000Y-103420000D03*
X127240000Y-103420000D03*
X127240000Y-108920000D03*
X128240000Y-108920000D03*
X129240000Y-108920000D03*
X130240000Y-108920000D03*
X131240000Y-108920000D03*
D67*
X129240000Y-106170000D03*
%TD*%
D68*
%TO.C,JP3*%
X138315000Y-92350000D03*
D69*
X139765000Y-92350000D03*
%TD*%
D19*
%TO.C,R60*%
X185510000Y-98590001D03*
X184490000Y-98590001D03*
%TD*%
D70*
%TO.C,H5*%
X146650000Y-89500000D03*
%TD*%
D39*
%TO.C,Q7*%
X141570000Y-96410000D03*
X141570000Y-94510000D03*
X139170000Y-95460000D03*
%TD*%
D21*
%TO.C,D10*%
X142050000Y-90550000D03*
X144550000Y-90550000D03*
%TD*%
D53*
%TO.C,C26*%
X134440000Y-72490000D03*
X134440000Y-71530000D03*
%TD*%
D19*
%TO.C,R51*%
X160260000Y-67040000D03*
X159240000Y-67040000D03*
%TD*%
D21*
%TO.C,D11*%
X142050000Y-92550000D03*
X144550000Y-92550000D03*
%TD*%
D43*
%TO.C,R9*%
X171330000Y-100695000D03*
X171330000Y-102345000D03*
%TD*%
D71*
%TO.C,J12*%
X131912619Y-74868465D03*
D72*
X131912619Y-77368465D03*
X131912619Y-79868465D03*
X131912619Y-82368465D03*
%TD*%
D22*
%TO.C,R40*%
X152890000Y-74270000D03*
X153910000Y-74270000D03*
%TD*%
D73*
%TO.C,C28*%
X187150000Y-117000000D03*
X194350000Y-117000000D03*
%TD*%
D74*
%TO.C,C2*%
X159965000Y-81480000D03*
X161515000Y-81480000D03*
%TD*%
D20*
%TO.C,D18*%
X143200000Y-85585000D03*
X142100000Y-85585000D03*
X142100000Y-87415000D03*
X143200000Y-87415000D03*
%TD*%
D40*
%TO.C,Q9*%
X127042500Y-113062500D03*
X127042500Y-114962500D03*
X128917500Y-114012500D03*
%TD*%
D75*
%TO.C,L1*%
X172640370Y-94498466D03*
X165401370Y-94498466D03*
%TD*%
D76*
%TO.C,Q13*%
X157275000Y-73870000D03*
X157275000Y-71970000D03*
X155400000Y-72920000D03*
%TD*%
D77*
%TO.C,C3*%
X134760000Y-90920000D03*
X134760000Y-92820000D03*
%TD*%
D78*
%TO.C,R68*%
X161090000Y-79585000D03*
X161090000Y-77935000D03*
%TD*%
D19*
%TO.C,R42*%
X199310000Y-110550000D03*
X198290000Y-110550000D03*
%TD*%
D32*
%TO.C,R72*%
X159385000Y-90520000D03*
X157735000Y-90520000D03*
%TD*%
D20*
%TO.C,D26*%
X143200000Y-71585000D03*
X142100000Y-71585000D03*
X142100000Y-73415000D03*
X143200000Y-73415000D03*
%TD*%
D55*
%TO.C,Q3*%
X189070000Y-95940001D03*
D56*
X191350000Y-89640001D03*
D55*
X193630000Y-95940001D03*
%TD*%
D30*
%TO.C,J10*%
X182100000Y-63750000D03*
D31*
X179600000Y-63750000D03*
X177100000Y-63750000D03*
%TD*%
D42*
%TO.C,C7*%
X136560000Y-91335000D03*
X136560000Y-92885000D03*
%TD*%
D22*
%TO.C,R55*%
X156990000Y-62150000D03*
X158010000Y-62150000D03*
%TD*%
D79*
%TO.C,C35*%
X167720001Y-80320000D03*
X167049064Y-78720000D03*
D80*
X170220001Y-80320000D03*
X170890938Y-81920000D03*
%TD*%
D25*
%TO.C,C25*%
X144650000Y-74270001D03*
X144650000Y-75230001D03*
%TD*%
D19*
%TO.C,R43*%
X199310000Y-111550000D03*
X198290000Y-111550000D03*
%TD*%
D54*
%TO.C,R11*%
X158250000Y-117510000D03*
X158250000Y-116490000D03*
%TD*%
D19*
%TO.C,R69*%
X161790000Y-76710000D03*
X160770000Y-76710000D03*
%TD*%
D28*
%TO.C,D1*%
X202007619Y-91838465D03*
X200257619Y-91838465D03*
%TD*%
D25*
%TO.C,C6*%
X131250000Y-110700000D03*
X131250000Y-111660000D03*
%TD*%
D77*
%TO.C,C27*%
X186630001Y-102280001D03*
X186630001Y-104180001D03*
%TD*%
D55*
%TO.C,Q1*%
X193510001Y-100900000D03*
D56*
X191230001Y-107200000D03*
D55*
X188950001Y-100900000D03*
%TD*%
D58*
%TO.C,SW3*%
X177540000Y-109500000D03*
D59*
X175000000Y-109500000D03*
X172460000Y-109500000D03*
%TD*%
D37*
%TO.C,C4*%
X157610000Y-81730000D03*
X158570000Y-81730000D03*
%TD*%
D21*
%TO.C,D17*%
X181500000Y-123500000D03*
X181500000Y-126000000D03*
%TD*%
D20*
%TO.C,D22*%
X143200000Y-78585000D03*
X142100000Y-78585000D03*
X142100000Y-80415000D03*
X143200000Y-80415000D03*
%TD*%
D30*
%TO.C,J9*%
X193700000Y-63750000D03*
D31*
X191200000Y-63750000D03*
X188700000Y-63750000D03*
%TD*%
D20*
%TO.C,D23*%
X146100000Y-80415000D03*
X147200000Y-80415000D03*
X147200000Y-78585000D03*
X146100000Y-78585000D03*
%TD*%
D43*
%TO.C,R10*%
X171310000Y-103755000D03*
X171310000Y-105405000D03*
%TD*%
D81*
%TO.C,J1*%
X199270000Y-64955000D03*
X210270000Y-64955000D03*
D82*
X207270000Y-74955000D03*
D83*
X202270000Y-74955000D03*
%TD*%
D78*
%TO.C,R48*%
X139602619Y-80883465D03*
X139602619Y-79233465D03*
%TD*%
D84*
%TO.C,F1*%
X201132619Y-96638465D03*
X201132619Y-103338465D03*
X201132619Y-80338465D03*
X201132619Y-87038465D03*
%TD*%
D28*
%TO.C,D12*%
X202375000Y-108250000D03*
X200625000Y-108250000D03*
%TD*%
D54*
%TO.C,R3*%
X216110000Y-120110000D03*
X216110000Y-119090000D03*
%TD*%
D38*
%TO.C,C30*%
X185525000Y-113360000D03*
X183975000Y-113360000D03*
%TD*%
D22*
%TO.C,R35*%
X158760000Y-72740000D03*
X159780000Y-72740000D03*
%TD*%
D19*
%TO.C,R21*%
X174250000Y-113910000D03*
X173230000Y-113910000D03*
%TD*%
D79*
%TO.C,SW1*%
X160200000Y-109385000D03*
D85*
X160200000Y-111925000D03*
X160200000Y-114465000D03*
X160200000Y-117005000D03*
X160200000Y-119545000D03*
X167820000Y-119545000D03*
X167820000Y-117005000D03*
X167820000Y-114465000D03*
X167820000Y-111925000D03*
X167820000Y-109385000D03*
%TD*%
D33*
%TO.C,R37*%
X153850000Y-72210000D03*
X153850000Y-73230000D03*
%TD*%
D81*
%TO.C,J3*%
X214789999Y-81230000D03*
X214789999Y-92230000D03*
D82*
X209789999Y-84230000D03*
D83*
X209789999Y-89230000D03*
%TD*%
D86*
%TO.C,Q8*%
X186330001Y-96700001D03*
D87*
X180030001Y-94420001D03*
D86*
X186330001Y-92140001D03*
%TD*%
D19*
%TO.C,R45*%
X199310000Y-113550000D03*
X198290000Y-113550000D03*
%TD*%
D20*
%TO.C,D19*%
X146100000Y-73415000D03*
X147200000Y-73415000D03*
X147200000Y-71585000D03*
X146100000Y-71585000D03*
%TD*%
D88*
%TO.C,D28*%
X179600000Y-71320000D03*
D89*
X177060000Y-87980000D03*
D90*
X179600000Y-87980000D03*
X182140000Y-87980000D03*
%TD*%
D51*
%TO.C,Q20*%
X155780000Y-65527500D03*
X157680000Y-65527500D03*
X156730000Y-63652500D03*
%TD*%
D65*
%TO.C,R71*%
X160795000Y-90520000D03*
X162445000Y-90520000D03*
%TD*%
D51*
%TO.C,Q5*%
X180450001Y-101467501D03*
X182350001Y-101467501D03*
X181400001Y-99592501D03*
%TD*%
D21*
%TO.C,D2*%
X199850000Y-89950000D03*
X202350000Y-89950000D03*
%TD*%
D19*
%TO.C,R44*%
X199310000Y-112550000D03*
X198290000Y-112550000D03*
%TD*%
D91*
%TO.C,J8*%
X185750000Y-123500000D03*
D31*
X188250000Y-123500000D03*
X190750000Y-123500000D03*
%TD*%
D92*
%TO.C,JP2*%
X135712619Y-65498465D03*
D93*
X135712619Y-68038465D03*
%TD*%
D25*
%TO.C,C23*%
X144560000Y-81190000D03*
X144560000Y-82150000D03*
%TD*%
D81*
%TO.C,J2*%
X214769999Y-97840000D03*
X214769999Y-108840000D03*
D82*
X209769999Y-100840000D03*
D83*
X209769999Y-105840000D03*
%TD*%
D22*
%TO.C,R47*%
X142140000Y-88950000D03*
X143160000Y-88950000D03*
%TD*%
D60*
%TO.C,Q16*%
X140050000Y-85012500D03*
X138150000Y-85012500D03*
X139100000Y-86887500D03*
%TD*%
D19*
%TO.C,R54*%
X160000000Y-62140000D03*
X158980000Y-62140000D03*
%TD*%
D94*
%TO.C,C29*%
X185100001Y-104470001D03*
X184140001Y-104470001D03*
%TD*%
D22*
%TO.C,R39*%
X149740000Y-93000000D03*
X150760000Y-93000000D03*
%TD*%
D86*
%TO.C,Q21*%
X164030000Y-69210000D03*
D87*
X170330000Y-71490000D03*
D86*
X164030000Y-73770000D03*
%TD*%
D40*
%TO.C,Q10*%
X127042500Y-116652500D03*
X127042500Y-118552500D03*
X128917500Y-117602500D03*
%TD*%
D37*
%TO.C,C15*%
X157720000Y-93050000D03*
X158680000Y-93050000D03*
%TD*%
D33*
%TO.C,R7*%
X213910000Y-117050000D03*
X213910000Y-118070000D03*
%TD*%
D19*
%TO.C,R36*%
X159790000Y-73780000D03*
X158770000Y-73780000D03*
%TD*%
D37*
%TO.C,C5*%
X127360000Y-110490000D03*
X128320000Y-110490000D03*
%TD*%
D28*
%TO.C,D4*%
X163035000Y-106250000D03*
X161285000Y-106250000D03*
%TD*%
D95*
%TO.C,RV1*%
X159155000Y-75840000D03*
D70*
X158230000Y-79440000D03*
D95*
X157305000Y-75840000D03*
%TD*%
D20*
%TO.C,D27*%
X146100000Y-87415000D03*
X147200000Y-87415000D03*
X147200000Y-85585000D03*
X146100000Y-85585000D03*
%TD*%
%TO.C,D25*%
X146100000Y-83915000D03*
X147200000Y-83915000D03*
X147200000Y-82085000D03*
X146100000Y-82085000D03*
%TD*%
D19*
%TO.C,R30*%
X152878926Y-79525000D03*
X151858926Y-79525000D03*
%TD*%
D20*
%TO.C,D20*%
X143200000Y-82085000D03*
X142100000Y-82085000D03*
X142100000Y-83915000D03*
X143200000Y-83915000D03*
%TD*%
D60*
%TO.C,Q15*%
X155150000Y-75820000D03*
X153250000Y-75820000D03*
X154200000Y-77695000D03*
%TD*%
D37*
%TO.C,C10*%
X158811545Y-71713690D03*
X159771545Y-71713690D03*
%TD*%
D19*
%TO.C,R31*%
X158760000Y-101500000D03*
X157740000Y-101500000D03*
%TD*%
D77*
%TO.C,C13*%
X155770000Y-121500000D03*
X155770000Y-123400000D03*
%TD*%
D28*
%TO.C,D13*%
X202375000Y-110000000D03*
X200625000Y-110000000D03*
%TD*%
D19*
%TO.C,R17*%
X138810000Y-90540000D03*
X137790000Y-90540000D03*
%TD*%
D60*
%TO.C,Q17*%
X137762619Y-79580965D03*
X135862619Y-79580965D03*
X136812619Y-81455965D03*
%TD*%
D22*
%TO.C,R23*%
X168150000Y-104500000D03*
X169170000Y-104500000D03*
%TD*%
D54*
%TO.C,R2*%
X213910000Y-120120000D03*
X213910000Y-119100000D03*
%TD*%
%TO.C,R8*%
X158250000Y-115010000D03*
X158250000Y-113990000D03*
%TD*%
D43*
%TO.C,R61*%
X175740001Y-90175001D03*
X175740001Y-91825001D03*
%TD*%
D91*
%TO.C,J7*%
X171000000Y-123500000D03*
D31*
X173500000Y-123500000D03*
X176000000Y-123500000D03*
%TD*%
D52*
%TO.C,D6*%
X165035000Y-106250000D03*
X166785000Y-106250000D03*
%TD*%
D19*
%TO.C,R28*%
X142630000Y-98150000D03*
X141610000Y-98150000D03*
%TD*%
D54*
%TO.C,R38*%
X156440000Y-84660000D03*
X156440000Y-83640000D03*
%TD*%
%TO.C,R24*%
X136610000Y-99150000D03*
X136610000Y-98130000D03*
%TD*%
D51*
%TO.C,Q19*%
X159290000Y-65527500D03*
X161190000Y-65527500D03*
X160240000Y-63652500D03*
%TD*%
D96*
%TO.C,U4*%
X152710000Y-122925000D03*
X152710000Y-121655000D03*
X152710000Y-120385000D03*
X152710000Y-119115000D03*
X152710000Y-117845000D03*
X152710000Y-116575000D03*
X152710000Y-115305000D03*
X152710000Y-114035000D03*
X152710000Y-112765000D03*
X152710000Y-111495000D03*
X152710000Y-110225000D03*
X152710000Y-108955000D03*
X152710000Y-107685000D03*
X152710000Y-106415000D03*
D97*
X149670000Y-105165000D03*
X148400000Y-105165000D03*
X147130000Y-105165000D03*
X145860000Y-105165000D03*
X144590000Y-105165000D03*
X143320000Y-105165000D03*
X142050000Y-105165000D03*
X140780000Y-105165000D03*
X139510000Y-105165000D03*
X138240000Y-105165000D03*
D96*
X135210000Y-106415000D03*
X135210000Y-107685000D03*
X135210000Y-108955000D03*
X135210000Y-110225000D03*
X135210000Y-111495000D03*
X135210000Y-112765000D03*
X135210000Y-114035000D03*
X135210000Y-115305000D03*
X135210000Y-116575000D03*
X135210000Y-117845000D03*
X135210000Y-119115000D03*
X135210000Y-120385000D03*
X135210000Y-121655000D03*
X135210000Y-122925000D03*
D98*
X145460000Y-115205000D03*
%TD*%
D19*
%TO.C,R57*%
X135362619Y-70468465D03*
X134342619Y-70468465D03*
%TD*%
D54*
%TO.C,R15*%
X134250000Y-95110000D03*
X134250000Y-94090000D03*
%TD*%
D76*
%TO.C,Q6*%
X140087500Y-100360000D03*
X140087500Y-98460000D03*
X138212500Y-99410000D03*
%TD*%
D22*
%TO.C,R49*%
X139082619Y-82138465D03*
X140102619Y-82138465D03*
%TD*%
D78*
%TO.C,R70*%
X161216307Y-74101760D03*
X161216307Y-72451760D03*
%TD*%
D54*
%TO.C,R12*%
X158250000Y-120010000D03*
X158250000Y-118990000D03*
%TD*%
D53*
%TO.C,C12*%
X156450000Y-82700000D03*
X156450000Y-81740000D03*
%TD*%
D50*
%TO.C,SW5*%
X156000000Y-101250000D03*
X156000000Y-93250000D03*
X160500000Y-93250000D03*
X160500000Y-101250000D03*
%TD*%
D28*
%TO.C,D15*%
X202375000Y-113500000D03*
X200625000Y-113500000D03*
%TD*%
D22*
%TO.C,R25*%
X143560000Y-98160000D03*
X144580000Y-98160000D03*
%TD*%
D54*
%TO.C,R6*%
X158250000Y-112510000D03*
X158250000Y-111490000D03*
%TD*%
D99*
%TO.C,D3*%
X184380001Y-103190001D03*
X184380001Y-99890001D03*
%TD*%
M02*
