M48
; DRILL file {KiCad (6.0.11)} date Thu Feb 29 08:20:34 2024
; FORMAT={-:-/ absolute / inch / decimal}
; #@! TF.CreationDate,2024-02-29T08:20:34+09:00
; #@! TF.GenerationSoftware,Kicad,Pcbnew,(6.0.11)
; #@! TF.FileFunction,Plated,1,2,PTH
FMAT,2
INCH
; #@! TA.AperFunction,Plated,PTH,ViaDrill
T1C0.0118
; #@! TA.AperFunction,Plated,PTH,ViaDrill
T2C0.0157
; #@! TA.AperFunction,Plated,PTH,ViaDrill
T3C0.0236
; #@! TA.AperFunction,Plated,PTH,ComponentDrill
T4C0.0236
; #@! TA.AperFunction,Plated,PTH,ComponentDrill
T5C0.0256
; #@! TA.AperFunction,Plated,PTH,ComponentDrill
T6C0.0315
; #@! TA.AperFunction,Plated,PTH,ComponentDrill
T7C0.0335
; #@! TA.AperFunction,Plated,PTH,ComponentDrill
T8C0.0394
; #@! TA.AperFunction,Plated,PTH,ComponentDrill
T9C0.0433
; #@! TA.AperFunction,Plated,PTH,ComponentDrill
T10C0.0472
; #@! TA.AperFunction,Plated,PTH,ComponentDrill
T11C0.0669
; #@! TA.AperFunction,Plated,PTH,ComponentDrill
T12C0.0748
; #@! TA.AperFunction,Plated,PTH,ComponentDrill
T13C0.1969
%
G90
G05
T1
X4.9354Y-4.4059
X4.937Y-4.2571
X5.0154Y-4.2213
X5.0165Y-4.1783
X5.0492Y-4.3858
X5.0874Y-4.1205
X5.226Y-4.6031
X5.236Y-4.2797
X5.236Y-4.3368
X5.236Y-4.4297
X5.2666Y-4.6436
X5.3232Y-4.2769
X5.3232Y-4.5896
X5.324Y-3.4795
X5.3384Y-4.4396
X5.349Y-4.4999
X5.3528Y-3.6161
X5.3571Y-4.1504
X5.3617Y-3.0988
X5.3835Y-4.2529
X5.3839Y-4.5202
X5.3896Y-4.3754
X5.395Y-4.4395
X5.4193Y-4.2591
X5.4304Y-4.4737
X5.4435Y-4.3215
X5.4537Y-4.3808
X5.476Y-3.3614
X5.4854Y-3.5815
X5.4925Y-4.1404
X5.4957Y-4.4083
X5.4976Y-4.2673
X5.5161Y-3.3087
X5.5188Y-4.3157
X5.5295Y-3.989
X5.5311Y-3.2056
X5.5374Y-3.6965
X5.5524Y-3.4528
X5.5557Y-3.3913
X5.5676Y-4.3365
X5.5679Y-4.2667
X5.5683Y-4.1967
X5.5827Y-3.2075
X5.5921Y-3.4
X5.5937Y-2.8488
X5.5972Y-3.2602
X5.6031Y-3.8955
X5.6126Y-3.8358
X5.6161Y-3.6043
X5.6335Y-3.8646
X5.6363Y-4.2678
X5.6374Y-3.8366
X5.6377Y-4.1968
X5.6681Y-3.9579
X5.6685Y-3.2646
X5.6713Y-3.2276
X5.6717Y-2.9528
X5.6728Y-3.0886
X5.7061Y-4.198
X5.7197Y-2.7913
X5.7264Y-3.8335
X5.7287Y-3.785
X5.7307Y-3.6346
X5.7774Y-4.057
X5.7832Y-3.4124
X5.7832Y-3.4702
X5.7832Y-3.6157
X5.7832Y-3.6496
X5.7832Y-3.7902
X5.7832Y-3.8724
X5.7832Y-3.9827
X5.7833Y-3.1346
X5.8224Y-2.8727
X5.8324Y-3.0547
X5.8324Y-3.1268
X5.8324Y-3.3037
X5.8324Y-3.498
X5.8324Y-3.6161
X5.8324Y-3.6713
X5.8324Y-3.8724
X5.8324Y-3.9862
X5.8325Y-3.1886
X5.8325Y-3.3677
X5.8325Y-3.4236
X5.8325Y-3.7878
X5.8325Y-4.0571
X5.8436Y-2.9262
X5.8531Y-2.8472
X5.8627Y-2.98
X5.8843Y-4.1244
X5.8843Y-4.1559
X5.8913Y-4.0398
X5.9039Y-4.1386
X5.9087Y-4.5827
X5.9098Y-3.2299
X5.9098Y-4.5012
X5.9126Y-4.161
X5.915Y-4.261
X5.9236Y-4.124
X5.9394Y-3.2311
X5.9484Y-4.1256
X5.9571Y-4.2193
X5.963Y-4.515
X5.963Y-4.4783
X6.0039Y-2.6709
X6.0217Y-3.1992
X6.0232Y-3.1024
X6.0236Y-3.1504
X6.024Y-3.0795
X6.0291Y-2.9358
X6.0429Y-2.4685
X6.0513Y-3.2399
X6.0556Y-4.3381
X6.063Y-2.6618
X6.0673Y-4.615
X6.072Y-2.8535
X6.0811Y-3.8803
X6.1205Y-4.413
X6.128Y-4.7232
X6.1303Y-3.9147
X6.1362Y-4.237
X6.1406Y-3.3634
X6.1417Y-2.6571
X6.148Y-4.615
X6.1511Y-4.1853
X6.1724Y-4.352
X6.1734Y-4.2099
X6.1823Y-2.6567
X6.1827Y-3.3264
X6.1866Y-4.302
X6.1886Y-4.4157
X6.1892Y-2.8667
X6.1925Y-4.1244
X6.1981Y-4.711
X6.2004Y-4.237
X6.2087Y-3.1862
X6.2106Y-4.148
X6.2244Y-4.1268
X6.2433Y-3.1831
X6.2505Y-2.8413
X6.2508Y-4.3543
X6.2701Y-3.1933
X6.2744Y-4.1484
X6.2768Y-3.1685
X6.2953Y-4.2346
X6.3205Y-4.1476
X6.3303Y-2.6185
X6.3366Y-3.8315
X6.3409Y-2.424
X6.3516Y-4.2382
X6.3563Y-4.5354
X6.3843Y-3.8799
X6.4063Y-2.4244
X6.4166Y-4.2245
X6.4291Y-3.9236
X6.4528Y-4.778
X6.4585Y-4.2665
X6.4628Y-4.453
X6.465Y-3.9583
X6.4751Y-2.4246
X6.4925Y-4.2754
X6.4984Y-4.5319
X6.5126Y-4.0445
X6.5287Y-4.7768
X6.5402Y-4.489
X6.5436Y-2.4246
X6.5445Y-4.0437
X6.6002Y-4.2107
X6.6035Y-4.7809
X6.6095Y-2.4246
X6.6496Y-4.2236
X6.6764Y-4.5299
X6.6901Y-2.4252
X6.7071Y-4.5587
X6.7673Y-4.7984
X6.7732Y-2.4255
X6.8398Y-4.7953
X6.8636Y-2.4243
X6.8772Y-4.8224
X6.9462Y-2.4243
X6.9654Y-4.9458
X7.0368Y-2.4243
X7.0913Y-4.9458
X7.1082Y-2.4243
X7.1813Y-2.4243
X7.2679Y-2.4243
X7.365Y-2.424
X7.3819Y-4.6683
X7.4Y-4.9283
X7.439Y-3.9724
X7.4409Y-4.6673
X7.4437Y-3.7772
X7.4608Y-2.4241
X7.5405Y-2.4241
X7.5811Y-4.4236
X7.647Y-2.4241
X7.6661Y-4.4217
X7.7531Y-4.4236
X7.7605Y-4.3683
X7.7626Y-2.4241
X7.7839Y-4.3929
X7.8681Y-2.4241
X7.937Y-4.2965
X7.939Y-4.4354
X7.9717Y-2.4241
X8.0354Y-2.4276
X8.1069Y-2.4241
X8.2229Y-2.4257
X8.3226Y-2.4257
X8.3339Y-4.698
X8.3913Y-4.6972
X8.4169Y-2.4295
X8.465Y-4.6669
X8.5854Y-4.6394
T2
X4.9366Y-4.6646
X4.9417Y-4.7783
X4.9421Y-4.1181
X4.9421Y-4.876
X4.9492Y-3.9264
X4.9508Y-3.7732
X4.9547Y-2.7319
X4.9571Y-2.9264
X4.9579Y-3.5976
X4.9614Y-3.0941
X4.9614Y-3.4283
X4.9654Y-3.2669
X4.9681Y-2.6012
X4.9913Y-2.4996
X5.0146Y-4.8772
X5.0488Y-2.6799
X5.0496Y-4.7843
X5.0634Y-4.0004
X5.0665Y-4.6795
X5.076Y-3.8067
X5.0864Y-4.4234
X5.0882Y-2.7669
X5.0882Y-2.9299
X5.0904Y-4.3413
X5.0953Y-2.4508
X5.1145Y-4.63
X5.1169Y-3.2228
X5.1232Y-3.4295
X5.1402Y-4.6831
X5.1409Y-3.685
X5.1528Y-4.7772
X5.1654Y-4.2016
X5.1677Y-4.3315
X5.1681Y-4.4925
X5.1701Y-4.1441
X5.1709Y-4.4406
X5.178Y-2.5177
X5.1791Y-2.6535
X5.1803Y-3.9969
X5.1819Y-4.8831
X5.2091Y-2.4354
X5.2138Y-2.7268
X5.2173Y-4.0323
X5.2201Y-4.1228
X5.2205Y-4.2146
X5.2531Y-4.7886
X5.2591Y-3.5906
X5.2618Y-2.7969
X5.2646Y-4.5591
X5.2701Y-4.4744
X5.2701Y-4.7382
X5.2728Y-3.4295
X5.274Y-2.585
X5.2748Y-3.937
X5.2752Y-4.1362
X5.2772Y-3.2693
X5.2795Y-3.122
X5.2819Y-4.0319
X5.285Y-3.7634
X5.352Y-4.0421
X5.3535Y-3.976
X5.3547Y-3.9173
X5.3618Y-3.5283
X5.3673Y-3.2756
X5.3768Y-3.3933
X5.3839Y-4.8583
X5.3874Y-4.6138
X5.3933Y-4.6843
X5.4028Y-3.485
X5.4209Y-2.5933
X5.4224Y-2.9776
X5.4228Y-3.2776
X5.4236Y-3.9705
X5.4248Y-4.085
X5.4256Y-4.1953
X5.4382Y-2.4354
X5.4543Y-4.0646
X5.4551Y-3.9728
X5.4606Y-4.1961
X5.4736Y-4.5539
X5.4744Y-4.6421
X5.4854Y-2.9807
X5.5035Y-2.9012
X5.5283Y-2.7787
X5.5323Y-4.0642
X5.5346Y-2.5059
X5.5465Y-3.0311
X5.548Y-4.5787
X5.55Y-2.8374
X5.552Y-2.9606
X5.5559Y-3.1193
X5.561Y-4.4598
X5.5638Y-4.6854
X5.565Y-2.6138
X5.5681Y-4.8591
X5.5996Y-2.7598
X5.6142Y-4.0646
X5.6185Y-3.9681
X5.6512Y-4.3622
X5.6689Y-2.4327
X5.6701Y-2.8543
X5.6772Y-2.9917
X5.6772Y-3.1311
X5.6839Y-4.0543
X5.7098Y-3.5291
X5.7102Y-2.5059
X5.7106Y-3.4787
X5.7224Y-4.2866
X5.726Y-3.8819
X5.7283Y-3.9965
X5.7339Y-4.8618
X5.7421Y-4.6902
X5.8012Y-4.198
X5.8083Y-2.4437
X5.8283Y-4.3559
X5.8339Y-2.7661
X5.8339Y-4.1972
X5.861Y-4.2854
X5.8685Y-2.6083
X5.8717Y-2.5059
X5.8898Y-4.6862
X5.8984Y-3.824
X5.922Y-4.8618
X5.9264Y-4.4394
X5.9323Y-4.3551
X5.9339Y-3.7366
X5.9449Y-4.8012
X5.9539Y-3.8803
X5.9543Y-2.4283
X5.9591Y-2.7209
X5.9598Y-2.6429
X5.9614Y-4.0547
X5.9661Y-3.7882
X5.9913Y-2.5122
X6.0046Y-3.8446
X6.0046Y-3.9883
X6.0122Y-4.7396
X6.033Y-2.563
X6.0512Y-4.0594
X6.0531Y-4.8776
X6.0547Y-3.8642
X6.0756Y-3.9846
X6.0843Y-4.2492
X6.0858Y-4.3819
X6.0949Y-3.1811
X6.0953Y-3.1339
X6.1071Y-3.2299
X6.1209Y-4.5185
X6.1224Y-3.0913
X6.1299Y-3.1571
X6.1366Y-4.0539
X6.1406Y-3.0539
X6.1418Y-3.419
X6.1469Y-4.3205
X6.1583Y-3.6008
X6.1606Y-3.4764
X6.1618Y-3.1224
X6.1618Y-3.5457
X6.1626Y-3.1764
X6.1949Y-4.8736
X6.1957Y-4.5173
X6.2024Y-3.0559
X6.2083Y-3.4193
X6.213Y-4.052
X6.237Y-3.6146
X6.2433Y-3.7173
X6.2493Y-3.9487
X6.2524Y-3.4039
X6.2594Y-4.6472
X6.2657Y-3.0587
X6.272Y-3.3626
X6.2949Y-3.4197
X6.298Y-3.6953
X6.2988Y-3.778
X6.3012Y-3.3846
X6.3012Y-3.6213
X6.3138Y-3.3402
X6.3472Y-2.9539
X6.3598Y-4.6539
X6.3709Y-4.3476
X6.3732Y-4.5917
X6.3756Y-4.8673
X6.3846Y-3.0961
X6.3846Y-3.1275
X6.3846Y-3.1634
X6.4047Y-4.4043
X6.4091Y-4.6055
X6.4114Y-4.2827
X6.4346Y-4.4886
X6.4524Y-4.3217
X6.4566Y-4.0029
X6.4579Y-2.7248
X6.5106Y-4.324
X6.526Y-4.4051
X6.5295Y-4.7079
X6.5685Y-4.861
X6.637Y-4.9248
X6.6394Y-5.102
X6.6429Y-4.7961
X6.6732Y-2.9823
X6.6732Y-3.061
X6.6732Y-3.2972
X6.6732Y-3.376
X6.6799Y-4.6965
X6.6803Y-4.4606
X6.6846Y-4.3917
X6.6854Y-4.611
X6.7126Y-3.0217
X6.7126Y-3.1004
X6.7126Y-3.3366
X6.7177Y-5.0051
X6.7256Y-4.2319
X6.7256Y-4.6126
X6.7366Y-4.7
X6.748Y-4.4563
X6.752Y-2.9823
X6.752Y-3.061
X6.752Y-3.1398
X6.752Y-3.2972
X6.752Y-3.376
X6.7799Y-4.535
X6.7803Y-2.5091
X6.7807Y-4.1311
X6.7913Y-3.0217
X6.7913Y-3.1004
X6.7913Y-3.1791
X6.7913Y-3.2579
X6.7913Y-3.3366
X6.7917Y-4.2327
X6.7949Y-5.1098
X6.7953Y-4.402
X6.8047Y-4.0953
X6.8201Y-2.511
X6.8264Y-4.9335
X6.8307Y-2.9823
X6.8307Y-3.061
X6.8307Y-3.1398
X6.8307Y-3.2185
X6.8307Y-3.2972
X6.8307Y-3.376
X6.8358Y-4.5417
X6.8559Y-4.6906
X6.8661Y-2.5126
X6.8701Y-3.0217
X6.8701Y-3.1004
X6.8701Y-3.1791
X6.8701Y-3.2579
X6.8701Y-3.3366
X6.874Y-4.5311
X6.8831Y-4.4394
X6.8969Y-4.1004
X6.8972Y-5.0146
X6.9016Y-2.5134
X6.9094Y-2.9823
X6.9094Y-3.061
X6.9094Y-3.1398
X6.9094Y-3.2185
X6.9094Y-3.2972
X6.9094Y-3.376
X6.9299Y-4.6929
X6.9488Y-3.0217
X6.9488Y-3.1004
X6.9488Y-3.1791
X6.9488Y-3.2579
X6.9488Y-3.3366
X6.9528Y-4.1295
X6.9768Y-4.2319
X6.9827Y-4.5307
X6.9854Y-4.8146
X6.9882Y-2.9823
X6.9882Y-3.061
X6.9882Y-3.1398
X6.9882Y-3.2185
X6.9882Y-3.2972
X6.9976Y-4.0941
X6.9976Y-4.765
X7.0035Y-4.4504
X7.013Y-4.8614
X7.0173Y-4.6591
X7.0232Y-4.2319
X7.0276Y-3.0217
X7.0276Y-3.1004
X7.0276Y-3.1791
X7.0276Y-3.2579
X7.0276Y-3.3366
X7.0425Y-5.1079
X7.0508Y-4.3606
X7.0567Y-4.6161
X7.0669Y-2.9823
X7.0669Y-3.061
X7.0669Y-3.1398
X7.0669Y-3.2185
X7.0669Y-3.2972
X7.0675Y-4.2762
X7.0823Y-4.1441
X7.0839Y-4.8583
X7.1063Y-3.0217
X7.1063Y-3.1004
X7.1063Y-3.1791
X7.1063Y-3.2579
X7.1063Y-3.3366
X7.1177Y-4.5461
X7.1457Y-2.9823
X7.1457Y-3.061
X7.1457Y-3.1398
X7.1457Y-3.2185
X7.1457Y-3.2972
X7.1465Y-4.2039
X7.1516Y-4.3157
X7.1528Y-5.0177
X7.1531Y-4.3614
X7.1559Y-4.7937
X7.167Y-4.4432
X7.185Y-3.0217
X7.185Y-3.1004
X7.185Y-3.1791
X7.185Y-3.2579
X7.185Y-3.3366
X7.1917Y-4.7433
X7.2047Y-3.5177
X7.2154Y-4.8638
X7.2244Y-2.9823
X7.2244Y-3.061
X7.2244Y-3.1398
X7.2244Y-3.2185
X7.2244Y-3.2972
X7.2244Y-3.376
X7.2354Y-2.5059
X7.2366Y-4.6508
X7.2638Y-3.0217
X7.2638Y-3.1004
X7.2638Y-3.1791
X7.2638Y-3.2579
X7.2638Y-3.3366
X7.272Y-4.5165
X7.2772Y-2.5079
X7.285Y-5.1008
X7.3031Y-2.9823
X7.3031Y-3.061
X7.3031Y-3.1398
X7.3031Y-3.2185
X7.3031Y-3.2972
X7.3031Y-3.376
X7.3071Y-4.1122
X7.3157Y-2.5106
X7.3161Y-4.7646
X7.3425Y-2.9429
X7.3425Y-3.0217
X7.3425Y-3.1004
X7.3425Y-3.1791
X7.3425Y-3.2579
X7.3425Y-3.3366
X7.3457Y-4.2425
X7.3555Y-2.5098
X7.3614Y-4.763
X7.3805Y-4.1254
X7.3819Y-2.9035
X7.3819Y-2.9823
X7.3819Y-3.061
X7.3819Y-3.1398
X7.3819Y-3.2185
X7.3819Y-3.2972
X7.3819Y-3.376
X7.3864Y-4.1648
X7.3864Y-4.2053
X7.3969Y-4.4465
X7.4012Y-4.0724
X7.4165Y-4.5228
X7.4213Y-2.8642
X7.4213Y-2.9429
X7.4213Y-3.0217
X7.4213Y-3.1004
X7.4339Y-5.0232
X7.4453Y-4.0606
X7.4606Y-2.8248
X7.4606Y-2.9035
X7.4606Y-2.9823
X7.4606Y-3.061
X7.4606Y-3.1398
X7.463Y-4.798
X7.4925Y-4.0606
X7.4949Y-4.4358
X7.5Y-2.7854
X7.5Y-2.8642
X7.5Y-2.9429
X7.5Y-3.0217
X7.5Y-3.1004
X7.5185Y-4.6551
X7.5185Y-5.0992
X7.5378Y-4.0358
X7.5394Y-2.7461
X7.5394Y-2.8248
X7.5394Y-2.9035
X7.5394Y-2.9823
X7.5394Y-3.061
X7.5394Y-3.1398
X7.5413Y-4.7768
X7.5787Y-2.7067
X7.5787Y-2.7854
X7.5787Y-2.8642
X7.5787Y-2.9429
X7.5787Y-3.0217
X7.5787Y-3.1004
X7.5787Y-4.5311
X7.5787Y-4.9059
X7.6181Y-2.5886
X7.6181Y-2.6673
X7.6181Y-2.7461
X7.6181Y-2.8248
X7.6181Y-2.9035
X7.6181Y-2.9823
X7.6181Y-3.061
X7.6181Y-3.1398
X7.6185Y-3.9724
X7.6358Y-3.9252
X7.6358Y-4.7555
X7.6575Y-2.628
X7.6575Y-2.7067
X7.6575Y-2.7854
X7.6575Y-2.8642
X7.6575Y-2.9429
X7.6575Y-3.0217
X7.6575Y-3.1004
X7.6693Y-3.8917
X7.6717Y-4.6575
X7.6839Y-4.9866
X7.685Y-3.8445
X7.6969Y-2.5098
X7.6969Y-2.5886
X7.6969Y-2.6673
X7.6969Y-2.7461
X7.6969Y-2.8248
X7.6969Y-2.9035
X7.6969Y-2.9823
X7.6969Y-3.061
X7.6969Y-3.1398
X7.7008Y-3.7854
X7.7047Y-3.7185
X7.7126Y-3.2343
X7.7126Y-3.3287
X7.7126Y-3.4154
X7.7126Y-3.498
X7.7126Y-3.6713
X7.7165Y-3.5571
X7.7362Y-2.5492
X7.7362Y-2.628
X7.7362Y-2.7067
X7.7362Y-2.7854
X7.7362Y-2.8642
X7.7362Y-2.9429
X7.7535Y-4.8732
X7.7587Y-5.1004
X7.7677Y-3.7106
X7.7756Y-2.5098
X7.7756Y-2.5886
X7.7756Y-2.6673
X7.7756Y-2.7461
X7.7756Y-2.8248
X7.7756Y-2.9035
X7.7756Y-3.5492
X7.776Y-4.5323
X7.7811Y-4.7551
X7.7862Y-4.6437
X7.815Y-2.628
X7.815Y-2.7067
X7.815Y-2.7854
X7.815Y-2.8642
X7.8543Y-2.4902
X7.8543Y-2.6673
X7.8543Y-2.7461
X7.8543Y-2.8248
X7.8701Y-3.6713
X7.8728Y-5.024
X7.8937Y-2.628
X7.8937Y-2.7067
X7.8937Y-2.7854
X7.8976Y-4.6764
X7.8984Y-4.9358
X7.8988Y-4.835
X7.9252Y-3.5492
X7.9331Y-2.5098
X7.9331Y-2.5886
X7.9331Y-2.6673
X7.9331Y-2.7461
X7.9331Y-2.8248
X7.965Y-4.5126
X7.9724Y-2.5492
X7.9724Y-2.628
X7.9724Y-2.7067
X7.9724Y-2.7854
X7.9764Y-3.6713
X7.9843Y-3.5807
X7.9898Y-4.9358
X7.9969Y-5.0941
X7.9972Y-4.8327
X8.0118Y-2.5098
X8.0118Y-2.5886
X8.0118Y-2.6673
X8.0118Y-2.7461
X8.0118Y-2.8248
X8.0146Y-4.3583
X8.0197Y-4.6748
X8.0287Y-4.3
X8.0512Y-2.5492
X8.0512Y-2.628
X8.0512Y-2.7067
X8.0512Y-2.7854
X8.0906Y-2.5098
X8.0906Y-2.5886
X8.0906Y-2.6673
X8.0906Y-2.7461
X8.0906Y-2.8248
X8.0909Y-4.4323
X8.1138Y-4.7421
X8.1193Y-5.0154
X8.1299Y-2.5492
X8.1299Y-2.628
X8.1299Y-2.7067
X8.1299Y-2.7854
X8.1693Y-2.5098
X8.1693Y-2.5886
X8.1693Y-2.6673
X8.1693Y-2.7461
X8.1693Y-2.8248
X8.1787Y-4.8654
X8.1791Y-4.4291
X8.1823Y-4.3063
X8.1953Y-4.7035
X8.2039Y-4.5469
X8.2087Y-2.5492
X8.2087Y-2.628
X8.2087Y-2.7067
X8.2087Y-2.7854
X8.222Y-5.0917
X8.2441Y-2.4941
X8.248Y-2.6673
X8.248Y-2.7461
X8.248Y-2.8248
X8.2764Y-4.4283
X8.2874Y-2.628
X8.2874Y-2.7067
X8.2874Y-2.7854
X8.2874Y-2.8642
X8.2874Y-2.9429
X8.2874Y-3.0217
X8.3268Y-2.5098
X8.3268Y-2.6673
X8.3268Y-2.7461
X8.3268Y-2.8248
X8.3268Y-2.9035
X8.3268Y-2.9823
X8.3268Y-3.061
X8.3386Y-2.5965
X8.339Y-4.8618
X8.3409Y-4.6173
X8.3413Y-4.5516
X8.3425Y-4.7728
X8.3654Y-5.0154
X8.3752Y-4.2969
X8.3858Y-4.3996
X8.3957Y-3.1496
X8.4055Y-2.5394
X8.4055Y-2.7461
X8.4055Y-2.9528
X8.4055Y-3.248
X8.4055Y-3.4154
X8.4055Y-3.5827
X8.4055Y-3.6811
X8.4055Y-3.7992
X8.4055Y-3.9075
X8.4055Y-4.065
X8.4055Y-4.2224
X8.4409Y-5.0961
X8.4425Y-4.7705
X8.4449Y-4.9311
X8.4469Y-4.5067
X8.4654Y-4.213
X8.4685Y-3.2839
X8.4685Y-3.774
X8.4701Y-3.7016
X8.4717Y-3.9217
X8.4717Y-4.3626
X8.4724Y-3.5429
X8.4732Y-3.0913
X8.4846Y-2.6409
X8.4846Y-2.8472
X8.4898Y-2.4437
X8.5138Y-2.9626
X8.5236Y-3.1988
X8.5335Y-3.3858
X8.5335Y-4.065
X8.5421Y-4.8882
X8.5433Y-2.5295
X8.5441Y-4.8004
X8.5453Y-5.0067
X8.5555Y-4.6634
X8.563Y-2.6772
X8.5909Y-4.5272
X8.5925Y-3.622
X8.5925Y-3.8287
X8.5925Y-4.2815
X8.6114Y-3.9539
X8.6165Y-5.0917
X8.622Y-3.1102
X8.6228Y-3.4803
X8.6291Y-3.7429
X8.6319Y-2.8642
X8.6323Y-2.7571
X8.6354Y-2.9843
X8.6354Y-3.25
X8.6362Y-4.1728
X8.6362Y-4.3988
X8.6417Y-4.7343
X8.6555Y-2.4591
X8.6839Y-4.8512
X8.6909Y-4.6417
X8.7008Y-4.0453
X8.7106Y-2.6673
X8.7197Y-5.0594
X8.7205Y-2.9626
X8.7205Y-3.2283
X8.7205Y-3.4449
X8.7205Y-3.7106
X8.7205Y-3.9173
X8.7205Y-4.4685
X8.7303Y-4.2224
X8.7795Y-4.961
X8.7819Y-4.5618
X8.7819Y-4.7614
X8.7827Y-2.5756
X8.7866Y-4.3197
X8.7878Y-2.8539
X8.7878Y-3.1177
X8.7937Y-3.8476
X8.7961Y-3.3697
X8.7961Y-3.6055
X8.7972Y-4.0744
T3
X5.3035Y-2.9181
X5.3035Y-2.9583
X5.6554Y-3.6409
X5.6892Y-3.6746
X5.9488Y-3.1791
X5.9984Y-3.4014
X5.9984Y-3.4437
X5.9984Y-3.4867
X5.9984Y-3.5276
X7.1104Y-4.2659
T5
X6.7898Y-4.311
X6.7898Y-4.5921
X6.8898Y-4.311
X6.8898Y-4.5921
X6.9898Y-4.311
X6.9898Y-4.5921
T6
X6.3071Y-4.3065
X6.3071Y-4.4065
X6.3071Y-4.5065
X6.3071Y-4.6065
X6.3071Y-4.7065
X6.5767Y-3.0992
X6.6031Y-3.1622
X6.6071Y-4.3065
X6.6071Y-4.4065
X6.6071Y-4.5065
X6.6071Y-4.6065
X6.6071Y-4.7065
X6.7016Y-3.1622
X6.728Y-3.2252
T7
X5.1934Y-2.9476
X5.1934Y-3.046
X5.1934Y-3.1444
X5.1934Y-3.2429
X5.5363Y-2.6803
X5.6347Y-2.6803
X5.7332Y-2.6803
X5.8316Y-2.6803
X6.5157Y-2.5098
X6.6142Y-2.5098
X6.7126Y-2.5098
X6.7323Y-4.8622
X6.8307Y-4.8622
X6.9291Y-4.8622
X6.9724Y-2.5098
X7.0709Y-2.5098
X7.1693Y-2.5098
X7.313Y-4.8622
X7.4114Y-4.8622
X7.4291Y-2.5098
X7.5098Y-4.8622
X7.5276Y-2.5098
X7.626Y-2.5098
T8
X5.0441Y-3.4634
X5.343Y-2.5787
X5.343Y-2.6787
X7.8453Y-2.5573
X8.2783Y-2.5573
X8.4555Y-3.852
X8.4555Y-4.285
X8.4563Y-3.198
X8.4563Y-3.6311
T9
X6.9709Y-3.4638
X7.0709Y-3.4638
X7.1709Y-3.4638
X8.2724Y-4.5114
X8.2724Y-4.6114
X8.2724Y-4.7114
X8.2724Y-4.8114
X8.2724Y-4.9114
T10
X7.8346Y-4.8835
X7.8602Y-4.5882
X8.0374Y-4.5882
X8.063Y-4.8835
T11
X7.9186Y-3.1629
X7.9186Y-3.4267
X7.9186Y-3.8047
X7.9186Y-4.0684
T12
X7.9634Y-2.951
X8.1602Y-2.951
X8.2587Y-3.9701
X8.2587Y-4.1669
X8.2594Y-3.3161
X8.2594Y-3.513
T4
G00X5.0404Y-3.5835
M15
G01X5.0089Y-3.5835
M16
G05
G00X5.0404Y-3.9236
M15
G01X5.0089Y-3.9236
M16
G05
G00X5.2116Y-3.5835
M15
G01X5.1683Y-3.5835
M16
G05
G00X5.2116Y-3.9236
M15
G01X5.1683Y-3.9236
M16
G05
T13
G00X5.7268Y-4.5356
M15
G01X5.7268Y-4.5356
M16
G05
T0
M30
