%TF.GenerationSoftware,KiCad,Pcbnew,(6.0.11)*%
%TF.CreationDate,2024-02-29T08:20:34+09:00*%
%TF.ProjectId,Pole,506f6c65-2e6b-4696-9361-645f70636258,rev?*%
%TF.SameCoordinates,Original*%
%TF.FileFunction,Soldermask,Top*%
%TF.FilePolarity,Negative*%
%FSLAX46Y46*%
G04 Gerber Fmt 4.6, Leading zero omitted, Abs format (unit mm)*
G04 Created by KiCad (PCBNEW (6.0.11)) date 2024-02-29 08:20:34*
%MOMM*%
%LPD*%
G01*
G04 APERTURE LIST*
G04 Aperture macros list*
%AMRoundRect*
0 Rectangle with rounded corners*
0 $1 Rounding radius*
0 $2 $3 $4 $5 $6 $7 $8 $9 X,Y pos of 4 corners*
0 Add a 4 corners polygon primitive as box body*
4,1,4,$2,$3,$4,$5,$6,$7,$8,$9,$2,$3,0*
0 Add four circle primitives for the rounded corners*
1,1,$1+$1,$2,$3*
1,1,$1+$1,$4,$5*
1,1,$1+$1,$6,$7*
1,1,$1+$1,$8,$9*
0 Add four rect primitives between the rounded corners*
20,1,$1+$1,$2,$3,$4,$5,0*
20,1,$1+$1,$4,$5,$6,$7,0*
20,1,$1+$1,$6,$7,$8,$9,0*
20,1,$1+$1,$8,$9,$2,$3,0*%
%AMFreePoly0*
4,1,6,1.000000,0.000000,0.500000,-0.750000,-0.500000,-0.750000,-0.500000,0.750000,0.500000,0.750000,1.000000,0.000000,1.000000,0.000000,$1*%
%AMFreePoly1*
4,1,6,0.500000,-0.750000,-0.650000,-0.750000,-0.150000,0.000000,-0.650000,0.750000,0.500000,0.750000,0.500000,-0.750000,0.500000,-0.750000,$1*%
G04 Aperture macros list end*
%ADD10RoundRect,0.135000X0.135000X0.185000X-0.135000X0.185000X-0.135000X-0.185000X0.135000X-0.185000X0*%
%ADD11R,0.700000X0.900000*%
%ADD12R,1.000000X1.000000*%
%ADD13RoundRect,0.135000X-0.135000X-0.185000X0.135000X-0.185000X0.135000X0.185000X-0.135000X0.185000X0*%
%ADD14C,1.700000*%
%ADD15RoundRect,0.425000X0.425000X0.425000X-0.425000X0.425000X-0.425000X-0.425000X0.425000X-0.425000X0*%
%ADD16RoundRect,0.140000X-0.170000X0.140000X-0.170000X-0.140000X0.170000X-0.140000X0.170000X0.140000X0*%
%ADD17R,0.700000X1.000000*%
%ADD18RoundRect,0.250000X0.475000X-0.250000X0.475000X0.250000X-0.475000X0.250000X-0.475000X-0.250000X0*%
%ADD19RoundRect,0.237500X0.287500X0.237500X-0.287500X0.237500X-0.287500X-0.237500X0.287500X-0.237500X0*%
%ADD20RoundRect,0.250000X-0.250000X-0.475000X0.250000X-0.475000X0.250000X0.475000X-0.250000X0.475000X0*%
%ADD21RoundRect,0.250000X0.600000X0.675000X-0.600000X0.675000X-0.600000X-0.675000X0.600000X-0.675000X0*%
%ADD22O,1.700000X1.850000*%
%ADD23RoundRect,0.200000X0.200000X0.275000X-0.200000X0.275000X-0.200000X-0.275000X0.200000X-0.275000X0*%
%ADD24RoundRect,0.135000X-0.185000X0.135000X-0.185000X-0.135000X0.185000X-0.135000X0.185000X0.135000X0*%
%ADD25C,1.000000*%
%ADD26R,1.900000X1.900000*%
%ADD27C,1.900000*%
%ADD28RoundRect,0.140000X-0.140000X-0.170000X0.140000X-0.170000X0.140000X0.170000X-0.140000X0.170000X0*%
%ADD29RoundRect,0.225000X0.225000X0.250000X-0.225000X0.250000X-0.225000X-0.250000X0.225000X-0.250000X0*%
%ADD30R,1.000000X0.700000*%
%ADD31RoundRect,0.150000X-0.587500X-0.150000X0.587500X-0.150000X0.587500X0.150000X-0.587500X0.150000X0*%
%ADD32RoundRect,0.150000X0.150000X-0.825000X0.150000X0.825000X-0.150000X0.825000X-0.150000X-0.825000X0*%
%ADD33RoundRect,0.225000X-0.250000X0.225000X-0.250000X-0.225000X0.250000X-0.225000X0.250000X0.225000X0*%
%ADD34RoundRect,0.200000X-0.275000X0.200000X-0.275000X-0.200000X0.275000X-0.200000X0.275000X0.200000X0*%
%ADD35C,0.650000*%
%ADD36R,1.240000X0.600000*%
%ADD37R,1.240000X0.300000*%
%ADD38O,2.100000X1.000000*%
%ADD39O,1.800000X1.000000*%
%ADD40C,2.000000*%
%ADD41R,1.400000X1.600000*%
%ADD42RoundRect,0.150000X0.150000X-0.587500X0.150000X0.587500X-0.150000X0.587500X-0.150000X-0.587500X0*%
%ADD43RoundRect,0.237500X-0.287500X-0.237500X0.287500X-0.237500X0.287500X0.237500X-0.287500X0.237500X0*%
%ADD44RoundRect,0.140000X0.170000X-0.140000X0.170000X0.140000X-0.170000X0.140000X-0.170000X-0.140000X0*%
%ADD45RoundRect,0.135000X0.185000X-0.135000X0.185000X0.135000X-0.185000X0.135000X-0.185000X-0.135000X0*%
%ADD46R,1.200000X2.200000*%
%ADD47R,5.800000X6.400000*%
%ADD48RoundRect,0.150000X0.150000X-0.675000X0.150000X0.675000X-0.150000X0.675000X-0.150000X-0.675000X0*%
%ADD49RoundRect,0.381000X-0.381000X0.381000X-0.381000X-0.381000X0.381000X-0.381000X0.381000X0.381000X0*%
%ADD50C,1.524000*%
%ADD51RoundRect,0.150000X-0.150000X0.587500X-0.150000X-0.587500X0.150000X-0.587500X0.150000X0.587500X0*%
%ADD52R,0.900000X1.200000*%
%ADD53RoundRect,0.237500X0.237500X-0.300000X0.237500X0.300000X-0.237500X0.300000X-0.237500X-0.300000X0*%
%ADD54RoundRect,0.250001X0.799999X-1.999999X0.799999X1.999999X-0.799999X1.999999X-0.799999X-1.999999X0*%
%ADD55RoundRect,0.250000X0.250000X0.475000X-0.250000X0.475000X-0.250000X-0.475000X0.250000X-0.475000X0*%
%ADD56RoundRect,0.200000X-0.200000X-0.275000X0.200000X-0.275000X0.200000X0.275000X-0.200000X0.275000X0*%
%ADD57R,0.600000X1.500000*%
%ADD58R,2.800000X2.400000*%
%ADD59FreePoly0,0.000000*%
%ADD60FreePoly1,0.000000*%
%ADD61R,1.500000X1.500000*%
%ADD62RoundRect,0.250000X-0.675000X0.600000X-0.675000X-0.600000X0.675000X-0.600000X0.675000X0.600000X0*%
%ADD63O,1.850000X1.700000*%
%ADD64RoundRect,0.250001X-1.999999X-0.799999X1.999999X-0.799999X1.999999X0.799999X-1.999999X0.799999X0*%
%ADD65RoundRect,0.225000X-0.225000X-0.250000X0.225000X-0.250000X0.225000X0.250000X-0.225000X0.250000X0*%
%ADD66R,2.413000X5.334000*%
%ADD67RoundRect,0.150000X0.587500X0.150000X-0.587500X0.150000X-0.587500X-0.150000X0.587500X-0.150000X0*%
%ADD68RoundRect,0.250000X-0.475000X0.250000X-0.475000X-0.250000X0.475000X-0.250000X0.475000X0.250000X0*%
%ADD69RoundRect,0.200000X0.275000X-0.200000X0.275000X0.200000X-0.275000X0.200000X-0.275000X-0.200000X0*%
%ADD70R,1.600000X1.600000*%
%ADD71C,1.600000*%
%ADD72C,1.400000*%
%ADD73R,3.500000X3.500000*%
%ADD74C,3.500000*%
%ADD75C,3.000000*%
%ADD76O,1.600000X1.600000*%
%ADD77R,2.200000X1.200000*%
%ADD78R,6.400000X5.800000*%
%ADD79O,3.500000X3.500000*%
%ADD80R,1.905000X2.000000*%
%ADD81O,1.905000X2.000000*%
%ADD82RoundRect,0.250000X-0.600000X-0.675000X0.600000X-0.675000X0.600000X0.675000X-0.600000X0.675000X0*%
%ADD83R,1.700000X1.700000*%
%ADD84O,1.700000X1.700000*%
%ADD85RoundRect,0.140000X0.140000X0.170000X-0.140000X0.170000X-0.140000X-0.170000X0.140000X-0.170000X0*%
%ADD86R,1.150000X1.500000*%
%ADD87R,1.500000X0.900000*%
%ADD88R,0.900000X1.500000*%
%ADD89RoundRect,1.625000X1.625000X1.625000X-1.625000X1.625000X-1.625000X-1.625000X1.625000X-1.625000X0*%
%ADD90R,1.200000X0.900000*%
G04 APERTURE END LIST*
D10*
%TO.C,R29*%
X159920000Y-104500000D03*
X158900000Y-104500000D03*
%TD*%
D11*
%TO.C,D24*%
X143199999Y-75085000D03*
X142099999Y-75085000D03*
X142099999Y-76915000D03*
X143199999Y-76915000D03*
%TD*%
D12*
%TO.C,D29*%
X168520001Y-100680001D03*
X166020001Y-100680001D03*
%TD*%
D13*
%TO.C,R53*%
X153490000Y-62160000D03*
X154510000Y-62160000D03*
%TD*%
D10*
%TO.C,R56*%
X139652619Y-70478465D03*
X138632619Y-70478465D03*
%TD*%
D14*
%TO.C,SW2*%
X210120000Y-114590000D03*
X210120000Y-124750000D03*
D15*
X210120000Y-122210000D03*
D14*
X210120000Y-119670000D03*
X210120000Y-117130000D03*
%TD*%
D10*
%TO.C,R22*%
X159910000Y-106250000D03*
X158890000Y-106250000D03*
%TD*%
D16*
%TO.C,C16*%
X154240000Y-122150000D03*
X154240000Y-123110000D03*
%TD*%
D17*
%TO.C,Q4*%
X137570000Y-94450000D03*
X135670000Y-94450000D03*
X136620000Y-96850000D03*
%TD*%
D18*
%TO.C,C8*%
X186740000Y-88470000D03*
X186740000Y-86570000D03*
%TD*%
D16*
%TO.C,C24*%
X144650000Y-77770000D03*
X144650000Y-78730000D03*
%TD*%
D19*
%TO.C,D14*%
X202375000Y-111750000D03*
X200625000Y-111750000D03*
%TD*%
D20*
%TO.C,C34*%
X168050001Y-86800001D03*
X169950001Y-86800001D03*
%TD*%
D19*
%TO.C,D7*%
X163035000Y-104500000D03*
X161285000Y-104500000D03*
%TD*%
D21*
%TO.C,J13*%
X148122619Y-68078465D03*
D22*
X145622619Y-68078465D03*
X143122619Y-68078465D03*
X140622619Y-68078465D03*
%TD*%
D13*
%TO.C,R26*%
X126450000Y-111650000D03*
X127470000Y-111650000D03*
%TD*%
D10*
%TO.C,R33*%
X158270000Y-67040000D03*
X157250000Y-67040000D03*
%TD*%
D23*
%TO.C,R67*%
X169827382Y-88641536D03*
X168177382Y-88641536D03*
%TD*%
D24*
%TO.C,R32*%
X179110001Y-99860001D03*
X179110001Y-100880001D03*
%TD*%
D25*
%TO.C,J6*%
X199400000Y-120540000D03*
X204400000Y-120540000D03*
D26*
X199650000Y-116540000D03*
D27*
X204150000Y-116540000D03*
X199000000Y-124040000D03*
X204800000Y-124040000D03*
%TD*%
D28*
%TO.C,C31*%
X183260001Y-90330001D03*
X184220001Y-90330001D03*
%TD*%
D12*
%TO.C,D9*%
X161610000Y-70980000D03*
X161610000Y-68480000D03*
%TD*%
D29*
%TO.C,C36*%
X172797381Y-88631537D03*
X171247381Y-88631537D03*
%TD*%
D30*
%TO.C,Q12*%
X159461545Y-70343690D03*
X159461545Y-68443690D03*
X157061545Y-69393690D03*
%TD*%
D24*
%TO.C,R14*%
X134240000Y-96070000D03*
X134240000Y-97090000D03*
%TD*%
D31*
%TO.C,Q2*%
X216612500Y-115870000D03*
X216612500Y-117770000D03*
X218487500Y-116820000D03*
%TD*%
D10*
%TO.C,R13*%
X174250000Y-106750000D03*
X173230000Y-106750000D03*
%TD*%
%TO.C,R50*%
X154250000Y-67060000D03*
X153230000Y-67060000D03*
%TD*%
%TO.C,R18*%
X138820000Y-89540000D03*
X137800000Y-89540000D03*
%TD*%
D28*
%TO.C,C14*%
X154220000Y-120100000D03*
X155180000Y-120100000D03*
%TD*%
D32*
%TO.C,U6*%
X182905001Y-111240001D03*
X184175001Y-111240001D03*
X185445001Y-111240001D03*
X186715001Y-111240001D03*
X186715001Y-106290001D03*
X185445001Y-106290001D03*
X184175001Y-106290001D03*
X182905001Y-106290001D03*
%TD*%
D33*
%TO.C,C9*%
X184890001Y-86965000D03*
X184890001Y-88515000D03*
%TD*%
D17*
%TO.C,Q14*%
X149750000Y-77920000D03*
X151650000Y-77920000D03*
X150700000Y-75520000D03*
%TD*%
D21*
%TO.C,J11*%
X170500000Y-63750000D03*
D22*
X168000000Y-63750000D03*
X165500000Y-63750000D03*
%TD*%
D34*
%TO.C,R59*%
X186750000Y-98835001D03*
X186750000Y-100485001D03*
%TD*%
D35*
%TO.C,J4*%
X131305000Y-98230000D03*
X131305000Y-92450000D03*
D36*
X132425000Y-92140000D03*
X132425000Y-92940000D03*
D37*
X132425000Y-94090000D03*
X132425000Y-95090000D03*
X132425000Y-95590000D03*
X132425000Y-96590000D03*
D36*
X132425000Y-97740000D03*
X132425000Y-98540000D03*
X132425000Y-98540000D03*
X132425000Y-97740000D03*
D37*
X132425000Y-97090000D03*
X132425000Y-96090000D03*
X132425000Y-94590000D03*
X132425000Y-93590000D03*
D36*
X132425000Y-92940000D03*
X132425000Y-92140000D03*
D38*
X131825000Y-91020000D03*
D39*
X127625000Y-99660000D03*
X127625000Y-91020000D03*
D38*
X131825000Y-99660000D03*
%TD*%
D33*
%TO.C,C32*%
X174352620Y-87113466D03*
X174352620Y-88663466D03*
%TD*%
D40*
%TO.C,TP5*%
X128120000Y-87970000D03*
%TD*%
D41*
%TO.C,SW4*%
X152500000Y-93250000D03*
X152500000Y-101250000D03*
X148000000Y-101250000D03*
X148000000Y-93250000D03*
%TD*%
D42*
%TO.C,Q18*%
X152310000Y-65537500D03*
X154210000Y-65537500D03*
X153260000Y-63662500D03*
%TD*%
D43*
%TO.C,D5*%
X165035000Y-104500000D03*
X166785000Y-104500000D03*
%TD*%
D44*
%TO.C,C1*%
X215020000Y-120080000D03*
X215020000Y-119120000D03*
%TD*%
D45*
%TO.C,R16*%
X134240000Y-99090000D03*
X134240000Y-98070000D03*
%TD*%
D10*
%TO.C,R52*%
X156260000Y-67050000D03*
X155240000Y-67050000D03*
%TD*%
D44*
%TO.C,C21*%
X144650000Y-71730000D03*
X144650000Y-70770000D03*
%TD*%
D46*
%TO.C,U3*%
X154638926Y-80095000D03*
D47*
X152358926Y-86395000D03*
D46*
X150078926Y-80095000D03*
%TD*%
D48*
%TO.C,U5*%
X135887619Y-77403465D03*
X137157619Y-77403465D03*
X138427619Y-77403465D03*
X139697619Y-77403465D03*
X139697619Y-72153465D03*
X138427619Y-72153465D03*
X137157619Y-72153465D03*
X135887619Y-72153465D03*
%TD*%
D45*
%TO.C,R73*%
X164000000Y-72010000D03*
X164000000Y-70990000D03*
%TD*%
D49*
%TO.C,SW6*%
X177540000Y-116640000D03*
D50*
X175000000Y-116640000D03*
X172460000Y-116640000D03*
%TD*%
D51*
%TO.C,Q11*%
X145060000Y-94772500D03*
X143160000Y-94772500D03*
X144110000Y-96647500D03*
%TD*%
D48*
%TO.C,U1*%
X157825000Y-88595000D03*
X159095000Y-88595000D03*
X160365000Y-88595000D03*
X161635000Y-88595000D03*
X161635000Y-83345000D03*
X160365000Y-83345000D03*
X159095000Y-83345000D03*
X157825000Y-83345000D03*
%TD*%
D45*
%TO.C,R4*%
X215010000Y-118070000D03*
X215010000Y-117050000D03*
%TD*%
D10*
%TO.C,R1*%
X198992619Y-91838465D03*
X197972619Y-91838465D03*
%TD*%
D52*
%TO.C,D8*%
X179120001Y-103750001D03*
X182420001Y-103750001D03*
%TD*%
D13*
%TO.C,R19*%
X197940000Y-92880000D03*
X198960000Y-92880000D03*
%TD*%
D53*
%TO.C,C17*%
X150250000Y-103212500D03*
X150250000Y-101487500D03*
%TD*%
D45*
%TO.C,R5*%
X158250000Y-110010000D03*
X158250000Y-108990000D03*
%TD*%
D54*
%TO.C,C18*%
X190220001Y-83420001D03*
X190220001Y-76220001D03*
%TD*%
D12*
%TO.C,D16*%
X171250000Y-120500000D03*
X173750000Y-120500000D03*
%TD*%
D13*
%TO.C,R58*%
X136682619Y-70478465D03*
X137702619Y-70478465D03*
%TD*%
D55*
%TO.C,C19*%
X150640000Y-91010000D03*
X148740000Y-91010000D03*
%TD*%
D16*
%TO.C,C22*%
X144530000Y-84700000D03*
X144530000Y-85660000D03*
%TD*%
D13*
%TO.C,R27*%
X168150000Y-106250000D03*
X169170000Y-106250000D03*
%TD*%
D28*
%TO.C,C11*%
X151888926Y-80585000D03*
X152848926Y-80585000D03*
%TD*%
D13*
%TO.C,R46*%
X139090000Y-83350000D03*
X140110000Y-83350000D03*
%TD*%
D56*
%TO.C,R20*%
X185425001Y-90070001D03*
X187075001Y-90070001D03*
%TD*%
D11*
%TO.C,D21*%
X146100001Y-76915000D03*
X147200001Y-76915000D03*
X147200001Y-75085000D03*
X146100001Y-75085000D03*
%TD*%
D57*
%TO.C,U2*%
X131240000Y-103420000D03*
X130240000Y-103420000D03*
X129240000Y-103420000D03*
X128240000Y-103420000D03*
X127240000Y-103420000D03*
X127240000Y-108920000D03*
X128240000Y-108920000D03*
X129240000Y-108920000D03*
X130240000Y-108920000D03*
X131240000Y-108920000D03*
D58*
X129240000Y-106170000D03*
%TD*%
D59*
%TO.C,JP3*%
X138315000Y-92350000D03*
D60*
X139765000Y-92350000D03*
%TD*%
D10*
%TO.C,R60*%
X185510000Y-98590001D03*
X184490000Y-98590001D03*
%TD*%
D61*
%TO.C,H5*%
X146650000Y-89500000D03*
%TD*%
D30*
%TO.C,Q7*%
X141570000Y-96410000D03*
X141570000Y-94510000D03*
X139170000Y-95460000D03*
%TD*%
D12*
%TO.C,D10*%
X142050000Y-90550000D03*
X144550000Y-90550000D03*
%TD*%
D44*
%TO.C,C26*%
X134440000Y-72490000D03*
X134440000Y-71530000D03*
%TD*%
D10*
%TO.C,R51*%
X160260000Y-67040000D03*
X159240000Y-67040000D03*
%TD*%
D12*
%TO.C,D11*%
X142050000Y-92550000D03*
X144550000Y-92550000D03*
%TD*%
D34*
%TO.C,R9*%
X171330000Y-100695000D03*
X171330000Y-102345000D03*
%TD*%
D62*
%TO.C,J12*%
X131912619Y-74868465D03*
D63*
X131912619Y-77368465D03*
X131912619Y-79868465D03*
X131912619Y-82368465D03*
%TD*%
D13*
%TO.C,R40*%
X152890000Y-74270000D03*
X153910000Y-74270000D03*
%TD*%
D64*
%TO.C,C28*%
X187150000Y-117000000D03*
X194350000Y-117000000D03*
%TD*%
D65*
%TO.C,C2*%
X159965000Y-81480000D03*
X161515000Y-81480000D03*
%TD*%
D11*
%TO.C,D18*%
X143200000Y-85585000D03*
X142100000Y-85585000D03*
X142100000Y-87415000D03*
X143200000Y-87415000D03*
%TD*%
D31*
%TO.C,Q9*%
X127042500Y-113062500D03*
X127042500Y-114962500D03*
X128917500Y-114012500D03*
%TD*%
D66*
%TO.C,L1*%
X172640370Y-94498466D03*
X165401370Y-94498466D03*
%TD*%
D67*
%TO.C,Q13*%
X157275000Y-73870000D03*
X157275000Y-71970000D03*
X155400000Y-72920000D03*
%TD*%
D68*
%TO.C,C3*%
X134760000Y-90920000D03*
X134760000Y-92820000D03*
%TD*%
D69*
%TO.C,R68*%
X161090000Y-79585000D03*
X161090000Y-77935000D03*
%TD*%
D10*
%TO.C,R42*%
X199310000Y-110550000D03*
X198290000Y-110550000D03*
%TD*%
D23*
%TO.C,R72*%
X159385000Y-90520000D03*
X157735000Y-90520000D03*
%TD*%
D11*
%TO.C,D26*%
X143200000Y-71585000D03*
X142100000Y-71585000D03*
X142100000Y-73415000D03*
X143200000Y-73415000D03*
%TD*%
D46*
%TO.C,Q3*%
X189070000Y-95940001D03*
D47*
X191350000Y-89640001D03*
D46*
X193630000Y-95940001D03*
%TD*%
D21*
%TO.C,J10*%
X182100000Y-63750000D03*
D22*
X179600000Y-63750000D03*
X177100000Y-63750000D03*
%TD*%
D33*
%TO.C,C7*%
X136560000Y-91335000D03*
X136560000Y-92885000D03*
%TD*%
D13*
%TO.C,R55*%
X156990000Y-62150000D03*
X158010000Y-62150000D03*
%TD*%
D70*
%TO.C,C35*%
X167720001Y-80320000D03*
X167049064Y-78720000D03*
D71*
X170220001Y-80320000D03*
X170890938Y-81920000D03*
%TD*%
D16*
%TO.C,C25*%
X144650000Y-74270001D03*
X144650000Y-75230001D03*
%TD*%
D10*
%TO.C,R43*%
X199310000Y-111550000D03*
X198290000Y-111550000D03*
%TD*%
D45*
%TO.C,R11*%
X158250000Y-117510000D03*
X158250000Y-116490000D03*
%TD*%
D10*
%TO.C,R69*%
X161790000Y-76710000D03*
X160770000Y-76710000D03*
%TD*%
D19*
%TO.C,D1*%
X202007619Y-91838465D03*
X200257619Y-91838465D03*
%TD*%
D16*
%TO.C,C6*%
X131250000Y-110700000D03*
X131250000Y-111660000D03*
%TD*%
D68*
%TO.C,C27*%
X186630001Y-102280001D03*
X186630001Y-104180001D03*
%TD*%
D46*
%TO.C,Q1*%
X193510001Y-100900000D03*
D47*
X191230001Y-107200000D03*
D46*
X188950001Y-100900000D03*
%TD*%
D49*
%TO.C,SW3*%
X177540000Y-109500000D03*
D50*
X175000000Y-109500000D03*
X172460000Y-109500000D03*
%TD*%
D28*
%TO.C,C4*%
X157610000Y-81730000D03*
X158570000Y-81730000D03*
%TD*%
D12*
%TO.C,D17*%
X181500000Y-123500000D03*
X181500000Y-126000000D03*
%TD*%
D11*
%TO.C,D22*%
X143200000Y-78585000D03*
X142100000Y-78585000D03*
X142100000Y-80415000D03*
X143200000Y-80415000D03*
%TD*%
D21*
%TO.C,J9*%
X193700000Y-63750000D03*
D22*
X191200000Y-63750000D03*
X188700000Y-63750000D03*
%TD*%
D11*
%TO.C,D23*%
X146100000Y-80415000D03*
X147200000Y-80415000D03*
X147200000Y-78585000D03*
X146100000Y-78585000D03*
%TD*%
D34*
%TO.C,R10*%
X171310000Y-103755000D03*
X171310000Y-105405000D03*
%TD*%
D72*
%TO.C,J1*%
X199270000Y-64955000D03*
X210270000Y-64955000D03*
D73*
X207270000Y-74955000D03*
D74*
X202270000Y-74955000D03*
%TD*%
D69*
%TO.C,R48*%
X139602619Y-80883465D03*
X139602619Y-79233465D03*
%TD*%
D75*
%TO.C,F1*%
X201132619Y-96638465D03*
X201132619Y-103338465D03*
X201132619Y-80338465D03*
X201132619Y-87038465D03*
%TD*%
D19*
%TO.C,D12*%
X202375000Y-108250000D03*
X200625000Y-108250000D03*
%TD*%
D45*
%TO.C,R3*%
X216110000Y-120110000D03*
X216110000Y-119090000D03*
%TD*%
D29*
%TO.C,C30*%
X185525000Y-113360000D03*
X183975000Y-113360000D03*
%TD*%
D13*
%TO.C,R35*%
X158760000Y-72740000D03*
X159780000Y-72740000D03*
%TD*%
D10*
%TO.C,R21*%
X174250000Y-113910000D03*
X173230000Y-113910000D03*
%TD*%
D70*
%TO.C,SW1*%
X160200000Y-109385000D03*
D76*
X160200000Y-111925000D03*
X160200000Y-114465000D03*
X160200000Y-117005000D03*
X160200000Y-119545000D03*
X167820000Y-119545000D03*
X167820000Y-117005000D03*
X167820000Y-114465000D03*
X167820000Y-111925000D03*
X167820000Y-109385000D03*
%TD*%
D24*
%TO.C,R37*%
X153850000Y-72210000D03*
X153850000Y-73230000D03*
%TD*%
D72*
%TO.C,J3*%
X214789999Y-81230000D03*
X214789999Y-92230000D03*
D73*
X209789999Y-84230000D03*
D74*
X209789999Y-89230000D03*
%TD*%
D77*
%TO.C,Q8*%
X186330001Y-96700001D03*
D78*
X180030001Y-94420001D03*
D77*
X186330001Y-92140001D03*
%TD*%
D10*
%TO.C,R45*%
X199310000Y-113550000D03*
X198290000Y-113550000D03*
%TD*%
D11*
%TO.C,D19*%
X146100000Y-73415000D03*
X147200000Y-73415000D03*
X147200000Y-71585000D03*
X146100000Y-71585000D03*
%TD*%
D79*
%TO.C,D28*%
X179600000Y-71320000D03*
D80*
X177060000Y-87980000D03*
D81*
X179600000Y-87980000D03*
X182140000Y-87980000D03*
%TD*%
D42*
%TO.C,Q20*%
X155780000Y-65527500D03*
X157680000Y-65527500D03*
X156730000Y-63652500D03*
%TD*%
D56*
%TO.C,R71*%
X160795000Y-90520000D03*
X162445000Y-90520000D03*
%TD*%
D42*
%TO.C,Q5*%
X180450001Y-101467501D03*
X182350001Y-101467501D03*
X181400001Y-99592501D03*
%TD*%
D12*
%TO.C,D2*%
X199850000Y-89950000D03*
X202350000Y-89950000D03*
%TD*%
D10*
%TO.C,R44*%
X199310000Y-112550000D03*
X198290000Y-112550000D03*
%TD*%
D82*
%TO.C,J8*%
X185750000Y-123500000D03*
D22*
X188250000Y-123500000D03*
X190750000Y-123500000D03*
%TD*%
D83*
%TO.C,JP2*%
X135712619Y-65498465D03*
D84*
X135712619Y-68038465D03*
%TD*%
D16*
%TO.C,C23*%
X144560000Y-81190000D03*
X144560000Y-82150000D03*
%TD*%
D72*
%TO.C,J2*%
X214769999Y-97840000D03*
X214769999Y-108840000D03*
D73*
X209769999Y-100840000D03*
D74*
X209769999Y-105840000D03*
%TD*%
D13*
%TO.C,R47*%
X142140000Y-88950000D03*
X143160000Y-88950000D03*
%TD*%
D51*
%TO.C,Q16*%
X140050000Y-85012500D03*
X138150000Y-85012500D03*
X139100000Y-86887500D03*
%TD*%
D10*
%TO.C,R54*%
X160000000Y-62140000D03*
X158980000Y-62140000D03*
%TD*%
D85*
%TO.C,C29*%
X185100001Y-104470001D03*
X184140001Y-104470001D03*
%TD*%
D13*
%TO.C,R39*%
X149740000Y-93000000D03*
X150760000Y-93000000D03*
%TD*%
D77*
%TO.C,Q21*%
X164030000Y-69210000D03*
D78*
X170330000Y-71490000D03*
D77*
X164030000Y-73770000D03*
%TD*%
D31*
%TO.C,Q10*%
X127042500Y-116652500D03*
X127042500Y-118552500D03*
X128917500Y-117602500D03*
%TD*%
D28*
%TO.C,C15*%
X157720000Y-93050000D03*
X158680000Y-93050000D03*
%TD*%
D24*
%TO.C,R7*%
X213910000Y-117050000D03*
X213910000Y-118070000D03*
%TD*%
D10*
%TO.C,R36*%
X159790000Y-73780000D03*
X158770000Y-73780000D03*
%TD*%
D28*
%TO.C,C5*%
X127360000Y-110490000D03*
X128320000Y-110490000D03*
%TD*%
D19*
%TO.C,D4*%
X163035000Y-106250000D03*
X161285000Y-106250000D03*
%TD*%
D86*
%TO.C,RV1*%
X159155000Y-75840000D03*
D61*
X158230000Y-79440000D03*
D86*
X157305000Y-75840000D03*
%TD*%
D11*
%TO.C,D27*%
X146100000Y-87415000D03*
X147200000Y-87415000D03*
X147200000Y-85585000D03*
X146100000Y-85585000D03*
%TD*%
%TO.C,D25*%
X146100000Y-83915000D03*
X147200000Y-83915000D03*
X147200000Y-82085000D03*
X146100000Y-82085000D03*
%TD*%
D10*
%TO.C,R30*%
X152878926Y-79525000D03*
X151858926Y-79525000D03*
%TD*%
D11*
%TO.C,D20*%
X143200000Y-82085000D03*
X142100000Y-82085000D03*
X142100000Y-83915000D03*
X143200000Y-83915000D03*
%TD*%
D51*
%TO.C,Q15*%
X155150000Y-75820000D03*
X153250000Y-75820000D03*
X154200000Y-77695000D03*
%TD*%
D28*
%TO.C,C10*%
X158811545Y-71713690D03*
X159771545Y-71713690D03*
%TD*%
D10*
%TO.C,R31*%
X158760000Y-101500000D03*
X157740000Y-101500000D03*
%TD*%
D68*
%TO.C,C13*%
X155770000Y-121500000D03*
X155770000Y-123400000D03*
%TD*%
D19*
%TO.C,D13*%
X202375000Y-110000000D03*
X200625000Y-110000000D03*
%TD*%
D10*
%TO.C,R17*%
X138810000Y-90540000D03*
X137790000Y-90540000D03*
%TD*%
D51*
%TO.C,Q17*%
X137762619Y-79580965D03*
X135862619Y-79580965D03*
X136812619Y-81455965D03*
%TD*%
D13*
%TO.C,R23*%
X168150000Y-104500000D03*
X169170000Y-104500000D03*
%TD*%
D45*
%TO.C,R2*%
X213910000Y-120120000D03*
X213910000Y-119100000D03*
%TD*%
%TO.C,R8*%
X158250000Y-115010000D03*
X158250000Y-113990000D03*
%TD*%
D34*
%TO.C,R61*%
X175740001Y-90175001D03*
X175740001Y-91825001D03*
%TD*%
D82*
%TO.C,J7*%
X171000000Y-123500000D03*
D22*
X173500000Y-123500000D03*
X176000000Y-123500000D03*
%TD*%
D43*
%TO.C,D6*%
X165035000Y-106250000D03*
X166785000Y-106250000D03*
%TD*%
D10*
%TO.C,R28*%
X142630000Y-98150000D03*
X141610000Y-98150000D03*
%TD*%
D45*
%TO.C,R38*%
X156440000Y-84660000D03*
X156440000Y-83640000D03*
%TD*%
%TO.C,R24*%
X136610000Y-99150000D03*
X136610000Y-98130000D03*
%TD*%
D42*
%TO.C,Q19*%
X159290000Y-65527500D03*
X161190000Y-65527500D03*
X160240000Y-63652500D03*
%TD*%
D87*
%TO.C,U4*%
X152710000Y-122925000D03*
X152710000Y-121655000D03*
X152710000Y-120385000D03*
X152710000Y-119115000D03*
X152710000Y-117845000D03*
X152710000Y-116575000D03*
X152710000Y-115305000D03*
X152710000Y-114035000D03*
X152710000Y-112765000D03*
X152710000Y-111495000D03*
X152710000Y-110225000D03*
X152710000Y-108955000D03*
X152710000Y-107685000D03*
X152710000Y-106415000D03*
D88*
X149670000Y-105165000D03*
X148400000Y-105165000D03*
X147130000Y-105165000D03*
X145860000Y-105165000D03*
X144590000Y-105165000D03*
X143320000Y-105165000D03*
X142050000Y-105165000D03*
X140780000Y-105165000D03*
X139510000Y-105165000D03*
X138240000Y-105165000D03*
D87*
X135210000Y-106415000D03*
X135210000Y-107685000D03*
X135210000Y-108955000D03*
X135210000Y-110225000D03*
X135210000Y-111495000D03*
X135210000Y-112765000D03*
X135210000Y-114035000D03*
X135210000Y-115305000D03*
X135210000Y-116575000D03*
X135210000Y-117845000D03*
X135210000Y-119115000D03*
X135210000Y-120385000D03*
X135210000Y-121655000D03*
X135210000Y-122925000D03*
D89*
X145460000Y-115205000D03*
%TD*%
D10*
%TO.C,R57*%
X135362619Y-70468465D03*
X134342619Y-70468465D03*
%TD*%
D45*
%TO.C,R15*%
X134250000Y-95110000D03*
X134250000Y-94090000D03*
%TD*%
D67*
%TO.C,Q6*%
X140087500Y-100360000D03*
X140087500Y-98460000D03*
X138212500Y-99410000D03*
%TD*%
D13*
%TO.C,R49*%
X139082619Y-82138465D03*
X140102619Y-82138465D03*
%TD*%
D69*
%TO.C,R70*%
X161216307Y-74101760D03*
X161216307Y-72451760D03*
%TD*%
D45*
%TO.C,R12*%
X158250000Y-120010000D03*
X158250000Y-118990000D03*
%TD*%
D44*
%TO.C,C12*%
X156450000Y-82700000D03*
X156450000Y-81740000D03*
%TD*%
D41*
%TO.C,SW5*%
X156000000Y-101250000D03*
X156000000Y-93250000D03*
X160500000Y-93250000D03*
X160500000Y-101250000D03*
%TD*%
D19*
%TO.C,D15*%
X202375000Y-113500000D03*
X200625000Y-113500000D03*
%TD*%
D13*
%TO.C,R25*%
X143560000Y-98160000D03*
X144580000Y-98160000D03*
%TD*%
D45*
%TO.C,R6*%
X158250000Y-112510000D03*
X158250000Y-111490000D03*
%TD*%
D90*
%TO.C,D3*%
X184380001Y-103190001D03*
X184380001Y-99890001D03*
%TD*%
M02*
