%TF.GenerationSoftware,KiCad,Pcbnew,(6.0.11)*%
%TF.CreationDate,2024-02-29T08:20:34+09:00*%
%TF.ProjectId,Pole,506f6c65-2e6b-4696-9361-645f70636258,rev?*%
%TF.SameCoordinates,Original*%
%TF.FileFunction,Soldermask,Bot*%
%TF.FilePolarity,Negative*%
%FSLAX46Y46*%
G04 Gerber Fmt 4.6, Leading zero omitted, Abs format (unit mm)*
G04 Created by KiCad (PCBNEW (6.0.11)) date 2024-02-29 08:20:34*
%MOMM*%
%LPD*%
G01*
G04 APERTURE LIST*
G04 Aperture macros list*
%AMRoundRect*
0 Rectangle with rounded corners*
0 $1 Rounding radius*
0 $2 $3 $4 $5 $6 $7 $8 $9 X,Y pos of 4 corners*
0 Add a 4 corners polygon primitive as box body*
4,1,4,$2,$3,$4,$5,$6,$7,$8,$9,$2,$3,0*
0 Add four circle primitives for the rounded corners*
1,1,$1+$1,$2,$3*
1,1,$1+$1,$4,$5*
1,1,$1+$1,$6,$7*
1,1,$1+$1,$8,$9*
0 Add four rect primitives between the rounded corners*
20,1,$1+$1,$2,$3,$4,$5,0*
20,1,$1+$1,$4,$5,$6,$7,0*
20,1,$1+$1,$6,$7,$8,$9,0*
20,1,$1+$1,$8,$9,$2,$3,0*%
%AMFreePoly0*
4,1,6,1.000000,0.000000,0.500000,-0.750000,-0.500000,-0.750000,-0.500000,0.750000,0.500000,0.750000,1.000000,0.000000,1.000000,0.000000,$1*%
%AMFreePoly1*
4,1,6,0.500000,-0.750000,-0.650000,-0.750000,-0.150000,0.000000,-0.650000,0.750000,0.500000,0.750000,0.500000,-0.750000,0.500000,-0.750000,$1*%
G04 Aperture macros list end*
%ADD10C,1.700000*%
%ADD11RoundRect,0.425000X0.425000X0.425000X-0.425000X0.425000X-0.425000X-0.425000X0.425000X-0.425000X0*%
%ADD12RoundRect,0.250000X0.600000X0.675000X-0.600000X0.675000X-0.600000X-0.675000X0.600000X-0.675000X0*%
%ADD13O,1.700000X1.850000*%
%ADD14C,1.000000*%
%ADD15R,1.900000X1.900000*%
%ADD16C,1.900000*%
%ADD17C,0.650000*%
%ADD18O,2.100000X1.000000*%
%ADD19O,1.800000X1.000000*%
%ADD20C,2.000000*%
%ADD21RoundRect,0.381000X-0.381000X0.381000X-0.381000X-0.381000X0.381000X-0.381000X0.381000X0.381000X0*%
%ADD22C,1.524000*%
%ADD23RoundRect,0.250000X-0.675000X0.600000X-0.675000X-0.600000X0.675000X-0.600000X0.675000X0.600000X0*%
%ADD24O,1.850000X1.700000*%
%ADD25R,1.600000X1.600000*%
%ADD26C,1.600000*%
%ADD27C,1.400000*%
%ADD28R,3.500000X3.500000*%
%ADD29C,3.500000*%
%ADD30C,3.000000*%
%ADD31O,1.600000X1.600000*%
%ADD32O,3.500000X3.500000*%
%ADD33R,1.905000X2.000000*%
%ADD34O,1.905000X2.000000*%
%ADD35RoundRect,0.250000X-0.600000X-0.675000X0.600000X-0.675000X0.600000X0.675000X-0.600000X0.675000X0*%
%ADD36R,1.700000X1.700000*%
%ADD37O,1.700000X1.700000*%
%ADD38RoundRect,1.625000X1.625000X1.625000X-1.625000X1.625000X-1.625000X-1.625000X1.625000X-1.625000X0*%
%ADD39R,1.500000X1.500000*%
%ADD40FreePoly0,0.000000*%
%ADD41FreePoly1,0.000000*%
G04 APERTURE END LIST*
D10*
%TO.C,SW2*%
X210120000Y-114590000D03*
X210120000Y-124750000D03*
D11*
X210120000Y-122210000D03*
D10*
X210120000Y-119670000D03*
X210120000Y-117130000D03*
%TD*%
D12*
%TO.C,J13*%
X148122619Y-68078465D03*
D13*
X145622619Y-68078465D03*
X143122619Y-68078465D03*
X140622619Y-68078465D03*
%TD*%
D14*
%TO.C,J6*%
X199400000Y-120540000D03*
X204400000Y-120540000D03*
D15*
X199650000Y-116540000D03*
D16*
X204150000Y-116540000D03*
X199000000Y-124040000D03*
X204800000Y-124040000D03*
%TD*%
D12*
%TO.C,J11*%
X170500000Y-63750000D03*
D13*
X168000000Y-63750000D03*
X165500000Y-63750000D03*
%TD*%
D17*
%TO.C,J4*%
X131305000Y-98230000D03*
X131305000Y-92450000D03*
D18*
X131825000Y-91020000D03*
D19*
X127625000Y-99660000D03*
X127625000Y-91020000D03*
D18*
X131825000Y-99660000D03*
%TD*%
D20*
%TO.C,TP5*%
X128120000Y-87970000D03*
%TD*%
D21*
%TO.C,SW6*%
X177540000Y-116640000D03*
D22*
X175000000Y-116640000D03*
X172460000Y-116640000D03*
%TD*%
D23*
%TO.C,J12*%
X131912619Y-74868465D03*
D24*
X131912619Y-77368465D03*
X131912619Y-79868465D03*
X131912619Y-82368465D03*
%TD*%
D12*
%TO.C,J10*%
X182100000Y-63750000D03*
D13*
X179600000Y-63750000D03*
X177100000Y-63750000D03*
%TD*%
D25*
%TO.C,C35*%
X167720001Y-80320000D03*
X167049064Y-78720000D03*
D26*
X170220001Y-80320000D03*
X170890938Y-81920000D03*
%TD*%
D21*
%TO.C,SW3*%
X177540000Y-109500000D03*
D22*
X175000000Y-109500000D03*
X172460000Y-109500000D03*
%TD*%
D12*
%TO.C,J9*%
X193700000Y-63750000D03*
D13*
X191200000Y-63750000D03*
X188700000Y-63750000D03*
%TD*%
D27*
%TO.C,J1*%
X199270000Y-64955000D03*
X210270000Y-64955000D03*
D28*
X207270000Y-74955000D03*
D29*
X202270000Y-74955000D03*
%TD*%
D30*
%TO.C,F1*%
X201132619Y-96638465D03*
X201132619Y-103338465D03*
X201132619Y-80338465D03*
X201132619Y-87038465D03*
%TD*%
D25*
%TO.C,SW1*%
X160200000Y-109385000D03*
D31*
X160200000Y-111925000D03*
X160200000Y-114465000D03*
X160200000Y-117005000D03*
X160200000Y-119545000D03*
X167820000Y-119545000D03*
X167820000Y-117005000D03*
X167820000Y-114465000D03*
X167820000Y-111925000D03*
X167820000Y-109385000D03*
%TD*%
D27*
%TO.C,J3*%
X214789999Y-81230000D03*
X214789999Y-92230000D03*
D28*
X209789999Y-84230000D03*
D29*
X209789999Y-89230000D03*
%TD*%
D32*
%TO.C,D28*%
X179600000Y-71320000D03*
D33*
X177060000Y-87980000D03*
D34*
X179600000Y-87980000D03*
X182140000Y-87980000D03*
%TD*%
D35*
%TO.C,J8*%
X185750000Y-123500000D03*
D13*
X188250000Y-123500000D03*
X190750000Y-123500000D03*
%TD*%
D36*
%TO.C,JP2*%
X135712619Y-65498465D03*
D37*
X135712619Y-68038465D03*
%TD*%
D27*
%TO.C,J2*%
X214769999Y-97840000D03*
X214769999Y-108840000D03*
D28*
X209769999Y-100840000D03*
D29*
X209769999Y-105840000D03*
%TD*%
D35*
%TO.C,J7*%
X171000000Y-123500000D03*
D13*
X173500000Y-123500000D03*
X176000000Y-123500000D03*
%TD*%
D38*
%TO.C,U4*%
X145460000Y-115205000D03*
%TD*%
D39*
%TO.C,H7*%
X190750000Y-126250000D03*
%TD*%
%TO.C,H6*%
X176000000Y-120810000D03*
%TD*%
D40*
%TO.C,JP1*%
X129295000Y-110000000D03*
D41*
X130745000Y-110000000D03*
%TD*%
D39*
%TO.C,H4*%
X131990000Y-115460000D03*
%TD*%
%TO.C,H3*%
X147780000Y-120280000D03*
%TD*%
M02*
