0
SECTION
2
HEADER
9
$INSUNITS
70
4
9
$ACADVER
1
AC1014
9
$HANDSEED
5
FFFF
0
ENDSEC
0
SECTION
2
TABLES
0
TABLE
2
VPORT
5
8
100
AcDbSymbolTable
0
ENDTAB
0
TABLE
2
LTYPE
5
5
100
AcDbSymbolTable
0
LTYPE
5
14
100
AcDbSymbolTableRecord
100
AcDbLinetypeTableRecord
2
BYBLOCK
70
0
0
LTYPE
5
15
100
AcDbSymbolTableRecord
100
AcDbLinetypeTableRecord
2
BYLAYER
70
0
0
ENDTAB
0
TABLE
2
LAYER
5
2
100
AcDbSymbolTable
70
2
0
LAYER
5
50
100
AcDbSymbolTableRecord
100
AcDbLayerTableRecord
2
0
70
0
6
CONTINUOUS
0
ENDTAB
0
TABLE
2
STYLE
5
3
100
AcDbSymbolTable
70
1
0
STYLE
5
11
100
AcDbSymbolTableRecord
100
AcDbTextStyleTableRecord
2
STANDARD
70
0
0
ENDTAB
0
TABLE
2
VIEW
5
6
100
AcDbSymbolTable
70
0
0
ENDTAB
0
TABLE
2
UCS
5
7
100
AcDbSymbolTable
70
0
0
ENDTAB
0
TABLE
2
APPID
5
9
100
AcDbSymbolTable
70
2
0
APPID
5
12
100
AcDbSymbolTableRecord
100
AcDbRegAppTableRecord
2
ACAD
70
0
0
ENDTAB
0
TABLE
2
DIMSTYLE
5
A
100
AcDbSymbolTable
70
1
0
ENDTAB
0
TABLE
2
BLOCK_RECORD
5
1
100
AcDbSymbolTable
70
1
0
BLOCK_RECORD
5
1F
100
AcDbSymbolTableRecord
100
AcDbBlockTableRecord
2
*MODEL_SPACE
0
BLOCK_RECORD
5
1B
100
AcDbSymbolTableRecord
100
AcDbBlockTableRecord
2
*PAPER_SPACE
0
ENDTAB
0
ENDSEC
0
SECTION
2
BLOCKS
0
BLOCK
5
20
100
AcDbEntity
100
AcDbBlockBegin
2
*MODEL_SPACE
0
ENDBLK
5
21
100
AcDbEntity
100
AcDbBlockEnd
0
BLOCK
5
1C
100
AcDbEntity
100
AcDbBlockBegin
2
*PAPER_SPACE
0
ENDBLK
5
1D
100
AcDbEntity
100
AcDbBlockEnd
0
ENDSEC
0
SECTION
2
ENTITIES
0
LWPOLYLINE
5
100
100
AcDbEntity
8
0
100
AcDbPolyline
90
33
70
1
43
0.0
10
-10.606601717801894
20
81.317279836456578
42
2.4142135623730918
10
-17.677669529667366
20
81.317279836456578
10
-81.317279836456535
20
144.95689014324591
42
-0.75286939666956953
10
-76.665505023066217
20
153.3662322354451
42
-0.85406520430046262
10
-76.531188779549211
20
155.33703157801287
10
-31.864177300483156
20
159.32515760292949
42
-0.39223066023577818
10
-28.637970262732225
20
156.82886275452435
10
-18.715007285200134
20
97.119555582339672
42
-0.72945069597474421
10
-23.795738852587178
20
94.506416971241819
10
-72.537701689673099
20
143.24837980832774
42
-0.30561468458070296
10
-73.17839306526723
20
146.54072161337155
42
-0.53184551584780682
10
-81.317279836456621
20
144.9568901432458
10
-89.80256121069182
20
153.442171517481
10
-77.66652176577638
20
165.57821096240326
42
0.70087208744024043
10
-75.278405608293212
20
160.46877750290025
10
-33.139089521641822
20
164.2312164392084
42
0.43654356790367876
10
-30.446474111737921
20
167.71114782269001
10
-35.915379984508796
20
200.61911910026237
42
0.6101892435223093
10
-40.996111551895844
20
202.24862117628376
10
-33.234018715764876
20
210.0107140124087
10
-38.234018715764464
20
215.01071401240813
42
0.19891236737965368
10
-34.698484809831783
20
213.54624791834095
10
34.698484809831307
20
213.54624791834095
42
0.19891236737965673
10
38.234018715764037
20
215.01071401240822
10
33.23401871576403
20
210.01071401240819
10
44.352088038683853
20
198.89264468948838
42
0.72945069597474099
10
39.271356471296798
20
196.27950607839051
10
43.004829670481151
20
173.81412970099518
42
0.39223066023577879
10
46.231036708232089
20
171.31783485259004
10
63.427537986589698
20
172.85323675244339
42
0.63644373507300578
10
65.282062516225821
20
177.9626702119464
10
75.660425586956933
20
167.58430714121542
10
53.033008588987414
20
144.95689014324586
0
LWPOLYLINE
5
101
100
AcDbEntity
8
0
100
AcDbPolyline
90
9
70
1
43
0.0
10
49.141556294660077
20
153.47974017118258
42
1.4403936738417016
10
53.033008588987414
20
144.95689014324586
42
0.53184551584782258
10
51.449177118861613
20
153.09577691443502
42
0.30561468458068952
10
54.741518923905339
20
153.73646829002931
10
63.524386142038061
20
162.51933550816204
42
0.70087208744024043
10
61.136269984554886
20
167.62876896766505
10
47.505948929390755
20
166.41177601631114
42
0.43654356790367865
10
44.813333519486847
20
162.93184463282952
10
45.96859403779581
20
155.98031157684684
42
0.38710333857899415
0
LWPOLYLINE
5
102
100
AcDbEntity
8
0
100
AcDbPolyline
90
14
70
1
43
0.0
10
-1.363961030682227
20
204.35385976291576
42
0.99999999999999989
10
-11.363961030682228
20
204.35385976291565
10
-11.363961030682262
20
205.54624791834101
42
0.41421356237308832
10
-14.363961030682264
20
208.54624791834095
10
-28.624487841155506
20
208.54624791834095
42
0.46331309710498914
10
-31.583899064982926
20
205.05442965080272
10
-25.377469493722003
20
167.70856727561983
42
0.39223066023577952
10
-22.151262455971057
20
165.21227242721471
10
35.243209642561347
20
170.33677886458366
42
0.43654356790367865
10
37.935825052465255
20
173.81671024806531
10
32.581026325111097
20
206.03806618587919
42
0.36676149756110937
10
29.62161510128368
20
208.54624791834095
10
1.6360389693177728
20
208.54624791834095
42
0.41421356237309509
10
-1.363961030682227
20
205.54624791834095
0
LWPOLYLINE
5
103
100
AcDbEntity
8
0
100
AcDbPolyline
90
8
70
1
43
0.0
10
-12.925240449064528
20
92.779942560467845
42
0.61018924352230486
10
-7.84450888167747
20
91.150440484446463
10
42.101219509700229
20
141.09616887582422
42
0.24209002640271801
10
42.939310389967993
20
143.70930748692209
10
39.744328901470944
20
162.93442517989962
42
0.39223066023577874
10
36.518121863720012
20
165.43072002830479
10
-20.876350234812406
20
160.30621359093578
42
0.43654356790367876
10
-23.568965644716307
20
156.82628220745417
0
CIRCLE
5
104
100
AcDbEntity
8
0
100
AcDbCircle
10
-14.142135623734609
20
84.852813742389301
30
0
40
1.6000000000000014
210
0
220
0
230
1
0
CIRCLE
5
105
100
AcDbEntity
8
0
100
AcDbCircle
10
49.497474683054818
20
148.49242404917842
30
0
40
1.6000000000000014
210
0
220
0
230
1
0
CIRCLE
5
106
100
AcDbEntity
8
0
100
AcDbCircle
10
-6.3639610306822334
20
204.35385976291582
30
0
40
1.6000000000000014
210
0
220
0
230
1
0
CIRCLE
5
107
100
AcDbEntity
8
0
100
AcDbCircle
10
-77.781745930523797
20
148.49242404917862
30
0
40
1.6000000000000014
210
0
220
0
230
1
0
LWPOLYLINE
5
108
100
AcDbEntity
8
0
100
AcDbPolyline
90
10
70
1
43
0.0
10
-20.677669529667234
20
211.42492757478124
42
0.198912367379664
10
-22.798989873226859
20
210.54624791834087
10
-82.731493398829699
20
150.61374439273817
42
0.41421356237309381
10
-82.731493398829713
20
146.37110370561888
10
-16.263455967294263
20
79.903066274083457
42
0.41421356237309737
10
-12.020815280174972
20
79.903066274083457
10
54.447222151360478
20
146.37110370561894
42
0.4142135623730932
10
54.447222151360492
20
150.61374439273823
10
-5.4852813742421702
20
210.54624791834098
42
0.19891236737965898
10
-7.6066017178018539
20
211.42492757478135
0
LINE
5
109
100
AcDbEntity
8
0
100
AcDbLine
10
-1.363961030682227
20
205.54624791834095
30
0
11
-0.48528137424215234
21
205.54624791834095
31
0
0
LINE
5
110
100
AcDbEntity
8
0
100
AcDbLine
10
-0.48528137424215234
20
205.54624791834095
30
0
11
5.1715728752502326
21
199.88939366884853
31
0
0
LINE
5
111
100
AcDbEntity
8
0
100
AcDbLine
10
5.1715728752502326
20
199.88939366884853
30
0
11
-8.9705627484807415
21
185.7472580451176
31
0
0
LINE
5
112
100
AcDbEntity
8
0
100
AcDbLine
10
-8.9705627484807415
20
185.7472580451176
30
0
11
8.8008421050456072
21
167.97585319159123
31
0
0
LINE
5
113
100
AcDbEntity
8
0
100
AcDbLine
10
8.8008421050456072
20
167.97585319159123
30
0
11
22.942977728776572
21
182.11798881532218
31
0
0
ENDSEC
0
SECTION
2
OBJECTS
0
DICTIONARY
5
C
100
AcDbDictionary
3
ACAD_GROUP
350
D
3
ACAD_MLINESTYLE
350
17
0
DICTIONARY
5
D
100
AcDbDictionary
0
DICTIONARY
5
1A
330
C
100
AcDbDictionary
0
DICTIONARY
5
17
100
AcDbDictionary
0
ENDSEC
0
EOF
