0
SECTION
2
HEADER
9
$INSUNITS
70
4
9
$ACADVER
1
AC1014
9
$HANDSEED
5
FFFF
0
ENDSEC
0
SECTION
2
TABLES
0
TABLE
2
VPORT
5
8
100
AcDbSymbolTable
0
ENDTAB
0
TABLE
2
LTYPE
5
5
100
AcDbSymbolTable
0
LTYPE
5
14
100
AcDbSymbolTableRecord
100
AcDbLinetypeTableRecord
2
BYBLOCK
70
0
0
LTYPE
5
15
100
AcDbSymbolTableRecord
100
AcDbLinetypeTableRecord
2
BYLAYER
70
0
0
ENDTAB
0
TABLE
2
LAYER
5
2
100
AcDbSymbolTable
70
2
0
LAYER
5
50
100
AcDbSymbolTableRecord
100
AcDbLayerTableRecord
2
0
70
0
6
CONTINUOUS
0
ENDTAB
0
TABLE
2
STYLE
5
3
100
AcDbSymbolTable
70
1
0
STYLE
5
11
100
AcDbSymbolTableRecord
100
AcDbTextStyleTableRecord
2
STANDARD
70
0
0
ENDTAB
0
TABLE
2
VIEW
5
6
100
AcDbSymbolTable
70
0
0
ENDTAB
0
TABLE
2
UCS
5
7
100
AcDbSymbolTable
70
0
0
ENDTAB
0
TABLE
2
APPID
5
9
100
AcDbSymbolTable
70
2
0
APPID
5
12
100
AcDbSymbolTableRecord
100
AcDbRegAppTableRecord
2
ACAD
70
0
0
ENDTAB
0
TABLE
2
DIMSTYLE
5
A
100
AcDbSymbolTable
70
1
0
ENDTAB
0
TABLE
2
BLOCK_RECORD
5
1
100
AcDbSymbolTable
70
1
0
BLOCK_RECORD
5
1F
100
AcDbSymbolTableRecord
100
AcDbBlockTableRecord
2
*MODEL_SPACE
0
BLOCK_RECORD
5
1B
100
AcDbSymbolTableRecord
100
AcDbBlockTableRecord
2
*PAPER_SPACE
0
ENDTAB
0
ENDSEC
0
SECTION
2
BLOCKS
0
BLOCK
5
20
100
AcDbEntity
100
AcDbBlockBegin
2
*MODEL_SPACE
0
ENDBLK
5
21
100
AcDbEntity
100
AcDbBlockEnd
0
BLOCK
5
1C
100
AcDbEntity
100
AcDbBlockBegin
2
*PAPER_SPACE
0
ENDBLK
5
1D
100
AcDbEntity
100
AcDbBlockEnd
0
ENDSEC
0
SECTION
2
ENTITIES
0
LWPOLYLINE
5
100
100
AcDbEntity
8
0
100
AcDbPolyline
90
59
70
1
43
0.0
10
-4.250971706928417
20
208.54624791834095
10
29.508733395188379
20
208.54624791834095
42
-0.38088359913769382
10
32.488876153937909
20
205.89084788565486
10
35.536619818602574
20
179.53358707807948
42
-0.40715527526193535
10
32.972965229031892
20
176.218038170623
10
-24.4203579580956
20
168.17224520046494
42
-0.42130725383359735
10
-27.816988886023996
20
170.79859417329357
10
-31.79508395294647
20
205.20164795102701
42
-0.44834800069239672
10
-28.814941194196937
20
208.54624791834095
10
-18.3764452910467
20
208.54624791834095
42
-0.27726406036231993
10
-15.727918994024515
20
206.95525766067135
42
-0.42901715054402312
10
-13.437251738379288
20
213.83025766067135
42
-0.11010170086567841
10
-14.711377682014303
20
213.54624791834095
10
-34.69848480983179
20
213.5462479183409
42
-0.19891236737965337
10
-38.234018715764464
20
215.01071401240813
10
-33.234018715764869
20
210.0107140124087
10
-41.342857731273796
20
201.90187499690592
42
-0.62732354013015545
10
-36.241394628964628
20
200.12515462066017
10
-32.75336248497927
20
169.96022507290448
42
-0.40715527526193451
10
-35.317017074549938
20
166.644676165448
10
-74.456874694292196
20
161.15778023744681
42
-0.7197652578876641
10
-76.99468320703069
20
166.25004952114895
10
-89.802561210691806
20
153.44217151748097
10
-78.488852711710308
20
142.12846301849979
42
-0.52931401265695466
10
-76.941333768185245
20
150.2517846820825
42
-0.25432199022767871
10
-79.79640386701675
20
150.50708198567139
42
-0.61893879778876382
10
-78.091571796901945
20
155.59935137363954
10
-34.886091390013583
20
161.65619442133416
42
-0.42130725383359735
10
-31.489460462085187
20
159.02984544850554
10
-24.19404294428665
20
95.938180474795388
42
-0.2679491924311232
10
-19.227138346370769
20
96.51251375365193
10
-26.553086863129924
20
159.86821454889466
42
-0.40715527526193418
10
-23.989432273559256
20
163.18376345635113
10
33.403890913568276
20
171.22955642650913
42
-0.42130725383359685
10
36.800521841496661
20
168.60320745368054
10
37.937189375300036
20
158.77316728747277
42
-0.12093185118701032
10
37.758056712040066
20
157.3541640229908
42
-0.42277721118018485
10
44.352378448629615
20
160.17766930484615
42
-0.27145158695677313
10
42.527818636344264
20
162.60157580381349
10
41.736895440451953
20
169.44157655406968
42
-0.40715527526193529
10
44.300550030022627
20
172.75712546152616
10
53.243671258688366
20
174.01083404498397
42
-0.71976525788766232
10
55.781479771426874
20
168.9185647612818
10
47.670451112039942
20
160.80753610189487
42
-0.30561468458069374
10
44.378109306996166
20
160.16684472630055
42
-0.53184551584781936
10
45.961940777122059
20
152.0279579551113
10
68.589357775091457
20
174.65537495308084
10
58.583200535678856
20
184.66153219249338
42
-0.61893878079360254
10
56.878368361298044
20
179.56926290879122
10
43.869624345486244
20
177.74560720564006
42
-0.42130725383359729
10
40.472993417557852
20
180.37195617846862
10
38.533641692762806
20
197.14370762222671
42
-0.7106363084937497
10
43.635104795071982
20
199.60962793310028
10
33.234018715764023
20
210.01071401240822
10
38.234018715764044
20
215.01071401240822
42
-0.19891236737965673
10
34.698484809831307
20
213.54624791834095
10
-7.9160393159608153
20
213.54624791834095
42
-0.11010170086567886
10
-9.1901652595958296
20
213.83025766067138
42
-0.42901715054401612
10
-6.8994980039505993
20
206.95525766067135
42
-0.27726406036232015
0
LWPOLYLINE
5
101
100
AcDbEntity
8
0
100
AcDbPolyline
90
8
70
1
43
0.0
10
-79.903066274075499
20
147.78531726798352
42
0.41421356237306556
10
-79.903066274075258
20
143.54267658086451
10
-23.334523779159746
20
86.974134085948947
42
0.41421356237310053
10
-19.091883092040458
20
86.974134085948947
10
47.376154339495045
20
153.44217151748444
42
0.41421356237309198
10
47.376154339495059
20
157.6848122046037
10
-9.1923881554278708
20
214.25335469952785
42
0.414213562373135
10
-13.435028842547442
20
214.25335469952762
0
CIRCLE
5
102
100
AcDbEntity
8
0
100
AcDbCircle
10
-21.213203435600079
20
91.923881554254777
30
0
40
1.6000000000000014
210
0
220
0
230
1
0
CIRCLE
5
103
100
AcDbEntity
8
0
100
AcDbCircle
10
-11.313708498987438
20
209.30360723122206
30
0
40
1.6000000000000014
210
0
220
0
230
1
0
CIRCLE
5
104
100
AcDbEntity
8
0
100
AcDbCircle
10
42.426406871189315
20
155.56349186104396
30
0
40
1.6000000000000014
210
0
220
0
230
1
0
CIRCLE
5
105
100
AcDbEntity
8
0
100
AcDbCircle
10
-74.953318805777556
20
145.66399692443252
30
0
40
1.6000000000000014
210
0
220
0
230
1
0
LWPOLYLINE
5
106
100
AcDbEntity
8
0
100
AcDbPolyline
90
6
70
1
43
0.0
10
-76.99468320703069
20
166.25004952114895
42
0.71976525788766055
10
-74.456874694292196
20
161.15778023744679
10
-35.317017074549938
20
166.644676165448
42
0.40715527526192935
10
-32.753362484979249
20
169.96022507290448
10
-36.241394628964628
20
200.12515462066017
42
0.62732354013016256
10
-41.342857731273803
20
201.90187499690592
0
LWPOLYLINE
5
107
100
AcDbEntity
8
0
100
AcDbPolyline
90
6
70
1
43
0.0
10
40.472993417557852
20
180.37195617846862
42
0.42130725383359502
10
43.869624345486244
20
177.74560720564
10
56.878368361298058
20
179.56926290879119
42
0.61893878079359932
10
58.583200535678841
20
184.66153219249338
10
43.635104795071975
20
199.60962793310028
42
0.7106363084937497
10
38.533641692762792
20
197.14370762222671
0
LWPOLYLINE
5
108
100
AcDbEntity
8
0
100
AcDbPolyline
90
8
70
1
43
0.0
10
44.300550030022627
20
172.75712546152616
42
0.40715527526193351
10
41.73689544045196
20
169.44157655406968
10
42.527818636344257
20
162.60157580381349
42
0.27145158695678079
10
44.352378448629736
20
160.17766930484612
42
-0.0013957539263059582
10
44.378109306996187
20
160.16684472630058
42
0.30561468458069374
10
47.670451112039942
20
160.80753610189487
10
55.781479771426874
20
168.9185647612818
42
0.71976525788765855
10
53.243671258688387
20
174.01083404498397
0
LWPOLYLINE
5
109
100
AcDbEntity
8
0
100
AcDbPolyline
90
10
70
1
43
0.0
10
-17.677669529667355
20
95.459415460187515
42
0.094509931499737271
10
-19.227138346370776
20
96.512513753651945
10
-26.553086863129952
20
159.86821454889463
42
-0.40715527526192896
10
-23.989432273559256
20
163.18376345635113
10
33.403890913568276
20
171.22955642650913
42
-0.42130725383358475
10
36.800521841496654
20
168.60320745368054
10
37.937189375300036
20
158.77316728747277
42
-0.12093185118701302
10
37.758056712040073
20
157.3541640229908
42
0.19420532954642844
10
37.823054005932789
20
153.61178942523716
42
-0.30561468458069246
10
37.182362630338517
20
150.31944762019342
0
LWPOLYLINE
5
110
100
AcDbEntity
8
0
100
AcDbPolyline
90
9
70
1
43
0.0
10
-31.489460462085187
20
159.02984544850554
42
0.4213072538335923
10
-34.886091390013576
20
161.65619442133416
10
-78.091571796901945
20
155.59935137363954
42
0.61893878079360154
10
-79.7964039712827
20
150.50708208993737
42
0.25432199022767848
10
-76.941333768185245
20
150.2517846820825
42
-0.67707700547662719
10
-70.349965940521116
20
143.71229448862545
42
0.30561468458070962
10
-69.709274564926901
20
140.41995268358156
10
-24.74873734153288
20
95.459415460187472
42
-0.036686100437525501
10
-24.194042944286647
20
95.938180474795374
0
LWPOLYLINE
5
111
100
AcDbEntity
8
0
100
AcDbPolyline
90
22
70
1
43
0.0
10
-24.748737341528173
20
88.38834764832653
42
0.41421356237346729
10
-17.677669529662772
20
88.388347648326615
10
74.246212024583812
20
180.31222920257321
10
60.104076400852861
20
194.45436482630413
42
-0.29821662669860555
10
54.742385708089273
20
195.57341483194844
10
54.152058594631654
20
196.16374194540606
42
-0.29821662669860716
10
53.033008588987379
20
201.52543263816963
10
38.890872965256413
20
215.66756826190058
10
38.234018715764051
20
215.01071401240822
42
-0.19891236737965812
10
34.698484809831307
20
213.54624791834095
10
-7.91603931596081
20
213.54624791834095
42
-0.11010170086569088
10
-9.1901652595958456
20
213.83025766067135
42
0.2229055485049915
10
-13.437251738379263
20
213.83025766067132
42
-0.11010170086569335
10
-14.711377682014303
20
213.54624791834095
10
-34.69848480983179
20
213.54624791834095
42
-0.19891236737965706
10
-38.234018715764478
20
215.01071401240813
10
-38.8908729652575
20
215.66756826190115
10
-53.033008588988217
20
201.52543263817017
42
-0.29821662669835552
10
-54.152058594634205
20
196.16374194541089
10
-75.955589143691242
20
174.36021139635409
42
-0.29821662669833976
10
-81.317279836450069
20
173.24116139070804
10
-95.459415460180963
20
159.09902576697698
0
LWPOLYLINE
5
112
100
AcDbEntity
8
0
100
AcDbPolyline
90
12
70
1
43
0.0
10
-18.3764452910467
20
208.54624791834095
10
-28.814941194196937
20
208.54624791834095
42
0.44834800069239722
10
-31.795083952946474
20
205.20164795102701
10
-27.816988886023992
20
170.79859417329357
42
0.42130725383358475
10
-24.420357958095611
20
168.17224520046494
10
32.972965229031892
20
176.218038170623
42
0.40715527526194006
10
35.536619818602539
20
179.53358707807948
10
32.488876153937909
20
205.89084788565486
42
0.3808835991376931
10
29.508733395188379
20
208.54624791834095
10
-4.250971706928417
20
208.54624791834095
42
0.27726406036231144
10
-6.8994980039505913
20
206.95525766067135
42
-0.60070774432498464
10
-15.72791899402452
20
206.95525766067135
42
0.27726406036231205
0
CIRCLE
5
113
100
AcDbEntity
8
0
100
AcDbCircle
10
-11.313708498987559
20
209.30360723122203
30
0
40
2.3500000000000032
210
0
220
-0
230
1
0
CIRCLE
5
114
100
AcDbEntity
8
0
100
AcDbCircle
10
42.426406871189329
20
155.56349186104404
30
0
40
2.3500000000000032
210
0
220
-0
230
1
0
CIRCLE
5
115
100
AcDbEntity
8
0
100
AcDbCircle
10
-74.953318805777556
20
145.66399692443252
30
0
40
2.3500000000000032
210
0
220
-0
230
1
0
CIRCLE
5
116
100
AcDbEntity
8
0
100
AcDbCircle
10
-21.2132034356001
20
91.923881554254777
30
0
40
2.3500000000000032
210
0
220
-0
230
1
0
ENDSEC
0
SECTION
2
OBJECTS
0
DICTIONARY
5
C
100
AcDbDictionary
3
ACAD_GROUP
350
D
3
ACAD_MLINESTYLE
350
17
0
DICTIONARY
5
D
100
AcDbDictionary
0
DICTIONARY
5
1A
330
C
100
AcDbDictionary
0
DICTIONARY
5
17
100
AcDbDictionary
0
ENDSEC
0
EOF
