0
SECTION
2
HEADER
9
$INSUNITS
70
4
9
$ACADVER
1
AC1014
9
$HANDSEED
5
FFFF
0
ENDSEC
0
SECTION
2
TABLES
0
TABLE
2
VPORT
5
8
100
AcDbSymbolTable
0
ENDTAB
0
TABLE
2
LTYPE
5
5
100
AcDbSymbolTable
0
LTYPE
5
14
100
AcDbSymbolTableRecord
100
AcDbLinetypeTableRecord
2
BYBLOCK
70
0
0
LTYPE
5
15
100
AcDbSymbolTableRecord
100
AcDbLinetypeTableRecord
2
BYLAYER
70
0
0
ENDTAB
0
TABLE
2
LAYER
5
2
100
AcDbSymbolTable
70
2
0
LAYER
5
50
100
AcDbSymbolTableRecord
100
AcDbLayerTableRecord
2
0
70
0
6
CONTINUOUS
0
ENDTAB
0
TABLE
2
STYLE
5
3
100
AcDbSymbolTable
70
1
0
STYLE
5
11
100
AcDbSymbolTableRecord
100
AcDbTextStyleTableRecord
2
STANDARD
70
0
0
ENDTAB
0
TABLE
2
VIEW
5
6
100
AcDbSymbolTable
70
0
0
ENDTAB
0
TABLE
2
UCS
5
7
100
AcDbSymbolTable
70
0
0
ENDTAB
0
TABLE
2
APPID
5
9
100
AcDbSymbolTable
70
2
0
APPID
5
12
100
AcDbSymbolTableRecord
100
AcDbRegAppTableRecord
2
ACAD
70
0
0
ENDTAB
0
TABLE
2
DIMSTYLE
5
A
100
AcDbSymbolTable
70
1
0
ENDTAB
0
TABLE
2
BLOCK_RECORD
5
1
100
AcDbSymbolTable
70
1
0
BLOCK_RECORD
5
1F
100
AcDbSymbolTableRecord
100
AcDbBlockTableRecord
2
*MODEL_SPACE
0
BLOCK_RECORD
5
1B
100
AcDbSymbolTableRecord
100
AcDbBlockTableRecord
2
*PAPER_SPACE
0
ENDTAB
0
ENDSEC
0
SECTION
2
BLOCKS
0
BLOCK
5
20
100
AcDbEntity
100
AcDbBlockBegin
2
*MODEL_SPACE
0
ENDBLK
5
21
100
AcDbEntity
100
AcDbBlockEnd
0
BLOCK
5
1C
100
AcDbEntity
100
AcDbBlockBegin
2
*PAPER_SPACE
0
ENDBLK
5
1D
100
AcDbEntity
100
AcDbBlockEnd
0
ENDSEC
0
SECTION
2
ENTITIES
0
CIRCLE
5
100
100
AcDbEntity
8
0
100
AcDbCircle
10
-14.142135623734609
20
84.852813742389301
30
0
40
1.6000000000000014
210
0
220
0
230
1
0
CIRCLE
5
101
100
AcDbEntity
8
0
100
AcDbCircle
10
49.497474683054818
20
148.49242404917842
30
0
40
1.6000000000000014
210
0
220
0
230
1
0
CIRCLE
5
102
100
AcDbEntity
8
0
100
AcDbCircle
10
-6.3639610306822334
20
204.35385976291582
30
0
40
1.6000000000000014
210
0
220
0
230
1
0
CIRCLE
5
103
100
AcDbEntity
8
0
100
AcDbCircle
10
-77.781745930523797
20
148.49242404917862
30
0
40
1.6000000000000014
210
0
220
0
230
1
0
LWPOLYLINE
5
104
100
AcDbEntity
8
0
100
AcDbPolyline
90
10
70
1
43
0.0
10
-20.677669529667234
20
211.42492757478124
42
0.198912367379664
10
-22.798989873226859
20
210.54624791834087
10
-82.731493398829699
20
150.61374439273817
42
0.41421356237309381
10
-82.731493398829713
20
146.37110370561888
10
-16.263455967294263
20
79.903066274083457
42
0.41421356237309737
10
-12.020815280174972
20
79.903066274083457
10
54.447222151360478
20
146.37110370561894
42
0.4142135623730932
10
54.447222151360492
20
150.61374439273823
10
-5.4852813742421702
20
210.54624791834098
42
0.19891236737965898
10
-7.6066017178018539
20
211.42492757478135
0
LWPOLYLINE
5
105
100
AcDbEntity
8
0
100
AcDbPolyline
90
18
70
1
43
0.0
10
-17.677669529662591
20
81.317279836461225
42
0.4142135623730922
10
-10.606601717797144
20
81.31727983646131
10
81.317279836449288
20
173.24116139070776
10
67.175144212718337
20
187.38329701443865
42
-0.29821662669860566
10
61.813453519954749
20
188.50234702008296
10
54.152058594631654
20
196.16374194540606
42
-0.29821662669860716
10
53.033008588987379
20
201.52543263816963
10
38.890872965256413
20
215.66756826190058
10
38.234018715764044
20
215.01071401240822
42
-0.19891236737965859
10
34.698484809831299
20
213.54624791834095
10
-34.69848480983179
20
213.54624791834095
42
-0.19891236737965706
10
-38.234018715764478
20
215.01071401240813
10
-38.8908729652575
20
215.66756826190115
10
-53.033008588988217
20
201.52543263817017
42
-0.29821662669835552
10
-54.152058594634205
20
196.16374194541089
10
-75.955589143691242
20
174.36021139635409
42
-0.29821662669833976
10
-81.317279836450069
20
173.24116139070804
10
-95.459415460180963
20
159.09902576697698
0
CIRCLE
5
106
100
AcDbEntity
8
0
100
AcDbCircle
10
-14.142135623729914
20
84.852813742394034
30
0
40
2.3500000000000032
210
0
220
-0
230
1
0
CIRCLE
5
107
100
AcDbEntity
8
0
100
AcDbCircle
10
-77.781745930523812
20
148.49242404917879
30
0
40
2.3500000000000032
210
0
220
-0
230
1
0
LWPOLYLINE
5
108
100
AcDbEntity
8
0
100
AcDbPolyline
90
2
70
1
43
0.0
10
47.383613469715968
20
147.46573482125126
42
6.9096483171317393
10
47.165163089211561
20
148.78021325888642
0
CIRCLE
5
109
100
AcDbEntity
8
0
100
AcDbCircle
10
-6.3639610306821659
20
204.35385976291593
30
0
40
2.3500000000000032
210
0
220
-0
230
1
0
LWPOLYLINE
5
110
100
AcDbEntity
8
0
100
AcDbPolyline
90
5
70
1
43
0.0
10
-10.60660171780189
20
88.388347648322025
10
43.192263982871225
20
142.18721334899521
10
39.288369464006713
20
165.67806356404469
10
-24.099462852164283
20
160.01843567867226
10
-12.385838126767615
20
89.5342044654695
42
-0.10702640915141189
0
LWPOLYLINE
5
111
100
AcDbEntity
8
0
100
AcDbPolyline
90
6
70
1
43
0.0
10
-17.318190166479766
20
88.71450735290631
42
0.024283920850113192
10
-17.677669529667384
20
88.388347648322011
10
-74.246212024591131
20
144.9568901432458
42
0.99999999999999989
10
-81.317279836456621
20
152.02795795511128
10
-83.962815370849285
20
154.67349348950393
10
-29.093929700196455
20
159.57250113866937
0
LWPOLYLINE
5
112
100
AcDbEntity
8
0
100
AcDbPolyline
90
3
70
1
43
0.0
10
37.737883986622059
20
205.50684874155021
10
43.460789107945381
20
171.07049131685014
10
69.820679747110873
20
173.42405298106138
0
LWPOLYLINE
5
113
100
AcDbEntity
8
0
100
AcDbPolyline
90
8
70
1
43
0.0
10
-11.363961030682345
20
208.54624791834095
10
-32.164196928649879
20
208.54624791834095
10
-24.921510056257784
20
164.96492889147481
10
38.46632225991322
20
170.62455677684727
10
32.16419692864249
20
208.54624791834095
10
-1.3639610306822281
20
208.54624791834095
10
-1.3639610306821037
20
204.35385976291622
42
-0.99999999999999989
10
-11.363961030682228
20
204.35385976291565
0
LWPOLYLINE
5
114
100
AcDbEntity
8
0
100
AcDbPolyline
90
4
70
1
43
0.0
10
53.033008588987386
20
152.02795795511136
42
0.37003630533926207
10
46.54267108879904
20
152.52592571886612
10
44.282836312038867
20
166.12399810404756
10
69.368873485559305
20
168.3638228516833
0
LWPOLYLINE
5
115
100
AcDbEntity
8
0
100
AcDbPolyline
90
3
70
1
43
0.0
10
-36.871623402552856
20
206.37310932562679
10
-83.51100910929766
20
159.73372361888198
10
-29.915976904289945
20
164.51899435147197
0
LWPOLYLINE
5
116
100
AcDbEntity
8
0
100
AcDbPolyline
90
6
70
1
43
0.0
10
-10.60660171780189
20
88.388347648322025
42
0.10702640915127193
10
-12.385838126767396
20
89.534204465470069
42
0.26794919243112381
10
-17.318190166479773
20
88.71450735290631
42
0.024283920850110902
10
-17.67766952966738
20
88.388347648322011
42
0.41421356237309304
10
-17.677669529667359
20
81.317279836456578
42
0.41421356237348844
10
-10.606601717797144
20
81.31727983646131
42
0.41421356237270174
0
CIRCLE
5
117
100
AcDbEntity
8
0
100
AcDbCircle
10
-14.142135623734625
20
84.852813742389301
30
0
40
5
210
0
220
-0
230
1
0
LWPOLYLINE
5
118
100
AcDbEntity
8
0
100
AcDbPolyline
90
2
70
1
43
0.0
10
-1.363961030682227
20
204.35385976291576
42
0.99999999999999989
10
-11.363961030682228
20
204.35385976291565
42
0.99999999999999989
0
CIRCLE
5
119
100
AcDbEntity
8
0
100
AcDbCircle
10
-6.3639610306822272
20
204.35385976291576
30
0
40
5
210
0
220
-0
230
1
0
LINE
5
120
100
AcDbEntity
8
0
100
AcDbLine
10
3.2203882954825769
20
201.84057824861623
30
0
11
-10.155480935918469
21
188.4647090172152
31
0
0
LINE
5
121
100
AcDbEntity
8
0
100
AcDbLine
10
-10.155480935918469
20
188.4647090172152
30
0
11
10.207757448339915
21
168.10147063295682
31
0
0
LINE
5
122
100
AcDbEntity
8
0
100
AcDbLine
10
10.207757448339915
20
168.10147063295682
30
0
11
23.583626679740938
21
181.47733986435782
31
0
0
LWPOLYLINE
5
123
100
AcDbEntity
8
0
100
AcDbPolyline
90
4
70
1
43
0.0
10
2.3261776090975417
20
190.22053805412605
10
5.6232630314474097
20
186.92345263177617
10
7.8048326629477573
20
189.10502226327651
10
4.5077472405978893
20
192.40210768562636
0
LINE
5
124
100
AcDbEntity
8
0
100
AcDbLine
10
4.9804596026838759
20
191.45095968284443
30
0
11
4.7880069244559289
21
191.18326234133713
31
0
0
SPLINE
5
125
100
AcDbEntity
8
0
100
AcDbSpline
70
0
71
2
72
6
73
3
74
0
42
0.000000001
43
0.0000000001
44
0.0000000001
40
0
40
0
40
0
40
1
40
1
40
1
10
4.7880069244559289
20
191.18326234133713
30
0
10
4.6548817306987367
20
191.27008311071205
30
0
10
4.5680610140073572
20
191.35690382740341
30
0
0
SPLINE
5
126
100
AcDbEntity
8
0
100
AcDbSpline
70
0
71
2
72
6
73
3
74
0
42
0.000000001
43
0.0000000001
44
0.0000000001
40
0
40
0
40
0
40
1
40
1
40
1
10
4.5680610140073572
20
191.35690382740341
30
0
10
4.4262537801911623
20
191.49871106121964
30
0
10
4.3929724949227555
20
191.62170718189955
30
0
0
SPLINE
5
127
100
AcDbEntity
8
0
100
AcDbSpline
70
0
71
2
72
6
73
3
74
0
42
0.000000001
43
0.0000000001
44
0.0000000001
40
0
40
0
40
0
40
1
40
1
40
1
10
4.3929724949227555
20
191.62170718189955
30
0
10
4.3596912359961282
20
191.74470327623766
30
0
10
4.4009310579852876
20
191.84961165541065
30
0
0
SPLINE
5
128
100
AcDbEntity
8
0
100
AcDbSpline
70
0
71
2
72
6
73
3
74
0
42
0.000000001
43
0.0000000001
44
0.0000000001
40
0
40
0
40
0
40
1
40
1
40
1
10
4.4009310579852876
20
191.84961165541065
30
0
10
4.4421709063162274
20
191.95452000824184
30
0
10
4.6765869362133632
20
192.18893603813896
30
0
0
LINE
5
129
100
AcDbEntity
8
0
100
AcDbLine
10
4.6765869362133632
20
192.18893603813896
30
0
11
5.5607115980371544
21
193.07306069996275
31
0
0
LINE
5
130
100
AcDbEntity
8
0
100
AcDbLine
10
5.5607115980371544
20
193.07306069996275
30
0
11
5.3697059264857092
21
193.26406637151422
31
0
0
LINE
5
131
100
AcDbEntity
8
0
100
AcDbLine
10
5.3697059264857092
20
193.26406637151419
30
0
11
5.5722877041327177
21
193.46664814916119
31
0
0
LINE
5
132
100
AcDbEntity
8
0
100
AcDbLine
10
5.5722877041327177
20
193.46664814916122
30
0
11
5.7632933756841629
21
193.27564247760975
31
0
0
LINE
5
133
100
AcDbEntity
8
0
100
AcDbLine
10
5.7632933756841629
20
193.27564247760975
30
0
11
6.1438578174776755
21
193.65620691940325
31
0
0
LINE
5
134
100
AcDbEntity
8
0
100
AcDbLine
10
6.1438578174776755
20
193.65620691940325
30
0
11
6.559150419507195
21
193.55346902390323
31
0
0
LINE
5
135
100
AcDbEntity
8
0
100
AcDbLine
10
6.559150419507195
20
193.55346902390326
30
0
11
6.0223086244489243
21
193.01662722884501
31
0
0
LINE
5
136
100
AcDbEntity
8
0
100
AcDbLine
10
6.0223086244489243
20
193.01662722884501
30
0
11
6.2842178865666867
21
192.75471796672724
31
0
0
LINE
5
137
100
AcDbEntity
8
0
100
AcDbLine
10
6.2842178865666867
20
192.75471796672721
30
0
11
6.0816361089196782
21
192.55213618908022
31
0
0
LINE
5
138
100
AcDbEntity
8
0
100
AcDbLine
10
6.0816361089196782
20
192.55213618908022
30
0
11
5.8197268468019159
21
192.81404545119798
31
0
0
LINE
5
139
100
AcDbEntity
8
0
100
AcDbLine
10
5.8197268468019159
20
192.81404545119798
30
0
11
4.921132118213122
21
191.91545072260919
31
0
0
SPLINE
5
140
100
AcDbEntity
8
0
100
AcDbSpline
70
0
71
2
72
6
73
3
74
0
42
0.000000001
43
0.0000000001
44
0.0000000001
40
0
40
0
40
0
40
1
40
1
40
1
10
4.921132118213122
20
191.91545072260919
30
0
10
4.8097121299705554
20
191.80403073436665
30
0
10
4.7916244411471807
20
191.75844981332264
30
0
0
SPLINE
5
141
100
AcDbEntity
8
0
100
AcDbSpline
70
0
71
2
72
6
73
3
74
0
42
0.000000001
43
0.0000000001
44
0.0000000001
40
0
40
0
40
0
40
1
40
1
40
1
10
4.7916244411471807
20
191.75844981332264
30
0
10
4.7735368050073665
20
191.7128689449622
30
0
10
4.7858363617576183
20
191.66294700388869
30
0
0
SPLINE
5
142
100
AcDbEntity
8
0
100
AcDbSpline
70
0
71
2
72
6
73
3
74
0
42
0.000000001
43
0.0000000001
44
0.0000000001
40
0
40
0
40
0
40
1
40
1
40
1
10
4.7858363617576183
20
191.66294700388869
30
0
10
4.7981360238749922
20
191.61302506281518
30
0
10
4.8560165016692451
20
191.55514458502094
30
0
0
SPLINE
5
143
100
AcDbEntity
8
0
100
AcDbSpline
70
0
71
2
72
6
73
3
74
0
42
0.000000001
43
0.0000000001
44
0.0000000001
40
0
40
0
40
0
40
1
40
1
40
1
10
4.8560165016692451
20
191.55514458502094
30
0
10
4.8994268600149358
20
191.51173422667526
30
0
10
4.9804596026838759
20
191.45095968284443
30
0
0
SPLINE
5
144
100
AcDbEntity
8
0
100
AcDbSpline
70
0
71
2
72
6
73
3
74
0
42
0.000000001
43
0.0000000001
44
0.0000000001
40
0
40
0
40
0
40
1
40
1
40
1
10
5.6735785402726595
20
191.82863000591783
30
0
10
6.1004472483977423
20
192.25549871404291
30
0
10
6.5432330826478866
20
192.22366446179277
30
0
0
SPLINE
5
145
100
AcDbEntity
8
0
100
AcDbSpline
70
0
71
2
72
6
73
3
74
0
42
0.000000001
43
0.0000000001
44
0.0000000001
40
0
40
0
40
0
40
1
40
1
40
1
10
6.5432330826478866
20
192.22366446179277
30
0
10
6.9122213656622753
20
192.19617122957214
30
0
10
7.1972828399711632
20
191.91110975526325
30
0
0
SPLINE
5
146
100
AcDbEntity
8
0
100
AcDbSpline
70
0
71
2
72
6
73
3
74
0
42
0.000000001
43
0.0000000001
44
0.0000000001
40
0
40
0
40
0
40
1
40
1
40
1
10
7.1972828399711632
20
191.91110975526325
30
0
10
7.5141784611630573
20
191.59421413407136
30
0
10
7.5076669838023662
20
191.18543290403539
30
0
0
SPLINE
5
147
100
AcDbEntity
8
0
100
AcDbSpline
70
0
71
2
72
6
73
3
74
0
42
0.000000001
43
0.0000000001
44
0.0000000001
40
0
40
0
40
0
40
1
40
1
40
1
10
7.5076669838023662
20
191.18543290403539
30
0
10
7.5011554010745529
20
190.77665199010085
30
0
10
7.1350611314131651
20
190.41055772043944
30
0
0
SPLINE
5
148
100
AcDbEntity
8
0
100
AcDbSpline
70
0
71
2
72
6
73
3
74
0
42
0.000000001
43
0.0000000001
44
0.0000000001
40
0
40
0
40
0
40
1
40
1
40
1
10
7.1350611314131651
20
190.41055772043944
30
0
10
6.8384236036922736
20
190.11392019271855
30
0
10
6.5794084602946334
20
190.03288739736607
30
0
0
SPLINE
5
149
100
AcDbEntity
8
0
100
AcDbSpline
70
0
71
2
72
6
73
3
74
0
42
0.000000001
43
0.0000000001
44
0.0000000001
40
0
40
0
40
0
40
1
40
1
40
1
10
6.5794084602946334
20
190.03288739736607
30
0
10
6.3203931061627507
20
189.9518548127478
30
0
10
6.0563132813466778
20
190.02782292668186
30
0
0
SPLINE
5
150
100
AcDbEntity
8
0
100
AcDbSpline
70
0
71
2
72
6
73
3
74
0
42
0.000000001
43
0.0000000001
44
0.0000000001
40
0
40
0
40
0
40
1
40
1
40
1
10
6.0563132813466778
20
190.02782292668186
30
0
10
5.7922335618977261
20
190.10379114598305
30
0
10
5.5910988962943389
20
190.30492581158643
30
0
0
SPLINE
5
151
100
AcDbEntity
8
0
100
AcDbSpline
70
0
71
2
72
6
73
3
74
0
42
0.000000001
43
0.0000000001
44
0.0000000001
40
0
40
0
40
0
40
1
40
1
40
1
10
5.5910988962943389
20
190.30492581158643
30
0
10
5.2684150376622014
20
190.62760967021859
30
0
10
5.2763736270665138
20
191.03349667616729
30
0
0
SPLINE
5
152
100
AcDbEntity
8
0
100
AcDbSpline
70
0
71
2
72
6
73
3
74
0
42
0.000000001
43
0.0000000001
44
0.0000000001
40
0
40
0
40
0
40
1
40
1
40
1
10
5.2763736270665138
20
191.03349667616729
30
0
10
5.2843322164708271
20
191.43938368211599
30
0
10
5.6735785402726595
20
191.82863000591783
30
0
0
SPLINE
5
153
100
AcDbEntity
8
0
100
AcDbSpline
70
0
71
2
72
6
73
3
74
0
42
0.000000001
43
0.0000000001
44
0.0000000001
40
0
40
0
40
0
40
1
40
1
40
1
10
5.9412758290964227
20
191.56093271709406
30
0
10
5.6460852553684715
20
191.26574214336611
30
0
10
5.6279976192286574
20
190.99008626513805
30
0
0
SPLINE
5
154
100
AcDbEntity
8
0
100
AcDbSpline
70
0
71
2
72
6
73
3
74
0
42
0.000000001
43
0.0000000001
44
0.0000000001
40
0
40
0
40
0
40
1
40
1
40
1
10
5.6279976192286574
20
190.99008626513805
30
0
10
5.6099099830888433
20
190.71443038690998
30
0
10
5.8052567273533491
20
190.51908364264546
30
0
0
SPLINE
5
155
100
AcDbEntity
8
0
100
AcDbSpline
70
0
71
2
72
6
73
3
74
0
42
0.000000001
43
0.0000000001
44
0.0000000001
40
0
40
0
40
0
40
1
40
1
40
1
10
5.8052567273533491
20
190.51908364264546
30
0
10
5.9991564649413567
20
190.32518390505746
30
0
10
6.2755356884570004
20
190.34399530795329
30
0
0
SPLINE
5
156
100
AcDbEntity
8
0
100
AcDbSpline
70
0
71
2
72
6
73
3
74
0
42
0.000000001
43
0.0000000001
44
0.0000000001
40
0
40
0
40
0
40
1
40
1
40
1
10
6.2755356884570004
20
190.34399530795329
30
0
10
6.5519152280740078
20
190.36280618401355
30
0
10
6.8543408351844608
20
190.66523179112403
30
0
0
SPLINE
5
157
100
AcDbEntity
8
0
100
AcDbSpline
70
0
71
2
72
6
73
3
74
0
42
0.000000001
43
0.0000000001
44
0.0000000001
40
0
40
0
40
0
40
1
40
1
40
1
10
6.8543408351844608
20
190.66523179112403
30
0
10
7.1394023621769085
20
190.95029331811648
30
0
10
7.1567665476620332
20
191.22667264699925
30
0
0
SPLINE
5
158
100
AcDbEntity
8
0
100
AcDbSpline
70
0
71
2
72
6
73
3
74
0
42
0.000000001
43
0.0000000001
44
0.0000000001
40
0
40
0
40
0
40
1
40
1
40
1
10
7.1567665476620332
20
191.22667264699925
30
0
10
7.1741305224129164
20
191.50305218661626
30
0
10
6.9816778968685309
20
191.69550481216064
30
0
0
SPLINE
5
159
100
AcDbEntity
8
0
100
AcDbSpline
70
0
71
2
72
6
73
3
74
0
42
0.000000001
43
0.0000000001
44
0.0000000001
40
0
40
0
40
0
40
1
40
1
40
1
10
6.9816778968685309
20
191.69550481216064
30
0
10
6.7863311526040242
20
191.89085155642513
30
0
10
6.5113988303977592
20
191.87348747630716
30
0
0
SPLINE
5
160
100
AcDbEntity
8
0
100
AcDbSpline
70
0
71
2
72
6
73
3
74
0
42
0.000000001
43
0.0000000001
44
0.0000000001
40
0
40
0
40
0
40
1
40
1
40
1
10
6.5113988303977592
20
191.87348747630716
30
0
10
6.236466402824373
20
191.85612329082201
30
0
10
5.9412758290964227
20
191.56093271709406
30
0
0
LINE
5
161
100
AcDbEntity
8
0
100
AcDbLine
10
0.88975496167442603
20
188.45419654103009
30
0
11
3.0110753895277735
21
190.57551696888342
31
0
0
LINE
5
162
100
AcDbEntity
8
0
100
AcDbLine
10
3.0110753895277735
20
190.57551696888342
30
0
11
3.8069322884710122
21
189.77966006994021
31
0
0
SPLINE
5
163
100
AcDbEntity
8
0
100
AcDbSpline
70
0
71
2
72
6
73
3
74
0
42
0.000000001
43
0.0000000001
44
0.0000000001
40
0
40
0
40
0
40
1
40
1
40
1
10
3.8069322884710122
20
189.77966006994021
30
0
10
4.0500303584271489
20
189.53656199998406
30
0
10
4.1325099497219071
20
189.32529807691094
30
0
0
SPLINE
5
164
100
AcDbEntity
8
0
100
AcDbSpline
70
0
71
2
72
6
73
3
74
0
42
0.000000001
43
0.0000000001
44
0.0000000001
40
0
40
0
40
0
40
1
40
1
40
1
10
4.1325099497219071
20
189.32529807691094
30
0
10
4.214989751750907
20
189.11403436457203
30
0
10
4.1643443073391548
20
188.89698241479292
30
0
0
SPLINE
5
165
100
AcDbEntity
8
0
100
AcDbSpline
70
0
71
2
72
6
73
3
74
0
42
0.000000001
43
0.0000000001
44
0.0000000001
40
0
40
0
40
0
40
1
40
1
40
1
10
4.1643443073391548
20
188.89698241479292
30
0
10
4.1136988629274027
20
188.67993046501374
30
0
10
3.9675506617652689
20
188.53378226385163
30
0
0
SPLINE
5
166
100
AcDbEntity
8
0
100
AcDbSpline
70
0
71
2
72
6
73
3
74
0
42
0.000000001
43
0.0000000001
44
0.0000000001
40
0
40
0
40
0
40
1
40
1
40
1
10
3.9675506617652689
20
188.53378226385163
30
0
10
3.8315314019715152
20
188.39776300405788
30
0
10
3.637631664383508
20
188.35145857967564
30
0
0
SPLINE
5
167
100
AcDbEntity
8
0
100
AcDbSpline
70
0
71
2
72
6
73
3
74
0
42
0.000000001
43
0.0000000001
44
0.0000000001
40
0
40
0
40
0
40
1
40
1
40
1
10
3.637631664383508
20
188.35145857967564
30
0
10
3.4437319267955013
20
188.30515415529337
30
0
10
3.2208921610446106
20
188.380399029307
30
0
0
SPLINE
5
168
100
AcDbEntity
8
0
100
AcDbSpline
70
0
71
2
72
6
73
3
74
0
42
0.000000001
43
0.0000000001
44
0.0000000001
40
0
40
0
40
0
40
1
40
1
40
1
10
3.2208921610446106
20
188.380399029307
30
0
10
3.3569113154712427
20
188.13151272191064
30
0
10
3.3243536125664255
20
187.89203232669644
30
0
0
SPLINE
5
169
100
AcDbEntity
8
0
100
AcDbSpline
70
0
71
2
72
6
73
3
74
0
42
0.000000001
43
0.0000000001
44
0.0000000001
40
0
40
0
40
0
40
1
40
1
40
1
10
3.3243536125664255
20
187.89203232669644
30
0
10
3.2917959096616078
20
187.65255151001372
30
0
10
3.1065782121326024
20
187.46733381248472
30
0
0
SPLINE
5
170
100
AcDbEntity
8
0
100
AcDbSpline
70
0
71
2
72
6
73
3
74
0
42
0.000000001
43
0.0000000001
44
0.0000000001
40
0
40
0
40
0
40
1
40
1
40
1
10
3.1065782121326024
20
187.46733381248472
30
0
10
2.9575359976174678
20
187.31829159796959
30
0
10
2.7665301680153402
20
187.25317608679285
30
0
0
SPLINE
5
171
100
AcDbEntity
8
0
100
AcDbSpline
70
0
71
2
72
6
73
3
74
0
42
0.000000001
43
0.0000000001
44
0.0000000001
40
0
40
0
40
0
40
1
40
1
40
1
10
2.7665301680153402
20
187.25317608679285
30
0
10
2.575524443780334
20
187.18806047024896
30
0
10
2.4134592745438175
20
187.21121299854144
30
0
0
SPLINE
5
172
100
AcDbEntity
8
0
100
AcDbSpline
70
0
71
2
72
6
73
3
74
0
42
0.000000001
43
0.0000000001
44
0.0000000001
40
0
40
0
40
0
40
1
40
1
40
1
10
2.4134592745438175
20
187.21121299854144
30
0
10
2.251393789205939
20
187.23436499999835
30
0
10
2.0763052437795571
20
187.33854990217483
30
0
0
SPLINE
5
173
100
AcDbEntity
8
0
100
AcDbSpline
70
0
71
2
72
6
73
3
74
0
42
0.000000001
43
0.0000000001
44
0.0000000001
40
0
40
0
40
0
40
1
40
1
40
1
10
2.0763052437795571
20
187.33854990217483
30
0
10
1.9012166983531746
20
187.44273480435135
30
0
10
1.6986349207061668
20
187.64531658199837
30
0
0
LINE
5
174
100
AcDbEntity
8
0
100
AcDbLine
10
1.6986349207061668
20
187.64531658199837
30
0
11
0.88975496167442603
21
188.45419654103011
31
0
0
LINE
5
175
100
AcDbEntity
8
0
100
AcDbLine
10
2.4004358983539547
20
189.40343664817618
30
0
11
2.8591389114127237
21
188.94473363511742
31
0
0
SPLINE
5
176
100
AcDbEntity
8
0
100
AcDbSpline
70
0
71
2
72
6
73
3
74
0
42
0.000000001
43
0.0000000001
44
0.0000000001
40
0
40
0
40
0
40
1
40
1
40
1
10
2.8591389114127241
20
188.94473363511739
30
0
10
3.0458035102511078
20
188.75806903627904
30
0
10
3.151435629838355
20
188.70163577589551
30
0
0
SPLINE
5
177
100
AcDbEntity
8
0
100
AcDbSpline
70
0
71
2
72
6
73
3
74
0
42
0.000000001
43
0.0000000001
44
0.0000000001
40
0
40
0
40
0
40
1
40
1
40
1
10
3.151435629838355
20
188.70163577589551
30
0
10
3.2903486922508662
20
188.62639100724903
30
0
10
3.4184092572731863
20
188.64592575543244
30
0
0
SPLINE
5
178
100
AcDbEntity
8
0
100
AcDbSpline
70
0
71
2
72
6
73
3
74
0
42
0.000000001
43
0.0000000001
44
0.0000000001
40
0
40
0
40
0
40
1
40
1
40
1
10
3.4184092572731863
20
188.64592575543244
30
0
10
3.5464699276626277
20
188.66546039824874
30
0
10
3.6578899685887549
20
188.77688043917487
30
0
0
SPLINE
5
179
100
AcDbEntity
8
0
100
AcDbSpline
70
0
71
2
72
6
73
3
74
0
42
0.000000001
43
0.0000000001
44
0.0000000001
40
0
40
0
40
0
40
1
40
1
40
1
10
3.6578899685887549
20
188.77688043917487
30
0
10
3.7635217720746388
20
188.88251224266077
30
0
10
3.7931854616264555
20
189.0134668210361
30
0
0
SPLINE
5
180
100
AcDbEntity
8
0
100
AcDbSpline
70
0
71
2
72
6
73
3
74
0
42
0.000000001
43
0.0000000001
44
0.0000000001
40
0
40
0
40
0
40
1
40
1
40
1
10
3.7931854616264555
20
189.0134668210361
30
0
10
3.8228493619125143
20
189.14442161014566
30
0
10
3.7584574067575707
20
189.26814115513847
30
0
0
SPLINE
5
181
100
AcDbEntity
8
0
100
AcDbSpline
70
0
71
2
72
6
73
3
74
0
42
0.000000001
43
0.0000000001
44
0.0000000001
40
0
40
0
40
0
40
1
40
1
40
1
10
3.7584574067575707
20
189.26814115513847
30
0
10
3.6940651355012628
20
189.39186059476415
30
0
10
3.4654371323101287
20
189.6204885979553
30
0
0
LINE
5
182
100
AcDbEntity
8
0
100
AcDbLine
10
3.4654371323101287
20
189.6204885979553
30
0
11
3.0414624902216087
21
190.0444632400438
31
0
0
LINE
5
183
100
AcDbEntity
8
0
100
AcDbLine
10
3.0414624902216083
20
190.04446324004385
30
0
11
2.4004358983539542
21
189.40343664817618
31
0
0
LINE
5
184
100
AcDbEntity
8
0
100
AcDbLine
10
1.4208086905140238
20
188.42380944033624
30
0
11
1.9489682347790482
21
187.89564989607123
31
0
0
SPLINE
5
185
100
AcDbEntity
8
0
100
AcDbSpline
70
0
71
2
72
6
73
3
74
0
42
0.000000001
43
0.0000000001
44
0.0000000001
40
0
40
0
40
0
40
1
40
1
40
1
10
1.9489682347790482
20
187.89564989607123
30
0
10
2.0849873892056801
20
187.75963074164457
30
0
10
2.150103005749556
20
187.71477342930598
30
0
0
SPLINE
5
186
100
AcDbEntity
8
0
100
AcDbSpline
70
0
71
2
72
6
73
3
74
0
42
0.000000001
43
0.0000000001
44
0.0000000001
40
0
40
0
40
0
40
1
40
1
40
1
10
2.150103005749556
20
187.71477342930598
30
0
10
2.2644169546615629
20
187.63518764062997
30
0
10
2.3700487581474468
20
187.6105882110281
30
0
0
SPLINE
5
187
100
AcDbEntity
8
0
100
AcDbSpline
70
0
71
2
72
6
73
3
74
0
42
0.000000001
43
0.0000000001
44
0.0000000001
40
0
40
0
40
0
40
1
40
1
40
1
10
2.3700487581474468
20
187.6105882110281
30
0
10
2.4756804562662094
20
187.58598888679333
30
0
10
2.5950591919637702
20
187.6214408137854
30
0
0
SPLINE
5
188
100
AcDbEntity
8
0
100
AcDbSpline
70
0
71
2
72
6
73
3
74
0
42
0.000000001
43
0.0000000001
44
0.0000000001
40
0
40
0
40
0
40
1
40
1
40
1
10
2.5950591919637702
20
187.6214408137854
30
0
10
2.7144378222942094
20
187.65689284614461
30
0
10
2.8157285003834716
20
187.75818352423386
30
0
0
SPLINE
5
189
100
AcDbEntity
8
0
100
AcDbSpline
70
0
71
2
72
6
73
3
74
0
42
0.000000001
43
0.0000000001
44
0.0000000001
40
0
40
0
40
0
40
1
40
1
40
1
10
2.8157285003834716
20
187.75818352423386
30
0
10
2.9343836800592218
20
187.87683870390961
30
0
10
2.9611532508909164
20
188.02515725703583
30
0
0
SPLINE
5
190
100
AcDbEntity
8
0
100
AcDbSpline
70
0
71
2
72
6
73
3
74
0
42
0.000000001
43
0.0000000001
44
0.0000000001
40
0
40
0
40
0
40
1
40
1
40
1
10
2.9611532508909164
20
188.02515725703583
30
0
10
2.987923243191096
20
188.17347623163047
30
0
10
2.9155725932647192
20
188.31673052480676
30
0
0
SPLINE
5
191
100
AcDbEntity
8
0
100
AcDbSpline
70
0
71
2
72
6
73
3
74
0
42
0.000000001
43
0.0000000001
44
0.0000000001
40
0
40
0
40
0
40
1
40
1
40
1
10
2.9155725932647192
20
188.31673052480676
30
0
10
2.843221943338341
20
188.45998481798301
30
0
10
2.6406402710584542
20
188.66256649026292
30
0
0
LINE
5
192
100
AcDbEntity
8
0
100
AcDbLine
10
2.6406402710584542
20
188.66256649026292
30
0
11
2.1501030057495578
21
189.15310375557181
31
0
0
LINE
5
193
100
AcDbEntity
8
0
100
AcDbLine
10
2.1501030057495578
20
189.15310375557181
30
0
11
1.4208086905140238
21
188.4238094403363
31
0
0
SPLINE
5
194
100
AcDbEntity
8
0
100
AcDbSpline
70
0
71
2
72
6
73
3
74
0
42
0.000000001
43
0.0000000001
44
0.0000000001
40
0
40
0
40
0
40
1
40
1
40
1
10
4.0370074037057631
20
185.68606174485001
30
0
10
3.7693097987806361
20
185.70776673963039
30
0
10
3.5848159733748055
20
185.79096988694698
30
0
0
SPLINE
5
195
100
AcDbEntity
8
0
100
AcDbSpline
70
0
71
2
72
6
73
3
74
0
42
0.000000001
43
0.0000000001
44
0.0000000001
40
0
40
0
40
0
40
1
40
1
40
1
10
3.5848159733748055
20
185.79096988694698
30
0
10
3.4003219372347324
20
185.87417324499779
30
0
10
3.2469385973229765
20
186.02755658490952
30
0
0
SPLINE
5
196
100
AcDbEntity
8
0
100
AcDbSpline
70
0
71
2
72
6
73
3
74
0
42
0.000000001
43
0.0000000001
44
0.0000000001
40
0
40
0
40
0
40
1
40
1
40
1
10
3.2469385973229765
20
186.02755658490952
30
0
10
2.9937112698970947
20
186.28078391233541
30
0
10
2.9814117658304036
20
186.54052250638773
30
0
0
SPLINE
5
197
100
AcDbEntity
8
0
100
AcDbSpline
70
0
71
2
72
6
73
3
74
0
42
0.000000001
43
0.0000000001
44
0.0000000001
40
0
40
0
40
0
40
1
40
1
40
1
10
2.9814117658304036
20
186.54052250638773
30
0
10
2.9691120510294695
20
186.8002613111743
30
0
10
3.161564676573855
20
186.9927139367187
30
0
0
SPLINE
5
198
100
AcDbEntity
8
0
100
AcDbSpline
70
0
71
2
72
6
73
3
74
0
42
0.000000001
43
0.0000000001
44
0.0000000001
40
0
40
0
40
0
40
1
40
1
40
1
10
3.161564676573855
20
186.9927139367187
30
0
10
3.2744314080751193
20
187.10558066821994
30
0
10
3.4191329186621164
20
187.14754417793984
30
0
0
SPLINE
5
199
100
AcDbEntity
8
0
100
AcDbSpline
70
0
71
2
72
6
73
3
74
0
42
0.000000001
43
0.0000000001
44
0.0000000001
40
0
40
0
40
0
40
1
40
1
40
1
10
3.4191329186621164
20
187.14754417793984
30
0
10
3.5638342185148715
20
187.18950789839394
30
0
10
3.703470942316315
20
187.16273790609378
30
0
0
SPLINE
5
200
100
AcDbEntity
8
0
100
AcDbSpline
70
0
71
2
72
6
73
3
74
0
42
0.000000001
43
0.0000000001
44
0.0000000001
40
0
40
0
40
0
40
1
40
1
40
1
10
3.703470942316315
20
187.16273790609378
30
0
10
3.8431074553835156
20
187.13596812452781
30
0
10
3.976232491090026
20
187.06072335588132
30
0
0
SPLINE
5
201
100
AcDbEntity
8
0
100
AcDbSpline
70
0
71
2
72
6
73
3
74
0
42
0.000000001
43
0.0000000001
44
0.0000000001
40
0
40
0
40
0
40
1
40
1
40
1
10
3.976232491090026
20
187.06072335588132
30
0
10
4.0731824652511506
20
187.0042899901307
30
0
10
4.2468241093681529
20
186.86827073033695
30
0
0
SPLINE
5
202
100
AcDbEntity
8
0
100
AcDbSpline
70
0
71
2
72
6
73
3
74
0
42
0.000000001
43
0.0000000001
44
0.0000000001
40
0
40
0
40
0
40
1
40
1
40
1
10
4.2468241093681529
20
186.86827073033695
30
0
10
4.5998952135739177
20
186.59044439477768
30
0
10
4.8010298791773041
20
186.49349463135081
30
0
0
SPLINE
5
203
100
AcDbEntity
8
0
100
AcDbSpline
70
0
71
2
72
6
73
3
74
0
42
0.000000001
43
0.0000000001
44
0.0000000001
40
0
40
0
40
0
40
1
40
1
40
1
10
4.8010298791773041
20
186.49349463135081
30
0
10
4.8560163436185571
20
186.5455872931733
30
0
10
4.8704861996493172
20
186.56005714920406
30
0
0
SPLINE
5
204
100
AcDbEntity
8
0
100
AcDbSpline
70
0
71
2
72
6
73
3
74
0
42
0.000000001
43
0.0000000001
44
0.0000000001
40
0
40
0
40
0
40
1
40
1
40
1
10
4.8704861996493172
20
186.56005714920406
30
0
10
5.0296577770013169
20
186.71922872655608
30
0
10
5.0209757369423169
20
186.85814157823432
30
0
0
SPLINE
5
205
100
AcDbEntity
8
0
100
AcDbSpline
70
0
71
2
72
6
73
3
74
0
42
0.000000001
43
0.0000000001
44
0.0000000001
40
0
40
0
40
0
40
1
40
1
40
1
10
5.0209757369423169
20
186.85814157823432
30
0
10
5.0093996835303143
20
187.04625307838205
30
0
10
4.8126059325893076
20
187.24304682932311
30
0
0
SPLINE
5
206
100
AcDbEntity
8
0
100
AcDbSpline
70
0
71
2
72
6
73
3
74
0
42
0.000000001
43
0.0000000001
44
0.0000000001
40
0
40
0
40
0
40
1
40
1
40
1
10
4.8126059325893076
20
187.24304682932311
30
0
10
4.6288351363696814
20
187.42681762554272
30
0
10
4.4768991192357888
20
187.4499697323667
30
0
0
SPLINE
5
207
100
AcDbEntity
8
0
100
AcDbSpline
70
0
71
2
72
6
73
3
74
0
42
0.000000001
43
0.0000000001
44
0.0000000001
40
0
40
0
40
0
40
1
40
1
40
1
10
4.4768991192357888
20
187.4499697323667
30
0
10
4.3249628913676545
20
187.47312204992497
30
0
10
4.1194868896334018
20
187.35157306763045
30
0
0
LINE
5
208
100
AcDbEntity
8
0
100
AcDbLine
10
4.1194868896334018
20
187.35157306763045
30
0
11
3.8995410318683903
21
187.64097566733597
31
0
0
SPLINE
5
209
100
AcDbEntity
8
0
100
AcDbSpline
70
0
71
2
72
6
73
3
74
0
42
0.000000001
43
0.0000000001
44
0.0000000001
40
0
40
0
40
0
40
1
40
1
40
1
10
3.8995410318683907
20
187.64097566733597
30
0
10
4.0977816841187771
20
187.76975957764586
30
0
10
4.2779348055964714
20
187.79074133250577
30
0
0
SPLINE
5
210
100
AcDbEntity
8
0
100
AcDbSpline
70
0
71
2
72
6
73
3
74
0
42
0.000000001
43
0.0000000001
44
0.0000000001
40
0
40
0
40
0
40
1
40
1
40
1
10
4.2779348055964714
20
187.79074133250577
30
0
10
4.4580879270741649
20
187.81172308736572
30
0
10
4.6628400566852415
20
187.71549656385929
30
0
0
SPLINE
5
211
100
AcDbEntity
8
0
100
AcDbSpline
70
0
71
2
72
6
73
3
74
0
42
0.000000001
43
0.0000000001
44
0.0000000001
40
0
40
0
40
0
40
1
40
1
40
1
10
4.6628400566852415
20
187.71549656385929
30
0
10
4.867592607764804
20
187.61927046182134
30
0
10
5.0658332600151894
20
187.42102980957097
30
0
0
SPLINE
5
212
100
AcDbEntity
8
0
100
AcDbSpline
70
0
71
2
72
6
73
3
74
0
42
0.000000001
43
0.0000000001
44
0.0000000001
40
0
40
0
40
0
40
1
40
1
40
1
10
5.0658332600151894
20
187.42102980957097
30
0
10
5.262627010956197
20
187.22423605862997
30
0
10
5.3393184701778313
20
187.05493532917532
30
0
0
SPLINE
5
213
100
AcDbEntity
8
0
100
AcDbSpline
70
0
71
2
72
6
73
3
74
0
42
0.000000001
43
0.0000000001
44
0.0000000001
40
0
40
0
40
0
40
1
40
1
40
1
10
5.3393184701778313
20
187.05493532917532
30
0
10
5.41601014013371
20
186.88563523192343
30
0
10
5.403710636067018
20
186.75757435079976
30
0
0
SPLINE
5
214
100
AcDbEntity
8
0
100
AcDbSpline
70
0
71
2
72
6
73
3
74
0
42
0.000000001
43
0.0000000001
44
0.0000000001
40
0
40
0
40
0
40
1
40
1
40
1
10
5.403710636067018
20
186.75757435079976
30
0
10
5.3914109212660843
20
186.62951368041033
30
0
10
5.3074845340290677
20
186.49928265805681
30
0
0
SPLINE
5
215
100
AcDbEntity
8
0
100
AcDbSpline
70
0
71
2
72
6
73
3
74
0
42
0.000000001
43
0.0000000001
44
0.0000000001
40
0
40
0
40
0
40
1
40
1
40
1
10
5.3074845340290677
20
186.49928265805681
30
0
10
5.2539447601629519
20
186.41969697474792
30
0
10
5.0803033267801911
20
186.24605554136514
30
0
0
LINE
5
216
100
AcDbEntity
8
0
100
AcDbLine
10
5.0803033267801911
20
186.24605554136514
30
0
11
4.7330200385461847
21
185.89877225313114
31
0
0
SPLINE
5
217
100
AcDbEntity
8
0
100
AcDbSpline
70
0
71
2
72
6
73
3
74
0
42
0.000000001
43
0.0000000001
44
0.0000000001
40
0
40
0
40
0
40
1
40
1
40
1
10
4.7330200385461838
20
185.89877225313117
30
0
10
4.3698199929720385
20
185.53557220755704
30
0
10
4.2902343096631599
20
185.4227052653215
30
0
0
SPLINE
5
218
100
AcDbEntity
8
0
100
AcDbSpline
70
0
71
2
72
6
73
3
74
0
42
0.000000001
43
0.0000000001
44
0.0000000001
40
0
40
0
40
0
40
1
40
1
40
1
10
4.2902343096631599
20
185.4227052653215
30
0
10
4.2106486263542813
20
185.30983832308601
30
0
10
4.1715793407216513
20
185.17237216198285
30
0
0
LINE
5
219
100
AcDbEntity
8
0
100
AcDbLine
10
4.1715793407216513
20
185.17237216198285
30
0
11
3.8995410318683881
21
185.44441047083612
31
0
0
SPLINE
5
220
100
AcDbEntity
8
0
100
AcDbSpline
70
0
71
2
72
6
73
3
74
0
42
0.000000001
43
0.0000000001
44
0.0000000001
40
0
40
0
40
0
40
1
40
1
40
1
10
3.8995410318683876
20
185.44441047083612
30
0
10
3.9400574295446384
20
185.56595966386487
30
0
10
4.0370074037057631
20
185.68606174485001
30
0
0
SPLINE
5
221
100
AcDbEntity
8
0
100
AcDbSpline
70
0
71
2
72
6
73
3
74
0
42
0.000000001
43
0.0000000001
44
0.0000000001
40
0
40
0
40
0
40
1
40
1
40
1
10
4.5970012002209169
20
186.28946595239441
30
0
10
4.3973132251926659
20
186.37339255036568
30
0
10
4.0731826759853922
20
186.61649072568892
30
0
0
SPLINE
5
222
100
AcDbEntity
8
0
100
AcDbSpline
70
0
71
2
72
6
73
3
74
0
42
0.000000001
43
0.0000000001
44
0.0000000001
40
0
40
0
40
0
40
1
40
1
40
1
10
4.0731826759853922
20
186.61649072568892
30
0
10
3.8894120905000089
20
186.75395709752632
30
0
10
3.7939090176482635
20
186.79157906038108
30
0
0
SPLINE
5
223
100
AcDbEntity
8
0
100
AcDbSpline
70
0
71
2
72
6
73
3
74
0
42
0.000000001
43
0.0000000001
44
0.0000000001
40
0
40
0
40
0
40
1
40
1
40
1
10
3.7939090176482635
20
186.79157906038108
30
0
10
3.6984063662650031
20
186.82920144470432
30
0
10
3.6065207574209475
20
186.809666801888
30
0
0
SPLINE
5
224
100
AcDbEntity
8
0
100
AcDbSpline
70
0
71
2
72
6
73
3
74
0
42
0.000000001
43
0.0000000001
44
0.0000000001
40
0
40
0
40
0
40
1
40
1
40
1
10
3.6065207574209475
20
186.809666801888
30
0
10
3.5146357807796189
20
186.79013236980595
30
0
10
3.4466259401485
20
186.72212252917484
30
0
0
SPLINE
5
225
100
AcDbEntity
8
0
100
AcDbSpline
70
0
71
2
72
6
73
3
74
0
42
0.000000001
43
0.0000000001
44
0.0000000001
40
0
40
0
40
0
40
1
40
1
40
1
10
3.4466259401485
20
186.72212252917484
30
0
10
3.3424410379719949
20
186.6179376269983
30
0
10
3.351846950154171
20
186.46961907387211
30
0
0
SPLINE
5
226
100
AcDbEntity
8
0
100
AcDbSpline
70
0
71
2
72
6
73
3
74
0
42
0.000000001
43
0.0000000001
44
0.0000000001
40
0
40
0
40
0
40
1
40
1
40
1
10
3.351846950154171
20
186.46961907387211
30
0
10
3.3612524408678617
20
186.32130009927744
30
0
10
3.5131886687359963
20
186.16936387140927
30
0
0
SPLINE
5
227
100
AcDbEntity
8
0
100
AcDbSpline
70
0
71
2
72
6
73
3
74
0
42
0.000000001
43
0.0000000001
44
0.0000000001
40
0
40
0
40
0
40
1
40
1
40
1
10
3.5131886687359963
20
186.16936387140927
30
0
10
3.6636779952947522
20
186.01887454485052
30
0
10
3.8467249193912045
20
185.96750533368271
30
0
0
SPLINE
5
228
100
AcDbEntity
8
0
100
AcDbSpline
70
0
71
2
72
6
73
3
74
0
42
0.000000001
43
0.0000000001
44
0.0000000001
40
0
40
0
40
0
40
1
40
1
40
1
10
3.8467249193912045
20
185.96750533368271
30
0
10
4.0297720542218984
20
185.91613675471766
30
0
10
4.199072783676522
20
185.97546413382128
30
0
0
SPLINE
5
229
100
AcDbEntity
8
0
100
AcDbSpline
70
0
71
2
72
6
73
3
74
0
42
0.000000001
43
0.0000000001
44
0.0000000001
40
0
40
0
40
0
40
1
40
1
40
1
10
4.199072783676522
20
185.97546413382128
30
0
10
4.3293038060300315
20
186.02176855820352
30
0
10
4.501498127369171
20
186.19396287954265
30
0
0
LINE
5
230
100
AcDbEntity
8
0
100
AcDbLine
10
4.501498127369171
20
186.19396287954265
30
0
11
4.5970012002209169
21
186.28946595239441
31
0
0
LINE
5
231
100
AcDbEntity
8
0
100
AcDbLine
10
5.2944615793076828
20
184.51542839130661
30
0
11
5.1020089537632973
21
184.24773099711572
31
0
0
SPLINE
5
232
100
AcDbEntity
8
0
100
AcDbSpline
70
0
71
2
72
6
73
3
74
0
42
0.000000001
43
0.0000000001
44
0.0000000001
40
0
40
0
40
0
40
1
40
1
40
1
10
5.1020089537632982
20
184.24773099711572
30
0
10
4.9688834965883029
20
184.33455139770572
30
0
10
4.8820626745298021
20
184.42137221976424
30
0
0
SPLINE
5
233
100
AcDbEntity
8
0
100
AcDbSpline
70
0
71
2
72
6
73
3
74
0
42
0.000000001
43
0.0000000001
44
0.0000000001
40
0
40
0
40
0
40
1
40
1
40
1
10
4.8820626745298021
20
184.42137221976424
30
0
10
4.7402553880300475
20
184.56317950626399
30
0
10
4.7069741291034202
20
184.68617538986788
30
0
0
SPLINE
5
234
100
AcDbEntity
8
0
100
AcDbSpline
70
0
71
2
72
6
73
3
74
0
42
0.000000001
43
0.0000000001
44
0.0000000001
40
0
40
0
40
0
40
1
40
1
40
1
10
4.7069741291034202
20
184.68617538986788
30
0
10
4.6736928701767928
20
184.80917211640872
30
0
10
4.7149327185077325
20
184.91407983703721
30
0
0
SPLINE
5
235
100
AcDbEntity
8
0
100
AcDbSpline
70
0
71
2
72
6
73
3
74
0
42
0.000000001
43
0.0000000001
44
0.0000000001
40
0
40
0
40
0
40
1
40
1
40
1
10
4.7149327185077325
20
184.91407983703721
30
0
10
4.7561725668386732
20
185.01898840060264
30
0
10
4.9905887021029303
20
185.25340453586691
30
0
0
LINE
5
236
100
AcDbEntity
8
0
100
AcDbLine
10
4.9905887021029303
20
185.25340453586691
30
0
11
5.8747132585595994
21
186.13752909232358
31
0
0
LINE
5
237
100
AcDbEntity
8
0
100
AcDbLine
10
5.8747132585596002
20
186.13752909232352
30
0
11
5.6837075343245944
21
186.32853481655854
31
0
0
LINE
5
238
100
AcDbEntity
8
0
100
AcDbLine
10
5.6837075343245935
20
186.32853481655857
30
0
11
5.886289311971602
21
186.53111659420557
31
0
0
LINE
5
239
100
AcDbEntity
8
0
100
AcDbLine
10
5.8862893119716029
20
186.53111659420557
30
0
11
6.0772950362066087
21
186.34011086997054
31
0
0
LINE
5
240
100
AcDbEntity
8
0
100
AcDbLine
10
6.0772950362066087
20
186.34011086997054
30
0
11
6.4578595833672434
21
186.72067541713119
31
0
0
LINE
5
241
100
AcDbEntity
8
0
100
AcDbLine
10
6.4578595833672425
20
186.72067541713119
30
0
11
6.87315208002964
21
186.6179376269983
31
0
0
LINE
5
242
100
AcDbEntity
8
0
100
AcDbLine
10
6.87315208002964
20
186.6179376269983
30
0
11
6.3363101796042489
21
186.08109572657293
31
0
0
LINE
5
243
100
AcDbEntity
8
0
100
AcDbLine
10
6.3363101796042489
20
186.08109572657293
30
0
11
6.5982195470891316
21
185.81918635908804
31
0
0
LINE
5
244
100
AcDbEntity
8
0
100
AcDbLine
10
6.5982195470891325
20
185.81918635908804
30
0
11
6.395637769442124
21
185.61660458144104
31
0
0
LINE
5
245
100
AcDbEntity
8
0
100
AcDbLine
10
6.3956377694421231
20
185.61660458144104
30
0
11
6.1337284019572405
21
185.87851394892593
31
0
0
LINE
5
246
100
AcDbEntity
8
0
100
AcDbLine
10
6.1337284019572387
20
185.87851394892593
30
0
11
5.2351335680013236
21
184.97991911496999
31
0
0
SPLINE
5
247
100
AcDbEntity
8
0
100
AcDbSpline
70
0
71
2
72
6
73
3
74
0
42
0.000000001
43
0.0000000001
44
0.0000000001
40
0
40
0
40
0
40
1
40
1
40
1
10
5.2351335680013245
20
184.97991911496999
30
0
10
5.1237137378094388
20
184.86849928477812
30
0
10
5.1056259963025044
20
184.82291831105056
30
0
0
SPLINE
5
248
100
AcDbEntity
8
0
100
AcDbSpline
70
0
71
2
72
6
73
3
74
0
42
0.000000001
43
0.0000000001
44
0.0000000001
40
0
40
0
40
0
40
1
40
1
40
1
10
5.1056259963025044
20
184.82291831105056
30
0
10
5.087538676264054
20
184.77733775879148
30
0
10
5.0998379695965035
20
184.72741565966729
30
0
0
SPLINE
5
249
100
AcDbEntity
8
0
100
AcDbSpline
70
0
71
2
72
6
73
3
74
0
42
0.000000001
43
0.0000000001
44
0.0000000001
40
0
40
0
40
0
40
1
40
1
40
1
10
5.0998379695965035
20
184.72741565966729
30
0
10
5.1121381058659221
20
184.67749356054313
30
0
10
5.1700183729259326
20
184.6196132934831
30
0
0
SPLINE
5
250
100
AcDbEntity
8
0
100
AcDbSpline
70
0
71
2
72
6
73
3
74
0
42
0.000000001
43
0.0000000001
44
0.0000000001
40
0
40
0
40
0
40
1
40
1
40
1
10
5.1700183729259326
20
184.6196132934831
30
0
10
5.2134287839551829
20
184.57620288245383
30
0
10
5.2944615793076828
20
184.51542839130661
30
0
0
LINE
5
251
100
AcDbEntity
8
0
100
AcDbLine
10
6.1178112231486121
20
183.69207874746567
30
0
11
5.9253585976042267
21
183.42438135327481
31
0
0
SPLINE
5
252
100
AcDbEntity
8
0
100
AcDbSpline
70
0
71
2
72
6
73
3
74
0
42
0.000000001
43
0.0000000001
44
0.0000000001
40
0
40
0
40
0
40
1
40
1
40
1
10
5.9253585976042267
20
183.42438135327481
30
0
10
5.7922331404292322
20
183.51120175386481
30
0
10
5.7054123183707306
20
183.59802257592332
30
0
0
SPLINE
5
253
100
AcDbEntity
8
0
100
AcDbSpline
70
0
71
2
72
6
73
3
74
0
42
0.000000001
43
0.0000000001
44
0.0000000001
40
0
40
0
40
0
40
1
40
1
40
1
10
5.7054123183707306
20
183.59802257592332
30
0
10
5.563605031870976
20
183.73982986242308
30
0
10
5.5303237729443486
20
183.86282574602694
30
0
0
SPLINE
5
254
100
AcDbEntity
8
0
100
AcDbSpline
70
0
71
2
72
6
73
3
74
0
42
0.000000001
43
0.0000000001
44
0.0000000001
40
0
40
0
40
0
40
1
40
1
40
1
10
5.5303237729443486
20
183.86282574602694
30
0
10
5.4970425140177213
20
183.9858224725678
30
0
10
5.538282362348661
20
184.09073019319629
30
0
0
SPLINE
5
255
100
AcDbEntity
8
0
100
AcDbSpline
70
0
71
2
72
6
73
3
74
0
42
0.000000001
43
0.0000000001
44
0.0000000001
40
0
40
0
40
0
40
1
40
1
40
1
10
5.538282362348661
20
184.09073019319629
30
0
10
5.5795222106796016
20
184.19563875676172
30
0
10
5.8139383459438587
20
184.43005489202594
30
0
0
LINE
5
256
100
AcDbEntity
8
0
100
AcDbLine
10
5.8139383459438587
20
184.43005489202594
30
0
11
6.6980629024005287
21
185.31417944848261
31
0
0
LINE
5
257
100
AcDbEntity
8
0
100
AcDbLine
10
6.6980629024005287
20
185.31417944848261
30
0
11
6.5070571781655229
21
185.50518517271763
31
0
0
LINE
5
258
100
AcDbEntity
8
0
100
AcDbLine
10
6.5070571781655229
20
185.50518517271763
30
0
11
6.7096389558125313
21
185.7077669503646
31
0
0
LINE
5
259
100
AcDbEntity
8
0
100
AcDbLine
10
6.7096389558125313
20
185.70776695036466
30
0
11
6.9006446800475372
21
185.51676122612963
31
0
0
LINE
5
260
100
AcDbEntity
8
0
100
AcDbLine
10
6.9006446800475381
20
185.51676122612963
30
0
11
7.2812092272081728
21
185.89732577329028
31
0
0
LINE
5
261
100
AcDbEntity
8
0
100
AcDbLine
10
7.2812092272081719
20
185.89732577329028
30
0
11
7.6965017238705693
21
185.79458798315738
31
0
0
LINE
5
262
100
AcDbEntity
8
0
100
AcDbLine
10
7.6965017238705693
20
185.79458798315738
30
0
11
7.1596598234451783
21
185.25774608273198
31
0
0
LINE
5
263
100
AcDbEntity
8
0
100
AcDbLine
10
7.1596598234451783
20
185.25774608273198
30
0
11
7.421569190930061
21
184.99583671524709
31
0
0
LINE
5
264
100
AcDbEntity
8
0
100
AcDbLine
10
7.421569190930061
20
184.99583671524709
30
0
11
7.2189874132830525
21
184.79325493760012
31
0
0
LINE
5
265
100
AcDbEntity
8
0
100
AcDbLine
10
7.2189874132830507
20
184.79325493760012
30
0
11
6.957078045798168
21
185.05516430508499
31
0
0
LINE
5
266
100
AcDbEntity
8
0
100
AcDbLine
10
6.957078045798168
20
185.05516430508499
30
0
11
6.0584832118422529
21
184.15656947112907
31
0
0
SPLINE
5
267
100
AcDbEntity
8
0
100
AcDbSpline
70
0
71
2
72
6
73
3
74
0
42
0.000000001
43
0.0000000001
44
0.0000000001
40
0
40
0
40
0
40
1
40
1
40
1
10
6.0584832118422538
20
184.15656947112907
30
0
10
5.9470633816503682
20
184.04514964093718
30
0
10
5.9289756401434328
20
183.99956866720964
30
0
0
SPLINE
5
268
100
AcDbEntity
8
0
100
AcDbSpline
70
0
71
2
72
6
73
3
74
0
42
0.000000001
43
0.0000000001
44
0.0000000001
40
0
40
0
40
0
40
1
40
1
40
1
10
5.9289756401434328
20
183.99956866720964
30
0
10
5.9108883201049833
20
183.95398811495056
30
0
10
5.9231876134374319
20
183.90406601582637
30
0
0
SPLINE
5
269
100
AcDbEntity
8
0
100
AcDbSpline
70
0
71
2
72
6
73
3
74
0
42
0.000000001
43
0.0000000001
44
0.0000000001
40
0
40
0
40
0
40
1
40
1
40
1
10
5.9231876134374319
20
183.90406601582637
30
0
10
5.9354877497068514
20
183.85414391670218
30
0
10
5.9933680167668619
20
183.79626364964219
30
0
0
SPLINE
5
270
100
AcDbEntity
8
0
100
AcDbSpline
70
0
71
2
72
6
73
3
74
0
42
0.000000001
43
0.0000000001
44
0.0000000001
40
0
40
0
40
0
40
1
40
1
40
1
10
5.9933680167668619
20
183.79626364964219
30
0
10
6.0367784277961123
20
183.75285323861291
30
0
10
6.1178112231486121
20
183.69207874746567
30
0
0
LINE
5
271
100
AcDbEntity
8
0
100
AcDbLine
10
7.6863727825021844
20
182.6473350801449
30
0
11
7.9222353976073343
21
182.34490994718652
31
0
0
SPLINE
5
272
100
AcDbEntity
8
0
100
AcDbSpline
70
0
71
2
72
6
73
3
74
0
42
0.000000001
43
0.0000000001
44
0.0000000001
40
0
40
0
40
0
40
1
40
1
40
1
10
7.9222353976073361
20
182.34490994718647
30
0
10
7.6227040672676862
20
182.17271520437887
30
0
10
7.3202780913723098
20
182.21467871409874
30
0
0
SPLINE
5
273
100
AcDbEntity
8
0
100
AcDbSpline
70
0
71
2
72
6
73
3
74
0
42
0.000000001
43
0.0000000001
44
0.0000000001
40
0
40
0
40
0
40
1
40
1
40
1
10
7.3202780913723098
20
182.21467871409874
30
0
10
7.0178529584139051
20
182.25664222381863
30
0
10
6.7501555642230207
20
182.52433961800949
30
0
0
SPLINE
5
274
100
AcDbEntity
8
0
100
AcDbSpline
70
0
71
2
72
6
73
3
74
0
42
0.000000001
43
0.0000000001
44
0.0000000001
40
0
40
0
40
0
40
1
40
1
40
1
10
6.7501555642230207
20
182.52433961800949
30
0
10
6.413001849560124
20
182.86149333267241
30
0
10
6.4231310016627461
20
183.26665646649792
30
0
0
SPLINE
5
275
100
AcDbEntity
8
0
100
AcDbSpline
70
0
71
2
72
6
73
3
74
0
42
0.000000001
43
0.0000000001
44
0.0000000001
40
0
40
0
40
0
40
1
40
1
40
1
10
6.4231310016627461
20
183.26665646649792
30
0
10
6.4332597322968859
20
183.67182002179194
30
0
10
6.8080362527515188
20
184.04659654224656
30
0
0
SPLINE
5
276
100
AcDbEntity
8
0
100
AcDbSpline
70
0
71
2
72
6
73
3
74
0
42
0.000000001
43
0.0000000001
44
0.0000000001
40
0
40
0
40
0
40
1
40
1
40
1
10
6.8080362527515188
20
184.04659654224656
30
0
10
7.1958355171932897
20
184.43439580668834
30
0
10
7.6096811125463066
20
184.4488662949218
30
0
0
SPLINE
5
277
100
AcDbEntity
8
0
100
AcDbSpline
70
0
71
2
72
6
73
3
74
0
42
0.000000001
43
0.0000000001
44
0.0000000001
40
0
40
0
40
0
40
1
40
1
40
1
10
7.6096811125463066
20
184.4488662949218
30
0
10
8.0235269186335696
20
184.46333615095259
30
0
10
8.3418696518690858
20
184.1449934177171
30
0
0
SPLINE
5
278
100
AcDbEntity
8
0
100
AcDbSpline
70
0
71
2
72
6
73
3
74
0
42
0.000000001
43
0.0000000001
44
0.0000000001
40
0
40
0
40
0
40
1
40
1
40
1
10
8.3418696518690858
20
184.1449934177171
30
0
10
8.6500832330019755
20
183.83677983658418
30
0
10
8.6356131662369719
20
183.43161607055592
30
0
0
SPLINE
5
279
100
AcDbEntity
8
0
100
AcDbSpline
70
0
71
2
72
6
73
3
74
0
42
0.000000001
43
0.0000000001
44
0.0000000001
40
0
40
0
40
0
40
1
40
1
40
1
10
8.6356131662369719
20
183.43161607055592
30
0
10
8.6211426780034834
20
183.02645272599617
30
0
10
8.2405785523113355
20
182.645888600304
30
0
0
SPLINE
5
280
100
AcDbEntity
8
0
100
AcDbSpline
70
0
71
2
72
6
73
3
74
0
42
0.000000001
43
0.0000000001
44
0.0000000001
40
0
40
0
40
0
40
1
40
1
40
1
10
8.2405785523113355
20
182.645888600304
30
0
10
8.2174260240188453
20
182.62273607201152
30
0
10
8.1696749090614578
20
182.5778787596729
30
0
0
LINE
5
281
100
AcDbEntity
8
0
100
AcDbLine
10
8.1696749090614578
20
182.5778787596729
30
0
11
7.0236409851199078
21
183.72391268361443
31
0
0
SPLINE
5
282
100
AcDbEntity
8
0
100
AcDbSpline
70
0
71
2
72
6
73
3
74
0
42
0.000000001
43
0.0000000001
44
0.0000000001
40
0
40
0
40
0
40
1
40
1
40
1
10
7.0236409851199078
20
183.72391268361443
30
0
10
6.7848841459275118
20
183.45621528942357
30
0
10
6.7790956977530268
20
183.1928590206293
30
0
0
SPLINE
5
283
100
AcDbEntity
8
0
100
AcDbSpline
70
0
71
2
72
6
73
3
74
0
42
0.000000001
43
0.0000000001
44
0.0000000001
40
0
40
0
40
0
40
1
40
1
40
1
10
6.7790956977530268
20
183.1928590206293
30
0
10
6.7733080925155109
20
182.92950275183503
30
0
10
6.9657607180598955
20
182.73705012629065
30
0
0
SPLINE
5
284
100
AcDbEntity
8
0
100
AcDbSpline
70
0
71
2
72
6
73
3
74
0
42
0.000000001
43
0.0000000001
44
0.0000000001
40
0
40
0
40
0
40
1
40
1
40
1
10
6.9657607180598955
20
182.73705012629065
30
0
10
7.1090149058690288
20
182.59379593848152
30
0
10
7.2855499311363046
20
182.56774960757028
30
0
0
SPLINE
5
285
100
AcDbEntity
8
0
100
AcDbSpline
70
0
71
2
72
6
73
3
74
0
42
0.000000001
43
0.0000000001
44
0.0000000001
40
0
40
0
40
0
40
1
40
1
40
1
10
7.2855499311363046
20
182.56774960757028
30
0
10
7.4620857993405512
20
182.54170327665901
30
0
10
7.6863727825021844
20
182.6473350801449
30
0
0
LINE
5
286
100
AcDbEntity
8
0
100
AcDbLine
10
7.2522690936781631
20
183.92360023717418
30
0
11
8.1103473192235835
21
183.06552201162876
31
0
0
SPLINE
5
287
100
AcDbEntity
8
0
100
AcDbSpline
70
0
71
2
72
6
73
3
74
0
42
0.000000001
43
0.0000000001
44
0.0000000001
40
0
40
0
40
0
40
1
40
1
40
1
10
8.1103473192235835
20
183.06552201162876
30
0
10
8.2868829766935885
20
183.27678582933481
30
0
10
8.3027999447679708
20
183.45476838811419
30
0
0
SPLINE
5
288
100
AcDbEntity
8
0
100
AcDbSpline
70
0
71
2
72
6
73
3
74
0
42
0.000000001
43
0.0000000001
44
0.0000000001
40
0
40
0
40
0
40
1
40
1
40
1
10
8.3027999447679708
20
183.45476838811419
30
0
10
8.3288466971477035
20
183.72970071032043
30
0
10
8.1306056234288313
20
183.92794178403932
30
0
0
SPLINE
5
289
100
AcDbEntity
8
0
100
AcDbSpline
70
0
71
2
72
6
73
3
74
0
42
0.000000001
43
0.0000000001
44
0.0000000001
40
0
40
0
40
0
40
1
40
1
40
1
10
8.1306056234288313
20
183.92794178403932
30
0
10
7.9511763740743131
20
184.10737103339383
30
0
10
7.7088016494057428
20
184.10954159609213
30
0
0
SPLINE
5
290
100
AcDbEntity
8
0
100
AcDbSpline
70
0
71
2
72
6
73
3
74
0
42
0.000000001
43
0.0000000001
44
0.0000000001
40
0
40
0
40
0
40
1
40
1
40
1
10
7.7088016494057428
20
184.10954159609213
30
0
10
7.4664269247371742
20
184.11171215879045
30
0
10
7.2522690936781631
20
183.92360023717418
30
0
0
LINE
5
291
100
AcDbEntity
8
0
100
AcDbLine
10
7.7847696579726868
20
181.55918184473182
30
0
11
9.3214968597090131
21
183.09590904646814
31
0
0
LINE
5
292
100
AcDbEntity
8
0
100
AcDbLine
10
9.3214968597090131
20
183.09590904646819
30
0
11
9.5559125735047843
21
182.86149333267241
31
0
0
LINE
5
293
100
AcDbEntity
8
0
100
AcDbLine
10
9.5559125735047843
20
182.86149333267241
30
0
11
9.3229437610183918
21
182.62852452018598
31
0
0
SPLINE
5
294
100
AcDbEntity
8
0
100
AcDbSpline
70
0
71
2
72
6
73
3
74
0
42
0.000000001
43
0.0000000001
44
0.0000000001
40
0
40
0
40
0
40
1
40
1
40
1
10
9.3229437610183918
20
182.62852452018598
30
0
10
9.5761715099127578
20
182.7023213338519
30
0
10
9.7042319695679566
20
182.6784457763732
30
0
0
SPLINE
5
295
100
AcDbEntity
8
0
100
AcDbSpline
70
0
71
2
72
6
73
3
74
0
42
0.000000001
43
0.0000000001
44
0.0000000001
40
0
40
0
40
0
40
1
40
1
40
1
10
9.7042319695679566
20
182.6784457763732
30
0
10
9.8322924292231555
20
182.65457021889455
30
0
10
9.9234543766782775
20
182.56340827143941
30
0
0
SPLINE
5
296
100
AcDbEntity
8
0
100
AcDbSpline
70
0
71
2
72
6
73
3
74
0
42
0.000000001
43
0.0000000001
44
0.0000000001
40
0
40
0
40
0
40
1
40
1
40
1
10
9.9234543766782775
20
182.56340827143941
30
0
10
10.055132089606925
20
182.43173055851074
30
0
10
10.107224962163661
20
182.21178406854301
30
0
0
LINE
5
297
100
AcDbEntity
8
0
100
AcDbLine
10
10.107224962163661
20
182.21178406854301
30
0
11
9.7758584312697945
21
182.0598484728776
31
0
0
SPLINE
5
298
100
AcDbEntity
8
0
100
AcDbSpline
70
0
71
2
72
6
73
3
74
0
42
0.000000001
43
0.0000000001
44
0.0000000001
40
0
40
0
40
0
40
1
40
1
40
1
10
9.7758584312697945
20
182.0598484728776
30
0
10
9.7367897778398955
20
182.21178427927725
30
0
10
9.6412867049881488
20
182.30728735212898
30
0
0
SPLINE
5
299
100
AcDbEntity
8
0
100
AcDbSpline
70
0
71
2
72
6
73
3
74
0
42
0.000000001
43
0.0000000001
44
0.0000000001
40
0
40
0
40
0
40
1
40
1
40
1
10
9.6412867049881488
20
182.30728735212898
30
0
10
9.5559132057075118
20
182.39266085140966
30
0
10
9.4365345753770704
20
182.40930190234144
30
0
0
SPLINE
5
300
100
AcDbEntity
8
0
100
AcDbSpline
70
0
71
2
72
6
73
3
74
0
42
0.000000001
43
0.0000000001
44
0.0000000001
40
0
40
0
40
0
40
1
40
1
40
1
10
9.4365345753770704
20
182.40930190234144
30
0
10
9.3171557343123901
20
182.42594274253901
30
0
10
9.1970540747957461
20
182.36372050714539
30
0
0
SPLINE
5
301
100
AcDbEntity
8
0
100
AcDbSpline
70
0
71
2
72
6
73
3
74
0
42
0.000000001
43
0.0000000001
44
0.0000000001
40
0
40
0
40
0
40
1
40
1
40
1
10
9.1970540747957461
20
182.36372050714539
30
0
10
9.0147306013539836
20
182.26821785576215
30
0
10
8.8497712080302229
20
182.10325846243836
30
0
0
LINE
5
302
100
AcDbEntity
8
0
100
AcDbLine
10
8.8497712080302229
20
182.10325846243836
30
0
11
8.045232124148189
21
181.29871937855631
31
0
0
LINE
5
303
100
AcDbEntity
8
0
100
AcDbLine
10
8.0452321241481908
20
181.29871937855631
30
0
11
7.7847696579726868
21
181.55918184473182
31
0
0
LINE
5
304
100
AcDbEntity
8
0
100
AcDbLine
10
8.1711218103708347
20
179.98917338406892
30
0
11
8.3867273856761937
21
180.2626583834973
31
0
0
SPLINE
5
305
100
AcDbEntity
8
0
100
AcDbSpline
70
0
71
2
72
6
73
3
74
0
42
0.000000001
43
0.0000000001
44
0.0000000001
40
0
40
0
40
0
40
1
40
1
40
1
10
8.3867273856761937
20
180.2626583834973
30
0
10
8.4489483566643422
20
180.15413235592419
30
0
10
8.5126170718988394
20
180.09046364068968
30
0
0
SPLINE
5
306
100
AcDbEntity
8
0
100
AcDbSpline
70
0
71
2
72
6
73
3
74
0
42
0.000000001
43
0.0000000001
44
0.0000000001
40
0
40
0
40
0
40
1
40
1
40
1
10
8.5126170718988394
20
180.09046364068968
30
0
10
8.5994378939573402
20
180.00364281863116
30
0
10
8.6804711107783259
20
179.98049071180716
30
0
0
SPLINE
5
307
100
AcDbEntity
8
0
100
AcDbSpline
70
0
71
2
72
6
73
3
74
0
42
0.000000001
43
0.0000000001
44
0.0000000001
40
0
40
0
40
0
40
1
40
1
40
1
10
8.6804711107783259
20
179.98049071180716
30
0
10
8.7615030631938566
20
179.95733902645168
30
0
10
8.8468769839429804
20
179.97614958641054
30
0
0
SPLINE
5
308
100
AcDbEntity
8
0
100
AcDbSpline
70
0
71
2
72
6
73
3
74
0
42
0.000000001
43
0.0000000001
44
0.0000000001
40
0
40
0
40
0
40
1
40
1
40
1
10
8.8468769839429804
20
179.97614958641054
30
0
10
8.9105461206459609
20
179.99061986390981
30
0
10
9.1203628263083498
20
180.09046364068968
30
0
0
SPLINE
5
309
100
AcDbEntity
8
0
100
AcDbSpline
70
0
71
2
72
6
73
3
74
0
42
0.000000001
43
0.0000000001
44
0.0000000001
40
0
40
0
40
0
40
1
40
1
40
1
10
9.1203628263083498
20
180.09046364068968
30
0
10
9.1493029598383551
20
180.10493391818892
30
0
10
9.2071836483668505
20
180.13098024910019
30
0
0
LINE
5
310
100
AcDbEntity
8
0
100
AcDbLine
10
9.2071836483668505
20
180.13098024910019
30
0
11
10.163658327914293
21
182.2537475782629
31
0
0
LINE
5
311
100
AcDbEntity
8
0
100
AcDbLine
10
10.163658327914295
20
182.25374757826287
30
0
11
10.444379098295046
21
181.97302680788212
31
0
0
LINE
5
312
100
AcDbEntity
8
0
100
AcDbLine
10
10.444379098295045
20
181.97302680788212
30
0
11
9.8742557282087837
21
180.76332501164305
31
0
0
SPLINE
5
313
100
AcDbEntity
8
0
100
AcDbSpline
70
0
71
2
72
6
73
3
74
0
42
0.000000001
43
0.0000000001
44
0.0000000001
40
0
40
0
40
0
40
1
40
1
40
1
10
9.8742557282087837
20
180.76332501164305
30
0
10
9.7671766019450335
20
180.53180310046605
30
0
10
9.6297108623103878
20
180.29593964242395
30
0
0
SPLINE
5
314
100
AcDbEntity
8
0
100
AcDbSpline
70
0
71
2
72
6
73
3
74
0
42
0.000000001
43
0.0000000001
44
0.0000000001
40
0
40
0
40
0
40
1
40
1
40
1
10
9.6297108623103878
20
180.29593964242395
30
0
10
9.853997424003536
20
180.43051242237678
30
0
10
10.086967079426898
20
180.53903760701297
30
0
0
LINE
5
315
100
AcDbEntity
8
0
100
AcDbLine
10
10.086967079426898
20
180.53903760701297
30
0
11
11.311139153165223
21
181.10626675301199
31
0
0
LINE
5
316
100
AcDbEntity
8
0
100
AcDbLine
10
11.311139153165223
20
181.10626675301194
30
0
11
11.571601619340727
21
180.84580428683643
31
0
0
LINE
5
317
100
AcDbEntity
8
0
100
AcDbLine
10
11.571601619340727
20
180.84580428683643
30
0
11
9.42423528204462
21
179.86762355883741
31
0
0
SPLINE
5
318
100
AcDbEntity
8
0
100
AcDbSpline
70
0
71
2
72
6
73
3
74
0
42
0.000000001
43
0.0000000001
44
0.0000000001
40
0
40
0
40
0
40
1
40
1
40
1
10
9.42423528204462
20
179.86762355883741
30
0
10
9.0769515723421286
20
179.70845303515662
30
0
10
8.9293571020733431
20
179.6650422026589
30
0
0
SPLINE
5
319
100
AcDbEntity
8
0
100
AcDbSpline
70
0
71
2
72
6
73
3
74
0
42
0.000000001
43
0.0000000001
44
0.0000000001
40
0
40
0
40
0
40
1
40
1
40
1
10
8.9293571020733431
20
179.6650422026589
30
0
10
8.7311156068859859
20
179.60571503428952
30
0
10
8.5813501524504048
20
179.63537882920846
30
0
0
SPLINE
5
320
100
AcDbEntity
8
0
100
AcDbSpline
70
0
71
2
72
6
73
3
74
0
42
0.000000001
43
0.0000000001
44
0.0000000001
40
0
40
0
40
0
40
1
40
1
40
1
10
8.5813501524504048
20
179.63537882920846
30
0
10
8.4315842765463387
20
179.6650422026589
30
0
10
8.3071414916330735
20
179.78948498757217
30
0
0
SPLINE
5
321
100
AcDbEntity
8
0
100
AcDbSpline
70
0
71
2
72
6
73
3
74
0
42
0.000000001
43
0.0000000001
44
0.0000000001
40
0
40
0
40
0
40
1
40
1
40
1
10
8.3071414916330735
20
179.78948498757217
30
0
10
8.2318967229865727
20
179.86472975621865
30
0
10
8.1711218103708347
20
179.98917338406892
30
0
0
ENDSEC
0
SECTION
2
OBJECTS
0
DICTIONARY
5
C
100
AcDbDictionary
3
ACAD_GROUP
350
D
3
ACAD_MLINESTYLE
350
17
0
DICTIONARY
5
D
100
AcDbDictionary
0
DICTIONARY
5
1A
330
C
100
AcDbDictionary
0
DICTIONARY
5
17
100
AcDbDictionary
0
ENDSEC
0
EOF
