0
SECTION
2
HEADER
9
$INSUNITS
70
4
9
$ACADVER
1
AC1014
9
$HANDSEED
5
FFFF
0
ENDSEC
0
SECTION
2
TABLES
0
TABLE
2
VPORT
5
8
100
AcDbSymbolTable
0
ENDTAB
0
TABLE
2
LTYPE
5
5
100
AcDbSymbolTable
0
LTYPE
5
14
100
AcDbSymbolTableRecord
100
AcDbLinetypeTableRecord
2
BYBLOCK
70
0
0
LTYPE
5
15
100
AcDbSymbolTableRecord
100
AcDbLinetypeTableRecord
2
BYLAYER
70
0
0
ENDTAB
0
TABLE
2
LAYER
5
2
100
AcDbSymbolTable
70
2
0
LAYER
5
50
100
AcDbSymbolTableRecord
100
AcDbLayerTableRecord
2
0
70
0
6
CONTINUOUS
0
ENDTAB
0
TABLE
2
STYLE
5
3
100
AcDbSymbolTable
70
1
0
STYLE
5
11
100
AcDbSymbolTableRecord
100
AcDbTextStyleTableRecord
2
STANDARD
70
0
0
ENDTAB
0
TABLE
2
VIEW
5
6
100
AcDbSymbolTable
70
0
0
ENDTAB
0
TABLE
2
UCS
5
7
100
AcDbSymbolTable
70
0
0
ENDTAB
0
TABLE
2
APPID
5
9
100
AcDbSymbolTable
70
2
0
APPID
5
12
100
AcDbSymbolTableRecord
100
AcDbRegAppTableRecord
2
ACAD
70
0
0
ENDTAB
0
TABLE
2
DIMSTYLE
5
A
100
AcDbSymbolTable
70
1
0
ENDTAB
0
TABLE
2
BLOCK_RECORD
5
1
100
AcDbSymbolTable
70
1
0
BLOCK_RECORD
5
1F
100
AcDbSymbolTableRecord
100
AcDbBlockTableRecord
2
*MODEL_SPACE
0
BLOCK_RECORD
5
1B
100
AcDbSymbolTableRecord
100
AcDbBlockTableRecord
2
*PAPER_SPACE
0
ENDTAB
0
ENDSEC
0
SECTION
2
BLOCKS
0
BLOCK
5
20
100
AcDbEntity
100
AcDbBlockBegin
2
*MODEL_SPACE
0
ENDBLK
5
21
100
AcDbEntity
100
AcDbBlockEnd
0
BLOCK
5
1C
100
AcDbEntity
100
AcDbBlockBegin
2
*PAPER_SPACE
0
ENDBLK
5
1D
100
AcDbEntity
100
AcDbBlockEnd
0
ENDSEC
0
SECTION
2
ENTITIES
0
CIRCLE
5
100
100
AcDbEntity
8
0
100
AcDbCircle
10
-57.500000000000057
20
-25.999999999999975
30
0
40
1.6000000000000016
210
-0
220
0
230
1
0
CIRCLE
5
101
100
AcDbEntity
8
0
100
AcDbCircle
10
22.49999999999995
20
26.000000000000046
30
0
40
1.6000000000000016
210
-0
220
0
230
1
0
CIRCLE
5
102
100
AcDbEntity
8
0
100
AcDbCircle
10
22.499999999999957
20
-25.999999999999964
30
0
40
1.6000000000000016
210
-0
220
0
230
1
0
CIRCLE
5
103
100
AcDbEntity
8
0
100
AcDbCircle
10
-57.500000000000057
20
26.000000000000036
30
0
40
1.6000000000000016
210
-0
220
0
230
1
0
LWPOLYLINE
5
104
100
AcDbEntity
8
0
100
AcDbPolyline
90
8
70
1
43
0.0
10
27.499999999999961
20
28.000000000000057
42
0.4142135623730937
10
24.499999999999957
20
31.000000000000064
10
-59.500000000000043
20
31.00000000000005
42
0.41421356237309592
10
-62.500000000000036
20
28.000000000000046
10
-62.500000000000043
20
-27.999999999999975
42
0.41421356237309592
10
-59.500000000000043
20
-30.999999999999982
10
24.499999999999957
20
-30.999999999999972
42
0.4142135623730937
10
27.499999999999957
20
-27.999999999999968
0
CIRCLE
5
105
100
AcDbEntity
8
0
100
AcDbCircle
10
22.499999999999947
20
-25.999999999999975
30
0
40
3.0000000000000004
210
0
220
-0
230
1
0
CIRCLE
5
106
100
AcDbEntity
8
0
100
AcDbCircle
10
-57.500000000000057
20
-25.999999999999975
30
0
40
3.0000000000000004
210
0
220
-0
230
1
0
CIRCLE
5
107
100
AcDbEntity
8
0
100
AcDbCircle
10
-57.500000000000057
20
26.000000000000028
30
0
40
3.0000000000000004
210
0
220
-0
230
1
0
CIRCLE
5
108
100
AcDbEntity
8
0
100
AcDbCircle
10
22.499999999999947
20
26.000000000000028
30
0
40
3.0000000000000004
210
0
220
-0
230
1
0
CIRCLE
5
109
100
AcDbEntity
8
0
100
AcDbCircle
10
-57.500000000000014
20
26
30
0
40
1.6499999999999995
210
0
220
0
230
1
0
CIRCLE
5
110
100
AcDbEntity
8
0
100
AcDbCircle
10
22.499999999999947
20
-25.999999999999975
30
0
40
1.6499999999999995
210
0
220
0
230
1
0
CIRCLE
5
111
100
AcDbEntity
8
0
100
AcDbCircle
10
-57.500000000000014
20
-25.999999999999975
30
0
40
1.6499999999999995
210
0
220
0
230
1
0
CIRCLE
5
112
100
AcDbEntity
8
0
100
AcDbCircle
10
22.499999999999947
20
26
30
0
40
1.6499999999999995
210
0
220
0
230
1
0
CIRCLE
5
113
100
AcDbEntity
8
0
100
AcDbCircle
10
-5.000000000000048
20
64.999999999999972
30
0
40
1.6499999999999995
210
0
220
-0
230
1
0
CIRCLE
5
114
100
AcDbEntity
8
0
100
AcDbCircle
10
4.9999999999999458
20
-64.999999999999972
30
0
40
1.6500000000000001
210
0
220
-0
230
1
0
CIRCLE
5
115
100
AcDbEntity
8
0
100
AcDbCircle
10
-71
20
4.9999999999999805
30
0
40
1.6499999999999995
210
0
220
-0
230
1
0
CIRCLE
5
116
100
AcDbEntity
8
0
100
AcDbCircle
10
70.999999999999929
20
-4.9999999999999982
30
0
40
1.6499999999999995
210
0
220
-0
230
1
0
CIRCLE
5
117
100
AcDbEntity
8
0
100
AcDbCircle
10
4.9999999999999458
20
64.999999999999972
30
0
40
1.6499999999999995
210
0
220
-0
230
1
0
CIRCLE
5
118
100
AcDbEntity
8
0
100
AcDbCircle
10
-5.000000000000048
20
-64.999999999999972
30
0
40
1.6499999999999995
210
0
220
-0
230
1
0
CIRCLE
5
119
100
AcDbEntity
8
0
100
AcDbCircle
10
-71
20
-5.000000000000016
30
0
40
1.6499999999999995
210
0
220
-0
230
1
0
CIRCLE
5
120
100
AcDbEntity
8
0
100
AcDbCircle
10
70.999999999999929
20
4.9999999999999982
30
0
40
1.6499999999999995
210
0
220
-0
230
1
0
LWPOLYLINE
5
121
100
AcDbEntity
8
0
100
AcDbPolyline
90
14
70
1
43
0.0
10
-6.2540333075852041
20
-59.999999999999964
42
0.34199871311964497
10
-10.127016653792623
20
-62.999999999999964
42
-0.34199871311964636
10
-14.000000000000032
20
-65.999999999999957
10
-50.500000000000014
20
-65.999999999999957
42
-0.41421356237309503
10
-54.500000000000014
20
-61.999999999999964
10
-54.500000000000014
20
-32.999999999999979
42
-0.41421356237309503
10
-50.500000000000014
20
-28.999999999999979
10
15.499999999999954
20
-28.999999999999972
42
-0.4142135623730952
10
19.49999999999995
20
-32.999999999999979
10
19.499999999999954
20
-61.999999999999972
42
-0.41421356237309537
10
15.499999999999947
20
-65.999999999999972
10
13.999999999999943
20
-65.999999999999972
42
-0.34199871311964636
10
10.127016653792531
20
-62.999999999999972
42
0.34199871311964664
10
6.2540333075851127
20
-59.999999999999964
0
LWPOLYLINE
5
122
100
AcDbEntity
8
0
100
AcDbPolyline
90
14
70
1
43
0.0
10
-69
20
-9.8729833462074286
42
0.34199871311964636
10
-66.000000000000014
20
-6.0000000000000124
10
-66.000000000000014
20
6.2540333075851473
42
0.34199871311964503
10
-69
20
10.127016653792554
42
-0.34199871311964686
10
-72.000000000000014
20
13.999999999999979
10
-72.000000000000014
20
18.999999999999979
42
-0.41421356237309437
10
-68.000000000000014
20
22.999999999999975
10
-64.500000000000014
20
22.999999999999972
42
-0.41421356237309503
10
-60.500000000000028
20
18.999999999999979
10
-60.500000000000028
20
-18.999999999999979
42
-0.41421356237309503
10
-64.500000000000014
20
-22.999999999999975
10
-68
20
-22.999999999999972
42
-0.41421356237309503
10
-72
20
-18.999999999999979
10
-72
20
-13.745966692414841
42
-0.34199871311964691
0
LWPOLYLINE
5
123
100
AcDbEntity
8
0
100
AcDbPolyline
90
8
70
1
43
0.0
10
-60.500000000000028
20
-32.999999999999979
42
0.41421356237309537
10
-64.500000000000014
20
-28.999999999999972
10
-68
20
-28.999999999999979
42
0.41421356237309503
10
-72
20
-32.999999999999979
10
-72
20
-61.999999999999964
42
0.41421356237309503
10
-68
20
-65.999999999999972
10
-64.500000000000014
20
-65.999999999999957
42
0.41421356237309503
10
-60.500000000000014
20
-61.999999999999964
0
LWPOLYLINE
5
124
100
AcDbEntity
8
0
100
AcDbPolyline
90
8
70
1
43
0.0
10
-54.500000000000014
20
-18.999999999999979
42
0.41421356237309503
10
-50.500000000000014
20
-22.999999999999975
10
15.499999999999947
20
-22.999999999999975
42
0.4142135623730952
10
19.49999999999995
20
-18.999999999999979
10
19.49999999999995
20
18.999999999999979
42
0.41421356237309492
10
15.499999999999954
20
22.999999999999975
10
-50.500000000000014
20
22.999999999999975
42
0.41421356237309503
10
-54.500000000000021
20
18.999999999999979
0
LWPOLYLINE
5
125
100
AcDbEntity
8
0
100
AcDbPolyline
90
7
70
1
43
0.0
10
29.499999999999943
20
-28.999999999999972
10
71.999999999999943
20
-28.999999999999972
10
71.999999999999943
20
-61.999999999999972
42
-0.41421356237309503
10
67.999999999999943
20
-65.999999999999972
10
29.49999999999995
20
-65.999999999999972
42
-0.4142135623730947
10
25.499999999999943
20
-61.999999999999986
10
25.49999999999994
20
-32.999999999999979
42
-0.41421356237309503
0
LWPOLYLINE
5
126
100
AcDbEntity
8
0
100
AcDbPolyline
90
8
70
1
43
0.0
10
71.999999999999943
20
61.999999999999972
42
0.4142135623730957
10
67.999999999999943
20
65.999999999999972
10
29.499999999999943
20
65.999999999999972
42
0.41421356237309503
10
25.499999999999943
20
61.999999999999972
10
25.499999999999943
20
32.999999999999979
42
0.4142135623730957
10
29.49999999999995
20
28.999999999999972
10
67.999999999999943
20
28.999999999999968
42
0.41421356237309503
10
71.999999999999943
20
32.999999999999964
0
LWPOLYLINE
5
127
100
AcDbEntity
8
0
100
AcDbPolyline
90
8
70
1
43
0.0
10
-60.500000000000028
20
61.999999999999964
42
0.41421356237309503
10
-64.500000000000014
20
65.999999999999957
10
-68
20
65.999999999999957
42
0.4142135623730957
10
-72
20
61.999999999999964
10
-72
20
32.999999999999972
42
0.41421356237309503
10
-68
20
28.999999999999972
10
-64.500000000000014
20
28.999999999999979
42
0.41421356237309503
10
-60.500000000000014
20
32.999999999999979
0
LWPOLYLINE
5
128
100
AcDbEntity
8
0
100
AcDbPolyline
90
4
70
1
43
0.0
10
-82.000000000000028
20
81.999999999999957
10
-82.000000000000028
20
-81.999999999999957
10
81.999999999999957
20
-81.999999999999957
10
81.999999999999957
20
81.999999999999957
0
LWPOLYLINE
5
129
100
AcDbEntity
8
0
100
AcDbPolyline
90
14
70
1
43
0.0
10
-9.8729833462074605
20
62.999999999999972
42
0.34199871311964736
10
-6.0000000000000417
20
59.999999999999964
10
6.2540333075851144
20
59.999999999999964
42
0.34199871311964664
10
10.127016653792527
20
62.999999999999979
42
-0.3419987131196463
10
13.999999999999943
20
65.999999999999972
10
15.499999999999947
20
65.999999999999972
42
-0.4142135623730947
10
19.49999999999995
20
61.999999999999986
10
19.49999999999995
20
32.999999999999979
42
-0.4142135623730952
10
15.499999999999947
20
28.999999999999979
10
-50.500000000000028
20
28.999999999999979
42
-0.4142135623730947
10
-54.500000000000014
20
32.999999999999979
10
-54.500000000000014
20
61.999999999999972
42
-0.41421356237309503
10
-50.500000000000014
20
65.999999999999972
10
-13.745966692414884
20
65.999999999999972
42
-0.3419987131196468
0
LWPOLYLINE
5
130
100
AcDbEntity
8
0
100
AcDbPolyline
90
14
70
1
43
0.0
10
71.999999999999943
20
-13.745966692414822
42
0.34199871311964586
10
68.999999999999943
20
-9.8729833462074073
42
-0.34199871311964675
10
65.999999999999943
20
-6
10
65.999999999999943
20
6.2540333075851597
42
-0.34199871311964575
10
68.999999999999943
20
10.127016653792575
42
0.34199871311964636
10
71.999999999999943
20
13.999999999999988
10
71.999999999999943
20
18.999999999999986
42
0.41421356237309503
10
67.999999999999943
20
22.999999999999975
10
29.499999999999943
20
22.999999999999975
42
0.41421356237309503
10
25.499999999999943
20
18.999999999999979
10
25.499999999999943
20
-18.999999999999979
42
0.41421356237309537
10
29.49999999999995
20
-22.999999999999975
10
67.999999999999943
20
-22.999999999999975
42
0.41421356237309503
10
71.999999999999943
20
-18.999999999999979
0
ENDSEC
0
SECTION
2
OBJECTS
0
DICTIONARY
5
C
100
AcDbDictionary
3
ACAD_GROUP
350
D
3
ACAD_MLINESTYLE
350
17
0
DICTIONARY
5
D
100
AcDbDictionary
0
DICTIONARY
5
1A
330
C
100
AcDbDictionary
0
DICTIONARY
5
17
100
AcDbDictionary
0
ENDSEC
0
EOF
