M48
; DRILL file {KiCad (6.0.11)} date Sat Feb 10 16:43:21 2024
; FORMAT={-:-/ absolute / inch / decimal}
; #@! TF.CreationDate,2024-02-10T16:43:21+09:00
; #@! TF.GenerationSoftware,Kicad,Pcbnew,(6.0.11)
; #@! TF.FileFunction,Plated,1,2,PTH
FMAT,2
INCH
; #@! TA.AperFunction,Plated,PTH,ViaDrill
T1C0.0118
; #@! TA.AperFunction,Plated,PTH,ViaDrill
T2C0.0157
; #@! TA.AperFunction,Plated,PTH,ComponentDrill
T3C0.0256
; #@! TA.AperFunction,Plated,PTH,ComponentDrill
T4C0.0335
; #@! TA.AperFunction,Plated,PTH,ComponentDrill
T5C0.0394
%
G90
G05
T1
X4.9201Y-3.8992
X4.9213Y-3.4646
X5.0982Y-3.5907
X5.1217Y-3.8138
X5.1217Y-3.9358
X5.1217Y-4.0
X5.1654Y-4.0394
X5.2276Y-3.9382
X5.2441Y-4.0079
X5.2626Y-3.8441
X5.2626Y-3.8126
X5.3071Y-4.1417
X5.3224Y-3.5402
X5.3304Y-3.6322
X5.3533Y-3.2043
X5.3908Y-3.6927
X5.3925Y-3.1051
X5.4172Y-3.8281
X5.4356Y-3.7647
X5.4409Y-4.1575
X5.4685Y-3.1622
X5.5315Y-3.9587
X5.5337Y-3.8881
X5.5345Y-3.8389
X5.535Y-3.3413
X5.5508Y-3.9146
X5.5537Y-3.8639
X5.5554Y-3.813
X5.5634Y-3.5169
X5.5634Y-3.7826
X5.5795Y-4.0571
X5.5933Y-3.298
X5.5941Y-3.1035
X5.6214Y-3.1654
X5.6224Y-3.2669
X5.6538Y-3.9949
X5.6571Y-3.4654
X5.6581Y-3.2031
X5.6642Y-4.1067
X5.6815Y-3.9658
X5.8339Y-3.6291
X5.8854Y-3.6374
X6.0232Y-3.7583
X6.1524Y-3.6858
X6.2008Y-3.7787
X6.2437Y-3.635
T2
X4.5669Y-3.1496
X4.5669Y-3.3465
X4.5669Y-3.5433
X4.5669Y-3.7402
X4.5669Y-3.937
X4.5669Y-4.1339
X4.5669Y-4.3307
X4.5669Y-4.5669
X4.6969Y-3.8268
X4.7035Y-3.6579
X4.8031Y-3.1496
X4.8031Y-3.3465
X4.8031Y-4.1339
X4.8031Y-4.3307
X4.8031Y-4.5669
X4.8409Y-3.7701
X4.8736Y-4.0094
X4.8803Y-3.635
X4.9248Y-3.7528
X4.9657Y-4.2913
X4.9803Y-3.8976
X5.0Y-3.1496
X5.0Y-3.3465
X5.0224Y-3.9638
X5.0319Y-3.7244
X5.0378Y-4.076
X5.039Y-3.4315
X5.0787Y-4.3307
X5.0787Y-4.5669
X5.0858Y-3.6768
X5.0858Y-3.7097
X5.0858Y-4.172
X5.1382Y-3.7791
X5.1524Y-3.8701
X5.1555Y-4.2354
X5.1669Y-4.1047
X5.1732Y-3.5685
X5.1969Y-3.1496
X5.222Y-3.7344
X5.2264Y-3.8729
X5.2276Y-4.1638
X5.2315Y-3.5382
X5.2618Y-3.4504
X5.2774Y-4.2797
X5.2858Y-4.2185
X5.2921Y-4.3776
X5.3035Y-4.3059
X5.315Y-4.5669
X5.3161Y-3.302
X5.424Y-3.3941
X5.4539Y-4.4327
X5.4831Y-3.9575
X5.4866Y-3.4528
X5.5043Y-4.248
X5.5366Y-4.0142
X5.5512Y-4.5669
X5.5795Y-3.4177
X5.6017Y-4.1384
X5.6295Y-4.4291
X5.6344Y-4.1474
X5.6344Y-4.3974
X5.665Y-3.2606
X5.6748Y-3.3531
X5.6949Y-3.7665
X5.6976Y-3.9035
X5.6988Y-3.5165
X5.7055Y-3.6654
X5.7232Y-3.9843
X5.7264Y-4.0697
X5.748Y-3.1496
X5.7551Y-4.3283
X5.7559Y-4.1902
X5.8268Y-4.5669
X5.8323Y-4.0697
X5.8327Y-4.239
X5.8394Y-3.8768
X5.8406Y-3.7736
X5.8516Y-3.5378
X5.9173Y-3.9642
X5.9449Y-3.1496
X5.9685Y-3.7154
X6.0039Y-4.2409
X6.0118Y-3.9209
X6.0236Y-4.6063
X6.1024Y-4.4882
X6.1142Y-3.4807
X6.1417Y-3.1496
X6.1417Y-3.3858
X6.1417Y-4.3307
X6.1453Y-3.6134
X6.1559Y-3.5752
X6.1811Y-4.6063
X6.2283Y-3.8689
X6.3224Y-4.1075
X6.378Y-3.1496
X6.378Y-3.3858
X6.378Y-3.6386
X6.378Y-4.3307
X6.378Y-4.5669
X6.415Y-3.776
X6.4165Y-3.5161
T3
X5.7878Y-3.6657
X5.9138Y-3.5673
X5.9138Y-3.7642
T4
X4.7728Y-3.7291
X4.7728Y-3.8276
X4.7728Y-3.926
X4.7728Y-4.0244
X5.0681Y-3.3579
X5.1665Y-3.3579
X5.265Y-3.3579
X5.3634Y-3.3579
X5.7669Y-3.3579
X5.8654Y-3.3579
T5
X4.7472Y-3.5071
X6.1126Y-4.574
X6.3307Y-3.7276
X6.3307Y-3.8276
X6.3307Y-3.9276
X6.3307Y-4.0276
X6.3646Y-4.2591
T0
M30
