%TF.GenerationSoftware,KiCad,Pcbnew,(6.0.11)*%
%TF.CreationDate,2024-03-01T02:38:12+09:00*%
%TF.ProjectId,Encoder,456e636f-6465-4722-9e6b-696361645f70,rev?*%
%TF.SameCoordinates,Original*%
%TF.FileFunction,Paste,Bot*%
%TF.FilePolarity,Positive*%
%FSLAX46Y46*%
G04 Gerber Fmt 4.6, Leading zero omitted, Abs format (unit mm)*
G04 Created by KiCad (PCBNEW (6.0.11)) date 2024-03-01 02:38:12*
%MOMM*%
%LPD*%
G01*
G04 APERTURE LIST*
G04 Aperture macros list*
%AMRoundRect*
0 Rectangle with rounded corners*
0 $1 Rounding radius*
0 $2 $3 $4 $5 $6 $7 $8 $9 X,Y pos of 4 corners*
0 Add a 4 corners polygon primitive as box body*
4,1,4,$2,$3,$4,$5,$6,$7,$8,$9,$2,$3,0*
0 Add four circle primitives for the rounded corners*
1,1,$1+$1,$2,$3*
1,1,$1+$1,$4,$5*
1,1,$1+$1,$6,$7*
1,1,$1+$1,$8,$9*
0 Add four rect primitives between the rounded corners*
20,1,$1+$1,$2,$3,$4,$5,0*
20,1,$1+$1,$4,$5,$6,$7,0*
20,1,$1+$1,$6,$7,$8,$9,0*
20,1,$1+$1,$8,$9,$2,$3,0*%
G04 Aperture macros list end*
%ADD10RoundRect,0.135000X0.135000X0.185000X-0.135000X0.185000X-0.135000X-0.185000X0.135000X-0.185000X0*%
%ADD11RoundRect,0.200000X0.275000X-0.200000X0.275000X0.200000X-0.275000X0.200000X-0.275000X-0.200000X0*%
%ADD12RoundRect,0.140000X0.140000X0.170000X-0.140000X0.170000X-0.140000X-0.170000X0.140000X-0.170000X0*%
%ADD13RoundRect,0.135000X0.185000X-0.135000X0.185000X0.135000X-0.185000X0.135000X-0.185000X-0.135000X0*%
%ADD14RoundRect,0.135000X-0.185000X0.135000X-0.185000X-0.135000X0.185000X-0.135000X0.185000X0.135000X0*%
%ADD15RoundRect,0.135000X-0.135000X-0.185000X0.135000X-0.185000X0.135000X0.185000X-0.135000X0.185000X0*%
%ADD16RoundRect,0.150000X0.587500X0.150000X-0.587500X0.150000X-0.587500X-0.150000X0.587500X-0.150000X0*%
%ADD17RoundRect,0.225000X0.225000X0.250000X-0.225000X0.250000X-0.225000X-0.250000X0.225000X-0.250000X0*%
%ADD18RoundRect,0.140000X-0.140000X-0.170000X0.140000X-0.170000X0.140000X0.170000X-0.140000X0.170000X0*%
%ADD19RoundRect,0.225000X-0.225000X-0.250000X0.225000X-0.250000X0.225000X0.250000X-0.225000X0.250000X0*%
%ADD20RoundRect,0.250000X-0.475000X0.250000X-0.475000X-0.250000X0.475000X-0.250000X0.475000X0.250000X0*%
%ADD21RoundRect,0.140000X-0.170000X0.140000X-0.170000X-0.140000X0.170000X-0.140000X0.170000X0.140000X0*%
%ADD22R,2.750000X3.050000*%
%ADD23R,1.200000X2.200000*%
%ADD24R,1.000000X0.700000*%
%ADD25RoundRect,0.150000X-0.675000X-0.150000X0.675000X-0.150000X0.675000X0.150000X-0.675000X0.150000X0*%
%ADD26R,0.700000X1.000000*%
%ADD27RoundRect,0.200000X0.200000X0.275000X-0.200000X0.275000X-0.200000X-0.275000X0.200000X-0.275000X0*%
%ADD28R,1.000000X1.000000*%
%ADD29RoundRect,0.200000X-0.275000X0.200000X-0.275000X-0.200000X0.275000X-0.200000X0.275000X0.200000X0*%
%ADD30R,2.000000X4.500000*%
%ADD31RoundRect,0.150000X0.150000X-0.675000X0.150000X0.675000X-0.150000X0.675000X-0.150000X-0.675000X0*%
%ADD32RoundRect,0.150000X-0.150000X0.587500X-0.150000X-0.587500X0.150000X-0.587500X0.150000X0.587500X0*%
%ADD33RoundRect,0.100000X-0.637500X-0.100000X0.637500X-0.100000X0.637500X0.100000X-0.637500X0.100000X0*%
G04 APERTURE END LIST*
D10*
%TO.C,R27*%
X141870000Y-82330000D03*
X140850000Y-82330000D03*
%TD*%
%TO.C,R29*%
X131760000Y-96870000D03*
X130740000Y-96870000D03*
%TD*%
D11*
%TO.C,R12*%
X144250000Y-110405000D03*
X144250000Y-108755000D03*
%TD*%
D12*
%TO.C,C12*%
X134640000Y-99980000D03*
X133680000Y-99980000D03*
%TD*%
D10*
%TO.C,R3*%
X139510000Y-91110000D03*
X138490000Y-91110000D03*
%TD*%
D13*
%TO.C,R2*%
X157700000Y-92100000D03*
X157700000Y-91080000D03*
%TD*%
D14*
%TO.C,R30*%
X124839999Y-88890002D03*
X124839999Y-89910002D03*
%TD*%
%TO.C,R11*%
X158610000Y-106490000D03*
X158610000Y-107510000D03*
%TD*%
%TO.C,R13*%
X150220000Y-101930000D03*
X150220000Y-102950000D03*
%TD*%
D15*
%TO.C,R31*%
X129575000Y-89450001D03*
X130595000Y-89450001D03*
%TD*%
D16*
%TO.C,Q12*%
X133197500Y-93579999D03*
X133197500Y-95479999D03*
X131322500Y-94529999D03*
%TD*%
D17*
%TO.C,C5*%
X127475000Y-116000000D03*
X125925000Y-116000000D03*
%TD*%
D18*
%TO.C,C15*%
X129600000Y-90590001D03*
X130560000Y-90590001D03*
%TD*%
D10*
%TO.C,R1*%
X139510000Y-89960000D03*
X138490000Y-89960000D03*
%TD*%
D19*
%TO.C,C6*%
X124250000Y-100100000D03*
X125800000Y-100100000D03*
%TD*%
D13*
%TO.C,R10*%
X157610000Y-89410000D03*
X157610000Y-88390000D03*
%TD*%
D14*
%TO.C,R7*%
X157690000Y-93230000D03*
X157690000Y-94250000D03*
%TD*%
D20*
%TO.C,C9*%
X144290000Y-112300000D03*
X144290000Y-114200000D03*
%TD*%
D21*
%TO.C,C3*%
X154810000Y-106440000D03*
X154810000Y-107400000D03*
%TD*%
D20*
%TO.C,C8*%
X156690000Y-106050000D03*
X156690000Y-107950000D03*
%TD*%
D22*
%TO.C,U1*%
X151785000Y-113525000D03*
X148735000Y-113525000D03*
X151785000Y-110175000D03*
X148735000Y-110175000D03*
D23*
X147980000Y-105550000D03*
X150260000Y-105550000D03*
X152540000Y-105550000D03*
%TD*%
D24*
%TO.C,Q3*%
X152700000Y-94700000D03*
X152700000Y-92800000D03*
X155100000Y-93750000D03*
%TD*%
D10*
%TO.C,R5*%
X139510000Y-92240000D03*
X138490000Y-92240000D03*
%TD*%
D21*
%TO.C,C4*%
X146080000Y-113020000D03*
X146080000Y-113980000D03*
%TD*%
D25*
%TO.C,U3*%
X136375000Y-109905000D03*
X136375000Y-108635000D03*
X136375000Y-107365000D03*
X136375000Y-106095000D03*
X141625000Y-106095000D03*
X141625000Y-107365000D03*
X141625000Y-108635000D03*
X141625000Y-109905000D03*
%TD*%
D10*
%TO.C,R24*%
X141850000Y-81180000D03*
X140830000Y-81180000D03*
%TD*%
D26*
%TO.C,Q1*%
X154850000Y-90700000D03*
X152950000Y-90700000D03*
X153900000Y-88300000D03*
%TD*%
D21*
%TO.C,C1*%
X158750000Y-93260000D03*
X158750000Y-94220000D03*
%TD*%
D27*
%TO.C,R28*%
X132930000Y-91920000D03*
X131280000Y-91920000D03*
%TD*%
D15*
%TO.C,R9*%
X157640000Y-95310000D03*
X158660000Y-95310000D03*
%TD*%
D28*
%TO.C,D2*%
X155110000Y-98490000D03*
X152610000Y-98490000D03*
%TD*%
D18*
%TO.C,C2*%
X136430000Y-111690000D03*
X137390000Y-111690000D03*
%TD*%
D10*
%TO.C,R8*%
X139510000Y-94500000D03*
X138490000Y-94500000D03*
%TD*%
D12*
%TO.C,C7*%
X134660000Y-98460000D03*
X133700000Y-98460000D03*
%TD*%
D10*
%TO.C,R4*%
X141830000Y-80040000D03*
X140810000Y-80040000D03*
%TD*%
D15*
%TO.C,R32*%
X129585000Y-88290001D03*
X130605000Y-88290001D03*
%TD*%
D29*
%TO.C,R14*%
X144200000Y-105345000D03*
X144200000Y-106995000D03*
%TD*%
D28*
%TO.C,D3*%
X155110000Y-101500000D03*
X152610000Y-101500000D03*
%TD*%
D30*
%TO.C,Y1*%
X125950000Y-103950000D03*
X125950000Y-112450000D03*
%TD*%
D31*
%TO.C,U2*%
X129180000Y-97535001D03*
X127910000Y-97535001D03*
X126640000Y-97535001D03*
X125370000Y-97535001D03*
X125370000Y-92285001D03*
X126640000Y-92285001D03*
X127910000Y-92285001D03*
X129180000Y-92285001D03*
%TD*%
D32*
%TO.C,Q2*%
X159180000Y-89462500D03*
X161080000Y-89462500D03*
X160130000Y-91337500D03*
%TD*%
D33*
%TO.C,U4*%
X136377500Y-102025000D03*
X136377500Y-101375000D03*
X136377500Y-100725000D03*
X136377500Y-100075000D03*
X136377500Y-99425000D03*
X136377500Y-98775000D03*
X136377500Y-98125000D03*
X136377500Y-97475000D03*
X136377500Y-96825000D03*
X136377500Y-96175000D03*
X142102500Y-96175000D03*
X142102500Y-96825000D03*
X142102500Y-97475000D03*
X142102500Y-98125000D03*
X142102500Y-98775000D03*
X142102500Y-99425000D03*
X142102500Y-100075000D03*
X142102500Y-100725000D03*
X142102500Y-101375000D03*
X142102500Y-102025000D03*
%TD*%
D10*
%TO.C,R6*%
X139510000Y-93370000D03*
X138490000Y-93370000D03*
%TD*%
M02*
