%TF.GenerationSoftware,KiCad,Pcbnew,(6.0.11)*%
%TF.CreationDate,2024-03-01T02:38:12+09:00*%
%TF.ProjectId,Encoder,456e636f-6465-4722-9e6b-696361645f70,rev?*%
%TF.SameCoordinates,Original*%
%TF.FileFunction,Soldermask,Top*%
%TF.FilePolarity,Negative*%
%FSLAX46Y46*%
G04 Gerber Fmt 4.6, Leading zero omitted, Abs format (unit mm)*
G04 Created by KiCad (PCBNEW (6.0.11)) date 2024-03-01 02:38:12*
%MOMM*%
%LPD*%
G01*
G04 APERTURE LIST*
G04 Aperture macros list*
%AMRoundRect*
0 Rectangle with rounded corners*
0 $1 Rounding radius*
0 $2 $3 $4 $5 $6 $7 $8 $9 X,Y pos of 4 corners*
0 Add a 4 corners polygon primitive as box body*
4,1,4,$2,$3,$4,$5,$6,$7,$8,$9,$2,$3,0*
0 Add four circle primitives for the rounded corners*
1,1,$1+$1,$2,$3*
1,1,$1+$1,$4,$5*
1,1,$1+$1,$6,$7*
1,1,$1+$1,$8,$9*
0 Add four rect primitives between the rounded corners*
20,1,$1+$1,$2,$3,$4,$5,0*
20,1,$1+$1,$4,$5,$6,$7,0*
20,1,$1+$1,$6,$7,$8,$9,0*
20,1,$1+$1,$8,$9,$2,$3,0*%
G04 Aperture macros list end*
%ADD10C,2.000000*%
%ADD11RoundRect,0.237500X-0.287500X-0.237500X0.287500X-0.237500X0.287500X0.237500X-0.287500X0.237500X0*%
%ADD12R,1.700000X1.700000*%
%ADD13O,1.700000X1.700000*%
%ADD14R,1.500000X1.500000*%
%ADD15R,1.400000X1.600000*%
%ADD16R,2.000000X1.780000*%
%ADD17RoundRect,0.381000X-0.381000X-0.381000X0.381000X-0.381000X0.381000X0.381000X-0.381000X0.381000X0*%
%ADD18C,1.524000*%
%ADD19RoundRect,0.250000X-0.600000X-0.675000X0.600000X-0.675000X0.600000X0.675000X-0.600000X0.675000X0*%
%ADD20O,1.700000X1.850000*%
%ADD21RoundRect,0.250000X0.675000X-0.600000X0.675000X0.600000X-0.675000X0.600000X-0.675000X-0.600000X0*%
%ADD22O,1.850000X1.700000*%
G04 APERTURE END LIST*
D10*
%TO.C,TP1*%
X161660000Y-108180000D03*
%TD*%
%TO.C,TP2*%
X155260000Y-116180000D03*
%TD*%
%TO.C,TP3*%
X120580000Y-89080000D03*
%TD*%
D11*
%TO.C,D8*%
X141965000Y-81360000D03*
X143715000Y-81360000D03*
%TD*%
D12*
%TO.C,J4*%
X160800000Y-102300000D03*
D13*
X160800000Y-99760000D03*
X160800000Y-97220000D03*
X160800000Y-94680000D03*
%TD*%
D14*
%TO.C,H2*%
X133600000Y-103600000D03*
%TD*%
D11*
%TO.C,D5*%
X138125000Y-81360000D03*
X139875000Y-81360000D03*
%TD*%
D14*
%TO.C,H1*%
X136200000Y-103600000D03*
%TD*%
D15*
%TO.C,SW3*%
X126500000Y-99000000D03*
X126500000Y-91000000D03*
X131000000Y-99000000D03*
X131000000Y-91000000D03*
%TD*%
D14*
%TO.C,H8*%
X156900000Y-89220000D03*
%TD*%
D16*
%TO.C,SW1*%
X135190000Y-89920000D03*
X135190000Y-92460000D03*
X135190000Y-95000000D03*
X135190000Y-97540000D03*
X135190000Y-100080000D03*
X142810000Y-100080000D03*
X142810000Y-97540000D03*
X142810000Y-95000000D03*
X142810000Y-92460000D03*
X142810000Y-89920000D03*
%TD*%
D11*
%TO.C,D1*%
X134225000Y-81390000D03*
X135975000Y-81390000D03*
%TD*%
D17*
%TO.C,SW2*%
X150210000Y-90610000D03*
D18*
X147010000Y-93110000D03*
X150210000Y-95610000D03*
%TD*%
D19*
%TO.C,J2*%
X128730000Y-85290000D03*
D20*
X131230000Y-85290000D03*
X133730000Y-85290000D03*
X136230000Y-85290000D03*
%TD*%
D21*
%TO.C,J3*%
X121230000Y-102220000D03*
D22*
X121230000Y-99720000D03*
X121230000Y-97220000D03*
X121230000Y-94720000D03*
%TD*%
D19*
%TO.C,J1*%
X146480000Y-85290000D03*
D20*
X148980000Y-85290000D03*
%TD*%
M02*
