%TF.GenerationSoftware,KiCad,Pcbnew,(6.0.11)*%
%TF.CreationDate,2024-02-10T22:55:27+09:00*%
%TF.ProjectId,LargeMD,4c617267-654d-4442-9e6b-696361645f70,rev?*%
%TF.SameCoordinates,Original*%
%TF.FileFunction,Soldermask,Top*%
%TF.FilePolarity,Negative*%
%FSLAX46Y46*%
G04 Gerber Fmt 4.6, Leading zero omitted, Abs format (unit mm)*
G04 Created by KiCad (PCBNEW (6.0.11)) date 2024-02-10 22:55:27*
%MOMM*%
%LPD*%
G01*
G04 APERTURE LIST*
G04 Aperture macros list*
%AMRoundRect*
0 Rectangle with rounded corners*
0 $1 Rounding radius*
0 $2 $3 $4 $5 $6 $7 $8 $9 X,Y pos of 4 corners*
0 Add a 4 corners polygon primitive as box body*
4,1,4,$2,$3,$4,$5,$6,$7,$8,$9,$2,$3,0*
0 Add four circle primitives for the rounded corners*
1,1,$1+$1,$2,$3*
1,1,$1+$1,$4,$5*
1,1,$1+$1,$6,$7*
1,1,$1+$1,$8,$9*
0 Add four rect primitives between the rounded corners*
20,1,$1+$1,$2,$3,$4,$5,0*
20,1,$1+$1,$4,$5,$6,$7,0*
20,1,$1+$1,$6,$7,$8,$9,0*
20,1,$1+$1,$8,$9,$2,$3,0*%
G04 Aperture macros list end*
%ADD10R,3.400000X2.600000*%
%ADD11R,1.500000X2.000000*%
%ADD12C,1.700000*%
%ADD13RoundRect,0.425000X0.425000X0.425000X-0.425000X0.425000X-0.425000X-0.425000X0.425000X-0.425000X0*%
%ADD14R,1.500000X1.500000*%
%ADD15RoundRect,0.250000X-0.675000X0.600000X-0.675000X-0.600000X0.675000X-0.600000X0.675000X0.600000X0*%
%ADD16O,1.850000X1.700000*%
%ADD17C,1.400000*%
%ADD18R,3.500000X3.500000*%
%ADD19C,3.500000*%
%ADD20RoundRect,0.237500X-0.287500X-0.237500X0.287500X-0.237500X0.287500X0.237500X-0.287500X0.237500X0*%
%ADD21RoundRect,0.250001X1.999999X0.799999X-1.999999X0.799999X-1.999999X-0.799999X1.999999X-0.799999X0*%
%ADD22RoundRect,0.250000X0.600000X0.675000X-0.600000X0.675000X-0.600000X-0.675000X0.600000X-0.675000X0*%
%ADD23O,1.700000X1.850000*%
%ADD24RoundRect,0.250001X-1.999999X-0.799999X1.999999X-0.799999X1.999999X0.799999X-1.999999X0.799999X0*%
%ADD25RoundRect,0.381000X-0.381000X0.381000X-0.381000X-0.381000X0.381000X-0.381000X0.381000X0.381000X0*%
%ADD26C,1.524000*%
%ADD27RoundRect,0.250001X0.799999X-1.999999X0.799999X1.999999X-0.799999X1.999999X-0.799999X-1.999999X0*%
%ADD28R,1.700000X1.700000*%
%ADD29O,1.700000X1.700000*%
%ADD30RoundRect,0.250000X-0.600000X-0.675000X0.600000X-0.675000X0.600000X0.675000X-0.600000X0.675000X0*%
%ADD31R,1.400000X1.600000*%
%ADD32RoundRect,0.237500X0.287500X0.237500X-0.287500X0.237500X-0.287500X-0.237500X0.287500X-0.237500X0*%
%ADD33R,1.600000X1.600000*%
%ADD34O,1.600000X1.600000*%
%ADD35C,2.000000*%
%ADD36R,1.000000X1.000000*%
%ADD37O,1.000000X1.000000*%
%ADD38C,1.600000*%
G04 APERTURE END LIST*
D10*
%TO.C,D2*%
X101490000Y-72750000D03*
D11*
X104710000Y-72750000D03*
%TD*%
D12*
%TO.C,SW3*%
X103040000Y-49100000D03*
X103040000Y-59260000D03*
D13*
X103040000Y-56720000D03*
D12*
X103040000Y-54180000D03*
X103040000Y-51640000D03*
%TD*%
D14*
%TO.C,H2*%
X89110000Y-51580000D03*
%TD*%
D15*
%TO.C,J10*%
X45200000Y-52100000D03*
D16*
X45200000Y-54600000D03*
X45200000Y-57100000D03*
X45200000Y-59600000D03*
%TD*%
D17*
%TO.C,J1*%
X130500000Y-38925000D03*
X119500000Y-38925000D03*
D18*
X127500000Y-48925000D03*
D19*
X122500000Y-48925000D03*
%TD*%
D20*
%TO.C,D14*%
X96475000Y-46830000D03*
X98225000Y-46830000D03*
%TD*%
D21*
%TO.C,C18*%
X71930000Y-79920000D03*
X64730000Y-79920000D03*
%TD*%
D22*
%TO.C,J8*%
X101000000Y-42500000D03*
D23*
X98500000Y-42500000D03*
X96000000Y-42500000D03*
X93500000Y-42500000D03*
%TD*%
D20*
%TO.C,D6*%
X45525000Y-38900000D03*
X47275000Y-38900000D03*
%TD*%
D24*
%TO.C,C14*%
X104600000Y-80750000D03*
X111800000Y-80750000D03*
%TD*%
D15*
%TO.C,J4*%
X45200000Y-81250000D03*
D16*
X45200000Y-83750000D03*
%TD*%
D15*
%TO.C,J9*%
X45200000Y-66650000D03*
D16*
X45200000Y-69150000D03*
X45200000Y-71650000D03*
X45200000Y-74150000D03*
%TD*%
D25*
%TO.C,SW2*%
X100171000Y-64420000D03*
D26*
X97631000Y-64420000D03*
X95091000Y-64420000D03*
%TD*%
D17*
%TO.C,J2*%
X134000000Y-44900000D03*
X145000000Y-44900000D03*
D18*
X137000000Y-49900000D03*
D19*
X142000000Y-49900000D03*
%TD*%
D27*
%TO.C,C13*%
X113350000Y-62350000D03*
X113350000Y-55150000D03*
%TD*%
D21*
%TO.C,C16*%
X99350000Y-89750000D03*
X92150000Y-89750000D03*
%TD*%
D28*
%TO.C,JP4*%
X54900000Y-72625000D03*
D29*
X54900000Y-75165000D03*
%TD*%
D30*
%TO.C,J5*%
X68500000Y-87350000D03*
D23*
X71000000Y-87350000D03*
X73500000Y-87350000D03*
%TD*%
D20*
%TO.C,D4*%
X45550000Y-43300000D03*
X47300000Y-43300000D03*
%TD*%
D22*
%TO.C,J7*%
X114500000Y-42470000D03*
D23*
X112000000Y-42470000D03*
X109500000Y-42470000D03*
X107000000Y-42470000D03*
%TD*%
D24*
%TO.C,C19*%
X64705000Y-70540000D03*
X71905000Y-70540000D03*
%TD*%
D20*
%TO.C,D5*%
X45550000Y-45700000D03*
X47300000Y-45700000D03*
%TD*%
%TO.C,D3*%
X45525000Y-41100000D03*
X47275000Y-41100000D03*
%TD*%
D17*
%TO.C,J6*%
X142850000Y-63950000D03*
X142850000Y-74950000D03*
D18*
X137850000Y-66950000D03*
D19*
X137850000Y-71950000D03*
%TD*%
D24*
%TO.C,C17*%
X104650000Y-89750000D03*
X111850000Y-89750000D03*
%TD*%
D20*
%TO.C,D18*%
X141975000Y-58830000D03*
X143725000Y-58830000D03*
%TD*%
D21*
%TO.C,C15*%
X99350000Y-80750000D03*
X92150000Y-80750000D03*
%TD*%
D31*
%TO.C,SW4*%
X93280000Y-50240000D03*
X93280000Y-58240000D03*
X97780000Y-58240000D03*
X97780000Y-50240000D03*
%TD*%
D25*
%TO.C,U1*%
X84940000Y-78300000D03*
D26*
X82400000Y-78300000D03*
X79860000Y-78300000D03*
%TD*%
D32*
%TO.C,D19*%
X143715355Y-60564645D03*
X141965355Y-60564645D03*
%TD*%
D33*
%TO.C,SW1*%
X53050000Y-81475000D03*
D34*
X53050000Y-84015000D03*
X53050000Y-86555000D03*
X53050000Y-89095000D03*
X53050000Y-91635000D03*
X60670000Y-91635000D03*
X60670000Y-89095000D03*
X60670000Y-86555000D03*
X60670000Y-84015000D03*
X60670000Y-81475000D03*
%TD*%
D32*
%TO.C,D11*%
X94597500Y-46850000D03*
X92847500Y-46850000D03*
%TD*%
D28*
%TO.C,JP3*%
X87970000Y-41010000D03*
D29*
X87970000Y-43550000D03*
%TD*%
D35*
%TO.C,TP5*%
X149120000Y-59790000D03*
%TD*%
D36*
%TO.C,J3*%
X55780000Y-43482500D03*
D37*
X55780000Y-42212500D03*
X54510000Y-43482500D03*
X54510000Y-42212500D03*
X53240000Y-43482500D03*
X53240000Y-42212500D03*
X51970000Y-43482500D03*
X51970000Y-42212500D03*
X50700000Y-43482500D03*
X50700000Y-42212500D03*
%TD*%
D38*
%TO.C,R62*%
X147700000Y-75800000D03*
D34*
X147700000Y-63100000D03*
%TD*%
D35*
%TO.C,TP4*%
X76570000Y-70330000D03*
%TD*%
M02*
