%TF.GenerationSoftware,KiCad,Pcbnew,(6.0.11)*%
%TF.CreationDate,2024-02-10T16:45:13+09:00*%
%TF.ProjectId,LargeMD,4c617267-654d-4442-9e6b-696361645f70,rev?*%
%TF.SameCoordinates,Original*%
%TF.FileFunction,Legend,Bot*%
%TF.FilePolarity,Positive*%
%FSLAX46Y46*%
G04 Gerber Fmt 4.6, Leading zero omitted, Abs format (unit mm)*
G04 Created by KiCad (PCBNEW (6.0.11)) date 2024-02-10 16:45:13*
%MOMM*%
%LPD*%
G01*
G04 APERTURE LIST*
G04 Aperture macros list*
%AMRoundRect*
0 Rectangle with rounded corners*
0 $1 Rounding radius*
0 $2 $3 $4 $5 $6 $7 $8 $9 X,Y pos of 4 corners*
0 Add a 4 corners polygon primitive as box body*
4,1,4,$2,$3,$4,$5,$6,$7,$8,$9,$2,$3,0*
0 Add four circle primitives for the rounded corners*
1,1,$1+$1,$2,$3*
1,1,$1+$1,$4,$5*
1,1,$1+$1,$6,$7*
1,1,$1+$1,$8,$9*
0 Add four rect primitives between the rounded corners*
20,1,$1+$1,$2,$3,$4,$5,0*
20,1,$1+$1,$4,$5,$6,$7,0*
20,1,$1+$1,$6,$7,$8,$9,0*
20,1,$1+$1,$8,$9,$2,$3,0*%
%AMRotRect*
0 Rectangle, with rotation*
0 The origin of the aperture is its center*
0 $1 length*
0 $2 width*
0 $3 Rotation angle, in degrees counterclockwise*
0 Add horizontal line*
21,1,$1,$2,0,0,$3*%
%AMFreePoly0*
4,1,6,1.000000,0.000000,0.500000,-0.750000,-0.500000,-0.750000,-0.500000,0.750000,0.500000,0.750000,1.000000,0.000000,1.000000,0.000000,$1*%
G04 Aperture macros list end*
%ADD10C,0.150000*%
%ADD11C,0.120000*%
%ADD12C,0.200000*%
%ADD13C,1.700000*%
%ADD14RoundRect,0.425000X0.425000X0.425000X-0.425000X0.425000X-0.425000X-0.425000X0.425000X-0.425000X0*%
%ADD15RoundRect,0.250000X-0.675000X0.600000X-0.675000X-0.600000X0.675000X-0.600000X0.675000X0.600000X0*%
%ADD16O,1.850000X1.700000*%
%ADD17C,1.400000*%
%ADD18R,3.500000X3.500000*%
%ADD19C,3.500000*%
%ADD20RoundRect,0.250000X0.600000X0.675000X-0.600000X0.675000X-0.600000X-0.675000X0.600000X-0.675000X0*%
%ADD21O,1.700000X1.850000*%
%ADD22RoundRect,0.381000X-0.381000X0.381000X-0.381000X-0.381000X0.381000X-0.381000X0.381000X0.381000X0*%
%ADD23C,1.524000*%
%ADD24R,1.700000X1.700000*%
%ADD25O,1.700000X1.700000*%
%ADD26RoundRect,0.250000X-0.600000X-0.675000X0.600000X-0.675000X0.600000X0.675000X-0.600000X0.675000X0*%
%ADD27R,1.600000X1.600000*%
%ADD28O,1.600000X1.600000*%
%ADD29RoundRect,0.250000X1.100000X-0.412500X1.100000X0.412500X-1.100000X0.412500X-1.100000X-0.412500X0*%
%ADD30RoundRect,0.135000X0.185000X-0.135000X0.185000X0.135000X-0.185000X0.135000X-0.185000X-0.135000X0*%
%ADD31RoundRect,0.135000X-0.135000X-0.185000X0.135000X-0.185000X0.135000X0.185000X-0.135000X0.185000X0*%
%ADD32RoundRect,0.250000X1.425000X-0.362500X1.425000X0.362500X-1.425000X0.362500X-1.425000X-0.362500X0*%
%ADD33RoundRect,0.140000X-0.170000X0.140000X-0.170000X-0.140000X0.170000X-0.140000X0.170000X0.140000X0*%
%ADD34R,0.900000X1.200000*%
%ADD35RoundRect,0.140000X-0.140000X-0.170000X0.140000X-0.170000X0.140000X0.170000X-0.140000X0.170000X0*%
%ADD36R,2.200000X1.200000*%
%ADD37R,6.400000X5.800000*%
%ADD38RoundRect,0.135000X-0.185000X0.135000X-0.185000X-0.135000X0.185000X-0.135000X0.185000X0.135000X0*%
%ADD39R,1.800000X2.100000*%
%ADD40C,2.000000*%
%ADD41R,1.500000X1.500000*%
%ADD42FreePoly0,0.000000*%
%ADD43FreePoly0,180.000000*%
%ADD44RoundRect,0.150000X-0.150000X0.512500X-0.150000X-0.512500X0.150000X-0.512500X0.150000X0.512500X0*%
%ADD45RoundRect,0.250000X-0.250000X-0.475000X0.250000X-0.475000X0.250000X0.475000X-0.250000X0.475000X0*%
%ADD46RoundRect,0.150000X0.587500X0.150000X-0.587500X0.150000X-0.587500X-0.150000X0.587500X-0.150000X0*%
%ADD47RoundRect,0.150000X-0.587500X-0.150000X0.587500X-0.150000X0.587500X0.150000X-0.587500X0.150000X0*%
%ADD48RoundRect,0.140000X0.021213X-0.219203X0.219203X-0.021213X-0.021213X0.219203X-0.219203X0.021213X0*%
%ADD49RoundRect,0.200000X0.200000X0.275000X-0.200000X0.275000X-0.200000X-0.275000X0.200000X-0.275000X0*%
%ADD50RoundRect,0.135000X0.135000X0.185000X-0.135000X0.185000X-0.135000X-0.185000X0.135000X-0.185000X0*%
%ADD51RoundRect,0.150000X0.150000X-0.587500X0.150000X0.587500X-0.150000X0.587500X-0.150000X-0.587500X0*%
%ADD52RoundRect,0.200000X0.275000X-0.200000X0.275000X0.200000X-0.275000X0.200000X-0.275000X-0.200000X0*%
%ADD53R,0.850000X2.225000*%
%ADD54R,4.700000X3.750000*%
%ADD55R,0.850000X1.825000*%
%ADD56R,2.000000X0.640000*%
%ADD57RoundRect,0.250000X-0.475000X0.250000X-0.475000X-0.250000X0.475000X-0.250000X0.475000X0.250000X0*%
%ADD58R,1.000000X1.000000*%
%ADD59RoundRect,0.125000X0.353553X0.530330X-0.530330X-0.353553X-0.353553X-0.530330X0.530330X0.353553X0*%
%ADD60RoundRect,0.125000X-0.353553X0.530330X-0.530330X0.353553X0.353553X-0.530330X0.530330X-0.353553X0*%
%ADD61RoundRect,0.200000X-0.275000X0.200000X-0.275000X-0.200000X0.275000X-0.200000X0.275000X0.200000X0*%
%ADD62RotRect,1.000000X1.000000X45.000000*%
%ADD63RoundRect,0.140000X0.170000X-0.140000X0.170000X0.140000X-0.170000X0.140000X-0.170000X-0.140000X0*%
%ADD64R,1.200000X0.900000*%
%ADD65RoundRect,0.140000X0.140000X0.170000X-0.140000X0.170000X-0.140000X-0.170000X0.140000X-0.170000X0*%
%ADD66R,1.200000X2.200000*%
%ADD67R,5.800000X6.400000*%
%ADD68R,0.700000X1.000000*%
%ADD69RoundRect,0.200000X-0.200000X-0.275000X0.200000X-0.275000X0.200000X0.275000X-0.200000X0.275000X0*%
%ADD70RoundRect,0.150000X-0.675000X-0.150000X0.675000X-0.150000X0.675000X0.150000X-0.675000X0.150000X0*%
%ADD71RoundRect,0.237500X-0.250000X-0.237500X0.250000X-0.237500X0.250000X0.237500X-0.250000X0.237500X0*%
%ADD72O,1.000000X1.000000*%
%ADD73RoundRect,0.150000X-0.150000X0.675000X-0.150000X-0.675000X0.150000X-0.675000X0.150000X0.675000X0*%
%ADD74C,1.600000*%
%ADD75RoundRect,0.237500X-0.237500X0.250000X-0.237500X-0.250000X0.237500X-0.250000X0.237500X0.250000X0*%
%ADD76RoundRect,0.150000X0.675000X0.150000X-0.675000X0.150000X-0.675000X-0.150000X0.675000X-0.150000X0*%
G04 APERTURE END LIST*
D10*
%TO.C,JP2*%
X56333333Y-56092380D02*
X55714285Y-56092380D01*
X56047619Y-56473333D01*
X55904761Y-56473333D01*
X55809523Y-56520952D01*
X55761904Y-56568571D01*
X55714285Y-56663809D01*
X55714285Y-56901904D01*
X55761904Y-56997142D01*
X55809523Y-57044761D01*
X55904761Y-57092380D01*
X56190476Y-57092380D01*
X56285714Y-57044761D01*
X56333333Y-56997142D01*
X48964285Y-57092380D02*
X49535714Y-57092380D01*
X49250000Y-57092380D02*
X49250000Y-56092380D01*
X49345238Y-56235238D01*
X49440476Y-56330476D01*
X49535714Y-56378095D01*
%TO.C,JP1*%
X48944285Y-53362380D02*
X49515714Y-53362380D01*
X49230000Y-53362380D02*
X49230000Y-52362380D01*
X49325238Y-52505238D01*
X49420476Y-52600476D01*
X49515714Y-52648095D01*
X56313333Y-52362380D02*
X55694285Y-52362380D01*
X56027619Y-52743333D01*
X55884761Y-52743333D01*
X55789523Y-52790952D01*
X55741904Y-52838571D01*
X55694285Y-52933809D01*
X55694285Y-53171904D01*
X55741904Y-53267142D01*
X55789523Y-53314761D01*
X55884761Y-53362380D01*
X56170476Y-53362380D01*
X56265714Y-53314761D01*
X56313333Y-53267142D01*
D11*
%TO.C,C30*%
X119210000Y-88981252D02*
X119210000Y-87558748D01*
X116490000Y-88981252D02*
X116490000Y-87558748D01*
%TO.C,R55*%
X108280000Y-88353641D02*
X108280000Y-88046359D01*
X107520000Y-88353641D02*
X107520000Y-88046359D01*
%TO.C,R48*%
X94999140Y-84980000D02*
X95306422Y-84980000D01*
X94999140Y-84220000D02*
X95306422Y-84220000D01*
%TO.C,R68*%
X112210000Y-74027064D02*
X112210000Y-69672936D01*
X108790000Y-74027064D02*
X108790000Y-69672936D01*
%TO.C,C1*%
X98174264Y-57892164D02*
X98174264Y-58107836D01*
X98894264Y-57892164D02*
X98894264Y-58107836D01*
%TO.C,D17*%
X115700000Y-91900000D02*
X111800000Y-91900000D01*
X115700000Y-89900000D02*
X115700000Y-91900000D01*
X115700000Y-89900000D02*
X111800000Y-89900000D01*
%TO.C,R5*%
X51280000Y-89203641D02*
X51280000Y-88896359D01*
X50520000Y-89203641D02*
X50520000Y-88896359D01*
%TO.C,C5*%
X72842164Y-83890000D02*
X73057836Y-83890000D01*
X72842164Y-84610000D02*
X73057836Y-84610000D01*
%TO.C,Q3*%
X108355000Y-65750000D02*
X108355000Y-65480000D01*
X108355000Y-59120000D02*
X107255000Y-59120000D01*
X109855000Y-58850000D02*
X108355000Y-58850000D01*
X108355000Y-65480000D02*
X105525000Y-65480000D01*
X109855000Y-65750000D02*
X108355000Y-65750000D01*
X108355000Y-58850000D02*
X108355000Y-59120000D01*
%TO.C,R19*%
X64120000Y-90926359D02*
X64120000Y-91233641D01*
X64880000Y-90926359D02*
X64880000Y-91233641D01*
%TO.C,R20*%
X78796359Y-74320000D02*
X79103641Y-74320000D01*
X78796359Y-75080000D02*
X79103641Y-75080000D01*
%TO.C,Y1*%
X80320000Y-43290000D02*
X80320000Y-48690000D01*
X75820000Y-43290000D02*
X80320000Y-43290000D01*
%TO.C,C26*%
X46710000Y-77092164D02*
X46710000Y-77307836D01*
X45990000Y-77092164D02*
X45990000Y-77307836D01*
%TO.C,R18*%
X77180000Y-90866359D02*
X77180000Y-91173641D01*
X77940000Y-90866359D02*
X77940000Y-91173641D01*
%TO.C,TP5*%
X150320000Y-59790000D02*
G75*
G03*
X150320000Y-59790000I-1200000J0D01*
G01*
%TO.C,JP2*%
X55350000Y-55690000D02*
X49850000Y-55690000D01*
X49850000Y-55690000D02*
X49850000Y-57640000D01*
X55350000Y-57640000D02*
X55350000Y-55690000D01*
X49850000Y-57640000D02*
X55350000Y-57640000D01*
%TO.C,U4*%
X107260000Y-73640000D02*
X107260000Y-72840000D01*
X104140000Y-73640000D02*
X104140000Y-74440000D01*
X107260000Y-73640000D02*
X107260000Y-74440000D01*
X104140000Y-73640000D02*
X104140000Y-71840000D01*
%TO.C,R67*%
X150370000Y-74346359D02*
X150370000Y-74653641D01*
X151130000Y-74346359D02*
X151130000Y-74653641D01*
%TO.C,C3*%
X86138748Y-76485000D02*
X86661252Y-76485000D01*
X86138748Y-75015000D02*
X86661252Y-75015000D01*
%TO.C,R7*%
X100504264Y-54113641D02*
X100504264Y-53806359D01*
X101264264Y-54113641D02*
X101264264Y-53806359D01*
%TO.C,Q6*%
X67062500Y-89520000D02*
X68737500Y-89520000D01*
X67062500Y-89520000D02*
X66412500Y-89520000D01*
X67062500Y-92640000D02*
X66412500Y-92640000D01*
X67062500Y-92640000D02*
X67712500Y-92640000D01*
%TO.C,R56*%
X90546359Y-43005000D02*
X90853641Y-43005000D01*
X90546359Y-42245000D02*
X90853641Y-42245000D01*
%TO.C,D16*%
X132290000Y-92720000D02*
X128390000Y-92720000D01*
X132290000Y-94720000D02*
X128390000Y-94720000D01*
X132290000Y-92720000D02*
X132290000Y-94720000D01*
%TO.C,Q15*%
X98170000Y-40870000D02*
X98820000Y-40870000D01*
X98170000Y-37750000D02*
X98820000Y-37750000D01*
X98170000Y-37750000D02*
X97520000Y-37750000D01*
X98170000Y-40870000D02*
X96495000Y-40870000D01*
%TO.C,C10*%
X70050077Y-50815405D02*
X70202580Y-50662902D01*
X70559194Y-51324522D02*
X70711697Y-51172019D01*
%TO.C,R11*%
X106487258Y-66427500D02*
X106012742Y-66427500D01*
X106487258Y-67472500D02*
X106012742Y-67472500D01*
%TO.C,R36*%
X97503641Y-47210000D02*
X97196359Y-47210000D01*
X97503641Y-46450000D02*
X97196359Y-46450000D01*
%TO.C,Q2*%
X96990000Y-55062500D02*
X96990000Y-54412500D01*
X100110000Y-55062500D02*
X100110000Y-56737500D01*
X100110000Y-55062500D02*
X100110000Y-54412500D01*
X96990000Y-55062500D02*
X96990000Y-55712500D01*
%TO.C,C25*%
X105340000Y-42312164D02*
X105340000Y-42527836D01*
X104620000Y-42312164D02*
X104620000Y-42527836D01*
%TO.C,R53*%
X48803641Y-78320000D02*
X48496359Y-78320000D01*
X48803641Y-79080000D02*
X48496359Y-79080000D01*
%TO.C,R60*%
X119927500Y-89227258D02*
X119927500Y-88752742D01*
X120972500Y-89227258D02*
X120972500Y-88752742D01*
%TO.C,R16*%
X45123641Y-39290000D02*
X44816359Y-39290000D01*
X45123641Y-38530000D02*
X44816359Y-38530000D01*
%TO.C,R37*%
X116210000Y-74027064D02*
X116210000Y-69672936D01*
X112790000Y-74027064D02*
X112790000Y-69672936D01*
D12*
%TO.C,Q20*%
X128100000Y-57850000D02*
X128100000Y-57850000D01*
D11*
X128550000Y-63500000D02*
X128550000Y-56800000D01*
D12*
X128100000Y-57750000D02*
X128100000Y-57750000D01*
D11*
X133950000Y-63500000D02*
X133950000Y-58500000D01*
D12*
X128100000Y-57750000D02*
X128100000Y-57750000D01*
X128100000Y-57850000D02*
G75*
G03*
X128100000Y-57750000I0J50000D01*
G01*
X128100000Y-57850000D02*
G75*
G03*
X128100000Y-57750000I0J50000D01*
G01*
X128100000Y-57750000D02*
G75*
G03*
X128100000Y-57850000I0J-50000D01*
G01*
D11*
%TO.C,R12*%
X104332500Y-66437258D02*
X104332500Y-65962742D01*
X103287500Y-66437258D02*
X103287500Y-65962742D01*
%TO.C,C24*%
X106237781Y-88642164D02*
X106237781Y-88857836D01*
X105517781Y-88642164D02*
X105517781Y-88857836D01*
%TO.C,R44*%
X93231422Y-84245000D02*
X92924140Y-84245000D01*
X93231422Y-85005000D02*
X92924140Y-85005000D01*
%TO.C,U7*%
X103177780Y-89200001D02*
X103177780Y-88900001D01*
X103177780Y-92900001D02*
X103177780Y-92600001D01*
X98377780Y-88900001D02*
X98377780Y-89200001D01*
X98377780Y-92600001D02*
X98377780Y-92900001D01*
X98377780Y-92900001D02*
X103177780Y-92900001D01*
X98377780Y-92600001D02*
X96677780Y-92600001D01*
X103177780Y-88900001D02*
X98377780Y-88900001D01*
%TO.C,U2*%
X71170000Y-82880000D02*
X72270000Y-82880000D01*
X71170000Y-76520000D02*
X74000000Y-76520000D01*
X69670000Y-76250000D02*
X71170000Y-76250000D01*
X71170000Y-83150000D02*
X71170000Y-82880000D01*
X71170000Y-76250000D02*
X71170000Y-76520000D01*
X69670000Y-83150000D02*
X71170000Y-83150000D01*
%TO.C,U8*%
X98352781Y-88225000D02*
X98352781Y-88525000D01*
X98352781Y-88525000D02*
X103152781Y-88525000D01*
X103152781Y-84825000D02*
X103152781Y-84525000D01*
X103152781Y-88525000D02*
X103152781Y-88225000D01*
X98352781Y-88225000D02*
X96652781Y-88225000D01*
X103152781Y-84525000D02*
X98352781Y-84525000D01*
X98352781Y-84525000D02*
X98352781Y-84825000D01*
%TO.C,R66*%
X117596359Y-83170000D02*
X117903641Y-83170000D01*
X117596359Y-83930000D02*
X117903641Y-83930000D01*
%TO.C,C21*%
X123735000Y-82738748D02*
X123735000Y-83261252D01*
X122265000Y-82738748D02*
X122265000Y-83261252D01*
%TO.C,R52*%
X51303641Y-79130000D02*
X50996359Y-79130000D01*
X51303641Y-78370000D02*
X50996359Y-78370000D01*
%TO.C,R47*%
X94924140Y-93355000D02*
X95231422Y-93355000D01*
X94924140Y-92595000D02*
X95231422Y-92595000D01*
%TO.C,D8*%
X76500000Y-82150000D02*
X74800000Y-82150000D01*
X76500000Y-82150000D02*
X76500000Y-79000000D01*
X74800000Y-82150000D02*
X74800000Y-79000000D01*
%TO.C,U3*%
X65090000Y-49554689D02*
X65302132Y-49766821D01*
X65090000Y-59765311D02*
X64877868Y-59553179D01*
X69983179Y-54872132D02*
X70195311Y-54660000D01*
X59984689Y-54660000D02*
X60196821Y-54872132D01*
X65302132Y-59553179D02*
X65090000Y-59765311D01*
X64877868Y-49766821D02*
X65090000Y-49554689D01*
X65302132Y-49766821D02*
X66231977Y-48836976D01*
X70195311Y-54660000D02*
X69983179Y-54447868D01*
X60196821Y-54447868D02*
X59984689Y-54660000D01*
%TO.C,R38*%
X90730281Y-90387742D02*
X90730281Y-90862258D01*
X91775281Y-90387742D02*
X91775281Y-90862258D01*
%TO.C,R4*%
X99593641Y-62120000D02*
X99286359Y-62120000D01*
X99593641Y-62880000D02*
X99286359Y-62880000D01*
%TO.C,R64*%
X136020000Y-88273641D02*
X136020000Y-87966359D01*
X136780000Y-88273641D02*
X136780000Y-87966359D01*
%TO.C,R51*%
X90868641Y-44255000D02*
X90561359Y-44255000D01*
X90868641Y-43495000D02*
X90561359Y-43495000D01*
%TO.C,D15*%
X94947538Y-73194544D02*
X97174924Y-70967157D01*
X94947538Y-73194544D02*
X93745456Y-71992462D01*
X93745456Y-71992462D02*
X95972843Y-69765076D01*
%TO.C,JP1*%
X49830000Y-53910000D02*
X55330000Y-53910000D01*
X55330000Y-53910000D02*
X55330000Y-51960000D01*
X55330000Y-51960000D02*
X49830000Y-51960000D01*
X49830000Y-51960000D02*
X49830000Y-53910000D01*
%TO.C,C6*%
X75510000Y-77237836D02*
X75510000Y-77022164D01*
X74790000Y-77237836D02*
X74790000Y-77022164D01*
%TO.C,D23*%
X119000000Y-61500000D02*
X117000000Y-61500000D01*
X117000000Y-61500000D02*
X117000000Y-57600000D01*
X119000000Y-61500000D02*
X119000000Y-57600000D01*
%TO.C,R13*%
X45133641Y-40700000D02*
X44826359Y-40700000D01*
X45133641Y-41460000D02*
X44826359Y-41460000D01*
%TO.C,R65*%
X120820000Y-86276359D02*
X120820000Y-86583641D01*
X120060000Y-86276359D02*
X120060000Y-86583641D01*
%TO.C,C27*%
X126507836Y-92890000D02*
X126292164Y-92890000D01*
X126507836Y-93610000D02*
X126292164Y-93610000D01*
%TO.C,Q1*%
X115650000Y-52470000D02*
X115380000Y-52470000D01*
X115380000Y-52470000D02*
X115380000Y-55300000D01*
X115650000Y-50970000D02*
X115650000Y-52470000D01*
X109020000Y-52470000D02*
X109020000Y-53570000D01*
X108750000Y-50970000D02*
X108750000Y-52470000D01*
X108750000Y-52470000D02*
X109020000Y-52470000D01*
D12*
%TO.C,Q21*%
X119850000Y-71290000D02*
X119850000Y-71290000D01*
D11*
X120300000Y-77040000D02*
X120300000Y-70340000D01*
D12*
X119850000Y-71290000D02*
X119850000Y-71290000D01*
D11*
X125700000Y-77040000D02*
X125700000Y-72040000D01*
D12*
X119850000Y-71390000D02*
X119850000Y-71390000D01*
X119850000Y-71290000D02*
G75*
G03*
X119850000Y-71390000I0J-50000D01*
G01*
X119850000Y-71390000D02*
G75*
G03*
X119850000Y-71290000I0J50000D01*
G01*
X119850000Y-71390000D02*
G75*
G03*
X119850000Y-71290000I0J50000D01*
G01*
D11*
%TO.C,Q5*%
X69350000Y-92375000D02*
X69350000Y-90225000D01*
X72570000Y-92800000D02*
X72570000Y-90225000D01*
X70260000Y-90225000D02*
X69350000Y-90225000D01*
X72570000Y-90225000D02*
X71660000Y-90225000D01*
%TO.C,R58*%
X130282742Y-84267500D02*
X130757258Y-84267500D01*
X130282742Y-85312500D02*
X130757258Y-85312500D01*
%TO.C,R41*%
X52887258Y-68827500D02*
X52412742Y-68827500D01*
X52887258Y-69872500D02*
X52412742Y-69872500D01*
%TO.C,D21*%
X137250000Y-61500000D02*
X135250000Y-61500000D01*
X135250000Y-61500000D02*
X135250000Y-57600000D01*
X137250000Y-61500000D02*
X137250000Y-57600000D01*
%TO.C,R3*%
X51280000Y-86753641D02*
X51280000Y-86446359D01*
X50520000Y-86753641D02*
X50520000Y-86446359D01*
%TO.C,R15*%
X45173641Y-46080000D02*
X44866359Y-46080000D01*
X45173641Y-45320000D02*
X44866359Y-45320000D01*
%TO.C,U9*%
X128800000Y-92280000D02*
X130750000Y-92280000D01*
X128800000Y-87160000D02*
X126850000Y-87160000D01*
X128800000Y-87160000D02*
X130750000Y-87160000D01*
X128800000Y-92280000D02*
X125350000Y-92280000D01*
%TO.C,R57*%
X53930000Y-78146359D02*
X53930000Y-78453641D01*
X53170000Y-78146359D02*
X53170000Y-78453641D01*
%TO.C,R39*%
X91800281Y-86812742D02*
X91800281Y-87287258D01*
X90755281Y-86812742D02*
X90755281Y-87287258D01*
%TO.C,U10*%
X112400000Y-89410000D02*
X114350000Y-89410000D01*
X112400000Y-84290000D02*
X114350000Y-84290000D01*
X112400000Y-84290000D02*
X110450000Y-84290000D01*
X112400000Y-89410000D02*
X108950000Y-89410000D01*
%TO.C,C20*%
X134738748Y-80015000D02*
X135261252Y-80015000D01*
X134738748Y-81485000D02*
X135261252Y-81485000D01*
%TO.C,D20*%
X137250000Y-78750000D02*
X135250000Y-78750000D01*
X137250000Y-78750000D02*
X137250000Y-74850000D01*
X135250000Y-78750000D02*
X135250000Y-74850000D01*
%TO.C,R42*%
X105495276Y-71122500D02*
X106004724Y-71122500D01*
X105495276Y-70077500D02*
X106004724Y-70077500D01*
%TO.C,R8*%
X99180000Y-57846359D02*
X99180000Y-58153641D01*
X99940000Y-57846359D02*
X99940000Y-58153641D01*
%TO.C,J3*%
X56540000Y-44242500D02*
X56540000Y-43482500D01*
X54440000Y-36312500D02*
X54440000Y-41212500D01*
X52040000Y-36312500D02*
X52040000Y-41212500D01*
X55780000Y-44242500D02*
X56540000Y-44242500D01*
X59590000Y-41212500D02*
X46890000Y-41212500D01*
X46890000Y-41212500D02*
X46890000Y-36312500D01*
X46890000Y-36312500D02*
X59590000Y-36312500D01*
X59590000Y-36312500D02*
X59590000Y-41212500D01*
%TO.C,R22*%
X75820000Y-76946359D02*
X75820000Y-77253641D01*
X76580000Y-76946359D02*
X76580000Y-77253641D01*
%TO.C,R61*%
X117512742Y-84377500D02*
X117987258Y-84377500D01*
X117512742Y-85422500D02*
X117987258Y-85422500D01*
%TO.C,D1*%
X107650000Y-67900000D02*
X107650000Y-69600000D01*
X107650000Y-67900000D02*
X104500000Y-67900000D01*
X107650000Y-69600000D02*
X104500000Y-69600000D01*
%TO.C,C29*%
X132800000Y-91841252D02*
X132800000Y-90418748D01*
X135520000Y-91841252D02*
X135520000Y-90418748D01*
%TO.C,R63*%
X130466359Y-85700000D02*
X130773641Y-85700000D01*
X130466359Y-86460000D02*
X130773641Y-86460000D01*
%TO.C,R54*%
X124780000Y-91073641D02*
X124780000Y-90766359D01*
X124020000Y-91073641D02*
X124020000Y-90766359D01*
%TO.C,C22*%
X105857836Y-76810000D02*
X105642164Y-76810000D01*
X105857836Y-76090000D02*
X105642164Y-76090000D01*
%TO.C,R45*%
X99323641Y-37420000D02*
X99016359Y-37420000D01*
X99323641Y-36660000D02*
X99016359Y-36660000D01*
%TO.C,R9*%
X97144264Y-58153641D02*
X97144264Y-57846359D01*
X97904264Y-58153641D02*
X97904264Y-57846359D01*
%TO.C,R2*%
X50520000Y-84153641D02*
X50520000Y-83846359D01*
X51280000Y-84153641D02*
X51280000Y-83846359D01*
%TO.C,R33*%
X93543859Y-47230000D02*
X93851141Y-47230000D01*
X93543859Y-46470000D02*
X93851141Y-46470000D01*
%TO.C,C28*%
X109777836Y-90680000D02*
X109562164Y-90680000D01*
X109777836Y-89960000D02*
X109562164Y-89960000D01*
D12*
%TO.C,Q19*%
X128090000Y-71330000D02*
X128090000Y-71330000D01*
X128090000Y-71430000D02*
X128090000Y-71430000D01*
D11*
X128540000Y-77080000D02*
X128540000Y-70380000D01*
X133940000Y-77080000D02*
X133940000Y-72080000D01*
D12*
X128090000Y-71330000D02*
X128090000Y-71330000D01*
X128090000Y-71430000D02*
G75*
G03*
X128090000Y-71330000I0J50000D01*
G01*
X128090000Y-71330000D02*
G75*
G03*
X128090000Y-71430000I0J-50000D01*
G01*
X128090000Y-71430000D02*
G75*
G03*
X128090000Y-71330000I0J50000D01*
G01*
D11*
%TO.C,C7*%
X68962164Y-43120000D02*
X69177836Y-43120000D01*
X68962164Y-42400000D02*
X69177836Y-42400000D01*
%TO.C,R6*%
X51280000Y-91703641D02*
X51280000Y-91396359D01*
X50520000Y-91703641D02*
X50520000Y-91396359D01*
%TO.C,U6*%
X52460000Y-74050000D02*
X52460000Y-72100000D01*
X47340000Y-74050000D02*
X47340000Y-76000000D01*
X47340000Y-74050000D02*
X47340000Y-70600000D01*
X52460000Y-74050000D02*
X52460000Y-76000000D01*
%TO.C,R62*%
X149420000Y-74070000D02*
X145980000Y-74070000D01*
X147700000Y-74760000D02*
X147700000Y-74070000D01*
X145980000Y-74070000D02*
X145980000Y-64830000D01*
X145980000Y-64830000D02*
X149420000Y-64830000D01*
X149420000Y-64830000D02*
X149420000Y-74070000D01*
X147700000Y-64140000D02*
X147700000Y-64830000D01*
%TO.C,R50*%
X108776359Y-40260000D02*
X109083641Y-40260000D01*
X108776359Y-41020000D02*
X109083641Y-41020000D01*
%TO.C,C31*%
X145380000Y-63067836D02*
X145380000Y-62852164D01*
X144660000Y-63067836D02*
X144660000Y-62852164D01*
%TO.C,Q17*%
X94152781Y-89040000D02*
X94802781Y-89040000D01*
X94152781Y-89040000D02*
X93502781Y-89040000D01*
X94152781Y-92160000D02*
X92477781Y-92160000D01*
X94152781Y-92160000D02*
X94802781Y-92160000D01*
%TO.C,D22*%
X119000000Y-75000000D02*
X119000000Y-71100000D01*
X117000000Y-75000000D02*
X117000000Y-71100000D01*
X119000000Y-75000000D02*
X117000000Y-75000000D01*
%TO.C,R40*%
X95952500Y-39487258D02*
X95952500Y-39012742D01*
X94907500Y-39487258D02*
X94907500Y-39012742D01*
%TO.C,C23*%
X104035617Y-93390000D02*
X103819945Y-93390000D01*
X104035617Y-94110000D02*
X103819945Y-94110000D01*
%TO.C,R43*%
X92774140Y-92620000D02*
X93081422Y-92620000D01*
X92774140Y-93380000D02*
X93081422Y-93380000D01*
%TO.C,R46*%
X49796359Y-69980000D02*
X50103641Y-69980000D01*
X49796359Y-69220000D02*
X50103641Y-69220000D01*
%TO.C,R59*%
X133852742Y-88332500D02*
X134327258Y-88332500D01*
X133852742Y-87287500D02*
X134327258Y-87287500D01*
%TO.C,U5*%
X103910000Y-35830000D02*
X101960000Y-35830000D01*
X103910000Y-40950000D02*
X105860000Y-40950000D01*
X103910000Y-40950000D02*
X100460000Y-40950000D01*
X103910000Y-35830000D02*
X105860000Y-35830000D01*
%TO.C,R10*%
X100520000Y-55846359D02*
X100520000Y-56153641D01*
X101280000Y-55846359D02*
X101280000Y-56153641D01*
%TO.C,R17*%
X105873641Y-78000000D02*
X105566359Y-78000000D01*
X105873641Y-77240000D02*
X105566359Y-77240000D01*
%TO.C,D7*%
X84200000Y-74900000D02*
X81050000Y-74900000D01*
X84200000Y-76600000D02*
X81050000Y-76600000D01*
X84200000Y-74900000D02*
X84200000Y-76600000D01*
%TO.C,Q16*%
X56400000Y-67740000D02*
X55750000Y-67740000D01*
X56400000Y-70860000D02*
X57050000Y-70860000D01*
X56400000Y-67740000D02*
X58075000Y-67740000D01*
X56400000Y-70860000D02*
X55750000Y-70860000D01*
%TO.C,C4*%
X79057836Y-76160000D02*
X78842164Y-76160000D01*
X79057836Y-75440000D02*
X78842164Y-75440000D01*
%TO.C,Q18*%
X94202781Y-85390000D02*
X94852781Y-85390000D01*
X94202781Y-88510000D02*
X92527781Y-88510000D01*
X94202781Y-88510000D02*
X94852781Y-88510000D01*
X94202781Y-85390000D02*
X93552781Y-85390000D01*
%TO.C,R1*%
X51280000Y-81653641D02*
X51280000Y-81346359D01*
X50520000Y-81653641D02*
X50520000Y-81346359D01*
%TO.C,D9*%
X64970000Y-71340000D02*
X64970000Y-69640000D01*
X64970000Y-69640000D02*
X68120000Y-69640000D01*
X64970000Y-71340000D02*
X68120000Y-71340000D01*
%TO.C,R49*%
X102477500Y-73385276D02*
X102477500Y-73894724D01*
X103522500Y-73385276D02*
X103522500Y-73894724D01*
%TO.C,R14*%
X45143641Y-43720000D02*
X44836359Y-43720000D01*
X45143641Y-42960000D02*
X44836359Y-42960000D01*
%TO.C,U11*%
X71440000Y-48660000D02*
X69490000Y-48660000D01*
X71440000Y-43540000D02*
X69490000Y-43540000D01*
X71440000Y-43540000D02*
X74890000Y-43540000D01*
X71440000Y-48660000D02*
X73390000Y-48660000D01*
D12*
%TO.C,Q22*%
X119840000Y-57820000D02*
X119840000Y-57820000D01*
D11*
X120290000Y-63470000D02*
X120290000Y-56770000D01*
D12*
X119840000Y-57720000D02*
X119840000Y-57720000D01*
D11*
X125690000Y-63470000D02*
X125690000Y-58470000D01*
D12*
X119840000Y-57720000D02*
X119840000Y-57720000D01*
X119840000Y-57820000D02*
G75*
G03*
X119840000Y-57720000I0J50000D01*
G01*
X119840000Y-57720000D02*
G75*
G03*
X119840000Y-57820000I0J-50000D01*
G01*
X119840000Y-57820000D02*
G75*
G03*
X119840000Y-57720000I0J50000D01*
G01*
D11*
%TO.C,Q4*%
X74820000Y-92680000D02*
X75470000Y-92680000D01*
X74820000Y-89560000D02*
X75470000Y-89560000D01*
X74820000Y-92680000D02*
X73145000Y-92680000D01*
X74820000Y-89560000D02*
X74170000Y-89560000D01*
%TO.C,TP4*%
X77770000Y-70330000D02*
G75*
G03*
X77770000Y-70330000I-1200000J0D01*
G01*
%TO.C,C11*%
X68925779Y-49691104D02*
X69078282Y-49538601D01*
X69434896Y-50200221D02*
X69587399Y-50047718D01*
%TD*%
%LPC*%
D13*
%TO.C,SW3*%
X103040000Y-49100000D03*
X103040000Y-59260000D03*
D14*
X103040000Y-56720000D03*
D13*
X103040000Y-54180000D03*
X103040000Y-51640000D03*
%TD*%
D15*
%TO.C,J10*%
X45200000Y-52100000D03*
D16*
X45200000Y-54600000D03*
X45200000Y-57100000D03*
X45200000Y-59600000D03*
%TD*%
D17*
%TO.C,J1*%
X130500000Y-38925000D03*
X119500000Y-38925000D03*
D18*
X127500000Y-48925000D03*
D19*
X122500000Y-48925000D03*
%TD*%
D20*
%TO.C,J8*%
X101000000Y-42500000D03*
D21*
X98500000Y-42500000D03*
X96000000Y-42500000D03*
X93500000Y-42500000D03*
%TD*%
D15*
%TO.C,J4*%
X45200000Y-81250000D03*
D16*
X45200000Y-83750000D03*
%TD*%
D15*
%TO.C,J9*%
X45200000Y-66650000D03*
D16*
X45200000Y-69150000D03*
X45200000Y-71650000D03*
X45200000Y-74150000D03*
%TD*%
D22*
%TO.C,SW2*%
X100171000Y-64420000D03*
D23*
X97631000Y-64420000D03*
X95091000Y-64420000D03*
%TD*%
D17*
%TO.C,J2*%
X134000000Y-44900000D03*
X145000000Y-44900000D03*
D18*
X137000000Y-49900000D03*
D19*
X142000000Y-49900000D03*
%TD*%
D24*
%TO.C,JP4*%
X54900000Y-72625000D03*
D25*
X54900000Y-75165000D03*
%TD*%
D26*
%TO.C,J5*%
X68500000Y-87350000D03*
D21*
X71000000Y-87350000D03*
X73500000Y-87350000D03*
%TD*%
D20*
%TO.C,J7*%
X114500000Y-42470000D03*
D21*
X112000000Y-42470000D03*
X109500000Y-42470000D03*
X107000000Y-42470000D03*
%TD*%
D17*
%TO.C,J6*%
X142850000Y-63950000D03*
X142850000Y-74950000D03*
D18*
X137850000Y-66950000D03*
D19*
X137850000Y-71950000D03*
%TD*%
D22*
%TO.C,U1*%
X84940000Y-78300000D03*
D23*
X82400000Y-78300000D03*
X79860000Y-78300000D03*
%TD*%
D27*
%TO.C,SW1*%
X53050000Y-81475000D03*
D28*
X53050000Y-84015000D03*
X53050000Y-86555000D03*
X53050000Y-89095000D03*
X53050000Y-91635000D03*
X60670000Y-91635000D03*
X60670000Y-89095000D03*
X60670000Y-86555000D03*
X60670000Y-84015000D03*
X60670000Y-81475000D03*
%TD*%
D24*
%TO.C,JP3*%
X87970000Y-41010000D03*
D25*
X87970000Y-43550000D03*
%TD*%
D29*
%TO.C,C30*%
X117850000Y-89832500D03*
X117850000Y-86707500D03*
%TD*%
D30*
%TO.C,R55*%
X107900000Y-88710000D03*
X107900000Y-87690000D03*
%TD*%
D31*
%TO.C,R48*%
X94642781Y-84600000D03*
X95662781Y-84600000D03*
%TD*%
D32*
%TO.C,R68*%
X110500000Y-74812500D03*
X110500000Y-68887500D03*
%TD*%
D33*
%TO.C,C1*%
X98534264Y-57520000D03*
X98534264Y-58480000D03*
%TD*%
D34*
%TO.C,D17*%
X115100000Y-90900000D03*
X111800000Y-90900000D03*
%TD*%
D30*
%TO.C,R5*%
X50900000Y-89560000D03*
X50900000Y-88540000D03*
%TD*%
D35*
%TO.C,C5*%
X72470000Y-84250000D03*
X73430000Y-84250000D03*
%TD*%
D36*
%TO.C,Q3*%
X106625000Y-64580000D03*
D37*
X112925000Y-62300000D03*
D36*
X106625000Y-60020000D03*
%TD*%
D38*
%TO.C,R19*%
X64500000Y-90570000D03*
X64500000Y-91590000D03*
%TD*%
D31*
%TO.C,R20*%
X78440000Y-74700000D03*
X79460000Y-74700000D03*
%TD*%
D39*
%TO.C,Y1*%
X79220000Y-44540000D03*
X79220000Y-47440000D03*
X76920000Y-47440000D03*
X76920000Y-44540000D03*
%TD*%
D33*
%TO.C,C26*%
X46350000Y-76720000D03*
X46350000Y-77680000D03*
%TD*%
D38*
%TO.C,R18*%
X77560000Y-90510000D03*
X77560000Y-91530000D03*
%TD*%
D40*
%TO.C,TP5*%
X149120000Y-59790000D03*
%TD*%
D41*
%TO.C,JP2*%
X53800000Y-56640000D03*
X51400000Y-56640000D03*
D42*
X50600000Y-56640000D03*
D43*
X54600000Y-56640000D03*
%TD*%
D44*
%TO.C,U4*%
X104750000Y-72502500D03*
X105700000Y-72502500D03*
X106650000Y-72502500D03*
X106650000Y-74777500D03*
X104750000Y-74777500D03*
%TD*%
D38*
%TO.C,R67*%
X150750000Y-73990000D03*
X150750000Y-75010000D03*
%TD*%
D45*
%TO.C,C3*%
X85450000Y-75750000D03*
X87350000Y-75750000D03*
%TD*%
D30*
%TO.C,R7*%
X100884264Y-54470000D03*
X100884264Y-53450000D03*
%TD*%
D46*
%TO.C,Q6*%
X68000000Y-90130000D03*
X68000000Y-92030000D03*
X66125000Y-91080000D03*
%TD*%
D31*
%TO.C,R56*%
X90190000Y-42625000D03*
X91210000Y-42625000D03*
%TD*%
D34*
%TO.C,D16*%
X131690000Y-93720000D03*
X128390000Y-93720000D03*
%TD*%
D47*
%TO.C,Q15*%
X97232500Y-40260000D03*
X97232500Y-38360000D03*
X99107500Y-39310000D03*
%TD*%
D48*
%TO.C,C10*%
X70041476Y-51333123D03*
X70720298Y-50654301D03*
%TD*%
D49*
%TO.C,R11*%
X107075000Y-66950000D03*
X105425000Y-66950000D03*
%TD*%
D50*
%TO.C,R36*%
X97860000Y-46830000D03*
X96840000Y-46830000D03*
%TD*%
D51*
%TO.C,Q2*%
X99500000Y-56000000D03*
X97600000Y-56000000D03*
X98550000Y-54125000D03*
%TD*%
D33*
%TO.C,C25*%
X104980000Y-41940000D03*
X104980000Y-42900000D03*
%TD*%
D50*
%TO.C,R53*%
X49160000Y-78700000D03*
X48140000Y-78700000D03*
%TD*%
D52*
%TO.C,R60*%
X120450000Y-89815000D03*
X120450000Y-88165000D03*
%TD*%
D50*
%TO.C,R16*%
X45480000Y-38910000D03*
X44460000Y-38910000D03*
%TD*%
D32*
%TO.C,R37*%
X114500000Y-74812500D03*
X114500000Y-68887500D03*
%TD*%
D53*
%TO.C,Q20*%
X129345000Y-57862500D03*
X130615000Y-57862500D03*
X131885000Y-57862500D03*
X133155000Y-57862500D03*
D54*
X131250000Y-61550000D03*
D55*
X129345000Y-64337500D03*
X130615000Y-64337500D03*
X131885000Y-64337500D03*
X133155000Y-64337500D03*
%TD*%
D52*
%TO.C,R12*%
X103810000Y-67025000D03*
X103810000Y-65375000D03*
%TD*%
D33*
%TO.C,C24*%
X105877781Y-88270000D03*
X105877781Y-89230000D03*
%TD*%
D50*
%TO.C,R44*%
X93587781Y-84625000D03*
X92567781Y-84625000D03*
%TD*%
D56*
%TO.C,U7*%
X97627780Y-92170001D03*
X97627780Y-90900001D03*
X97627780Y-89630001D03*
X103927780Y-89630001D03*
X103927780Y-90900001D03*
X103927780Y-92170001D03*
%TD*%
D36*
%TO.C,U2*%
X72900000Y-77420000D03*
D37*
X66600000Y-79700000D03*
D36*
X72900000Y-79700000D03*
X72900000Y-81980000D03*
%TD*%
D56*
%TO.C,U8*%
X97602781Y-87795000D03*
X97602781Y-86525000D03*
X97602781Y-85255000D03*
X103902781Y-85255000D03*
X103902781Y-86525000D03*
X103902781Y-87795000D03*
%TD*%
D31*
%TO.C,R66*%
X117240000Y-83550000D03*
X118260000Y-83550000D03*
%TD*%
D57*
%TO.C,C21*%
X123000000Y-82050000D03*
X123000000Y-83950000D03*
%TD*%
D50*
%TO.C,R52*%
X51660000Y-78750000D03*
X50640000Y-78750000D03*
%TD*%
D31*
%TO.C,R47*%
X94567781Y-92975000D03*
X95587781Y-92975000D03*
%TD*%
D58*
%TO.C,D8*%
X75650000Y-81500000D03*
X75650000Y-79000000D03*
%TD*%
D59*
%TO.C,U3*%
X66062272Y-49727930D03*
X66627957Y-50293616D03*
X67193643Y-50859301D03*
X67759328Y-51424986D03*
X68325014Y-51990672D03*
X68890699Y-52556357D03*
X69456384Y-53122043D03*
X70022070Y-53687728D03*
D60*
X70022070Y-55632272D03*
X69456384Y-56197957D03*
X68890699Y-56763643D03*
X68325014Y-57329328D03*
X67759328Y-57895014D03*
X67193643Y-58460699D03*
X66627957Y-59026384D03*
X66062272Y-59592070D03*
D59*
X64117728Y-59592070D03*
X63552043Y-59026384D03*
X62986357Y-58460699D03*
X62420672Y-57895014D03*
X61854986Y-57329328D03*
X61289301Y-56763643D03*
X60723616Y-56197957D03*
X60157930Y-55632272D03*
D60*
X60157930Y-53687728D03*
X60723616Y-53122043D03*
X61289301Y-52556357D03*
X61854986Y-51990672D03*
X62420672Y-51424986D03*
X62986357Y-50859301D03*
X63552043Y-50293616D03*
X64117728Y-49727930D03*
%TD*%
D61*
%TO.C,R38*%
X91252781Y-89800000D03*
X91252781Y-91450000D03*
%TD*%
D50*
%TO.C,R4*%
X99950000Y-62500000D03*
X98930000Y-62500000D03*
%TD*%
D30*
%TO.C,R64*%
X136400000Y-88630000D03*
X136400000Y-87610000D03*
%TD*%
D50*
%TO.C,R51*%
X91225000Y-43875000D03*
X90205000Y-43875000D03*
%TD*%
D62*
%TO.C,D15*%
X94806117Y-72133883D03*
X96573883Y-70366117D03*
%TD*%
D41*
%TO.C,JP1*%
X53780000Y-52910000D03*
X51380000Y-52910000D03*
D42*
X50580000Y-52910000D03*
D43*
X54580000Y-52910000D03*
%TD*%
D63*
%TO.C,C6*%
X75150000Y-77610000D03*
X75150000Y-76650000D03*
%TD*%
D64*
%TO.C,D23*%
X118000000Y-60900000D03*
X118000000Y-57600000D03*
%TD*%
D50*
%TO.C,R13*%
X45490000Y-41080000D03*
X44470000Y-41080000D03*
%TD*%
D38*
%TO.C,R65*%
X120440000Y-85920000D03*
X120440000Y-86940000D03*
%TD*%
D65*
%TO.C,C27*%
X126880000Y-93250000D03*
X125920000Y-93250000D03*
%TD*%
D66*
%TO.C,Q1*%
X114480000Y-54200000D03*
D67*
X112200000Y-47900000D03*
D66*
X109920000Y-54200000D03*
%TD*%
D53*
%TO.C,Q21*%
X121095000Y-71402500D03*
X122365000Y-71402500D03*
X123635000Y-71402500D03*
X124905000Y-71402500D03*
D55*
X121095000Y-77877500D03*
X124905000Y-77877500D03*
X122365000Y-77877500D03*
X123635000Y-77877500D03*
D54*
X123000000Y-75090000D03*
%TD*%
D68*
%TO.C,Q5*%
X71910000Y-92500000D03*
X70010000Y-92500000D03*
X70960000Y-90100000D03*
%TD*%
D69*
%TO.C,R58*%
X129695000Y-84790000D03*
X131345000Y-84790000D03*
%TD*%
D49*
%TO.C,R41*%
X53475000Y-69350000D03*
X51825000Y-69350000D03*
%TD*%
D64*
%TO.C,D21*%
X136250000Y-60900000D03*
X136250000Y-57600000D03*
%TD*%
D30*
%TO.C,R3*%
X50900000Y-87110000D03*
X50900000Y-86090000D03*
%TD*%
D50*
%TO.C,R15*%
X45530000Y-45700000D03*
X44510000Y-45700000D03*
%TD*%
D70*
%TO.C,U9*%
X126175000Y-91625000D03*
X126175000Y-90355000D03*
X126175000Y-89085000D03*
X126175000Y-87815000D03*
X131425000Y-87815000D03*
X131425000Y-89085000D03*
X131425000Y-90355000D03*
X131425000Y-91625000D03*
%TD*%
D38*
%TO.C,R57*%
X53550000Y-77790000D03*
X53550000Y-78810000D03*
%TD*%
D61*
%TO.C,R39*%
X91277781Y-86225000D03*
X91277781Y-87875000D03*
%TD*%
D70*
%TO.C,U10*%
X109775000Y-88755000D03*
X109775000Y-87485000D03*
X109775000Y-86215000D03*
X109775000Y-84945000D03*
X115025000Y-84945000D03*
X115025000Y-86215000D03*
X115025000Y-87485000D03*
X115025000Y-88755000D03*
%TD*%
D45*
%TO.C,C20*%
X134050000Y-80750000D03*
X135950000Y-80750000D03*
%TD*%
D64*
%TO.C,D20*%
X136250000Y-78150000D03*
X136250000Y-74850000D03*
%TD*%
D71*
%TO.C,R42*%
X104837500Y-70600000D03*
X106662500Y-70600000D03*
%TD*%
D38*
%TO.C,R8*%
X99560000Y-57490000D03*
X99560000Y-58510000D03*
%TD*%
D58*
%TO.C,J3*%
X55780000Y-43482500D03*
D72*
X55780000Y-42212500D03*
X54510000Y-43482500D03*
X54510000Y-42212500D03*
X53240000Y-43482500D03*
X53240000Y-42212500D03*
X51970000Y-43482500D03*
X51970000Y-42212500D03*
X50700000Y-43482500D03*
X50700000Y-42212500D03*
%TD*%
D38*
%TO.C,R22*%
X76200000Y-76590000D03*
X76200000Y-77610000D03*
%TD*%
D69*
%TO.C,R61*%
X116925000Y-84900000D03*
X118575000Y-84900000D03*
%TD*%
D58*
%TO.C,D1*%
X107000000Y-68750000D03*
X104500000Y-68750000D03*
%TD*%
D29*
%TO.C,C29*%
X134160000Y-92692500D03*
X134160000Y-89567500D03*
%TD*%
D31*
%TO.C,R63*%
X130110000Y-86080000D03*
X131130000Y-86080000D03*
%TD*%
D30*
%TO.C,R54*%
X124400000Y-91430000D03*
X124400000Y-90410000D03*
%TD*%
D65*
%TO.C,C22*%
X106230000Y-76450000D03*
X105270000Y-76450000D03*
%TD*%
D50*
%TO.C,R45*%
X99680000Y-37040000D03*
X98660000Y-37040000D03*
%TD*%
D30*
%TO.C,R9*%
X97524264Y-58510000D03*
X97524264Y-57490000D03*
%TD*%
%TO.C,R2*%
X50900000Y-84510000D03*
X50900000Y-83490000D03*
%TD*%
D31*
%TO.C,R33*%
X93187500Y-46850000D03*
X94207500Y-46850000D03*
%TD*%
D65*
%TO.C,C28*%
X110150000Y-90320000D03*
X109190000Y-90320000D03*
%TD*%
D53*
%TO.C,Q19*%
X129335000Y-71442500D03*
X130605000Y-71442500D03*
X131875000Y-71442500D03*
X133145000Y-71442500D03*
D55*
X130605000Y-77917500D03*
X133145000Y-77917500D03*
X129335000Y-77917500D03*
D54*
X131240000Y-75130000D03*
D55*
X131875000Y-77917500D03*
%TD*%
D35*
%TO.C,C7*%
X68590000Y-42760000D03*
X69550000Y-42760000D03*
%TD*%
D30*
%TO.C,R6*%
X50900000Y-92060000D03*
X50900000Y-91040000D03*
%TD*%
D73*
%TO.C,U6*%
X47995000Y-71425000D03*
X49265000Y-71425000D03*
X50535000Y-71425000D03*
X51805000Y-71425000D03*
X51805000Y-76675000D03*
X50535000Y-76675000D03*
X49265000Y-76675000D03*
X47995000Y-76675000D03*
%TD*%
D74*
%TO.C,R62*%
X147700000Y-75800000D03*
D28*
X147700000Y-63100000D03*
%TD*%
D31*
%TO.C,R50*%
X108420000Y-40640000D03*
X109440000Y-40640000D03*
%TD*%
D63*
%TO.C,C31*%
X145020000Y-63440000D03*
X145020000Y-62480000D03*
%TD*%
D47*
%TO.C,Q17*%
X93215281Y-91550000D03*
X93215281Y-89650000D03*
X95090281Y-90600000D03*
%TD*%
D64*
%TO.C,D22*%
X118000000Y-74400000D03*
X118000000Y-71100000D03*
%TD*%
D52*
%TO.C,R40*%
X95430000Y-40075000D03*
X95430000Y-38425000D03*
%TD*%
D65*
%TO.C,C23*%
X104407781Y-93750000D03*
X103447781Y-93750000D03*
%TD*%
D31*
%TO.C,R43*%
X92417781Y-93000000D03*
X93437781Y-93000000D03*
%TD*%
%TO.C,R46*%
X49440000Y-69600000D03*
X50460000Y-69600000D03*
%TD*%
D69*
%TO.C,R59*%
X133265000Y-87810000D03*
X134915000Y-87810000D03*
%TD*%
D70*
%TO.C,U5*%
X101285000Y-40295000D03*
X101285000Y-39025000D03*
X101285000Y-37755000D03*
X101285000Y-36485000D03*
X106535000Y-36485000D03*
X106535000Y-37755000D03*
X106535000Y-39025000D03*
X106535000Y-40295000D03*
%TD*%
D38*
%TO.C,R10*%
X100900000Y-55490000D03*
X100900000Y-56510000D03*
%TD*%
D50*
%TO.C,R17*%
X106230000Y-77620000D03*
X105210000Y-77620000D03*
%TD*%
D58*
%TO.C,D7*%
X83550000Y-75750000D03*
X81050000Y-75750000D03*
%TD*%
D46*
%TO.C,Q16*%
X57337500Y-68350000D03*
X57337500Y-70250000D03*
X55462500Y-69300000D03*
%TD*%
D65*
%TO.C,C4*%
X79430000Y-75800000D03*
X78470000Y-75800000D03*
%TD*%
D47*
%TO.C,Q18*%
X93265281Y-87900000D03*
X93265281Y-86000000D03*
X95140281Y-86950000D03*
%TD*%
D30*
%TO.C,R1*%
X50900000Y-82010000D03*
X50900000Y-80990000D03*
%TD*%
D58*
%TO.C,D9*%
X65620000Y-70490000D03*
X68120000Y-70490000D03*
%TD*%
D75*
%TO.C,R49*%
X103000000Y-72727500D03*
X103000000Y-74552500D03*
%TD*%
D50*
%TO.C,R14*%
X45500000Y-43340000D03*
X44480000Y-43340000D03*
%TD*%
D76*
%TO.C,U11*%
X74065000Y-44195000D03*
X74065000Y-45465000D03*
X74065000Y-46735000D03*
X74065000Y-48005000D03*
X68815000Y-48005000D03*
X68815000Y-46735000D03*
X68815000Y-45465000D03*
X68815000Y-44195000D03*
%TD*%
D53*
%TO.C,Q22*%
X121085000Y-57832500D03*
X122355000Y-57832500D03*
X123625000Y-57832500D03*
X124895000Y-57832500D03*
D55*
X122355000Y-64307500D03*
X123625000Y-64307500D03*
X124895000Y-64307500D03*
D54*
X122990000Y-61520000D03*
D55*
X121085000Y-64307500D03*
%TD*%
D47*
%TO.C,Q4*%
X73882500Y-92070000D03*
X73882500Y-90170000D03*
X75757500Y-91120000D03*
%TD*%
D40*
%TO.C,TP4*%
X76570000Y-70330000D03*
%TD*%
D48*
%TO.C,C11*%
X68917178Y-50208822D03*
X69596000Y-49530000D03*
%TD*%
M02*
