M48
; DRILL file {KiCad (6.0.11)} date Sat Feb 10 22:55:27 2024
; FORMAT={-:-/ absolute / inch / decimal}
; #@! TF.CreationDate,2024-02-10T22:55:27+09:00
; #@! TF.GenerationSoftware,Kicad,Pcbnew,(6.0.11)
; #@! TF.FileFunction,Plated,1,2,PTH
FMAT,2
INCH
; #@! TA.AperFunction,Plated,PTH,ViaDrill
T1C0.0118
; #@! TA.AperFunction,Plated,PTH,ViaDrill
T2C0.0157
; #@! TA.AperFunction,Plated,PTH,ViaDrill
T3C0.0236
; #@! TA.AperFunction,Plated,PTH,ComponentDrill
T4C0.0256
; #@! TA.AperFunction,Plated,PTH,ComponentDrill
T5C0.0300
; #@! TA.AperFunction,Plated,PTH,ComponentDrill
T6C0.0315
; #@! TA.AperFunction,Plated,PTH,ComponentDrill
T7C0.0335
; #@! TA.AperFunction,Plated,PTH,ComponentDrill
T8C0.0394
; #@! TA.AperFunction,Plated,PTH,ComponentDrill
T9C0.0433
; #@! TA.AperFunction,Plated,PTH,ComponentDrill
T10C0.0748
%
G90
G05
T1
X1.8823Y-1.6181
X1.8846Y-1.7035
X1.885Y-1.8008
X1.887Y-1.5315
X1.901Y-1.7422
X1.901Y-1.7737
X1.9657Y-1.8425
X1.9715Y-1.7705
X1.9715Y-1.8055
X2.0331Y-3.2535
X2.0409Y-3.3543
X2.0409Y-3.5516
X2.0417Y-3.4492
X2.0693Y-1.9394
X2.07Y-3.0629
X2.0996Y-2.8531
X2.1323Y-1.902
X2.1409Y-1.7717
X2.1484Y-2.0217
X2.1484Y-3.1043
X2.1496Y-2.2299
X2.1524Y-3.0232
X2.1831Y-1.8201
X2.1953Y-1.965
X2.2323Y-1.8626
X2.3205Y-2.4134
X2.3285Y-1.9787
X2.3285Y-2.0102
X2.3354Y-2.0445
X2.3386Y-3.1004
X2.3396Y-2.0848
X2.3451Y-2.4465
X2.3508Y-2.174
X2.3618Y-2.3807
X2.3795Y-2.3185
X2.3839Y-2.2636
X2.3894Y-2.0152
X2.4043Y-1.8232
X2.414Y-1.9917
X2.426Y-2.3079
X2.4265Y-1.8009
X2.4272Y-2.1476
X2.4386Y-1.9626
X2.4642Y-2.113
X2.4701Y-1.9472
X2.4933Y-2.15
X2.4965Y-2.072
X2.5193Y-2.0984
X2.6004Y-2.2531
X2.663Y-2.1823
X2.6866Y-2.3409
X2.6902Y-3.004
X2.7016Y-2.1433
X2.8035Y-2.1799
X2.8079Y-2.2378
X2.8122Y-2.1028
X2.8343Y-2.2988
X2.8453Y-2.3606
X2.861Y-3.3713
X2.8634Y-2.4248
X2.8949Y-2.1
X2.9181Y-2.1807
X2.9287Y-2.2362
X2.9524Y-2.2996
X2.9697Y-1.8272
X2.9819Y-2.2031
X2.9941Y-2.0945
X3.0075Y-2.3614
X3.0244Y-2.2409
X3.0307Y-2.424
X3.0331Y-2.0572
X3.0445Y-2.1421
X3.087Y-2.2996
X3.0972Y-2.1098
X3.1161Y-2.0592
X3.1291Y-2.1642
X3.1303Y-2.2319
X3.1484Y-2.365
X3.1547Y-2.1091
X3.1701Y-2.2272
X3.1992Y-2.2992
X3.2067Y-2.4283
X3.2677Y-2.4776
X3.3096Y-2.4671
X3.3276Y-2.2276
X3.3449Y-2.5547
X3.348Y-2.1587
X3.3614Y-2.4622
X3.374Y-2.3681
X3.3957Y-2.3024
X3.402Y-1.6752
X3.4358Y-2.2406
X3.4382Y-2.5394
X3.4547Y-2.6606
X3.4657Y-2.4657
X3.5098Y-2.6122
X3.5114Y-2.4142
X3.5181Y-2.7264
X3.5469Y-2.7571
X3.5606Y-2.5598
X3.561Y-3.0083
X3.561Y-3.1516
X3.561Y-3.3547
X3.5618Y-3.2469
X3.563Y-2.8402
X3.5669Y-2.3661
X3.5669Y-2.6689
X3.6146Y-2.5165
X3.6181Y-2.6181
X3.6264Y-2.7311
X3.6303Y-1.8421
X3.6303Y-3.4984
X3.6327Y-3.5646
X3.6602Y-2.4583
X3.6665Y-3.5622
X3.6709Y-2.5732
X3.6728Y-3.4161
X3.6791Y-3.5004
X3.6799Y-2.6819
X3.6902Y-2.7992
X3.7303Y-2.635
X3.7472Y-2.7453
X3.7571Y-1.4705
X3.772Y-2.8811
X3.7915Y-2.518
X3.8339Y-2.8346
X3.8807Y-1.5126
X3.8923Y-1.8351
X3.9067Y-1.8631
X3.9114Y-3.6185
X3.922Y-1.5067
X4.0933Y-2.3858
X4.1512Y-2.4409
X4.1984Y-2.4823
X4.2618Y-3.4047
X4.2647Y-1.6295
X4.2689Y-3.5079
X4.4882Y-3.6689
X4.6083Y-3.6689
X4.6457Y-2.3228
X4.685Y-2.3228
X4.7244Y-2.3228
X4.7276Y-3.6673
X4.7638Y-2.3228
X4.8031Y-2.3228
X4.8425Y-2.3228
X4.874Y-2.7953
X4.874Y-2.8346
X4.8819Y-2.7559
X4.9606Y-2.0079
X4.9843Y-2.7795
X5.0Y-2.0079
X5.0394Y-2.0079
X5.0394Y-2.3228
X5.0787Y-2.0079
X5.0787Y-2.3228
X5.1181Y-2.3228
X5.1575Y-2.3228
X5.1969Y-2.3228
X5.315Y-2.0472
X5.3543Y-2.0472
X5.3543Y-2.3228
X5.3937Y-2.0472
X5.3937Y-2.3228
X5.4331Y-2.0472
X5.4331Y-2.3228
X5.4724Y-2.0472
X5.4724Y-2.3228
X5.5118Y-2.5591
X5.5118Y-2.5984
X5.5118Y-2.6378
X5.5118Y-2.6772
X5.6075Y-2.8984
X5.935Y-2.8823
T2
X1.7106Y-2.9051
X1.7114Y-3.2567
X1.7118Y-3.0846
X1.7134Y-1.8409
X1.7177Y-2.0043
X1.7185Y-2.2984
X1.7213Y-3.5504
X1.7272Y-1.572
X1.7319Y-3.6736
X1.7331Y-1.7492
X1.7413Y-1.4453
X1.7756Y-2.4815
X1.8173Y-1.6626
X1.8362Y-1.9307
X1.8378Y-2.4311
X1.8382Y-3.1083
X1.8406Y-2.9689
X1.8421Y-2.6882
X1.8441Y-2.5602
X1.8441Y-2.7945
X1.8484Y-2.2374
X1.8551Y-3.2705
X1.8642Y-3.4492
X1.8673Y-3.6996
X1.8717Y-3.065
X1.8787Y-1.8496
X1.8921Y-1.6602
X1.9069Y-3.0629
X1.9177Y-2.8783
X1.9335Y-2.0831
X1.9335Y-2.2016
X1.9339Y-1.5374
X1.9406Y-2.6811
X1.9417Y-2.4957
X1.9425Y-2.3031
X1.9476Y-2.022
X1.9512Y-1.4429
X1.9524Y-1.9346
X1.9528Y-3.1669
X1.9591Y-3.3386
X1.9638Y-3.5449
X1.965Y-3.4374
X1.9858Y-2.9461
X2.0071Y-2.1614
X2.0354Y-2.8957
X2.0382Y-2.0138
X2.0386Y-2.2961
X2.0398Y-2.5307
X2.0433Y-2.6689
X2.0449Y-1.8417
X2.0457Y-2.4244
X2.0673Y-3.0067
X2.0843Y-1.5315
X2.0886Y-2.9685
X2.1406Y-2.6465
X2.1445Y-2.3713
X2.1531Y-2.487
X2.1618Y-3.6004
X2.1693Y-1.4429
X2.1858Y-2.1417
X2.1874Y-2.7858
X2.1929Y-2.2815
X2.2087Y-2.0929
X2.2154Y-3.0118
X2.2224Y-2.9169
X2.2315Y-3.5228
X2.2327Y-3.3508
X2.2358Y-2.3067
X2.2378Y-3.2307
X2.2421Y-2.1673
X2.2457Y-2.8531
X2.2575Y-1.5661
X2.2575Y-1.7425
X2.2587Y-2.8031
X2.2728Y-2.3929
X2.2756Y-2.5248
X2.278Y-2.9551
X2.2803Y-2.6433
X2.2807Y-2.8902
X2.2858Y-3.1724
X2.2921Y-3.6047
X2.2988Y-2.1803
X2.3039Y-2.2429
X2.3138Y-1.9213
X2.3283Y-3.3524
X2.3311Y-3.4524
X2.3311Y-3.5555
X2.3323Y-3.2563
X2.3421Y-1.8386
X2.3469Y-1.6591
X2.3669Y-1.4461
X2.4035Y-1.9181
X2.4075Y-1.5587
X2.428Y-2.8217
X2.4413Y-2.6126
X2.4437Y-3.1496
X2.4445Y-1.7524
X2.4465Y-2.9618
X2.4496Y-3.4563
X2.4555Y-3.2657
X2.4831Y-3.6012
X2.4843Y-2.5295
X2.4862Y-2.2154
X2.4882Y-2.7
X2.5067Y-2.9854
X2.5083Y-1.8902
X2.5087Y-1.8244
X2.5173Y-1.6811
X2.5331Y-1.552
X2.5386Y-1.8508
X2.5445Y-1.9122
X2.5472Y-2.8512
X2.5474Y-2.7772
X2.5642Y-1.4484
X2.5768Y-3.3268
X2.5803Y-2.9181
X2.5803Y-3.4657
X2.5872Y-2.0524
X2.5937Y-1.7496
X2.602Y-2.6925
X2.6075Y-2.187
X2.6252Y-2.4126
X2.6272Y-2.4953
X2.6283Y-2.6126
X2.6425Y-2.9846
X2.6437Y-2.8543
X2.65Y-2.7071
X2.6587Y-1.5272
X2.7169Y-3.502
X2.7193Y-3.2906
X2.7315Y-2.6161
X2.7319Y-1.5846
X2.7374Y-2.9882
X2.7382Y-2.413
X2.7386Y-2.8189
X2.7618Y-1.6606
X2.7732Y-1.9547
X2.7776Y-1.4591
X2.7795Y-1.8654
X2.7803Y-1.7969
X2.787Y-3.0575
X2.8083Y-3.7087
X2.8327Y-1.5835
X2.8402Y-2.5008
X2.848Y-1.7898
X2.8535Y-1.9839
X2.8547Y-1.8831
X2.8846Y-1.6776
X2.887Y-2.6433
X2.887Y-2.8634
X2.887Y-3.0547
X2.9205Y-1.4929
X2.9272Y-3.3106
X2.9366Y-1.9311
X2.9673Y-1.6866
X2.9709Y-3.4642
X2.9736Y-1.5949
X2.9846Y-1.4264
X2.987Y-1.9819
X2.9925Y-3.7094
X2.9957Y-3.6386
X3.0083Y-2.9772
X3.0157Y-2.8681
X3.0193Y-2.5
X3.0315Y-2.6386
X3.0398Y-1.685
X3.0725Y-2.0277
X3.0772Y-3.2736
X3.0776Y-1.4827
X3.0929Y-1.9799
X3.0933Y-3.6362
X3.1098Y-2.8949
X3.1193Y-1.5953
X3.1244Y-2.7496
X3.1303Y-3.4752
X3.1413Y-1.9378
X3.1492Y-1.9913
X3.1705Y-2.8457
X3.1744Y-2.4957
X3.176Y-1.8421
X3.1898Y-3.7031
X3.1969Y-3.1421
X3.1984Y-1.685
X3.202Y-2.6728
X3.215Y-2.9055
X3.2154Y-1.4925
X3.2213Y-1.9772
X3.25Y-1.8335
X3.2508Y-1.5882
X3.2551Y-3.248
X3.2776Y-2.8386
X3.2858Y-2.6169
X3.2949Y-3.4516
X3.3Y-3.6366
X3.3024Y-2.7496
X3.3209Y-1.4795
X3.3362Y-2.8012
X3.3366Y-1.8602
X3.3406Y-1.7063
X3.3476Y-2.9039
X3.3555Y-3.348
X3.3772Y-1.5886
X3.3862Y-2.0772
X3.3904Y-1.5116
X3.3909Y-2.715
X3.3957Y-3.2382
X3.3969Y-2.8441
X3.4189Y-3.5575
X3.4217Y-1.9846
X3.4405Y-2.7438
X3.476Y-3.1638
X3.4815Y-3.3094
X3.4823Y-1.8524
X3.4835Y-2.9984
X3.487Y-3.4795
X3.4878Y-2.8539
X3.5091Y-2.1921
X3.5224Y-1.752
X3.5811Y-1.8441
X3.5886Y-1.9728
X3.6012Y-3.6488
X3.6083Y-2.2862
X3.6138Y-2.2079
X3.6213Y-2.0839
X3.6264Y-2.8012
X3.6358Y-2.9984
X3.6366Y-1.7287
X3.637Y-2.8756
X3.639Y-3.2835
X3.6614Y-1.8937
X3.6803Y-2.3646
X3.7236Y-1.9543
X3.7386Y-3.0035
X3.7398Y-2.9244
X3.7457Y-3.1618
X3.7508Y-3.2437
X3.7508Y-3.5016
X3.7512Y-1.7811
X3.7579Y-1.8913
X3.7618Y-1.987
X3.7642Y-2.226
X3.765Y-2.4429
X3.7898Y-2.5795
X3.8055Y-2.6976
X3.8368Y-1.4734
X3.8465Y-2.4496
X3.8528Y-1.9122
X3.8551Y-2.0638
X3.8594Y-2.3453
X3.8819Y-2.772
X3.8933Y-2.5937
X3.9051Y-1.7819
X3.9268Y-2.6878
X3.9516Y-2.3524
X3.9524Y-2.0638
X3.9571Y-1.889
X3.9815Y-2.4724
X3.9819Y-3.7071
X3.9921Y-2.2783
X3.9984Y-2.5846
X4.0039Y-3.678
X4.0059Y-2.0776
X4.0409Y-2.7528
X4.0425Y-1.5583
X4.0429Y-2.6854
X4.0461Y-2.4484
X4.05Y-3.7071
X4.052Y-1.7866
X4.0567Y-1.4232
X4.102Y-1.4807
X4.1165Y-2.5252
X4.124Y-1.9965
X4.1362Y-1.7236
X4.139Y-1.4283
X4.1394Y-1.5921
X4.1394Y-2.5902
X4.1535Y-2.0669
X4.1535Y-2.1063
X4.1535Y-2.1457
X4.1535Y-2.185
X4.1535Y-2.2244
X4.1535Y-2.2638
X4.1535Y-2.3031
X4.1535Y-2.3425
X4.1535Y-2.3819
X4.1614Y-2.9512
X4.1736Y-3.6862
X4.176Y-1.863
X4.1929Y-2.0669
X4.1929Y-2.1063
X4.1929Y-2.1457
X4.1929Y-2.185
X4.1929Y-2.2244
X4.1929Y-2.2638
X4.1929Y-2.3031
X4.1929Y-2.3425
X4.1929Y-2.3819
X4.222Y-1.7406
X4.222Y-1.9949
X4.2323Y-2.0669
X4.2323Y-2.1063
X4.2323Y-2.1457
X4.2323Y-2.185
X4.2323Y-2.2244
X4.2323Y-2.2638
X4.2323Y-2.3031
X4.2323Y-2.3425
X4.2323Y-2.3819
X4.2492Y-2.4504
X4.2555Y-3.5961
X4.2571Y-1.4307
X4.2717Y-2.0669
X4.2717Y-2.1063
X4.2717Y-2.1457
X4.2717Y-2.185
X4.2717Y-2.2244
X4.2717Y-2.2638
X4.2717Y-2.3031
X4.2717Y-2.3425
X4.2717Y-2.3819
X4.2717Y-2.5591
X4.2717Y-2.5984
X4.2717Y-2.6378
X4.2717Y-2.6772
X4.2717Y-2.7165
X4.2799Y-3.6953
X4.2913Y-2.9134
X4.2913Y-2.9528
X4.2913Y-2.9921
X4.2913Y-3.0315
X4.2913Y-3.0709
X4.2913Y-3.1102
X4.2921Y-3.2843
X4.311Y-2.0669
X4.311Y-2.1063
X4.311Y-2.1457
X4.311Y-2.185
X4.311Y-2.2244
X4.311Y-2.2638
X4.311Y-2.3228
X4.311Y-2.3622
X4.311Y-2.4016
X4.311Y-2.4409
X4.311Y-2.4803
X4.311Y-2.5197
X4.311Y-2.5591
X4.311Y-2.5984
X4.311Y-2.6378
X4.311Y-2.6772
X4.311Y-2.7165
X4.3307Y-2.9134
X4.3307Y-2.9528
X4.3307Y-2.9921
X4.3307Y-3.0315
X4.3307Y-3.0709
X4.3307Y-3.1102
X4.3504Y-2.0669
X4.3504Y-2.1063
X4.3504Y-2.1457
X4.3504Y-2.185
X4.3504Y-2.2244
X4.3504Y-2.2638
X4.3504Y-2.3228
X4.3504Y-2.3622
X4.3504Y-2.4016
X4.3504Y-2.4409
X4.3504Y-2.4803
X4.3504Y-2.5197
X4.3504Y-2.5591
X4.3504Y-2.5984
X4.3504Y-2.6378
X4.3504Y-2.6772
X4.3504Y-2.7165
X4.3512Y-1.489
X4.3528Y-3.5984
X4.3567Y-1.5681
X4.3654Y-3.6768
X4.3701Y-2.9134
X4.3701Y-2.9528
X4.3701Y-2.9921
X4.3701Y-3.0315
X4.3701Y-3.0709
X4.3701Y-3.1102
X4.378Y-3.3531
X4.3898Y-2.3228
X4.3898Y-2.3622
X4.3898Y-2.4016
X4.3898Y-2.4409
X4.3898Y-2.4803
X4.3898Y-2.5197
X4.3898Y-2.5591
X4.3898Y-2.5984
X4.3898Y-2.6378
X4.3898Y-2.6772
X4.3898Y-2.7165
X4.3972Y-3.7079
X4.4094Y-2.0866
X4.4094Y-2.126
X4.4094Y-2.1654
X4.4094Y-2.2047
X4.4094Y-2.2441
X4.4094Y-2.2835
X4.4094Y-2.9134
X4.4094Y-2.9528
X4.4094Y-2.9921
X4.4094Y-3.0315
X4.4094Y-3.0709
X4.4094Y-3.1102
X4.4217Y-3.2823
X4.4228Y-3.4736
X4.4291Y-2.3228
X4.4291Y-2.3622
X4.4291Y-2.4016
X4.4291Y-2.4409
X4.4291Y-2.4803
X4.4291Y-2.5197
X4.4291Y-2.5591
X4.4291Y-2.5984
X4.4291Y-2.6378
X4.4291Y-2.6772
X4.4291Y-2.7165
X4.4291Y-3.6653
X4.4323Y-3.4177
X4.4488Y-2.0866
X4.4488Y-2.126
X4.4488Y-2.1654
X4.4488Y-2.2047
X4.4488Y-2.2441
X4.4488Y-2.2835
X4.4488Y-2.9134
X4.4488Y-2.9528
X4.4488Y-2.9921
X4.4488Y-3.0315
X4.4488Y-3.0709
X4.4488Y-3.1102
X4.4559Y-1.5894
X4.4575Y-1.4228
X4.465Y-3.3665
X4.4685Y-2.3228
X4.4685Y-2.3622
X4.4685Y-2.4016
X4.4685Y-2.4409
X4.4685Y-2.4803
X4.4685Y-2.5197
X4.4685Y-2.5591
X4.4685Y-2.5984
X4.4685Y-2.6378
X4.4685Y-2.6772
X4.4685Y-2.7165
X4.4799Y-3.5362
X4.4882Y-2.0866
X4.4882Y-2.126
X4.4882Y-2.1654
X4.4882Y-2.2047
X4.4882Y-2.2441
X4.4882Y-2.2835
X4.4882Y-2.9134
X4.4882Y-2.9528
X4.4882Y-2.9921
X4.4882Y-3.0315
X4.4882Y-3.0709
X4.4882Y-3.1102
X4.5079Y-2.3228
X4.5079Y-2.3622
X4.5079Y-2.4016
X4.5079Y-2.4409
X4.5079Y-2.4803
X4.5079Y-2.5197
X4.5079Y-2.5591
X4.5079Y-2.5984
X4.5079Y-2.6378
X4.5079Y-2.6772
X4.5079Y-2.7165
X4.5264Y-1.4732
X4.5276Y-2.0866
X4.5276Y-2.126
X4.5276Y-2.1654
X4.5276Y-2.2047
X4.5276Y-2.2441
X4.5276Y-2.2835
X4.5276Y-2.9134
X4.5276Y-2.9528
X4.5276Y-2.9921
X4.5276Y-3.0315
X4.5276Y-3.0709
X4.5276Y-3.1102
X4.5276Y-3.1496
X4.5276Y-3.189
X4.5276Y-3.2283
X4.5307Y-1.5378
X4.5472Y-2.3228
X4.5472Y-2.3622
X4.5472Y-2.4016
X4.5472Y-2.4409
X4.5472Y-2.4803
X4.5472Y-2.5197
X4.5472Y-2.5591
X4.5472Y-2.5984
X4.5472Y-2.6378
X4.5472Y-2.6772
X4.5472Y-2.7165
X4.5669Y-2.0866
X4.5669Y-2.126
X4.5669Y-2.1654
X4.5669Y-2.2047
X4.5669Y-2.2441
X4.5669Y-2.2835
X4.5669Y-2.9134
X4.5669Y-2.9528
X4.5669Y-2.9921
X4.5669Y-3.0315
X4.5669Y-3.0709
X4.5669Y-3.1102
X4.5669Y-3.1496
X4.5669Y-3.189
X4.5669Y-3.2283
X4.5764Y-3.2874
X4.5866Y-2.3228
X4.5866Y-2.3622
X4.5866Y-2.4016
X4.5866Y-2.4409
X4.5866Y-2.4803
X4.5866Y-2.5197
X4.5866Y-2.5591
X4.5866Y-2.5984
X4.5866Y-2.6378
X4.5866Y-2.6772
X4.5866Y-2.7165
X4.6063Y-2.0866
X4.6063Y-2.126
X4.6063Y-2.1654
X4.6063Y-2.2047
X4.6063Y-2.2441
X4.6063Y-2.2835
X4.6063Y-2.9134
X4.6063Y-2.9528
X4.6063Y-2.9921
X4.6063Y-3.0315
X4.6063Y-3.0709
X4.6063Y-3.1102
X4.6063Y-3.1496
X4.6063Y-3.189
X4.6063Y-3.2283
X4.637Y-1.4272
X4.6457Y-2.0866
X4.6457Y-2.126
X4.6457Y-2.1654
X4.6457Y-2.2047
X4.6457Y-2.2441
X4.6457Y-2.2835
X4.6457Y-2.3622
X4.6457Y-2.4016
X4.6457Y-2.4409
X4.6457Y-2.4803
X4.6457Y-2.5197
X4.6457Y-2.5591
X4.6457Y-2.5984
X4.6457Y-2.6378
X4.6457Y-2.6772
X4.6457Y-2.7165
X4.6457Y-2.7559
X4.6457Y-2.7953
X4.6457Y-2.8346
X4.6457Y-2.9134
X4.6457Y-2.9528
X4.6457Y-2.9921
X4.6457Y-3.0315
X4.6457Y-3.0709
X4.6457Y-3.1102
X4.6457Y-3.1496
X4.6457Y-3.189
X4.6457Y-3.2283
X4.685Y-2.0866
X4.685Y-2.126
X4.685Y-2.1654
X4.685Y-2.2047
X4.685Y-2.2441
X4.685Y-2.2835
X4.685Y-2.3622
X4.685Y-2.4016
X4.685Y-2.4409
X4.685Y-2.4803
X4.685Y-2.5197
X4.685Y-2.5591
X4.685Y-2.5984
X4.685Y-2.6378
X4.685Y-2.6772
X4.685Y-2.7165
X4.685Y-2.7559
X4.685Y-2.7953
X4.685Y-2.8346
X4.685Y-2.9134
X4.685Y-2.9528
X4.685Y-2.9921
X4.685Y-3.0315
X4.685Y-3.0709
X4.685Y-3.1102
X4.685Y-3.1496
X4.685Y-3.189
X4.685Y-3.2283
X4.7228Y-3.2925
X4.7244Y-2.0866
X4.7244Y-2.126
X4.7244Y-2.1654
X4.7244Y-2.2047
X4.7244Y-2.2441
X4.7244Y-2.2835
X4.7244Y-2.3622
X4.7244Y-2.4016
X4.7244Y-2.4409
X4.7244Y-2.4803
X4.7244Y-2.5197
X4.7244Y-2.5591
X4.7244Y-2.5984
X4.7244Y-2.6378
X4.7244Y-2.6772
X4.7244Y-2.7165
X4.7244Y-2.7559
X4.7244Y-2.7953
X4.7244Y-2.8346
X4.7244Y-2.9134
X4.7244Y-2.9528
X4.7244Y-2.9921
X4.7244Y-3.0315
X4.7244Y-3.0709
X4.7244Y-3.1102
X4.7244Y-3.1496
X4.7244Y-3.189
X4.7244Y-3.2283
X4.7638Y-2.0866
X4.7638Y-2.126
X4.7638Y-2.1654
X4.7638Y-2.2047
X4.7638Y-2.2441
X4.7638Y-2.2835
X4.7638Y-2.3622
X4.7638Y-2.4016
X4.7638Y-2.4409
X4.7638Y-2.4803
X4.7638Y-2.5197
X4.7638Y-2.5591
X4.7638Y-2.5984
X4.7638Y-2.6378
X4.7638Y-2.6772
X4.7638Y-2.7165
X4.7638Y-2.7559
X4.7638Y-2.7953
X4.7638Y-2.8346
X4.7638Y-2.9134
X4.7638Y-2.9528
X4.7638Y-2.9921
X4.7638Y-3.0315
X4.7638Y-3.0709
X4.7638Y-3.1102
X4.7638Y-3.1496
X4.7638Y-3.189
X4.7638Y-3.2283
X4.7909Y-3.2933
X4.7929Y-3.4976
X4.8031Y-2.0866
X4.8031Y-2.126
X4.8031Y-2.1654
X4.8031Y-2.2047
X4.8031Y-2.2441
X4.8031Y-2.2835
X4.8031Y-2.3622
X4.8031Y-2.4016
X4.8031Y-2.4409
X4.8031Y-2.4803
X4.8031Y-2.5197
X4.8031Y-2.5591
X4.8031Y-2.5984
X4.8031Y-2.6378
X4.8031Y-2.6772
X4.8031Y-2.7165
X4.8031Y-2.7559
X4.8031Y-2.7953
X4.8031Y-2.8346
X4.8031Y-2.9134
X4.8031Y-2.9528
X4.8031Y-2.9921
X4.8031Y-3.0315
X4.8031Y-3.0709
X4.8031Y-3.1102
X4.8031Y-3.1496
X4.8031Y-3.189
X4.8031Y-3.2283
X4.835Y-3.3827
X4.8425Y-2.0866
X4.8425Y-2.126
X4.8425Y-2.1654
X4.8425Y-2.2047
X4.8425Y-2.2441
X4.8425Y-2.2835
X4.8425Y-2.3622
X4.8425Y-2.4016
X4.8425Y-2.4409
X4.8425Y-2.4803
X4.8425Y-2.5197
X4.8425Y-2.5591
X4.8425Y-2.5984
X4.8425Y-2.6378
X4.8425Y-2.6772
X4.8425Y-2.7165
X4.8425Y-2.7559
X4.8425Y-2.7953
X4.8425Y-2.8346
X4.8425Y-2.9134
X4.8425Y-2.9528
X4.8425Y-2.9921
X4.8425Y-3.0315
X4.8425Y-3.0709
X4.8425Y-3.1102
X4.8425Y-3.1496
X4.8425Y-3.189
X4.8528Y-3.661
X4.8654Y-3.4591
X4.8681Y-3.3492
X4.8819Y-2.0472
X4.8819Y-2.0866
X4.8819Y-2.126
X4.8819Y-2.1654
X4.8819Y-2.2047
X4.8819Y-2.3622
X4.8819Y-2.4016
X4.8819Y-2.4409
X4.8819Y-2.4803
X4.8819Y-2.5197
X4.8819Y-2.5591
X4.8819Y-2.5984
X4.8819Y-2.6378
X4.8819Y-2.6772
X4.8819Y-2.7165
X4.8819Y-2.9134
X4.8819Y-2.9528
X4.8819Y-2.9921
X4.8819Y-3.0315
X4.8819Y-3.0709
X4.8819Y-3.1102
X4.8819Y-3.1496
X4.8819Y-3.189
X4.8819Y-3.2283
X4.8961Y-3.2913
X4.9059Y-3.6409
X4.9213Y-2.0079
X4.9213Y-2.0472
X4.9213Y-2.0866
X4.9213Y-2.126
X4.9213Y-2.1654
X4.9213Y-2.2047
X4.9213Y-2.3622
X4.9213Y-2.4016
X4.9213Y-2.4409
X4.9213Y-2.4803
X4.9213Y-2.5197
X4.9213Y-2.5591
X4.9213Y-2.5984
X4.9213Y-2.6378
X4.9213Y-2.6772
X4.9213Y-2.7165
X4.9213Y-2.9134
X4.9213Y-2.9528
X4.9213Y-2.9921
X4.9213Y-3.0315
X4.9213Y-3.0709
X4.9213Y-3.1102
X4.9213Y-3.1496
X4.9213Y-3.189
X4.9213Y-3.2283
X4.9489Y-3.3158
X4.9606Y-2.0472
X4.9606Y-2.0866
X4.9606Y-2.126
X4.9606Y-2.1654
X4.9606Y-2.2047
X4.9606Y-2.2441
X4.9606Y-2.4016
X4.9606Y-2.4409
X4.9606Y-2.4803
X4.9606Y-2.5197
X4.9606Y-2.5591
X4.9606Y-2.5984
X4.9606Y-2.6378
X4.9606Y-2.6772
X4.9606Y-2.7165
X4.9606Y-2.7559
X4.9734Y-2.8278
X5.0Y-2.0472
X5.0Y-2.0866
X5.0Y-2.126
X5.0Y-2.1654
X5.0Y-2.2047
X5.0Y-2.2441
X5.0Y-2.2835
X5.0071Y-2.8489
X5.037Y-3.4661
X5.0394Y-2.0472
X5.0394Y-2.0866
X5.0394Y-2.126
X5.0394Y-2.1654
X5.0394Y-2.2047
X5.0394Y-2.2441
X5.0394Y-2.2835
X5.0406Y-3.3791
X5.0421Y-3.5866
X5.0787Y-2.0472
X5.0787Y-2.0866
X5.0787Y-2.126
X5.0787Y-2.1654
X5.0787Y-2.2047
X5.0787Y-2.2441
X5.0787Y-2.2835
X5.0787Y-2.3622
X5.0787Y-2.4016
X5.0787Y-2.9134
X5.0787Y-2.9528
X5.0787Y-2.9921
X5.0787Y-3.0315
X5.0787Y-3.0709
X5.0787Y-3.1102
X5.0787Y-3.1496
X5.0787Y-3.189
X5.0787Y-3.2283
X5.0862Y-3.2866
X5.0996Y-3.5787
X5.1055Y-3.637
X5.1181Y-1.8504
X5.1181Y-1.8898
X5.1181Y-1.9291
X5.1181Y-1.9685
X5.1181Y-2.0079
X5.1181Y-2.0472
X5.1181Y-2.0866
X5.1181Y-2.126
X5.1181Y-2.1654
X5.1181Y-2.2047
X5.1181Y-2.2441
X5.1181Y-2.2835
X5.1181Y-2.3622
X5.1181Y-2.4016
X5.1181Y-2.4409
X5.1181Y-2.9528
X5.1181Y-2.9921
X5.1181Y-3.0315
X5.1181Y-3.0709
X5.1181Y-3.1102
X5.1181Y-3.1496
X5.1181Y-3.189
X5.1181Y-3.2283
X5.1213Y-3.7004
X5.1575Y-1.8504
X5.1575Y-1.8898
X5.1575Y-1.9291
X5.1575Y-1.9685
X5.1575Y-2.0079
X5.1575Y-2.0472
X5.1575Y-2.0866
X5.1575Y-2.126
X5.1575Y-2.1654
X5.1575Y-2.2047
X5.1575Y-2.2441
X5.1575Y-2.2835
X5.1575Y-2.3622
X5.1575Y-2.4016
X5.1575Y-2.4409
X5.1575Y-2.4803
X5.1575Y-2.9921
X5.1575Y-3.0315
X5.1575Y-3.0709
X5.1575Y-3.1102
X5.1575Y-3.1496
X5.1575Y-3.189
X5.1575Y-3.2283
X5.1969Y-1.8504
X5.1969Y-1.8898
X5.1969Y-1.9291
X5.1969Y-1.9685
X5.1969Y-2.0079
X5.1969Y-2.0472
X5.1969Y-2.0866
X5.1969Y-2.126
X5.1969Y-2.1654
X5.1969Y-2.2047
X5.1969Y-2.2441
X5.1969Y-2.2835
X5.1969Y-2.3622
X5.1969Y-2.4016
X5.1969Y-2.4409
X5.1969Y-2.4803
X5.1969Y-2.5197
X5.1969Y-3.0315
X5.1969Y-3.0709
X5.1969Y-3.1102
X5.1969Y-3.1496
X5.1969Y-3.189
X5.1969Y-3.2283
X5.2362Y-1.8504
X5.2362Y-1.8898
X5.2362Y-1.9291
X5.2362Y-1.9685
X5.2362Y-2.0079
X5.2362Y-2.0472
X5.2362Y-2.0866
X5.2362Y-2.126
X5.2362Y-2.1654
X5.2362Y-2.2047
X5.2362Y-2.3622
X5.2362Y-2.4016
X5.2362Y-2.4409
X5.2362Y-2.4803
X5.2362Y-2.5197
X5.2362Y-2.5591
X5.2362Y-3.0315
X5.2362Y-3.0709
X5.2362Y-3.1102
X5.2362Y-3.1496
X5.2362Y-3.189
X5.2362Y-3.2283
X5.2469Y-3.5858
X5.2469Y-3.7102
X5.2756Y-1.8504
X5.2756Y-1.8898
X5.2756Y-1.9291
X5.2756Y-1.9685
X5.2756Y-2.0079
X5.2756Y-2.0472
X5.2756Y-2.0866
X5.2756Y-2.126
X5.2756Y-2.1654
X5.2756Y-2.2047
X5.2756Y-2.4016
X5.2756Y-2.4409
X5.2756Y-2.4803
X5.2756Y-2.5197
X5.2756Y-2.5591
X5.2756Y-2.5984
X5.2823Y-3.2752
X5.3122Y-3.1232
X5.315Y-1.8504
X5.315Y-2.0866
X5.315Y-2.126
X5.315Y-2.1654
X5.315Y-2.2047
X5.315Y-2.2441
X5.315Y-2.2835
X5.315Y-2.4016
X5.315Y-2.4409
X5.315Y-2.4803
X5.315Y-2.5197
X5.315Y-2.5591
X5.315Y-2.5984
X5.315Y-2.6378
X5.3543Y-1.8504
X5.3543Y-2.0866
X5.3543Y-2.126
X5.3543Y-2.1654
X5.3543Y-2.2047
X5.3543Y-2.2441
X5.3543Y-2.2835
X5.3543Y-2.4016
X5.3543Y-2.4409
X5.3543Y-2.4803
X5.3543Y-2.5197
X5.3634Y-3.5839
X5.3787Y-3.239
X5.3843Y-3.1303
X5.3937Y-1.8504
X5.3937Y-2.0866
X5.3937Y-2.126
X5.3937Y-2.1654
X5.3937Y-2.2047
X5.3937Y-2.2441
X5.3937Y-2.2835
X5.3937Y-2.4016
X5.3937Y-2.4409
X5.3937Y-2.4803
X5.3937Y-2.5197
X5.4331Y-1.8504
X5.4331Y-2.0866
X5.4331Y-2.126
X5.4331Y-2.1654
X5.4331Y-2.2047
X5.4331Y-2.2441
X5.4331Y-2.2835
X5.4331Y-2.4016
X5.4331Y-2.4409
X5.4331Y-2.4803
X5.4331Y-2.5197
X5.4724Y-1.8504
X5.4724Y-2.0866
X5.4724Y-2.126
X5.4724Y-2.1654
X5.4724Y-2.2047
X5.4724Y-2.2441
X5.4724Y-2.2835
X5.4724Y-2.4409
X5.4724Y-2.4803
X5.4724Y-2.5197
X5.4957Y-3.702
X5.5039Y-3.4972
X5.5118Y-2.4803
X5.5118Y-2.5197
X5.5339Y-2.2685
X5.5402Y-2.1693
X5.5461Y-2.0791
X5.5874Y-2.3909
X5.5896Y-2.353
X5.5902Y-2.3167
X5.6108Y-2.4144
X5.6126Y-3.0193
X5.6181Y-3.2083
X5.6181Y-3.3811
X5.6205Y-2.7524
X5.628Y-2.5854
X5.6421Y-2.4394
X5.6457Y-2.2587
X5.6583Y-3.5677
X5.6791Y-2.4394
X5.6839Y-2.9685
X5.7008Y-2.1594
X5.7169Y-2.3551
X5.7213Y-2.7524
X5.7346Y-3.702
X5.7366Y-2.0776
X5.7551Y-2.6004
X5.7831Y-2.4047
X5.8047Y-3.1382
X5.8063Y-2.2528
X5.8079Y-3.4594
X5.8315Y-2.6976
X5.835Y-3.5555
X5.876Y-2.9035
X5.887Y-2.5126
X5.8913Y-2.9972
X5.9433Y-3.65
X5.952Y-2.8185
X5.9602Y-2.0776
X5.9602Y-2.6508
X5.9634Y-2.4575
X5.9634Y-3.4732
X5.9638Y-2.1732
X5.965Y-2.3016
X5.9654Y-3.2283
X5.9677Y-2.9961
T3
X2.6371Y-2.0552
X2.7618Y-1.737
T4
X1.9961Y-1.6619
X1.9961Y-1.7119
X2.0461Y-1.6619
X2.0461Y-1.7119
X2.0961Y-1.6619
X2.0961Y-1.7119
X2.1461Y-1.6619
X2.1461Y-1.7119
X2.1961Y-1.6619
X2.1961Y-1.7119
X3.7437Y-2.5362
X3.8437Y-2.5362
X3.9437Y-2.5362
T5
X3.1441Y-3.0827
X3.2441Y-3.0827
X3.3441Y-3.0827
T6
X2.0886Y-3.2077
X2.0886Y-3.3077
X2.0886Y-3.4077
X2.0886Y-3.5077
X2.0886Y-3.6077
X2.3886Y-3.2077
X2.3886Y-3.3077
X2.3886Y-3.4077
X2.3886Y-3.5077
X2.3886Y-3.6077
X5.815Y-2.4843
X5.815Y-2.9843
T7
X1.7795Y-2.0512
X1.7795Y-2.1496
X1.7795Y-2.248
X1.7795Y-2.3465
X1.7795Y-2.624
X1.7795Y-2.7224
X1.7795Y-2.8209
X1.7795Y-2.9193
X1.7795Y-3.1988
X1.7795Y-3.2972
X2.6969Y-3.439
X2.7953Y-3.439
X2.8937Y-3.439
X3.6811Y-1.6732
X3.7795Y-1.6732
X3.878Y-1.6732
X3.9764Y-1.6732
X4.2126Y-1.672
X4.311Y-1.672
X4.4094Y-1.672
X4.5079Y-1.672
T8
X2.1614Y-2.8593
X2.1614Y-2.9593
X3.0146Y-2.7689
X3.4634Y-1.6146
X3.4634Y-1.7146
X4.7047Y-1.5325
X5.1378Y-1.5325
X5.2756Y-1.7677
X5.624Y-2.5177
X5.624Y-2.9508
X5.7087Y-1.7677
X5.8709Y-2.3539
T9
X4.0567Y-1.9331
X4.0567Y-2.0331
X4.0567Y-2.1331
X4.0567Y-2.2331
X4.0567Y-2.3331
T10
X4.8228Y-1.9262
X5.0197Y-1.9262
X5.3937Y-1.9646
X5.4272Y-2.6358
X5.4272Y-2.8327
X5.5906Y-1.9646
T0
M30
